<?xml version="1.0" encoding="utf-8"?>
<!-- Generator: Adobe Illustrator 24.0.1, SVG Export Plug-In . SVG Version: 6.00 Build 0)  -->
<svg version="1.1" id="Слой_1" xmlns="http://www.w3.org/2000/svg" xmlns:xlink="http://www.w3.org/1999/xlink" x="0px" y="0px"
	 viewBox="0 0 64 64" style="enable-background:new 0 0 64 64;" xml:space="preserve">
<style type="text/css">
	.st0{fill:#DF4142;}
	.st1{fill-rule:evenodd;clip-rule:evenodd;fill:#FFFFFF;}
</style>
<circle class="st0" cx="32" cy="32" r="32"/>
<path class="st1" d="M43.8,40.7c0.9,0.9,0.9,2.5,0,3.4c-0.9,0.9-2.4,0.9-3.4,0L32,35.6l-8.4,8.5c-0.9,0.9-2.4,0.9-3.4,0
	c-0.9-0.9-0.9-2.5,0-3.4l8.4-8.5l-8.7-8.8c-0.9-0.9-0.9-2.5,0-3.4c0.9-0.9,2.4-0.9,3.4,0l8.7,8.8l8.7-8.8c0.9-0.9,2.4-0.9,3.4,0
	c0.9,0.9,0.9,2.5,0,3.4l-8.7,8.8L43.8,40.7z"/>
</svg>
