<svg width="110" height="24" viewBox="0 0 110 24" fill="none" xmlns="http://www.w3.org/2000/svg">
<path d="M5.383 10.213C5.446 8.688 5.843 7.283 6.51 6.005C5.345 11.605 7.983 18.008 12.371 23.633C14.644 20.203 17.219 14.148 13.189 7.745C10.532 3.525 10.746 1.228 11.565 0C5.144 0.209 0 5.511 0 12.016C0 18.325 4.841 23.5 10.992 24C7.542 19.678 5.194 14.768 5.383 10.213Z" fill="#0044D9"/>
<path d="M21.1211 8.82109C22.0971 8.03609 21.8321 5.73309 19.1501 2.40509C22.0461 4.60109 23.9221 8.08709 23.9221 12.0161C23.9221 18.1281 19.3891 23.1711 13.5161 23.9371C17.2301 20.8301 20.5041 14.8191 15.8331 8.50409C12.5971 4.13209 12.5341 1.48109 13.0131 0.0380859L13.0571 0.0440859C12.9311 1.31609 13.7311 3.38509 15.2041 5.40309C17.6841 8.80709 20.0511 9.68009 21.1221 8.82009L21.1211 8.82109ZM18.7601 7.52309C19.6991 7.52309 20.4601 6.75809 20.4601 5.81509C20.4601 4.87109 19.6991 4.10709 18.7601 4.10709C17.8211 4.10709 17.0601 4.87209 17.0601 5.81509C17.0601 6.75909 17.8211 7.52309 18.7601 7.52309Z" fill="#FD5F7C"/>
<path d="M39.8369 20.2539H30.6899V3.99291H39.8429V6.23891H33.3339V10.6679H39.4339V12.8949H33.3339V18.0009H39.8429V20.2539H39.8369ZM49.8089 20.2539L49.2929 18.5389H49.2049C48.6129 19.2859 48.0219 19.7979 47.4229 20.0699C46.8249 20.3419 46.0569 20.4749 45.1189 20.4749C43.9169 20.4749 42.9789 20.1459 42.3049 19.4939C41.6309 18.8419 41.2909 17.9179 41.2909 16.7229C41.2909 15.4569 41.7569 14.4959 42.6949 13.8499C43.6329 13.2049 45.0619 12.8499 46.9759 12.7929L49.0909 12.7229V12.0649C49.0909 11.2799 48.9079 10.6919 48.5429 10.2999C48.1779 9.90791 47.6109 9.71791 46.8429 9.71791C46.2129 9.71791 45.6149 9.81291 45.0359 9.99591C44.4629 10.1789 43.9089 10.4009 43.3739 10.6539L42.5369 8.79391C43.1979 8.44591 43.9279 8.17991 44.7149 7.99691C45.5019 7.81391 46.2509 7.72491 46.9499 7.72491C48.5049 7.72491 49.6819 8.06691 50.4749 8.74991C51.2679 9.43291 51.6649 10.5029 51.6649 11.9639V20.2529H49.8079L49.8089 20.2539ZM45.9369 18.4759C46.8809 18.4759 47.6369 18.2099 48.2099 17.6789C48.7829 17.1479 49.0659 16.4069 49.0659 15.4519V14.3829L47.4919 14.4529C46.2639 14.4969 45.3769 14.7059 44.8159 15.0729C44.2619 15.4399 43.9789 16.0029 43.9789 16.7559C43.9789 17.3059 44.1429 17.7309 44.4639 18.0279C44.8039 18.3249 45.2889 18.4769 45.9369 18.4769V18.4759ZM58.9499 18.3619C59.5859 18.3619 60.2219 18.2609 60.8509 18.0649V20.0329C60.5609 20.1599 60.1899 20.2669 59.7369 20.3489C59.2839 20.4309 58.8119 20.4759 58.3269 20.4759C55.8649 20.4759 54.6319 19.1729 54.6319 16.5589V9.93391H52.9639V8.77591L54.7579 7.82091L55.6459 5.21991H57.2509V7.95291H60.7389V9.93291H57.2509V16.5139C57.2509 17.1469 57.4079 17.6089 57.7229 17.9119C58.0309 18.2089 58.4409 18.3609 58.9509 18.3609L58.9499 18.3619ZM65.9509 15.9509C65.9509 14.9769 66.1839 14.1349 66.6559 13.4069C67.1279 12.6859 67.9779 11.9639 69.2119 11.2559C68.5129 10.4329 68.0349 9.73691 67.7769 9.16791C67.5189 8.59891 67.3929 8.00991 67.3929 7.40291C67.3929 6.27691 67.7959 5.38491 68.5949 4.73291C69.3949 4.08091 70.4709 3.75191 71.8179 3.75191C73.1209 3.75191 74.1469 4.06791 74.8959 4.70091C75.6389 5.33391 76.0169 6.18791 76.0169 7.26391C76.0169 8.11191 75.7649 8.87791 75.2679 9.56691C74.7709 10.2569 73.9399 10.9459 72.7749 11.6359L76.6029 15.3499C77.2009 14.5589 77.6979 13.3949 78.0949 11.8569H80.7699C80.2539 13.9639 79.4289 15.6789 78.2899 17.0069L81.6199 20.2469H78.2649L76.6159 18.6329C75.8609 19.2399 75.0609 19.6959 74.2109 20.0059C73.3609 20.3159 72.4169 20.4679 71.3839 20.4679C69.6839 20.4679 68.3559 20.0629 67.3859 19.2529C66.4349 18.4559 65.9509 17.3479 65.9509 15.9499V15.9509ZM71.5289 18.2289C72.8759 18.2289 74.0349 17.8299 74.9919 17.0399L70.7549 12.8449C69.9739 13.3509 69.4329 13.8189 69.1369 14.2619C68.8409 14.7049 68.6959 15.2049 68.6959 15.7679C68.6959 16.4959 68.9539 17.0839 69.4639 17.5399C69.9739 18.0019 70.6659 18.2299 71.5289 18.2299V18.2289ZM69.8799 7.49791C69.8799 7.96591 70.0059 8.40891 70.2509 8.81991C70.4969 9.23791 70.8429 9.67391 71.2829 10.1419C72.1139 9.66691 72.6989 9.22391 73.0389 8.81291C73.3729 8.40191 73.5429 7.93991 73.5429 7.42691C73.5429 6.94591 73.3859 6.55991 73.0649 6.26891C72.7439 5.97791 72.3159 5.83191 71.7869 5.83191C71.2019 5.83191 70.7419 5.98391 70.3959 6.28091C70.0499 6.57791 69.8799 6.98991 69.8799 7.49591V7.49791ZM89.8669 20.2539H87.2419V3.99291H96.3699V6.23891H89.8599V11.3199H95.9599V13.5789H89.8599V20.2539H89.8659H89.8669ZM97.9689 4.69491C97.9689 4.22691 98.0949 3.86591 98.3529 3.61291C98.6049 3.35991 98.9699 3.23291 99.4419 3.23291C99.9019 3.23291 100.254 3.35991 100.512 3.61291C100.764 3.86591 100.896 4.22691 100.896 4.69491C100.896 5.13791 100.77 5.49191 100.512 5.74491C100.254 5.99791 99.9009 6.13091 99.4419 6.13091C98.9699 6.13091 98.6049 6.00391 98.3529 5.74491C98.1009 5.48591 97.9689 5.13791 97.9689 4.69491ZM100.727 20.2539H98.1269V7.95291H100.727V20.2539ZM108.092 18.3619C108.728 18.3619 109.364 18.2609 109.994 18.0649V20.0329C109.704 20.1599 109.333 20.2669 108.879 20.3489C108.426 20.4309 107.954 20.4759 107.469 20.4759C105.008 20.4759 103.774 19.1729 103.774 16.5589V9.93391H102.106V8.77591L103.9 7.82091L104.787 5.21991H106.393V7.95291H109.88V9.93291H106.393V16.5139C106.393 17.1469 106.55 17.6089 106.865 17.9119C107.173 18.2089 107.583 18.3609 108.092 18.3609V18.3619Z" fill="#1D3F5B"/>
</svg>
