<?xml version="1.0" encoding="UTF-8" standalone="no"?>
<!DOCTYPE svg PUBLIC "-//W3C//DTD SVG 1.1//EN" "http://www.w3.org/Graphics/SVG/1.1/DTD/svg11.dtd">
<svg width="100%" height="100%" viewBox="0 0 26 26" version="1.1" xmlns="http://www.w3.org/2000/svg" xmlns:xlink="http://www.w3.org/1999/xlink" xml:space="preserve" xmlns:serif="http://www.serif.com/" style="fill-rule:evenodd;clip-rule:evenodd;stroke-linejoin:round;stroke-miterlimit:2;">
    <path d="M13,23.833C18.983,23.833 23.833,18.983 23.833,13C23.833,7.017 18.983,2.167 13,2.167C7.017,2.167 2.167,7.017 2.167,13C2.167,18.983 7.017,23.833 13,23.833ZM16.776,8.984C17.199,8.561 17.885,8.561 18.308,8.984C18.731,9.407 18.731,10.093 18.308,10.516L12.18,16.644L10.648,18.176L6.818,14.346C6.395,13.923 6.395,13.237 6.818,12.814C7.241,12.391 7.927,12.391 8.35,12.814L10.648,15.112L16.776,8.984Z" style="fill:rgb(125,199,167);"/>
</svg>
