<svg width="118" height="89" viewBox="0 0 118 89" fill="none" xmlns="http://www.w3.org/2000/svg">
<path d="M117.557 4.04528C117.557 4.35444 117.249 4.66361 116.94 4.66361C114.013 5.05007 111.162 8.45088 107.541 12.7019C106.617 13.8613 105.615 15.0206 104.537 16.2573C102.456 18.6533 100.145 19.7354 97.988 20.1992C98.2192 19.8127 98.3732 19.3489 98.2962 19.0398C100.145 18.576 102.071 17.6485 103.843 15.639C104.922 14.4023 105.846 13.2429 106.848 12.1609C110.623 7.67797 113.628 4.04528 117.094 3.65882C117.403 3.50424 117.557 3.73611 117.557 4.04528Z" fill="#DEE5FF"/>
<path d="M117.48 4.27737C117.403 4.43195 117.249 4.66382 117.094 4.97299C115.785 7.13714 112.703 12.1611 108.774 11.5427C103.227 10.6152 94.0589 13.6296 93.3655 15.5619C93.2115 15.9483 93.4426 16.2575 94.3671 16.5667C94.5212 16.7213 94.9064 17.2623 95.0605 17.726C95.0605 17.726 94.3671 17.5715 94.29 17.5715C92.441 16.9531 92.364 16.0256 92.5951 15.33C92.6722 15.0981 92.8262 14.8663 93.0574 14.5571C95.2916 12.0065 104.074 9.68775 109.082 10.538C112.395 11.079 115.245 6.44152 116.478 4.50924C116.632 4.20007 116.786 3.9682 116.94 3.81362C117.094 3.58175 117.403 3.50445 117.557 3.65904C117.557 3.73633 117.634 4.04549 117.48 4.27737Z" fill="#DEE5FF"/>
<g filter="url(#filter0_d)">
<path d="M99.1437 40.8359C99.2208 40.8359 99.2208 40.8359 99.2978 40.7586C99.606 40.5267 99.8371 39.9857 99.9142 39.0582L100.685 32.102C100.916 29.8605 101.378 26.3051 101.609 24.0637L102.38 17.1075C102.611 14.866 101.224 12.2381 99.2978 11.1561L93.2115 7.75524C91.2855 6.67316 88.1267 4.97275 86.2007 3.89067L80.1144 0.489859C79.344 0.0261117 78.7276 -0.0511795 78.3424 0.0261117L6.30817 37.4351L6 44.0048L11.547 47.5602L11.1618 54.2073L16.7088 57.7627L16.4007 64.3324L21.9477 67.8878L21.6395 74.4576L27.1865 78.013L99.1437 40.8359ZM93.1345 22.5179C91.2855 23.4454 88.9742 22.7497 88.0497 20.8948C87.1252 19.0398 87.8186 16.721 89.6676 15.7935C91.5166 14.866 93.8279 15.5617 94.7524 17.4166C95.7539 19.1943 94.9835 21.5131 93.1345 22.5179Z" fill="#FFAA3D"/>
</g>
<defs>
<filter id="filter0_d" x="0.794723" y="0" width="106.815" height="88.4235" filterUnits="userSpaceOnUse" color-interpolation-filters="sRGB">
<feFlood flood-opacity="0" result="BackgroundImageFix"/>
<feColorMatrix in="SourceAlpha" type="matrix" values="0 0 0 0 0 0 0 0 0 0 0 0 0 0 0 0 0 0 127 0"/>
<feOffset dy="5.20528"/>
<feGaussianBlur stdDeviation="2.60264"/>
<feColorMatrix type="matrix" values="0 0 0 0 0.00863703 0 0 0 0 0.0419271 0 0 0 0 0.0399972 0 0 0 0.2 0"/>
<feBlend mode="normal" in2="BackgroundImageFix" result="effect1_dropShadow"/>
<feBlend mode="normal" in="SourceGraphic" in2="effect1_dropShadow" result="shape"/>
</filter>
</defs>
</svg>
