<svg width="72" height="84" viewBox="0 0 72 84" fill="none" xmlns="http://www.w3.org/2000/svg">
<mask id="path-1-inside-1" fill="white">
<path fill-rule="evenodd" clip-rule="evenodd" d="M46.4668 70.4548C61.2442 65.9715 72 52.2418 72 36C72 16.1177 55.8823 0 36 0C16.1177 0 0 16.1177 0 36C0 52.2419 10.7559 65.9716 25.5333 70.4548L36.0001 84L46.4668 70.4548Z"/>
</mask>
<path fill-rule="evenodd" clip-rule="evenodd" d="M46.4668 70.4548C61.2442 65.9715 72 52.2418 72 36C72 16.1177 55.8823 0 36 0C16.1177 0 0 16.1177 0 36C0 52.2419 10.7559 65.9716 25.5333 70.4548L36.0001 84L46.4668 70.4548Z" fill="#7DC7A7"/>
<path d="M46.4668 70.4548L45.5959 67.584L44.6789 67.8622L44.093 68.6204L46.4668 70.4548ZM25.5333 70.4548L27.9072 68.6205L27.3212 67.8622L26.4043 67.584L25.5333 70.4548ZM36.0001 84L33.6263 85.8344L36.0002 88.9064L38.374 85.8343L36.0001 84ZM47.3378 73.3256C63.3443 68.4694 75 53.5998 75 36H69C69 50.8839 59.1441 63.4736 45.5959 67.584L47.3378 73.3256ZM75 36C75 14.4609 57.5391 -3 36 -3V3C54.2254 3 69 17.7746 69 36H75ZM36 -3C14.4609 -3 -3 14.4609 -3 36H3C3 17.7746 17.7746 3 36 3V-3ZM-3 36C-3 53.5998 8.6558 68.4695 24.6624 73.3256L26.4043 67.584C12.8559 63.4737 3 50.8839 3 36H-3ZM38.374 82.1656L27.9072 68.6205L23.1595 72.2892L33.6263 85.8344L38.374 82.1656ZM44.093 68.6204L33.6263 82.1657L38.374 85.8343L48.8407 72.2891L44.093 68.6204Z" fill="white" mask="url(#path-1-inside-1)"/>
</svg>
