<svg viewBox="0 0 319 150" xmlns="http://www.w3.org/2000/svg" fill-rule="evenodd" clip-rule="evenodd"><path d="M161.951 70.874c-110.468 10.469-159.329 56.464-169.951 77.126h335v-146c-8.988 18.596-54.581 58.405-165.049 68.874z" fill="url(#a)"/><path d="M161.951 70.874c-110.468 10.469-159.329 56.464-169.951 77.126h335v-146c-8.988 18.596-54.581 58.405-165.049 68.874z" fill="url(#b)"/><path d="M-9.192 147.387c-.339.659-.08 1.467.579 1.805.659.339 1.467.079 1.805-.579l-2.384-1.226zm337.399-144.804c.322-.666.043-1.468-.624-1.79-.666-.322-1.468-.043-1.79.624l2.414 1.166zm-335.015 146.03c10.342-20.117 58.692-65.961 168.885-76.404l-.253-2.67c-110.743 10.495-160.114 56.641-171.016 77.848l2.384 1.226zm168.885-76.404c55.374-5.248 94.56-17.856 121.068-31.533 26.464-13.654 40.392-28.43 45.062-38.093l-2.414-1.166c-4.318 8.933-17.68 23.36-43.877 36.876-26.153 13.494-64.996 26.025-120.092 31.246l.253 2.67z" fill="url(#c)"/><defs><linearGradient id="a" x2="1" gradientUnits="userSpaceOnUse" gradientTransform="matrix(116.993 -159.704 159.704 116.993 -8 2)"><stop offset="0" stop-color="#30e3b7" stop-opacity=".2"/><stop offset=".49" stop-color="#fbe83f" stop-opacity=".2"/><stop offset=".78" stop-color="#f6c64b" stop-opacity=".2"/><stop offset="1" stop-color="#f3ae54" stop-opacity=".2"/></linearGradient><linearGradient id="b" x2="1" gradientUnits="userSpaceOnUse" gradientTransform="matrix(-10.952 -115.308 115.308 -10.952 192.668 137)"><stop offset="0" stop-color="#fff"/><stop offset="1" stop-color="#fff" stop-opacity="0"/></linearGradient><linearGradient id="c" x2="1" gradientUnits="userSpaceOnUse" gradientTransform="matrix(202.335 -82.869 82.869 202.335 21.5 -34.5)"><stop offset="0" stop-color="#30e38d"/><stop offset=".49" stop-color="#fbe83f"/><stop offset="1" stop-color="#f3ae54"/></linearGradient></defs></svg>