<?xml version="1.0" encoding="UTF-8" standalone="no"?>
<!DOCTYPE svg PUBLIC "-//W3C//DTD SVG 1.1//EN" "http://www.w3.org/Graphics/SVG/1.1/DTD/svg11.dtd">
<svg width="100%" height="100%" viewBox="0 0 40 40" version="1.1" xmlns="http://www.w3.org/2000/svg" xmlns:xlink="http://www.w3.org/1999/xlink" xml:space="preserve" xmlns:serif="http://www.serif.com/" style="fill-rule:evenodd;clip-rule:evenodd;stroke-linejoin:round;stroke-miterlimit:2;">
    <g>
        <path d="M14.303,27.247L13.484,31.044C13.484,31.044 12.617,39.932 21.652,43.222C21.652,43.222 28.134,36.102 28.379,35.414C28.641,34.727 27.004,27.983 25.531,26.608L14.303,27.247Z" style="fill:rgb(247,217,171);fill-rule:nonzero;"/>
        <path d="M25.253,27.296C25.253,27.296 25.711,33.32 25.384,34.089C24.827,35.415 20.653,38.361 20.457,38.492C20.261,38.623 14.63,32.665 14.434,32.534C14.237,32.403 14.172,27.476 14.172,27.476L13.713,33.172C13.713,33.172 19.148,39.719 20.326,40.096L26.808,34.596C26.808,34.596 26.251,27.394 25.924,27.002L25.253,27.296Z" style="fill:url(#_Linear1);fill-rule:nonzero;"/>
        <path d="M28.445,30.341C28.445,30.341 28.019,41.176 20.85,44.205C20.866,44.286 20.866,44.368 20.883,44.434C14.99,40.325 12.502,30.652 12.502,30.652C0.652,35.415 0.619,35.464 0.619,35.464C0.75,35.726 1.208,38.967 1.716,42.535C6.675,46.578 13.026,49 19.933,49C27.331,49 34.075,46.218 39.182,41.651C39.395,38.017 39.493,34.891 39.493,34.891C38.069,33.86 28.445,30.341 28.445,30.341Z" style="fill:rgb(181,25,27);fill-rule:nonzero;"/>
        <path d="M14.384,35.103L19.459,43.778L23.698,42.895L28.919,33.958C28.919,33.958 24.32,37.428 20.506,39.588C17.167,36.937 14.384,35.103 14.384,35.103Z" style="fill:rgb(232,233,235);fill-rule:nonzero;"/>
        <path d="M15.759,35.742L13.598,35.038L19.933,43.157C19.933,43.157 21.357,42.862 22.257,41.995C18.754,40.832 15.759,35.742 15.759,35.742Z" style="fill:url(#_Linear2);fill-rule:nonzero;"/>
        <path d="M19.049,42.388C19.671,42.879 22.945,42.944 22.945,42.944L27.773,36.79L26.317,35.808C26.333,35.808 21.259,40.964 19.049,42.388Z" style="fill:url(#_Linear3);fill-rule:nonzero;"/>
        <path d="M0.603,35.448C-0.478,36.512 -1.362,37.641 -2,38.918C-0.412,40.767 1.388,42.404 3.385,43.795C3.238,42.764 3.09,41.88 2.943,41.308C2.37,38.918 1.372,36.561 0.603,35.448Z" style="fill:rgb(181,25,27);fill-rule:nonzero;"/>
        <path d="M42.145,38.573C41.506,37.215 40.59,36.02 39.493,34.891C38.74,36.036 37.725,38.475 37.152,40.963C37.005,41.569 36.858,42.518 36.694,43.631C38.724,42.191 40.557,40.489 42.145,38.573Z" style="fill:rgb(181,25,27);fill-rule:nonzero;"/>
        <path d="M26.595,27.689C27.25,29.326 27.462,31.29 27.462,31.421C27.462,31.552 27.593,33.925 26.497,36.642C25.105,40.145 20.801,42.257 20.801,42.257C20.801,42.257 19.213,41.291 18.116,40.407C14.221,37.232 13.501,33.549 13.32,32.37C13.14,31.208 13.926,27.624 13.926,27.624C13.222,28.426 12.813,29.113 12.469,29.833C12.387,30.013 11.127,32.468 11.471,34.367C11.815,36.266 14.875,41.275 16.267,42.649C17.642,44.024 21.275,46.103 21.275,46.103C21.275,46.103 25.809,42.977 28.003,39.539C30.589,35.48 29.099,30.226 28.706,29.702C28.33,29.179 26.595,27.689 26.595,27.689Z" style="fill:url(#_Linear4);fill-rule:nonzero;"/>
        <path d="M25.858,26.822C26.628,29.359 26.562,33.385 26.202,34.22C25.548,35.775 20.506,39.556 20.506,39.556L26.661,36.724L28.445,35.939L30.425,40.489C30.425,40.489 29.885,32.403 29.492,30.947C28.821,28.524 25.858,26.822 25.858,26.822Z" style="fill:url(#_Linear5);fill-rule:nonzero;"/>
        <path d="M14.237,27.28C14.237,27.28 12.993,27.935 12.044,29.015C11.487,29.653 10.358,31.617 10.358,33.205C10.358,34.793 10.243,39.916 10.243,39.916L12.813,35.562C12.813,35.562 14.99,35.562 15.776,36.348C16.561,37.133 20.506,39.589 20.506,39.589L13.991,32.992C13.991,32.96 14.041,28.065 14.237,27.28Z" style="fill:url(#_Linear6);fill-rule:nonzero;"/>
        <path d="M18.853,34.138L20.785,36.479L22.536,33.745L20.212,34.924L18.853,34.138Z" style="fill:url(#_Linear7);fill-rule:nonzero;"/>
        <path d="M20.146,33.107C21.881,32.943 24.893,31.355 26.382,29.801C26.382,29.801 26.006,24.366 25.957,23.859C25.957,23.859 21.619,26.985 14.024,24.35C14.024,24.35 14.024,27.476 14.073,29.653C16.07,31.863 18.722,33.238 20.146,33.107Z" style="fill:url(#_Linear8);fill-rule:nonzero;"/>
        <path d="M30.785,14.399C31.997,14.529 31.784,15.25 31.325,16.51C31.014,19.816 30,21.404 29.558,21.208C28.772,20.88 29.312,14.235 30.785,14.399Z" style="fill:rgb(240,201,153);fill-rule:nonzero;"/>
        <path d="M30.081,19.112C30.081,19.112 30.605,18.474 30.311,17.328C29.623,14.627 31.538,14.267 31.276,16.182C31.276,16.182 30.916,15.331 30.703,15.609C30.425,15.953 31.08,16.084 30.9,17.524C30.818,18.277 30.081,19.112 30.081,19.112Z" style="fill:url(#_Linear9);fill-rule:nonzero;"/>
        <path d="M8.099,15.004C6.888,15.2 7.15,15.904 7.673,17.148C8.164,20.438 9.408,21.748 9.818,21.551C10.587,21.175 9.556,14.758 8.099,15.004Z" style="fill:rgb(240,201,153);fill-rule:nonzero;"/>
        <path d="M29.672,14.677C30.032,5.789 26.89,6.918 26.12,6.018C24.533,4.169 22.47,2.515 18.214,2.614C18.214,2.614 12.682,2.81 11.307,5.838C9.834,9.079 9.294,11.992 9.408,16.166C9.638,24.874 11.667,24.743 13.009,26.429C13.926,27.575 16.038,30.243 16.84,30.685C18.116,31.372 22.045,31.274 23.256,30.505C24.32,29.834 25.302,28.099 26.857,26.085C28.133,24.449 29.688,24.17 29.557,19.473C29.459,16.592 29.574,17.148 29.672,14.677Z" style="fill:rgb(247,217,171);fill-rule:nonzero;"/>
        <path d="M27.888,16.395C28.641,10.65 21.685,13.105 21.685,13.105C21.554,13.957 20.817,16.592 21.325,16.886C24.451,18.736 27.888,16.395 27.888,16.395Z" style="fill:url(#_Linear10);fill-rule:nonzero;"/>
        <path d="M24.156,22.435C25.907,22.599 28.854,23.433 29.345,20.471C29.803,17.688 29.41,16.297 28.543,16.068C26.709,15.593 24.074,16.722 22.994,17.525C20.67,19.227 21.063,22.14 24.156,22.435Z" style="fill:url(#_Radial11);fill-rule:nonzero;"/>
        <path d="M20.113,28.557C19.508,28.557 17.985,28.966 18.034,29.195C18.165,29.866 19.573,29.981 20.179,29.981C20.784,29.981 22.012,29.817 22.045,29.244C22.061,29.015 20.735,28.557 20.113,28.557Z" style="fill:url(#_Linear12);fill-rule:nonzero;"/>
        <path d="M20.555,17.459C20.653,15.478 19.966,15.2 19.458,15.217C18.967,15.233 18.689,15.92 18.787,17.426C18.886,18.932 18.591,19.505 18.656,20.209C18.689,20.536 18.836,20.733 19.638,20.749C20.522,20.749 20.833,20.552 20.882,20.241C20.981,19.407 20.49,18.866 20.555,17.459Z" style="fill:url(#_Linear13);fill-rule:nonzero;"/>
        <path d="M20.653,21.289C21.865,20.995 22.323,21.175 22.323,21.175C21.635,20.553 20.653,21.289 20.653,21.289Z" style="fill:rgb(226,181,140);fill-rule:nonzero;"/>
        <path d="M11.095,16.461C10.587,10.486 17.233,13.334 17.233,13.334C17.364,14.185 18.133,16.313 17.642,16.624C14.434,18.687 11.095,16.461 11.095,16.461Z" style="fill:url(#_Linear14);fill-rule:nonzero;"/>
        <path d="M17.249,21.076C17.249,21.076 17.871,20.978 18.82,21.289C18.82,21.305 17.887,20.601 17.249,21.076Z" style="fill:rgb(226,181,140);fill-rule:nonzero;"/>
        <path d="M21.587,19.293C21.587,19.784 21.685,20.111 21.537,20.406C21.21,21.028 20.343,21.273 19.753,21.24C19.311,21.289 18.28,21.077 17.855,20.422C17.674,20.16 17.789,19.915 17.707,19.391C17.707,19.391 16.512,20.831 17.233,21.109C17.233,21.109 17.445,20.946 18.018,21.011C18.591,21.06 18.477,21.699 19.802,21.715C20.948,21.731 20.588,21.175 21.325,21.077C22.061,20.978 22.159,21.158 22.323,21.24C22.683,21.175 22.421,19.964 21.587,19.293Z" style="fill:url(#_Linear15);fill-rule:nonzero;"/>
        <path d="M15.694,17.262C15.203,17 11.389,15.74 10.26,16.215C9.31,16.624 9.229,18.735 10.08,21.518C11.062,24.71 13.828,23.057 14.957,22.435C17.674,20.962 18.215,18.605 15.694,17.262Z" style="fill:url(#_Radial16);fill-rule:nonzero;"/>
        <path d="M26.448,5.625C26.218,5.559 25.956,5.494 25.695,5.445C23.681,5.003 20.49,3.53 17.609,3.53C15.841,3.53 14.172,3.89 12.944,4.201C12.371,4.348 11.896,4.545 11.536,4.774C10.44,5.527 9.801,6.934 9.441,10.29C9.327,11.386 9.49,18.196 9.49,18.277C11.684,11.894 10.914,10.421 12.322,7.949C14.122,9.111 17.936,7.36 20.359,7.163C22.388,7 25.187,6.885 25.695,7.491C27.577,9.701 26.889,12.074 29.59,17.803C29.59,17.803 29.426,10.552 29.263,8.653C29.017,6.149 28.363,6.149 26.448,5.625Z" style="fill:url(#_Linear17);fill-rule:nonzero;"/>
        <path d="M26.742,0.911C25.122,-0.055 21.161,0.109 20.031,0.109C17.625,0.109 14.45,0.043 12.911,0.682C11.798,1.14 9.359,3.628 8.541,5.297C7.739,6.967 8.655,11.943 8.377,15.053C8.377,15.053 8.705,15.184 8.999,16.051C9.212,16.673 9.474,18.654 9.556,19.259C9.752,17.442 9.752,16.477 9.834,15.511C9.932,14.332 10.145,13.219 10.734,10.813C11.225,8.784 11.913,6.787 12.191,5.87C13.238,7.736 18.313,6.132 20.85,6.034C23.387,5.919 26.218,6.001 26.971,6.656C26.971,6.656 27.855,8.702 28.297,11.534C28.444,12.483 28.592,13.269 28.723,13.989C29.066,15.822 29.328,17.049 29.557,18.735C29.557,18.735 29.557,15.167 30.458,14.512C30.196,12.548 30.703,9.144 30.327,5.788C30.196,4.904 27.871,1.598 26.742,0.911Z" style="fill:url(#_Linear18);fill-rule:nonzero;"/>
        <path d="M28.33,17.034C28.019,16.854 27.773,17.116 27.119,17.328C26.48,17.541 24.729,17.869 25.547,18.327C26.464,18.818 27.741,18.147 27.888,18.016C28.052,17.885 28.723,17.247 28.33,17.034Z" style="fill:url(#_Linear19);fill-rule:nonzero;"/>
        <path d="M11.716,17.41C11.045,17.23 10.8,16.984 10.505,17.18C10.129,17.426 10.832,18.015 10.996,18.13C11.16,18.244 12.469,18.866 13.353,18.326C14.139,17.819 12.371,17.59 11.716,17.41Z" style="fill:url(#_Linear20);fill-rule:nonzero;"/>
        <path d="M21.488,16.641C21.275,16.412 21.554,15.495 21.652,15.168C21.816,14.562 22.683,14.235 24.287,14.169C24.811,14.153 25.957,14.3 26.3,14.611C26.726,15.004 27.119,16.035 27.135,16.199C27.135,16.379 26.398,17.034 24.876,17.132C23.731,17.23 21.93,17.132 21.488,16.641Z" style="fill:url(#_Linear21);fill-rule:nonzero;"/>
        <path d="M23.158,14.791C21.979,14.873 21.734,16.575 21.734,16.575C21.783,16.608 21.93,16.722 22.274,16.804C22.912,16.968 24.091,17.197 25.547,16.853C26.071,16.722 26.644,16.149 26.644,16.149C25.662,15.02 26.006,14.594 23.158,14.791Z" style="fill:url(#_Linear22);fill-rule:nonzero;"/>
        <path d="M21.734,16.592C21.734,16.592 22.454,15.97 24.86,15.986C25.449,15.986 25.891,16.199 26.349,16.428C26.497,16.314 26.579,16.248 26.644,16.183C26.644,16.183 26.169,14.89 25.269,14.988C24.353,15.053 22.716,14.873 21.734,16.592Z" style="fill:rgb(221,221,221);fill-rule:nonzero;"/>
        <path d="M24.058,15.118C23.289,15.069 22.552,15.446 22.601,16.264C22.618,16.575 22.781,16.903 22.814,16.935C22.945,16.985 23.682,17.05 24.058,17.066C24.484,17.083 25.04,16.985 25.187,16.935C25.384,16.723 25.4,16.51 25.433,16.346C25.498,15.56 24.827,15.168 24.058,15.118Z" style="fill:url(#_Linear23);fill-rule:nonzero;"/>
        <path d="M22.585,16.215C22.585,16.215 24.189,15.789 25.4,16.035C25.4,16.035 25.22,15.086 24.336,15.069C23.354,15.053 22.585,15.266 22.585,16.215Z" style="fill:url(#_Linear24);fill-rule:nonzero;"/>
        <path d="M24.042,15.348C23.567,15.331 23.174,15.691 23.158,16.166C23.141,16.624 23.518,17.017 23.993,17.034C24.467,17.05 24.86,16.69 24.876,16.215C24.893,15.741 24.516,15.364 24.042,15.348Z" style="fill:url(#_Radial25);fill-rule:nonzero;"/>
        <path d="M21.734,16.592C21.734,16.592 21.865,15.511 22.487,15.053C23.272,14.464 24.975,14.66 25.842,14.988C26.382,15.2 26.644,16.166 26.644,16.166C26.644,16.166 26.398,15.953 25.727,15.741C25.155,15.56 24.631,15.462 24.238,15.462C23.534,15.446 23.109,15.544 22.814,15.626C22.274,15.79 21.734,16.592 21.734,16.592Z" style="fill:url(#_Linear26);fill-rule:nonzero;"/>
        <path d="M24.876,16.003C24.68,16.035 24.533,16.215 24.549,16.428C24.565,16.641 24.762,16.788 24.958,16.756C25.155,16.739 25.302,16.543 25.285,16.33C25.269,16.134 25.073,15.986 24.876,16.003Z" style="fill:white;fill-rule:nonzero;"/>
        <path d="M24.074,15.659C23.911,15.675 23.796,15.823 23.812,15.986C23.829,16.15 23.976,16.264 24.14,16.248C24.303,16.232 24.418,16.084 24.402,15.921C24.369,15.757 24.238,15.642 24.074,15.659Z" style="fill:white;fill-rule:nonzero;"/>
        <path d="M17.265,16.624C17.478,16.395 17.2,15.479 17.118,15.151C16.954,14.546 16.087,14.202 14.499,14.12C13.975,14.087 12.829,14.218 12.486,14.546C12.06,14.922 11.651,15.953 11.634,16.133C11.634,16.313 12.371,16.985 13.893,17.099C15.023,17.181 16.823,17.099 17.265,16.624Z" style="fill:url(#_Linear27);fill-rule:nonzero;"/>
        <path d="M15.612,14.758C16.79,14.856 17.02,16.559 17.02,16.559C16.97,16.591 16.823,16.706 16.479,16.788C15.841,16.935 14.663,17.164 13.206,16.788C12.682,16.657 12.109,16.084 12.109,16.084C13.108,14.955 12.78,14.513 15.612,14.758Z" style="fill:url(#_Linear28);fill-rule:nonzero;"/>
        <path d="M17.02,16.559C17.02,16.559 16.316,15.937 13.893,15.904C13.304,15.904 12.862,16.117 12.404,16.33C12.256,16.215 12.175,16.15 12.109,16.068C12.109,16.068 12.6,14.791 13.5,14.889C14.433,15.004 16.07,14.84 17.02,16.559Z" style="fill:rgb(221,221,221);fill-rule:nonzero;"/>
        <path d="M14.728,15.069C15.497,15.037 16.234,15.413 16.185,16.232C16.168,16.543 16.005,16.87 15.972,16.903C15.841,16.952 15.105,17.017 14.728,17.017C14.302,17.017 13.746,16.919 13.599,16.886C13.402,16.673 13.386,16.461 13.369,16.297C13.271,15.495 13.942,15.102 14.728,15.069Z" style="fill:url(#_Linear29);fill-rule:nonzero;"/>
        <path d="M16.169,16.183C16.169,16.183 14.565,15.741 13.37,15.97C13.37,15.97 13.566,15.021 14.45,15.021C15.432,15.021 16.169,15.184 16.169,16.183Z" style="fill:url(#_Linear30);fill-rule:nonzero;"/>
        <path d="M14.728,15.299C15.203,15.283 15.596,15.659 15.596,16.117C15.596,16.576 15.219,16.952 14.745,16.968C14.27,16.968 13.877,16.608 13.877,16.15C13.877,15.692 14.254,15.299 14.728,15.299Z" style="fill:url(#_Radial31);fill-rule:nonzero;"/>
        <path d="M15.105,16.51C15.023,16.346 15.105,16.134 15.285,16.035C15.465,15.937 15.694,16.003 15.776,16.183C15.858,16.346 15.776,16.559 15.596,16.657C15.416,16.739 15.187,16.674 15.105,16.51Z" style="fill:white;fill-rule:nonzero;"/>
        <path d="M14.384,16.052C14.319,15.921 14.384,15.757 14.515,15.675C14.663,15.61 14.843,15.659 14.908,15.79C14.974,15.921 14.908,16.085 14.761,16.166C14.614,16.232 14.45,16.183 14.384,16.052Z" style="fill:white;fill-rule:nonzero;"/>
        <path d="M17.02,16.56C17.02,16.56 16.889,15.479 16.283,15.005C15.498,14.415 13.795,14.579 12.928,14.906C12.388,15.103 12.126,16.085 12.126,16.085C12.126,16.085 12.519,15.807 13.091,15.659C13.812,15.479 14.286,15.397 14.695,15.397C15.301,15.397 15.694,15.496 15.956,15.578C16.496,15.758 17.02,16.56 17.02,16.56Z" style="fill:url(#_Linear32);fill-rule:nonzero;"/>
        <path d="M23.534,21.06C26.268,23.269 24.173,24.693 24.173,24.693C25.007,23.957 26.35,23.057 26.268,22.729C25.989,21.616 23.534,21.06 23.534,21.06Z" style="fill:url(#_Linear33);fill-rule:nonzero;"/>
        <path d="M13.484,22.909C13.533,23.253 14.499,24.104 15.137,24.759C15.137,24.759 13.435,22.925 15.808,21.289C15.808,21.272 13.32,21.747 13.484,22.909Z" style="fill:url(#_Linear34);fill-rule:nonzero;"/>
        <path d="M17.543,27.427C20.49,27.1 22.486,27.46 22.486,27.46C20.26,26.069 17.543,27.427 17.543,27.427Z" style="fill:url(#_Linear35);fill-rule:nonzero;"/>
        <path d="M14.335,22.712C14.401,22.778 14.434,22.86 14.516,22.892C15.94,23.514 15.956,24.12 16.562,24.447C18.722,25.609 21.226,25.331 22.929,24.398C23.894,23.858 24.025,23.236 25.187,22.778C25.351,22.712 25.368,22.598 25.368,22.598C19.148,24.12 14.335,22.712 14.335,22.712Z" style="fill:rgb(149,39,44);fill-rule:nonzero;"/>
        <path d="M19.901,25.675C19.066,25.675 18.231,25.512 18.231,25.675C18.231,25.839 18.968,26.199 19.802,26.199C20.637,26.199 21.472,25.839 21.472,25.675C21.472,25.512 20.735,25.675 19.901,25.675Z" style="fill:rgb(254,221,179);fill-rule:nonzero;"/>
        <path d="M16.905,24.022C16.643,23.973 16.528,24.431 16.528,24.431C17.314,25.004 18.263,25.233 19.786,25.233C21.815,25.249 22.928,24.366 22.928,24.366C22.928,24.366 22.65,23.924 22.306,23.989C21.733,24.104 20.653,24.316 19.671,24.316C18.607,24.333 17.51,24.136 16.905,24.022Z" style="fill:url(#_Linear36);fill-rule:nonzero;"/>
        <path d="M16.807,25.888C20.048,28.457 23.141,25.708 23.141,25.708C19.868,27.459 16.807,25.888 16.807,25.888Z" style="fill:url(#_Linear37);fill-rule:nonzero;"/>
        <path d="M15.743,23.007C15.743,23.007 15.759,23.531 16.299,23.776C16.61,23.907 17.314,24.448 20.048,24.366C22.781,24.284 23.321,23.629 23.452,23.498C23.681,23.285 23.796,22.925 23.796,22.925C23.796,22.925 19.671,23.727 15.743,23.007Z" style="fill:url(#_Linear38);fill-rule:nonzero;"/>
        <path d="M15.726,22.958C15.726,22.958 15.743,23.204 15.841,23.351C15.923,23.466 18.1,23.793 19.753,23.793C21.406,23.809 23.567,23.384 23.632,23.286C23.747,23.138 23.812,22.877 23.812,22.877C23.812,22.877 21.962,23.498 15.726,22.958Z" style="fill:rgb(244,236,235);fill-rule:nonzero;"/>
        <path d="M13.992,22.549C13.992,22.549 14.384,22.778 14.335,22.713C14.335,22.713 19.148,24.121 25.368,22.598L25.711,22.435C22.323,22.991 13.992,22.549 13.992,22.549Z" style="fill:url(#_Linear39);fill-rule:nonzero;"/>
        <path d="M9.048,19.685C9.048,19.685 8.492,19.079 8.721,17.917C9.277,15.184 7.33,14.922 7.69,16.82C7.69,16.82 8.001,15.953 8.23,16.215C8.525,16.559 7.886,16.706 8.132,18.13C8.279,18.866 9.048,19.685 9.048,19.685Z" style="fill:url(#_Linear40);fill-rule:nonzero;"/>
        <path d="M15.039,28.9C15.039,28.9 16.43,31.486 19.786,31.552C23.158,31.617 24.5,29.244 24.5,29.244C24.5,29.244 23.092,31.077 19.786,30.995C16.741,30.93 15.039,28.9 15.039,28.9Z" style="fill:url(#_Linear41);fill-rule:nonzero;"/>
        <path d="M29.541,18.49C29.541,18.49 29.852,21.78 29.099,23.564C28.641,24.645 27.708,25.398 27.004,26.183C26.12,27.182 25.368,28.164 24.909,28.753C24.909,28.753 25.335,26.871 26.251,25.741C27.152,24.579 29.001,23.401 29.541,18.49Z" style="fill:url(#_Linear42);fill-rule:nonzero;"/>
        <path d="M9.54,19.178C9.54,19.178 9.621,22.533 10.587,24.055C11.471,25.414 12.028,25.725 12.879,26.511C13.419,27.018 14.483,28.262 14.81,28.655C14.81,28.655 14.777,27.165 13.762,26.118C12.78,25.038 10.473,24.023 9.54,19.178Z" style="fill:url(#_Linear43);fill-rule:nonzero;"/>
        <path d="M9.998,14.153L12.191,5.871C12.191,5.871 12.551,6.918 14.253,7.114C17.003,7.442 22.077,4.954 26.906,6.656C26.906,6.656 27.642,9.93 28.706,13.924C28.706,13.924 28.51,8.08 27.757,5.985C27.757,5.985 25.334,4.365 22.634,4.365C19.933,4.365 17.134,6.787 14.221,6.312C12.829,6.083 12.109,4.856 11.962,3.775C11.929,3.775 10.963,6.558 9.998,14.153Z" style="fill:rgb(62,28,21);fill-rule:nonzero;"/>
        <path d="M13.615,0.6C14.728,0.207 24.303,-0.628 26.742,0.878C27.79,1.533 28.805,3.071 29.525,4.185C29.525,4.185 26.775,2.482 23.485,2.22C20.195,1.958 16.905,4.97 14.646,4.921C12.371,4.856 10.538,1.68 13.615,0.6Z" style="fill:url(#_Linear44);fill-rule:nonzero;"/>
        <path d="M26.251,12.631C24.32,12.303 22.994,12.287 21.782,12.811C21.324,13.007 21.455,13.776 21.995,13.76C23.01,13.727 24.45,13.433 25.433,13.416C26.857,13.4 27.429,13.662 27.429,13.662C27.429,13.662 27.168,12.778 26.251,12.631Z" style="fill:url(#_Linear45);fill-rule:nonzero;"/>
        <path d="M12.715,12.679C14.597,12.368 15.841,12.368 17.02,12.892C17.462,13.088 17.38,13.792 16.856,13.776C15.858,13.759 14.695,13.481 13.517,13.498C12.142,13.514 11.569,13.792 11.569,13.792C11.569,13.792 11.831,12.826 12.715,12.679Z" style="fill:url(#_Linear46);fill-rule:nonzero;"/>
        <path d="M18.526,20.127C18.477,20.454 18.935,20.798 19.737,20.798C20.621,20.798 20.833,20.454 20.752,20.16C20.326,18.408 18.722,18.932 18.526,20.127Z" style="fill:url(#_Linear47);fill-rule:nonzero;"/>
    </g>
    <defs>
        <linearGradient id="_Linear1" x1="0" y1="0" x2="1" y2="0" gradientUnits="userSpaceOnUse" gradientTransform="matrix(17.7432,5.4395,-5.4395,17.7432,8.49881,29.0801)"><stop offset="0" style="stop-color:rgb(247,217,171);stop-opacity:1"/><stop offset="0.52" style="stop-color:rgb(246,215,168);stop-opacity:1"/><stop offset="0.85" style="stop-color:rgb(243,207,160);stop-opacity:1"/><stop offset="1" style="stop-color:rgb(240,201,153);stop-opacity:1"/></linearGradient>
        <linearGradient id="_Linear2" x1="0" y1="0" x2="1" y2="0" gradientUnits="userSpaceOnUse" gradientTransform="matrix(1.3467,9.0566,-9.0566,1.3467,17.3153,34.4216)"><stop offset="0" style="stop-color:rgb(224,225,228);stop-opacity:1"/><stop offset="0.76" style="stop-color:rgb(222,223,225);stop-opacity:1"/><stop offset="1" style="stop-color:rgb(219,220,222);stop-opacity:1"/></linearGradient>
        <linearGradient id="_Linear3" x1="0" y1="0" x2="1" y2="0" gradientUnits="userSpaceOnUse" gradientTransform="matrix(0.9866,6.6344,-6.6344,0.9866,22.923,36.2651)"><stop offset="0" style="stop-color:rgb(224,225,228);stop-opacity:1"/><stop offset="0.76" style="stop-color:rgb(222,223,225);stop-opacity:1"/><stop offset="1" style="stop-color:rgb(219,220,222);stop-opacity:1"/></linearGradient>
        <linearGradient id="_Linear4" x1="0" y1="0" x2="1" y2="0" gradientUnits="userSpaceOnUse" gradientTransform="matrix(4.3601,60.8334,-60.8334,4.3601,20.2707,31.0042)"><stop offset="0" style="stop-color:rgb(181,25,27);stop-opacity:1"/><stop offset="0.24" style="stop-color:rgb(171,22,23);stop-opacity:1"/><stop offset="1" style="stop-color:rgb(143,12,13);stop-opacity:1"/></linearGradient>
        <linearGradient id="_Linear5" x1="0" y1="0" x2="1" y2="0" gradientUnits="userSpaceOnUse" gradientTransform="matrix(0.1619,-14.0521,14.0521,0.1619,25.4546,40.7972)"><stop offset="0" style="stop-color:rgb(244,245,246);stop-opacity:1"/><stop offset="0.64" style="stop-color:rgb(238,239,241);stop-opacity:1"/><stop offset="1" style="stop-color:rgb(232,233,235);stop-opacity:1"/></linearGradient>
        <linearGradient id="_Linear6" x1="0" y1="0" x2="1" y2="0" gradientUnits="userSpaceOnUse" gradientTransform="matrix(0.3906,-12.9228,12.9228,0.3906,15.3623,38.6541)"><stop offset="0" style="stop-color:rgb(244,245,246);stop-opacity:1"/><stop offset="0.64" style="stop-color:rgb(238,239,241);stop-opacity:1"/><stop offset="1" style="stop-color:rgb(232,233,235);stop-opacity:1"/></linearGradient>
        <linearGradient id="_Linear7" x1="0" y1="0" x2="1" y2="0" gradientUnits="userSpaceOnUse" gradientTransform="matrix(-3.1974,-0.4587,0.4587,-3.1974,22.509,35.2334)"><stop offset="0" style="stop-color:rgb(240,201,153);stop-opacity:1"/><stop offset="0.52" style="stop-color:rgb(241,203,156);stop-opacity:1"/><stop offset="0.85" style="stop-color:rgb(244,211,164);stop-opacity:1"/><stop offset="1" style="stop-color:rgb(247,217,171);stop-opacity:1"/></linearGradient>
        <linearGradient id="_Linear8" x1="0" y1="0" x2="1" y2="0" gradientUnits="userSpaceOnUse" gradientTransform="matrix(-13.9809,6.3857,-6.3857,-13.9809,27.5416,24.1396)"><stop offset="0" style="stop-color:rgb(240,201,153);stop-opacity:1"/><stop offset="0.52" style="stop-color:rgb(241,203,156);stop-opacity:1"/><stop offset="0.85" style="stop-color:rgb(244,211,164);stop-opacity:1"/><stop offset="1" style="stop-color:rgb(247,217,171);stop-opacity:1"/></linearGradient>
        <linearGradient id="_Linear9" x1="0" y1="0" x2="1" y2="0" gradientUnits="userSpaceOnUse" gradientTransform="matrix(-0.9107,4.8735,-4.8735,-0.9107,30.9612,14.8393)"><stop offset="0" style="stop-color:rgb(219,167,121);stop-opacity:1"/><stop offset="0.48" style="stop-color:rgb(228,181,134);stop-opacity:1"/><stop offset="1" style="stop-color:rgb(240,201,153);stop-opacity:1"/></linearGradient>
        <linearGradient id="_Linear10" x1="0" y1="0" x2="1" y2="0" gradientUnits="userSpaceOnUse" gradientTransform="matrix(-0.2762,-3.2331,3.2331,-0.2762,24.7028,17.7165)"><stop offset="0" style="stop-color:rgb(247,217,171);stop-opacity:1"/><stop offset="0.52" style="stop-color:rgb(246,215,168);stop-opacity:1"/><stop offset="0.85" style="stop-color:rgb(243,207,160);stop-opacity:1"/><stop offset="1" style="stop-color:rgb(240,201,153);stop-opacity:1"/></linearGradient>
        <radialGradient id="_Radial11" cx="0" cy="0" r="1" gradientUnits="userSpaceOnUse" gradientTransform="matrix(-4.32902,0.228011,-0.228011,-4.32902,26.193,19.3585)"><stop offset="0" style="stop-color:rgb(248,199,156);stop-opacity:1"/><stop offset="1" style="stop-color:rgb(247,217,171);stop-opacity:1"/></radialGradient>
        <linearGradient id="_Linear12" x1="0" y1="0" x2="1" y2="0" gradientUnits="userSpaceOnUse" gradientTransform="matrix(1.08332e-16,1.7692,-1.7692,1.08332e-16,20.0412,28.514)"><stop offset="0" style="stop-color:rgb(255,222,179);stop-opacity:1"/><stop offset="1" style="stop-color:rgb(247,217,171);stop-opacity:1"/></linearGradient>
        <linearGradient id="_Linear13" x1="0" y1="0" x2="1" y2="0" gradientUnits="userSpaceOnUse" gradientTransform="matrix(0.2146,8.9806,-8.9806,0.2146,19.5702,11.4926)"><stop offset="0" style="stop-color:rgb(255,222,179);stop-opacity:1"/><stop offset="0.2" style="stop-color:rgb(253,221,177);stop-opacity:1"/><stop offset="1" style="stop-color:rgb(247,217,171);stop-opacity:1"/></linearGradient>
        <linearGradient id="_Linear14" x1="0" y1="0" x2="1" y2="0" gradientUnits="userSpaceOnUse" gradientTransform="matrix(0.2603,-3.1292,3.1292,0.2603,14.2898,17.6549)"><stop offset="0" style="stop-color:rgb(247,217,171);stop-opacity:1"/><stop offset="0.52" style="stop-color:rgb(246,215,168);stop-opacity:1"/><stop offset="0.85" style="stop-color:rgb(243,207,160);stop-opacity:1"/><stop offset="1" style="stop-color:rgb(240,201,153);stop-opacity:1"/></linearGradient>
        <linearGradient id="_Linear15" x1="0" y1="0" x2="1" y2="0" gradientUnits="userSpaceOnUse" gradientTransform="matrix(0.1543,5.0653,-5.0653,0.1543,19.6211,16.6066)"><stop offset="0" style="stop-color:rgb(247,217,171);stop-opacity:1"/><stop offset="0.52" style="stop-color:rgb(246,215,168);stop-opacity:1"/><stop offset="0.85" style="stop-color:rgb(243,207,160);stop-opacity:1"/><stop offset="1" style="stop-color:rgb(240,201,153);stop-opacity:1"/></linearGradient>
        <radialGradient id="_Radial16" cx="0" cy="0" r="1" gradientUnits="userSpaceOnUse" gradientTransform="matrix(4.35373,-0.402232,0.402232,4.35373,12.8291,19.6546)"><stop offset="0" style="stop-color:rgb(248,199,156);stop-opacity:1"/><stop offset="1" style="stop-color:rgb(247,217,171);stop-opacity:1"/></radialGradient>
        <linearGradient id="_Linear17" x1="0" y1="0" x2="1" y2="0" gradientUnits="userSpaceOnUse" gradientTransform="matrix(-0.058,3.72368,-3.72368,-0.058,19.6478,4.65197)"><stop offset="0" style="stop-color:rgb(247,217,171);stop-opacity:1"/><stop offset="0.48" style="stop-color:rgb(245,213,166);stop-opacity:1"/><stop offset="1" style="stop-color:rgb(240,201,153);stop-opacity:1"/></linearGradient>
        <linearGradient id="_Linear18" x1="0" y1="0" x2="1" y2="0" gradientUnits="userSpaceOnUse" gradientTransform="matrix(0.4325,13.2833,-13.2833,0.4325,19.0494,0.460999)"><stop offset="0" style="stop-color:rgb(103,48,36);stop-opacity:1"/><stop offset="0.34" style="stop-color:rgb(83,39,28);stop-opacity:1"/><stop offset="0.68" style="stop-color:rgb(70,33,24);stop-opacity:1"/><stop offset="1" style="stop-color:rgb(66,31,22);stop-opacity:1"/></linearGradient>
        <linearGradient id="_Linear19" x1="0" y1="0" x2="1" y2="0" gradientUnits="userSpaceOnUse" gradientTransform="matrix(-3.03,1.0459,-1.0459,-3.03,28.4226,17.3715)"><stop offset="0" style="stop-color:rgb(251,219,175);stop-opacity:1"/><stop offset="1" style="stop-color:rgb(247,217,171);stop-opacity:1"/></linearGradient>
        <linearGradient id="_Linear20" x1="0" y1="0" x2="1" y2="0" gradientUnits="userSpaceOnUse" gradientTransform="matrix(-4.49323,-1.0958,1.0958,-4.49323,13.6796,18.3582)"><stop offset="0" style="stop-color:rgb(251,219,175);stop-opacity:1"/><stop offset="1" style="stop-color:rgb(247,217,171);stop-opacity:1"/></linearGradient>
        <linearGradient id="_Linear21" x1="0" y1="0" x2="1" y2="0" gradientUnits="userSpaceOnUse" gradientTransform="matrix(5.6302,1.5723,-1.5723,5.6302,21.6209,15.0149)"><stop offset="0" style="stop-color:rgb(219,167,121);stop-opacity:1"/><stop offset="0.48" style="stop-color:rgb(228,181,134);stop-opacity:1"/><stop offset="1" style="stop-color:rgb(240,201,153);stop-opacity:1"/></linearGradient>
        <linearGradient id="_Linear22" x1="0" y1="0" x2="1" y2="0" gradientUnits="userSpaceOnUse" gradientTransform="matrix(-5.5053,0.2796,-0.2796,-5.5053,26.8156,15.7564)"><stop offset="0" style="stop-color:white;stop-opacity:1"/><stop offset="0.47" style="stop-color:rgb(253,252,252);stop-opacity:1"/><stop offset="0.77" style="stop-color:rgb(246,244,244);stop-opacity:1"/><stop offset="1" style="stop-color:rgb(236,231,231);stop-opacity:1"/></linearGradient>
        <linearGradient id="_Linear23" x1="0" y1="0" x2="1" y2="0" gradientUnits="userSpaceOnUse" gradientTransform="matrix(-4.15,-0.1506,0.1506,-4.15,25.5295,16.1457)"><stop offset="0" style="stop-color:rgb(197,198,192);stop-opacity:1"/><stop offset="1" style="stop-color:rgb(148,149,141);stop-opacity:1"/></linearGradient>
        <linearGradient id="_Linear24" x1="0" y1="0" x2="1" y2="0" gradientUnits="userSpaceOnUse" gradientTransform="matrix(-3.5911,0.301,-0.301,-3.5911,25.4985,15.4858)"><stop offset="0" style="stop-color:rgb(197,198,192);stop-opacity:1"/><stop offset="1" style="stop-color:rgb(148,149,141);stop-opacity:1"/></linearGradient>
        <radialGradient id="_Radial25" cx="0" cy="0" r="1" gradientUnits="userSpaceOnUse" gradientTransform="matrix(2.415,0.14102,-0.143733,2.46147,24.7585,16.7386)"><stop offset="0" style="stop-color:rgb(42,58,59);stop-opacity:1"/><stop offset="1" style="stop-color:rgb(28,39,39);stop-opacity:1"/></radialGradient>
        <linearGradient id="_Linear26" x1="0" y1="0" x2="1" y2="0" gradientUnits="userSpaceOnUse" gradientTransform="matrix(4.766,-0.237,0.237,4.766,21.651,15.6823)"><stop offset="0" style="stop-color:rgb(103,48,36);stop-opacity:1"/><stop offset="0.34" style="stop-color:rgb(83,39,28);stop-opacity:1"/><stop offset="0.68" style="stop-color:rgb(70,33,24);stop-opacity:1"/><stop offset="1" style="stop-color:rgb(66,31,22);stop-opacity:1"/></linearGradient>
        <linearGradient id="_Linear27" x1="0" y1="0" x2="1" y2="0" gradientUnits="userSpaceOnUse" gradientTransform="matrix(-5.6472,1.5091,-1.5091,-5.6472,17.1565,14.9899)"><stop offset="0" style="stop-color:rgb(219,167,121);stop-opacity:1"/><stop offset="0.48" style="stop-color:rgb(228,181,134);stop-opacity:1"/><stop offset="1" style="stop-color:rgb(240,201,153);stop-opacity:1"/></linearGradient>
        <linearGradient id="_Linear28" x1="0" y1="0" x2="1" y2="0" gradientUnits="userSpaceOnUse" gradientTransform="matrix(-4.0196,-0.969,0.969,-4.0196,17.035,16.3971)"><stop offset="0" style="stop-color:white;stop-opacity:1"/><stop offset="0.47" style="stop-color:rgb(253,252,252);stop-opacity:1"/><stop offset="0.77" style="stop-color:rgb(246,244,244);stop-opacity:1"/><stop offset="1" style="stop-color:rgb(236,231,231);stop-opacity:1"/></linearGradient>
        <linearGradient id="_Linear29" x1="0" y1="0" x2="1" y2="0" gradientUnits="userSpaceOnUse" gradientTransform="matrix(-3.8795,0.1563,-0.1563,-3.8795,16.1857,15.9815)"><stop offset="0" style="stop-color:rgb(197,198,192);stop-opacity:1"/><stop offset="1" style="stop-color:rgb(148,149,141);stop-opacity:1"/></linearGradient>
        <linearGradient id="_Linear30" x1="0" y1="0" x2="1" y2="0" gradientUnits="userSpaceOnUse" gradientTransform="matrix(-2.5105,-0.4603,0.4603,-2.5105,16.2626,15.8799)"><stop offset="0" style="stop-color:rgb(197,198,192);stop-opacity:1"/><stop offset="1" style="stop-color:rgb(148,149,141);stop-opacity:1"/></linearGradient>
        <radialGradient id="_Radial31" cx="0" cy="0" r="1" gradientUnits="userSpaceOnUse" gradientTransform="matrix(-2.41545,0.114121,-0.116308,-2.46173,13.9993,16.6907)"><stop offset="0" style="stop-color:rgb(42,58,59);stop-opacity:1"/><stop offset="1" style="stop-color:rgb(28,39,39);stop-opacity:1"/></radialGradient>
        <linearGradient id="_Linear32" x1="0" y1="0" x2="1" y2="0" gradientUnits="userSpaceOnUse" gradientTransform="matrix(-4.7631,-0.2904,0.2904,-4.7631,17.1192,15.6576)"><stop offset="0" style="stop-color:rgb(103,48,36);stop-opacity:1"/><stop offset="0.34" style="stop-color:rgb(83,39,28);stop-opacity:1"/><stop offset="0.68" style="stop-color:rgb(70,33,24);stop-opacity:1"/><stop offset="1" style="stop-color:rgb(66,31,22);stop-opacity:1"/></linearGradient>
        <linearGradient id="_Linear33" x1="0" y1="0" x2="1" y2="0" gradientUnits="userSpaceOnUse" gradientTransform="matrix(-0.1555,-9.2753,9.2753,-0.1555,25.0392,30.1533)"><stop offset="0" style="stop-color:rgb(247,217,171);stop-opacity:1"/><stop offset="0.52" style="stop-color:rgb(246,215,168);stop-opacity:1"/><stop offset="0.85" style="stop-color:rgb(243,207,160);stop-opacity:1"/><stop offset="1" style="stop-color:rgb(240,201,153);stop-opacity:1"/></linearGradient>
        <linearGradient id="_Linear34" x1="0" y1="0" x2="1" y2="0" gradientUnits="userSpaceOnUse" gradientTransform="matrix(-0.1516,-9.0429,9.0429,-0.1516,14.7772,30.1202)"><stop offset="0" style="stop-color:rgb(247,217,171);stop-opacity:1"/><stop offset="0.52" style="stop-color:rgb(246,215,168);stop-opacity:1"/><stop offset="0.85" style="stop-color:rgb(243,207,160);stop-opacity:1"/><stop offset="1" style="stop-color:rgb(240,201,153);stop-opacity:1"/></linearGradient>
        <linearGradient id="_Linear35" x1="0" y1="0" x2="1" y2="0" gradientUnits="userSpaceOnUse" gradientTransform="matrix(-0.1333,-5.8931,5.8931,-0.1333,20.1219,31.7454)"><stop offset="0" style="stop-color:rgb(247,217,171);stop-opacity:1"/><stop offset="0.52" style="stop-color:rgb(246,215,168);stop-opacity:1"/><stop offset="0.85" style="stop-color:rgb(243,207,160);stop-opacity:1"/><stop offset="1" style="stop-color:rgb(240,201,153);stop-opacity:1"/></linearGradient>
        <linearGradient id="_Linear36" x1="0" y1="0" x2="1" y2="0" gradientUnits="userSpaceOnUse" gradientTransform="matrix(7.7002,0.1291,-0.1291,7.7002,16.1364,24.5392)"><stop offset="0" style="stop-color:rgb(232,216,215);stop-opacity:1"/><stop offset="0.14" style="stop-color:rgb(240,229,228);stop-opacity:1"/><stop offset="0.39" style="stop-color:rgb(251,248,248);stop-opacity:1"/><stop offset="0.57" style="stop-color:white;stop-opacity:1"/><stop offset="1" style="stop-color:rgb(232,210,209);stop-opacity:1"/></linearGradient>
        <linearGradient id="_Linear37" x1="0" y1="0" x2="1" y2="0" gradientUnits="userSpaceOnUse" gradientTransform="matrix(-0.2086,-5.9714,5.9714,-0.2086,20.1849,31.8295)"><stop offset="0" style="stop-color:rgb(247,217,171);stop-opacity:1"/><stop offset="0.52" style="stop-color:rgb(246,215,168);stop-opacity:1"/><stop offset="0.85" style="stop-color:rgb(243,207,160);stop-opacity:1"/><stop offset="1" style="stop-color:rgb(240,201,153);stop-opacity:1"/></linearGradient>
        <linearGradient id="_Linear38" x1="0" y1="0" x2="1" y2="0" gradientUnits="userSpaceOnUse" gradientTransform="matrix(0.1234,2.8806,-2.8806,0.1234,19.7081,21.6237)"><stop offset="0" style="stop-color:rgb(232,216,215);stop-opacity:1"/><stop offset="0.4" style="stop-color:rgb(239,228,228);stop-opacity:1"/><stop offset="1" style="stop-color:white;stop-opacity:1"/></linearGradient>
        <linearGradient id="_Linear39" x1="0" y1="0" x2="1" y2="0" gradientUnits="userSpaceOnUse" gradientTransform="matrix(-0.2076,-12.388,12.388,-0.2076,20.0229,32.9892)"><stop offset="0" style="stop-color:rgb(247,217,171);stop-opacity:1"/><stop offset="0.52" style="stop-color:rgb(246,215,168);stop-opacity:1"/><stop offset="0.85" style="stop-color:rgb(243,207,160);stop-opacity:1"/><stop offset="1" style="stop-color:rgb(240,201,153);stop-opacity:1"/></linearGradient>
        <linearGradient id="_Linear40" x1="0" y1="0" x2="1" y2="0" gradientUnits="userSpaceOnUse" gradientTransform="matrix(1.16684,4.8183,-4.8183,1.16684,7.94301,15.4539)"><stop offset="0" style="stop-color:rgb(219,167,121);stop-opacity:1"/><stop offset="0.48" style="stop-color:rgb(228,181,134);stop-opacity:1"/><stop offset="1" style="stop-color:rgb(240,201,153);stop-opacity:1"/></linearGradient>
        <linearGradient id="_Linear41" x1="0" y1="0" x2="1" y2="0" gradientUnits="userSpaceOnUse" gradientTransform="matrix(0.7822,-3.5875,3.5875,0.7822,18.6588,34.1781)"><stop offset="0" style="stop-color:rgb(219,167,121);stop-opacity:1"/><stop offset="0.48" style="stop-color:rgb(228,181,134);stop-opacity:1"/><stop offset="1" style="stop-color:rgb(240,201,153);stop-opacity:1"/></linearGradient>
        <linearGradient id="_Linear42" x1="0" y1="0" x2="1" y2="0" gradientUnits="userSpaceOnUse" gradientTransform="matrix(0.3208,12.6179,-12.6179,0.3208,27.1033,18.4823)"><stop offset="0" style="stop-color:rgb(255,222,179);stop-opacity:1"/><stop offset="0.68" style="stop-color:rgb(252,220,176);stop-opacity:1"/><stop offset="1" style="stop-color:rgb(247,217,171);stop-opacity:1"/></linearGradient>
        <linearGradient id="_Linear43" x1="0" y1="0" x2="1" y2="0" gradientUnits="userSpaceOnUse" gradientTransform="matrix(-5.33534,-9.0683,9.0683,-5.33534,14.9742,29.7328)"><stop offset="0" style="stop-color:rgb(247,217,171);stop-opacity:1"/><stop offset="1" style="stop-color:rgb(240,201,153);stop-opacity:1"/></linearGradient>
        <linearGradient id="_Linear44" x1="0" y1="0" x2="1" y2="0" gradientUnits="userSpaceOnUse" gradientTransform="matrix(0.1071,6.41618,-6.41618,0.1071,20.6866,-0.626232)"><stop offset="0" style="stop-color:rgb(103,48,36);stop-opacity:1"/><stop offset="0.74" style="stop-color:rgb(122,60,49);stop-opacity:1"/><stop offset="1" style="stop-color:rgb(130,65,55);stop-opacity:1"/></linearGradient>
        <linearGradient id="_Linear45" x1="0" y1="0" x2="1" y2="0" gradientUnits="userSpaceOnUse" gradientTransform="matrix(5.9234,0,0,5.9234,21.516,13.0872)"><stop offset="0" style="stop-color:rgb(103,48,36);stop-opacity:1"/><stop offset="0.34" style="stop-color:rgb(83,39,28);stop-opacity:1"/><stop offset="0.68" style="stop-color:rgb(70,33,24);stop-opacity:1"/><stop offset="1" style="stop-color:rgb(66,31,22);stop-opacity:1"/></linearGradient>
        <linearGradient id="_Linear46" x1="0" y1="0" x2="1" y2="0" gradientUnits="userSpaceOnUse" gradientTransform="matrix(5.7299,0,0,5.7299,11.5765,13.1232)"><stop offset="0" style="stop-color:rgb(103,48,36);stop-opacity:1"/><stop offset="0.34" style="stop-color:rgb(83,39,28);stop-opacity:1"/><stop offset="0.68" style="stop-color:rgb(70,33,24);stop-opacity:1"/><stop offset="1" style="stop-color:rgb(66,31,22);stop-opacity:1"/></linearGradient>
        <linearGradient id="_Linear47" x1="0" y1="0" x2="1" y2="0" gradientUnits="userSpaceOnUse" gradientTransform="matrix(0.3038,-2.2401,2.2401,0.3038,19.5558,20.9257)"><stop offset="0" style="stop-color:rgb(255,222,179);stop-opacity:1"/><stop offset="0.28" style="stop-color:rgb(251,220,175);stop-opacity:1"/><stop offset="1" style="stop-color:rgb(247,217,171);stop-opacity:1"/></linearGradient>
    </defs>
</svg>
