<?xml version="1.0" encoding="UTF-8" standalone="no"?>
<!DOCTYPE svg PUBLIC "-//W3C//DTD SVG 1.1//EN" "http://www.w3.org/Graphics/SVG/1.1/DTD/svg11.dtd">
<svg width="100%" height="100%" viewBox="0 0 60 60" version="1.1" xmlns="http://www.w3.org/2000/svg" xmlns:xlink="http://www.w3.org/1999/xlink" xml:space="preserve" xmlns:serif="http://www.serif.com/" style="fill-rule:evenodd;clip-rule:evenodd;stroke-linejoin:round;stroke-miterlimit:2;">
    <g transform="matrix(1,0,0,1,-2.364,0.0256956)">
        <path d="M34.679,48.808C35.079,49.842 39.83,51.277 39.807,50.36C39.807,49.443 44.276,45.726 46.181,43.303C49.262,39.375 46.11,36.576 47.639,27.755C49.145,19.123 39.995,4.257 39.995,4.257C39.995,4.257 23.882,19.875 34.679,48.808Z" style="fill:rgb(153,94,34);fill-rule:nonzero;"/>
        <path d="M43.829,27.826C43.829,27.826 45.381,34.412 42.441,41.916C40.512,46.808 36.372,48.502 36.372,48.502L40.794,49.325C40.794,49.325 41.053,50.595 46.11,43.727C51.144,36.858 48.463,24.204 48.463,24.204L43.829,27.826Z" style="fill:rgb(153,94,34);fill-rule:nonzero;"/>
        <path d="M42.582,30.625C40.253,20.981 35.408,13.36 34.632,3.881C34.349,3.857 34.185,3.857 34.185,3.857C7.205,0.258 11.204,47.255 17.343,52.289C18.895,52.618 30.351,58.499 33.855,59.322C29.739,45.703 45.781,43.868 42.582,30.625Z" style="fill:rgb(153,94,34);fill-rule:nonzero;"/>
        <path d="M22.259,44.691C21.742,44.832 21.13,46.643 21.201,46.949L22.212,51.63L44.135,51.089C44.135,51.089 43.946,45.867 42.7,44.762C41.453,43.632 31.927,41.798 22.259,44.691Z" style="fill:rgb(229,233,239);fill-rule:nonzero;"/>
        <path d="M32.562,43.138C24.635,43.209 22.071,44.644 22.071,44.644L22.377,46.549C22.494,44.808 24.446,43.562 32.726,43.303C43.146,42.997 42.206,46.855 42.206,46.855L43.029,45.067C41.97,43.491 36.795,43.091 32.562,43.138Z" style="fill:url(#_Linear1);fill-rule:nonzero;"/>
        <path d="M38.395,45.702C37.737,41.751 38.49,38.646 38.49,38.646L27.858,35.07C28.352,38.999 26.611,44.62 25.435,46.972C24.682,48.478 20.942,50.783 16.567,52.077C17.367,52.876 26.752,67.06 32.868,71.882C33.385,72.4 51.779,57.84 52.838,53.512C51.756,53.488 38.772,47.984 38.395,45.702Z" style="fill:url(#_Linear2);fill-rule:nonzero;"/>
        <path d="M32.843,52.641C32.514,52.477 30.985,50.572 31.056,51.018C31.103,51.465 32.773,54.805 33.455,54.076C34.114,53.347 34.913,51.089 34.913,51.089C34.419,51.348 33.196,52.806 32.843,52.641Z" style="fill:url(#_Linear3);fill-rule:nonzero;"/>
        <path d="M42.535,48.525C40.394,47.325 39.218,46.29 38.983,46.102C38.583,45.773 38.301,44.173 38.301,42.597C38.301,41.915 38.348,40.904 38.419,40.01C38.207,40.222 25.387,37.093 25.387,37.093C25.387,37.093 26.116,44.597 24.682,47.467C24.517,47.796 23.059,48.831 21.224,49.866C19.789,50.689 29.174,63.344 29.951,66.943C30.398,69.036 31.056,70.753 31.644,72C32.373,72 33.126,71.976 33.855,71.929C35.761,66.496 40.183,53.864 40.7,52.947C41.029,52.312 44.417,49.583 42.535,48.525ZM39.43,49.395C37.595,51.936 36.795,53.606 36.678,54.664C36.56,55.723 34.82,63.297 33.15,67.013C33.15,67.013 29.998,58.498 29.645,56.193C29.339,54.17 27.128,51.112 25.74,49.207C26.14,48.29 26.469,47.96 26.775,47.231C26.775,47.231 33.197,47.372 37.054,44.667C36.466,47.537 39.571,49.231 39.43,49.395Z" style="fill:url(#_Linear4);fill-rule:nonzero;"/>
        <path d="M51.85,66.661C53.026,63.344 60.271,55.511 60.271,55.511C60.082,55.252 53.92,52.1 50.368,50.924C47.71,50.03 43.17,48.219 43.17,48.219C42.511,49.042 40.018,50.877 40.018,50.877C37.29,59.322 27.081,55.441 27.081,55.441C25.27,54.617 22.988,48.901 22.988,48.901C12.192,51.536 6.288,55.887 6.288,55.887C7.44,56.546 11.251,61.015 12.568,62.826C13.133,63.603 13.532,65.579 13.862,68.048C19.201,70.565 25.199,71.976 31.503,71.976C38.889,71.976 45.828,70.048 51.85,66.661Z" style="fill:rgb(58,176,186);fill-rule:nonzero;"/>
        <path d="M39.548,57.44L26.634,57.675L12.168,58.616C12.168,58.616 14.214,64.238 16.449,69.154C21.106,70.965 26.187,71.977 31.503,71.977C38.183,71.977 44.487,70.4 50.062,67.601C51.403,64.332 51.92,62.497 52.72,57.558L39.548,57.44Z" style="fill:url(#_Linear5);fill-rule:nonzero;"/>
        <path d="M37.783,52.947C37.783,52.947 37.689,53.465 37.571,54.194C38.842,53.347 40.3,52.9 41.782,52.853C42.84,51.912 44.628,50.384 45.475,49.984L41.758,47.608L37.783,52.947Z" style="fill:url(#_Linear6);fill-rule:nonzero;"/>
        <path d="M26.517,51.16L24.494,49.372L22.024,51.513C22.495,52.101 24.518,53.771 24.518,53.771C24.518,53.771 24.8,54.947 25.27,56.711C25.976,56.711 26.682,56.829 27.387,57.064C27.952,57.276 28.54,57.464 29.151,57.652C28.893,56.617 28.705,55.888 28.681,55.676C28.54,54.712 26.517,51.16 26.517,51.16Z" style="fill:url(#_Linear7);fill-rule:nonzero;"/>
        <path d="M6.123,56.499C5.723,58.616 5.441,60.686 5.253,62.638C7.887,64.802 10.804,66.637 13.932,68.096C13.768,66.096 13.627,64.379 13.58,63.603C13.486,61.227 6.594,54.006 6.123,56.499Z" style="fill:rgb(58,176,186);fill-rule:nonzero;"/>
        <path d="M5.817,56.711C5.3,58.098 5.017,60.121 4.853,62.309C6.005,63.273 7.181,64.167 8.428,64.99C7.934,58.851 6.993,53.512 5.817,56.711Z" style="fill:url(#_Linear8);fill-rule:nonzero;"/>
        <path d="M61.353,59.322C60.953,57.064 60.529,55.911 60.529,55.911C57.848,55.417 55.19,60.286 53.308,62.074C52.273,63.038 51.567,65.249 51.121,67.084C54.931,65.014 58.389,62.403 61.353,59.322Z" style="fill:rgb(58,176,186);fill-rule:nonzero;"/>
        <path d="M60.294,55.535C51.003,49.466 43.311,48.76 43.311,48.76C45.475,50.078 60.294,55.535 60.294,55.535Z" style="fill:url(#_Linear9);fill-rule:nonzero;"/>
        <path d="M61.447,59.228C61.165,57.722 60.883,56.758 60.671,56.17C59.918,54.03 59.307,57.134 58.813,61.745C59.707,60.945 60.6,60.122 61.447,59.228Z" style="fill:url(#_Linear10);fill-rule:nonzero;"/>
        <path d="M24.494,49.936C23.788,49.584 21.483,47.96 21.483,47.96L17.578,51.583L18.402,58.216L24.188,52.712C24.188,52.712 26.681,52.618 27.881,53.747C27.904,53.77 26.634,50.971 24.494,49.936Z" style="fill:url(#_Linear11);fill-rule:nonzero;"/>
        <path d="M32.491,55.064C29.621,55.252 26.516,54.641 23.835,50.995L21.318,52.594C21.318,52.594 22.847,58.216 32.138,58.122C35.596,58.075 41.335,56.17 44.158,51.489L41.147,50.242C41.147,50.195 37.878,54.688 32.491,55.064Z" style="fill:url(#_Linear12);fill-rule:nonzero;"/>
        <path d="M39.83,51.818C40.818,51.465 45.146,57.252 46.228,56.428C46.981,55.864 47.757,51.254 47.757,51.254L41.524,48.502C41.336,49.842 40.63,51.183 39.83,51.818Z" style="fill:url(#_Linear13);fill-rule:nonzero;"/>
        <path d="M21.53,48.031L17.625,51.677L18.26,58.64L24.235,52.759C24.235,52.759 23.717,50.172 23.082,48.855C22.447,48.408 21.53,48.031 21.53,48.031Z" style="fill:url(#_Linear14);fill-rule:nonzero;"/>
        <path d="M25.058,49.231C22.447,47.326 22.071,44.621 22.071,44.621C22.071,44.621 20.072,45.773 17.319,50.195C16.755,51.113 17.155,58.522 17.155,58.522C20.072,54.641 22.4,52.524 22.4,52.524C22.4,52.524 24.258,50.713 24.729,50.713C25.199,50.713 27.904,53.771 27.904,53.771C26.658,51.23 25.858,49.843 25.058,49.231Z" style="fill:url(#_Linear15);fill-rule:nonzero;"/>
        <path d="M42.606,44.644C42.606,44.644 42.371,47.42 40.324,49.16C39.548,49.819 37.948,52.265 37.807,52.971C37.807,52.971 39.407,50.877 40.606,51.089C41.783,51.301 45.452,55.958 46.463,55.558C47.004,55.347 48.298,50.76 47.687,49.866C45.523,46.737 42.606,44.644 42.606,44.644Z" style="fill:url(#_Linear16);fill-rule:nonzero;"/>
        <path d="M25.411,44.879C32.938,47.326 38.301,42.01 38.301,42.01L38.442,39.234L25.058,38.128C25.458,39.657 25.411,44.879 25.411,44.879Z" style="fill:url(#_Linear17);fill-rule:nonzero;"/>
        <path d="M47.263,24.485C46.816,24.485 46.322,25.615 46.322,25.615C45.687,29.472 45.428,32.436 45.428,32.436C47.945,31.636 49.803,24.462 47.263,24.485Z" style="fill:rgb(240,201,153);fill-rule:nonzero;"/>
        <path d="M46.933,28.226C47.239,29.66 46.604,30.484 46.604,30.484C46.604,30.484 47.474,29.378 47.615,28.437C47.874,26.603 47.145,26.485 47.451,26.014C47.71,25.638 48.086,26.72 48.086,26.72C48.462,24.321 46.228,24.862 46.933,28.226Z" style="fill:url(#_Linear18);fill-rule:nonzero;"/>
        <path d="M16.755,24.556C14.238,24.462 15.931,31.683 18.401,32.554C18.401,32.554 18.213,29.59 17.672,25.709C17.672,25.709 17.202,24.58 16.755,24.556Z" style="fill:rgb(240,201,153);fill-rule:nonzero;"/>
        <path d="M17.155,28.367C17.649,24.768 15.203,24.556 15.791,27.002C15.791,27.002 16.12,25.85 16.426,26.179C16.802,26.603 16.026,26.838 16.45,28.696C16.661,29.66 17.673,30.648 17.673,30.648C17.673,30.648 16.944,29.872 17.155,28.367Z" style="fill:url(#_Linear19);fill-rule:nonzero;"/>
        <path d="M34.043,6.585C25.434,5.221 19.389,12.819 17.837,21.969C16.966,27.097 17.366,31.683 20.142,35.423C21.271,36.952 22.659,37.682 24.258,38.858C25.293,39.61 26.892,41.233 27.975,42.033C28.962,42.762 30.044,43.327 31.385,43.374C35.431,43.491 38.065,40.457 39.218,39.375C43.264,35.541 47.004,34.083 46.11,23.474C45.404,15.148 39.665,6.727 34.043,6.585Z" style="fill:rgb(247,217,171);fill-rule:nonzero;"/>
        <path d="M38.865,19.405C34.09,20.299 34.302,23.897 33.973,28.131C41.735,31.236 46.157,27.473 46.157,27.473C46.157,27.473 46.11,22.815 45.028,21.216C44.628,20.581 43.334,18.558 38.865,19.405Z" style="fill:url(#_Linear20);fill-rule:nonzero;"/>
        <path d="M40.653,25.097C38.395,25.567 36.207,28.108 36.701,30.507C37.219,32.906 38.795,34.976 40.959,35.799C43.758,36.881 45.781,33.283 46.227,28.837C46.463,26.414 42.911,24.627 40.653,25.097Z" style="fill:url(#_Radial21);fill-rule:nonzero;"/>
        <path d="M24.258,19.711C22.282,19.593 20.683,20.158 19.671,20.911C17.319,22.698 18.73,27.379 18.73,27.379C18.73,27.379 22.47,31.683 30.256,28.555C29.692,25.215 30.586,20.111 24.258,19.711Z" style="fill:url(#_Linear22);fill-rule:nonzero;"/>
        <path d="M23.223,26.038C21.153,25.544 17.931,27.097 17.978,29.214C18.119,34.247 20.165,35.706 22.894,36.082C24.987,36.388 26.469,32.695 26.987,30.625C27.481,28.578 25.293,26.532 23.223,26.038Z" style="fill:url(#_Radial23);fill-rule:nonzero;"/>
        <path d="M43.311,27.332C42.535,27.52 42.018,28.038 42.112,28.438C42.229,28.861 42.935,29.026 43.688,28.837C44.44,28.649 44.981,28.132 44.864,27.732C44.793,27.308 44.088,27.12 43.311,27.332Z" style="fill:url(#_Linear24);fill-rule:nonzero;"/>
        <path d="M20.378,27.614C19.601,27.473 18.919,27.708 18.849,28.108C18.778,28.531 19.343,28.978 20.095,29.119C20.872,29.261 21.554,29.025 21.624,28.625C21.695,28.202 21.13,27.755 20.378,27.614Z" style="fill:url(#_Linear25);fill-rule:nonzero;"/>
        <path d="M35.384,6.774C35.384,6.774 26.281,4.398 20.471,13.854C17.507,18.676 16.473,26.979 18.142,31.637C18.142,31.637 17.79,28.508 19.624,25.239C19.624,25.239 23.412,19.641 25.975,17.124C34.537,8.703 37.384,8.091 39.853,11.361C43.029,15.571 44.252,21.146 46.228,27.473C46.228,27.473 46.604,22.416 44.793,17.382C43.099,12.655 39.853,7.597 35.384,6.774Z" style="fill:url(#_Linear26);fill-rule:nonzero;"/>
        <path d="M32.138,39.587C31.079,39.54 30.162,39.799 30.138,40.175C30.091,40.552 30.938,40.881 31.997,40.928C33.055,40.975 33.949,40.716 33.996,40.34C34.043,39.987 33.22,39.634 32.138,39.587Z" style="fill:url(#_Linear27);fill-rule:nonzero;"/>
        <path d="M44.37,25.121C47.498,29.496 44.299,34.388 41.83,36.646C39.101,39.14 37.972,40.551 37.525,40.974C37.925,40.622 41.571,37.399 42.606,36.646C43.57,35.964 47.287,32.248 46.322,27.614C46.322,27.614 45.711,25.709 44.37,25.121Z" style="fill:url(#_Linear28);fill-rule:nonzero;"/>
        <path d="M22.564,37.305C17.084,33.424 18.66,26.367 18.66,26.367C15.861,33.518 20.8,36.693 21.788,37.352C23.835,38.693 27.269,41.468 27.269,41.468C26.493,40.786 25.575,39.445 22.564,37.305Z" style="fill:rgb(240,201,153);fill-rule:nonzero;"/>
        <path d="M27.81,41.916C27.81,41.916 31.197,46.291 36.678,41.657C36.678,41.633 32.256,45.138 27.81,41.916Z" style="fill:rgb(219,167,121);fill-rule:nonzero;"/>
        <path d="M43.97,20.252C41.429,18.699 39.43,19.264 39.43,19.264C45.24,19.664 44.158,25.144 44.158,25.144C44.158,25.144 45.428,21.169 43.97,20.252Z" style="fill:rgb(247,217,171);fill-rule:nonzero;"/>
        <path d="M36.96,19.616C35.948,20.11 35.219,21.451 36.113,21.169C37.007,20.863 40.276,19.593 40.982,19.57C42.088,19.546 43.734,20.11 44.181,20.369C44.181,20.369 42.182,18.84 40.959,18.723C39.712,18.629 37.501,19.358 36.96,19.616Z" style="fill:url(#_Linear29);fill-rule:nonzero;"/>
        <path d="M26.822,19.687C26.258,19.452 23.835,18.746 22.612,18.934C21.389,19.123 19.483,20.793 19.483,20.793C19.907,20.51 21.6,19.734 22.612,19.758C23.317,19.781 26.658,20.816 27.575,21.075C28.492,21.334 27.881,20.11 26.822,19.687Z" style="fill:url(#_Linear30);fill-rule:nonzero;"/>
        <path d="M39.618,21.757C36.066,21.828 35.102,24.368 35.055,26.25C35.384,26.321 35.949,26.744 36.584,26.932C37.454,27.191 38.23,27.238 39.712,27.191C40.865,27.167 43.194,26.791 43.147,24.603C43.076,22.675 40.489,21.734 39.618,21.757Z" style="fill:url(#_Linear31);fill-rule:nonzero;"/>
        <path d="M24.4,21.852C22.989,21.828 20.66,22.793 20.566,25.122C20.472,27.003 22.942,27.333 24.071,27.333C25.529,27.333 26.329,27.286 27.176,27.003C27.811,26.792 28.399,26.345 28.705,26.274C28.611,23.804 27.576,21.899 24.4,21.852Z" style="fill:url(#_Linear32);fill-rule:nonzero;"/>
        <path d="M39.054,23.027C35.502,23.239 35.22,26.038 35.22,26.038C36.372,26.909 37.948,27.097 39.172,27.003C42.394,26.767 43.123,25.05 43.123,25.05C43.123,25.05 42.865,22.792 39.054,23.027Z" style="fill:url(#_Linear33);fill-rule:nonzero;"/>
        <path d="M41.1,24.768C41.524,24.956 41.947,25.215 42.417,25.544L42.747,24.862C42.747,24.862 41.453,23.639 40.018,23.286C40.583,23.592 41.006,24.133 41.1,24.768Z" style="fill:rgb(221,221,221);fill-rule:nonzero;"/>
        <path d="M35.243,26.038C35.243,26.038 35.761,25.356 36.561,24.862C36.608,24.415 36.819,23.992 37.149,23.663C36.208,24.063 35.479,24.768 35.243,26.038Z" style="fill:rgb(221,221,221);fill-rule:nonzero;"/>
        <path d="M36.561,24.862C36.537,24.98 36.537,25.097 36.537,25.215C36.584,25.991 37.055,26.626 37.76,26.956C38.372,27.026 39.266,27.003 39.901,26.932L39.948,26.932C40.7,26.556 41.194,25.803 41.147,24.98C41.147,24.909 41.147,24.839 41.124,24.768C39.83,23.898 37.36,24.062 36.561,24.862Z" style="fill:url(#_Linear34);fill-rule:nonzero;"/>
        <path d="M40.019,23.286C39.642,23.192 39.266,23.168 38.913,23.215C38.278,23.333 37.666,23.451 37.149,23.662C36.82,23.992 36.608,24.392 36.561,24.862C36.89,24.65 37.267,24.486 37.69,24.368C38.748,24.109 39.854,24.156 41.124,24.744C41.006,24.133 40.583,23.592 40.019,23.286Z" style="fill:url(#_Linear35);fill-rule:nonzero;"/>
        <path d="M38.866,23.545C38.043,23.592 37.431,24.251 37.478,25.004C37.525,25.756 38.207,26.344 39.031,26.297C39.854,26.25 40.465,25.592 40.418,24.839C40.371,24.086 39.666,23.498 38.866,23.545Z" style="fill:url(#_Radial36);fill-rule:nonzero;"/>
        <path d="M43.688,23.074C43.664,23.074 43.452,23.427 42.676,23.31C42.888,23.192 42.935,22.816 42.935,22.816C42.582,22.957 41.947,23.027 41.453,22.886C37.619,21.804 35.478,23.686 35.22,26.038C35.22,26.038 36.137,23.568 38.842,23.568C40.206,23.568 41.265,24.062 42.559,24.956C42.159,26.156 41.477,26.509 39.712,26.979C40.818,26.909 41.688,26.626 42.347,26.226C43.335,25.638 43.758,25.544 43.782,25.544C43.664,25.403 43.547,25.144 43.076,25.168C43.1,25.097 43.1,25.027 43.123,25.003C44.205,24.65 43.688,23.122 43.688,23.074Z" style="fill:url(#_Linear37);fill-rule:nonzero;"/>
        <path d="M38.819,23.38C36.561,23.38 35.361,25.192 35.243,26.038C35.243,26.038 36.42,23.616 38.819,23.663C41.147,23.71 42.582,24.956 42.582,24.956C42.582,24.956 41.077,23.38 38.819,23.38Z" style="fill:rgb(61,13,2);fill-rule:nonzero;"/>
        <path d="M24.635,23.122C20.824,22.887 20.589,25.215 20.589,25.215C20.589,25.215 21.342,26.909 24.564,27.097C25.788,27.167 27.363,26.979 28.493,26.085C28.493,26.085 28.163,23.333 24.635,23.122Z" style="fill:url(#_Linear38);fill-rule:nonzero;"/>
        <path d="M21.319,25.709C21.766,25.38 22.213,25.121 22.613,24.909C22.707,24.274 23.106,23.733 23.671,23.427C22.26,23.804 20.966,25.05 20.966,25.05L21.319,25.709Z" style="fill:rgb(221,221,221);fill-rule:nonzero;"/>
        <path d="M26.54,23.756C26.869,24.086 27.081,24.485 27.152,24.932C27.952,25.403 28.493,26.085 28.493,26.085C28.234,24.815 27.505,24.133 26.54,23.756Z" style="fill:rgb(221,221,221);fill-rule:nonzero;"/>
        <path d="M22.613,24.909C22.589,24.98 22.589,25.05 22.589,25.121C22.565,25.944 23.059,26.697 23.812,27.073L23.859,27.073C24.518,27.144 25.388,27.167 26,27.073C26.705,26.744 27.152,26.085 27.199,25.309C27.199,25.191 27.199,25.074 27.176,24.956C26.329,24.156 23.883,24.015 22.613,24.909Z" style="fill:url(#_Linear39);fill-rule:nonzero;"/>
        <path d="M24.776,23.333C24.4,23.286 24.024,23.31 23.671,23.404C23.106,23.733 22.706,24.251 22.612,24.886C23.883,24.274 24.965,24.227 26.023,24.462C26.447,24.556 26.823,24.721 27.152,24.933C27.082,24.486 26.87,24.062 26.541,23.757C26.023,23.545 25.412,23.427 24.776,23.333Z" style="fill:url(#_Linear40);fill-rule:nonzero;"/>
        <path d="M24.847,23.662C24.024,23.639 23.342,24.227 23.318,24.98C23.295,25.732 23.93,26.391 24.73,26.414C25.553,26.438 26.235,25.85 26.259,25.097C26.282,24.344 25.647,23.686 24.847,23.662Z" style="fill:url(#_Radial41);fill-rule:nonzero;"/>
        <path d="M22.212,23.027C21.718,23.169 21.107,23.121 20.73,22.98C20.73,22.98 20.801,23.357 21.013,23.474C20.236,23.592 20.001,23.263 20.001,23.263C20.001,23.31 19.531,24.862 20.589,25.191C20.589,25.215 20.613,25.262 20.636,25.356C20.166,25.333 20.072,25.591 19.93,25.732C19.93,25.732 20.354,25.826 21.365,26.391C22.047,26.767 22.918,27.026 24.023,27.097C22.259,26.65 21.554,26.32 21.154,25.121C22.447,24.18 23.553,23.757 24.894,23.78C27.316,23.804 28.493,26.109 28.493,26.109C28.257,23.827 26.023,21.875 22.212,23.027Z" style="fill:url(#_Linear42);fill-rule:nonzero;"/>
        <path d="M24.682,23.521C22.495,23.498 21.154,25.097 21.154,25.097C21.154,25.097 22.989,23.709 24.706,23.757C26.4,23.804 27.387,24.462 28.516,26.062C28.493,26.085 27.764,23.568 24.682,23.521Z" style="fill:rgb(61,13,2);fill-rule:nonzero;"/>
        <path d="M39.077,24.533C38.889,24.438 38.654,24.533 38.559,24.721C38.465,24.909 38.536,25.144 38.724,25.238C38.912,25.332 39.148,25.238 39.242,25.05C39.336,24.862 39.265,24.627 39.077,24.533Z" style="fill:white;fill-rule:nonzero;"/>
        <path d="M40.465,24.862C40.206,24.744 39.901,24.839 39.759,25.097C39.642,25.356 39.736,25.662 39.995,25.779C40.253,25.897 40.559,25.803 40.7,25.544C40.818,25.309 40.724,24.98 40.465,24.862Z" style="fill:white;fill-rule:nonzero;"/>
        <path d="M24.988,24.65C24.8,24.556 24.565,24.627 24.471,24.838C24.377,25.027 24.447,25.285 24.635,25.379C24.823,25.474 25.059,25.379 25.153,25.191C25.247,24.98 25.176,24.744 24.988,24.65Z" style="fill:white;fill-rule:nonzero;"/>
        <path d="M26.376,24.956C26.117,24.838 25.788,24.932 25.67,25.191C25.553,25.45 25.647,25.756 25.905,25.897C26.164,26.014 26.493,25.92 26.611,25.662C26.752,25.403 26.635,25.097 26.376,24.956Z" style="fill:white;fill-rule:nonzero;"/>
        <path d="M37.149,22.345C35.973,23.004 35.573,24.039 35.573,24.039C35.573,24.039 36.067,23.168 37.196,22.51C38.466,21.804 39.713,21.734 39.713,21.734C39.713,21.734 38.302,21.71 37.149,22.345Z" style="fill:url(#_Linear43);fill-rule:nonzero;"/>
        <path d="M27.034,22.557C26.023,21.828 24.611,21.875 24.611,21.875C24.611,21.875 25.787,22.087 26.517,22.463C27.622,23.028 28.351,24.274 28.351,24.274C28.351,24.274 28.163,23.334 27.034,22.557Z" style="fill:url(#_Linear44);fill-rule:nonzero;"/>
        <path d="M32.092,32.93C32.563,32.883 34.562,31.636 34.562,31.636L29.528,31.495C29.528,31.495 31.598,32.977 32.092,32.93Z" style="fill:url(#_Linear45);fill-rule:nonzero;"/>
        <path d="M32.116,29.472C30.775,29.472 30.398,29.802 30.493,30.154C30.704,31.025 31.269,31.213 32.116,31.213C32.986,31.236 33.692,31.048 33.833,30.131C33.856,29.872 33.433,29.472 32.116,29.472Z" style="fill:url(#_Linear46);fill-rule:nonzero;"/>
        <path d="M32.939,31.824C32.939,31.824 35.385,31.918 34.609,31.095C34.35,30.813 32.939,31.824 32.939,31.824Z" style="fill:url(#_Linear47);fill-rule:nonzero;"/>
        <path d="M29.551,31.071C28.704,31.754 31.292,31.777 31.292,31.777C31.292,31.777 29.834,30.836 29.551,31.071Z" style="fill:url(#_Linear48);fill-rule:nonzero;"/>
        <path d="M32.068,31.472C29.575,31.378 29.34,30.154 28.987,30.907C28.846,31.213 29.105,31.331 29.528,31.495C29.528,31.495 29.387,31.142 29.951,31.19C30.351,31.237 30.657,32.083 32.092,32.083C33.621,32.083 33.856,31.307 34.256,31.307C34.609,31.307 34.562,31.636 34.562,31.636C34.562,31.636 35.291,31.284 35.032,30.931C34.538,30.319 34.35,31.566 32.068,31.472Z" style="fill:rgb(240,201,153);fill-rule:nonzero;"/>
        <path d="M25.058,33.542C24.917,33.8 25.106,34.083 25.458,34.2C25.811,34.318 26.47,34.576 27.246,35.117C26.658,34.318 25.176,33.283 25.058,33.542Z" style="fill:url(#_Linear49);fill-rule:nonzero;"/>
        <path d="M36.819,35C37.525,34.365 38.16,34.059 38.489,33.894C38.819,33.753 39.007,33.447 38.819,33.189C38.678,32.977 37.313,34.153 36.819,35Z" style="fill:url(#_Linear50);fill-rule:nonzero;"/>
        <path d="M28.634,36.882C29.316,38.293 32.962,40.198 35.596,36.764C35.573,36.764 31.809,38.505 28.634,36.882Z" style="fill:rgb(240,201,153);fill-rule:nonzero;"/>
        <path d="M25.434,33.8C25.458,33.847 25.482,33.871 25.505,33.894C25.928,34.083 26.422,34.2 27.058,34.647C27.504,34.953 27.951,37.046 32.185,36.952C34.514,36.905 35.902,36.082 37.243,34.483C37.666,33.989 38.066,33.824 38.395,33.612C38.395,33.565 38.419,33.565 38.442,33.518C37.525,33.8 35.667,34.459 31.668,34.459C28.234,34.435 26.234,33.965 25.434,33.8Z" style="fill:rgb(150,27,39);fill-rule:nonzero;"/>
        <path d="M35.478,34.765C33.103,35.329 29.857,35.306 28.68,35.118C27.998,34.835 28.069,35.682 28.069,35.682C29.574,37.188 30.774,36.882 31.974,36.905C33.15,36.929 34.914,36.411 35.949,35.47C36.066,35.188 35.808,34.671 35.478,34.765Z" style="fill:url(#_Linear51);fill-rule:nonzero;"/>
        <path d="M29.669,34.529C28.916,34.506 28.446,34.388 27.481,34.177C27.481,34.177 27.669,34.388 27.787,34.647C27.928,34.976 28.681,36.105 32.092,36.011C34.655,35.941 35.996,35 36.184,34.459C36.278,34.129 36.537,33.965 36.537,33.847C36.537,33.847 35.761,34.247 33.95,34.459C32.092,34.694 31.315,34.6 29.669,34.529Z" style="fill:url(#_Linear52);fill-rule:nonzero;"/>
        <path d="M32.397,36.764C27.175,36.835 28.963,34.67 25.482,33.871C25.505,33.871 26.281,34.294 27.222,35.329C28.257,36.482 29.151,38.316 32.068,38.246C34.702,38.175 36.137,36.246 36.96,35.164C37.901,33.941 38.395,33.589 38.395,33.565C35.596,34.412 36.561,36.576 32.397,36.764Z" style="fill:rgb(248,109,120);fill-rule:nonzero;"/>
        <path d="M34.632,36.2C34.044,36.411 33.08,36.67 31.974,36.717C31.268,36.764 30.092,36.623 29.316,36.317C28.516,35.917 27.787,35.047 27.622,34.953C27.811,35.212 28.987,37.964 31.927,37.846C35.314,37.728 35.902,35.447 36.514,34.741C36.208,35.071 35.502,35.894 34.632,36.2Z" style="fill:url(#_Linear53);fill-rule:nonzero;"/>
        <path d="M33.385,36.858C33.032,36.975 31.856,37.07 31.903,37.211C31.95,37.328 32.656,37.564 33.55,37.305C34.232,37.093 34.561,36.693 34.514,36.576C34.491,36.434 33.738,36.717 33.385,36.858Z" style="fill:rgb(255,154,162);fill-rule:nonzero;"/>
        <path d="M25.553,34.083C25.765,34.177 25.93,34.012 26.729,34.294C26.729,34.294 25.318,33.589 25.224,33.636C25.177,33.683 25.248,33.965 25.553,34.083Z" style="fill:rgb(150,27,39);fill-rule:nonzero;"/>
        <path d="M37.266,34.083C37.972,33.754 38.207,33.895 38.419,33.801C38.725,33.66 38.772,33.378 38.701,33.331C38.584,33.26 37.266,34.083 37.266,34.083Z" style="fill:rgb(150,27,39);fill-rule:nonzero;"/>
        <path d="M27.788,34.67C27.788,34.67 29.269,35.447 32.304,35.4C34.491,35.353 36.138,34.506 36.138,34.506L36.302,34.106L27.552,34.271L27.788,34.67Z" style="fill:url(#_Linear54);fill-rule:nonzero;"/>
        <path d="M33.927,33.894C32.915,33.824 32.798,33.988 32.069,34.012C31.363,34.036 30.775,33.824 29.904,33.918C28.752,34.036 27.364,34.153 25.694,33.824C25.694,33.824 26.306,34.2 29.387,34.741C30.304,34.906 31.104,35.07 32.045,35.023C33.174,35.023 34.091,34.765 34.962,34.6C36.42,34.341 38.161,33.565 38.161,33.542C37.408,33.777 35.056,33.965 33.927,33.894Z" style="fill:rgb(248,109,120);fill-rule:nonzero;"/>
        <path d="M33.362,33.989C33.103,34.059 32.209,34.106 31.904,34.13C31.598,34.13 30.775,33.989 30.516,34.012C30.257,34.012 28.752,34.177 28.728,34.271C28.658,34.577 32.139,34.765 32.445,34.741C32.751,34.718 35.432,34.341 35.456,34.224C35.456,34.059 33.597,33.941 33.362,33.989Z" style="fill:url(#_Linear55);fill-rule:nonzero;"/>
        <path d="M40.841,4.657L38.348,8.914C52.438,14.207 47.804,36.27 47.804,36.27C47.804,36.27 52.979,25.638 49.286,12.842C46.369,2.61 40.841,4.657 40.841,4.657Z" style="fill:rgb(153,94,34);fill-rule:nonzero;"/>
        <path d="M28.562,0.54C22.588,1.128 11.156,6.42 9.674,17.617C8.592,25.732 9.039,26.391 9.368,33.471C9.368,33.471 12.262,26.814 13.602,20.581C14.99,14.347 22.211,10.09 25.575,8.043C28.939,5.997 35.854,4.633 38.371,8.914L41.17,4.656C41.147,4.656 37.924,-0.377 28.562,0.54Z" style="fill:rgb(153,94,34);fill-rule:nonzero;"/>
        <path d="M15.508,41.915L9.957,38.575C9.957,38.575 5.723,44.056 9.087,48.901C11.345,52.171 3.912,55.582 3.583,51.16C3.583,51.16 2.336,53.629 3.489,55.487C6.358,60.098 14.873,60.121 16.543,56.217C18.213,52.289 13.509,43.656 15.508,41.915Z" style="fill:rgb(153,94,34);fill-rule:nonzero;"/>
        <path d="M35.031,5.856C25.575,5.997 19.342,22.956 19.342,22.956C19.342,22.956 28.845,8.349 34.396,8.02C37.642,7.832 38.348,8.914 38.348,8.914C38.348,8.914 37.383,5.809 35.031,5.856Z" style="fill:rgb(153,94,34);fill-rule:nonzero;"/>
        <path d="M20.095,41.092C15.72,37.729 13.391,35.329 13.391,34.365C13.391,33.401 13.109,25.168 11.322,27.591C9.534,30.014 4.853,36.2 5.441,41.163C6.241,47.961 14.05,47.185 15.744,51.654C17.484,56.217 9.463,56.452 9.463,56.452C9.463,56.452 18.684,62.615 22.941,53.912C25.458,48.784 24.47,44.456 20.095,41.092Z" style="fill:rgb(168,106,51);fill-rule:nonzero;"/>
        <path d="M14.591,43.491C12.027,40.433 13.439,36.952 13.439,36.952L10.992,35.329C10.992,35.329 5.277,40.763 11.533,44.856C19.413,50.007 19.837,53.276 15.556,57.158C15.556,57.158 19.554,54.711 20.331,51.936C21.154,49.042 16.097,45.326 14.591,43.491Z" style="fill:rgb(168,106,51);fill-rule:nonzero;"/>
        <path d="M27.011,5.951C23.341,7.691 15.038,16.23 12.757,19.617C10.475,22.98 4.43,32.389 11.91,38.176C18.872,43.562 23.906,45.844 20.119,51.372C16.332,56.899 14.591,59.51 14.779,62.85C14.944,65.649 20.307,71.412 27.034,65.885C27.034,65.885 22.518,67.625 20.848,64.756C19.931,63.179 20.919,60.898 22.965,59.251C30.751,52.995 30.21,45.914 24.588,40.928C19.719,36.623 15.344,36.247 17.461,28.179C18.425,24.486 20.142,21.475 23.177,15.712C26.94,8.561 33.644,2.822 38.372,8.914C38.372,8.914 36.984,1.176 27.011,5.951Z" style="fill:rgb(178,126,70);fill-rule:nonzero;"/>
        <path d="M23.859,8.373C23.859,8.373 8.758,19.875 6.147,28.908C4.547,34.506 8.029,36.223 11.181,37.634C11.181,37.634 5.653,33.424 8.781,27.52C11.957,21.639 23.859,8.373 23.859,8.373Z" style="fill:rgb(178,126,70);fill-rule:nonzero;"/>
        <path d="M25.247,11.384C25.247,11.384 15.744,22.627 14.215,24.509C12.686,26.391 7.558,36.2 20.001,39.61C20.001,39.61 12.78,34.224 15.203,28.155C16.873,23.945 25.247,11.384 25.247,11.384Z" style="fill:rgb(153,94,34);fill-rule:nonzero;"/>
        <path d="M21.412,64.944C19.013,62.733 24.447,57.958 24.447,57.958C24.447,57.958 20.472,59.792 18.943,62.544C17.414,65.296 20.189,66.637 21.812,66.872C25.082,67.343 27.011,65.884 27.011,65.884C27.011,65.884 23.812,67.155 21.412,64.944Z" style="fill:rgb(153,94,34);fill-rule:nonzero;"/>
        <path d="M14.52,40.128C16.684,41.939 24.4,47.796 17.978,53.418C13.25,57.558 10.522,60.145 11.321,63.156C12.474,67.437 18.543,68.19 18.543,68.19C15.179,67.108 10.592,61.58 22.518,53.512C29.41,48.831 14.52,40.128 14.52,40.128Z" style="fill:rgb(168,106,51);fill-rule:nonzero;"/>
        <path d="M16.002,41.375C20.754,45.961 20.354,48.149 19.719,50.313C18.613,54.076 13.391,53.136 13.391,53.136C17.084,56.593 22.73,53.465 23.294,49.325C23.788,45.561 16.002,41.375 16.002,41.375Z" style="fill:rgb(153,94,34);fill-rule:nonzero;"/>
        <path d="M38.372,8.914C39.901,9.478 40.748,10.608 42.465,13.689C45.641,19.381 46.228,24.909 46.228,24.909C47.71,18.84 42.3,10.56 41.124,9.361C39.948,8.185 38.372,8.914 38.372,8.914Z" style="fill:rgb(153,94,34);fill-rule:nonzero;"/>
        <path d="M38.372,8.914C38.372,8.914 42.018,8.75 44.582,16.371C47.428,24.862 49.639,27.497 49.498,33.165C49.357,38.364 45.311,41.633 45.311,41.633C56.578,33.424 49.874,23.051 47.311,15.265C43.806,4.821 38.372,8.914 38.372,8.914Z" style="fill:rgb(178,126,70);fill-rule:nonzero;"/>
        <path d="M19.812,36.505C15.343,32.554 18.589,24.838 18.589,24.838C15.39,28.767 13.556,31.636 14.426,33.424C15.743,36.082 19.954,38.528 21.036,39.163C22.118,39.798 27.175,44.197 27.175,44.197C26.281,42.55 25.717,41.704 19.812,36.505Z" style="fill:rgb(153,94,34);fill-rule:nonzero;"/>
        <path d="M10.404,18.558C10.404,18.558 18.025,8.255 27.739,4.727C27.739,4.727 15.484,6.021 10.404,18.558Z" style="fill:rgb(168,106,51);fill-rule:nonzero;"/>
        <path d="M44.887,5.245C42.841,3.716 40.677,3.857 40.677,3.857C37.501,0.023 31.526,-0.895 25.152,0.846C17.319,2.987 13.015,9.479 13.015,9.479C13.015,9.479 20.471,3.716 26.987,2.469C35.878,0.775 40.582,5.386 40.582,5.386C46.816,5.55 50.368,18.111 50.368,18.111C49.662,10.89 46.933,6.774 44.887,5.245Z" style="fill:rgb(178,126,70);fill-rule:nonzero;"/>
    </g>
    <defs>
        <linearGradient id="_Linear1" x1="0" y1="0" x2="1" y2="0" gradientUnits="userSpaceOnUse" gradientTransform="matrix(-1.6583,-32.1405,32.1405,-1.6583,33.31,59.5015)"><stop offset="0" style="stop-color:rgb(245,248,252);stop-opacity:1"/><stop offset="0.89" style="stop-color:rgb(239,242,246);stop-opacity:1"/><stop offset="1" style="stop-color:rgb(238,241,245);stop-opacity:1"/></linearGradient>
        <linearGradient id="_Linear2" x1="0" y1="0" x2="1" y2="0" gradientUnits="userSpaceOnUse" gradientTransform="matrix(-6.8111,19.51,-19.51,-6.8111,42.393,30.7882)"><stop offset="0" style="stop-color:rgb(240,201,153);stop-opacity:1"/><stop offset="0.52" style="stop-color:rgb(241,203,156);stop-opacity:1"/><stop offset="0.85" style="stop-color:rgb(244,211,164);stop-opacity:1"/><stop offset="1" style="stop-color:rgb(247,217,171);stop-opacity:1"/></linearGradient>
        <linearGradient id="_Linear3" x1="0" y1="0" x2="1" y2="0" gradientUnits="userSpaceOnUse" gradientTransform="matrix(-0.815,-6.8821,6.8821,-0.815,33.7999,57.9257)"><stop offset="0" style="stop-color:rgb(240,201,153);stop-opacity:1"/><stop offset="0.52" style="stop-color:rgb(241,203,156);stop-opacity:1"/><stop offset="0.85" style="stop-color:rgb(244,211,164);stop-opacity:1"/><stop offset="1" style="stop-color:rgb(247,217,171);stop-opacity:1"/></linearGradient>
        <linearGradient id="_Linear4" x1="0" y1="0" x2="1" y2="0" gradientUnits="userSpaceOnUse" gradientTransform="matrix(-7.1625,49.4863,-49.4863,-7.1625,35.9456,23.1115)"><stop offset="0" style="stop-color:rgb(240,201,153);stop-opacity:1"/><stop offset="0.52" style="stop-color:rgb(241,203,156);stop-opacity:1"/><stop offset="0.85" style="stop-color:rgb(244,211,164);stop-opacity:1"/><stop offset="1" style="stop-color:rgb(247,217,171);stop-opacity:1"/></linearGradient>
        <linearGradient id="_Linear5" x1="0" y1="0" x2="1" y2="0" gradientUnits="userSpaceOnUse" gradientTransform="matrix(-1.5835,-27.7477,27.7477,-1.5835,34.2054,88.9288)"><stop offset="0" style="stop-color:rgb(79,189,201);stop-opacity:1"/><stop offset="0.29" style="stop-color:rgb(72,185,196);stop-opacity:1"/><stop offset="1" style="stop-color:rgb(58,176,186);stop-opacity:1"/></linearGradient>
        <linearGradient id="_Linear6" x1="0" y1="0" x2="1" y2="0" gradientUnits="userSpaceOnUse" gradientTransform="matrix(2.7078,-2.8661,2.8661,2.7078,40.4321,52.1655)"><stop offset="0" style="stop-color:rgb(229,233,239);stop-opacity:1"/><stop offset="0.76" style="stop-color:rgb(232,235,241);stop-opacity:1"/><stop offset="1" style="stop-color:rgb(235,238,243);stop-opacity:1"/></linearGradient>
        <linearGradient id="_Linear7" x1="0" y1="0" x2="1" y2="0" gradientUnits="userSpaceOnUse" gradientTransform="matrix(-4.5642,-22.1094,22.1094,-4.5642,28.9113,70.7754)"><stop offset="0" style="stop-color:rgb(245,248,252);stop-opacity:1"/><stop offset="0.89" style="stop-color:rgb(239,242,246);stop-opacity:1"/><stop offset="1" style="stop-color:rgb(238,241,245);stop-opacity:1"/></linearGradient>
        <linearGradient id="_Linear8" x1="0" y1="0" x2="1" y2="0" gradientUnits="userSpaceOnUse" gradientTransform="matrix(0.17799,15.9284,-15.9284,0.17799,6.47431,48.2656)"><stop offset="0" style="stop-color:rgb(79,189,201);stop-opacity:1"/><stop offset="0.29" style="stop-color:rgb(72,185,196);stop-opacity:1"/><stop offset="1" style="stop-color:rgb(58,176,186);stop-opacity:1"/></linearGradient>
        <linearGradient id="_Linear9" x1="0" y1="0" x2="1" y2="0" gradientUnits="userSpaceOnUse" gradientTransform="matrix(16.1516,7.0955,-7.0955,16.1516,43.2787,48.0654)"><stop offset="0" style="stop-color:rgb(79,189,201);stop-opacity:1"/><stop offset="0.29" style="stop-color:rgb(72,185,196);stop-opacity:1"/><stop offset="1" style="stop-color:rgb(58,176,186);stop-opacity:1"/></linearGradient>
        <linearGradient id="_Linear10" x1="0" y1="0" x2="1" y2="0" gradientUnits="userSpaceOnUse" gradientTransform="matrix(-0.0556,11.2333,-11.2333,-0.0556,60.1675,50.9244)"><stop offset="0" style="stop-color:rgb(79,189,201);stop-opacity:1"/><stop offset="0.29" style="stop-color:rgb(72,185,196);stop-opacity:1"/><stop offset="1" style="stop-color:rgb(58,176,186);stop-opacity:1"/></linearGradient>
        <linearGradient id="_Linear11" x1="0" y1="0" x2="1" y2="0" gradientUnits="userSpaceOnUse" gradientTransform="matrix(2.241,7.887,-7.887,2.241,21.0216,48.4769)"><stop offset="0" style="stop-color:rgb(229,233,239);stop-opacity:1"/><stop offset="0.76" style="stop-color:rgb(232,235,241);stop-opacity:1"/><stop offset="1" style="stop-color:rgb(235,238,243);stop-opacity:1"/></linearGradient>
        <linearGradient id="_Linear12" x1="0" y1="0" x2="1" y2="0" gradientUnits="userSpaceOnUse" gradientTransform="matrix(-0.0641,13.9083,-13.9083,-0.0641,32.7334,51.4726)"><stop offset="0" style="stop-color:rgb(50,160,170);stop-opacity:1"/><stop offset="0.5" style="stop-color:rgb(52,164,174);stop-opacity:1"/><stop offset="0.99" style="stop-color:rgb(58,176,186);stop-opacity:1"/><stop offset="1" style="stop-color:rgb(58,176,186);stop-opacity:1"/></linearGradient>
        <linearGradient id="_Linear13" x1="0" y1="0" x2="1" y2="0" gradientUnits="userSpaceOnUse" gradientTransform="matrix(10.1895,10.9844,-10.9844,10.1895,42.6636,50.332)"><stop offset="0" style="stop-color:rgb(50,160,170);stop-opacity:1"/><stop offset="0.5" style="stop-color:rgb(52,164,174);stop-opacity:1"/><stop offset="0.99" style="stop-color:rgb(58,176,186);stop-opacity:1"/><stop offset="1" style="stop-color:rgb(58,176,186);stop-opacity:1"/></linearGradient>
        <linearGradient id="_Linear14" x1="0" y1="0" x2="1" y2="0" gradientUnits="userSpaceOnUse" gradientTransform="matrix(-7.7196,9.3493,-9.3493,-7.7196,22.0361,50.8416)"><stop offset="0" style="stop-color:rgb(224,71,56);stop-opacity:1"/><stop offset="0.5" style="stop-color:rgb(228,73,58);stop-opacity:1"/><stop offset="0.99" style="stop-color:rgb(240,80,65);stop-opacity:1"/><stop offset="1" style="stop-color:rgb(240,80,65);stop-opacity:1"/></linearGradient>
        <linearGradient id="_Linear15" x1="0" y1="0" x2="1" y2="0" gradientUnits="userSpaceOnUse" gradientTransform="matrix(-1.6597,-32.1661,32.1661,-1.6597,22.7295,60.0579)"><stop offset="0" style="stop-color:rgb(245,248,252);stop-opacity:1"/><stop offset="0.89" style="stop-color:rgb(239,242,246);stop-opacity:1"/><stop offset="1" style="stop-color:rgb(238,241,245);stop-opacity:1"/></linearGradient>
        <linearGradient id="_Linear16" x1="0" y1="0" x2="1" y2="0" gradientUnits="userSpaceOnUse" gradientTransform="matrix(-1.379,-26.7252,26.7252,-1.379,43.0499,56.5736)"><stop offset="0" style="stop-color:rgb(245,248,252);stop-opacity:1"/><stop offset="0.89" style="stop-color:rgb(239,242,246);stop-opacity:1"/><stop offset="1" style="stop-color:rgb(238,241,245);stop-opacity:1"/></linearGradient>
        <linearGradient id="_Linear17" x1="0" y1="0" x2="1" y2="0" gradientUnits="userSpaceOnUse" gradientTransform="matrix(1.6152,6.8426,-6.8426,1.6152,31.0805,38.5115)"><stop offset="0" style="stop-color:rgb(219,167,121);stop-opacity:1"/><stop offset="0.48" style="stop-color:rgb(228,181,134);stop-opacity:1"/><stop offset="1" style="stop-color:rgb(240,201,153);stop-opacity:1"/></linearGradient>
        <linearGradient id="_Linear18" x1="0" y1="0" x2="1" y2="0" gradientUnits="userSpaceOnUse" gradientTransform="matrix(-1.6886,7.4826,-7.4826,-1.6886,47.753,25.3041)"><stop offset="0" style="stop-color:rgb(219,167,121);stop-opacity:1"/><stop offset="0.23" style="stop-color:rgb(226,179,132);stop-opacity:1"/><stop offset="0.67" style="stop-color:rgb(236,195,147);stop-opacity:1"/><stop offset="1" style="stop-color:rgb(240,201,153);stop-opacity:1"/></linearGradient>
        <linearGradient id="_Linear19" x1="0" y1="0" x2="1" y2="0" gradientUnits="userSpaceOnUse" gradientTransform="matrix(1.6877,8.7692,-8.7692,1.6877,16.1548,25.1387)"><stop offset="0" style="stop-color:rgb(219,167,121);stop-opacity:1"/><stop offset="0.23" style="stop-color:rgb(226,179,132);stop-opacity:1"/><stop offset="0.67" style="stop-color:rgb(236,195,147);stop-opacity:1"/><stop offset="1" style="stop-color:rgb(240,201,153);stop-opacity:1"/></linearGradient>
        <linearGradient id="_Linear20" x1="0" y1="0" x2="1" y2="0" gradientUnits="userSpaceOnUse" gradientTransform="matrix(5.36163e-16,-8.7562,8.7562,5.36163e-16,40.0813,29.2188)"><stop offset="0" style="stop-color:rgb(247,217,171);stop-opacity:1"/><stop offset="0.52" style="stop-color:rgb(246,215,168);stop-opacity:1"/><stop offset="0.85" style="stop-color:rgb(243,207,160);stop-opacity:1"/><stop offset="1" style="stop-color:rgb(240,201,153);stop-opacity:1"/></linearGradient>
        <radialGradient id="_Radial21" cx="0" cy="0" r="1" gradientUnits="userSpaceOnUse" gradientTransform="matrix(5.15608,0,0,5.15608,41.5731,30.405)"><stop offset="0" style="stop-color:rgb(249,181,142);stop-opacity:1"/><stop offset="0.56" style="stop-color:rgb(248,200,157);stop-opacity:1"/><stop offset="1" style="stop-color:rgb(247,217,171);stop-opacity:1"/></radialGradient>
        <linearGradient id="_Linear22" x1="0" y1="0" x2="1" y2="0" gradientUnits="userSpaceOnUse" gradientTransform="matrix(0.0565,-9.9955,9.9955,0.0565,24.2741,29.6685)"><stop offset="0" style="stop-color:rgb(247,217,171);stop-opacity:1"/><stop offset="0.52" style="stop-color:rgb(246,215,168);stop-opacity:1"/><stop offset="0.85" style="stop-color:rgb(243,207,160);stop-opacity:1"/><stop offset="1" style="stop-color:rgb(240,201,153);stop-opacity:1"/></linearGradient>
        <radialGradient id="_Radial23" cx="0" cy="0" r="1" gradientUnits="userSpaceOnUse" gradientTransform="matrix(4.82038,0,0,4.82038,21.984,30.5864)"><stop offset="0" style="stop-color:rgb(249,181,142);stop-opacity:1"/><stop offset="0.56" style="stop-color:rgb(248,200,157);stop-opacity:1"/><stop offset="1" style="stop-color:rgb(247,217,171);stop-opacity:1"/></radialGradient>
        <linearGradient id="_Linear24" x1="0" y1="0" x2="1" y2="0" gradientUnits="userSpaceOnUse" gradientTransform="matrix(2.7928,0,0,2.7928,42.0816,28.0814)"><stop offset="0" style="stop-color:rgb(255,222,179);stop-opacity:1"/><stop offset="1" style="stop-color:rgb(247,217,171);stop-opacity:1"/></linearGradient>
        <linearGradient id="_Linear25" x1="0" y1="0" x2="1" y2="0" gradientUnits="userSpaceOnUse" gradientTransform="matrix(2.7955,0,0,2.7955,18.9406,28.3675)"><stop offset="0" style="stop-color:rgb(255,222,179);stop-opacity:1"/><stop offset="1" style="stop-color:rgb(247,217,171);stop-opacity:1"/></linearGradient>
        <linearGradient id="_Linear26" x1="0" y1="0" x2="1" y2="0" gradientUnits="userSpaceOnUse" gradientTransform="matrix(-2.1089,40.1499,-40.1499,-2.1089,33.6512,-9.00132)"><stop offset="0" style="stop-color:rgb(247,217,171);stop-opacity:1"/><stop offset="0.48" style="stop-color:rgb(243,207,160);stop-opacity:1"/><stop offset="1" style="stop-color:rgb(240,201,153);stop-opacity:1"/></linearGradient>
        <linearGradient id="_Linear27" x1="0" y1="0" x2="1" y2="0" gradientUnits="userSpaceOnUse" gradientTransform="matrix(5.0728,0,0,5.0728,28.851,40.2616)"><stop offset="0" style="stop-color:rgb(255,222,179);stop-opacity:1"/><stop offset="0.68" style="stop-color:rgb(252,220,176);stop-opacity:1"/><stop offset="1" style="stop-color:rgb(247,217,171);stop-opacity:1"/></linearGradient>
        <linearGradient id="_Linear28" x1="0" y1="0" x2="1" y2="0" gradientUnits="userSpaceOnUse" gradientTransform="matrix(8.9502,0,0,8.9502,37.5331,33.0383)"><stop offset="0" style="stop-color:rgb(255,222,179);stop-opacity:1"/><stop offset="0.68" style="stop-color:rgb(252,220,176);stop-opacity:1"/><stop offset="1" style="stop-color:rgb(247,217,171);stop-opacity:1"/></linearGradient>
        <linearGradient id="_Linear29" x1="0" y1="0" x2="1" y2="0" gradientUnits="userSpaceOnUse" gradientTransform="matrix(-9.0762,0.605,-0.605,-9.0762,44.3054,19.5568)"><stop offset="0" style="stop-color:rgb(81,17,3);stop-opacity:1"/><stop offset="0.23" style="stop-color:rgb(81,17,3);stop-opacity:1"/><stop offset="1" style="stop-color:rgb(144,48,8);stop-opacity:1"/></linearGradient>
        <linearGradient id="_Linear30" x1="0" y1="0" x2="1" y2="0" gradientUnits="userSpaceOnUse" gradientTransform="matrix(8.8781,-0.2691,0.2691,8.8781,19.167,20.2055)"><stop offset="0" style="stop-color:rgb(81,17,3);stop-opacity:1"/><stop offset="0.23" style="stop-color:rgb(81,17,3);stop-opacity:1"/><stop offset="1" style="stop-color:rgb(144,48,8);stop-opacity:1"/></linearGradient>
        <linearGradient id="_Linear31" x1="0" y1="0" x2="1" y2="0" gradientUnits="userSpaceOnUse" gradientTransform="matrix(-7.6143,2.957,-2.957,-7.6143,42.6221,23.3185)"><stop offset="0" style="stop-color:rgb(219,167,121);stop-opacity:1"/><stop offset="0.48" style="stop-color:rgb(228,181,134);stop-opacity:1"/><stop offset="1" style="stop-color:rgb(240,201,153);stop-opacity:1"/></linearGradient>
        <linearGradient id="_Linear32" x1="0" y1="0" x2="1" y2="0" gradientUnits="userSpaceOnUse" gradientTransform="matrix(7.6956,0,0,7.6956,20.1357,24.6015)"><stop offset="0" style="stop-color:rgb(219,167,121);stop-opacity:1"/><stop offset="0.48" style="stop-color:rgb(228,181,134);stop-opacity:1"/><stop offset="1" style="stop-color:rgb(240,201,153);stop-opacity:1"/></linearGradient>
        <linearGradient id="_Linear33" x1="0" y1="0" x2="1" y2="0" gradientUnits="userSpaceOnUse" gradientTransform="matrix(-5.183,-1.0798,1.0798,-5.183,41.5416,25.5239)"><stop offset="0" style="stop-color:rgb(237,233,233);stop-opacity:1"/><stop offset="0.01" style="stop-color:rgb(237,233,233);stop-opacity:1"/><stop offset="0.01" style="stop-color:rgb(237,233,233);stop-opacity:1"/><stop offset="0.28" style="stop-color:rgb(250,249,249);stop-opacity:1"/><stop offset="0.5" style="stop-color:white;stop-opacity:1"/><stop offset="0.7" style="stop-color:rgb(251,250,250);stop-opacity:1"/><stop offset="0.94" style="stop-color:rgb(240,236,236);stop-opacity:1"/><stop offset="1" style="stop-color:rgb(236,231,231);stop-opacity:1"/></linearGradient>
        <linearGradient id="_Linear34" x1="0" y1="0" x2="1" y2="0" gradientUnits="userSpaceOnUse" gradientTransform="matrix(-6.4788,-2.5483,2.5483,-6.4788,41.9318,26.8148)"><stop offset="0" style="stop-color:rgb(221,221,218);stop-opacity:1"/><stop offset="1" style="stop-color:rgb(164,165,157);stop-opacity:1"/></linearGradient>
        <linearGradient id="_Linear35" x1="0" y1="0" x2="1" y2="0" gradientUnits="userSpaceOnUse" gradientTransform="matrix(-2.6945,-4.5041,4.5041,-2.6945,41.9738,29.9338)"><stop offset="0" style="stop-color:rgb(221,221,218);stop-opacity:1"/><stop offset="1" style="stop-color:rgb(164,165,157);stop-opacity:1"/></linearGradient>
        <radialGradient id="_Radial36" cx="0" cy="0" r="1" gradientUnits="userSpaceOnUse" gradientTransform="matrix(2.98546,0,0,2.98546,39.7534,25.465)"><stop offset="0" style="stop-color:rgb(42,58,59);stop-opacity:1"/><stop offset="1" style="stop-color:rgb(28,39,39);stop-opacity:1"/></radialGradient>
        <linearGradient id="_Linear37" x1="0" y1="0" x2="1" y2="0" gradientUnits="userSpaceOnUse" gradientTransform="matrix(8.5675,0,0,8.5675,38.2863,24.762)"><stop offset="0" style="stop-color:rgb(81,17,3);stop-opacity:1"/><stop offset="0.56" style="stop-color:rgb(81,17,3);stop-opacity:1"/><stop offset="1" style="stop-color:rgb(144,48,8);stop-opacity:1"/></linearGradient>
        <linearGradient id="_Linear38" x1="0" y1="0" x2="1" y2="0" gradientUnits="userSpaceOnUse" gradientTransform="matrix(-5.8453,-3.4266,3.4266,-5.8453,28.2006,27.3355)"><stop offset="0" style="stop-color:rgb(237,233,233);stop-opacity:1"/><stop offset="0.01" style="stop-color:rgb(237,233,233);stop-opacity:1"/><stop offset="0.01" style="stop-color:rgb(237,233,233);stop-opacity:1"/><stop offset="0.28" style="stop-color:rgb(250,249,249);stop-opacity:1"/><stop offset="0.5" style="stop-color:white;stop-opacity:1"/><stop offset="0.7" style="stop-color:rgb(251,250,250);stop-opacity:1"/><stop offset="0.94" style="stop-color:rgb(240,236,236);stop-opacity:1"/><stop offset="1" style="stop-color:rgb(236,231,231);stop-opacity:1"/></linearGradient>
        <linearGradient id="_Linear39" x1="0" y1="0" x2="1" y2="0" gradientUnits="userSpaceOnUse" gradientTransform="matrix(-5.8165,-4.9527,4.9527,-5.8165,27.1147,27.4332)"><stop offset="0" style="stop-color:rgb(221,221,218);stop-opacity:1"/><stop offset="1" style="stop-color:rgb(164,165,157);stop-opacity:1"/></linearGradient>
        <linearGradient id="_Linear40" x1="0" y1="0" x2="1" y2="0" gradientUnits="userSpaceOnUse" gradientTransform="matrix(-2.976,-4.1825,4.1825,-2.976,27.8686,28.9189)"><stop offset="0" style="stop-color:rgb(221,221,218);stop-opacity:1"/><stop offset="1" style="stop-color:rgb(164,165,157);stop-opacity:1"/></linearGradient>
        <radialGradient id="_Radial41" cx="0" cy="0" r="1" gradientUnits="userSpaceOnUse" gradientTransform="matrix(2.98557,0,0,2.98557,25.604,25.5711)"><stop offset="0" style="stop-color:rgb(42,58,59);stop-opacity:1"/><stop offset="1" style="stop-color:rgb(28,39,39);stop-opacity:1"/></radialGradient>
        <linearGradient id="_Linear42" x1="0" y1="0" x2="1" y2="0" gradientUnits="userSpaceOnUse" gradientTransform="matrix(8.5981,0,0,8.5981,24.1747,24.8827)"><stop offset="0" style="stop-color:rgb(81,17,3);stop-opacity:1"/><stop offset="0.56" style="stop-color:rgb(81,17,3);stop-opacity:1"/><stop offset="1" style="stop-color:rgb(144,48,8);stop-opacity:1"/></linearGradient>
        <linearGradient id="_Linear43" x1="0" y1="0" x2="1" y2="0" gradientUnits="userSpaceOnUse" gradientTransform="matrix(-7.2134,6.3531,-6.3531,-7.2134,38.8743,21.5992)"><stop offset="0" style="stop-color:rgb(219,167,121);stop-opacity:1"/><stop offset="0.48" style="stop-color:rgb(228,181,134);stop-opacity:1"/><stop offset="1" style="stop-color:rgb(240,201,153);stop-opacity:1"/></linearGradient>
        <linearGradient id="_Linear44" x1="0" y1="0" x2="1" y2="0" gradientUnits="userSpaceOnUse" gradientTransform="matrix(4.3138,3.0482,-3.0482,4.3138,25.6221,22.0642)"><stop offset="0" style="stop-color:rgb(219,167,121);stop-opacity:1"/><stop offset="0.48" style="stop-color:rgb(228,181,134);stop-opacity:1"/><stop offset="1" style="stop-color:rgb(240,201,153);stop-opacity:1"/></linearGradient>
        <linearGradient id="_Linear45" x1="0" y1="0" x2="1" y2="0" gradientUnits="userSpaceOnUse" gradientTransform="matrix(-0.019,-2.1009,2.1009,-0.019,32.0607,33.5495)"><stop offset="0" style="stop-color:rgb(247,217,171);stop-opacity:1"/><stop offset="0.52" style="stop-color:rgb(246,215,168);stop-opacity:1"/><stop offset="0.85" style="stop-color:rgb(243,207,160);stop-opacity:1"/><stop offset="1" style="stop-color:rgb(240,201,153);stop-opacity:1"/></linearGradient>
        <linearGradient id="_Linear46" x1="0" y1="0" x2="1" y2="0" gradientUnits="userSpaceOnUse" gradientTransform="matrix(-1.7299,-4.4643,4.4643,-1.7299,32.6916,31.5461)"><stop offset="0" style="stop-color:rgb(255,222,179);stop-opacity:1"/><stop offset="1" style="stop-color:rgb(247,217,171);stop-opacity:1"/></linearGradient>
        <linearGradient id="_Linear47" x1="0" y1="0" x2="1" y2="0" gradientUnits="userSpaceOnUse" gradientTransform="matrix(-1.6701,0.8268,-0.8268,-1.6701,34.6757,31.2189)"><stop offset="0" style="stop-color:rgb(219,167,121);stop-opacity:1"/><stop offset="0.48" style="stop-color:rgb(228,181,134);stop-opacity:1"/><stop offset="1" style="stop-color:rgb(240,201,153);stop-opacity:1"/></linearGradient>
        <linearGradient id="_Linear48" x1="0" y1="0" x2="1" y2="0" gradientUnits="userSpaceOnUse" gradientTransform="matrix(1.7989,0.7329,-0.7329,1.7989,29.4882,31.1911)"><stop offset="0" style="stop-color:rgb(219,167,121);stop-opacity:1"/><stop offset="0.48" style="stop-color:rgb(228,181,134);stop-opacity:1"/><stop offset="1" style="stop-color:rgb(240,201,153);stop-opacity:1"/></linearGradient>
        <linearGradient id="_Linear49" x1="0" y1="0" x2="1" y2="0" gradientUnits="userSpaceOnUse" gradientTransform="matrix(-1.7378,-1.4399,1.4399,-1.7378,27.6241,35.6666)"><stop offset="0" style="stop-color:rgb(247,217,171);stop-opacity:1"/><stop offset="0.52" style="stop-color:rgb(246,215,168);stop-opacity:1"/><stop offset="0.85" style="stop-color:rgb(243,207,160);stop-opacity:1"/><stop offset="1" style="stop-color:rgb(240,201,153);stop-opacity:1"/></linearGradient>
        <linearGradient id="_Linear50" x1="0" y1="0" x2="1" y2="0" gradientUnits="userSpaceOnUse" gradientTransform="matrix(-1.2316,-0.6229,0.6229,-1.2316,38.6161,34.5067)"><stop offset="0" style="stop-color:rgb(247,217,171);stop-opacity:1"/><stop offset="0.52" style="stop-color:rgb(246,215,168);stop-opacity:1"/><stop offset="0.85" style="stop-color:rgb(243,207,160);stop-opacity:1"/><stop offset="1" style="stop-color:rgb(240,201,153);stop-opacity:1"/></linearGradient>
        <linearGradient id="_Linear51" x1="0" y1="0" x2="1" y2="0" gradientUnits="userSpaceOnUse" gradientTransform="matrix(7.7091,0,0,7.7091,28.175,35.8357)"><stop offset="0" style="stop-color:rgb(232,216,215);stop-opacity:1"/><stop offset="0.14" style="stop-color:rgb(240,229,228);stop-opacity:1"/><stop offset="0.39" style="stop-color:rgb(251,248,248);stop-opacity:1"/><stop offset="0.57" style="stop-color:white;stop-opacity:1"/><stop offset="1" style="stop-color:rgb(232,210,209);stop-opacity:1"/></linearGradient>
        <linearGradient id="_Linear52" x1="0" y1="0" x2="1" y2="0" gradientUnits="userSpaceOnUse" gradientTransform="matrix(12.1398,0,0,12.1398,25.6765,34.9452)"><stop offset="0" style="stop-color:rgb(232,216,215);stop-opacity:1"/><stop offset="0.04" style="stop-color:rgb(235,222,221);stop-opacity:1"/><stop offset="0.21" style="stop-color:rgb(246,240,240);stop-opacity:1"/><stop offset="0.38" style="stop-color:rgb(253,251,251);stop-opacity:1"/><stop offset="0.57" style="stop-color:white;stop-opacity:1"/><stop offset="0.69" style="stop-color:rgb(251,248,248);stop-opacity:1"/><stop offset="0.87" style="stop-color:rgb(241,228,227);stop-opacity:1"/><stop offset="1" style="stop-color:rgb(232,210,209);stop-opacity:1"/></linearGradient>
        <linearGradient id="_Linear53" x1="0" y1="0" x2="1" y2="0" gradientUnits="userSpaceOnUse" gradientTransform="matrix(8.8765,0,0,8.8765,27.9,36.311)"><stop offset="0" style="stop-color:rgb(249,110,126);stop-opacity:1"/><stop offset="0.03" style="stop-color:rgb(250,112,128);stop-opacity:1"/><stop offset="0.25" style="stop-color:rgb(254,122,134);stop-opacity:1"/><stop offset="0.53" style="stop-color:rgb(255,125,136);stop-opacity:1"/><stop offset="0.76" style="stop-color:rgb(253,121,133);stop-opacity:1"/><stop offset="1" style="stop-color:rgb(248,109,125);stop-opacity:1"/><stop offset="1" style="stop-color:rgb(248,109,125);stop-opacity:1"/></linearGradient>
        <linearGradient id="_Linear54" x1="0" y1="0" x2="1" y2="0" gradientUnits="userSpaceOnUse" gradientTransform="matrix(9.3983,0.0258,-0.0258,9.3983,27.3954,34.7303)"><stop offset="0" style="stop-color:rgb(232,216,215);stop-opacity:1"/><stop offset="0.05" style="stop-color:rgb(235,220,219);stop-opacity:1"/><stop offset="0.31" style="stop-color:rgb(247,239,239);stop-opacity:1"/><stop offset="0.48" style="stop-color:rgb(251,246,246);stop-opacity:1"/><stop offset="1" style="stop-color:rgb(232,210,209);stop-opacity:1"/></linearGradient>
        <linearGradient id="_Linear55" x1="0" y1="0" x2="1" y2="0" gradientUnits="userSpaceOnUse" gradientTransform="matrix(6.7277,0,0,6.7277,28.7104,34.3491)"><stop offset="0" style="stop-color:rgb(249,110,126);stop-opacity:1"/><stop offset="0.03" style="stop-color:rgb(250,112,128);stop-opacity:1"/><stop offset="0.25" style="stop-color:rgb(254,122,134);stop-opacity:1"/><stop offset="0.53" style="stop-color:rgb(255,125,136);stop-opacity:1"/><stop offset="0.76" style="stop-color:rgb(253,121,133);stop-opacity:1"/><stop offset="1" style="stop-color:rgb(248,109,125);stop-opacity:1"/><stop offset="1" style="stop-color:rgb(248,109,125);stop-opacity:1"/></linearGradient>
    </defs>
</svg>
