<?xml version="1.0" encoding="UTF-8" standalone="no"?>
<!DOCTYPE svg PUBLIC "-//W3C//DTD SVG 1.1//EN" "http://www.w3.org/Graphics/SVG/1.1/DTD/svg11.dtd">
<svg width="100%" height="100%" viewBox="0 0 40 40" version="1.1" xmlns="http://www.w3.org/2000/svg" xmlns:xlink="http://www.w3.org/1999/xlink" xml:space="preserve" xmlns:serif="http://www.serif.com/" style="fill-rule:evenodd;clip-rule:evenodd;stroke-linejoin:round;stroke-miterlimit:2;">
    <g>
        <path d="M13.5,27.154L11.559,30.041L27.903,30.009L25.674,27.122L13.5,27.154Z" style="fill:rgb(110,155,191);fill-rule:nonzero;"/>
        <path d="M13.564,29.48C12.906,30.378 9.57,31.356 9.57,31.356C9.57,31.356 14.863,36.97 20.413,37.066C25.946,37.146 29.122,30.715 29.122,30.715L25.594,29.063C22.017,32.303 13.564,29.48 13.564,29.48Z" style="fill:rgb(247,217,171);fill-rule:nonzero;"/>
        <path d="M37.045,43.065C37.96,38.895 38.938,34.564 38.938,34.564C37.511,33.521 27.903,30.009 27.903,30.009C27.903,30.009 26.588,35.943 19.851,36.328C13.115,36.697 11.976,30.33 11.976,30.33C11.976,30.33 3.491,34.275 2.48,34.692C2.721,37.13 2.561,40.611 2.416,43.097C7.196,46.802 13.195,49 19.723,49C26.251,49 32.25,46.786 37.045,43.065Z" style="fill:rgb(241,240,244);fill-rule:nonzero;"/>
        <path d="M32.972,40.515C30.646,38.189 26.476,39.472 19.996,39.295C13.5,39.119 11.094,38.349 6.94,40.803C5.624,41.573 5.047,43.225 5.352,45.086C9.57,47.572 14.478,48.999 19.723,48.999C24.84,48.999 29.636,47.636 33.79,45.262C34.239,43.225 33.822,41.365 32.972,40.515Z" style="fill:url(#_Linear1);fill-rule:nonzero;"/>
        <path d="M23.733,36.072L25.128,48.487C25.754,48.358 26.379,48.23 26.989,48.054L25.626,34.757L23.733,36.072Z" style="fill:url(#_Linear2);fill-rule:nonzero;"/>
        <path d="M41.665,38.558C41.328,37.5 40.943,36.65 40.478,36.024C40.478,36.024 38.73,39.665 37.302,42.873C38.906,41.59 40.382,40.146 41.665,38.558Z" style="fill:rgb(247,217,171);fill-rule:nonzero;"/>
        <path d="M18.312,33.811L20.252,36.136L22.001,33.41L19.675,34.581L18.312,33.811Z" style="fill:url(#_Linear3);fill-rule:nonzero;"/>
        <path d="M25.626,26.657C25.529,25.149 25.433,23.481 25.401,23.224C25.401,23.224 21.071,26.352 13.484,23.705C13.484,23.705 13.484,26.208 13.516,28.293C13.484,28.774 13.452,28.982 13.42,29.255C13.339,29.832 11.126,30.699 11.126,30.699C11.126,30.699 12.024,36.569 19.434,37.05C26.845,37.531 29.09,30.522 29.09,30.522C29.09,30.522 26.444,29.399 26.123,29.143C25.93,29.014 25.738,27.811 25.626,26.657ZM19.803,35.703C14.318,35.895 12.922,31.436 12.922,31.436C12.922,31.436 13.58,30.955 13.901,30.779C14.125,30.666 14.254,30.266 14.35,29.832C16.211,31.549 18.376,32.575 19.611,32.463C20.974,32.334 23.091,31.356 24.647,30.185L26.54,31.645C24.936,34.933 21.022,35.671 19.803,35.703Z" style="fill:url(#_Linear4);fill-rule:nonzero;"/>
        <path d="M19.883,36.152C13.355,36.441 11.976,30.314 11.976,30.314L10.067,30.763C10.067,30.763 11.126,37.869 19.113,38.35C27.101,38.831 29.571,30.619 29.571,30.619L27.903,29.993C27.903,30.009 26.476,35.88 19.883,36.152Z" style="fill:url(#_Linear5);fill-rule:nonzero;"/>
        <path d="M12.361,35.078L12.008,47.941C12.938,48.198 13.901,48.423 14.879,48.583L15.521,36.842L12.361,35.078Z" style="fill:url(#_Linear6);fill-rule:nonzero;"/>
        <path d="M37.35,33.682L29.202,30.362L29.138,34.484L24.727,37.355C24.727,37.355 25.962,44.461 26.524,48.166C30.421,47.203 33.998,45.439 37.078,43.049L37.35,33.682Z" style="fill:rgb(194,214,232);fill-rule:nonzero;"/>
        <path d="M28.272,29.865L29.315,47.332C30.582,46.867 31.817,46.321 32.988,45.696L31.977,31.501L28.272,29.865Z" style="fill:rgb(147,180,207);fill-rule:nonzero;"/>
        <path d="M41.713,38.51C41.441,37.628 41.136,36.874 40.815,36.329C39.532,34.099 34.351,32.591 34.351,32.591L34.848,44.621C37.463,42.953 39.772,40.9 41.713,38.51Z" style="fill:rgb(194,214,232);fill-rule:nonzero;"/>
        <path d="M34.528,32.527C33.902,32.527 27.727,32.559 27.727,32.559C27.422,33.666 26.636,34.468 26.011,35.414C25.85,35.992 25.546,36.489 25.145,36.938C33.004,36.954 39.628,36.954 41.168,36.986C40.51,34.484 35.731,33.009 34.528,32.527Z" style="fill:rgb(147,180,207);fill-rule:nonzero;"/>
        <path d="M40.366,40.05L39.837,35.142L35.201,32.896L36.34,43.61C37.783,42.552 39.131,41.365 40.366,40.05Z" style="fill:rgb(147,180,207);fill-rule:nonzero;"/>
        <path d="M24.727,37.355L28.048,36.312L31.977,36.97L28.048,34.805L24.727,37.355Z" style="fill:url(#_Linear7);fill-rule:nonzero;"/>
        <path d="M28.352,32.543L28.689,36.954L32.378,36.97L32.057,32.543L28.352,32.543Z" style="fill:rgb(106,149,183);fill-rule:nonzero;"/>
        <path d="M39.821,35.142C38.361,33.778 35.185,32.784 35.185,32.784L35.618,36.97L40.013,36.986L39.821,35.142Z" style="fill:rgb(106,149,183);fill-rule:nonzero;"/>
        <path d="M25.674,27.122C25.674,27.122 27.534,33.458 27.037,33.987C26.54,34.516 24.727,37.355 24.727,37.355L28.176,35.495L31.993,36.97C31.993,36.97 31.688,36.345 30.437,32.142C29.17,27.956 25.674,27.122 25.674,27.122Z" style="fill:rgb(147,180,207);fill-rule:nonzero;"/>
        <path d="M27.518,33.57L24.727,37.339L28.176,35.479C28.176,35.479 28.882,33.923 28.962,33.025C29.058,32.126 25.674,27.106 25.674,27.106L27.518,33.57Z" style="fill:url(#_Linear8);fill-rule:nonzero;"/>
        <path d="M27.117,33.746C27.101,33.842 25.16,36.633 24.727,37.354C25.048,37.002 27.454,34.179 27.663,33.762C27.871,33.344 25.674,27.137 25.674,27.137C25.674,27.137 27.23,33.136 27.117,33.746Z" style="fill:url(#_Linear9);fill-rule:nonzero;"/>
        <path d="M24.727,37.355C24.727,37.355 25.353,42.231 26.043,48.294C26.219,48.262 26.379,48.214 26.556,48.166C25.834,42.263 25.144,37.227 25.144,37.227L24.727,37.355Z" style="fill:url(#_Linear10);fill-rule:nonzero;"/>
        <path d="M27.662,47.861C27.759,47.829 27.855,47.813 27.951,47.781C27.213,42.584 26.491,37.612 26.491,37.612C26.491,37.612 27.053,42.616 27.662,47.861Z" style="fill:rgb(106,149,183);fill-rule:nonzero;"/>
        <path d="M10.949,34.372L11.27,30.233L2.48,34.692L4.935,44.829C7.693,46.514 10.757,47.749 14.029,48.422C14.189,45.471 14.526,37.884 14.526,37.884L10.949,34.372Z" style="fill:rgb(194,214,232);fill-rule:nonzero;"/>
        <path d="M7.485,32.158L6.988,45.968C8.383,46.674 9.859,47.267 11.366,47.733L12.008,29.816L7.485,32.158Z" style="fill:rgb(147,180,207);fill-rule:nonzero;"/>
        <path d="M0.251,36.617C-0.198,37.403 -0.631,38.606 -1,39.985C1.069,42.199 3.475,44.075 6.138,45.535L6.715,32.543C6.715,32.543 1.534,34.404 0.251,36.617Z" style="fill:rgb(194,214,232);fill-rule:nonzero;"/>
        <path d="M6.859,32.463C4.309,33.473 0.973,35.013 0.01,36.906C2.577,36.922 7.806,36.906 13.435,36.922C12.409,35.783 11.206,34.131 11.206,32.511C11.238,32.511 9.137,32.479 6.859,32.463Z" style="fill:rgb(147,180,207);fill-rule:nonzero;"/>
        <path d="M1.695,35.046C0.973,35.575 0.123,36.425 -0.278,37.58C-0.519,38.302 -0.775,39.168 -1,39.986C0.123,41.189 1.326,42.279 2.641,43.274L2.962,34.468C2.962,34.452 2.384,34.532 1.695,35.046Z" style="fill:rgb(147,180,207);fill-rule:nonzero;"/>
        <path d="M0.026,36.906L2.865,36.922L2.946,34.292C1.823,34.837 0.668,35.671 0.026,36.906Z" style="fill:rgb(106,149,183);fill-rule:nonzero;"/>
        <path d="M7.261,37.499C7.261,37.499 10.597,36.922 10.741,36.922C10.902,36.922 14.51,37.884 14.51,37.884L9.49,32.463L7.261,37.499Z" style="fill:url(#_Linear11);fill-rule:nonzero;"/>
        <path d="M7.309,36.922L11.752,36.938L11.848,32.495L7.469,32.479L7.309,36.922Z" style="fill:rgb(106,149,183);fill-rule:nonzero;"/>
        <path d="M13.5,27.154C13.5,27.154 10.067,28.47 8.832,32.672C7.581,36.874 7.276,37.5 7.276,37.5L11.094,36.024L14.542,37.885C14.542,37.885 12.714,34.533 12.233,33.987C11.719,33.458 13.5,27.154 13.5,27.154Z" style="fill:rgb(147,180,207);fill-rule:nonzero;"/>
        <path d="M13.5,27.154C13.5,27.154 10.035,32.511 10.132,33.409C10.228,34.307 11.078,36.024 11.078,36.024L14.526,37.884L11.848,33.65L13.5,27.154Z" style="fill:url(#_Linear12);fill-rule:nonzero;"/>
        <path d="M12.633,30.699C12.714,30.346 13.5,27.154 13.5,27.154C13.5,27.154 11.431,33.201 11.495,33.698C11.575,34.195 14.526,37.884 14.526,37.884C14.526,37.884 12.216,33.987 12.136,33.762C12.056,33.522 12.553,31.051 12.633,30.699Z" style="fill:url(#_Linear13);fill-rule:nonzero;"/>
        <path d="M14.061,37.708L13.532,48.326C13.692,48.358 13.852,48.406 14.029,48.438L14.542,37.901L14.061,37.708Z" style="fill:url(#_Linear14);fill-rule:nonzero;"/>
        <path d="M11.816,47.877C11.896,47.893 11.96,47.925 12.04,47.941C12.153,44.557 12.249,41.269 12.281,38.205L11.816,47.877Z" style="fill:url(#_Linear15);fill-rule:nonzero;"/>
        <path d="M19.787,26.929C18.937,26.929 16.804,27.507 16.868,27.827C17.06,28.774 19.033,28.934 19.883,28.918C20.733,28.918 22.45,28.694 22.498,27.892C22.498,27.571 20.637,26.929 19.787,26.929Z" style="fill:url(#_Linear16);fill-rule:nonzero;"/>
        <path d="M8.383,14.659C7.228,14.867 7.485,15.653 7.982,17.017C8.463,20.658 9.41,21.38 9.811,21.155C10.549,20.77 9.779,14.402 8.383,14.659Z" style="fill:rgb(240,201,153);fill-rule:nonzero;"/>
        <path d="M8.993,17.883C9.506,14.868 7.646,14.563 7.998,16.664C7.998,16.664 8.287,15.701 8.512,16.006C8.784,16.375 8.191,16.552 8.432,18.124C8.56,18.942 9.298,19.84 9.298,19.84C9.298,19.84 8.784,19.166 8.993,17.883Z" style="fill:url(#_Linear17);fill-rule:nonzero;"/>
        <path d="M30.021,14.627C28.625,14.435 28.224,20.819 28.962,21.188C29.379,21.396 30.261,20.626 30.55,16.969C30.983,15.59 31.192,14.788 30.021,14.627Z" style="fill:rgb(240,201,153);fill-rule:nonzero;"/>
        <path d="M29.604,17.884C29.892,19.151 29.395,19.857 29.395,19.857C29.395,19.857 30.085,18.926 30.165,18.092C30.325,16.504 29.716,16.36 29.972,15.975C30.181,15.654 30.518,16.616 30.518,16.616C30.758,14.499 28.93,14.884 29.604,17.884Z" style="fill:url(#_Linear18);fill-rule:nonzero;"/>
        <path d="M25.69,4.699C24.166,2.919 22.161,1.315 18.071,1.411C18.071,1.411 12.746,1.603 11.415,4.523C9.987,7.65 9.442,11.917 9.538,15.943C9.666,20.819 9.923,22.118 10.34,23.144C10.533,23.626 10.869,24.283 11.816,25.037C13.339,26.24 15.168,28.63 16.371,29.993C16.788,30.474 22.594,30.314 23.284,29.833C24.391,29.063 25.754,26.85 27.422,25.197C28.16,24.46 28.641,23.273 28.641,22.663C28.641,21.974 28.978,19.343 28.978,18.83C29.058,16.071 29.01,16.841 29.106,14.451C29.459,5.886 26.444,5.565 25.69,4.699Z" style="fill:rgb(247,217,171);fill-rule:nonzero;"/>
        <path d="M24.952,22.551C26.636,22.663 28.593,22.84 28.946,19.343C29.154,17.354 28.85,15.927 28.016,15.766C26.251,15.429 23.717,16.215 22.658,16.761C20.445,17.932 21.969,22.359 24.952,22.551Z" style="fill:url(#_Radial19);fill-rule:nonzero;"/>
        <path d="M15.633,16.6C15.152,16.423 11.479,15.589 10.388,15.91C9.763,16.087 9.538,17.578 9.65,18.91C9.698,19.551 9.747,20.497 9.891,20.898C10.597,22.871 13.724,22.952 15.264,22.39C17.927,21.46 18.087,17.482 15.633,16.6Z" style="fill:url(#_Radial20);fill-rule:nonzero;"/>
        <path d="M27.839,16.728C27.535,16.552 27.31,16.809 26.685,17.017C26.059,17.226 24.375,17.546 25.161,17.979C26.043,18.461 27.262,17.803 27.422,17.675C27.567,17.546 28.208,16.937 27.839,16.728Z" style="fill:url(#_Linear21);fill-rule:nonzero;"/>
        <path d="M11.8,17.081C11.158,16.905 10.917,16.664 10.629,16.857C10.26,17.081 10.95,17.659 11.094,17.771C11.254,17.883 12.505,18.477 13.355,17.947C14.141,17.482 12.441,17.258 11.8,17.081Z" style="fill:url(#_Linear22);fill-rule:nonzero;"/>
        <path d="M21.134,13.168C21.006,13.954 20.605,16.392 21.086,16.664C24.15,18.381 27.486,16.215 27.486,16.215C27.951,10.393 21.134,13.168 21.134,13.168Z" style="fill:url(#_Linear23);fill-rule:nonzero;"/>
        <path d="M11.302,16.279C11.302,16.279 14.542,18.332 17.67,16.423C18.151,16.135 17.574,14.114 17.446,13.328C17.462,13.328 10.998,10.601 11.302,16.279Z" style="fill:url(#_Linear24);fill-rule:nonzero;"/>
        <path d="M26.091,5.661C25.866,5.597 25.626,5.533 25.353,5.485C23.396,5.051 20.301,3.608 17.478,3.608C15.761,3.608 14.141,3.961 12.939,4.266C12.377,4.41 11.912,4.602 11.575,4.827C10.517,5.549 9.907,6.928 9.538,10.2C9.426,11.259 9.634,18.316 9.634,18.396C11.88,13.216 11.591,8.548 12.778,7.842C13.965,7.137 18.087,7.826 20.445,7.955C22.803,8.067 25.85,7.505 26.027,7.682C26.572,8.179 26.748,12.718 29.01,18.364C29.01,18.364 28.978,10.457 28.802,8.612C28.593,6.174 27.951,6.174 26.091,5.661Z" style="fill:url(#_Linear25);fill-rule:nonzero;"/>
        <path d="M24.15,14.001C22.594,14.066 21.744,14.386 21.584,14.98C21.503,15.301 21.231,16.183 21.423,16.407C21.84,16.873 23.605,16.985 24.711,16.905C26.187,16.808 26.925,16.167 26.909,15.99C26.909,15.814 26.508,14.82 26.107,14.435C25.77,14.114 24.663,13.969 24.15,14.001Z" style="fill:url(#_Linear26);fill-rule:nonzero;"/>
        <path d="M23.059,14.595C21.92,14.675 21.664,16.343 21.664,16.343C21.712,16.375 21.856,16.488 22.177,16.568C22.803,16.728 23.941,16.953 25.353,16.616C25.866,16.488 26.427,15.942 26.427,15.942C25.497,14.82 25.818,14.403 23.059,14.595Z" style="fill:url(#_Linear27);fill-rule:nonzero;"/>
        <path d="M25.096,14.755C24.214,14.835 22.61,14.659 21.664,16.327C21.664,16.327 22.354,15.734 24.711,15.734C25.289,15.734 25.706,15.942 26.155,16.167C26.299,16.054 26.379,15.99 26.444,15.926C26.444,15.926 25.978,14.675 25.096,14.755Z" style="fill:rgb(221,221,221);fill-rule:nonzero;"/>
        <path d="M23.925,14.915C23.171,14.867 22.466,15.236 22.498,16.022C22.514,16.327 22.674,16.648 22.706,16.68C22.834,16.728 23.54,16.792 23.909,16.808C24.31,16.824 24.872,16.728 25,16.68C25.192,16.471 25.208,16.263 25.24,16.102C25.337,15.348 24.679,14.947 23.925,14.915Z" style="fill:url(#_Linear28);fill-rule:nonzero;"/>
        <path d="M24.182,14.868C23.236,14.868 22.482,15.06 22.498,15.99C22.498,15.99 24.054,15.573 25.225,15.814C25.225,15.798 25.048,14.868 24.182,14.868Z" style="fill:url(#_Linear29);fill-rule:nonzero;"/>
        <path d="M23.909,15.14C23.444,15.124 23.059,15.477 23.059,15.926C23.043,16.375 23.412,16.744 23.877,16.76C24.342,16.776 24.727,16.423 24.727,15.974C24.743,15.525 24.374,15.156 23.909,15.14Z" style="fill:url(#_Radial30);fill-rule:nonzero;"/>
        <path d="M25.674,14.771C24.84,14.451 23.171,14.258 22.418,14.835C21.808,15.285 21.68,16.343 21.68,16.343C21.68,16.343 22.193,15.557 22.738,15.397C23.027,15.317 23.444,15.22 24.134,15.236C24.519,15.253 25.016,15.333 25.577,15.509C26.235,15.718 26.476,15.926 26.476,15.926C26.476,15.926 26.187,14.98 25.674,14.771Z" style="fill:url(#_Linear31);fill-rule:nonzero;"/>
        <path d="M24.727,15.782C24.535,15.814 24.391,15.99 24.407,16.183C24.423,16.375 24.599,16.52 24.808,16.504C25,16.488 25.144,16.295 25.128,16.103C25.096,15.894 24.92,15.75 24.727,15.782Z" style="fill:white;fill-rule:nonzero;"/>
        <path d="M23.941,15.445C23.781,15.461 23.669,15.605 23.685,15.766C23.701,15.926 23.845,16.038 24.005,16.022C24.166,16.006 24.278,15.862 24.262,15.701C24.23,15.541 24.086,15.429 23.941,15.445Z" style="fill:white;fill-rule:nonzero;"/>
        <path d="M14.623,13.937C14.109,13.905 13.003,14.034 12.65,14.354C12.233,14.723 11.832,15.718 11.832,15.894C11.832,16.071 12.538,16.728 14.029,16.841C15.136,16.921 16.9,16.841 17.317,16.375C17.526,16.151 17.253,15.269 17.173,14.948C17.013,14.354 16.179,14.034 14.623,13.937Z" style="fill:url(#_Linear32);fill-rule:nonzero;"/>
        <path d="M15.713,14.563C12.954,14.322 13.275,14.755 12.313,15.846C12.313,15.846 12.874,16.407 13.387,16.535C14.799,16.888 15.954,16.68 16.563,16.535C16.9,16.455 17.044,16.343 17.077,16.311C17.077,16.311 16.852,14.659 15.713,14.563Z" style="fill:url(#_Linear33);fill-rule:nonzero;"/>
        <path d="M13.66,14.691C12.778,14.595 12.313,15.846 12.313,15.846C12.377,15.926 12.457,15.99 12.602,16.102C13.051,15.894 13.468,15.685 14.045,15.685C16.387,15.701 17.077,16.311 17.077,16.311C16.146,14.643 14.558,14.803 13.66,14.691Z" style="fill:rgb(221,221,221);fill-rule:nonzero;"/>
        <path d="M14.831,14.867C14.077,14.899 13.42,15.284 13.5,16.054C13.516,16.215 13.548,16.423 13.724,16.632C13.869,16.68 14.414,16.776 14.815,16.76C15.184,16.76 15.89,16.696 16.018,16.648C16.05,16.616 16.211,16.295 16.227,15.99C16.291,15.204 15.585,14.819 14.831,14.867Z" style="fill:url(#_Linear34);fill-rule:nonzero;"/>
        <path d="M14.575,14.803C13.708,14.803 13.516,15.733 13.516,15.733C14.687,15.509 16.243,15.942 16.243,15.942C16.243,14.98 15.521,14.819 14.575,14.803Z" style="fill:url(#_Linear35);fill-rule:nonzero;"/>
        <path d="M14.847,15.092C14.382,15.092 14.013,15.477 14.029,15.926C14.029,16.375 14.414,16.728 14.879,16.728C15.344,16.712 15.713,16.343 15.697,15.894C15.681,15.429 15.296,15.076 14.847,15.092Z" style="fill:url(#_Radial36);fill-rule:nonzero;"/>
        <path d="M15.537,15.798C15.36,15.894 15.28,16.102 15.36,16.263C15.441,16.423 15.665,16.487 15.841,16.407C16.018,16.311 16.098,16.119 16.018,15.942C15.938,15.782 15.729,15.717 15.537,15.798Z" style="fill:white;fill-rule:nonzero;"/>
        <path d="M14.799,15.461C14.655,15.525 14.591,15.702 14.671,15.83C14.735,15.958 14.911,16.006 15.056,15.942C15.2,15.878 15.264,15.702 15.184,15.573C15.104,15.445 14.943,15.381 14.799,15.461Z" style="fill:white;fill-rule:nonzero;"/>
        <path d="M16.355,14.803C15.585,14.226 13.933,14.386 13.099,14.707C12.585,14.9 12.313,15.846 12.313,15.846C12.313,15.846 12.698,15.573 13.243,15.429C13.949,15.252 14.398,15.172 14.815,15.188C15.408,15.188 15.777,15.285 16.05,15.365C16.579,15.525 17.093,16.311 17.093,16.311C17.093,16.311 16.964,15.269 16.355,14.803Z" style="fill:url(#_Linear37);fill-rule:nonzero;"/>
        <path d="M17.221,12.831C16.034,12.365 14.719,12.173 13.532,12.414C12.634,12.59 11.928,13.681 11.928,13.681C11.928,13.681 12.489,13.248 13.869,13.2C15.056,13.151 16.066,13.697 17.077,13.697C17.606,13.697 17.67,13.007 17.221,12.831Z" style="fill:rgb(99,63,39);fill-rule:nonzero;"/>
        <path d="M28.705,5.228C29.347,4.843 29.651,4.154 29.635,4.138C29.363,3.881 21.038,-0.001 18.103,0.272C11.639,0.849 11.126,3.608 11.126,3.608C11.126,3.608 10.532,3.336 10.388,2.245C10.372,2.261 10.34,2.277 10.324,2.293C9.778,3.015 9.666,3.624 9.955,4.522C9.746,4.121 9.506,4.089 9.313,3.368C8.8,4.154 8.399,5.164 8.335,5.982C8.223,7.345 8.191,10.152 8.495,14.676C8.495,14.676 9.025,14.82 9.313,15.67C9.522,16.279 9.538,17.835 9.634,18.429C9.827,16.648 10.308,14.563 10.452,13.633C10.773,11.676 11.11,7.602 11.992,6.848C12.682,6.608 14.029,6.431 15.633,6.319C17.445,6.479 20.316,6.736 20.926,6.816C21.632,6.912 25.032,6.672 26.444,6.576C26.508,6.608 26.556,6.624 26.588,6.656C26.588,6.656 28.16,13.104 28.288,13.793C28.625,15.574 28.801,16.777 29.026,18.413C29.026,18.413 28.962,14.627 29.972,14.627C30.101,11.002 29.78,5.709 29.748,4.891C29.459,5.084 29.234,5.148 28.705,5.228Z" style="fill:rgb(53,53,53);fill-rule:nonzero;"/>
        <path d="M27.278,5.886C26.749,5.565 22.306,6.511 21.808,6.511C16.596,6.543 13.195,4.426 11.623,4.667C10.052,4.907 10.196,8.757 10.019,9.27C9.843,9.783 9.554,17.578 9.65,18.396C10.918,12.863 11.142,7.634 12.056,7.056C13.083,6.415 13.853,6.768 15.024,6.816C15.248,6.832 20.541,7.393 21.504,7.361C24.487,7.265 26.299,6.495 26.444,6.559C26.588,6.639 28.625,15.894 29.01,18.38C29.01,18.38 28.224,9.51 28.176,9.238C28.064,8.58 27.807,6.206 27.278,5.886Z" style="fill:rgb(12,11,11);fill-rule:nonzero;"/>
        <path d="M11.671,3.608C11.671,3.608 14.125,2.405 15.537,3.111C16.948,3.817 19.787,5.485 21.087,5.597C23.797,5.838 26.043,5.26 27.422,4.939C26.331,4.843 25.241,3.736 24.262,3.255C27.422,4.939 29.058,4.314 29.652,4.137C26.781,2.822 25.738,0.817 22.097,0.256C13.067,-1.14 11.671,3.608 11.671,3.608Z" style="fill:rgb(79,77,77);fill-rule:nonzero;"/>
        <path d="M23.701,22.438C23.701,22.438 24.792,22.182 24.888,22.101C24.984,22.021 25.065,21.749 25.065,21.749L24.375,21.957L23.701,22.438Z" style="fill:rgb(225,181,140);fill-rule:nonzero;"/>
        <path d="M13.789,21.829C13.789,21.829 13.869,22.102 13.965,22.182C14.061,22.262 15.152,22.519 15.152,22.519L14.478,22.038L13.789,21.829Z" style="fill:rgb(225,181,140);fill-rule:nonzero;"/>
        <path d="M17.221,26.593C20.124,26.272 22.081,26.625 22.081,26.625C19.884,25.261 17.221,26.593 17.221,26.593Z" style="fill:url(#_Linear38);fill-rule:nonzero;"/>
        <path d="M14.045,21.958C14.109,22.022 14.141,22.102 14.222,22.134C15.617,22.743 15.633,23.337 16.227,23.658C18.344,24.797 20.814,24.524 22.482,23.61C23.444,23.08 23.557,22.471 24.711,22.022C24.872,21.958 24.888,21.845 24.888,21.845C18.777,23.337 14.045,21.958 14.045,21.958Z" style="fill:rgb(150,40,45);fill-rule:nonzero;"/>
        <path d="M19.531,24.876C18.713,24.876 17.895,24.716 17.895,24.876C17.895,25.037 18.617,25.39 19.435,25.39C20.253,25.39 21.071,25.037 21.071,24.876C21.071,24.7 20.349,24.876 19.531,24.876Z" style="fill:rgb(253,221,179);fill-rule:nonzero;"/>
        <path d="M21.905,23.224C21.343,23.336 20.285,23.545 19.322,23.545C18.248,23.545 17.173,23.352 16.58,23.24C16.323,23.192 16.211,23.641 16.211,23.641C16.981,24.202 17.927,24.427 19.419,24.427C21.408,24.443 22.514,23.577 22.514,23.577C22.514,23.577 22.241,23.16 21.905,23.224Z" style="fill:url(#_Linear39);fill-rule:nonzero;"/>
        <path d="M16.483,25.085C19.659,27.619 22.707,24.909 22.707,24.909C19.499,26.625 16.483,25.085 16.483,25.085Z" style="fill:url(#_Linear40);fill-rule:nonzero;"/>
        <path d="M15.441,22.246C15.441,22.246 15.457,22.775 15.986,23C16.291,23.128 16.981,23.657 19.675,23.577C22.37,23.497 22.899,22.839 23.011,22.727C23.236,22.518 23.348,22.166 23.348,22.166C23.348,22.166 19.306,22.968 15.441,22.246Z" style="fill:url(#_Linear41);fill-rule:nonzero;"/>
        <path d="M15.425,22.198C15.425,22.198 15.441,22.439 15.537,22.583C15.617,22.695 17.766,23.016 19.386,23.016C21.006,23.032 23.124,22.615 23.204,22.519C23.316,22.374 23.38,22.118 23.38,22.118C23.38,22.118 21.552,22.727 15.425,22.198Z" style="fill:rgb(243,236,235);fill-rule:nonzero;"/>
        <path d="M13.725,21.797C13.725,21.797 14.11,22.021 14.061,21.957C14.061,21.957 18.793,23.337 24.904,21.845L25.241,21.685C21.905,22.23 13.725,21.797 13.725,21.797Z" style="fill:url(#_Linear42);fill-rule:nonzero;"/>
        <path d="M26.059,23.674C25.914,22.663 25.594,21.268 25.594,21.268C25.433,21.123 23.156,20.851 22.851,20.802C22.546,20.754 21.568,20.642 21.135,20.626C20.718,20.61 20.076,21.059 19.386,21.043C18.697,21.027 18.344,20.69 18.023,20.578C17.702,20.466 17.093,20.61 16.628,20.754C16.162,20.899 13.564,21.268 13.564,21.268C13.259,21.444 13.131,23.112 13.051,23.674C10.436,22.214 9.634,18.397 9.634,18.397C9.747,20.049 10.099,23.128 10.725,23.786C11.351,24.443 16.034,29.961 16.483,30.105C17.606,30.458 21.407,30.442 23.188,30.105C24.006,29.961 27.743,24.86 28.545,23.786C28.962,23.24 29.01,18.413 29.01,18.413C28.705,21.38 26.893,22.984 26.059,23.674ZM23.813,25.759C23.236,26.897 21.231,26.112 19.322,26.16C17.686,26.192 16.387,26.897 15.649,25.646C15.056,24.411 13.789,21.829 13.789,21.829C15.28,21.861 18.071,21.829 19.483,21.829C20.285,21.829 24.615,21.925 25.016,21.717C24.872,22.631 24.054,25.101 23.813,25.759Z" style="fill:url(#_Linear43);fill-rule:nonzero;"/>
        <path d="M24.118,29.352C24.519,28.886 28.481,24.572 28.705,23.465C28.866,22.711 29.026,18.397 29.026,18.397C28.834,20.097 28.818,21.492 27.518,23.321C24.599,27.475 25.048,27.86 24.118,29.352Z" style="fill:url(#_Linear44);fill-rule:nonzero;"/>
        <path d="M20.172,16.792C20.269,14.852 19.595,14.579 19.098,14.595C18.616,14.611 18.344,15.285 18.44,16.76C18.536,18.236 18.248,18.797 18.312,19.487C18.344,19.808 18.488,20 19.29,20.016C20.172,20.016 20.461,19.824 20.509,19.519C20.589,18.717 20.108,18.188 20.172,16.792Z" style="fill:url(#_Linear45);fill-rule:nonzero;"/>
        <path d="M20.269,20.561C21.456,20.273 21.921,20.449 21.921,20.449C21.231,19.84 20.269,20.561 20.269,20.561Z" style="fill:rgb(225,181,140);fill-rule:nonzero;"/>
        <path d="M16.916,20.353C16.916,20.353 17.526,20.257 18.456,20.562C18.456,20.578 17.558,19.888 16.916,20.353Z" style="fill:rgb(225,181,140);fill-rule:nonzero;"/>
        <path d="M21.183,18.588C21.183,19.07 21.295,19.39 21.135,19.679C20.814,20.289 19.948,20.545 19.387,20.497C18.953,20.545 17.943,20.337 17.526,19.695C17.35,19.439 17.462,19.198 17.382,18.685C17.382,18.685 16.211,20.096 16.916,20.369C16.916,20.369 17.125,20.208 17.686,20.273C18.248,20.321 18.135,20.946 19.435,20.962C20.573,20.978 20.205,20.433 20.926,20.321C21.648,20.224 21.744,20.401 21.905,20.481C22.258,20.449 22.001,19.262 21.183,18.588Z" style="fill:url(#_Linear46);fill-rule:nonzero;"/>
        <path d="M18.183,19.423C18.135,19.744 18.584,20.08 19.37,20.08C20.253,20.08 20.445,19.744 20.365,19.455C19.932,17.738 18.36,18.252 18.183,19.423Z" style="fill:url(#_Linear47);fill-rule:nonzero;"/>
        <path d="M25.321,12.382C24.054,12.077 22.658,12.269 21.423,12.751C20.958,12.927 21.071,13.681 21.616,13.681C22.658,13.681 23.974,13.119 24.968,13.119C26.412,13.136 26.989,13.569 26.989,13.569C26.989,13.569 26.251,12.606 25.321,12.382Z" style="fill:rgb(99,63,39);fill-rule:nonzero;"/>
        <path d="M11.671,23.337C9.843,21.637 9.634,18.397 9.634,18.397C9.65,18.862 9.698,19.343 9.747,19.984C9.843,21.396 9.987,22.904 10.26,23.481C10.42,23.834 12.329,25.63 12.618,26.015C13.003,26.529 15.906,29.576 15.906,29.576C15.056,28.373 14.815,26.272 11.671,23.337Z" style="fill:url(#_Linear48);fill-rule:nonzero;"/>
    </g>
    <defs>
        <linearGradient id="_Linear1" x1="0" y1="0" x2="1" y2="0" gradientUnits="userSpaceOnUse" gradientTransform="matrix(1.5222,-15.4506,15.4506,1.5222,18.9804,50.3465)"><stop offset="0" style="stop-color:rgb(241,240,244);stop-opacity:1"/><stop offset="0.64" style="stop-color:rgb(249,248,250);stop-opacity:1"/><stop offset="1" style="stop-color:white;stop-opacity:1"/></linearGradient>
        <linearGradient id="_Linear2" x1="0" y1="0" x2="1" y2="0" gradientUnits="userSpaceOnUse" gradientTransform="matrix(0.3765,-15.3502,15.3502,0.3765,25.2045,48.425)"><stop offset="0" style="stop-color:rgb(241,240,245);stop-opacity:1"/><stop offset="1" style="stop-color:rgb(225,225,229);stop-opacity:1"/></linearGradient>
        <linearGradient id="_Linear3" x1="0" y1="0" x2="1" y2="0" gradientUnits="userSpaceOnUse" gradientTransform="matrix(-3.1947,-0.4582,0.4582,-3.1947,21.9701,34.896)"><stop offset="0" style="stop-color:rgb(241,202,154);stop-opacity:1"/><stop offset="0.53" style="stop-color:rgb(242,204,157);stop-opacity:1"/><stop offset="0.87" style="stop-color:rgb(245,212,165);stop-opacity:1"/><stop offset="1" style="stop-color:rgb(247,217,171);stop-opacity:1"/></linearGradient>
        <linearGradient id="_Linear4" x1="0" y1="0" x2="1" y2="0" gradientUnits="userSpaceOnUse" gradientTransform="matrix(-17.549,8.009,-8.009,-17.549,28.621,25.4841)"><stop offset="0" style="stop-color:rgb(241,202,154);stop-opacity:1"/><stop offset="0.53" style="stop-color:rgb(242,204,157);stop-opacity:1"/><stop offset="0.87" style="stop-color:rgb(245,212,165);stop-opacity:1"/><stop offset="1" style="stop-color:rgb(247,217,171);stop-opacity:1"/></linearGradient>
        <linearGradient id="_Linear5" x1="0" y1="0" x2="1" y2="0" gradientUnits="userSpaceOnUse" gradientTransform="matrix(1.521,-62.0131,62.0131,1.521,18.3677,89.8441)"><stop offset="0" style="stop-color:rgb(241,240,245);stop-opacity:1"/><stop offset="1" style="stop-color:rgb(225,225,229);stop-opacity:1"/></linearGradient>
        <linearGradient id="_Linear6" x1="0" y1="0" x2="1" y2="0" gradientUnits="userSpaceOnUse" gradientTransform="matrix(0.3687,-15.0314,15.0314,0.3687,13.6231,48.4998)"><stop offset="0" style="stop-color:rgb(241,240,245);stop-opacity:1"/><stop offset="1" style="stop-color:rgb(225,225,229);stop-opacity:1"/></linearGradient>
        <linearGradient id="_Linear7" x1="0" y1="0" x2="1" y2="0" gradientUnits="userSpaceOnUse" gradientTransform="matrix(4.6147,-0.2593,0.2593,4.6147,25.5329,36.1432)"><stop offset="0" style="stop-color:rgb(127,170,206);stop-opacity:1"/><stop offset="0.47" style="stop-color:rgb(120,163,198);stop-opacity:1"/><stop offset="1" style="stop-color:rgb(106,149,183);stop-opacity:1"/></linearGradient>
        <linearGradient id="_Linear8" x1="0" y1="0" x2="1" y2="0" gradientUnits="userSpaceOnUse" gradientTransform="matrix(0.3457,-10.37,10.37,0.3457,26.7663,37.4997)"><stop offset="0" style="stop-color:rgb(194,214,232);stop-opacity:1"/><stop offset="0.27" style="stop-color:rgb(177,202,223);stop-opacity:1"/><stop offset="0.71" style="stop-color:rgb(155,186,211);stop-opacity:1"/><stop offset="1" style="stop-color:rgb(147,180,207);stop-opacity:1"/></linearGradient>
        <linearGradient id="_Linear9" x1="0" y1="0" x2="1" y2="0" gradientUnits="userSpaceOnUse" gradientTransform="matrix(-0.3915,-10.1318,10.1318,-0.3915,26.2695,37.4241)"><stop offset="0" style="stop-color:rgb(127,170,206);stop-opacity:1"/><stop offset="0.47" style="stop-color:rgb(120,163,198);stop-opacity:1"/><stop offset="1" style="stop-color:rgb(106,149,183);stop-opacity:1"/></linearGradient>
        <linearGradient id="_Linear10" x1="0" y1="0" x2="1" y2="0" gradientUnits="userSpaceOnUse" gradientTransform="matrix(0.2306,12.1324,-12.1324,0.2306,25.5349,37.389)"><stop offset="0" style="stop-color:rgb(127,170,206);stop-opacity:1"/><stop offset="0.47" style="stop-color:rgb(120,163,198);stop-opacity:1"/><stop offset="1" style="stop-color:rgb(106,149,183);stop-opacity:1"/></linearGradient>
        <linearGradient id="_Linear11" x1="0" y1="0" x2="1" y2="0" gradientUnits="userSpaceOnUse" gradientTransform="matrix(-9.51447,-1.5296,1.5296,-9.51447,14.6989,36.0011)"><stop offset="0" style="stop-color:rgb(127,170,206);stop-opacity:1"/><stop offset="0.47" style="stop-color:rgb(120,163,198);stop-opacity:1"/><stop offset="1" style="stop-color:rgb(106,149,183);stop-opacity:1"/></linearGradient>
        <linearGradient id="_Linear12" x1="0" y1="0" x2="1" y2="0" gradientUnits="userSpaceOnUse" gradientTransform="matrix(-0.2765,-11.2688,11.2688,-0.2765,12.3763,37.7741)"><stop offset="0" style="stop-color:rgb(194,214,232);stop-opacity:1"/><stop offset="0.27" style="stop-color:rgb(177,202,223);stop-opacity:1"/><stop offset="0.71" style="stop-color:rgb(155,186,211);stop-opacity:1"/><stop offset="1" style="stop-color:rgb(147,180,207);stop-opacity:1"/></linearGradient>
        <linearGradient id="_Linear13" x1="0" y1="0" x2="1" y2="0" gradientUnits="userSpaceOnUse" gradientTransform="matrix(-0.4137,-10.7044,10.7044,-0.4137,13.0996,38.078)"><stop offset="0" style="stop-color:rgb(127,170,206);stop-opacity:1"/><stop offset="0.47" style="stop-color:rgb(120,163,198);stop-opacity:1"/><stop offset="1" style="stop-color:rgb(106,149,183);stop-opacity:1"/></linearGradient>
        <linearGradient id="_Linear14" x1="0" y1="0" x2="1" y2="0" gradientUnits="userSpaceOnUse" gradientTransform="matrix(0.2236,11.7687,-11.7687,0.2236,13.9253,37.8163)"><stop offset="0" style="stop-color:rgb(127,170,206);stop-opacity:1"/><stop offset="0.47" style="stop-color:rgb(120,163,198);stop-opacity:1"/><stop offset="1" style="stop-color:rgb(106,149,183);stop-opacity:1"/></linearGradient>
        <linearGradient id="_Linear15" x1="0" y1="0" x2="1" y2="0" gradientUnits="userSpaceOnUse" gradientTransform="matrix(0.7608,13.694,-13.694,0.7608,11.7916,38.4902)"><stop offset="0" style="stop-color:rgb(106,149,183);stop-opacity:1"/><stop offset="0.2" style="stop-color:rgb(117,157,189);stop-opacity:1"/><stop offset="0.69" style="stop-color:rgb(139,174,202);stop-opacity:1"/><stop offset="1" style="stop-color:rgb(147,180,207);stop-opacity:1"/></linearGradient>
        <linearGradient id="_Linear16" x1="0" y1="0" x2="1" y2="0" gradientUnits="userSpaceOnUse" gradientTransform="matrix(0.5343,4.694,-4.694,0.5343,19.4136,25.6164)"><stop offset="0" style="stop-color:rgb(189,160,133);stop-opacity:1"/><stop offset="0.26" style="stop-color:rgb(184,153,125);stop-opacity:1"/><stop offset="1" style="stop-color:rgb(171,137,106);stop-opacity:1"/></linearGradient>
        <linearGradient id="_Linear17" x1="0" y1="0" x2="1" y2="0" gradientUnits="userSpaceOnUse" gradientTransform="matrix(2.05114,4.976,-4.976,2.05114,7.95206,15.2783)"><stop offset="0" style="stop-color:rgb(219,167,121);stop-opacity:1"/><stop offset="0.48" style="stop-color:rgb(228,181,134);stop-opacity:1"/><stop offset="1" style="stop-color:rgb(240,201,153);stop-opacity:1"/></linearGradient>
        <linearGradient id="_Linear18" x1="0" y1="0" x2="1" y2="0" gradientUnits="userSpaceOnUse" gradientTransform="matrix(1.7942,4.3526,-4.3526,1.7942,29.0108,15.5349)"><stop offset="0" style="stop-color:rgb(219,167,121);stop-opacity:1"/><stop offset="0.48" style="stop-color:rgb(228,181,134);stop-opacity:1"/><stop offset="1" style="stop-color:rgb(240,201,153);stop-opacity:1"/></linearGradient>
        <radialGradient id="_Radial19" cx="0" cy="0" r="1" gradientUnits="userSpaceOnUse" gradientTransform="matrix(-4.857,0.180899,-0.128992,-3.46333,25.9881,19.1639)"><stop offset="0" style="stop-color:rgb(248,199,156);stop-opacity:1"/><stop offset="1" style="stop-color:rgb(247,217,171);stop-opacity:1"/></radialGradient>
        <radialGradient id="_Radial20" cx="0" cy="0" r="1" gradientUnits="userSpaceOnUse" gradientTransform="matrix(5.06402,-0.320888,0.221846,3.50102,12.8761,19.2204)"><stop offset="0" style="stop-color:rgb(248,199,156);stop-opacity:1"/><stop offset="1" style="stop-color:rgb(247,217,171);stop-opacity:1"/></radialGradient>
        <linearGradient id="_Linear21" x1="0" y1="0" x2="1" y2="0" gradientUnits="userSpaceOnUse" gradientTransform="matrix(-2.9221,1.0076,-1.0076,-2.9221,27.9217,17.0514)"><stop offset="0" style="stop-color:rgb(251,219,175);stop-opacity:1"/><stop offset="1" style="stop-color:rgb(247,217,171);stop-opacity:1"/></linearGradient>
        <linearGradient id="_Linear22" x1="0" y1="0" x2="1" y2="0" gradientUnits="userSpaceOnUse" gradientTransform="matrix(-4.33224,-1.0578,1.0578,-4.33224,13.7044,17.9985)"><stop offset="0" style="stop-color:rgb(251,219,175);stop-opacity:1"/><stop offset="1" style="stop-color:rgb(247,217,171);stop-opacity:1"/></linearGradient>
        <linearGradient id="_Linear23" x1="0" y1="0" x2="1" y2="0" gradientUnits="userSpaceOnUse" gradientTransform="matrix(-0.2643,-3.1053,3.1053,-0.2643,24.3411,17.444)"><stop offset="0" style="stop-color:rgb(247,217,171);stop-opacity:1"/><stop offset="0.52" style="stop-color:rgb(246,215,168);stop-opacity:1"/><stop offset="0.85" style="stop-color:rgb(243,207,160);stop-opacity:1"/><stop offset="1" style="stop-color:rgb(240,201,153);stop-opacity:1"/></linearGradient>
        <linearGradient id="_Linear24" x1="0" y1="0" x2="1" y2="0" gradientUnits="userSpaceOnUse" gradientTransform="matrix(-0.2551,-2.9981,2.9981,-0.2551,14.709,17.4201)"><stop offset="0" style="stop-color:rgb(247,217,171);stop-opacity:1"/><stop offset="0.52" style="stop-color:rgb(246,215,168);stop-opacity:1"/><stop offset="0.85" style="stop-color:rgb(243,207,160);stop-opacity:1"/><stop offset="1" style="stop-color:rgb(240,201,153);stop-opacity:1"/></linearGradient>
        <linearGradient id="_Linear25" x1="0" y1="0" x2="1" y2="0" gradientUnits="userSpaceOnUse" gradientTransform="matrix(-0.0592,3.72947,-3.72947,-0.0592,19.4244,4.75579)"><stop offset="0" style="stop-color:rgb(247,217,171);stop-opacity:1"/><stop offset="0.48" style="stop-color:rgb(245,213,166);stop-opacity:1"/><stop offset="1" style="stop-color:rgb(240,201,153);stop-opacity:1"/></linearGradient>
        <linearGradient id="_Linear26" x1="0" y1="0" x2="1" y2="0" gradientUnits="userSpaceOnUse" gradientTransform="matrix(5.4757,1.5416,-1.5416,5.4757,21.5539,14.8061)"><stop offset="0" style="stop-color:rgb(219,167,121);stop-opacity:1"/><stop offset="0.48" style="stop-color:rgb(228,181,134);stop-opacity:1"/><stop offset="1" style="stop-color:rgb(240,201,153);stop-opacity:1"/></linearGradient>
        <linearGradient id="_Linear27" x1="0" y1="0" x2="1" y2="0" gradientUnits="userSpaceOnUse" gradientTransform="matrix(-5.3583,0.2722,-0.2722,-5.3583,26.6083,15.5328)"><stop offset="0" style="stop-color:white;stop-opacity:1"/><stop offset="0.47" style="stop-color:rgb(253,252,252);stop-opacity:1"/><stop offset="0.77" style="stop-color:rgb(246,244,244);stop-opacity:1"/><stop offset="1" style="stop-color:rgb(236,231,231);stop-opacity:1"/></linearGradient>
        <linearGradient id="_Linear28" x1="0" y1="0" x2="1" y2="0" gradientUnits="userSpaceOnUse" gradientTransform="matrix(-4.0392,-0.1466,0.1466,-4.0392,25.3563,15.911)"><stop offset="0" style="stop-color:rgb(184,156,140);stop-opacity:1"/><stop offset="1" style="stop-color:rgb(113,82,65);stop-opacity:1"/></linearGradient>
        <linearGradient id="_Linear29" x1="0" y1="0" x2="1" y2="0" gradientUnits="userSpaceOnUse" gradientTransform="matrix(-3.4952,0.293,-0.293,-3.4952,25.3261,15.2693)"><stop offset="0" style="stop-color:rgb(184,156,140);stop-opacity:1"/><stop offset="1" style="stop-color:rgb(113,82,65);stop-opacity:1"/></linearGradient>
        <radialGradient id="_Radial30" cx="0" cy="0" r="1" gradientUnits="userSpaceOnUse" gradientTransform="matrix(2.39639,0,0,2.39639,24.6344,16.4459)"><stop offset="0" style="stop-color:rgb(42,58,59);stop-opacity:1"/><stop offset="1" style="stop-color:rgb(28,39,39);stop-opacity:1"/></radialGradient>
        <linearGradient id="_Linear31" x1="0" y1="0" x2="1" y2="0" gradientUnits="userSpaceOnUse" gradientTransform="matrix(4.6389,-0.2209,0.2209,4.6389,21.5831,15.4579)"><stop offset="0" style="stop-color:rgb(103,64,36);stop-opacity:1"/><stop offset="0.34" style="stop-color:rgb(83,52,28);stop-opacity:1"/><stop offset="0.68" style="stop-color:rgb(70,45,24);stop-opacity:1"/><stop offset="1" style="stop-color:rgb(66,42,22);stop-opacity:1"/></linearGradient>
        <linearGradient id="_Linear32" x1="0" y1="0" x2="1" y2="0" gradientUnits="userSpaceOnUse" gradientTransform="matrix(5.5057,1.55,-1.55,5.5057,12.0819,14.7031)"><stop offset="0" style="stop-color:rgb(240,201,153);stop-opacity:1"/><stop offset="0.52" style="stop-color:rgb(228,181,134);stop-opacity:1"/><stop offset="1" style="stop-color:rgb(219,167,121);stop-opacity:1"/></linearGradient>
        <linearGradient id="_Linear33" x1="0" y1="0" x2="1" y2="0" gradientUnits="userSpaceOnUse" gradientTransform="matrix(-3.9118,-0.9442,0.9442,-3.9118,17.0887,16.1567)"><stop offset="0" style="stop-color:white;stop-opacity:1"/><stop offset="0.47" style="stop-color:rgb(253,252,252);stop-opacity:1"/><stop offset="0.77" style="stop-color:rgb(246,244,244);stop-opacity:1"/><stop offset="1" style="stop-color:rgb(236,231,231);stop-opacity:1"/></linearGradient>
        <linearGradient id="_Linear34" x1="0" y1="0" x2="1" y2="0" gradientUnits="userSpaceOnUse" gradientTransform="matrix(-3.776,0.151,-0.151,-3.776,16.2625,15.7517)"><stop offset="0" style="stop-color:rgb(184,156,140);stop-opacity:1"/><stop offset="1" style="stop-color:rgb(113,82,65);stop-opacity:1"/></linearGradient>
        <linearGradient id="_Linear35" x1="0" y1="0" x2="1" y2="0" gradientUnits="userSpaceOnUse" gradientTransform="matrix(-2.4433,-0.4488,0.4488,-2.4433,16.3371,15.6529)"><stop offset="0" style="stop-color:rgb(184,156,140);stop-opacity:1"/><stop offset="1" style="stop-color:rgb(113,82,65);stop-opacity:1"/></linearGradient>
        <radialGradient id="_Radial36" cx="0" cy="0" r="1" gradientUnits="userSpaceOnUse" gradientTransform="matrix(2.39505,0,0,2.39505,15.5957,16.4067)"><stop offset="0" style="stop-color:rgb(42,58,59);stop-opacity:1"/><stop offset="1" style="stop-color:rgb(28,39,39);stop-opacity:1"/></radialGradient>
        <linearGradient id="_Linear37" x1="0" y1="0" x2="1" y2="0" gradientUnits="userSpaceOnUse" gradientTransform="matrix(4.5942,-0.2188,0.2188,4.5942,12.2547,15.5391)"><stop offset="0" style="stop-color:rgb(66,42,22);stop-opacity:1"/><stop offset="0.32" style="stop-color:rgb(70,45,24);stop-opacity:1"/><stop offset="0.66" style="stop-color:rgb(83,52,28);stop-opacity:1"/><stop offset="1" style="stop-color:rgb(103,64,36);stop-opacity:1"/></linearGradient>
        <linearGradient id="_Linear38" x1="0" y1="0" x2="1" y2="0" gradientUnits="userSpaceOnUse" gradientTransform="matrix(-0.2091,-6.0377,6.0377,-0.2091,19.8016,31.0406)"><stop offset="0" style="stop-color:rgb(247,217,171);stop-opacity:1"/><stop offset="0.53" style="stop-color:rgb(246,215,168);stop-opacity:1"/><stop offset="0.87" style="stop-color:rgb(243,207,160);stop-opacity:1"/><stop offset="1" style="stop-color:rgb(241,202,154);stop-opacity:1"/></linearGradient>
        <linearGradient id="_Linear39" x1="0" y1="0" x2="1" y2="0" gradientUnits="userSpaceOnUse" gradientTransform="matrix(7.5652,0.1291,-0.1291,7.5652,15.8284,23.7532)"><stop offset="0" style="stop-color:rgb(232,217,215);stop-opacity:1"/><stop offset="0.14" style="stop-color:rgb(240,230,228);stop-opacity:1"/><stop offset="0.39" style="stop-color:rgb(251,248,248);stop-opacity:1"/><stop offset="0.57" style="stop-color:white;stop-opacity:1"/><stop offset="1" style="stop-color:rgb(232,211,209);stop-opacity:1"/></linearGradient>
        <linearGradient id="_Linear40" x1="0" y1="0" x2="1" y2="0" gradientUnits="userSpaceOnUse" gradientTransform="matrix(-0.203,-5.8626,5.8626,-0.203,19.804,30.9146)"><stop offset="0" style="stop-color:rgb(247,217,171);stop-opacity:1"/><stop offset="0.53" style="stop-color:rgb(246,215,168);stop-opacity:1"/><stop offset="0.87" style="stop-color:rgb(243,207,160);stop-opacity:1"/><stop offset="1" style="stop-color:rgb(241,202,154);stop-opacity:1"/></linearGradient>
        <linearGradient id="_Linear41" x1="0" y1="0" x2="1" y2="0" gradientUnits="userSpaceOnUse" gradientTransform="matrix(0.1213,2.8301,-2.8301,0.1213,19.3371,20.8902)"><stop offset="0" style="stop-color:rgb(232,217,215);stop-opacity:1"/><stop offset="0.4" style="stop-color:rgb(239,229,228);stop-opacity:1"/><stop offset="1" style="stop-color:white;stop-opacity:1"/></linearGradient>
        <linearGradient id="_Linear42" x1="0" y1="0" x2="1" y2="0" gradientUnits="userSpaceOnUse" gradientTransform="matrix(-0.2,-12.1459,12.1459,-0.2,19.6431,32.0369)"><stop offset="0" style="stop-color:rgb(247,217,171);stop-opacity:1"/><stop offset="0.53" style="stop-color:rgb(246,215,168);stop-opacity:1"/><stop offset="0.87" style="stop-color:rgb(243,207,160);stop-opacity:1"/><stop offset="1" style="stop-color:rgb(241,202,154);stop-opacity:1"/></linearGradient>
        <linearGradient id="_Linear43" x1="0" y1="0" x2="1" y2="0" gradientUnits="userSpaceOnUse" gradientTransform="matrix(-0.2962,-9.8612,9.8612,-0.2962,19.6874,30.3749)"><stop offset="0" style="stop-color:rgb(171,137,106);stop-opacity:1"/><stop offset="0.74" style="stop-color:rgb(184,153,125);stop-opacity:1"/><stop offset="1" style="stop-color:rgb(189,160,133);stop-opacity:1"/></linearGradient>
        <linearGradient id="_Linear44" x1="0" y1="0" x2="1" y2="0" gradientUnits="userSpaceOnUse" gradientTransform="matrix(11.2658,-23.98,23.98,11.2658,28.2636,22.2387)"><stop offset="0" style="stop-color:rgb(189,160,133);stop-opacity:1"/><stop offset="0.26" style="stop-color:rgb(184,153,125);stop-opacity:1"/><stop offset="1" style="stop-color:rgb(171,137,106);stop-opacity:1"/></linearGradient>
        <linearGradient id="_Linear45" x1="0" y1="0" x2="1" y2="0" gradientUnits="userSpaceOnUse" gradientTransform="matrix(0.2109,8.8234,-8.8234,0.2109,19.2017,10.9359)"><stop offset="0" style="stop-color:rgb(255,222,179);stop-opacity:1"/><stop offset="0.2" style="stop-color:rgb(253,221,177);stop-opacity:1"/><stop offset="1" style="stop-color:rgb(247,217,171);stop-opacity:1"/></linearGradient>
        <linearGradient id="_Linear46" x1="0" y1="0" x2="1" y2="0" gradientUnits="userSpaceOnUse" gradientTransform="matrix(0.15,4.9753,-4.9753,0.15,19.2529,15.961)"><stop offset="0" style="stop-color:rgb(247,217,171);stop-opacity:1"/><stop offset="0.53" style="stop-color:rgb(246,215,168);stop-opacity:1"/><stop offset="0.87" style="stop-color:rgb(243,207,160);stop-opacity:1"/><stop offset="1" style="stop-color:rgb(241,202,154);stop-opacity:1"/></linearGradient>
        <linearGradient id="_Linear47" x1="0" y1="0" x2="1" y2="0" gradientUnits="userSpaceOnUse" gradientTransform="matrix(0.2985,-2.201,2.201,0.2985,19.1875,20.2039)"><stop offset="0" style="stop-color:rgb(255,222,179);stop-opacity:1"/><stop offset="0.28" style="stop-color:rgb(251,220,175);stop-opacity:1"/><stop offset="1" style="stop-color:rgb(247,217,171);stop-opacity:1"/></linearGradient>
        <linearGradient id="_Linear48" x1="0" y1="0" x2="1" y2="0" gradientUnits="userSpaceOnUse" gradientTransform="matrix(4.75516,10.0109,-10.0109,4.75516,6.80714,13.3304)"><stop offset="0" style="stop-color:rgb(189,160,133);stop-opacity:1"/><stop offset="0.26" style="stop-color:rgb(184,153,125);stop-opacity:1"/><stop offset="1" style="stop-color:rgb(171,137,106);stop-opacity:1"/></linearGradient>
    </defs>
</svg>
