<?xml version="1.0" encoding="UTF-8" standalone="no"?>
<!DOCTYPE svg PUBLIC "-//W3C//DTD SVG 1.1//EN" "http://www.w3.org/Graphics/SVG/1.1/DTD/svg11.dtd">
<svg width="100%" height="100%" viewBox="0 0 40 40" version="1.1" xmlns="http://www.w3.org/2000/svg" xmlns:xlink="http://www.w3.org/1999/xlink" xml:space="preserve" xmlns:serif="http://www.serif.com/" style="fill-rule:evenodd;clip-rule:evenodd;stroke-linejoin:round;stroke-miterlimit:2;">
    <g>
        <path d="M29.076,33.005C27.982,35.731 20.025,44.021 11.123,33.005L0.73,36.327C0.73,36.327 1.89,40.569 3.017,45.359C7.808,48.682 13.676,50.649 20.008,50.649C26.838,50.649 33.12,48.375 38.11,44.553L39.436,36.344C39.403,36.327 34.645,34.456 29.076,33.005Z" style="fill:rgb(153,178,55);fill-rule:nonzero;"/>
        <path d="M-3,39.795C-1.077,42.166 1.227,44.231 3.813,45.908C2.868,42.876 0.713,36.344 0.713,36.344C-0.646,36.763 -1.889,38.07 -3,39.795Z" style="fill:rgb(153,178,55);fill-rule:nonzero;"/>
        <path d="M43,39.763C41.906,38.053 40.662,36.747 39.303,36.327C39.303,36.327 37.165,42.811 36.203,45.859C38.789,44.198 41.077,42.133 43,39.763Z" style="fill:rgb(153,178,55);fill-rule:nonzero;"/>
        <path d="M25.976,31.634C25.876,31.215 26.009,29.376 26.009,29.376L14.306,29.376L14.389,31.586C13.361,32.295 11.09,33.005 11.09,33.005C10.941,34.682 14.919,38.908 19.793,38.682C26.092,38.392 29.042,33.005 29.042,33.005C29.042,33.005 26.075,32.053 25.976,31.634Z" style="fill:url(#_Linear1);fill-rule:nonzero;"/>
        <path d="M19.809,37.618C13.809,37.553 11.107,33.005 11.107,33.005L8.836,33.731C8.836,33.731 12.134,39.811 19.412,39.811C27.816,39.811 31.148,33.569 31.148,33.569L29.076,33.005C28.678,33.827 25.147,37.666 19.809,37.618Z" style="fill:url(#_Linear2);fill-rule:nonzero;"/>
        <path d="M22.478,34.844C22.412,34.908 18.5,35.36 17.091,34.811C16.378,34.537 14.588,32.65 14.588,32.65C13.825,33.36 12.35,33.634 12.35,33.634C16.627,37.86 21.334,37.215 23.141,36.586C24.965,35.957 27.899,33.586 27.899,33.586C27.899,33.586 26.672,33.344 25.512,32.424C24.384,33.828 22.544,34.795 22.478,34.844Z" style="fill:rgb(247,217,171);fill-rule:nonzero;"/>
        <path d="M8.405,17.312C7.195,17.522 7.46,18.328 7.99,19.715C8.504,23.425 9.482,24.167 9.897,23.941C10.659,23.522 9.864,17.038 8.405,17.312Z" style="fill:rgb(240,201,153);fill-rule:nonzero;"/>
        <path d="M9.383,22.586C9.383,22.586 8.819,21.892 9.051,20.586C9.582,17.506 7.642,17.199 8.024,19.344C8.024,19.344 8.322,18.36 8.554,18.667C8.852,19.054 8.206,19.215 8.471,20.828C8.604,21.667 9.383,22.586 9.383,22.586Z" style="fill:url(#_Linear3);fill-rule:nonzero;"/>
        <path d="M31.048,17.28C32.258,17.441 32.043,18.247 31.595,19.667C31.297,23.392 30.368,24.183 29.937,23.973C29.158,23.586 29.573,17.086 31.048,17.28Z" style="fill:rgb(240,201,153);fill-rule:nonzero;"/>
        <path d="M30.386,22.586C30.386,22.586 30.899,21.86 30.601,20.57C29.888,17.522 31.811,17.134 31.562,19.28C31.562,19.28 31.198,18.312 30.982,18.634C30.717,19.021 31.363,19.167 31.181,20.796C31.115,21.65 30.386,22.586 30.386,22.586Z" style="fill:url(#_Linear4);fill-rule:nonzero;"/>
        <path d="M30.103,17.102C30.468,8.377 27.302,8.054 26.523,7.167C24.915,5.344 22.826,3.715 18.55,3.812C18.55,3.812 12.963,4.006 11.571,6.973C10.079,10.151 9.482,14.505 9.615,18.602C9.781,23.586 10.096,24.908 10.543,25.957C10.742,26.44 11.007,27.102 12.002,27.86C13.593,29.086 15.682,31.376 16.958,32.392C17.472,32.795 20.953,33.666 23.672,31.86C25.097,30.924 26.589,29.715 28.33,28.021C29.092,27.279 29.606,26.053 29.606,25.441C29.606,24.747 30.037,22.102 30.004,21.57C29.871,18.779 30.004,19.521 30.103,17.102Z" style="fill:rgb(247,217,171);fill-rule:nonzero;"/>
        <path d="M25.744,25.344C27.501,25.457 29.639,25.247 30.02,21.683C30.236,19.651 29.838,18.602 28.976,18.441C27.119,18.102 24.467,18.892 23.373,19.457C21.019,20.634 22.627,25.134 25.744,25.344Z" style="fill:url(#_Radial5);fill-rule:nonzero;"/>
        <path d="M20.224,29.956C19.61,29.956 18.069,30.36 18.118,30.586C18.251,31.247 19.677,31.36 20.29,31.36C20.903,31.36 22.146,31.198 22.163,30.634C22.18,30.408 20.837,29.956 20.224,29.956Z" style="fill:url(#_Linear6);fill-rule:nonzero;"/>
        <path d="M15.997,19.279C15.499,19.102 11.653,18.247 10.51,18.57C9.863,18.747 9.648,20.199 9.747,21.553C9.797,22.199 9.946,23.247 10.095,23.65C10.841,25.65 13.974,25.747 15.599,25.182C18.384,24.231 18.549,20.183 15.997,19.279Z" style="fill:url(#_Radial7);fill-rule:nonzero;"/>
        <path d="M28.761,19.409C28.446,19.231 28.214,19.49 27.55,19.699C26.904,19.909 25.13,20.231 25.959,20.667C26.871,21.151 28.164,20.489 28.313,20.36C28.479,20.248 29.142,19.619 28.761,19.409Z" style="fill:url(#_Linear8);fill-rule:nonzero;"/>
        <path d="M24.749,26.392C24.683,26.457 24.6,26.505 24.534,26.57C24.534,26.57 24.633,26.505 24.749,26.392Z" style="fill:url(#_Linear9);fill-rule:nonzero;"/>
        <path d="M23.887,22.973C26.092,24.715 25.197,25.957 24.749,26.392C25.595,25.699 26.738,24.925 26.672,24.618C26.39,23.522 23.887,22.973 23.887,22.973Z" style="fill:url(#_Linear10);fill-rule:nonzero;"/>
        <path d="M24.517,25.086C24.517,25.086 25.644,24.828 25.744,24.747C25.843,24.667 25.943,24.393 25.943,24.393L25.23,24.602L24.517,25.086Z" style="fill:rgb(225,181,140);fill-rule:nonzero;"/>
        <path d="M13.66,24.796C13.709,25.134 14.704,25.973 15.35,26.618C15.35,26.618 13.627,24.812 16.03,23.183C16.03,23.183 13.494,23.65 13.66,24.796Z" style="fill:url(#_Linear11);fill-rule:nonzero;"/>
        <path d="M14.256,24.473C14.256,24.473 14.339,24.747 14.455,24.828C14.555,24.909 15.682,25.167 15.682,25.167L14.986,24.683L14.256,24.473Z" style="fill:rgb(225,181,140);fill-rule:nonzero;"/>
        <path d="M17.804,29.279C20.804,28.957 22.843,29.312 22.843,29.312C20.555,27.941 17.804,29.279 17.804,29.279Z" style="fill:url(#_Linear12);fill-rule:nonzero;"/>
        <path d="M14.522,24.602C14.588,24.666 14.621,24.747 14.704,24.779C16.146,25.408 16.163,25.989 16.793,26.311C18.981,27.456 21.534,27.182 23.258,26.263C24.252,25.731 24.368,25.118 25.562,24.666C25.727,24.602 25.744,24.489 25.744,24.489C19.428,25.989 14.522,24.602 14.522,24.602Z" style="fill:rgb(150,40,45);fill-rule:nonzero;"/>
        <path d="M20.191,27.538C19.345,27.538 18.5,27.376 18.5,27.538C18.5,27.699 19.246,28.054 20.091,28.054C20.953,28.054 21.782,27.699 21.782,27.538C21.799,27.376 21.052,27.538 20.191,27.538Z" style="fill:rgb(253,221,179);fill-rule:nonzero;"/>
        <path d="M22.661,25.892C22.081,26.005 20.987,26.215 19.992,26.215C18.881,26.215 17.771,26.021 17.157,25.908C16.892,25.86 16.776,26.312 16.776,26.312C17.588,26.876 18.55,27.102 20.091,27.102C22.164,27.118 23.291,26.247 23.291,26.247C23.291,26.247 22.992,25.812 22.661,25.892Z" style="fill:url(#_Linear13);fill-rule:nonzero;"/>
        <path d="M17.041,27.747C20.34,30.296 23.49,27.57 23.49,27.57C20.158,29.296 17.041,27.747 17.041,27.747Z" style="fill:url(#_Linear14);fill-rule:nonzero;"/>
        <path d="M15.964,24.893C15.964,24.893 15.98,25.425 16.544,25.651C16.859,25.78 17.572,26.312 20.356,26.231C23.141,26.151 23.688,25.489 23.821,25.377C24.053,25.167 24.169,24.812 24.169,24.812C24.169,24.812 19.959,25.618 15.964,24.893Z" style="fill:url(#_Linear15);fill-rule:nonzero;"/>
        <path d="M15.947,24.844C15.947,24.844 15.964,25.086 16.063,25.231C16.146,25.344 18.367,25.666 20.042,25.683C21.716,25.699 23.921,25.279 23.987,25.183C24.103,25.037 24.169,24.779 24.169,24.779C24.169,24.779 22.28,25.376 15.947,24.844Z" style="fill:rgb(243,236,235);fill-rule:nonzero;"/>
        <path d="M14.19,24.441C14.19,24.441 14.588,24.666 14.538,24.602C14.538,24.602 19.428,25.989 25.76,24.489L26.108,24.328C22.661,24.876 14.19,24.441 14.19,24.441Z" style="fill:url(#_Linear16);fill-rule:nonzero;"/>
        <path d="M20.854,19.393C20.953,17.441 20.257,17.167 19.726,17.183C19.212,17.199 18.947,17.877 19.047,19.361C19.146,20.844 18.848,21.409 18.914,22.102C18.947,22.425 19.096,22.619 19.925,22.635C20.837,22.635 21.152,22.425 21.185,22.135C21.301,21.344 20.787,20.812 20.854,19.393Z" style="fill:url(#_Linear17);fill-rule:nonzero;"/>
        <path d="M17.505,22.877C17.505,22.877 19.776,24.489 20.273,24.392C20.77,24.296 22.594,22.877 22.594,22.877C22.594,22.877 20.538,23.118 20.058,23.118C19.577,23.118 17.505,22.877 17.505,22.877Z" style="fill:url(#_Linear18);fill-rule:nonzero;"/>
        <path d="M20.953,23.199C22.18,22.909 22.66,23.086 22.66,23.086C21.948,22.473 20.953,23.199 20.953,23.199Z" style="fill:rgb(225,181,140);fill-rule:nonzero;"/>
        <path d="M17.489,22.989C17.489,22.989 18.119,22.893 19.08,23.199C19.097,23.199 18.152,22.522 17.489,22.989Z" style="fill:rgb(225,181,140);fill-rule:nonzero;"/>
        <path d="M21.914,21.215C21.914,21.699 22.03,22.037 21.865,22.312C21.517,22.924 20.638,23.183 20.058,23.134C19.61,23.183 18.566,22.973 18.135,22.312C17.953,22.054 18.069,21.812 17.986,21.296C17.986,21.296 16.776,22.715 17.505,22.989C17.505,22.989 17.721,22.828 18.301,22.892C18.881,22.941 18.765,23.57 20.108,23.586C21.285,23.602 20.903,23.054 21.649,22.941C22.395,22.844 22.495,23.021 22.66,23.102C23.025,23.086 22.76,21.892 21.914,21.215Z" style="fill:url(#_Linear19);fill-rule:nonzero;"/>
        <path d="M18.798,22.054C18.749,22.377 19.213,22.715 20.025,22.715C20.937,22.715 21.136,22.377 21.053,22.086C20.622,20.344 18.997,20.86 18.798,22.054Z" style="fill:url(#_Linear20);fill-rule:nonzero;"/>
        <path d="M11.985,19.764C11.322,19.586 11.057,19.344 10.758,19.538C10.377,19.78 11.09,20.36 11.256,20.473C11.421,20.586 12.731,21.199 13.626,20.667C14.422,20.183 12.632,19.941 11.985,19.764Z" style="fill:url(#_Linear21);fill-rule:nonzero;"/>
        <path d="M22.13,15.038C21.997,15.893 21.185,19.006 21.699,19.312C24.898,21.151 28.396,18.828 28.396,18.828C29.291,13.716 22.13,15.038 22.13,15.038Z" style="fill:url(#_Linear22);fill-rule:nonzero;"/>
        <path d="M11.289,18.892C11.289,18.892 14.687,21.102 17.953,19.054C18.45,18.747 17.472,15.973 17.323,15.118C17.34,15.118 11.024,13.151 11.289,18.892Z" style="fill:url(#_Linear23);fill-rule:nonzero;"/>
        <path d="M26.937,8.135C26.705,8.07 26.44,8.006 26.158,7.957C24.103,7.522 20.87,6.054 17.92,6.054C16.113,6.054 14.422,6.409 13.179,6.732C12.599,6.877 12.101,7.07 11.753,7.296C10.643,8.038 9.996,9.441 9.615,12.764C9.499,13.844 9.665,20.602 9.665,20.683C11.903,14.36 11.753,11.086 13.013,10.361C14.256,9.635 17.854,9.683 20.323,9.49C22.379,9.328 26.291,9.683 26.755,10.312C27.949,11.86 27.385,14.522 30.137,20.199C30.137,20.199 29.971,13.006 29.789,11.135C29.557,8.667 28.893,8.667 26.937,8.135Z" style="fill:url(#_Linear24);fill-rule:nonzero;"/>
        <path d="M14.869,16.57C14.339,16.538 13.195,16.699 12.814,16.989C12.134,17.505 11.885,17.973 11.952,18.554C11.968,18.731 12.698,19.392 14.239,19.505C15.4,19.586 17.24,19.505 17.687,19.038C17.903,18.812 17.621,17.909 17.538,17.586C17.389,16.989 16.51,16.667 14.869,16.57Z" style="fill:url(#_Linear25);fill-rule:nonzero;"/>
        <path d="M16.014,17.199C13.527,16.909 13.676,17.264 12.665,18.393C12.665,18.393 12.682,18.57 12.814,18.764C12.947,18.973 13.345,19.264 13.842,19.344C15.433,19.635 15.947,19.425 16.627,19.28C16.909,19.215 17.24,18.957 17.224,18.828C17.224,18.828 17.273,18.328 17.074,17.893C16.925,17.57 16.627,17.264 16.014,17.199Z" style="fill:url(#_Linear26);fill-rule:nonzero;"/>
        <path d="M12.665,18.392C12.665,18.457 12.715,18.618 12.814,18.747C14.605,17.667 16.527,17.925 17.091,17.909C16.08,17.28 14.605,17.425 13.875,17.344C12.947,17.247 12.665,18.392 12.665,18.392Z" style="fill:rgb(221,221,221);fill-rule:nonzero;"/>
        <path d="M15.003,17.345C14.19,17.377 13.527,17.99 13.627,18.764C13.643,18.925 13.676,19.135 13.859,19.36C14.008,19.409 14.605,19.522 15.019,19.506C15.599,19.522 16.113,19.425 16.262,19.377C16.295,19.344 16.478,19.006 16.494,18.699C16.528,17.909 15.964,17.296 15.003,17.345Z" style="fill:url(#_Linear27);fill-rule:nonzero;"/>
        <path d="M14.936,17.232C14.057,17.296 13.693,18.022 13.643,18.345C13.643,18.345 14.605,17.893 16.279,17.893C16.279,17.893 15.815,17.167 14.936,17.232Z" style="fill:url(#_Linear28);fill-rule:nonzero;"/>
        <path d="M15.035,17.554C14.555,17.554 14.173,17.941 14.173,18.392C14.173,18.844 14.571,19.215 15.069,19.199C15.549,19.183 15.93,18.812 15.93,18.36C15.914,17.925 15.516,17.554 15.035,17.554Z" style="fill:url(#_Radial29);fill-rule:nonzero;"/>
        <path d="M16.577,17.345C15.698,16.861 14.339,16.958 13.461,17.296C12.599,17.635 12.665,18.393 12.665,18.393C12.665,18.393 13.113,17.893 14.588,17.7C16.063,17.506 17.091,17.909 17.091,17.909C17.091,17.909 16.925,17.522 16.577,17.345Z" style="fill:url(#_Linear30);fill-rule:nonzero;"/>
        <path d="M15.748,18.457C15.566,18.554 15.483,18.764 15.566,18.925C15.649,19.102 15.881,19.167 16.063,19.07C16.245,18.973 16.328,18.764 16.245,18.602C16.162,18.425 15.93,18.36 15.748,18.457Z" style="fill:white;fill-rule:nonzero;"/>
        <path d="M14.969,18.103C14.82,18.167 14.753,18.345 14.82,18.474C14.886,18.603 15.068,18.651 15.217,18.587C15.367,18.522 15.433,18.345 15.367,18.216C15.284,18.087 15.118,18.038 14.969,18.103Z" style="fill:white;fill-rule:nonzero;"/>
        <path d="M26.788,16.989C26.407,16.699 25.263,16.538 24.732,16.57C23.108,16.651 22.229,16.989 22.063,17.586C21.981,17.909 21.699,18.812 21.914,19.038C22.362,19.505 24.202,19.602 25.362,19.505C26.904,19.392 27.633,18.715 27.65,18.554C27.699,17.973 27.467,17.505 26.788,16.989Z" style="fill:url(#_Linear31);fill-rule:nonzero;"/>
        <path d="M23.589,17.199C22.975,17.263 22.677,17.57 22.511,17.909C22.296,18.344 22.362,18.844 22.362,18.844C22.362,18.957 22.677,19.231 22.959,19.296C23.638,19.425 24.152,19.651 25.744,19.36C26.241,19.263 26.639,18.989 26.771,18.78C26.904,18.586 26.92,18.409 26.92,18.409C25.926,17.263 26.075,16.909 23.589,17.199Z" style="fill:url(#_Linear32);fill-rule:nonzero;"/>
        <path d="M25.727,17.344C24.998,17.425 23.523,17.28 22.512,17.909C23.075,17.925 24.998,17.683 26.788,18.747C26.871,18.618 26.921,18.457 26.937,18.392C26.937,18.392 26.656,17.247 25.727,17.344Z" style="fill:rgb(221,221,221);fill-rule:nonzero;"/>
        <path d="M24.6,17.345C23.639,17.296 23.075,17.909 23.125,18.715C23.141,19.022 23.324,19.36 23.357,19.393C23.49,19.441 24.02,19.538 24.6,19.522C25.031,19.522 25.628,19.409 25.761,19.377C25.959,19.167 25.976,18.957 25.993,18.78C26.076,17.99 25.412,17.377 24.6,17.345Z" style="fill:url(#_Linear33);fill-rule:nonzero;"/>
        <path d="M24.65,17.232C23.771,17.167 23.307,17.893 23.307,17.893C24.981,17.893 25.943,18.345 25.943,18.345C25.909,18.022 25.528,17.296 24.65,17.232Z" style="fill:url(#_Linear34);fill-rule:nonzero;"/>
        <path d="M24.567,17.554C24.086,17.538 23.688,17.909 23.688,18.361C23.688,18.812 24.07,19.199 24.55,19.199C25.031,19.199 25.429,18.845 25.445,18.393C25.445,17.941 25.048,17.57 24.567,17.554Z" style="fill:url(#_Radial35);fill-rule:nonzero;"/>
        <path d="M26.142,17.296C25.263,16.958 23.904,16.861 23.025,17.345C22.694,17.522 22.512,17.909 22.512,17.909C22.512,17.909 23.539,17.506 25.015,17.7C26.49,17.893 26.937,18.393 26.937,18.393C26.937,18.393 26.987,17.635 26.142,17.296Z" style="fill:url(#_Linear36);fill-rule:nonzero;"/>
        <path d="M25.279,18.409C25.08,18.441 24.931,18.619 24.948,18.828C24.964,19.038 25.163,19.183 25.362,19.151C25.561,19.119 25.71,18.941 25.694,18.732C25.677,18.538 25.495,18.393 25.279,18.409Z" style="fill:white;fill-rule:nonzero;"/>
        <path d="M24.468,18.07C24.302,18.087 24.186,18.232 24.202,18.393C24.219,18.554 24.368,18.667 24.534,18.651C24.7,18.635 24.816,18.49 24.799,18.328C24.782,18.167 24.633,18.054 24.468,18.07Z" style="fill:white;fill-rule:nonzero;"/>
        <path d="M26.788,15.167C24.915,14.457 23.937,14.473 22.462,14.602C21.964,14.651 21.931,15.635 22.478,15.731C23.506,15.909 24.832,15.586 25.81,15.78C27.235,16.038 27.899,16.183 27.899,16.183C27.899,16.183 27.667,15.506 26.788,15.167Z" style="fill:rgb(153,94,34);fill-rule:nonzero;"/>
        <path d="M17.14,14.538C15.731,14.489 14.737,14.457 12.897,15.07C12.018,15.36 11.886,16.183 11.886,16.183C11.886,16.183 12.449,15.989 13.842,15.747C15.019,15.538 16.61,15.65 17.223,15.618C17.223,15.618 17.638,14.554 17.14,14.538Z" style="fill:rgb(153,94,34);fill-rule:nonzero;"/>
        <path d="M23.954,2.732C22.561,2.538 20.871,2.458 19.097,2.764C14.638,3.216 12.301,5.216 11.256,6.054C8.952,6.812 8.223,7.135 8.173,10.312C8.14,12.328 8.388,13.377 8.388,17.312C8.388,17.312 9.151,17.36 9.366,18.699C9.466,19.344 9.632,20.538 9.715,21.134C9.913,19.328 10.394,17.199 10.56,16.247C10.908,14.264 11.256,10.103 12.168,9.345C12.897,9.103 19.147,7.312 27.302,9.07C28.181,9.683 29.093,15.715 29.225,16.409C29.573,18.231 29.838,19.312 30.054,20.989C30.054,20.989 30.021,17.215 31.032,17.28C30.667,13.699 30.916,6.845 30.618,6.587C30.352,6.329 27.219,3.409 23.954,2.732Z" style="fill:rgb(178,126,70);fill-rule:nonzero;"/>
        <path d="M29.556,1.216C24.55,0.877 20.24,2.554 20.24,2.554C20.24,2.554 20.787,1.312 21.649,0.345C13.759,1.683 10.195,6.199 10.195,6.199C10.195,6.199 10.145,5.119 10.394,4.103C9.184,4.699 7.874,7.586 7.907,7.925C8.007,9.312 8.189,11.022 8.189,11.022C8.189,11.022 12.267,8.296 13.759,7.57C15.251,6.845 29.324,8.07 29.324,8.07C29.324,8.07 30.634,6.586 32.076,5.474C30.584,4.441 27.136,3.796 27.136,3.796C27.136,3.796 27.948,2.248 29.556,1.216Z" style="fill:rgb(178,126,70);fill-rule:nonzero;"/>
        <path d="M9.632,20.893C9.698,22.812 10.029,24.715 10.295,25.618C10.361,25.86 10.643,26.892 11.571,27.731C13.113,29.134 15.201,30.779 15.201,30.779C14.903,30.344 12.317,27.473 11.869,26.796C10.112,24.263 9.632,20.893 9.632,20.893Z" style="fill:url(#_Linear37);fill-rule:nonzero;"/>
        <path d="M24.782,31.102C25.429,30.602 27.037,29.328 28.396,28.07C29.042,27.473 29.457,26.408 29.639,25.715C29.822,25.021 30.07,20.989 30.07,20.989C29.871,22.731 29.341,25.215 28.396,26.876C27.435,28.554 25.147,30.618 24.782,31.102Z" style="fill:url(#_Linear38);fill-rule:nonzero;"/>
        <path d="M16.162,31.699C16.162,31.699 17.439,33.344 20.257,33.247C23.075,33.15 24.434,31.344 24.434,31.344C24.434,31.344 22.66,32.844 20.091,32.763C17.505,32.699 16.162,31.699 16.162,31.699Z" style="fill:url(#_Linear39);fill-rule:nonzero;"/>
        <path d="M27.783,7.038C27.02,6.296 14.555,7.344 11.886,8.634C11.057,9.038 10.61,11.102 10.328,13.602C9.946,17.118 9.731,21.118 9.731,21.118C9.731,21.118 10.709,15.295 10.891,14.102C11.074,12.908 11.637,9.747 12.184,9.328C12.731,8.925 20.357,7.328 27.319,9.054C27.319,9.054 27.965,9.683 28.893,14.521C29.822,19.36 30.087,20.973 30.087,20.973C30.087,20.973 29.523,14.554 29.44,14.021C29.341,13.505 28.545,7.78 27.783,7.038Z" style="fill:rgb(153,94,34);fill-rule:nonzero;"/>
        <path d="M14.687,5.457C18.616,3.457 27.302,2.57 27.302,2.57L27.12,3.812C28.562,1.78 29.54,1.232 29.54,1.232C21.451,0.328 14.687,5.457 14.687,5.457Z" style="fill:rgb(201,140,80);fill-rule:nonzero;"/>
        <path d="M10.195,6.199C10.195,6.199 12.831,3.183 19.23,1.651L20.373,2.264C20.373,2.264 21.318,0.683 21.65,0.345C21.65,0.345 13.146,1.264 10.195,6.199Z" style="fill:rgb(201,140,80);fill-rule:nonzero;"/>
        <path d="M31.214,6.2L32.076,5.474C29.291,3.845 27.136,3.796 27.136,3.796C30.302,4.877 31.214,6.2 31.214,6.2Z" style="fill:rgb(201,140,80);fill-rule:nonzero;"/>
        <path d="M7.924,7.764C8.985,5.893 10.228,4.877 10.228,4.877C10.245,4.748 10.394,4.103 10.394,4.103C8.77,5.086 7.924,7.764 7.924,7.764Z" style="fill:rgb(201,140,80);fill-rule:nonzero;"/>
    </g>
    <defs>
        <linearGradient id="_Linear1" x1="0" y1="0" x2="1" y2="0" gradientUnits="userSpaceOnUse" gradientTransform="matrix(13.0884,2.6949,-2.6949,13.0884,15.4303,32.686)"><stop offset="0" style="stop-color:rgb(240,201,153);stop-opacity:1"/><stop offset="1" style="stop-color:rgb(247,217,171);stop-opacity:1"/></linearGradient>
        <linearGradient id="_Linear2" x1="0" y1="0" x2="1" y2="0" gradientUnits="userSpaceOnUse" gradientTransform="matrix(1.2378,10.8931,-10.8931,1.2378,19.6595,30.8897)"><stop offset="0" style="stop-color:rgb(115,133,41);stop-opacity:1"/><stop offset="0.35" style="stop-color:rgb(129,150,46);stop-opacity:1"/><stop offset="1" style="stop-color:rgb(153,178,55);stop-opacity:1"/></linearGradient>
        <linearGradient id="_Linear3" x1="0" y1="0" x2="1" y2="0" gradientUnits="userSpaceOnUse" gradientTransform="matrix(1.43392,5.3787,-5.3787,1.43392,8.24904,17.8077)"><stop offset="0" style="stop-color:rgb(219,167,121);stop-opacity:1"/><stop offset="0.48" style="stop-color:rgb(228,181,134);stop-opacity:1"/><stop offset="1" style="stop-color:rgb(240,201,153);stop-opacity:1"/></linearGradient>
        <linearGradient id="_Linear4" x1="0" y1="0" x2="1" y2="0" gradientUnits="userSpaceOnUse" gradientTransform="matrix(-1.1818,5.421,-5.421,-1.1818,31.2322,17.7837)"><stop offset="0" style="stop-color:rgb(219,167,121);stop-opacity:1"/><stop offset="0.48" style="stop-color:rgb(228,181,134);stop-opacity:1"/><stop offset="1" style="stop-color:rgb(240,201,153);stop-opacity:1"/></linearGradient>
        <radialGradient id="_Radial5" cx="0" cy="0" r="1" gradientUnits="userSpaceOnUse" gradientTransform="matrix(-5.09445,0.184668,-0.12813,-3.53472,26.8738,21.8685)"><stop offset="0" style="stop-color:rgb(248,199,156);stop-opacity:1"/><stop offset="1" style="stop-color:rgb(247,217,171);stop-opacity:1"/></radialGradient>
        <linearGradient id="_Linear6" x1="0" y1="0" x2="1" y2="0" gradientUnits="userSpaceOnUse" gradientTransform="matrix(0.1916,3.4804,-3.4804,0.1916,20.0373,28.7216)"><stop offset="0" style="stop-color:rgb(255,222,179);stop-opacity:1"/><stop offset="1" style="stop-color:rgb(247,217,171);stop-opacity:1"/></linearGradient>
        <radialGradient id="_Radial7" cx="0" cy="0" r="1" gradientUnits="userSpaceOnUse" gradientTransform="matrix(5.27729,-0.325363,0.218907,3.55061,13.1448,21.9444)"><stop offset="0" style="stop-color:rgb(248,199,156);stop-opacity:1"/><stop offset="1" style="stop-color:rgb(247,217,171);stop-opacity:1"/></radialGradient>
        <linearGradient id="_Linear8" x1="0" y1="0" x2="1" y2="0" gradientUnits="userSpaceOnUse" gradientTransform="matrix(-3.0404,1.0775,-1.0775,-3.0404,28.8468,19.7391)"><stop offset="0" style="stop-color:rgb(251,219,175);stop-opacity:1"/><stop offset="1" style="stop-color:rgb(247,217,171);stop-opacity:1"/></linearGradient>
        <linearGradient id="_Linear9" x1="0" y1="0" x2="1" y2="0" gradientUnits="userSpaceOnUse" gradientTransform="matrix(-0.0069,-0.431,0.431,-0.0069,24.6478,26.8239)"><stop offset="0" style="stop-color:rgb(247,217,171);stop-opacity:1"/><stop offset="0.53" style="stop-color:rgb(246,215,168);stop-opacity:1"/><stop offset="0.87" style="stop-color:rgb(243,207,160);stop-opacity:1"/><stop offset="1" style="stop-color:rgb(241,202,154);stop-opacity:1"/></linearGradient>
        <linearGradient id="_Linear10" x1="0" y1="0" x2="1" y2="0" gradientUnits="userSpaceOnUse" gradientTransform="matrix(-0.1401,-8.7482,8.7482,-0.1401,25.4104,31.546)"><stop offset="0" style="stop-color:rgb(247,217,171);stop-opacity:1"/><stop offset="0.53" style="stop-color:rgb(246,215,168);stop-opacity:1"/><stop offset="0.87" style="stop-color:rgb(243,207,160);stop-opacity:1"/><stop offset="1" style="stop-color:rgb(241,202,154);stop-opacity:1"/></linearGradient>
        <linearGradient id="_Linear11" x1="0" y1="0" x2="1" y2="0" gradientUnits="userSpaceOnUse" gradientTransform="matrix(-0.1433,-8.9504,8.9504,-0.1433,14.9797,31.9371)"><stop offset="0" style="stop-color:rgb(247,217,171);stop-opacity:1"/><stop offset="0.53" style="stop-color:rgb(246,215,168);stop-opacity:1"/><stop offset="0.87" style="stop-color:rgb(243,207,160);stop-opacity:1"/><stop offset="1" style="stop-color:rgb(241,202,154);stop-opacity:1"/></linearGradient>
        <linearGradient id="_Linear12" x1="0" y1="0" x2="1" y2="0" gradientUnits="userSpaceOnUse" gradientTransform="matrix(-0.205,-6.0823,6.0823,-0.205,20.4784,33.7528)"><stop offset="0" style="stop-color:rgb(247,217,171);stop-opacity:1"/><stop offset="0.53" style="stop-color:rgb(246,215,168);stop-opacity:1"/><stop offset="0.87" style="stop-color:rgb(243,207,160);stop-opacity:1"/><stop offset="1" style="stop-color:rgb(241,202,154);stop-opacity:1"/></linearGradient>
        <linearGradient id="_Linear13" x1="0" y1="0" x2="1" y2="0" gradientUnits="userSpaceOnUse" gradientTransform="matrix(7.8321,0.1374,-0.1374,7.8321,16.3651,26.4122)"><stop offset="0" style="stop-color:rgb(232,217,215);stop-opacity:1"/><stop offset="0.14" style="stop-color:rgb(240,230,228);stop-opacity:1"/><stop offset="0.39" style="stop-color:rgb(251,248,248);stop-opacity:1"/><stop offset="0.57" style="stop-color:white;stop-opacity:1"/><stop offset="1" style="stop-color:rgb(232,211,209);stop-opacity:1"/></linearGradient>
        <linearGradient id="_Linear14" x1="0" y1="0" x2="1" y2="0" gradientUnits="userSpaceOnUse" gradientTransform="matrix(-0.199,-5.9058,5.9058,-0.199,20.4809,33.6255)"><stop offset="0" style="stop-color:rgb(247,217,171);stop-opacity:1"/><stop offset="0.53" style="stop-color:rgb(246,215,168);stop-opacity:1"/><stop offset="0.87" style="stop-color:rgb(243,207,160);stop-opacity:1"/><stop offset="1" style="stop-color:rgb(241,202,154);stop-opacity:1"/></linearGradient>
        <linearGradient id="_Linear15" x1="0" y1="0" x2="1" y2="0" gradientUnits="userSpaceOnUse" gradientTransform="matrix(0.1189,2.851,-2.851,0.1189,19.9975,23.5285)"><stop offset="0" style="stop-color:rgb(232,217,215);stop-opacity:1"/><stop offset="0.4" style="stop-color:rgb(239,229,228);stop-opacity:1"/><stop offset="1" style="stop-color:white;stop-opacity:1"/></linearGradient>
        <linearGradient id="_Linear16" x1="0" y1="0" x2="1" y2="0" gradientUnits="userSpaceOnUse" gradientTransform="matrix(-0.196,-12.2353,12.2353,-0.196,20.3141,34.7563)"><stop offset="0" style="stop-color:rgb(247,217,171);stop-opacity:1"/><stop offset="0.53" style="stop-color:rgb(246,215,168);stop-opacity:1"/><stop offset="0.87" style="stop-color:rgb(243,207,160);stop-opacity:1"/><stop offset="1" style="stop-color:rgb(241,202,154);stop-opacity:1"/></linearGradient>
        <linearGradient id="_Linear17" x1="0" y1="0" x2="1" y2="0" gradientUnits="userSpaceOnUse" gradientTransform="matrix(0.2068,8.8883,-8.8883,0.2068,19.8571,13.5013)"><stop offset="0" style="stop-color:rgb(255,222,179);stop-opacity:1"/><stop offset="0.2" style="stop-color:rgb(253,221,177);stop-opacity:1"/><stop offset="1" style="stop-color:rgb(247,217,171);stop-opacity:1"/></linearGradient>
        <linearGradient id="_Linear18" x1="0" y1="0" x2="1" y2="0" gradientUnits="userSpaceOnUse" gradientTransform="matrix(-0.0196,-2.2421,2.2421,-0.0196,20.0636,25.0632)"><stop offset="0" style="stop-color:rgb(247,217,171);stop-opacity:1"/><stop offset="0.52" style="stop-color:rgb(246,215,168);stop-opacity:1"/><stop offset="0.85" style="stop-color:rgb(243,207,160);stop-opacity:1"/><stop offset="1" style="stop-color:rgb(240,201,153);stop-opacity:1"/></linearGradient>
        <linearGradient id="_Linear19" x1="0" y1="0" x2="1" y2="0" gradientUnits="userSpaceOnUse" gradientTransform="matrix(0.1471,5.0119,-5.0119,0.1471,19.91,18.563)"><stop offset="0" style="stop-color:rgb(247,217,171);stop-opacity:1"/><stop offset="0.53" style="stop-color:rgb(246,215,168);stop-opacity:1"/><stop offset="0.87" style="stop-color:rgb(243,207,160);stop-opacity:1"/><stop offset="1" style="stop-color:rgb(241,202,154);stop-opacity:1"/></linearGradient>
        <linearGradient id="_Linear20" x1="0" y1="0" x2="1" y2="0" gradientUnits="userSpaceOnUse" gradientTransform="matrix(0.2928,-2.2192,2.2192,0.2928,19.8427,22.8371)"><stop offset="0" style="stop-color:rgb(255,222,179);stop-opacity:1"/><stop offset="0.28" style="stop-color:rgb(251,220,175);stop-opacity:1"/><stop offset="1" style="stop-color:rgb(247,217,171);stop-opacity:1"/></linearGradient>
        <linearGradient id="_Linear21" x1="0" y1="0" x2="1" y2="0" gradientUnits="userSpaceOnUse" gradientTransform="matrix(-4.52035,-1.1345,1.1345,-4.52035,13.9656,20.7036)"><stop offset="0" style="stop-color:rgb(251,219,175);stop-opacity:1"/><stop offset="1" style="stop-color:rgb(247,217,171);stop-opacity:1"/></linearGradient>
        <linearGradient id="_Linear22" x1="0" y1="0" x2="1" y2="0" gradientUnits="userSpaceOnUse" gradientTransform="matrix(-0.2794,-3.3743,3.3743,-0.2794,25.1671,20.1428)"><stop offset="0" style="stop-color:rgb(247,217,171);stop-opacity:1"/><stop offset="0.52" style="stop-color:rgb(246,215,168);stop-opacity:1"/><stop offset="0.85" style="stop-color:rgb(243,207,160);stop-opacity:1"/><stop offset="1" style="stop-color:rgb(240,201,153);stop-opacity:1"/></linearGradient>
        <linearGradient id="_Linear23" x1="0" y1="0" x2="1" y2="0" gradientUnits="userSpaceOnUse" gradientTransform="matrix(-0.2764,-3.3372,3.3372,-0.2764,14.8206,20.126)"><stop offset="0" style="stop-color:rgb(247,217,171);stop-opacity:1"/><stop offset="0.52" style="stop-color:rgb(246,215,168);stop-opacity:1"/><stop offset="0.85" style="stop-color:rgb(243,207,160);stop-opacity:1"/><stop offset="1" style="stop-color:rgb(240,201,153);stop-opacity:1"/></linearGradient>
        <linearGradient id="_Linear24" x1="0" y1="0" x2="1" y2="0" gradientUnits="userSpaceOnUse" gradientTransform="matrix(-0.057,3.69163,-3.69163,-0.057,20.0086,7.18597)"><stop offset="0" style="stop-color:rgb(247,217,171);stop-opacity:1"/><stop offset="0.48" style="stop-color:rgb(245,213,166);stop-opacity:1"/><stop offset="1" style="stop-color:rgb(240,201,153);stop-opacity:1"/></linearGradient>
        <linearGradient id="_Linear25" x1="0" y1="0" x2="1" y2="0" gradientUnits="userSpaceOnUse" gradientTransform="matrix(5.8426,1.6906,-1.6906,5.8426,12.1165,17.3195)"><stop offset="0" style="stop-color:rgb(240,201,153);stop-opacity:1"/><stop offset="0.52" style="stop-color:rgb(228,181,134);stop-opacity:1"/><stop offset="1" style="stop-color:rgb(219,167,121);stop-opacity:1"/></linearGradient>
        <linearGradient id="_Linear26" x1="0" y1="0" x2="1" y2="0" gradientUnits="userSpaceOnUse" gradientTransform="matrix(-3.7495,-0.9301,0.9301,-3.7495,17.2333,18.8084)"><stop offset="0" style="stop-color:rgb(236,231,231);stop-opacity:1"/><stop offset="0.23" style="stop-color:rgb(246,244,244);stop-opacity:1"/><stop offset="0.53" style="stop-color:rgb(253,252,252);stop-opacity:1"/><stop offset="1" style="stop-color:white;stop-opacity:1"/></linearGradient>
        <linearGradient id="_Linear27" x1="0" y1="0" x2="1" y2="0" gradientUnits="userSpaceOnUse" gradientTransform="matrix(-3.9546,0.1625,-0.1625,-3.9546,16.4945,18.3659)"><stop offset="0" style="stop-color:rgb(148,149,141);stop-opacity:1"/><stop offset="1" style="stop-color:rgb(197,198,192);stop-opacity:1"/></linearGradient>
        <linearGradient id="_Linear28" x1="0" y1="0" x2="1" y2="0" gradientUnits="userSpaceOnUse" gradientTransform="matrix(4.0516,2.1217,-2.1217,4.0516,14.0897,17.576)"><stop offset="0" style="stop-color:rgb(148,149,141);stop-opacity:1"/><stop offset="1" style="stop-color:rgb(197,198,192);stop-opacity:1"/></linearGradient>
        <radialGradient id="_Radial29" cx="0" cy="0" r="1" gradientUnits="userSpaceOnUse" gradientTransform="matrix(2.50694,0,0,2.43919,15.819,18.9059)"><stop offset="0" style="stop-color:rgb(42,58,59);stop-opacity:1"/><stop offset="1" style="stop-color:rgb(28,39,39);stop-opacity:1"/></radialGradient>
        <linearGradient id="_Linear30" x1="0" y1="0" x2="1" y2="0" gradientUnits="userSpaceOnUse" gradientTransform="matrix(4.3003,-0.2105,0.2105,4.3003,12.6026,17.7559)"><stop offset="0" style="stop-color:rgb(103,48,36);stop-opacity:1"/><stop offset="0.34" style="stop-color:rgb(83,39,28);stop-opacity:1"/><stop offset="0.68" style="stop-color:rgb(70,33,24);stop-opacity:1"/><stop offset="1" style="stop-color:rgb(66,31,22);stop-opacity:1"/></linearGradient>
        <linearGradient id="_Linear31" x1="0" y1="0" x2="1" y2="0" gradientUnits="userSpaceOnUse" gradientTransform="matrix(5.6995,1.6492,-1.6492,5.6995,22.0253,17.4087)"><stop offset="0" style="stop-color:rgb(240,201,153);stop-opacity:1"/><stop offset="0.52" style="stop-color:rgb(228,181,134);stop-opacity:1"/><stop offset="1" style="stop-color:rgb(219,167,121);stop-opacity:1"/></linearGradient>
        <linearGradient id="_Linear32" x1="0" y1="0" x2="1" y2="0" gradientUnits="userSpaceOnUse" gradientTransform="matrix(-3.6544,-0.9066,0.9066,-3.6544,26.7978,18.8294)"><stop offset="0" style="stop-color:rgb(236,231,231);stop-opacity:1"/><stop offset="0.23" style="stop-color:rgb(246,244,244);stop-opacity:1"/><stop offset="0.53" style="stop-color:rgb(253,252,252);stop-opacity:1"/><stop offset="1" style="stop-color:white;stop-opacity:1"/></linearGradient>
        <linearGradient id="_Linear33" x1="0" y1="0" x2="1" y2="0" gradientUnits="userSpaceOnUse" gradientTransform="matrix(-3.9545,0.1626,-0.1626,-3.9545,25.9933,18.3601)"><stop offset="0" style="stop-color:rgb(148,149,141);stop-opacity:1"/><stop offset="1" style="stop-color:rgb(197,198,192);stop-opacity:1"/></linearGradient>
        <linearGradient id="_Linear34" x1="0" y1="0" x2="1" y2="0" gradientUnits="userSpaceOnUse" gradientTransform="matrix(4.7327,2.4784,-2.4784,4.7327,23.7092,17.3662)"><stop offset="0" style="stop-color:rgb(148,149,141);stop-opacity:1"/><stop offset="1" style="stop-color:rgb(197,198,192);stop-opacity:1"/></linearGradient>
        <radialGradient id="_Radial35" cx="0" cy="0" r="1" gradientUnits="userSpaceOnUse" gradientTransform="matrix(2.50695,0,0,2.43919,25.3337,18.9064)"><stop offset="0" style="stop-color:rgb(42,58,59);stop-opacity:1"/><stop offset="1" style="stop-color:rgb(28,39,39);stop-opacity:1"/></radialGradient>
        <linearGradient id="_Linear36" x1="0" y1="0" x2="1" y2="0" gradientUnits="userSpaceOnUse" gradientTransform="matrix(4.2578,-0.2084,0.2084,4.2578,22.4689,17.8481)"><stop offset="0" style="stop-color:rgb(103,48,36);stop-opacity:1"/><stop offset="0.34" style="stop-color:rgb(83,39,28);stop-opacity:1"/><stop offset="0.68" style="stop-color:rgb(70,33,24);stop-opacity:1"/><stop offset="1" style="stop-color:rgb(66,31,22);stop-opacity:1"/></linearGradient>
        <linearGradient id="_Linear37" x1="0" y1="0" x2="1" y2="0" gradientUnits="userSpaceOnUse" gradientTransform="matrix(-4.99335,-9.8228,9.8228,-4.99335,14.8075,32.1768)"><stop offset="0" style="stop-color:rgb(246,215,170);stop-opacity:1"/><stop offset="1" style="stop-color:rgb(240,201,152);stop-opacity:1"/></linearGradient>
        <linearGradient id="_Linear38" x1="0" y1="0" x2="1" y2="0" gradientUnits="userSpaceOnUse" gradientTransform="matrix(4.735,-10.0097,10.0097,4.735,25.2368,32.5003)"><stop offset="0" style="stop-color:rgb(246,215,170);stop-opacity:1"/><stop offset="1" style="stop-color:rgb(255,221,178);stop-opacity:1"/></linearGradient>
        <linearGradient id="_Linear39" x1="0" y1="0" x2="1" y2="0" gradientUnits="userSpaceOnUse" gradientTransform="matrix(-0.2503,5.1433,-5.1433,-0.2503,20.4211,29.131)"><stop offset="0" style="stop-color:rgb(219,167,121);stop-opacity:1"/><stop offset="0.48" style="stop-color:rgb(228,181,134);stop-opacity:1"/><stop offset="1" style="stop-color:rgb(240,201,153);stop-opacity:1"/></linearGradient>
    </defs>
</svg>
