<svg width="468" height="259" fill="none" xmlns="http://www.w3.org/2000/svg"><path d="M0 7.02088C0 3.14335 3.14336 0 7.0209 0H460.979C464.857 0 468 3.14336 468 7.0209V251.979C468 255.857 464.857 259 460.979 259H7.02091C3.14338 259 0 255.857 0 251.979V7.02088Z" fill="#F8F8F8"/><path d="M336.906 243V232.859H333.008V231.451H342.526V232.859H338.61V243H336.906ZM349.46 239.281H343.809C343.929 240.974 344.77 241.82 346.331 241.82C347.249 241.82 348.079 241.52 348.821 240.919L349.329 242.083C348.958 242.399 348.499 242.651 347.953 242.836C347.407 243.022 346.85 243.115 346.282 243.115C345.004 243.115 343.994 242.749 343.252 242.017C342.52 241.285 342.154 240.275 342.154 238.986C342.154 238.167 342.312 237.441 342.629 236.808C342.957 236.174 343.41 235.683 343.989 235.333C344.579 234.984 345.245 234.809 345.987 234.809C347.069 234.809 347.915 235.158 348.527 235.857C349.149 236.556 349.46 237.523 349.46 238.757V239.281ZM346.02 236.021C345.387 236.021 344.879 236.223 344.497 236.627C344.125 237.021 343.901 237.588 343.825 238.331H348.035C348.002 237.588 347.811 237.021 347.462 236.627C347.123 236.223 346.643 236.021 346.02 236.021ZM360.458 234.809C362.249 234.809 363.144 235.885 363.144 238.036V243H361.49V238.102C361.49 237.425 361.37 236.933 361.129 236.627C360.9 236.311 360.523 236.152 359.999 236.152C359.398 236.152 358.923 236.36 358.574 236.775C358.224 237.19 358.049 237.758 358.049 238.479V243H356.395V238.102C356.395 237.425 356.275 236.933 356.034 236.627C355.794 236.311 355.417 236.152 354.904 236.152C354.293 236.152 353.812 236.36 353.462 236.775C353.113 237.19 352.938 237.758 352.938 238.479V243H351.284V235.006H352.905V236.218C353.157 235.77 353.495 235.426 353.921 235.186C354.347 234.935 354.833 234.809 355.379 234.809C356.613 234.809 357.416 235.322 357.787 236.349C358.039 235.868 358.399 235.492 358.869 235.219C359.338 234.945 359.868 234.809 360.458 234.809ZM369.702 234.809C370.39 234.809 371.002 234.984 371.537 235.333C372.083 235.683 372.503 236.174 372.798 236.808C373.104 237.441 373.257 238.173 373.257 239.003C373.257 239.822 373.11 240.543 372.815 241.165C372.52 241.788 372.099 242.268 371.553 242.607C371.018 242.945 370.401 243.115 369.702 243.115C369.101 243.115 368.572 242.989 368.113 242.738C367.654 242.476 367.305 242.104 367.065 241.624V245.949H365.41V235.006H367.065V236.316C367.305 235.836 367.654 235.464 368.113 235.202C368.572 234.94 369.101 234.809 369.702 234.809ZM369.309 241.804C370.03 241.804 370.587 241.564 370.98 241.083C371.373 240.592 371.57 239.898 371.57 239.003C371.57 238.096 371.368 237.392 370.964 236.889C370.57 236.387 370.019 236.136 369.309 236.136C368.588 236.136 368.031 236.382 367.638 236.873C367.256 237.365 367.065 238.064 367.065 238.97C367.065 239.876 367.256 240.575 367.638 241.067C368.031 241.558 368.588 241.804 369.309 241.804ZM378.562 243.115C377.776 243.115 377.082 242.945 376.481 242.607C375.892 242.268 375.433 241.788 375.105 241.165C374.789 240.532 374.63 239.8 374.63 238.97C374.63 238.129 374.789 237.397 375.105 236.775C375.433 236.141 375.892 235.655 376.481 235.317C377.082 234.978 377.776 234.809 378.562 234.809C379.348 234.809 380.036 234.978 380.626 235.317C381.227 235.655 381.685 236.141 382.002 236.775C382.33 237.397 382.494 238.129 382.494 238.97C382.494 239.8 382.33 240.532 382.002 241.165C381.685 241.788 381.227 242.268 380.626 242.607C380.036 242.945 379.348 243.115 378.562 243.115ZM378.562 241.804C379.294 241.804 379.851 241.564 380.233 241.083C380.626 240.603 380.823 239.898 380.823 238.97C380.823 238.053 380.626 237.354 380.233 236.873C379.84 236.382 379.283 236.136 378.562 236.136C377.841 236.136 377.284 236.382 376.891 236.873C376.498 237.354 376.301 238.053 376.301 238.97C376.301 239.898 376.492 240.603 376.875 241.083C377.268 241.564 377.83 241.804 378.562 241.804Z" fill="#000"/><path d="M295.802 14.4506H299.848C301.716 14.4506 303.163 14.953 304.19 15.9578C305.216 16.9625 305.73 18.3823 305.73 20.2171C305.73 22.0519 305.216 23.4772 304.19 24.4928C303.163 25.4976 301.716 26 299.848 26H295.802V14.4506ZM299.75 24.5911C302.59 24.5911 304.009 23.1331 304.009 20.2171C304.009 17.312 302.59 15.8595 299.75 15.8595H297.489V24.5911H299.75ZM307.828 26V18.0055H309.483V26H307.828ZM307.713 14.4342H309.614V16.1544H307.713V14.4342ZM318.643 22.2813H312.991C313.112 23.9741 313.952 24.8205 315.514 24.8205C316.432 24.8205 317.262 24.5202 318.004 23.9195L318.512 25.0826C318.141 25.3993 317.682 25.6505 317.136 25.8362C316.59 26.0218 316.033 26.1147 315.465 26.1147C314.187 26.1147 313.177 25.7488 312.434 25.0171C311.703 24.2853 311.337 23.2751 311.337 21.9864C311.337 21.1673 311.495 20.441 311.812 19.8076C312.14 19.1741 312.593 18.6827 313.172 18.3332C313.761 17.9837 314.428 17.809 315.17 17.809C316.251 17.809 317.098 18.1584 317.709 18.8574C318.332 19.5564 318.643 20.5229 318.643 21.757V22.2813ZM315.203 19.0212C314.57 19.0212 314.062 19.2233 313.679 19.6274C313.308 20.0205 313.084 20.5884 313.008 21.3311H317.218C317.185 20.5884 316.994 20.0205 316.645 19.6274C316.306 19.2233 315.826 19.0212 315.203 19.0212ZM324.171 24.8369C324.422 24.8369 324.668 24.8205 324.908 24.7877L324.826 26.0491C324.553 26.0928 324.269 26.1147 323.974 26.1147C322.937 26.1147 322.161 25.8635 321.648 25.3611C321.146 24.8478 320.894 24.1106 320.894 23.1495V19.2833H319.338V18.0055H320.894V15.5974H322.549V18.0055H324.744V19.2833H322.549V23.084C322.549 24.2526 323.09 24.8369 324.171 24.8369ZM329.504 17.809C330.574 17.809 331.366 18.0765 331.879 18.6117C332.403 19.1468 332.666 19.9605 332.666 21.0526V26H331.076V24.6731C330.869 25.1427 330.558 25.5031 330.143 25.7543C329.739 25.9945 329.264 26.1147 328.717 26.1147C328.193 26.1147 327.713 26.0109 327.276 25.8034C326.839 25.585 326.495 25.2846 326.244 24.9024C326.003 24.5202 325.883 24.0942 325.883 23.6246C325.883 23.0458 326.031 22.5925 326.326 22.2649C326.631 21.9263 327.128 21.686 327.816 21.5441C328.515 21.4021 329.471 21.3311 330.683 21.3311H331.06V20.856C331.06 20.2444 330.929 19.8021 330.667 19.5291C330.416 19.256 330.001 19.1195 329.422 19.1195C328.515 19.1195 327.609 19.398 326.702 19.955L326.211 18.7919C326.637 18.497 327.15 18.2622 327.751 18.0875C328.362 17.9018 328.947 17.809 329.504 17.809ZM329.012 24.886C329.613 24.886 330.104 24.684 330.487 24.2799C330.869 23.8649 331.06 23.3352 331.06 22.6908V22.2649H330.765C329.913 22.2649 329.258 22.3031 328.799 22.3796C328.341 22.456 328.013 22.5871 327.816 22.7727C327.62 22.9475 327.522 23.2041 327.522 23.5427C327.522 23.9249 327.658 24.2471 327.931 24.5092C328.215 24.7604 328.575 24.886 329.012 24.886ZM348.815 26H346.948L344.982 22.2976C344.764 21.9045 344.501 21.6314 344.196 21.4785C343.901 21.3147 343.508 21.2328 343.016 21.2328H341.116V26H339.445V14.4506H344.36C345.637 14.4506 346.609 14.7346 347.276 15.3025C347.953 15.8704 348.291 16.7004 348.291 17.7926C348.291 18.6772 348.04 19.4035 347.538 19.9714C347.046 20.5393 346.342 20.8997 345.424 21.0526C345.992 21.2274 346.462 21.6533 346.833 22.3304L348.815 26ZM344.163 19.8731C345.015 19.8731 345.643 19.7093 346.047 19.3816C346.462 19.0431 346.669 18.5243 346.669 17.8253C346.669 17.1264 346.467 16.6185 346.063 16.3018C345.659 15.9742 345.026 15.8103 344.163 15.8103H341.099V19.8731H344.163ZM357.407 22.2813H351.755C351.875 23.9741 352.716 24.8205 354.278 24.8205C355.195 24.8205 356.025 24.5202 356.768 23.9195L357.276 25.0826C356.904 25.3993 356.446 25.6505 355.9 25.8362C355.353 26.0218 354.796 26.1147 354.229 26.1147C352.951 26.1147 351.941 25.7488 351.198 25.0171C350.466 24.2853 350.1 23.2751 350.1 21.9864C350.1 21.1673 350.259 20.441 350.575 19.8076C350.903 19.1741 351.356 18.6827 351.935 18.3332C352.525 17.9837 353.191 17.809 353.934 17.809C355.015 17.809 355.861 18.1584 356.473 18.8574C357.095 19.5564 357.407 20.5229 357.407 21.757V22.2813ZM353.966 19.0212C353.333 19.0212 352.825 19.2233 352.443 19.6274C352.072 20.0205 351.848 20.5884 351.771 21.3311H355.981C355.949 20.5884 355.758 20.0205 355.408 19.6274C355.07 19.2233 354.589 19.0212 353.966 19.0212ZM362.048 26.1147C360.661 26.1147 359.552 25.7761 358.722 25.099L359.23 23.9031C360.049 24.5365 361.005 24.8533 362.097 24.8533C362.632 24.8533 363.042 24.7659 363.326 24.5911C363.609 24.4055 363.751 24.1488 363.751 23.8212C363.751 23.5372 363.653 23.3133 363.457 23.1495C363.271 22.9857 362.943 22.8492 362.474 22.74L361.147 22.4451C360.437 22.2813 359.902 22.0137 359.541 21.6424C359.181 21.271 359.001 20.8014 359.001 20.2335C359.001 19.5127 359.29 18.9284 359.869 18.4806C360.459 18.0328 361.229 17.809 362.179 17.809C362.747 17.809 363.287 17.9018 363.801 18.0875C364.314 18.2622 364.756 18.5134 365.128 18.841L364.62 20.0042C363.833 19.3816 363.02 19.0704 362.179 19.0704C361.676 19.0704 361.278 19.1687 360.983 19.3653C360.699 19.5618 360.557 19.8294 360.557 20.168C360.557 20.441 360.644 20.6649 360.819 20.8396C361.005 21.0035 361.294 21.1291 361.687 21.2164L363.047 21.5277C363.822 21.7024 364.39 21.9755 364.751 22.3468C365.111 22.7072 365.291 23.1823 365.291 23.772C365.291 24.4928 364.996 25.0662 364.407 25.4922C363.828 25.9072 363.042 26.1147 362.048 26.1147ZM370.837 24.8369C371.089 24.8369 371.334 24.8205 371.575 24.7877L371.493 26.0491C371.22 26.0928 370.936 26.1147 370.641 26.1147C369.603 26.1147 368.828 25.8635 368.314 25.3611C367.812 24.8478 367.561 24.1106 367.561 23.1495V19.2833H366.005V18.0055H367.561V15.5974H369.216V18.0055H371.411V19.2833H369.216V23.084C369.216 24.2526 369.756 24.8369 370.837 24.8369ZM377.694 19.2014L376.695 19.2997C375.908 19.3762 375.34 19.6164 374.991 20.0205C374.652 20.4246 374.483 20.9379 374.483 21.5605V26H372.828V18.0055H374.434V19.398C374.86 18.4588 375.728 17.94 377.039 17.8417L377.579 17.809L377.694 19.2014ZM378.828 26V18.0055H380.482V26H378.828ZM378.713 14.4342H380.613V16.1544H378.713V14.4342ZM386.579 24.8369C386.831 24.8369 387.076 24.8205 387.317 24.7877L387.235 26.0491C386.962 26.0928 386.678 26.1147 386.383 26.1147C385.345 26.1147 384.57 25.8635 384.057 25.3611C383.554 24.8478 383.303 24.1106 383.303 23.1495V19.2833H381.747V18.0055H383.303V15.5974H384.958V18.0055H387.153V19.2833H384.958V23.084C384.958 24.2526 385.498 24.8369 386.579 24.8369ZM388.571 26V18.0055H390.225V26H388.571ZM388.456 14.4342H390.356V16.1544H388.456V14.4342ZM398.206 18.0219H399.861L396.388 26H394.897L391.457 18.0219H393.193L395.683 24.1324L398.206 18.0219ZM404.263 17.809C405.333 17.809 406.125 18.0765 406.638 18.6117C407.163 19.1468 407.425 19.9605 407.425 21.0526V26H405.836V24.6731C405.628 25.1427 405.317 25.5031 404.902 25.7543C404.498 25.9945 404.023 26.1147 403.477 26.1147C402.952 26.1147 402.472 26.0109 402.035 25.8034C401.598 25.585 401.254 25.2846 401.003 24.9024C400.763 24.5202 400.643 24.0942 400.643 23.6246C400.643 23.0458 400.79 22.5925 401.085 22.2649C401.391 21.9263 401.888 21.686 402.576 21.5441C403.275 21.4021 404.23 21.3311 405.443 21.3311H405.819V20.856C405.819 20.2444 405.688 19.8021 405.426 19.5291C405.175 19.256 404.76 19.1195 404.181 19.1195C403.275 19.1195 402.368 19.398 401.462 19.955L400.97 18.7919C401.396 18.497 401.91 18.2622 402.51 18.0875C403.122 17.9018 403.706 17.809 404.263 17.809ZM403.772 24.886C404.372 24.886 404.864 24.684 405.246 24.2799C405.628 23.8649 405.819 23.3352 405.819 22.6908V22.2649H405.524C404.673 22.2649 404.017 22.3031 403.559 22.3796C403.1 22.456 402.772 22.5871 402.576 22.7727C402.379 22.9475 402.281 23.2041 402.281 23.5427C402.281 23.9249 402.417 24.2471 402.69 24.5092C402.974 24.7604 403.335 24.886 403.772 24.886Z" fill="#EC3B15"/><path d="M293.599 169.451H297.645C299.513 169.451 300.96 169.953 301.987 170.958C303.013 171.963 303.526 173.382 303.526 175.217C303.526 177.052 303.013 178.477 301.987 179.493C300.96 180.498 299.513 181 297.645 181H293.599V169.451ZM297.547 179.591C300.387 179.591 301.806 178.133 301.806 175.217C301.806 172.312 300.387 170.859 297.547 170.859H295.286V179.591H297.547ZM305.625 181V173.006H307.279V181H305.625ZM305.51 169.434H307.411V171.154H305.51V169.434ZM316.44 177.281H310.788C310.908 178.974 311.749 179.82 313.311 179.82C314.229 179.82 315.059 179.52 315.801 178.919L316.309 180.083C315.938 180.399 315.479 180.651 314.933 180.836C314.387 181.022 313.83 181.115 313.262 181.115C311.984 181.115 310.974 180.749 310.231 180.017C309.5 179.285 309.134 178.275 309.134 176.986C309.134 176.167 309.292 175.441 309.609 174.808C309.936 174.174 310.39 173.683 310.969 173.333C311.558 172.984 312.224 172.809 312.967 172.809C314.048 172.809 314.895 173.158 315.506 173.857C316.129 174.556 316.44 175.523 316.44 176.757V177.281ZM313 174.021C312.366 174.021 311.859 174.223 311.476 174.627C311.105 175.021 310.881 175.588 310.805 176.331H315.015C314.982 175.588 314.791 175.021 314.442 174.627C314.103 174.223 313.622 174.021 313 174.021ZM321.968 179.837C322.219 179.837 322.465 179.82 322.705 179.788L322.623 181.049C322.35 181.093 322.066 181.115 321.771 181.115C320.734 181.115 319.958 180.863 319.445 180.361C318.942 179.848 318.691 179.111 318.691 178.15V174.283H317.135V173.006H318.691V170.597H320.346V173.006H322.541V174.283H320.346V178.084C320.346 179.253 320.886 179.837 321.968 179.837ZM327.301 172.809C328.371 172.809 329.163 173.077 329.676 173.612C330.2 174.147 330.462 174.96 330.462 176.053V181H328.873V179.673C328.666 180.143 328.355 180.503 327.94 180.754C327.535 180.995 327.06 181.115 326.514 181.115C325.99 181.115 325.51 181.011 325.073 180.803C324.636 180.585 324.292 180.285 324.041 179.902C323.8 179.52 323.68 179.094 323.68 178.625C323.68 178.046 323.828 177.593 324.123 177.265C324.428 176.926 324.925 176.686 325.613 176.544C326.312 176.402 327.268 176.331 328.48 176.331H328.857V175.856C328.857 175.244 328.726 174.802 328.464 174.529C328.213 174.256 327.798 174.12 327.219 174.12C326.312 174.12 325.406 174.398 324.499 174.955L324.008 173.792C324.434 173.497 324.947 173.262 325.548 173.087C326.159 172.902 326.744 172.809 327.301 172.809ZM326.809 179.886C327.41 179.886 327.901 179.684 328.284 179.28C328.666 178.865 328.857 178.335 328.857 177.691V177.265H328.562C327.71 177.265 327.055 177.303 326.596 177.38C326.138 177.456 325.81 177.587 325.613 177.773C325.417 177.947 325.318 178.204 325.318 178.543C325.318 178.925 325.455 179.247 325.728 179.509C326.012 179.76 326.372 179.886 326.809 179.886ZM344.04 175.053C344.707 175.239 345.22 175.572 345.58 176.053C345.952 176.533 346.137 177.134 346.137 177.855C346.137 178.848 345.793 179.624 345.105 180.181C344.428 180.727 343.478 181 342.255 181H337.242V169.451H342.075C343.265 169.451 344.193 169.718 344.859 170.253C345.537 170.778 345.875 171.515 345.875 172.465C345.875 173.077 345.711 173.606 345.384 174.054C345.067 174.502 344.619 174.835 344.04 175.053ZM338.896 174.447H341.812C343.429 174.447 344.237 173.836 344.237 172.612C344.237 172.001 344.035 171.548 343.631 171.253C343.238 170.958 342.632 170.81 341.812 170.81H338.896V174.447ZM342.075 179.64C342.915 179.64 343.533 179.487 343.926 179.182C344.319 178.876 344.515 178.401 344.515 177.756C344.515 177.101 344.313 176.615 343.909 176.298C343.516 175.971 342.905 175.807 342.075 175.807H338.896V179.64H342.075ZM351.49 172.809C352.56 172.809 353.352 173.077 353.865 173.612C354.389 174.147 354.652 174.96 354.652 176.053V181H353.063V179.673C352.855 180.143 352.544 180.503 352.129 180.754C351.725 180.995 351.25 181.115 350.704 181.115C350.179 181.115 349.699 181.011 349.262 180.803C348.825 180.585 348.481 180.285 348.23 179.902C347.99 179.52 347.869 179.094 347.869 178.625C347.869 178.046 348.017 177.593 348.312 177.265C348.618 176.926 349.114 176.686 349.803 176.544C350.501 176.402 351.457 176.331 352.669 176.331H353.046V175.856C353.046 175.244 352.915 174.802 352.653 174.529C352.402 174.256 351.987 174.12 351.408 174.12C350.501 174.12 349.595 174.398 348.689 174.955L348.197 173.792C348.623 173.497 349.136 173.262 349.737 173.087C350.349 172.902 350.933 172.809 351.49 172.809ZM350.998 179.886C351.599 179.886 352.091 179.684 352.473 179.28C352.855 178.865 353.046 178.335 353.046 177.691V177.265H352.751C351.899 177.265 351.244 177.303 350.785 177.38C350.327 177.456 349.999 177.587 349.803 177.773C349.606 177.947 349.508 178.204 349.508 178.543C349.508 178.925 349.644 179.247 349.917 179.509C350.201 179.76 350.562 179.886 350.998 179.886ZM356.915 181V169.451H358.569V181H356.915ZM364.224 172.809C365.295 172.809 366.086 173.077 366.6 173.612C367.124 174.147 367.386 174.96 367.386 176.053V181H365.797V179.673C365.59 180.143 365.278 180.503 364.863 180.754C364.459 180.995 363.984 181.115 363.438 181.115C362.914 181.115 362.433 181.011 361.996 180.803C361.56 180.585 361.216 180.285 360.964 179.902C360.724 179.52 360.604 179.094 360.604 178.625C360.604 178.046 360.751 177.593 361.046 177.265C361.352 176.926 361.849 176.686 362.537 176.544C363.236 176.402 364.192 176.331 365.404 176.331H365.781V175.856C365.781 175.244 365.65 174.802 365.388 174.529C365.136 174.256 364.721 174.12 364.142 174.12C363.236 174.12 362.33 174.398 361.423 174.955L360.932 173.792C361.358 173.497 361.871 173.262 362.471 173.087C363.083 172.902 363.667 172.809 364.224 172.809ZM363.733 179.886C364.334 179.886 364.825 179.684 365.207 179.28C365.59 178.865 365.781 178.335 365.781 177.691V177.265H365.486C364.634 177.265 363.979 177.303 363.52 177.38C363.061 177.456 362.734 177.587 362.537 177.773C362.34 177.947 362.242 178.204 362.242 178.543C362.242 178.925 362.379 179.247 362.652 179.509C362.936 179.76 363.296 179.886 363.733 179.886ZM373.958 172.809C375.869 172.809 376.825 173.885 376.825 176.036V181H375.17V176.118C375.17 175.441 375.034 174.944 374.761 174.627C374.499 174.311 374.083 174.152 373.516 174.152C372.849 174.152 372.314 174.36 371.91 174.775C371.506 175.19 371.304 175.747 371.304 176.446V181H369.649V173.006H371.271V174.283C371.533 173.803 371.899 173.437 372.369 173.186C372.838 172.935 373.368 172.809 373.958 172.809ZM382.594 181.115C381.786 181.115 381.081 180.945 380.481 180.607C379.891 180.268 379.432 179.793 379.105 179.182C378.788 178.559 378.63 177.833 378.63 177.003C378.63 176.173 378.793 175.441 379.121 174.808C379.46 174.174 379.929 173.683 380.53 173.333C381.142 172.984 381.851 172.809 382.66 172.809C383.217 172.809 383.752 172.902 384.265 173.087C384.789 173.273 385.215 173.524 385.543 173.841L385.035 175.021C384.314 174.431 383.566 174.136 382.791 174.136C382.026 174.136 381.425 174.387 380.989 174.889C380.563 175.381 380.35 176.08 380.35 176.986C380.35 177.882 380.563 178.575 380.989 179.067C381.415 179.547 382.015 179.788 382.791 179.788C383.566 179.788 384.314 179.493 385.035 178.903L385.543 180.099C385.193 180.416 384.757 180.667 384.232 180.853C383.708 181.027 383.162 181.115 382.594 181.115ZM393.855 177.281H388.203C388.323 178.974 389.164 179.82 390.726 179.82C391.644 179.82 392.474 179.52 393.216 178.919L393.724 180.083C393.353 180.399 392.894 180.651 392.348 180.836C391.802 181.022 391.245 181.115 390.677 181.115C389.399 181.115 388.389 180.749 387.646 180.017C386.915 179.285 386.549 178.275 386.549 176.986C386.549 176.167 386.707 175.441 387.024 174.808C387.351 174.174 387.805 173.683 388.383 173.333C388.973 172.984 389.639 172.809 390.382 172.809C391.463 172.809 392.31 173.158 392.921 173.857C393.544 174.556 393.855 175.523 393.855 176.757V177.281ZM390.415 174.021C389.781 174.021 389.274 174.223 388.891 174.627C388.52 175.021 388.296 175.588 388.22 176.331H392.43C392.397 175.588 392.206 175.021 391.856 174.627C391.518 174.223 391.037 174.021 390.415 174.021ZM399.02 172.809C400.091 172.809 400.882 173.077 401.396 173.612C401.92 174.147 402.182 174.96 402.182 176.053V181H400.593V179.673C400.385 180.143 400.074 180.503 399.659 180.754C399.255 180.995 398.78 181.115 398.234 181.115C397.71 181.115 397.229 181.011 396.792 180.803C396.355 180.585 396.011 180.285 395.76 179.902C395.52 179.52 395.4 179.094 395.4 178.625C395.4 178.046 395.547 177.593 395.842 177.265C396.148 176.926 396.645 176.686 397.333 176.544C398.032 176.402 398.988 176.331 400.2 176.331H400.577V175.856C400.577 175.244 400.446 174.802 400.183 174.529C399.932 174.256 399.517 174.12 398.938 174.12C398.032 174.12 397.125 174.398 396.219 174.955L395.728 173.792C396.153 173.497 396.667 173.262 397.267 173.087C397.879 172.902 398.463 172.809 399.02 172.809ZM398.529 179.886C399.13 179.886 399.621 179.684 400.003 179.28C400.385 178.865 400.577 178.335 400.577 177.691V177.265H400.282C399.43 177.265 398.775 177.303 398.316 177.38C397.857 177.456 397.53 177.587 397.333 177.773C397.136 177.947 397.038 178.204 397.038 178.543C397.038 178.925 397.175 179.247 397.448 179.509C397.732 179.76 398.092 179.886 398.529 179.886ZM411.817 169.451V181H410.179V179.624C409.939 180.104 409.589 180.476 409.131 180.738C408.672 180.989 408.142 181.115 407.542 181.115C406.854 181.115 406.236 180.94 405.69 180.59C405.155 180.241 404.735 179.75 404.429 179.116C404.134 178.483 403.987 177.756 403.987 176.937C403.987 176.107 404.134 175.381 404.429 174.758C404.735 174.136 405.155 173.655 405.69 173.317C406.226 172.978 406.843 172.809 407.542 172.809C408.142 172.809 408.666 172.94 409.114 173.202C409.573 173.453 409.922 173.814 410.163 174.283V169.451H411.817ZM407.935 179.804C408.656 179.804 409.207 179.558 409.589 179.067C409.982 178.575 410.179 177.876 410.179 176.97C410.179 176.064 409.982 175.365 409.589 174.873C409.207 174.382 408.656 174.136 407.935 174.136C407.214 174.136 406.651 174.382 406.247 174.873C405.854 175.354 405.658 176.042 405.658 176.937C405.658 177.833 405.86 178.537 406.264 179.051C406.668 179.553 407.225 179.804 407.935 179.804ZM417.466 172.809C418.536 172.809 419.328 173.077 419.842 173.612C420.366 174.147 420.628 174.96 420.628 176.053V181H419.039V179.673C418.831 180.143 418.52 180.503 418.105 180.754C417.701 180.995 417.226 181.115 416.68 181.115C416.156 181.115 415.675 181.011 415.238 180.803C414.801 180.585 414.457 180.285 414.206 179.902C413.966 179.52 413.846 179.094 413.846 178.625C413.846 178.046 413.993 177.593 414.288 177.265C414.594 176.926 415.091 176.686 415.779 176.544C416.478 176.402 417.433 176.331 418.646 176.331H419.022V175.856C419.022 175.244 418.891 174.802 418.629 174.529C418.378 174.256 417.963 174.12 417.384 174.12C416.478 174.12 415.571 174.398 414.665 174.955L414.173 173.792C414.599 173.497 415.113 173.262 415.713 173.087C416.325 172.902 416.909 172.809 417.466 172.809ZM416.975 179.886C417.575 179.886 418.067 179.684 418.449 179.28C418.831 178.865 419.022 178.335 419.022 177.691V177.265H418.728C417.876 177.265 417.22 177.303 416.762 177.38C416.303 177.456 415.975 177.587 415.779 177.773C415.582 177.947 415.484 178.204 415.484 178.543C415.484 178.925 415.62 179.247 415.893 179.509C416.177 179.76 416.538 179.886 416.975 179.886Z" fill="#00CFC3"/><path d="M77.724 14.8118H82.5075C83.7307 14.8118 84.6809 15.1122 85.358 15.7128C86.0351 16.3135 86.3737 17.1654 86.3737 18.2685C86.3737 19.3606 86.0351 20.2125 85.358 20.8241C84.6809 21.4357 83.7307 21.7415 82.5075 21.7415H79.4113V26.3612H77.724V14.8118ZM82.3273 20.3817C83.9437 20.3817 84.7519 19.6773 84.7519 18.2685C84.7519 16.8705 83.9437 16.1715 82.3273 16.1715H79.4113V20.3817H82.3273ZM94.7899 22.6425H89.138C89.2582 24.3353 90.0991 25.1817 91.6609 25.1817C92.5783 25.1817 93.4083 24.8814 94.151 24.2807L94.6588 25.4438C94.2875 25.7605 93.8288 26.0117 93.2827 26.1974C92.7366 26.383 92.1797 26.4759 91.6117 26.4759C90.3339 26.4759 89.3237 26.11 88.5811 25.3783C87.8493 24.6465 87.4835 23.6363 87.4835 22.3476C87.4835 21.5285 87.6418 20.8022 87.9585 20.1688C88.2862 19.5353 88.7394 19.0439 89.3182 18.6944C89.908 18.3449 90.5742 18.1702 91.3169 18.1702C92.3981 18.1702 93.2445 18.5196 93.8561 19.2186C94.4786 19.9176 94.7899 20.8841 94.7899 22.1182V22.6425ZM91.3496 19.3824C90.7162 19.3824 90.2083 19.5845 89.8261 19.9886C89.4548 20.3817 89.2309 20.9497 89.1544 21.6923H93.3646C93.3319 20.9497 93.1407 20.3817 92.7913 19.9886C92.4527 19.5845 91.9721 19.3824 91.3496 19.3824ZM99.4309 26.4759C98.0438 26.4759 96.9353 26.1373 96.1053 25.4602L96.6131 24.2643C97.4322 24.8977 98.3879 25.2145 99.48 25.2145C100.015 25.2145 100.425 25.1271 100.709 24.9523C100.993 24.7667 101.135 24.51 101.135 24.1824C101.135 23.8984 101.036 23.6745 100.84 23.5107C100.654 23.3469 100.326 23.2104 99.8568 23.1012L98.5298 22.8063C97.82 22.6425 97.2848 22.3749 96.9244 22.0036C96.564 21.6322 96.3838 21.1626 96.3838 20.5947C96.3838 19.8739 96.6732 19.2896 97.252 18.8418C97.8418 18.394 98.6118 18.1702 99.5619 18.1702C100.13 18.1702 100.67 18.263 101.184 18.4487C101.697 18.6234 102.139 18.8746 102.511 19.2022L102.003 20.3654C101.217 19.7428 100.403 19.4316 99.5619 19.4316C99.0595 19.4316 98.6609 19.5299 98.366 19.7265C98.0821 19.923 97.9401 20.1906 97.9401 20.5292C97.9401 20.8022 98.0275 21.0261 98.2022 21.2008C98.3879 21.3647 98.6773 21.4903 99.0705 21.5776L100.43 21.8889C101.206 22.0636 101.773 22.3367 102.134 22.708C102.494 23.0684 102.675 23.5435 102.675 24.1332C102.675 24.8541 102.38 25.4274 101.79 25.8534C101.211 26.2684 100.425 26.4759 99.4309 26.4759ZM107.989 26.4759C107.203 26.4759 106.509 26.3066 105.909 25.968C105.319 25.6295 104.86 25.1489 104.533 24.5264C104.216 23.893 104.058 23.1612 104.058 22.3312C104.058 21.4903 104.216 20.7585 104.533 20.136C104.86 19.5026 105.319 19.0166 105.909 18.678C106.509 18.3394 107.203 18.1702 107.989 18.1702C108.776 18.1702 109.464 18.3394 110.053 18.678C110.654 19.0166 111.113 19.5026 111.429 20.136C111.757 20.7585 111.921 21.4903 111.921 22.3312C111.921 23.1612 111.757 23.893 111.429 24.5264C111.113 25.1489 110.654 25.6295 110.053 25.968C109.464 26.3066 108.776 26.4759 107.989 26.4759ZM107.989 25.1653C108.721 25.1653 109.278 24.925 109.66 24.4445C110.053 23.964 110.25 23.2595 110.25 22.3312C110.25 21.4138 110.053 20.7148 109.66 20.2343C109.267 19.7428 108.71 19.4971 107.989 19.4971C107.268 19.4971 106.711 19.7428 106.318 20.2343C105.925 20.7148 105.728 21.4138 105.728 22.3312C105.728 23.2595 105.92 23.964 106.302 24.4445C106.695 24.925 107.257 25.1653 107.989 25.1653Z" fill="#000"/><path d="M90.6646 94.5897V217.825H358.196V196.424C358.196 196.424 300.083 204.794 248.74 186.625C213.491 173.594 197.058 157.806 170.179 134.466C120.265 96.1208 90.6646 94.5897 90.6646 94.5897Z" fill="#ADEEEA"/><path d="M358.196 217.825H90.6646V35.6896" stroke="#C5C5C5" stroke-width="0.680481" stroke-miterlimit="10"/><path d="M358.196 196.424C358.196 196.424 300.083 204.794 248.74 186.625C213.491 173.594 197.058 157.806 170.179 134.466C120.265 96.1208 90.6646 94.5897 90.6646 94.5897" stroke="#00CFC3" stroke-width="0.680481" stroke-miterlimit="10"/><g filter="url(#filter0_d)"><path fill-rule="evenodd" clip-rule="evenodd" d="M358.763 203.928C363.347 203.928 367.062 200.212 367.062 195.629C367.062 191.045 363.347 187.33 358.763 187.33C354.18 187.33 350.464 191.045 350.464 195.629C350.464 200.212 354.18 203.928 358.763 203.928Z" fill="#00CFC3"/><path d="M365.238 195.629C365.238 199.205 362.339 202.104 358.763 202.104C355.187 202.104 352.288 199.205 352.288 195.629C352.288 192.052 355.187 189.153 358.763 189.153C362.339 189.153 365.238 192.052 365.238 195.629Z" stroke="#fff" stroke-width="3.64713"/></g><path d="M357.548 94.2161V39.6075C357.548 39.6075 329.444 37.43 304.981 57.7083C291.167 69.1744 282.049 81.8654 274.972 94.2161H357.548Z" fill="#FFBAAB"/><path d="M357.65 39.0629C357.65 39.0629 329.546 36.8854 305.083 57.1637C257.449 96.7678 265.479 150.832 222.337 154.711C199.813 156.65 176.302 138.277 169.633 133.888C119.72 95.5769 90.085 94.0458 90.085 94.0458" stroke="#EC3B15" stroke-width="0.680481" stroke-miterlimit="10"/><path d="M358.366 43.3502C360.771 43.3502 362.721 41.4003 362.721 38.9951C362.721 36.5899 360.771 34.64 358.366 34.64C355.961 34.64 354.011 36.5899 354.011 38.9951C354.011 41.4003 355.961 43.3502 358.366 43.3502Z" fill="#EC3B15"/><path d="M89.6772 94.2164H91.3784" stroke="#EC3B15" stroke-width="0.680481" stroke-miterlimit="10"/><path d="M94.8135 94.2164H354.111" stroke="#EC3B15" stroke-width="0.680481" stroke-miterlimit="10" stroke-dasharray="3.43 3.43"/><path d="M355.847 94.2164H357.548" stroke="#EC3B15" stroke-width="0.680481" stroke-miterlimit="10"/><path d="M169.361 137.359C171.767 137.359 173.717 135.409 173.717 133.004C173.717 130.598 171.767 128.649 169.361 128.649C166.956 128.649 165.006 130.598 165.006 133.004C165.006 135.409 166.956 137.359 169.361 137.359Z" fill="#EC3B15"/><path d="M169.26 216.805V215.104" stroke="#EC3B15" stroke-width="0.680481" stroke-miterlimit="10"/><path d="M169.26 211.633V136.917" stroke="#EC3B15" stroke-width="0.680481" stroke-miterlimit="10" stroke-dasharray="3.47 3.47"/><path d="M169.26 135.181V133.48" stroke="#EC3B15" stroke-width="0.680481" stroke-miterlimit="10"/><g filter="url(#filter1_d)"><path fill-rule="evenodd" clip-rule="evenodd" d="M90.7988 103.295C95.3822 103.295 99.0977 99.5793 99.0977 94.996C99.0977 90.4127 95.3822 86.6971 90.7988 86.6971C86.2155 86.6971 82.5 90.4127 82.5 94.996C82.5 99.5793 86.2155 103.295 90.7988 103.295Z" fill="#00CFC3"/><path d="M97.2741 94.996C97.2741 98.5722 94.375 101.471 90.7988 101.471C87.2226 101.471 84.3236 98.5722 84.3236 94.996C84.3236 91.4198 87.2226 88.5207 90.7988 88.5207C94.375 88.5207 97.2741 91.4198 97.2741 94.996Z" stroke="#fff" stroke-width="3.64713"/></g><defs><filter id="filter0_d" x="340.739" y="182.467" width="36.0491" height="36.0491" filterUnits="userSpaceOnUse" color-interpolation-filters="sRGB"><feFlood flood-opacity="0" result="BackgroundImageFix"/><feColorMatrix in="SourceAlpha" values="0 0 0 0 0 0 0 0 0 0 0 0 0 0 0 0 0 0 127 0"/><feOffset dy="4.86284"/><feGaussianBlur stdDeviation="4.86284"/><feColorMatrix values="0 0 0 0 0 0 0 0 0 0 0 0 0 0 0 0 0 0 0.16 0"/><feBlend in2="BackgroundImageFix" result="effect1_dropShadow"/><feBlend in="SourceGraphic" in2="effect1_dropShadow" result="shape"/></filter><filter id="filter1_d" x="72.7743" y="81.8343" width="36.0491" height="36.0491" filterUnits="userSpaceOnUse" color-interpolation-filters="sRGB"><feFlood flood-opacity="0" result="BackgroundImageFix"/><feColorMatrix in="SourceAlpha" values="0 0 0 0 0 0 0 0 0 0 0 0 0 0 0 0 0 0 127 0"/><feOffset dy="4.86284"/><feGaussianBlur stdDeviation="4.86284"/><feColorMatrix values="0 0 0 0 0 0 0 0 0 0 0 0 0 0 0 0 0 0 0.16 0"/><feBlend in2="BackgroundImageFix" result="effect1_dropShadow"/><feBlend in="SourceGraphic" in2="effect1_dropShadow" result="shape"/></filter></defs></svg>