<svg width="468" height="259" viewBox="0 0 468 259" fill="none" xmlns="http://www.w3.org/2000/svg">
<path d="M0 7.02088C0 3.14335 3.14336 0 7.0209 0H460.979C464.857 0 468 3.14336 468 7.0209V251.979C468 255.857 464.857 259 460.979 259H7.02091C3.14338 259 0 255.857 0 251.979V7.02088Z" fill="#F8F8F8"/>
<path d="M351.109 234.065L350.229 235.697L349.093 235.057L348.453 236.321L346.965 235.505L347.797 233.953L348.981 234.545L349.653 233.249L351.109 234.065ZM353.933 241.656H347.221C346.576 241.656 346.147 241.646 345.933 241.624C345.725 241.603 345.499 241.547 345.254 241.456C344.816 241.307 344.456 241.003 344.174 240.544C343.891 240.086 343.75 239.574 343.75 239.009C343.75 238.79 343.76 238.595 343.782 238.425C343.803 238.249 343.846 238.043 343.91 237.809C344 237.462 344.102 237.171 344.214 236.937C344.326 236.702 344.523 236.385 344.806 235.985L345.254 236.305C345.024 236.726 344.867 237.059 344.782 237.305C344.702 237.55 344.662 237.793 344.662 238.033C344.662 238.337 344.758 238.611 344.95 238.857C345.147 239.097 345.403 239.254 345.717 239.329C345.904 239.377 346.147 239.414 346.445 239.441C346.749 239.467 347.067 239.481 347.397 239.481H353.181C353.031 239.075 352.909 238.787 352.813 238.617C352.701 238.414 352.519 238.155 352.269 237.841L352.989 235.985C353.389 236.556 353.65 237.078 353.773 237.553C353.879 237.969 353.933 238.582 353.933 239.393V241.656ZM358.164 230.994L357.284 232.625L356.148 231.985L355.508 233.249L354.021 232.433L354.852 230.882L356.036 231.473L356.708 230.178L358.164 230.994ZM358.924 241.656H353.373V239.481H358.172C358.172 239.017 358.159 238.686 358.132 238.489C358.089 238.185 358.001 237.921 357.868 237.697C357.697 238.027 357.468 238.281 357.18 238.457C356.892 238.633 356.586 238.721 356.26 238.721C355.834 238.721 355.474 238.579 355.18 238.297C354.887 238.014 354.74 237.659 354.74 237.233C354.74 236.604 354.932 235.857 355.316 234.993C355.738 234.044 356.164 233.569 356.596 233.569C357.156 233.569 357.684 234.057 358.18 235.033C358.676 236.009 358.924 237.041 358.924 238.129V241.656ZM357.188 236.273C357.044 236.022 356.916 235.849 356.804 235.753C356.698 235.652 356.58 235.601 356.452 235.601C356.292 235.601 356.148 235.673 356.02 235.817C355.892 235.961 355.828 236.129 355.828 236.321C355.828 236.444 355.876 236.548 355.972 236.633C356.074 236.713 356.202 236.753 356.356 236.753C356.479 236.753 356.602 236.718 356.724 236.649C356.852 236.574 357.007 236.449 357.188 236.273ZM366.315 241.104C366.315 242.022 365.926 242.928 365.147 243.824C364.369 244.72 363.601 245.168 362.843 245.168C362.401 245.168 361.916 245.027 361.388 244.744C360.865 244.461 360.06 243.904 358.972 243.072L359.308 242.608C359.884 242.992 360.356 243.248 360.724 243.376C361.028 243.483 361.372 243.536 361.756 243.536C362.273 243.536 362.785 243.392 363.291 243.104C363.889 242.763 364.507 242.214 365.147 241.456C364.923 241.488 364.737 241.504 364.587 241.504C364.059 241.504 363.638 241.334 363.323 240.992C363.014 240.646 362.859 240.176 362.859 239.585C362.859 238.785 363.043 238.014 363.411 237.273C363.811 236.468 364.267 236.065 364.779 236.065C365.206 236.065 365.569 236.356 365.867 236.937C366.166 237.518 366.315 238.219 366.315 239.041V241.104ZM365.355 239.481C365.206 238.622 364.902 238.193 364.443 238.193C364.278 238.193 364.145 238.259 364.043 238.393C363.947 238.521 363.899 238.662 363.899 238.817C363.899 239.009 364.003 239.169 364.211 239.297C364.425 239.419 364.705 239.481 365.051 239.481H365.355ZM370.155 241.656H365.755V239.481H369.195L368.227 234.049L367.715 233.713C367.715 233.399 367.763 233.081 367.859 232.761C367.982 232.356 368.19 231.873 368.483 231.313L368.851 231.505C368.851 231.537 368.84 231.623 368.819 231.761C368.819 231.937 368.931 232.108 369.155 232.273C369.352 232.423 369.667 232.588 370.099 232.769C370.051 233.111 369.979 233.444 369.883 233.769C369.792 234.094 369.688 234.385 369.571 234.641L369.283 234.529L370.155 239.481V241.656ZM373.114 239.329C373.114 239.803 373.058 240.238 372.946 240.632C372.834 241.022 372.618 241.547 372.298 242.208L371.818 242.016C371.946 241.334 372.01 240.779 372.01 240.352C372.01 240.027 371.984 239.55 371.93 238.921C371.877 238.291 371.81 237.67 371.73 237.057C371.65 236.438 371.52 235.702 371.339 234.849C371.275 234.55 371.243 234.345 371.243 234.233C371.243 234.068 371.325 233.788 371.49 233.393C371.656 232.993 371.888 232.511 372.186 231.945L372.666 234.777C372.842 235.854 372.965 236.788 373.034 237.577C373.088 238.185 373.114 238.769 373.114 239.329Z" fill="black"/>
<path d="M309.246 14.9135C309.246 15.3135 309.176 15.6414 309.038 15.8974C308.883 16.1854 308.67 16.3294 308.398 16.3294C308.302 16.3294 308.214 16.3134 308.134 16.2814C308.054 16.2494 307.963 16.1987 307.862 16.1294C307.75 16.3214 307.646 16.4653 307.55 16.5613C307.379 16.732 307.2 16.8173 307.014 16.8173C306.79 16.8173 306.622 16.7426 306.51 16.5933C306.398 16.4387 306.342 16.228 306.342 15.9614C306.342 15.8228 306.361 15.6868 306.398 15.5535C306.435 15.4201 306.489 15.2682 306.558 15.0975L306.726 15.0255C306.726 15.0682 306.721 15.1375 306.71 15.2335C306.699 15.3295 306.694 15.4095 306.694 15.4735C306.694 15.5908 306.718 15.6974 306.766 15.7934C306.814 15.8841 306.886 15.9294 306.982 15.9294C307.211 15.9294 307.395 15.7801 307.534 15.4815C307.598 15.3428 307.678 15.0735 307.774 14.6736L307.942 14.6256C307.984 14.8869 308.019 15.0468 308.046 15.1055C308.11 15.2708 308.216 15.3535 308.366 15.3535C308.568 15.3535 308.728 15.2202 308.846 14.9535C308.942 14.7402 308.99 14.5189 308.99 14.2896L309.158 14.2416C309.179 14.3429 309.198 14.4576 309.214 14.5856C309.235 14.7082 309.246 14.8175 309.246 14.9135ZM309.909 14.3134L309.03 15.9452L307.894 15.3052L307.254 16.5691L305.766 15.7532L306.598 14.2014L307.782 14.7933L308.454 13.4975L309.909 14.3134ZM310.309 20.6566C310.309 20.9766 310.283 21.3019 310.229 21.6325C310.181 21.9578 310.117 22.2244 310.037 22.4324C309.888 22.8377 309.52 23.195 308.934 23.5043C308.39 23.7923 307.878 23.9362 307.398 23.9362C306.982 23.9362 306.651 23.7923 306.406 23.5043C306.161 23.2163 306.038 22.8324 306.038 22.3524C306.038 21.9151 306.099 21.4859 306.222 21.0646C306.35 20.6433 306.577 20.1127 306.902 19.4728L306.614 19.2808C306.705 19.0355 306.827 18.7395 306.982 18.3929C307.136 18.0409 307.275 17.745 307.398 17.505L308.182 17.9689C308.523 18.1769 308.848 18.4009 309.158 18.6409C309.595 18.9715 309.896 19.2834 310.061 19.5767C310.227 19.8647 310.309 20.2247 310.309 20.6566ZM309.126 21.2965C309.126 21.1952 308.939 20.9846 308.566 20.6646C308.198 20.3447 307.835 20.07 307.478 19.8407C307.136 20.3793 306.966 20.8273 306.966 21.1846C306.966 21.3552 307.035 21.5019 307.174 21.6245C307.318 21.7472 307.488 21.8085 307.686 21.8085C307.952 21.8085 308.259 21.7472 308.606 21.6245C308.952 21.4965 309.126 21.3872 309.126 21.2965ZM320.404 23.6563H319.58C319.34 23.6563 319.167 23.6616 319.06 23.6723C318.959 23.6829 318.908 23.7176 318.908 23.7763C319.063 23.8669 319.207 23.9309 319.34 23.9682C319.479 24.0002 319.57 24.0456 319.612 24.1042C319.655 24.1575 319.676 24.2455 319.676 24.3682C319.676 24.7468 319.567 25.2001 319.348 25.728C319.135 26.2506 318.924 26.5759 318.716 26.7039C318.519 26.8692 317.933 27.0585 316.957 27.2719C315.986 27.4905 315.149 27.5998 314.445 27.5998C313.442 27.5998 312.632 27.3918 312.013 26.9759C311.395 26.5599 311.085 26.016 311.085 25.3441C311.085 24.6935 311.221 24.0722 311.493 23.4803C311.824 22.7657 312.435 21.8618 313.325 20.7686L313.805 21.1046C313.245 21.7818 312.856 22.3338 312.637 22.7604C312.424 23.187 312.317 23.6056 312.317 24.0162C312.317 24.5868 312.552 25.0108 313.021 25.2881C313.496 25.5601 314.226 25.696 315.213 25.696C315.725 25.696 316.434 25.6027 317.341 25.4161C318.247 25.2294 318.7 25.0668 318.7 24.9281C318.7 24.8641 318.527 24.8055 318.181 24.7521C317.834 24.6988 317.453 24.6722 317.037 24.6722C316.429 24.6722 316.125 24.5388 316.125 24.2722C316.125 24.1495 316.197 23.9309 316.341 23.6163C316.442 23.3976 316.546 23.179 316.653 22.9604C316.85 22.5177 317.226 22.1604 317.781 21.8885C318.341 21.6165 318.924 21.4805 319.532 21.4805H320.404V23.6563ZM317.085 28.4317L316.301 29.3276L315.453 28.7997L314.829 29.4716L313.821 28.9117L314.573 27.9518L315.453 28.5117L316.077 27.7918L317.085 28.4317ZM330.371 23.6563C329.774 23.6563 329.278 23.6136 328.883 23.5283C328.489 23.443 328.099 23.307 327.715 23.1203C327.406 23.339 327.129 23.483 326.884 23.5523C326.644 23.6216 326.281 23.6563 325.796 23.6563H324.492C324.135 23.6563 323.852 23.563 323.644 23.3763C323.436 23.1897 323.249 22.8804 323.084 22.4484C322.791 22.8964 322.463 23.2163 322.1 23.4083C321.791 23.5736 321.42 23.6563 320.988 23.6563H319.844V21.4805H320.988C321.548 21.4805 322.015 21.3232 322.388 21.0086C322.873 20.598 323.116 19.974 323.116 19.1368L323.644 19.2168C323.633 19.3874 323.623 19.5821 323.612 19.8007C323.601 20.0194 323.596 20.262 323.596 20.5286C323.596 20.8006 323.689 21.0272 323.876 21.2086C324.063 21.3899 324.276 21.4805 324.516 21.4805H325.5C326.15 21.4805 326.614 21.3899 326.892 21.2086C327.227 20.9899 327.395 20.582 327.395 19.9847C327.395 19.8567 327.435 19.7421 327.515 19.6407C327.563 19.5821 327.662 19.4941 327.811 19.3768L328.115 19.1368C328.126 19.2381 328.134 19.3768 328.139 19.5528C328.145 19.7234 328.147 19.8354 328.147 19.8887C328.147 20.182 328.105 20.5713 328.019 21.0566C328.217 21.1526 328.438 21.2352 328.683 21.3045C328.929 21.3739 329.187 21.4272 329.459 21.4645C329.459 21.2832 329.393 21.0486 329.259 20.7606C329.126 20.4726 329.059 20.278 329.059 20.1767C329.059 20.038 329.078 19.9314 329.115 19.8567C329.126 19.8301 329.185 19.7474 329.291 19.6087L329.971 18.6889C330.115 19.0248 330.216 19.3314 330.275 19.6087C330.339 19.8807 330.371 20.222 330.371 20.6326V23.6563ZM334.211 23.6563H333.091C332.467 23.6563 332.016 23.4003 331.739 22.8884C331.43 22.3231 331.275 21.3712 331.275 20.0327V17.753C331.275 17.2357 331.203 16.8331 331.059 16.5451C330.99 16.4065 330.83 16.2065 330.579 15.9452L331.443 13.9454C331.752 14.372 331.968 14.7933 332.091 15.2093C332.235 15.6945 332.307 16.3131 332.307 17.065V18.6409C332.307 19.7554 332.382 20.5286 332.531 20.9606C332.648 21.3072 332.835 21.4805 333.091 21.4805H334.211V23.6563ZM338.442 12.9935L337.562 14.6253L336.426 13.9854L335.786 15.2493L334.299 14.4333L335.131 12.8815L336.314 13.4735L336.986 12.1776L338.442 12.9935ZM339.202 23.6563H333.651V21.4805H338.45C338.45 21.0166 338.437 20.686 338.41 20.4886C338.368 20.1847 338.28 19.9207 338.146 19.6967C337.976 20.0274 337.746 20.2807 337.458 20.4566C337.17 20.6326 336.864 20.7206 336.538 20.7206C336.112 20.7206 335.752 20.5793 335.459 20.2967C335.165 20.014 335.019 19.6594 335.019 19.2328C335.019 18.6035 335.211 17.8569 335.594 16.9931C336.016 16.0438 336.442 15.5692 336.874 15.5692C337.434 15.5692 337.962 16.0572 338.458 17.033C338.954 18.0089 339.202 19.0408 339.202 20.1287V23.6563ZM337.466 18.2729C337.322 18.0223 337.194 17.849 337.082 17.753C336.976 17.6516 336.858 17.601 336.73 17.601C336.57 17.601 336.426 17.673 336.298 17.817C336.17 17.9609 336.106 18.1289 336.106 18.3209C336.106 18.4435 336.154 18.5475 336.25 18.6329C336.352 18.7128 336.48 18.7528 336.634 18.7528C336.757 18.7528 336.88 18.7182 337.002 18.6489C337.13 18.5742 337.285 18.4489 337.466 18.2729ZM348.713 12.4416L347.833 13.9294L346.697 13.2895L346.057 14.5533L344.569 13.7374L345.401 12.3296L346.585 12.9215L347.281 11.6977L348.713 12.4416ZM350.561 23.6563H349.513C349.321 23.6563 349.145 23.6163 348.985 23.5363C348.676 23.3816 348.414 23.099 348.201 22.6884C347.913 22.1231 347.726 21.3499 347.641 20.3687C347.278 20.8166 346.996 21.1339 346.793 21.3205C346.5 21.5925 346.255 21.7285 346.057 21.7285C345.956 21.7285 345.828 21.7125 345.673 21.6805L344.697 21.4885C344.281 21.4032 344.026 21.3419 343.93 21.3045C343.834 21.2672 343.786 21.2006 343.786 21.1046C343.786 20.9606 343.97 20.5073 344.337 19.7447C344.711 18.9768 344.98 18.5022 345.145 18.3209C345.279 18.1769 345.516 17.9903 345.857 17.761C346.06 17.6223 346.348 17.4437 346.721 17.225L347.145 16.9771C347.129 16.9024 347.116 16.8277 347.105 16.7531C347.1 16.6731 347.097 16.5984 347.097 16.5291C347.097 16.3265 347.142 16.0732 347.233 15.7692C347.329 15.4599 347.497 15.0786 347.737 14.6253L348.505 19.6167C348.628 20.4007 348.788 20.9313 348.985 21.2086C349.113 21.3899 349.289 21.4805 349.513 21.4805H350.561V23.6563ZM347.449 19.1368L347.289 18.1769C347.118 18.2569 346.985 18.3209 346.889 18.3689C346.596 18.5235 346.361 18.6675 346.185 18.8008C346.057 18.9075 345.951 19.0061 345.865 19.0968C345.759 19.2141 345.705 19.3021 345.705 19.3608C345.705 19.4354 345.799 19.4941 345.985 19.5368C346.172 19.5794 346.356 19.6007 346.537 19.6007C346.655 19.6007 346.777 19.5687 346.905 19.5048C347.033 19.4354 347.214 19.3128 347.449 19.1368ZM355.008 23.6563H350.001V21.4805H354.208C354.15 21.1179 354.043 20.8113 353.888 20.5606C353.808 20.422 353.622 20.182 353.328 19.8407L353.968 17.9369C354.368 18.3902 354.64 18.8648 354.784 19.3608C354.934 19.8567 355.008 20.5926 355.008 21.5685V23.6563ZM354.88 25.0641L354 26.6959L352.864 26.056L352.225 27.3198L350.737 26.5039L351.569 24.9521L352.752 25.5441L353.424 24.2482L354.88 25.0641ZM359.456 23.6563H354.448V21.4805H358.656C358.597 21.1179 358.49 20.8113 358.336 20.5606C358.256 20.422 358.069 20.182 357.776 19.8407L358.416 17.9369C358.816 18.3902 359.088 18.8648 359.232 19.3608C359.381 19.8567 359.456 20.5926 359.456 21.5685V23.6563ZM359.216 16.4411C359.168 16.6118 359.104 16.7371 359.024 16.8171C358.965 16.8757 358.874 16.9237 358.752 16.9611L357.024 17.489C357.131 17.297 357.224 17.1664 357.304 17.097C357.384 17.0224 357.523 16.9477 357.72 16.8731C357.571 16.7771 357.461 16.6891 357.392 16.6091C357.328 16.5238 357.296 16.4411 357.296 16.3611C357.296 16.2918 357.317 16.2145 357.36 16.1292C357.403 16.0385 357.459 15.9505 357.528 15.8652C357.875 15.4012 358.219 15.1693 358.56 15.1693C358.661 15.1693 358.741 15.2039 358.8 15.2733C358.864 15.3372 358.896 15.4226 358.896 15.5292C358.896 15.6145 358.882 15.6892 358.856 15.7532C358.834 15.8119 358.786 15.9025 358.712 16.0252C358.445 15.8918 358.264 15.8252 358.168 15.8252C358.072 15.8252 357.976 15.8492 357.88 15.8972C357.816 15.9292 357.757 15.9718 357.704 16.0252C357.704 16.0945 357.832 16.2011 358.088 16.3451C358.344 16.4891 358.528 16.5611 358.64 16.5611C358.709 16.5611 358.901 16.5211 359.216 16.4411ZM362.415 21.3285C362.415 21.8032 362.359 22.2378 362.247 22.6324C362.135 23.0217 361.919 23.547 361.599 24.2082L361.12 24.0162C361.248 23.3336 361.312 22.779 361.312 22.3524C361.312 22.0271 361.285 21.5499 361.232 20.9206C361.178 20.2913 361.112 19.6701 361.032 19.0568C360.952 18.4382 360.821 17.7023 360.64 16.8491C360.576 16.5504 360.544 16.3451 360.544 16.2331C360.544 16.0678 360.626 15.7879 360.792 15.3932C360.957 14.9933 361.189 14.5107 361.487 13.9454L361.967 16.7771C362.143 17.8543 362.266 18.7875 362.335 19.5767C362.389 20.1847 362.415 20.7686 362.415 21.3285ZM367.255 13.1455L366.295 14.9373L364.423 13.9614L365.423 12.1536L367.255 13.1455ZM368.623 23.6563H364.999C364.647 23.6563 364.378 23.5816 364.191 23.4323C363.962 23.251 363.847 22.955 363.847 22.5444C363.847 22.3098 363.858 22.0565 363.879 21.7845C363.906 21.5125 363.943 21.2379 363.991 20.9606L364.295 20.9446C364.338 21.1312 364.431 21.2672 364.575 21.3525C364.724 21.4379 364.903 21.4805 365.111 21.4805H367.863C367.74 20.6966 367.527 20.07 367.223 19.6007C366.972 19.2115 366.623 18.8755 366.175 18.5929L366.751 16.0972C367.444 16.6144 367.935 17.281 368.223 18.0969C368.489 18.8488 368.623 19.8461 368.623 21.0886V23.6563ZM373.286 13.8894L372.326 15.6812L370.454 14.7053L371.47 12.8975L373.286 13.8894ZM376.542 19.8407L375.646 22.1125C374.211 22.5551 373.025 22.8964 372.086 23.1363C371.27 23.3443 370.582 23.4883 370.022 23.5683C369.612 23.6269 369.199 23.6563 368.783 23.6563H368.063V21.4805H368.927C369.081 21.4805 369.196 21.4779 369.271 21.4725C369.431 21.4512 369.588 21.4352 369.743 21.4245C369.476 21.0246 369.297 20.702 369.207 20.4566C369.116 20.206 369.071 19.926 369.071 19.6167C369.071 18.8222 369.399 18.1289 370.054 17.537C370.716 16.9397 371.486 16.6411 372.366 16.6411C372.958 16.6411 373.523 16.8357 374.062 17.225C374.558 17.5876 374.921 18.0276 375.15 18.5449L374.814 18.8328C374.393 18.6729 374.057 18.5689 373.806 18.5209C373.561 18.4729 373.257 18.4489 372.894 18.4489C372.233 18.4489 371.66 18.5022 371.174 18.6089C370.561 18.7422 370.254 18.9342 370.254 19.1848C370.254 19.5528 370.996 20.1607 372.478 21.0086L376.542 19.8407ZM386.996 12.4416L386.117 13.9294L384.981 13.2895L384.341 14.5533L382.853 13.7374L383.685 12.3296L384.869 12.9215L385.565 11.6977L386.996 12.4416ZM388.844 23.6563H387.796C387.604 23.6563 387.428 23.6163 387.268 23.5363C386.959 23.3816 386.698 23.099 386.485 22.6884C386.197 22.1231 386.01 21.3499 385.925 20.3687C385.562 20.8166 385.279 21.1339 385.077 21.3205C384.783 21.5925 384.538 21.7285 384.341 21.7285C384.239 21.7285 384.112 21.7125 383.957 21.6805L382.981 21.4885C382.565 21.4032 382.309 21.3419 382.213 21.3045C382.117 21.2672 382.069 21.2006 382.069 21.1046C382.069 20.9606 382.253 20.5073 382.621 19.7447C382.994 18.9768 383.264 18.5022 383.429 18.3209C383.562 18.1769 383.8 17.9903 384.141 17.761C384.343 17.6223 384.631 17.4437 385.005 17.225L385.429 16.9771C385.413 16.9024 385.399 16.8277 385.389 16.7531C385.383 16.6731 385.381 16.5984 385.381 16.5291C385.381 16.3265 385.426 16.0732 385.517 15.7692C385.613 15.4599 385.781 15.0786 386.021 14.6253L386.789 19.6167C386.911 20.4007 387.071 20.9313 387.268 21.2086C387.396 21.3899 387.572 21.4805 387.796 21.4805H388.844V23.6563ZM385.733 19.1368L385.573 18.1769C385.402 18.2569 385.269 18.3209 385.173 18.3689C384.879 18.5235 384.645 18.6675 384.469 18.8008C384.341 18.9075 384.234 19.0061 384.149 19.0968C384.042 19.2141 383.989 19.3021 383.989 19.3608C383.989 19.4354 384.082 19.4941 384.269 19.5368C384.455 19.5794 384.639 19.6007 384.821 19.6007C384.938 19.6007 385.061 19.5687 385.189 19.5048C385.317 19.4354 385.498 19.3128 385.733 19.1368ZM393.292 23.6563H388.284V21.4805H392.492C392.433 21.1179 392.327 20.8113 392.172 20.5606C392.092 20.422 391.905 20.182 391.612 19.8407L392.252 17.9369C392.652 18.3902 392.924 18.8648 393.068 19.3608C393.217 19.8567 393.292 20.5926 393.292 21.5685V23.6563ZM393.164 25.0641L392.284 26.6959L391.148 26.056L390.508 27.3198L389.02 26.5039L389.852 24.9521L391.036 25.5441L391.708 24.2482L393.164 25.0641ZM400.091 23.6483C399.531 23.6483 398.872 23.539 398.115 23.3203C397.449 23.1283 396.862 22.9017 396.355 22.6404C396.046 23.1043 395.665 23.4083 395.212 23.5523C394.993 23.6216 394.694 23.6563 394.316 23.6563H392.732V21.4805H394.316C394.796 21.4805 395.177 21.4219 395.46 21.3045C395.822 21.1552 396.073 20.8966 396.211 20.5286C396.515 19.8514 396.905 19.2941 397.379 18.8568C397.801 18.4675 398.158 18.2729 398.451 18.2729C398.723 18.2729 399.059 18.6835 399.459 19.5048C399.88 20.374 400.091 21.1739 400.091 21.9045V23.6483ZM398.595 21.2326C398.595 21.1152 398.48 20.9126 398.251 20.6246C397.995 20.3047 397.774 20.1447 397.587 20.1447C397.379 20.1447 397.203 20.3847 397.059 20.8646C397.337 20.9713 397.547 21.0512 397.691 21.1046C398.123 21.2646 398.366 21.3445 398.419 21.3445C398.536 21.3445 398.595 21.3072 398.595 21.2326ZM408.666 23.6563H399.531V21.4805H405.218C404.573 20.8139 403.976 20.334 403.427 20.0407C402.941 19.7794 402.467 19.6487 402.003 19.6487C401.864 19.6487 401.736 19.6567 401.619 19.6727C401.507 19.6834 401.341 19.7127 401.123 19.7607C401.416 19.0888 401.741 18.5929 402.099 18.2729C402.461 17.9529 402.872 17.793 403.331 17.793C403.683 17.793 404.021 17.8783 404.346 18.0489C404.672 18.2196 405.037 18.4942 405.442 18.8728C405.762 19.1715 406.216 19.6381 406.802 20.2727C407.202 20.7206 407.506 21.0112 407.714 21.1446C407.927 21.2779 408.245 21.3899 408.666 21.4805V23.6563Z" fill="#EC3B15"/>
<path d="M309.486 168.442L308.606 169.929L307.47 169.289L306.83 170.553L305.342 169.737L306.174 168.33L307.358 168.922L308.054 167.698L309.486 168.442ZM311.333 179.656H310.285C310.093 179.656 309.917 179.616 309.758 179.536C309.448 179.382 309.187 179.099 308.974 178.688C308.686 178.123 308.499 177.35 308.414 176.369C308.051 176.817 307.768 177.134 307.566 177.321C307.272 177.593 307.027 177.728 306.83 177.728C306.729 177.728 306.601 177.712 306.446 177.681L305.47 177.489C305.054 177.403 304.798 177.342 304.702 177.305C304.606 177.267 304.558 177.201 304.558 177.105C304.558 176.961 304.742 176.507 305.11 175.745C305.483 174.977 305.753 174.502 305.918 174.321C306.051 174.177 306.289 173.99 306.63 173.761C306.833 173.622 307.12 173.444 307.494 173.225L307.918 172.977C307.902 172.902 307.888 172.828 307.878 172.753C307.872 172.673 307.87 172.598 307.87 172.529C307.87 172.326 307.915 172.073 308.006 171.769C308.102 171.46 308.27 171.079 308.51 170.625L309.278 175.617C309.4 176.401 309.56 176.931 309.758 177.209C309.885 177.39 310.061 177.481 310.285 177.481H311.333V179.656ZM308.222 175.137L308.062 174.177C307.891 174.257 307.758 174.321 307.662 174.369C307.368 174.524 307.134 174.668 306.958 174.801C306.83 174.907 306.723 175.006 306.638 175.097C306.531 175.214 306.478 175.302 306.478 175.361C306.478 175.435 306.571 175.494 306.758 175.537C306.945 175.579 307.128 175.601 307.31 175.601C307.427 175.601 307.55 175.569 307.678 175.505C307.806 175.435 307.987 175.313 308.222 175.137ZM315.173 179.656H310.773V177.481H314.213L313.245 172.049L312.733 171.713C312.733 171.399 312.781 171.081 312.877 170.761C313 170.356 313.208 169.873 313.501 169.313L313.869 169.505C313.869 169.537 313.858 169.623 313.837 169.761C313.837 169.937 313.949 170.108 314.173 170.273C314.37 170.423 314.685 170.588 315.117 170.769C315.069 171.111 314.997 171.444 314.901 171.769C314.81 172.094 314.706 172.385 314.589 172.641L314.301 172.529L315.173 177.481V179.656ZM320.788 179.656H317.165C316.813 179.656 316.543 179.582 316.357 179.432C316.127 179.251 316.013 178.955 316.013 178.544C316.013 178.31 316.023 178.056 316.045 177.784C316.071 177.513 316.109 177.238 316.157 176.961L316.461 176.945C316.503 177.131 316.597 177.267 316.741 177.353C316.89 177.438 317.069 177.481 317.277 177.481H320.028C319.906 176.697 319.692 176.07 319.388 175.601C319.138 175.211 318.788 174.875 318.341 174.593L318.916 172.097C319.61 172.614 320.1 173.281 320.388 174.097C320.655 174.849 320.788 175.846 320.788 177.089V179.656ZM325.108 171.105L324.228 172.737L323.092 172.097L322.452 173.361L320.964 172.545L321.796 170.993L322.98 171.585L323.652 170.289L325.108 171.105ZM325.236 179.656H320.228V177.481H324.436C324.377 177.118 324.27 176.811 324.116 176.561C324.036 176.422 323.849 176.182 323.556 175.841L324.196 173.937C324.596 174.39 324.868 174.865 325.012 175.361C325.161 175.857 325.236 176.593 325.236 177.569V179.656ZM329.819 168.489C329.819 168.58 329.811 168.673 329.795 168.769C329.779 168.865 329.763 168.961 329.747 169.057L329.083 168.657C328.817 168.951 328.635 169.145 328.539 169.241C328.145 169.625 327.814 169.817 327.547 169.817H326.964C327.246 169.684 327.577 169.468 327.955 169.169C328.297 168.897 328.555 168.657 328.731 168.449C328.566 168.348 328.441 168.241 328.355 168.13C328.249 167.991 328.195 167.839 328.195 167.674C328.195 167.322 328.297 167.012 328.499 166.746C328.707 166.474 328.931 166.338 329.171 166.338C329.31 166.338 329.435 166.412 329.547 166.562C329.659 166.711 329.715 166.892 329.715 167.106C329.715 167.207 329.699 167.314 329.667 167.426C329.641 167.532 329.574 167.732 329.467 168.026C329.553 168.1 329.641 168.172 329.731 168.241C329.79 168.3 329.819 168.383 329.819 168.489ZM329.219 167.586C329.219 167.442 329.169 167.308 329.067 167.186C328.966 167.063 328.867 167.002 328.771 167.002C328.718 167.002 328.675 167.02 328.643 167.058C328.617 167.095 328.603 167.132 328.603 167.17C328.603 167.287 328.67 167.41 328.803 167.538L329.155 167.81C329.198 167.703 329.219 167.628 329.219 167.586ZM333.155 175.841L332.259 178.112C330.824 178.555 329.638 178.896 328.699 179.136C327.883 179.344 327.195 179.488 326.636 179.568C326.225 179.627 325.812 179.656 325.396 179.656H324.676V177.481H325.54C325.694 177.481 325.809 177.478 325.884 177.473C326.044 177.451 326.201 177.435 326.356 177.425C326.089 177.025 325.91 176.702 325.82 176.457C325.729 176.206 325.684 175.926 325.684 175.617C325.684 174.822 326.012 174.129 326.668 173.537C327.329 172.94 328.099 172.641 328.979 172.641C329.571 172.641 330.136 172.836 330.675 173.225C331.171 173.588 331.534 174.028 331.763 174.545L331.427 174.833C331.006 174.673 330.67 174.569 330.419 174.521C330.174 174.473 329.87 174.449 329.507 174.449C328.846 174.449 328.273 174.502 327.787 174.609C327.174 174.742 326.868 174.934 326.868 175.185C326.868 175.553 327.609 176.161 329.091 177.009L333.155 175.841ZM340.002 179.656L338.962 179.648C337.986 179.648 337.122 179.731 336.37 179.896C335.618 180.062 335.243 180.251 335.243 180.464C335.451 181.104 335.634 181.704 335.794 182.264C335.96 182.824 336.042 183.355 336.042 183.856C336.042 184.218 336.005 184.512 335.93 184.736C335.861 184.96 335.728 185.205 335.531 185.472C335.472 184.768 335.341 184.029 335.139 183.256C335.069 182.984 334.896 182.411 334.619 181.536C334.448 180.997 334.363 180.64 334.363 180.464C334.363 180.214 334.432 179.902 334.571 179.528C334.683 179.224 334.811 178.955 334.955 178.72C335.125 178.454 335.421 178.243 335.842 178.088C336.269 177.934 336.917 177.808 337.786 177.712C337.36 177.115 336.986 176.817 336.666 176.817C336.528 176.817 336.397 176.87 336.274 176.977C336.152 177.083 335.952 177.318 335.674 177.681L335.291 177.489C335.525 176.673 335.813 176.046 336.154 175.609C336.501 175.166 336.88 174.945 337.29 174.945C337.648 174.945 338.045 175.15 338.482 175.561C338.919 175.971 339.426 176.611 340.002 177.481V179.656ZM349.513 168.442L348.633 169.929L347.497 169.289L346.857 170.553L345.369 169.737L346.201 168.33L347.385 168.922L348.081 167.698L349.513 168.442ZM351.361 179.656H350.313C350.121 179.656 349.945 179.616 349.785 179.536C349.476 179.382 349.214 179.099 349.001 178.688C348.713 178.123 348.526 177.35 348.441 176.369C348.078 176.817 347.796 177.134 347.593 177.321C347.3 177.593 347.054 177.728 346.857 177.728C346.756 177.728 346.628 177.712 346.473 177.681L345.497 177.489C345.081 177.403 344.825 177.342 344.729 177.305C344.633 177.267 344.585 177.201 344.585 177.105C344.585 176.961 344.769 176.507 345.137 175.745C345.511 174.977 345.78 174.502 345.945 174.321C346.079 174.177 346.316 173.99 346.657 173.761C346.86 173.622 347.148 173.444 347.521 173.225L347.945 172.977C347.929 172.902 347.916 172.828 347.905 172.753C347.9 172.673 347.897 172.598 347.897 172.529C347.897 172.326 347.942 172.073 348.033 171.769C348.129 171.46 348.297 171.079 348.537 170.625L349.305 175.617C349.428 176.401 349.588 176.931 349.785 177.209C349.913 177.39 350.089 177.481 350.313 177.481H351.361V179.656ZM348.249 175.137L348.089 174.177C347.918 174.257 347.785 174.321 347.689 174.369C347.396 174.524 347.161 174.668 346.985 174.801C346.857 174.907 346.751 175.006 346.665 175.097C346.559 175.214 346.505 175.302 346.505 175.361C346.505 175.435 346.599 175.494 346.785 175.537C346.972 175.579 347.156 175.601 347.337 175.601C347.454 175.601 347.577 175.569 347.705 175.505C347.833 175.435 348.014 175.313 348.249 175.137ZM355.808 179.656H350.801V177.481H355.008C354.95 177.118 354.843 176.811 354.688 176.561C354.608 176.422 354.422 176.182 354.128 175.841L354.768 173.937C355.168 174.39 355.44 174.865 355.584 175.361C355.733 175.857 355.808 176.593 355.808 177.569V179.656ZM355.68 181.064L354.8 182.696L353.664 182.056L353.024 183.32L351.537 182.504L352.369 180.952L353.552 181.544L354.224 180.248L355.68 181.064ZM360.256 179.656H355.248V177.481H359.456C359.397 177.118 359.29 176.811 359.136 176.561C359.056 176.422 358.869 176.182 358.576 175.841L359.216 173.937C359.616 174.39 359.888 174.865 360.032 175.361C360.181 175.857 360.256 176.593 360.256 177.569V179.656ZM360.016 172.441C359.968 172.612 359.904 172.737 359.824 172.817C359.765 172.876 359.674 172.924 359.552 172.961L357.824 173.489C357.931 173.297 358.024 173.166 358.104 173.097C358.184 173.022 358.323 172.948 358.52 172.873C358.371 172.777 358.261 172.689 358.192 172.609C358.128 172.524 358.096 172.441 358.096 172.361C358.096 172.292 358.117 172.214 358.16 172.129C358.203 172.038 358.259 171.951 358.328 171.865C358.674 171.401 359.018 171.169 359.36 171.169C359.461 171.169 359.541 171.204 359.6 171.273C359.664 171.337 359.696 171.423 359.696 171.529C359.696 171.615 359.682 171.689 359.656 171.753C359.634 171.812 359.586 171.903 359.512 172.025C359.245 171.892 359.064 171.825 358.968 171.825C358.872 171.825 358.776 171.849 358.68 171.897C358.616 171.929 358.557 171.972 358.504 172.025C358.504 172.094 358.632 172.201 358.888 172.345C359.144 172.489 359.328 172.561 359.44 172.561C359.509 172.561 359.701 172.521 360.016 172.441ZM363.215 177.329C363.215 177.803 363.159 178.238 363.047 178.632C362.935 179.022 362.719 179.547 362.399 180.208L361.919 180.016C362.047 179.334 362.111 178.779 362.111 178.352C362.111 178.027 362.085 177.55 362.031 176.921C361.978 176.291 361.911 175.67 361.831 175.057C361.751 174.438 361.621 173.702 361.439 172.849C361.375 172.55 361.343 172.345 361.343 172.233C361.343 172.068 361.426 171.788 361.591 171.393C361.757 170.993 361.989 170.511 362.287 169.945L362.767 172.777C362.943 173.854 363.066 174.788 363.135 175.577C363.189 176.185 363.215 176.769 363.215 177.329ZM368.055 169.145L367.095 170.937L365.223 169.961L366.223 168.154L368.055 169.145ZM369.423 179.656H365.799C365.447 179.656 365.178 179.582 364.991 179.432C364.762 179.251 364.647 178.955 364.647 178.544C364.647 178.31 364.658 178.056 364.679 177.784C364.706 177.513 364.743 177.238 364.791 176.961L365.095 176.945C365.138 177.131 365.231 177.267 365.375 177.353C365.524 177.438 365.703 177.481 365.911 177.481H368.663C368.54 176.697 368.327 176.07 368.023 175.601C367.772 175.211 367.423 174.875 366.975 174.593L367.551 172.097C368.244 172.614 368.735 173.281 369.023 174.097C369.289 174.849 369.423 175.846 369.423 177.089V179.656ZM374.086 169.889L373.126 171.681L371.254 170.705L372.27 168.898L374.086 169.889ZM377.342 175.841L376.446 178.112C375.011 178.555 373.825 178.896 372.886 179.136C372.07 179.344 371.382 179.488 370.822 179.568C370.412 179.627 369.998 179.656 369.583 179.656H368.863V177.481H369.727C369.881 177.481 369.996 177.478 370.07 177.473C370.23 177.451 370.388 177.435 370.542 177.425C370.276 177.025 370.097 176.702 370.006 176.457C369.916 176.206 369.871 175.926 369.871 175.617C369.871 174.822 370.198 174.129 370.854 173.537C371.516 172.94 372.286 172.641 373.166 172.641C373.758 172.641 374.323 172.836 374.862 173.225C375.358 173.588 375.72 174.028 375.95 174.545L375.614 174.833C375.193 174.673 374.857 174.569 374.606 174.521C374.361 174.473 374.057 174.449 373.694 174.449C373.033 174.449 372.46 174.502 371.974 174.609C371.361 174.742 371.054 174.934 371.054 175.185C371.054 175.553 371.796 176.161 373.278 177.009L377.342 175.841ZM387.796 168.442L386.917 169.929L385.781 169.289L385.141 170.553L383.653 169.737L384.485 168.33L385.669 168.922L386.365 167.698L387.796 168.442ZM389.644 179.656H388.596C388.404 179.656 388.228 179.616 388.068 179.536C387.759 179.382 387.498 179.099 387.284 178.688C386.997 178.123 386.81 177.35 386.725 176.369C386.362 176.817 386.079 177.134 385.877 177.321C385.583 177.593 385.338 177.728 385.141 177.728C385.039 177.728 384.911 177.712 384.757 177.681L383.781 177.489C383.365 177.403 383.109 177.342 383.013 177.305C382.917 177.267 382.869 177.201 382.869 177.105C382.869 176.961 383.053 176.507 383.421 175.745C383.794 174.977 384.064 174.502 384.229 174.321C384.362 174.177 384.599 173.99 384.941 173.761C385.143 173.622 385.431 173.444 385.805 173.225L386.229 172.977C386.213 172.902 386.199 172.828 386.189 172.753C386.183 172.673 386.181 172.598 386.181 172.529C386.181 172.326 386.226 172.073 386.317 171.769C386.413 171.46 386.581 171.079 386.821 170.625L387.588 175.617C387.711 176.401 387.871 176.931 388.068 177.209C388.196 177.39 388.372 177.481 388.596 177.481H389.644V179.656ZM386.533 175.137L386.373 174.177C386.202 174.257 386.069 174.321 385.973 174.369C385.679 174.524 385.445 174.668 385.269 174.801C385.141 174.907 385.034 175.006 384.949 175.097C384.842 175.214 384.789 175.302 384.789 175.361C384.789 175.435 384.882 175.494 385.069 175.537C385.255 175.579 385.439 175.601 385.621 175.601C385.738 175.601 385.861 175.569 385.989 175.505C386.117 175.435 386.298 175.313 386.533 175.137ZM394.092 179.656H389.084V177.481H393.292C393.233 177.118 393.126 176.811 392.972 176.561C392.892 176.422 392.705 176.182 392.412 175.841L393.052 173.937C393.452 174.39 393.724 174.865 393.868 175.361C394.017 175.857 394.092 176.593 394.092 177.569V179.656ZM393.964 181.064L393.084 182.696L391.948 182.056L391.308 183.32L389.82 182.504L390.652 180.952L391.836 181.544L392.508 180.248L393.964 181.064ZM400.891 179.648C400.331 179.648 399.672 179.539 398.915 179.32C398.249 179.128 397.662 178.902 397.155 178.64C396.846 179.104 396.465 179.408 396.011 179.552C395.793 179.622 395.494 179.656 395.116 179.656H393.532V177.481H395.116C395.595 177.481 395.977 177.422 396.259 177.305C396.622 177.155 396.873 176.897 397.011 176.529C397.315 175.851 397.705 175.294 398.179 174.857C398.6 174.468 398.958 174.273 399.251 174.273C399.523 174.273 399.859 174.684 400.259 175.505C400.68 176.374 400.891 177.174 400.891 177.904V179.648ZM399.395 177.233C399.395 177.115 399.28 176.913 399.051 176.625C398.795 176.305 398.574 176.145 398.387 176.145C398.179 176.145 398.003 176.385 397.859 176.865C398.137 176.971 398.347 177.051 398.491 177.105C398.923 177.265 399.166 177.345 399.219 177.345C399.336 177.345 399.395 177.307 399.395 177.233ZM409.466 179.656H400.331V177.481H406.018C405.373 176.814 404.776 176.334 404.226 176.041C403.741 175.779 403.267 175.649 402.803 175.649C402.664 175.649 402.536 175.657 402.419 175.673C402.307 175.683 402.141 175.713 401.923 175.761C402.216 175.089 402.541 174.593 402.899 174.273C403.261 173.953 403.672 173.793 404.131 173.793C404.482 173.793 404.821 173.878 405.146 174.049C405.472 174.22 405.837 174.494 406.242 174.873C406.562 175.171 407.016 175.638 407.602 176.273C408.002 176.721 408.306 177.011 408.514 177.145C408.727 177.278 409.045 177.39 409.466 177.481V179.656Z" fill="#00CFC3"/>
<path d="M85.3636 17.3303L84.4037 19.1221L82.5319 18.1462L83.4998 16.3384L85.3636 17.3303ZM87.9953 23.6256C87.9953 24.3615 87.9233 24.9534 87.7793 25.4013C87.6353 25.844 87.398 26.2013 87.0674 26.4732C86.7421 26.7452 86.2621 26.9665 85.6275 27.1371C84.9983 27.3131 84.3477 27.4011 83.6758 27.4011C82.3799 27.4011 81.38 27.1638 80.6761 26.6892C79.9775 26.2199 79.6282 25.5507 79.6282 24.6814C79.6282 23.9402 79.7402 23.2629 79.9642 22.6497C80.2095 21.9724 80.6895 21.0925 81.404 20.01L81.884 20.3459C81.356 21.2472 81.0094 21.9004 80.8441 22.3057C80.6841 22.711 80.6041 23.1296 80.6041 23.5616C80.6041 24.1215 80.9028 24.5801 81.5 24.9374C82.1026 25.2894 82.8919 25.4653 83.8677 25.4653C84.8276 25.4653 85.6355 25.2814 86.2915 24.9134C86.9474 24.5454 87.2754 24.0948 87.2754 23.5616C87.2754 23.2309 87.2167 22.903 87.0994 22.5777C86.9874 22.2524 86.7421 21.7324 86.3635 21.0179L87.0674 18.8581C87.4407 19.5354 87.67 20.002 87.7553 20.2579C87.9153 20.7219 87.9953 21.3112 87.9953 22.0257V23.6256ZM94.6745 16.0024L93.7146 17.7942L91.8428 16.8183L92.7947 15.0106L94.6745 16.0024ZM95.0824 24.2015C95.0824 24.5268 94.8958 24.9587 94.5225 25.4973C94.1492 26.0306 93.7119 26.4946 93.2107 26.8892C92.6561 27.3265 92.1814 27.5451 91.7868 27.5451C91.3175 27.5451 90.8136 27.4118 90.275 27.1451C89.8057 26.9158 89.0725 26.4572 88.0753 25.7693L88.4112 25.2734C88.8912 25.5933 89.2778 25.8093 89.5711 25.9213C89.8644 26.0333 90.1817 26.0893 90.523 26.0893C90.8909 26.0893 91.2589 25.9853 91.6268 25.7773C91.9948 25.5693 92.4961 25.1827 93.1307 24.6174C94.0159 23.8282 94.4585 23.2203 94.4585 22.7937C94.4585 22.5803 94.3732 22.3004 94.2025 21.9538C94.0106 21.5591 93.7759 21.2312 93.4986 20.9699L93.9466 18.8101C94.3092 19.1834 94.5892 19.6127 94.7865 20.098C94.9838 20.5832 95.0824 21.1352 95.0824 21.7538V24.2015ZM102.474 23.4656C102.474 24.3828 102.084 25.2894 101.306 26.1853C100.527 27.0812 99.7592 27.5291 99.002 27.5291C98.5594 27.5291 98.0741 27.3878 97.5462 27.1051C97.0235 26.8225 96.2183 26.2652 95.1304 25.4333L95.4664 24.9694C96.0423 25.3534 96.5143 25.6093 96.8822 25.7373C97.1862 25.844 97.5302 25.8973 97.9141 25.8973C98.4314 25.8973 98.9433 25.7533 99.4499 25.4653C100.047 25.124 100.666 24.5748 101.306 23.8175C101.082 23.8495 100.895 23.8655 100.746 23.8655C100.218 23.8655 99.7966 23.6949 99.4819 23.3536C99.1726 23.007 99.018 22.5377 99.018 21.9458C99.018 21.1458 99.202 20.3753 99.5699 19.634C99.9699 18.8288 100.426 18.4262 100.938 18.4262C101.364 18.4262 101.727 18.7168 102.026 19.2981C102.324 19.8793 102.474 20.5806 102.474 21.4018V23.4656ZM101.514 21.8418C101.364 20.9832 101.06 20.5539 100.602 20.5539C100.436 20.5539 100.303 20.6206 100.202 20.7539C100.106 20.8819 100.058 21.0232 100.058 21.1778C100.058 21.3698 100.162 21.5298 100.37 21.6578C100.583 21.7804 100.863 21.8418 101.21 21.8418H101.514ZM106.313 24.0175H101.914V21.8418H105.353L104.385 16.4104L103.873 16.0744C103.873 15.7598 103.921 15.4425 104.017 15.1225C104.14 14.7173 104.348 14.2347 104.641 13.6747L105.009 13.8667C105.009 13.8987 104.999 13.984 104.977 14.1227C104.977 14.2986 105.089 14.4693 105.313 14.6346C105.511 14.7839 105.825 14.9492 106.257 15.1305C106.209 15.4718 106.137 15.8051 106.041 16.1304C105.951 16.4557 105.847 16.7464 105.729 17.0023L105.441 16.8903L106.313 21.8418V24.0175ZM109.273 21.6898C109.273 22.1644 109.217 22.599 109.105 22.9936C108.993 23.3829 108.777 23.9082 108.457 24.5694L107.977 24.3775C108.105 23.6949 108.169 23.1403 108.169 22.7137C108.169 22.3884 108.142 21.9111 108.089 21.2818C108.036 20.6526 107.969 20.0313 107.889 19.418C107.809 18.7995 107.678 18.0635 107.497 17.2103C107.433 16.9117 107.401 16.7064 107.401 16.5944C107.401 16.4291 107.484 16.1491 107.649 15.7545C107.814 15.3545 108.046 14.8719 108.345 14.3066L108.825 17.1383C109.001 18.2155 109.123 19.1487 109.193 19.938C109.246 20.5459 109.273 21.1298 109.273 21.6898Z" fill="black"/>
<path d="M90.6643 94.5897V217.825H358.196V196.424C358.196 196.424 300.082 204.794 248.74 186.625C213.491 173.594 197.058 157.806 170.179 134.466C120.265 96.1207 90.6643 94.5897 90.6643 94.5897Z" fill="#ADEEEA"/>
<path d="M358.196 217.825H90.6643V35.6895" stroke="#C5C5C5" stroke-width="0.680481" stroke-miterlimit="10"/>
<path d="M358.196 196.424C358.196 196.424 300.082 204.794 248.74 186.625C213.491 173.594 197.058 157.806 170.179 134.466C120.265 96.1207 90.6643 94.5897 90.6643 94.5897" stroke="#00CFC3" stroke-width="0.680481" stroke-miterlimit="10"/>
<g filter="url(#filter0_d)">
<path fill-rule="evenodd" clip-rule="evenodd" d="M358.763 203.927C363.346 203.927 367.062 200.212 367.062 195.629C367.062 191.045 363.346 187.33 358.763 187.33C354.18 187.33 350.464 191.045 350.464 195.629C350.464 200.212 354.18 203.927 358.763 203.927Z" fill="#00CFC3"/>
<path d="M365.238 195.629C365.238 199.205 362.339 202.104 358.763 202.104C355.187 202.104 352.288 199.205 352.288 195.629C352.288 192.052 355.187 189.153 358.763 189.153C362.339 189.153 365.238 192.052 365.238 195.629Z" stroke="white" stroke-width="3.64713"/>
</g>
<path d="M357.548 94.216V39.6073C357.548 39.6073 329.444 37.4298 304.981 57.7081C291.167 69.1742 282.048 81.8652 274.971 94.216H357.548Z" fill="#FFBAAB"/>
<path d="M357.65 39.0628C357.65 39.0628 329.546 36.8852 305.083 57.1636C257.449 96.7676 265.479 150.832 222.336 154.711C199.812 156.65 176.302 138.277 169.633 133.888C119.72 95.5768 90.0848 94.0457 90.0848 94.0457" stroke="#EC3B15" stroke-width="0.680481" stroke-miterlimit="10"/>
<path d="M358.365 43.35C360.771 43.35 362.72 41.4002 362.72 38.9949C362.72 36.5897 360.771 34.6398 358.365 34.6398C355.96 34.6398 354.01 36.5897 354.01 38.9949C354.01 41.4002 355.96 43.35 358.365 43.35Z" fill="#EC3B15"/>
<path d="M89.6769 94.2164H91.3781" stroke="#EC3B15" stroke-width="0.680481" stroke-miterlimit="10"/>
<path d="M94.813 94.2164H354.11" stroke="#EC3B15" stroke-width="0.680481" stroke-miterlimit="10" stroke-dasharray="3.43 3.43"/>
<path d="M355.846 94.2164H357.548" stroke="#EC3B15" stroke-width="0.680481" stroke-miterlimit="10"/>
<path d="M169.361 137.359C171.766 137.359 173.716 135.409 173.716 133.004C173.716 130.598 171.766 128.648 169.361 128.648C166.956 128.648 165.006 130.598 165.006 133.004C165.006 135.409 166.956 137.359 169.361 137.359Z" fill="#EC3B15"/>
<path d="M169.26 216.805V215.104" stroke="#EC3B15" stroke-width="0.680481" stroke-miterlimit="10"/>
<path d="M169.26 211.633V136.916" stroke="#EC3B15" stroke-width="0.680481" stroke-miterlimit="10" stroke-dasharray="3.47 3.47"/>
<path d="M169.26 135.181V133.48" stroke="#EC3B15" stroke-width="0.680481" stroke-miterlimit="10"/>
<g filter="url(#filter1_d)">
<path fill-rule="evenodd" clip-rule="evenodd" d="M90.7987 103.295C95.382 103.295 99.0976 99.5792 99.0976 94.9959C99.0976 90.4126 95.382 86.697 90.7987 86.697C86.2154 86.697 82.4999 90.4126 82.4999 94.9959C82.4999 99.5792 86.2154 103.295 90.7987 103.295Z" fill="#00CFC3"/>
<path d="M97.274 94.9959C97.274 98.5721 94.3749 101.471 90.7987 101.471C87.2225 101.471 84.3234 98.5721 84.3234 94.9959C84.3234 91.4197 87.2225 88.5206 90.7987 88.5206C94.3749 88.5206 97.274 91.4197 97.274 94.9959Z" stroke="white" stroke-width="3.64713"/>
</g>
<defs>
<filter id="filter0_d" x="340.738" y="182.467" width="36.0491" height="36.0491" filterUnits="userSpaceOnUse" color-interpolation-filters="sRGB">
<feFlood flood-opacity="0" result="BackgroundImageFix"/>
<feColorMatrix in="SourceAlpha" type="matrix" values="0 0 0 0 0 0 0 0 0 0 0 0 0 0 0 0 0 0 127 0"/>
<feOffset dy="4.86284"/>
<feGaussianBlur stdDeviation="4.86284"/>
<feColorMatrix type="matrix" values="0 0 0 0 0 0 0 0 0 0 0 0 0 0 0 0 0 0 0.16 0"/>
<feBlend mode="normal" in2="BackgroundImageFix" result="effect1_dropShadow"/>
<feBlend mode="normal" in="SourceGraphic" in2="effect1_dropShadow" result="shape"/>
</filter>
<filter id="filter1_d" x="72.7742" y="81.8342" width="36.0491" height="36.0491" filterUnits="userSpaceOnUse" color-interpolation-filters="sRGB">
<feFlood flood-opacity="0" result="BackgroundImageFix"/>
<feColorMatrix in="SourceAlpha" type="matrix" values="0 0 0 0 0 0 0 0 0 0 0 0 0 0 0 0 0 0 127 0"/>
<feOffset dy="4.86284"/>
<feGaussianBlur stdDeviation="4.86284"/>
<feColorMatrix type="matrix" values="0 0 0 0 0 0 0 0 0 0 0 0 0 0 0 0 0 0 0.16 0"/>
<feBlend mode="normal" in2="BackgroundImageFix" result="effect1_dropShadow"/>
<feBlend mode="normal" in="SourceGraphic" in2="effect1_dropShadow" result="shape"/>
</filter>
</defs>
</svg>
