<svg width="468" height="259" viewBox="0 0 468 259" fill="none" xmlns="http://www.w3.org/2000/svg">
<path d="M0 7.02088C0 3.14335 3.14336 0 7.0209 0H460.979C464.857 0 468 3.14336 468 7.0209V251.979C468 255.857 464.857 259 460.979 259H7.02091C3.14338 259 0 255.857 0 251.979V7.02088Z" fill="#F8F8F8"/>
<path d="M347.148 241.624H353.635V243H345.231V241.755L351.538 232.827H345.231V231.451H353.471V232.679L347.148 241.624ZM362.103 239.281H356.451C356.571 240.974 357.412 241.82 358.974 241.82C359.891 241.82 360.721 241.52 361.464 240.919L361.972 242.083C361.601 242.399 361.142 242.651 360.596 242.836C360.05 243.022 359.493 243.115 358.925 243.115C357.647 243.115 356.637 242.749 355.894 242.017C355.162 241.285 354.797 240.275 354.797 238.986C354.797 238.167 354.955 237.441 355.272 236.808C355.599 236.174 356.053 235.683 356.631 235.333C357.221 234.984 357.887 234.809 358.63 234.809C359.711 234.809 360.558 235.158 361.169 235.857C361.792 236.556 362.103 237.523 362.103 238.757V239.281ZM358.663 236.021C358.029 236.021 357.521 236.223 357.139 236.627C356.768 237.021 356.544 237.588 356.468 238.331H360.678C360.645 237.588 360.454 237.021 360.104 236.627C359.766 236.223 359.285 236.021 358.663 236.021ZM363.926 243V235.006H365.581V243H363.926ZM363.812 231.434H365.712V233.154H363.812V231.434ZM371.678 241.837C371.929 241.837 372.175 241.82 372.415 241.788L372.333 243.049C372.06 243.093 371.776 243.115 371.481 243.115C370.444 243.115 369.669 242.863 369.155 242.361C368.653 241.848 368.402 241.111 368.402 240.15V236.283H366.845V235.006H368.402V232.597H370.056V235.006H372.251V236.283H370.056V240.084C370.056 241.253 370.597 241.837 371.678 241.837Z" fill="black"/>
<path d="M315.437 26.1311C314.541 26.1311 313.717 26.0109 312.963 25.7707C312.221 25.5304 311.582 25.1754 311.047 24.7058L311.653 23.4608C312.221 23.9195 312.805 24.2526 313.406 24.4601C314.017 24.6567 314.7 24.755 315.453 24.755C316.316 24.755 316.982 24.5966 317.452 24.2799C317.922 23.9522 318.156 23.4935 318.156 22.9038C318.156 22.4014 317.938 22.0301 317.501 21.7898C317.064 21.5386 316.365 21.3038 315.404 21.0854C314.487 20.8888 313.733 20.6649 313.144 20.4137C312.554 20.1625 312.09 19.824 311.751 19.398C311.423 18.9612 311.26 18.4096 311.26 17.7434C311.26 17.0663 311.434 16.4711 311.784 15.9578C312.144 15.4445 312.652 15.0458 313.307 14.7619C313.963 14.467 314.722 14.3196 315.584 14.3196C316.393 14.3196 317.152 14.4452 317.862 14.6964C318.582 14.9366 319.172 15.2861 319.631 15.7448L319.041 16.9899C318.506 16.553 317.954 16.2308 317.387 16.0233C316.83 15.8049 316.234 15.6957 315.601 15.6957C314.771 15.6957 314.116 15.8704 313.635 16.2199C313.165 16.5585 312.931 17.0335 312.931 17.6451C312.931 18.1694 313.138 18.568 313.553 18.841C313.968 19.1031 314.634 19.3434 315.552 19.5618C316.513 19.7803 317.288 20.0096 317.878 20.2499C318.479 20.4792 318.954 20.8014 319.303 21.2164C319.664 21.6205 319.844 22.1502 319.844 22.8055C319.844 23.4717 319.664 24.056 319.303 24.5584C318.954 25.0608 318.446 25.4485 317.78 25.7215C317.124 25.9945 316.344 26.1311 315.437 26.1311ZM325.431 24.8369C325.682 24.8369 325.928 24.8205 326.168 24.7877L326.087 26.0491C325.814 26.0928 325.53 26.1147 325.235 26.1147C324.197 26.1147 323.422 25.8635 322.908 25.3611C322.406 24.8478 322.155 24.1106 322.155 23.1495V19.2833H320.599V18.0055H322.155V15.5974H323.809V18.0055H326.005V19.2833H323.809V23.084C323.809 24.2526 324.35 24.8369 325.431 24.8369ZM332.288 19.2014L331.289 19.2997C330.502 19.3762 329.934 19.6164 329.585 20.0205C329.246 20.4246 329.077 20.9379 329.077 21.5605V26H327.422V18.0055H329.028V19.398C329.454 18.4588 330.322 17.94 331.633 17.8417L332.173 17.809L332.288 19.2014ZM340.109 22.2813H334.458C334.578 23.9741 335.419 24.8205 336.98 24.8205C337.898 24.8205 338.728 24.5202 339.47 23.9195L339.978 25.0826C339.607 25.3993 339.148 25.6505 338.602 25.8362C338.056 26.0218 337.499 26.1147 336.931 26.1147C335.653 26.1147 334.643 25.7488 333.901 25.0171C333.169 24.2853 332.803 23.2751 332.803 21.9864C332.803 21.1673 332.961 20.441 333.278 19.8076C333.606 19.1741 334.059 18.6827 334.638 18.3332C335.227 17.9837 335.894 17.809 336.636 17.809C337.718 17.809 338.564 18.1584 339.176 18.8574C339.798 19.5564 340.109 20.5229 340.109 21.757V22.2813ZM336.669 19.0212C336.036 19.0212 335.528 19.2233 335.146 19.6274C334.774 20.0205 334.55 20.5884 334.474 21.3311H338.684C338.651 20.5884 338.46 20.0205 338.111 19.6274C337.772 19.2233 337.292 19.0212 336.669 19.0212ZM346.241 17.809C348.152 17.809 349.108 18.8847 349.108 21.0362V26H347.453V21.1181C347.453 20.441 347.317 19.9441 347.044 19.6274C346.782 19.3106 346.367 19.1523 345.799 19.1523C345.133 19.1523 344.597 19.3598 344.193 19.7748C343.789 20.1898 343.587 20.7468 343.587 21.4458V26H341.933V18.0055H343.554V19.2833C343.817 18.8028 344.182 18.4369 344.652 18.1857C345.122 17.9346 345.651 17.809 346.241 17.809ZM358.809 18.0055V25.3611C358.809 26.5843 358.481 27.5072 357.826 28.1297C357.182 28.7522 356.226 29.0635 354.959 29.0635C354.271 29.0635 353.616 28.9706 352.993 28.785C352.382 28.6102 351.836 28.3536 351.355 28.015L351.863 26.8191C352.387 27.1577 352.89 27.3979 353.37 27.5399C353.862 27.6928 354.386 27.7693 354.943 27.7693C356.439 27.7693 357.187 27.0102 357.187 25.4922V24.2307C356.958 24.7113 356.608 25.0881 356.139 25.3611C355.669 25.6232 355.123 25.7543 354.501 25.7543C353.802 25.7543 353.179 25.5904 352.633 25.2628C352.087 24.9352 351.661 24.471 351.355 23.8703C351.06 23.2697 350.913 22.5761 350.913 21.7898C350.913 21.0035 351.066 20.31 351.372 19.7093C351.677 19.1086 352.098 18.6444 352.633 18.3168C353.179 17.9782 353.802 17.809 354.501 17.809C355.112 17.809 355.647 17.94 356.106 18.2021C356.576 18.4642 356.931 18.8356 357.171 19.3161V18.0055H358.809ZM354.894 24.4437C355.604 24.4437 356.161 24.2089 356.565 23.7393C356.969 23.2697 357.171 22.6198 357.171 21.7898C357.171 20.9707 356.969 20.3263 356.565 19.8567C356.171 19.3762 355.614 19.1359 354.894 19.1359C354.173 19.1359 353.605 19.3707 353.19 19.8403C352.786 20.31 352.584 20.9598 352.584 21.7898C352.584 22.6198 352.791 23.2697 353.206 23.7393C353.621 24.2089 354.184 24.4437 354.894 24.4437ZM367.962 22.2813H362.31C362.43 23.9741 363.271 24.8205 364.833 24.8205C365.751 24.8205 366.581 24.5202 367.323 23.9195L367.831 25.0826C367.46 25.3993 367.001 25.6505 366.455 25.8362C365.909 26.0218 365.352 26.1147 364.784 26.1147C363.506 26.1147 362.496 25.7488 361.753 25.0171C361.022 24.2853 360.656 23.2751 360.656 21.9864C360.656 21.1673 360.814 20.441 361.131 19.8076C361.458 19.1741 361.912 18.6827 362.49 18.3332C363.08 17.9837 363.746 17.809 364.489 17.809C365.57 17.809 366.417 18.1584 367.028 18.8574C367.651 19.5564 367.962 20.5229 367.962 21.757V22.2813ZM364.522 19.0212C363.888 19.0212 363.381 19.2233 362.998 19.6274C362.627 20.0205 362.403 20.5884 362.327 21.3311H366.537C366.504 20.5884 366.313 20.0205 365.963 19.6274C365.625 19.2233 365.144 19.0212 364.522 19.0212ZM374.301 14.4506H378.348C380.215 14.4506 381.662 14.953 382.689 15.9578C383.716 16.9625 384.229 18.3823 384.229 20.2171C384.229 22.0519 383.716 23.4772 382.689 24.4928C381.662 25.4976 380.215 26 378.348 26H374.301V14.4506ZM378.25 24.5911C381.089 24.5911 382.509 23.1331 382.509 20.2171C382.509 17.312 381.089 15.8595 378.25 15.8595H375.989V24.5911H378.25ZM386.327 26V18.0055H387.982V26H386.327ZM386.213 14.4342H388.113V16.1544H386.213V14.4342ZM393.637 17.809C394.707 17.809 395.499 18.0765 396.012 18.6117C396.537 19.1468 396.799 19.9605 396.799 21.0526V26H395.21V24.6731C395.002 25.1427 394.691 25.5031 394.276 25.7543C393.872 25.9945 393.397 26.1147 392.851 26.1147C392.326 26.1147 391.846 26.0109 391.409 25.8034C390.972 25.585 390.628 25.2846 390.377 24.9024C390.137 24.5202 390.017 24.0942 390.017 23.6246C390.017 23.0458 390.164 22.5925 390.459 22.2649C390.765 21.9263 391.262 21.686 391.95 21.5441C392.649 21.4021 393.604 21.3311 394.816 21.3311H395.193V20.856C395.193 20.2444 395.062 19.8021 394.8 19.5291C394.549 19.256 394.134 19.1195 393.555 19.1195C392.649 19.1195 391.742 19.398 390.836 19.955L390.344 18.7919C390.77 18.497 391.283 18.2622 391.884 18.0875C392.496 17.9018 393.08 17.809 393.637 17.809ZM393.145 24.886C393.746 24.886 394.238 24.684 394.62 24.2799C395.002 23.8649 395.193 23.3352 395.193 22.6908V22.2649H394.898C394.046 22.2649 393.391 22.3031 392.933 22.3796C392.474 22.456 392.146 22.5871 391.95 22.7727C391.753 22.9475 391.655 23.2041 391.655 23.5427C391.655 23.9249 391.791 24.2471 392.064 24.5092C392.348 24.7604 392.709 24.886 393.145 24.886ZM391.36 14.4834H393.047V16.1052H391.36V14.4834ZM394.259 14.4834H395.947V16.1052H394.259V14.4834ZM402.846 24.8369C403.097 24.8369 403.343 24.8205 403.583 24.7877L403.502 26.0491C403.228 26.0928 402.945 26.1147 402.65 26.1147C401.612 26.1147 400.837 25.8635 400.323 25.3611C399.821 24.8478 399.57 24.1106 399.57 23.1495V19.2833H398.014V18.0055H399.57V15.5974H401.224V18.0055H403.42V19.2833H401.224V23.084C401.224 24.2526 401.765 24.8369 402.846 24.8369Z" fill="#EC3B15"/>
<path d="M297.094 181L295.865 178.15H290.017L288.788 181H287.084L292.228 169.451H293.637L298.781 181H297.094ZM290.59 176.806H295.292L292.949 171.335L290.59 176.806ZM307.109 173.006V181H305.504V179.706C305.253 180.165 304.903 180.514 304.455 180.754C304.018 180.995 303.527 181.115 302.981 181.115C301.037 181.115 300.065 180.044 300.065 177.904V173.006H301.719V177.887C301.719 178.532 301.851 179.007 302.113 179.313C302.375 179.618 302.779 179.771 303.325 179.771C303.969 179.771 304.483 179.564 304.865 179.149C305.258 178.734 305.455 178.182 305.455 177.494V173.006H307.109ZM312.242 181.115C310.855 181.115 309.747 180.776 308.917 180.099L309.425 178.903C310.244 179.537 311.199 179.853 312.291 179.853C312.827 179.853 313.236 179.766 313.52 179.591C313.804 179.405 313.946 179.149 313.946 178.821C313.946 178.537 313.848 178.313 313.651 178.15C313.465 177.986 313.138 177.849 312.668 177.74L311.341 177.445C310.631 177.281 310.096 177.014 309.736 176.642C309.375 176.271 309.195 175.801 309.195 175.234C309.195 174.513 309.485 173.928 310.063 173.481C310.653 173.033 311.423 172.809 312.373 172.809C312.941 172.809 313.482 172.902 313.995 173.087C314.508 173.262 314.951 173.513 315.322 173.841L314.814 175.004C314.028 174.382 313.214 174.07 312.373 174.07C311.871 174.07 311.472 174.169 311.177 174.365C310.893 174.562 310.751 174.829 310.751 175.168C310.751 175.441 310.839 175.665 311.014 175.84C311.199 176.003 311.489 176.129 311.882 176.216L313.242 176.528C314.017 176.702 314.585 176.975 314.945 177.347C315.306 177.707 315.486 178.182 315.486 178.772C315.486 179.493 315.191 180.066 314.601 180.492C314.022 180.907 313.236 181.115 312.242 181.115ZM324.765 173.006V180.361C324.765 181.584 324.437 182.507 323.782 183.13C323.138 183.752 322.182 184.063 320.915 184.063C320.227 184.063 319.572 183.971 318.949 183.785C318.338 183.61 317.792 183.354 317.311 183.015L317.819 181.819C318.343 182.158 318.846 182.398 319.326 182.54C319.818 182.693 320.342 182.769 320.899 182.769C322.395 182.769 323.143 182.01 323.143 180.492V179.231C322.914 179.711 322.564 180.088 322.095 180.361C321.625 180.623 321.079 180.754 320.457 180.754C319.758 180.754 319.135 180.59 318.589 180.263C318.043 179.935 317.617 179.471 317.311 178.87C317.016 178.27 316.869 177.576 316.869 176.79C316.869 176.003 317.022 175.31 317.328 174.709C317.633 174.109 318.054 173.644 318.589 173.317C319.135 172.978 319.758 172.809 320.457 172.809C321.068 172.809 321.603 172.94 322.062 173.202C322.532 173.464 322.887 173.836 323.127 174.316V173.006H324.765ZM320.85 179.444C321.56 179.444 322.117 179.209 322.521 178.739C322.925 178.27 323.127 177.62 323.127 176.79C323.127 175.971 322.925 175.326 322.521 174.857C322.128 174.376 321.571 174.136 320.85 174.136C320.129 174.136 319.561 174.371 319.146 174.84C318.742 175.31 318.54 175.96 318.54 176.79C318.54 177.62 318.747 178.27 319.162 178.739C319.577 179.209 320.14 179.444 320.85 179.444ZM333.918 177.281H328.266C328.387 178.974 329.227 179.82 330.789 179.82C331.707 179.82 332.537 179.52 333.279 178.919L333.787 180.083C333.416 180.399 332.957 180.651 332.411 180.836C331.865 181.022 331.308 181.115 330.74 181.115C329.462 181.115 328.452 180.749 327.709 180.017C326.978 179.285 326.612 178.275 326.612 176.986C326.612 176.167 326.77 175.441 327.087 174.808C327.415 174.174 327.868 173.683 328.447 173.333C329.036 172.984 329.703 172.809 330.445 172.809C331.526 172.809 332.373 173.158 332.984 173.857C333.607 174.556 333.918 175.523 333.918 176.757V177.281ZM330.478 174.021C329.845 174.021 329.337 174.223 328.954 174.627C328.583 175.021 328.359 175.588 328.283 176.331H332.493C332.46 175.588 332.269 175.021 331.92 174.627C331.581 174.223 331.1 174.021 330.478 174.021ZM346.458 173.006H348.096L345.033 181H343.542L341.429 175.283L339.315 181H337.808L334.761 173.006H336.481L338.644 179.018L340.823 173.006H342.117L344.296 179.051L346.458 173.006ZM352.877 181.115C352.091 181.115 351.397 180.945 350.796 180.607C350.207 180.268 349.748 179.788 349.42 179.165C349.104 178.532 348.945 177.8 348.945 176.97C348.945 176.129 349.104 175.397 349.42 174.775C349.748 174.141 350.207 173.655 350.796 173.317C351.397 172.978 352.091 172.809 352.877 172.809C353.663 172.809 354.351 172.978 354.941 173.317C355.542 173.655 356 174.141 356.317 174.775C356.645 175.397 356.809 176.129 356.809 176.97C356.809 177.8 356.645 178.532 356.317 179.165C356 179.788 355.542 180.268 354.941 180.607C354.351 180.945 353.663 181.115 352.877 181.115ZM352.877 179.804C353.609 179.804 354.166 179.564 354.548 179.083C354.941 178.603 355.138 177.898 355.138 176.97C355.138 176.053 354.941 175.354 354.548 174.873C354.155 174.382 353.598 174.136 352.877 174.136C352.156 174.136 351.599 174.382 351.206 174.873C350.813 175.354 350.616 176.053 350.616 176.97C350.616 177.898 350.807 178.603 351.19 179.083C351.583 179.564 352.145 179.804 352.877 179.804ZM366.088 173.006V180.361C366.088 181.584 365.761 182.507 365.105 183.13C364.461 183.752 363.505 184.063 362.238 184.063C361.55 184.063 360.895 183.971 360.273 183.785C359.661 183.61 359.115 183.354 358.634 183.015L359.142 181.819C359.666 182.158 360.169 182.398 360.649 182.54C361.141 182.693 361.665 182.769 362.222 182.769C363.718 182.769 364.466 182.01 364.466 180.492V179.231C364.237 179.711 363.888 180.088 363.418 180.361C362.948 180.623 362.402 180.754 361.78 180.754C361.081 180.754 360.458 180.59 359.912 180.263C359.366 179.935 358.94 179.471 358.634 178.87C358.34 178.27 358.192 177.576 358.192 176.79C358.192 176.003 358.345 175.31 358.651 174.709C358.957 174.109 359.377 173.644 359.912 173.317C360.458 172.978 361.081 172.809 361.78 172.809C362.391 172.809 362.927 172.94 363.385 173.202C363.855 173.464 364.21 173.836 364.45 174.316V173.006H366.088ZM362.173 179.444C362.883 179.444 363.44 179.209 363.844 178.739C364.248 178.27 364.45 177.62 364.45 176.79C364.45 175.971 364.248 175.326 363.844 174.857C363.451 174.376 362.894 174.136 362.173 174.136C361.452 174.136 360.884 174.371 360.469 174.84C360.065 175.31 359.863 175.96 359.863 176.79C359.863 177.62 360.071 178.27 360.486 178.739C360.901 179.209 361.463 179.444 362.173 179.444ZM375.241 177.281H369.59C369.71 178.974 370.551 179.82 372.112 179.82C373.03 179.82 373.86 179.52 374.602 178.919L375.11 180.083C374.739 180.399 374.28 180.651 373.734 180.836C373.188 181.022 372.631 181.115 372.063 181.115C370.785 181.115 369.775 180.749 369.033 180.017C368.301 179.285 367.935 178.275 367.935 176.986C367.935 176.167 368.093 175.441 368.41 174.808C368.738 174.174 369.191 173.683 369.77 173.333C370.36 172.984 371.026 172.809 371.768 172.809C372.85 172.809 373.696 173.158 374.308 173.857C374.93 174.556 375.241 175.523 375.241 176.757V177.281ZM371.801 174.021C371.168 174.021 370.66 174.223 370.278 174.627C369.906 175.021 369.682 175.588 369.606 176.331H373.816C373.783 175.588 373.592 175.021 373.243 174.627C372.904 174.223 372.424 174.021 371.801 174.021ZM381.373 172.809C383.284 172.809 384.24 173.885 384.24 176.036V181H382.585V176.118C382.585 175.441 382.449 174.944 382.176 174.627C381.914 174.311 381.499 174.152 380.931 174.152C380.265 174.152 379.729 174.36 379.325 174.775C378.921 175.19 378.719 175.747 378.719 176.446V181H377.065V173.006H378.686V174.283C378.949 173.803 379.314 173.437 379.784 173.186C380.254 172.935 380.783 172.809 381.373 172.809ZM393.351 177.281H387.699C387.82 178.974 388.661 179.82 390.222 179.82C391.14 179.82 391.97 179.52 392.712 178.919L393.22 180.083C392.849 180.399 392.39 180.651 391.844 180.836C391.298 181.022 390.741 181.115 390.173 181.115C388.895 181.115 387.885 180.749 387.142 180.017C386.411 179.285 386.045 178.275 386.045 176.986C386.045 176.167 386.203 175.441 386.52 174.808C386.848 174.174 387.301 173.683 387.88 173.333C388.469 172.984 389.136 172.809 389.878 172.809C390.959 172.809 391.806 173.158 392.417 173.857C393.04 174.556 393.351 175.523 393.351 176.757V177.281ZM389.911 174.021C389.278 174.021 388.77 174.223 388.387 174.627C388.016 175.021 387.792 175.588 387.716 176.331H391.926C391.893 175.588 391.702 175.021 391.353 174.627C391.014 174.223 390.534 174.021 389.911 174.021ZM399.691 169.451H403.737C405.605 169.451 407.052 169.953 408.078 170.958C409.105 171.963 409.618 173.382 409.618 175.217C409.618 177.052 409.105 178.477 408.078 179.493C407.052 180.498 405.605 181 403.737 181H399.691V169.451ZM403.639 179.591C406.478 179.591 407.898 178.133 407.898 175.217C407.898 172.312 406.478 170.859 403.639 170.859H401.378V179.591H403.639ZM411.717 181V173.006H413.371V181H411.717ZM411.602 169.434H413.502V171.154H411.602V169.434ZM419.026 172.809C420.096 172.809 420.888 173.077 421.402 173.612C421.926 174.147 422.188 174.96 422.188 176.053V181H420.599V179.673C420.391 180.143 420.08 180.503 419.665 180.754C419.261 180.995 418.786 181.115 418.24 181.115C417.716 181.115 417.235 181.011 416.798 180.803C416.361 180.585 416.017 180.285 415.766 179.902C415.526 179.52 415.406 179.094 415.406 178.625C415.406 178.046 415.553 177.593 415.848 177.265C416.154 176.926 416.651 176.686 417.339 176.544C418.038 176.402 418.993 176.331 420.206 176.331H420.582V175.856C420.582 175.244 420.451 174.802 420.189 174.529C419.938 174.256 419.523 174.12 418.944 174.12C418.038 174.12 417.131 174.398 416.225 174.955L415.733 173.792C416.159 173.497 416.673 173.262 417.273 173.087C417.885 172.902 418.469 172.809 419.026 172.809ZM418.535 179.886C419.135 179.886 419.627 179.684 420.009 179.28C420.391 178.865 420.582 178.335 420.582 177.691V177.265H420.288C419.436 177.265 418.78 177.303 418.322 177.38C417.863 177.456 417.535 177.587 417.339 177.773C417.142 177.947 417.044 178.204 417.044 178.543C417.044 178.925 417.18 179.247 417.453 179.509C417.737 179.76 418.098 179.886 418.535 179.886ZM416.749 169.483H418.436V171.105H416.749V169.483ZM419.649 169.483H421.336V171.105H419.649V169.483ZM428.235 179.837C428.487 179.837 428.732 179.82 428.973 179.788L428.891 181.049C428.618 181.093 428.334 181.115 428.039 181.115C427.001 181.115 426.226 180.863 425.713 180.361C425.21 179.848 424.959 179.111 424.959 178.15V174.283H423.403V173.006H424.959V170.597H426.614V173.006H428.809V174.283H426.614V178.084C426.614 179.253 427.154 179.837 428.235 179.837Z" fill="#00CFC3"/>
<path d="M71.4815 19.8731V25.312C70.99 25.5631 70.3729 25.7652 69.6303 25.9181C68.8876 26.0601 68.1341 26.1311 67.3696 26.1311C66.201 26.1311 65.1907 25.8962 64.3389 25.4266C63.487 24.957 62.8372 24.2799 62.3894 23.3952C61.9416 22.5106 61.7177 21.4512 61.7177 20.2171C61.7177 19.0048 61.9416 17.9564 62.3894 17.0718C62.8372 16.1762 63.4761 15.4936 64.3061 15.024C65.1471 14.5544 66.1354 14.3196 67.2713 14.3196C68.0904 14.3196 68.844 14.4397 69.532 14.68C70.2201 14.9202 70.8043 15.2697 71.2849 15.7284L70.6787 16.9735C70.1327 16.5257 69.5921 16.2035 69.0569 16.0069C68.5218 15.8103 67.932 15.712 67.2877 15.712C66.0426 15.712 65.087 16.0998 64.4208 16.8752C63.7655 17.6397 63.4379 18.7537 63.4379 20.2171C63.4379 21.7134 63.7764 22.8492 64.4536 23.6246C65.1307 24.3891 66.1191 24.7713 67.4187 24.7713C68.2706 24.7713 69.1115 24.6457 69.9416 24.3946V21.1509H67.2549V19.8731H71.4815ZM80.6807 22.2813H75.0288C75.149 23.9741 75.9899 24.8205 77.5517 24.8205C78.4691 24.8205 79.2991 24.5202 80.0418 23.9195L80.5496 25.0826C80.1783 25.3993 79.7196 25.6505 79.1735 25.8362C78.6274 26.0218 78.0704 26.1147 77.5025 26.1147C76.2247 26.1147 75.2145 25.7488 74.4718 25.0171C73.7401 24.2853 73.3742 23.2751 73.3742 21.9864C73.3742 21.1673 73.5326 20.441 73.8493 19.8076C74.177 19.1741 74.6302 18.6827 75.209 18.3332C75.7988 17.9837 76.465 17.809 77.2077 17.809C78.2889 17.809 79.1353 18.1584 79.7469 18.8574C80.3694 19.5564 80.6807 20.5229 80.6807 21.757V22.2813ZM77.2404 19.0212C76.607 19.0212 76.0991 19.2233 75.7169 19.6274C75.3456 20.0205 75.1217 20.5884 75.0452 21.3311H79.2554C79.2226 20.5884 79.0315 20.0205 78.682 19.6274C78.3435 19.2233 77.8629 19.0212 77.2404 19.0212ZM93.2205 18.0055H94.8587L91.7953 26H90.3045L88.1912 20.2827L86.0779 26H84.5708L81.5237 18.0055H83.2438L85.4062 24.0178L87.5851 18.0055H88.8792L91.0581 24.0505L93.2205 18.0055ZM96.2783 26V18.0055H97.9329V26H96.2783ZM96.1636 14.4342H98.064V16.1544H96.1636V14.4342ZM103.752 26.1147C102.943 26.1147 102.239 25.9454 101.638 25.6068C101.049 25.2683 100.59 24.7932 100.262 24.1816C99.9455 23.5591 99.7872 22.8328 99.7872 22.0028C99.7872 21.1727 99.951 20.441 100.279 19.8076C100.617 19.1741 101.087 18.6827 101.687 18.3332C102.299 17.9837 103.009 17.809 103.817 17.809C104.374 17.809 104.909 17.9018 105.423 18.0875C105.947 18.2731 106.373 18.5243 106.7 18.841L106.193 20.0205C105.472 19.4308 104.724 19.1359 103.948 19.1359C103.184 19.1359 102.583 19.3871 102.146 19.8895C101.72 20.3809 101.507 21.0799 101.507 21.9864C101.507 22.8819 101.72 23.5755 102.146 24.0669C102.572 24.5475 103.173 24.7877 103.948 24.7877C104.724 24.7877 105.472 24.4928 106.193 23.9031L106.7 25.099C106.351 25.4157 105.914 25.6669 105.39 25.8526C104.866 26.0273 104.32 26.1147 103.752 26.1147ZM112.473 17.809C114.385 17.809 115.34 18.8847 115.34 21.0362V26H113.686V21.1181C113.686 20.441 113.549 19.9441 113.276 19.6274C113.014 19.3106 112.599 19.1523 112.031 19.1523C111.365 19.1523 110.83 19.3598 110.426 19.7748C110.022 20.1898 109.82 20.7468 109.82 21.4458V26H108.165V14.4506H109.82V19.2178C110.093 18.7591 110.458 18.4096 110.917 18.1694C111.376 17.9291 111.895 17.809 112.473 17.809ZM121.388 24.8369C121.639 24.8369 121.885 24.8205 122.125 24.7877L122.043 26.0491C121.77 26.0928 121.486 26.1147 121.192 26.1147C120.154 26.1147 119.379 25.8635 118.865 25.3611C118.363 24.8478 118.112 24.1106 118.112 23.1495V19.2833H116.555V18.0055H118.112V15.5974H119.766V18.0055H121.961V19.2833H119.766V23.084C119.766 24.2526 120.307 24.8369 121.388 24.8369Z" fill="black"/>
<path d="M90.6643 94.5897V217.825H358.196V196.424C358.196 196.424 300.082 204.794 248.74 186.625C213.491 173.594 197.058 157.806 170.179 134.466C120.265 96.1207 90.6643 94.5897 90.6643 94.5897Z" fill="#ADEEEA"/>
<path d="M358.196 217.825H90.6643V35.6895" stroke="#C5C5C5" stroke-width="0.680481" stroke-miterlimit="10"/>
<path d="M358.196 196.424C358.196 196.424 300.082 204.794 248.74 186.625C213.491 173.594 197.058 157.806 170.179 134.466C120.265 96.1207 90.6643 94.5897 90.6643 94.5897" stroke="#00CFC3" stroke-width="0.680481" stroke-miterlimit="10"/>
<g filter="url(#filter0_d)">
<path fill-rule="evenodd" clip-rule="evenodd" d="M358.763 203.927C363.346 203.927 367.062 200.212 367.062 195.629C367.062 191.045 363.346 187.33 358.763 187.33C354.18 187.33 350.464 191.045 350.464 195.629C350.464 200.212 354.18 203.927 358.763 203.927Z" fill="#00CFC3"/>
<path d="M365.238 195.629C365.238 199.205 362.339 202.104 358.763 202.104C355.187 202.104 352.288 199.205 352.288 195.629C352.288 192.052 355.187 189.153 358.763 189.153C362.339 189.153 365.238 192.052 365.238 195.629Z" stroke="white" stroke-width="3.64713"/>
</g>
<path d="M357.548 94.216V39.6073C357.548 39.6073 329.444 37.4298 304.981 57.7081C291.167 69.1742 282.048 81.8652 274.971 94.216H357.548Z" fill="#FFBAAB"/>
<path d="M357.65 39.0628C357.65 39.0628 329.546 36.8852 305.083 57.1636C257.449 96.7676 265.479 150.832 222.336 154.711C199.812 156.65 176.302 138.277 169.633 133.888C119.72 95.5768 90.0848 94.0457 90.0848 94.0457" stroke="#EC3B15" stroke-width="0.680481" stroke-miterlimit="10"/>
<path d="M358.365 43.35C360.771 43.35 362.72 41.4002 362.72 38.9949C362.72 36.5897 360.771 34.6398 358.365 34.6398C355.96 34.6398 354.01 36.5897 354.01 38.9949C354.01 41.4002 355.96 43.35 358.365 43.35Z" fill="#EC3B15"/>
<path d="M89.6769 94.2164H91.3781" stroke="#EC3B15" stroke-width="0.680481" stroke-miterlimit="10"/>
<path d="M94.813 94.2164H354.11" stroke="#EC3B15" stroke-width="0.680481" stroke-miterlimit="10" stroke-dasharray="3.43 3.43"/>
<path d="M355.846 94.2164H357.548" stroke="#EC3B15" stroke-width="0.680481" stroke-miterlimit="10"/>
<path d="M169.361 137.359C171.766 137.359 173.716 135.409 173.716 133.004C173.716 130.598 171.766 128.648 169.361 128.648C166.956 128.648 165.006 130.598 165.006 133.004C165.006 135.409 166.956 137.359 169.361 137.359Z" fill="#EC3B15"/>
<path d="M169.26 216.805V215.104" stroke="#EC3B15" stroke-width="0.680481" stroke-miterlimit="10"/>
<path d="M169.26 211.633V136.916" stroke="#EC3B15" stroke-width="0.680481" stroke-miterlimit="10" stroke-dasharray="3.47 3.47"/>
<path d="M169.26 135.181V133.48" stroke="#EC3B15" stroke-width="0.680481" stroke-miterlimit="10"/>
<g filter="url(#filter1_d)">
<path fill-rule="evenodd" clip-rule="evenodd" d="M90.7987 103.295C95.382 103.295 99.0976 99.5792 99.0976 94.9959C99.0976 90.4126 95.382 86.697 90.7987 86.697C86.2154 86.697 82.4999 90.4126 82.4999 94.9959C82.4999 99.5792 86.2154 103.295 90.7987 103.295Z" fill="#00CFC3"/>
<path d="M97.274 94.9959C97.274 98.5721 94.3749 101.471 90.7987 101.471C87.2225 101.471 84.3234 98.5721 84.3234 94.9959C84.3234 91.4197 87.2225 88.5206 90.7987 88.5206C94.3749 88.5206 97.274 91.4197 97.274 94.9959Z" stroke="white" stroke-width="3.64713"/>
</g>
<defs>
<filter id="filter0_d" x="340.738" y="182.467" width="36.0491" height="36.0491" filterUnits="userSpaceOnUse" color-interpolation-filters="sRGB">
<feFlood flood-opacity="0" result="BackgroundImageFix"/>
<feColorMatrix in="SourceAlpha" type="matrix" values="0 0 0 0 0 0 0 0 0 0 0 0 0 0 0 0 0 0 127 0"/>
<feOffset dy="4.86284"/>
<feGaussianBlur stdDeviation="4.86284"/>
<feColorMatrix type="matrix" values="0 0 0 0 0 0 0 0 0 0 0 0 0 0 0 0 0 0 0.16 0"/>
<feBlend mode="normal" in2="BackgroundImageFix" result="effect1_dropShadow"/>
<feBlend mode="normal" in="SourceGraphic" in2="effect1_dropShadow" result="shape"/>
</filter>
<filter id="filter1_d" x="72.7742" y="81.8342" width="36.0491" height="36.0491" filterUnits="userSpaceOnUse" color-interpolation-filters="sRGB">
<feFlood flood-opacity="0" result="BackgroundImageFix"/>
<feColorMatrix in="SourceAlpha" type="matrix" values="0 0 0 0 0 0 0 0 0 0 0 0 0 0 0 0 0 0 127 0"/>
<feOffset dy="4.86284"/>
<feGaussianBlur stdDeviation="4.86284"/>
<feColorMatrix type="matrix" values="0 0 0 0 0 0 0 0 0 0 0 0 0 0 0 0 0 0 0.16 0"/>
<feBlend mode="normal" in2="BackgroundImageFix" result="effect1_dropShadow"/>
<feBlend mode="normal" in="SourceGraphic" in2="effect1_dropShadow" result="shape"/>
</filter>
</defs>
</svg>
