<?xml version="1.0" encoding="UTF-8"?>
<svg fill="none" viewBox="0 0 335 221" xmlns="http://www.w3.org/2000/svg">
<path d="m0 6c0-3.3137 2.6863-6 6-6h323c3.314 0 6 2.6863 6 6v209c0 3.314-2.686 6-6 6h-323c-3.3137 0-6-2.686-6-6v-209z" fill="#F8F8F8"/>
<path d="m250.97 208v-8.666h-3.332v-1.204h8.134v1.204h-3.346v8.666h-1.456zm10.728-3.178h-4.83c0.103 1.447 0.821 2.17 2.156 2.17 0.784 0 1.493-0.257 2.128-0.77l0.434 0.994c-0.317 0.271-0.709 0.485-1.176 0.644s-0.943 0.238-1.428 0.238c-1.092 0-1.955-0.313-2.59-0.938-0.625-0.625-0.938-1.489-0.938-2.59 0-0.7 0.135-1.321 0.406-1.862 0.28-0.541 0.667-0.961 1.162-1.26 0.504-0.299 1.073-0.448 1.708-0.448 0.924 0 1.647 0.299 2.17 0.896 0.532 0.597 0.798 1.423 0.798 2.478v0.448zm-2.94-2.786c-0.541 0-0.975 0.173-1.302 0.518-0.317 0.336-0.509 0.821-0.574 1.456h3.598c-0.028-0.635-0.191-1.12-0.49-1.456-0.289-0.345-0.7-0.518-1.232-0.518zm12.338-1.036c1.531 0 2.296 0.919 2.296 2.758v4.242h-1.414v-4.186c0-0.579-0.102-0.999-0.308-1.26-0.196-0.271-0.518-0.406-0.966-0.406-0.513 0-0.919 0.177-1.218 0.532-0.298 0.355-0.448 0.84-0.448 1.456v3.864h-1.414v-4.186c0-0.579-0.102-0.999-0.308-1.26-0.205-0.271-0.527-0.406-0.966-0.406-0.522 0-0.933 0.177-1.232 0.532-0.298 0.355-0.448 0.84-0.448 1.456v3.864h-1.414v-6.832h1.386v1.036c0.215-0.383 0.504-0.677 0.868-0.882 0.364-0.215 0.78-0.322 1.246-0.322 1.055 0 1.741 0.439 2.058 1.316 0.215-0.411 0.523-0.733 0.924-0.966 0.402-0.233 0.854-0.35 1.358-0.35zm7.901 0c0.588 0 1.11 0.149 1.568 0.448 0.466 0.299 0.826 0.719 1.078 1.26 0.261 0.541 0.392 1.167 0.392 1.876 0 0.7-0.126 1.316-0.378 1.848s-0.612 0.943-1.078 1.232c-0.458 0.289-0.985 0.434-1.582 0.434-0.514 0-0.966-0.107-1.358-0.322-0.392-0.224-0.691-0.541-0.896-0.952v3.696h-1.414v-9.352h1.414v1.12c0.205-0.411 0.504-0.728 0.896-0.952s0.844-0.336 1.358-0.336zm-0.336 5.978c0.616 0 1.092-0.205 1.428-0.616 0.336-0.42 0.504-1.013 0.504-1.778 0-0.775-0.173-1.377-0.518-1.806-0.336-0.429-0.808-0.644-1.414-0.644-0.616 0-1.092 0.21-1.428 0.63-0.327 0.42-0.49 1.017-0.49 1.792s0.163 1.372 0.49 1.792c0.336 0.42 0.812 0.63 1.428 0.63zm7.907 1.12c-0.672 0-1.265-0.145-1.778-0.434-0.504-0.289-0.896-0.7-1.176-1.232-0.271-0.541-0.406-1.167-0.406-1.876 0-0.719 0.135-1.344 0.406-1.876 0.28-0.541 0.672-0.957 1.176-1.246 0.513-0.289 1.106-0.434 1.778-0.434s1.26 0.145 1.764 0.434c0.513 0.289 0.905 0.705 1.176 1.246 0.28 0.532 0.42 1.157 0.42 1.876 0 0.709-0.14 1.335-0.42 1.876-0.271 0.532-0.663 0.943-1.176 1.232-0.504 0.289-1.092 0.434-1.764 0.434zm0-1.12c0.625 0 1.101-0.205 1.428-0.616 0.336-0.411 0.504-1.013 0.504-1.806 0-0.784-0.168-1.381-0.504-1.792-0.336-0.42-0.812-0.63-1.428-0.63s-1.092 0.21-1.428 0.63c-0.336 0.411-0.504 1.008-0.504 1.792 0 0.793 0.163 1.395 0.49 1.806 0.336 0.411 0.817 0.616 1.442 0.616z" fill="#000"/>
<path d="m213.45 12.13h3.458c1.596 0 2.832 0.4293 3.71 1.288 0.877 0.8587 1.316 2.072 1.316 3.64s-0.439 2.786-1.316 3.654c-0.878 0.8587-2.114 1.288-3.71 1.288h-3.458v-9.87zm3.374 8.666c2.426 0 3.64-1.246 3.64-3.738 0-2.4827-1.214-3.724-3.64-3.724h-1.932v7.462h1.932zm6.903 1.204v-6.832h1.414v6.832h-1.414zm-0.098-9.884h1.624v1.47h-1.624v-1.47zm9.341 6.706h-4.83c0.102 1.4467 0.821 2.17 2.156 2.17 0.784 0 1.493-0.2567 2.128-0.77l0.434 0.994c-0.318 0.2707-0.71 0.4853-1.176 0.644-0.467 0.1587-0.943 0.238-1.428 0.238-1.092 0-1.956-0.3127-2.59-0.938-0.626-0.6253-0.938-1.4887-0.938-2.59 0-0.7 0.135-1.3207 0.406-1.862 0.28-0.5413 0.667-0.9613 1.162-1.26 0.504-0.2987 1.073-0.448 1.708-0.448 0.924 0 1.647 0.2987 2.17 0.896 0.532 0.5973 0.798 1.4233 0.798 2.478v0.448zm-2.94-2.786c-0.542 0-0.976 0.1727-1.302 0.518-0.318 0.336-0.509 0.8213-0.574 1.456h3.598c-0.028-0.6347-0.192-1.12-0.49-1.456-0.29-0.3453-0.7-0.518-1.232-0.518zm7.664 4.97c0.214 0 0.424-0.014 0.63-0.042l-0.07 1.078c-0.234 0.0373-0.476 0.056-0.728 0.056-0.887 0-1.55-0.2147-1.988-0.644-0.43-0.4387-0.644-1.0687-0.644-1.89v-3.304h-1.33v-1.092h1.33v-2.058h1.414v2.058h1.876v1.092h-1.876v3.248c0 0.9987 0.462 1.498 1.386 1.498zm4.557-6.006c0.915 0 1.591 0.2287 2.03 0.686 0.448 0.4573 0.672 1.1527 0.672 2.086v4.228h-1.358v-1.134c-0.177 0.4013-0.443 0.7093-0.798 0.924-0.345 0.2053-0.751 0.308-1.218 0.308-0.448 0-0.859-0.0887-1.232-0.266-0.373-0.1867-0.667-0.4433-0.882-0.77-0.205-0.3267-0.308-0.6907-0.308-1.092 0-0.4947 0.126-0.882 0.378-1.162 0.261-0.2893 0.686-0.4947 1.274-0.616 0.597-0.1213 1.414-0.182 2.45-0.182h0.322v-0.406c0-0.5227-0.112-0.9007-0.336-1.134-0.215-0.2333-0.569-0.35-1.064-0.35-0.775 0-1.549 0.238-2.324 0.714l-0.42-0.994c0.364-0.252 0.803-0.4527 1.316-0.602 0.523-0.1587 1.022-0.238 1.498-0.238zm-0.42 6.048c0.513 0 0.933-0.1727 1.26-0.518 0.327-0.3547 0.49-0.8073 0.49-1.358v-0.364h-0.252c-0.728 0-1.288 0.0327-1.68 0.098s-0.672 0.1773-0.84 0.336c-0.168 0.1493-0.252 0.3687-0.252 0.658 0 0.3267 0.117 0.602 0.35 0.826 0.243 0.2147 0.551 0.322 0.924 0.322zm16.924 0.952h-1.596l-1.68-3.164c-0.187-0.336-0.411-0.5693-0.672-0.7-0.252-0.14-0.588-0.21-1.008-0.21h-1.624v4.074h-1.428v-9.87h4.2c1.092 0 1.922 0.2427 2.492 0.728 0.578 0.4853 0.868 1.1947 0.868 2.128 0 0.756-0.215 1.3767-0.644 1.862-0.42 0.4853-1.022 0.7933-1.806 0.924 0.485 0.1493 0.886 0.5133 1.204 1.092l1.694 3.136zm-3.976-5.236c0.728 0 1.264-0.14 1.61-0.42 0.354-0.2893 0.532-0.7327 0.532-1.33s-0.173-1.0313-0.518-1.302c-0.346-0.28-0.887-0.42-1.624-0.42h-2.618v3.472h2.618zm11.318 2.058h-4.83c0.102 1.4467 0.821 2.17 2.156 2.17 0.784 0 1.493-0.2567 2.128-0.77l0.434 0.994c-0.318 0.2707-0.71 0.4853-1.176 0.644-0.467 0.1587-0.943 0.238-1.428 0.238-1.092 0-1.956-0.3127-2.59-0.938-0.626-0.6253-0.938-1.4887-0.938-2.59 0-0.7 0.135-1.3207 0.406-1.862 0.28-0.5413 0.667-0.9613 1.162-1.26 0.504-0.2987 1.073-0.448 1.708-0.448 0.924 0 1.647 0.2987 2.17 0.896 0.532 0.5973 0.798 1.4233 0.798 2.478v0.448zm-2.94-2.786c-0.542 0-0.976 0.1727-1.302 0.518-0.318 0.336-0.509 0.8213-0.574 1.456h3.598c-0.028-0.6347-0.192-1.12-0.49-1.456-0.29-0.3453-0.7-0.518-1.232-0.518zm6.906 6.062c-1.185 0-2.133-0.2893-2.842-0.868l0.434-1.022c0.7 0.5413 1.517 0.812 2.45 0.812 0.457 0 0.807-0.0747 1.05-0.224 0.243-0.1587 0.364-0.378 0.364-0.658 0-0.2427-0.084-0.434-0.252-0.574-0.159-0.14-0.439-0.2567-0.84-0.35l-1.134-0.252c-0.607-0.14-1.064-0.3687-1.372-0.686s-0.462-0.7187-0.462-1.204c0-0.616 0.247-1.1153 0.742-1.498 0.504-0.3827 1.162-0.574 1.974-0.574 0.485 0 0.947 0.0793 1.386 0.238 0.439 0.1493 0.817 0.364 1.134 0.644l-0.434 0.994c-0.672-0.532-1.367-0.798-2.086-0.798-0.429 0-0.77 0.084-1.022 0.252-0.243 0.168-0.364 0.3967-0.364 0.686 0 0.2333 0.075 0.4247 0.224 0.574 0.159 0.14 0.406 0.2473 0.742 0.322l1.162 0.266c0.663 0.1493 1.148 0.3827 1.456 0.7 0.308 0.308 0.462 0.714 0.462 1.218 0 0.616-0.252 1.106-0.756 1.47-0.495 0.3547-1.167 0.532-2.016 0.532zm7.511-1.092c0.215 0 0.425-0.014 0.63-0.042l-0.07 1.078c-0.233 0.0373-0.476 0.056-0.728 0.056-0.886 0-1.549-0.2147-1.988-0.644-0.429-0.4387-0.644-1.0687-0.644-1.89v-3.304h-1.33v-1.092h1.33v-2.058h1.414v2.058h1.876v1.092h-1.876v3.248c0 0.9987 0.462 1.498 1.386 1.498zm5.86-4.816-0.854 0.084c-0.672 0.0653-1.157 0.2707-1.456 0.616-0.289 0.3453-0.434 0.784-0.434 1.316v3.794h-1.414v-6.832h1.372v1.19c0.364-0.8027 1.106-1.246 2.226-1.33l0.462-0.028 0.098 1.19zm0.969 5.81v-6.832h1.414v6.832h-1.414zm-0.098-9.884h1.624v1.47h-1.624v-1.47zm6.723 8.89c0.214 0 0.424-0.014 0.63-0.042l-0.07 1.078c-0.234 0.0373-0.476 0.056-0.728 0.056-0.887 0-1.55-0.2147-1.988-0.644-0.43-0.4387-0.644-1.0687-0.644-1.89v-3.304h-1.33v-1.092h1.33v-2.058h1.414v2.058h1.876v1.092h-1.876v3.248c0 0.9987 0.462 1.498 1.386 1.498zm4.908 0c0.214 0 0.424-0.014 0.63-0.042l-0.07 1.078c-0.234 0.0373-0.476 0.056-0.728 0.056-0.887 0-1.55-0.2147-1.988-0.644-0.43-0.4387-0.644-1.0687-0.644-1.89v-3.304h-1.33v-1.092h1.33v-2.058h1.414v2.058h1.876v1.092h-1.876v3.248c0 0.9987 0.462 1.498 1.386 1.498zm1.701 0.994v-6.832h1.414v6.832h-1.414zm-0.098-9.884h1.624v1.47h-1.624v-1.47zm8.333 3.066h1.414l-2.968 6.818h-1.274l-2.94-6.818h1.484l2.128 5.222 2.156-5.222zm5.176-0.182c0.915 0 1.591 0.2287 2.03 0.686 0.448 0.4573 0.672 1.1527 0.672 2.086v4.228h-1.358v-1.134c-0.177 0.4013-0.443 0.7093-0.798 0.924-0.345 0.2053-0.751 0.308-1.218 0.308-0.448 0-0.859-0.0887-1.232-0.266-0.373-0.1867-0.667-0.4433-0.882-0.77-0.205-0.3267-0.308-0.6907-0.308-1.092 0-0.4947 0.126-0.882 0.378-1.162 0.261-0.2893 0.686-0.4947 1.274-0.616 0.597-0.1213 1.414-0.182 2.45-0.182h0.322v-0.406c0-0.5227-0.112-0.9007-0.336-1.134-0.215-0.2333-0.569-0.35-1.064-0.35-0.775 0-1.549 0.238-2.324 0.714l-0.42-0.994c0.364-0.252 0.803-0.4527 1.316-0.602 0.523-0.1587 1.022-0.238 1.498-0.238zm-0.42 6.048c0.513 0 0.933-0.1727 1.26-0.518 0.327-0.3547 0.49-0.8073 0.49-1.358v-0.364h-0.252c-0.728 0-1.288 0.0327-1.68 0.098s-0.672 0.1773-0.84 0.336c-0.168 0.1493-0.252 0.3687-0.252 0.658 0 0.3267 0.117 0.602 0.35 0.826 0.243 0.2147 0.551 0.322 0.924 0.322z" fill="#EC3B15"/>
<path d="m220.53 145.13h3.458c1.596 0 2.833 0.429 3.71 1.288s1.316 2.072 1.316 3.64-0.439 2.786-1.316 3.654c-0.877 0.859-2.114 1.288-3.71 1.288h-3.458v-9.87zm3.374 8.666c2.427 0 3.64-1.246 3.64-3.738 0-2.483-1.213-3.724-3.64-3.724h-1.932v7.462h1.932zm6.903 1.204v-6.832h1.414v6.832h-1.414zm-0.098-9.884h1.624v1.47h-1.624v-1.47zm9.341 6.706h-4.83c0.103 1.447 0.821 2.17 2.156 2.17 0.784 0 1.493-0.257 2.128-0.77l0.434 0.994c-0.317 0.271-0.709 0.485-1.176 0.644s-0.943 0.238-1.428 0.238c-1.092 0-1.955-0.313-2.59-0.938-0.625-0.625-0.938-1.489-0.938-2.59 0-0.7 0.135-1.321 0.406-1.862 0.28-0.541 0.667-0.961 1.162-1.26 0.504-0.299 1.073-0.448 1.708-0.448 0.924 0 1.647 0.299 2.17 0.896 0.532 0.597 0.798 1.423 0.798 2.478v0.448zm-2.94-2.786c-0.541 0-0.975 0.173-1.302 0.518-0.317 0.336-0.509 0.821-0.574 1.456h3.598c-0.028-0.635-0.191-1.12-0.49-1.456-0.289-0.345-0.7-0.518-1.232-0.518zm7.664 4.97c0.214 0 0.424-0.014 0.63-0.042l-0.07 1.078c-0.234 0.037-0.476 0.056-0.728 0.056-0.887 0-1.55-0.215-1.988-0.644-0.43-0.439-0.644-1.069-0.644-1.89v-3.304h-1.33v-1.092h1.33v-2.058h1.414v2.058h1.876v1.092h-1.876v3.248c0 0.999 0.462 1.498 1.386 1.498zm4.557-6.006c0.915 0 1.592 0.229 2.03 0.686 0.448 0.457 0.672 1.153 0.672 2.086v4.228h-1.358v-1.134c-0.177 0.401-0.443 0.709-0.798 0.924-0.345 0.205-0.751 0.308-1.218 0.308-0.448 0-0.858-0.089-1.232-0.266-0.373-0.187-0.667-0.443-0.882-0.77-0.205-0.327-0.308-0.691-0.308-1.092 0-0.495 0.126-0.882 0.378-1.162 0.262-0.289 0.686-0.495 1.274-0.616 0.598-0.121 1.414-0.182 2.45-0.182h0.322v-0.406c0-0.523-0.112-0.901-0.336-1.134-0.214-0.233-0.569-0.35-1.064-0.35-0.774 0-1.549 0.238-2.324 0.714l-0.42-0.994c0.364-0.252 0.803-0.453 1.316-0.602 0.523-0.159 1.022-0.238 1.498-0.238zm-0.42 6.048c0.514 0 0.934-0.173 1.26-0.518 0.327-0.355 0.49-0.807 0.49-1.358v-0.364h-0.252c-0.728 0-1.288 0.033-1.68 0.098s-0.672 0.177-0.84 0.336c-0.168 0.149-0.252 0.369-0.252 0.658 0 0.327 0.117 0.602 0.35 0.826 0.243 0.215 0.551 0.322 0.924 0.322zm14.726-4.13c0.569 0.159 1.008 0.443 1.316 0.854 0.317 0.411 0.476 0.924 0.476 1.54 0 0.849-0.294 1.512-0.882 1.988-0.579 0.467-1.391 0.7-2.436 0.7h-4.284v-9.87h4.13c1.017 0 1.81 0.229 2.38 0.686 0.578 0.448 0.868 1.078 0.868 1.89 0 0.523-0.14 0.975-0.42 1.358-0.271 0.383-0.654 0.667-1.148 0.854zm-4.396-0.518h2.492c1.381 0 2.072-0.523 2.072-1.568 0-0.523-0.173-0.91-0.518-1.162-0.336-0.252-0.854-0.378-1.554-0.378h-2.492v3.108zm2.716 4.438c0.718 0 1.246-0.131 1.582-0.392s0.504-0.667 0.504-1.218c0-0.56-0.173-0.975-0.518-1.246-0.336-0.28-0.859-0.42-1.568-0.42h-2.716v3.276h2.716zm5.19 1.162v-6.832h1.414v6.832h-1.414zm-0.098-9.884h1.624v1.47h-1.624v-1.47zm3.489 9.884v-9.87h1.414v9.87h-1.414zm6.246-7c0.915 0 1.592 0.229 2.03 0.686 0.448 0.457 0.672 1.153 0.672 2.086v4.228h-1.358v-1.134c-0.177 0.401-0.443 0.709-0.798 0.924-0.345 0.205-0.751 0.308-1.218 0.308-0.448 0-0.858-0.089-1.232-0.266-0.373-0.187-0.667-0.443-0.882-0.77-0.205-0.327-0.308-0.691-0.308-1.092 0-0.495 0.126-0.882 0.378-1.162 0.262-0.289 0.686-0.495 1.274-0.616 0.598-0.121 1.414-0.182 2.45-0.182h0.322v-0.406c0-0.523-0.112-0.901-0.336-1.134-0.214-0.233-0.569-0.35-1.064-0.35-0.774 0-1.549 0.238-2.324 0.714l-0.42-0.994c0.364-0.252 0.803-0.453 1.316-0.602 0.523-0.159 1.022-0.238 1.498-0.238zm-0.42 6.048c0.514 0 0.934-0.173 1.26-0.518 0.327-0.355 0.49-0.807 0.49-1.358v-0.364h-0.252c-0.728 0-1.288 0.033-1.68 0.098s-0.672 0.177-0.84 0.336c-0.168 0.149-0.252 0.369-0.252 0.658 0 0.327 0.117 0.602 0.35 0.826 0.243 0.215 0.551 0.322 0.924 0.322zm8.739-6.048c1.633 0 2.45 0.919 2.45 2.758v4.242h-1.414v-4.172c0-0.579-0.117-1.003-0.35-1.274-0.224-0.271-0.579-0.406-1.064-0.406-0.57 0-1.027 0.177-1.372 0.532-0.346 0.355-0.518 0.831-0.518 1.428v3.892h-1.414v-6.832h1.386v1.092c0.224-0.411 0.536-0.723 0.938-0.938 0.401-0.215 0.854-0.322 1.358-0.322zm7.38 7.098c-0.691 0-1.293-0.145-1.806-0.434-0.504-0.289-0.896-0.695-1.176-1.218-0.271-0.532-0.406-1.153-0.406-1.862s0.14-1.335 0.42-1.876c0.289-0.541 0.691-0.961 1.204-1.26 0.523-0.299 1.129-0.448 1.82-0.448 0.476 0 0.933 0.079 1.372 0.238 0.448 0.159 0.812 0.373 1.092 0.644l-0.434 1.008c-0.616-0.504-1.255-0.756-1.918-0.756-0.653 0-1.167 0.215-1.54 0.644-0.364 0.42-0.546 1.017-0.546 1.792 0 0.765 0.182 1.358 0.546 1.778 0.364 0.411 0.877 0.616 1.54 0.616s1.302-0.252 1.918-0.756l0.434 1.022c-0.299 0.271-0.672 0.485-1.12 0.644-0.448 0.149-0.915 0.224-1.4 0.224zm3.771-0.098v-6.832h1.414v6.832h-1.414zm-0.098-9.884h1.624v1.47h-1.624v-1.47zm6.345 2.884c0.915 0 1.591 0.229 2.03 0.686 0.448 0.457 0.672 1.153 0.672 2.086v4.228h-1.358v-1.134c-0.177 0.401-0.443 0.709-0.798 0.924-0.345 0.205-0.751 0.308-1.218 0.308-0.448 0-0.859-0.089-1.232-0.266-0.373-0.187-0.667-0.443-0.882-0.77-0.205-0.327-0.308-0.691-0.308-1.092 0-0.495 0.126-0.882 0.378-1.162 0.261-0.289 0.686-0.495 1.274-0.616 0.597-0.121 1.414-0.182 2.45-0.182h0.322v-0.406c0-0.523-0.112-0.901-0.336-1.134-0.215-0.233-0.569-0.35-1.064-0.35-0.775 0-1.549 0.238-2.324 0.714l-0.42-0.994c0.364-0.252 0.803-0.453 1.316-0.602 0.523-0.159 1.022-0.238 1.498-0.238zm-0.42 6.048c0.513 0 0.933-0.173 1.26-0.518 0.327-0.355 0.49-0.807 0.49-1.358v-0.364h-0.252c-0.728 0-1.288 0.033-1.68 0.098s-0.672 0.177-0.84 0.336c-0.168 0.149-0.252 0.369-0.252 0.658 0 0.327 0.117 0.602 0.35 0.826 0.243 0.215 0.551 0.322 0.924 0.322zm8.29-0.042c0.215 0 0.425-0.014 0.63-0.042l-0.07 1.078c-0.233 0.037-0.476 0.056-0.728 0.056-0.886 0-1.549-0.215-1.988-0.644-0.429-0.439-0.644-1.069-0.644-1.89v-3.304h-1.33v-1.092h1.33v-2.058h1.414v2.058h1.876v1.092h-1.876v3.248c0 0.999 0.462 1.498 1.386 1.498zm4.558-6.006c0.915 0 1.591 0.229 2.03 0.686 0.448 0.457 0.672 1.153 0.672 2.086v4.228h-1.358v-1.134c-0.177 0.401-0.443 0.709-0.798 0.924-0.345 0.205-0.751 0.308-1.218 0.308-0.448 0-0.859-0.089-1.232-0.266-0.373-0.187-0.667-0.443-0.882-0.77-0.205-0.327-0.308-0.691-0.308-1.092 0-0.495 0.126-0.882 0.378-1.162 0.261-0.289 0.686-0.495 1.274-0.616 0.597-0.121 1.414-0.182 2.45-0.182h0.322v-0.406c0-0.523-0.112-0.901-0.336-1.134-0.215-0.233-0.569-0.35-1.064-0.35-0.775 0-1.549 0.238-2.324 0.714l-0.42-0.994c0.364-0.252 0.803-0.453 1.316-0.602 0.523-0.159 1.022-0.238 1.498-0.238zm-0.42 6.048c0.513 0 0.933-0.173 1.26-0.518 0.327-0.355 0.49-0.807 0.49-1.358v-0.364h-0.252c-0.728 0-1.288 0.033-1.68 0.098s-0.672 0.177-0.84 0.336c-0.168 0.149-0.252 0.369-0.252 0.658 0 0.327 0.117 0.602 0.35 0.826 0.243 0.215 0.551 0.322 0.924 0.322z" fill="#00CFC3"/>
<path d="m28.165 12.13h4.088c1.0453 0 1.8573 0.2567 2.436 0.77s0.868 1.2413 0.868 2.184c0 0.9333-0.2893 1.6613-0.868 2.184s-1.3907 0.784-2.436 0.784h-2.646v3.948h-1.442v-9.87zm3.934 4.76c1.3813 0 2.072-0.602 2.072-1.806 0-1.1947-0.6907-1.792-2.072-1.792h-2.492v3.598h2.492zm10.65 1.932h-4.83c0.1027 1.4467 0.8213 2.17 2.156 2.17 0.784 0 1.4933-0.2567 2.128-0.77l0.434 0.994c-0.3173 0.2707-0.7093 0.4853-1.176 0.644s-0.9427 0.238-1.428 0.238c-1.092 0-1.9553-0.3127-2.59-0.938-0.6253-0.6253-0.938-1.4887-0.938-2.59 0-0.7 0.1353-1.3207 0.406-1.862 0.28-0.5413 0.6673-0.9613 1.162-1.26 0.504-0.2987 1.0733-0.448 1.708-0.448 0.924 0 1.6473 0.2987 2.17 0.896 0.532 0.5973 0.798 1.4233 0.798 2.478v0.448zm-2.94-2.786c-0.5413 0-0.9753 0.1727-1.302 0.518-0.3173 0.336-0.5087 0.8213-0.574 1.456h3.598c-0.028-0.6347-0.1913-1.12-0.49-1.456-0.2893-0.3453-0.7-0.518-1.232-0.518zm6.9061 6.062c-1.1853 0-2.1326-0.2893-2.842-0.868l0.434-1.022c0.7 0.5413 1.5167 0.812 2.45 0.812 0.4574 0 0.8074-0.0747 1.05-0.224 0.2427-0.1587 0.364-0.378 0.364-0.658 0-0.2427-0.084-0.434-0.252-0.574-0.1586-0.14-0.4386-0.2567-0.84-0.35l-1.134-0.252c-0.6066-0.14-1.064-0.3687-1.372-0.686s-0.462-0.7187-0.462-1.204c0-0.616 0.2474-1.1153 0.742-1.498 0.504-0.3827 1.162-0.574 1.974-0.574 0.4854 0 0.9474 0.0793 1.386 0.238 0.4387 0.1493 0.8167 0.364 1.134 0.644l-0.434 0.994c-0.672-0.532-1.3673-0.798-2.086-0.798-0.4293 0-0.77 0.084-1.022 0.252-0.2426 0.168-0.364 0.3967-0.364 0.686 0 0.2333 0.0747 0.4247 0.224 0.574 0.1587 0.14 0.406 0.2473 0.742 0.322l1.162 0.266c0.6627 0.1493 1.148 0.3827 1.456 0.7 0.308 0.308 0.462 0.714 0.462 1.218 0 0.616-0.252 1.106-0.756 1.47-0.4946 0.3547-1.1666 0.532-2.016 0.532zm7.314 0c-0.672 0-1.2647-0.1447-1.778-0.434-0.504-0.2893-0.896-0.7-1.176-1.232-0.2707-0.5413-0.406-1.1667-0.406-1.876 0-0.7187 0.1353-1.344 0.406-1.876 0.28-0.5413 0.672-0.9567 1.176-1.246 0.5133-0.2893 1.106-0.434 1.778-0.434s1.26 0.1447 1.764 0.434c0.5133 0.2893 0.9053 0.7047 1.176 1.246 0.28 0.532 0.42 1.1573 0.42 1.876 0 0.7093-0.14 1.3347-0.42 1.876-0.2707 0.532-0.6627 0.9427-1.176 1.232-0.504 0.2893-1.092 0.434-1.764 0.434zm0-1.12c0.6253 0 1.1013-0.2053 1.428-0.616 0.336-0.4107 0.504-1.0127 0.504-1.806 0-0.784-0.168-1.3813-0.504-1.792-0.336-0.42-0.812-0.63-1.428-0.63s-1.092 0.21-1.428 0.63c-0.336 0.4107-0.504 1.008-0.504 1.792 0 0.7933 0.1633 1.3953 0.49 1.806 0.336 0.4107 0.8166 0.616 1.442 0.616z" fill="#000"/>
<path d="m39.223 80.836v105.32h228.63v-18.289s-49.663 7.153-93.54-8.374c-30.123-11.136-44.167-24.628-67.138-44.575-42.655-32.769-67.952-34.077-67.952-34.077z" fill="#ADEEEA"/>
<path d="M267.853 186.151H39.2231V30.5" stroke="#C5C5C5" stroke-miterlimit="10" stroke-width=".58153"/>
<path d="m267.85 167.86s-49.663 7.153-93.54-8.374c-30.123-11.136-44.167-24.628-67.138-44.575-42.655-32.769-67.952-34.077-67.952-34.077" stroke="#00CFC3" stroke-miterlimit="10" stroke-width=".58153"/>
<g filter="url(#b)">
<path d="m268.34 174.28c3.917 0 7.092-3.175 7.092-7.092s-3.175-7.092-7.092-7.092-7.092 3.175-7.092 7.092 3.175 7.092 7.092 7.092z" clip-rule="evenodd" fill="#00CFC3" fill-rule="evenodd"/>
<path d="m273.87 167.18c0 3.056-2.478 5.533-5.534 5.533s-5.534-2.477-5.534-5.533c0-3.057 2.478-5.534 5.534-5.534s5.534 2.477 5.534 5.534z" stroke="#fff" stroke-width="3.1168"/>
</g>
<path d="m267.3 80.516v-46.668s-24.017-1.8609-44.924 15.469c-11.805 9.7989-19.597 20.644-25.645 31.199h70.569z" fill="#FFBAAB"/>
<path d="m267.39 33.383s-24.017-1.8609-44.923 15.469c-40.707 33.845-33.845 80.048-70.715 83.363-19.248 1.657-39.34-14.045-45.039-17.795-42.656-32.741-67.982-34.049-67.982-34.049" stroke="#EC3B15" stroke-miterlimit="10" stroke-width=".58153"/>
<path d="m268 37.047c2.056 0 3.722-1.6663 3.722-3.7218s-1.666-3.7218-3.722-3.7218c-2.055 0-3.721 1.6663-3.721 3.7218s1.666 3.7218 3.721 3.7218z" fill="#EC3B15"/>
<path d="m38.38 80.517h1.4539" stroke="#EC3B15" stroke-miterlimit="10" stroke-width=".58153"/>
<path d="m42.769 80.517h221.59" stroke="#EC3B15" stroke-dasharray="2.94 2.94" stroke-miterlimit="10" stroke-width=".58153"/>
<path d="m265.85 80.517h1.454" stroke="#EC3B15" stroke-miterlimit="10" stroke-width=".58153"/>
<path d="m106.48 117.39c2.055 0 3.722-1.667 3.722-3.722 0-2.056-1.667-3.722-3.722-3.722-2.056 0-3.722 1.666-3.722 3.722 0 2.055 1.666 3.722 3.722 3.722z" fill="#EC3B15"/>
<path d="m106.39 185.28v-1.454" stroke="#EC3B15" stroke-miterlimit="10" stroke-width=".58153"/>
<path d="m106.39 180.86v-63.852" stroke="#EC3B15" stroke-dasharray="2.97 2.97" stroke-miterlimit="10" stroke-width=".58153"/>
<path d="m106.39 115.52v-1.454" stroke="#EC3B15" stroke-miterlimit="10" stroke-width=".58153"/>
<g filter="url(#a)">
<path d="m39.338 88.275c3.9169 0 7.0921-3.1753 7.0921-7.0921 0-3.9169-3.1752-7.0921-7.0921-7.0921s-7.0921 3.1752-7.0921 7.0921c0 3.9168 3.1752 7.0921 7.0921 7.0921z" clip-rule="evenodd" fill="#00CFC3" fill-rule="evenodd"/>
<path d="m44.872 81.183c0 3.0562-2.4775 5.5337-5.5337 5.5337s-5.5337-2.4775-5.5337-5.5337 2.4775-5.5337 5.5337-5.5337 5.5337 2.4775 5.5337 5.5337z" stroke="#fff" stroke-width="3.1168"/>
</g>
<defs>
<filter id="b" x="252.94" y="155.94" width="30.807" height="30.807" color-interpolation-filters="sRGB" filterUnits="userSpaceOnUse">
<feFlood flood-opacity="0" result="BackgroundImageFix"/>
<feColorMatrix in="SourceAlpha" values="0 0 0 0 0 0 0 0 0 0 0 0 0 0 0 0 0 0 127 0"/>
<feOffset dy="4.15575"/>
<feGaussianBlur stdDeviation="4.15575"/>
<feColorMatrix values="0 0 0 0 0 0 0 0 0 0 0 0 0 0 0 0 0 0 0.16 0"/>
<feBlend in2="BackgroundImageFix" result="effect1_dropShadow"/>
<feBlend in="SourceGraphic" in2="effect1_dropShadow" result="shape"/>
</filter>
<filter id="a" x="23.935" y="69.935" width="30.807" height="30.807" color-interpolation-filters="sRGB" filterUnits="userSpaceOnUse">
<feFlood flood-opacity="0" result="BackgroundImageFix"/>
<feColorMatrix in="SourceAlpha" values="0 0 0 0 0 0 0 0 0 0 0 0 0 0 0 0 0 0 127 0"/>
<feOffset dy="4.15575"/>
<feGaussianBlur stdDeviation="4.15575"/>
<feColorMatrix values="0 0 0 0 0 0 0 0 0 0 0 0 0 0 0 0 0 0 0.16 0"/>
<feBlend in2="BackgroundImageFix" result="effect1_dropShadow"/>
<feBlend in="SourceGraphic" in2="effect1_dropShadow" result="shape"/>
</filter>
</defs>
</svg>
