<svg width="468" height="259" viewBox="0 0 468 259" fill="none" xmlns="http://www.w3.org/2000/svg">
<path d="M0 7.02088C0 3.14335 3.14336 0 7.0209 0H460.979C464.857 0 468 3.14336 468 7.0209V251.979C468 255.857 464.857 259 460.979 259H7.02091C3.14338 259 0 255.857 0 251.979V7.02088Z" fill="#F8F8F8"/>
<path d="M346.574 243.131C345.678 243.131 344.853 243.011 344.1 242.771C343.357 242.53 342.718 242.175 342.183 241.706L342.789 240.461C343.357 240.919 343.942 241.253 344.542 241.46C345.154 241.657 345.836 241.755 346.59 241.755C347.453 241.755 348.119 241.597 348.589 241.28C349.058 240.952 349.293 240.494 349.293 239.904C349.293 239.401 349.075 239.03 348.638 238.79C348.201 238.539 347.502 238.304 346.541 238.085C345.623 237.889 344.87 237.665 344.28 237.414C343.69 237.163 343.226 236.824 342.888 236.398C342.56 235.961 342.396 235.41 342.396 234.743C342.396 234.066 342.571 233.471 342.92 232.958C343.281 232.444 343.789 232.046 344.444 231.762C345.099 231.467 345.858 231.32 346.721 231.32C347.529 231.32 348.288 231.445 348.998 231.696C349.719 231.937 350.309 232.286 350.767 232.745L350.178 233.99C349.642 233.553 349.091 233.231 348.523 233.023C347.966 232.805 347.371 232.696 346.737 232.696C345.907 232.696 345.252 232.87 344.772 233.22C344.302 233.558 344.067 234.034 344.067 234.645C344.067 235.169 344.275 235.568 344.69 235.841C345.105 236.103 345.771 236.343 346.688 236.562C347.649 236.78 348.425 237.01 349.015 237.25C349.615 237.479 350.09 237.801 350.44 238.216C350.8 238.621 350.98 239.15 350.98 239.805C350.98 240.472 350.8 241.056 350.44 241.558C350.09 242.061 349.582 242.448 348.916 242.722C348.261 242.995 347.48 243.131 346.574 243.131ZM359.875 235.006V243H358.27V241.706C358.018 242.165 357.669 242.514 357.221 242.754C356.784 242.995 356.293 243.115 355.747 243.115C353.803 243.115 352.831 242.044 352.831 239.904V235.006H354.485V239.887C354.485 240.532 354.616 241.007 354.879 241.313C355.141 241.618 355.545 241.771 356.091 241.771C356.735 241.771 357.248 241.564 357.631 241.149C358.024 240.734 358.22 240.182 358.22 239.494V235.006H359.875ZM354.076 231.483H355.763V233.105H354.076V231.483ZM356.975 231.483H358.663V233.105H356.975V231.483ZM367.056 236.201L366.057 236.3C365.27 236.376 364.702 236.616 364.353 237.021C364.014 237.425 363.845 237.938 363.845 238.56V243H362.19V235.006H363.796V236.398C364.222 235.459 365.09 234.94 366.401 234.842L366.941 234.809L367.056 236.201ZM374.877 239.281H369.226C369.346 240.974 370.187 241.82 371.749 241.82C372.666 241.82 373.496 241.52 374.239 240.919L374.746 242.083C374.375 242.399 373.916 242.651 373.37 242.836C372.824 243.022 372.267 243.115 371.699 243.115C370.422 243.115 369.411 242.749 368.669 242.017C367.937 241.285 367.571 240.275 367.571 238.986C367.571 238.167 367.729 237.441 368.046 236.808C368.374 236.174 368.827 235.683 369.406 235.333C369.996 234.984 370.662 234.809 371.404 234.809C372.486 234.809 373.332 235.158 373.944 235.857C374.566 236.556 374.877 237.523 374.877 238.757V239.281ZM371.437 236.021C370.804 236.021 370.296 236.223 369.914 236.627C369.542 237.021 369.318 237.588 369.242 238.331H373.452C373.419 237.588 373.228 237.021 372.879 236.627C372.54 236.223 372.06 236.021 371.437 236.021Z" fill="black"/>
<path d="M319.701 26.1311C318.805 26.1311 317.98 26.0109 317.227 25.7707C316.484 25.5304 315.845 25.1754 315.31 24.7058L315.916 23.4608C316.484 23.9195 317.068 24.2526 317.669 24.4601C318.281 24.6567 318.963 24.755 319.717 24.755C320.58 24.755 321.246 24.5966 321.716 24.2799C322.185 23.9522 322.42 23.4935 322.42 22.9038C322.42 22.4014 322.202 22.0301 321.765 21.7898C321.328 21.5386 320.629 21.3038 319.668 21.0854C318.75 20.8888 317.997 20.6649 317.407 20.4137C316.817 20.1625 316.353 19.824 316.015 19.398C315.687 18.9612 315.523 18.4096 315.523 17.7434C315.523 17.0663 315.698 16.4711 316.047 15.9578C316.408 15.4445 316.916 15.0458 317.571 14.7619C318.226 14.467 318.985 14.3196 319.848 14.3196C320.656 14.3196 321.415 14.4452 322.125 14.6964C322.846 14.9366 323.436 15.2861 323.894 15.7448L323.305 16.9899C322.769 16.553 322.218 16.2308 321.65 16.0233C321.093 15.8049 320.498 15.6957 319.864 15.6957C319.034 15.6957 318.379 15.8704 317.899 16.2199C317.429 16.5585 317.194 17.0335 317.194 17.6451C317.194 18.1694 317.402 18.568 317.817 18.841C318.232 19.1031 318.898 19.3434 319.815 19.5618C320.776 19.7803 321.552 20.0096 322.141 20.2499C322.742 20.4792 323.217 20.8014 323.567 21.2164C323.927 21.6205 324.107 22.1502 324.107 22.8055C324.107 23.4717 323.927 24.056 323.567 24.5584C323.217 25.0608 322.709 25.4485 322.043 25.7215C321.388 25.9945 320.607 26.1311 319.701 26.1311ZM325.99 26V18.0055H327.645V26H325.99ZM334.267 17.809C336.178 17.809 337.133 18.8847 337.133 21.0362V26H335.479V21.1181C335.479 20.441 335.342 19.9441 335.069 19.6274C334.807 19.3106 334.392 19.1523 333.824 19.1523C333.158 19.1523 332.623 19.3598 332.219 19.7748C331.815 20.1898 331.613 20.7468 331.613 21.4458V26H329.958V18.0055H331.58V19.2833C331.842 18.8028 332.208 18.4369 332.677 18.1857C333.147 17.9346 333.677 17.809 334.267 17.809ZM339.397 26V18.0055H341.052V26H339.397ZM348.23 19.2014L347.231 19.2997C346.444 19.3762 345.876 19.6164 345.527 20.0205C345.188 20.4246 345.019 20.9379 345.019 21.5605V26H343.364V18.0055H344.97V19.398C345.396 18.4588 346.264 17.94 347.575 17.8417L348.115 17.809L348.23 19.2014ZM349.364 26V14.4506H351.018V26H349.364ZM353.331 26V18.0055H354.986V26H353.331ZM361.815 14.4506H365.861C367.729 14.4506 369.176 14.953 370.203 15.9578C371.229 16.9625 371.742 18.3823 371.742 20.2171C371.742 22.0519 371.229 23.4772 370.203 24.4928C369.176 25.4976 367.729 26 365.861 26H361.815V14.4506ZM365.763 24.5911C368.603 24.5911 370.022 23.1331 370.022 20.2171C370.022 17.312 368.603 15.8595 365.763 15.8595H363.502V24.5911H365.763ZM373.841 26V18.0055H375.496V26H373.841ZM373.726 14.4342H375.627V16.1544H373.726V14.4342ZM383.477 18.0219H385.131L380.364 28.9488H378.693L380.086 25.8034L376.727 18.0219H378.464L380.954 24.1324L383.477 18.0219ZM393.055 22.2813H387.403C387.524 23.9741 388.364 24.8205 389.926 24.8205C390.844 24.8205 391.674 24.5202 392.416 23.9195L392.924 25.0826C392.553 25.3993 392.094 25.6505 391.548 25.8362C391.002 26.0218 390.445 26.1147 389.877 26.1147C388.599 26.1147 387.589 25.7488 386.846 25.0171C386.115 24.2853 385.749 23.2751 385.749 21.9864C385.749 21.1673 385.907 20.441 386.224 19.8076C386.552 19.1741 387.005 18.6827 387.584 18.3332C388.173 17.9837 388.84 17.809 389.582 17.809C390.663 17.809 391.51 18.1584 392.121 18.8574C392.744 19.5564 393.055 20.5229 393.055 21.757V22.2813ZM389.615 19.0212C388.982 19.0212 388.474 19.2233 388.091 19.6274C387.72 20.0205 387.496 20.5884 387.42 21.3311H391.63C391.597 20.5884 391.406 20.0205 391.057 19.6274C390.718 19.2233 390.237 19.0212 389.615 19.0212ZM398.583 24.8369C398.834 24.8369 399.08 24.8205 399.32 24.7877L399.238 26.0491C398.965 26.0928 398.681 26.1147 398.386 26.1147C397.349 26.1147 396.573 25.8635 396.06 25.3611C395.558 24.8478 395.306 24.1106 395.306 23.1495V19.2833H393.75V18.0055H395.306V15.5974H396.961V18.0055H399.156V19.2833H396.961V23.084C396.961 24.2526 397.502 24.8369 398.583 24.8369Z" fill="#EC3B15"/>
<path d="M311.865 169.451H315.912C317.779 169.451 319.226 169.953 320.253 170.958C321.279 171.963 321.793 173.382 321.793 175.217C321.793 177.052 321.279 178.477 320.253 179.493C319.226 180.498 317.779 181 315.912 181H311.865V169.451ZM315.813 179.591C318.653 179.591 320.073 178.133 320.073 175.217C320.073 172.312 318.653 170.859 315.813 170.859H313.553V179.591H315.813ZM330.739 177.281H325.087C325.207 178.974 326.048 179.82 327.61 179.82C328.527 179.82 329.357 179.52 330.1 178.919L330.608 180.083C330.236 180.399 329.778 180.651 329.232 180.836C328.686 181.022 328.129 181.115 327.561 181.115C326.283 181.115 325.273 180.749 324.53 180.017C323.798 179.285 323.432 178.275 323.432 176.986C323.432 176.167 323.591 175.441 323.908 174.808C324.235 174.174 324.688 173.683 325.267 173.333C325.857 172.984 326.523 172.809 327.266 172.809C328.347 172.809 329.193 173.158 329.805 173.857C330.428 174.556 330.739 175.523 330.739 176.757V177.281ZM327.299 174.021C326.665 174.021 326.157 174.223 325.775 174.627C325.404 175.021 325.18 175.588 325.103 176.331H329.314C329.281 175.588 329.09 175.021 328.74 174.627C328.402 174.223 327.921 174.021 327.299 174.021ZM336.871 172.809C338.782 172.809 339.737 173.885 339.737 176.036V181H338.083V176.118C338.083 175.441 337.946 174.944 337.673 174.627C337.411 174.311 336.996 174.152 336.428 174.152C335.762 174.152 335.227 174.36 334.823 174.775C334.419 175.19 334.217 175.747 334.217 176.446V181H332.562V173.006H334.184V174.283C334.446 173.803 334.812 173.437 335.282 173.186C335.751 172.935 336.281 172.809 336.871 172.809ZM349.439 173.006V180.361C349.439 181.584 349.111 182.507 348.456 183.13C347.811 183.752 346.856 184.063 345.589 184.063C344.901 184.063 344.245 183.971 343.623 183.785C343.011 183.61 342.465 183.354 341.985 183.015L342.492 181.819C343.017 182.158 343.519 182.398 344 182.54C344.491 182.693 345.015 182.769 345.572 182.769C347.069 182.769 347.817 182.01 347.817 180.492V179.231C347.587 179.711 347.238 180.088 346.768 180.361C346.299 180.623 345.753 180.754 345.13 180.754C344.431 180.754 343.809 180.59 343.262 180.263C342.716 179.935 342.29 179.471 341.985 178.87C341.69 178.27 341.542 177.576 341.542 176.79C341.542 176.003 341.695 175.31 342.001 174.709C342.307 174.109 342.727 173.644 343.262 173.317C343.809 172.978 344.431 172.809 345.13 172.809C345.742 172.809 346.277 172.94 346.735 173.202C347.205 173.464 347.56 173.836 347.8 174.316V173.006H349.439ZM345.523 179.444C346.233 179.444 346.79 179.209 347.194 178.739C347.598 178.27 347.8 177.62 347.8 176.79C347.8 175.971 347.598 175.326 347.194 174.857C346.801 174.376 346.244 174.136 345.523 174.136C344.802 174.136 344.234 174.371 343.819 174.84C343.415 175.31 343.213 175.96 343.213 176.79C343.213 177.62 343.421 178.27 343.836 178.739C344.251 179.209 344.813 179.444 345.523 179.444ZM358.592 177.281H352.94C353.06 178.974 353.901 179.82 355.463 179.82C356.38 179.82 357.21 179.52 357.953 178.919L358.461 180.083C358.089 180.399 357.631 180.651 357.084 180.836C356.538 181.022 355.981 181.115 355.413 181.115C354.136 181.115 353.125 180.749 352.383 180.017C351.651 179.285 351.285 178.275 351.285 176.986C351.285 176.167 351.444 175.441 351.76 174.808C352.088 174.174 352.541 173.683 353.12 173.333C353.71 172.984 354.376 172.809 355.119 172.809C356.2 172.809 357.046 173.158 357.658 173.857C358.28 174.556 358.592 175.523 358.592 176.757V177.281ZM355.151 174.021C354.518 174.021 354.01 174.223 353.628 174.627C353.257 175.021 353.033 175.588 352.956 176.331H357.166C357.134 175.588 356.942 175.021 356.593 174.627C356.254 174.223 355.774 174.021 355.151 174.021ZM360.415 181V169.451H362.069V181H360.415ZM364.382 181V173.006H366.037V181H364.382ZM364.268 169.434H366.168V171.154H364.268V169.434ZM372.866 169.451H376.912C378.78 169.451 380.227 169.953 381.254 170.958C382.28 171.963 382.794 173.382 382.794 175.217C382.794 177.052 382.28 178.477 381.254 179.493C380.227 180.498 378.78 181 376.912 181H372.866V169.451ZM376.814 179.591C379.654 179.591 381.073 178.133 381.073 175.217C381.073 172.312 379.654 170.859 376.814 170.859H374.553V179.591H376.814ZM384.892 181V173.006H386.547V181H384.892ZM384.777 169.434H386.678V171.154H384.777V169.434ZM394.528 173.022H396.182L391.415 183.949H389.744L391.137 180.803L387.778 173.022H389.515L392.005 179.132L394.528 173.022ZM404.106 177.281H398.454C398.575 178.974 399.416 179.82 400.977 179.82C401.895 179.82 402.725 179.52 403.467 178.919L403.975 180.083C403.604 180.399 403.145 180.651 402.599 180.836C402.053 181.022 401.496 181.115 400.928 181.115C399.65 181.115 398.64 180.749 397.897 180.017C397.166 179.285 396.8 178.275 396.8 176.986C396.8 176.167 396.958 175.441 397.275 174.808C397.603 174.174 398.056 173.683 398.635 173.333C399.224 172.984 399.891 172.809 400.633 172.809C401.715 172.809 402.561 173.158 403.173 173.857C403.795 174.556 404.106 175.523 404.106 176.757V177.281ZM400.666 174.021C400.033 174.021 399.525 174.223 399.143 174.627C398.771 175.021 398.547 175.588 398.471 176.331H402.681C402.648 175.588 402.457 175.021 402.108 174.627C401.769 174.223 401.289 174.021 400.666 174.021ZM409.634 179.837C409.885 179.837 410.131 179.82 410.371 179.788L410.289 181.049C410.016 181.093 409.732 181.115 409.437 181.115C408.4 181.115 407.624 180.863 407.111 180.361C406.609 179.848 406.357 179.111 406.357 178.15V174.283H404.801V173.006H406.357V170.597H408.012V173.006H410.207V174.283H408.012V178.084C408.012 179.253 408.553 179.837 409.634 179.837Z" fill="#00CFC3"/>
<path d="M80.6026 26.3612L79.3739 23.5108H73.5255L72.2969 26.3612H70.5931L75.7371 14.8119H77.146L82.2899 26.3612H80.6026ZM74.0989 22.1674H78.8006L76.4579 16.6958L74.0989 22.1674ZM91.0441 18.3668V25.7223C91.0441 26.9455 90.7165 27.8684 90.0612 28.4909C89.4168 29.1134 88.4612 29.4247 87.1943 29.4247C86.5063 29.4247 85.851 29.3319 85.2285 29.1462C84.6169 28.9714 84.0708 28.7148 83.5903 28.3762L84.0981 27.1803C84.6223 27.5189 85.1247 27.7592 85.6053 27.9012C86.0967 28.0541 86.621 28.1305 87.178 28.1305C88.6742 28.1305 89.4223 27.3715 89.4223 25.8534V24.592C89.193 25.0725 88.8435 25.4493 88.3738 25.7223C87.9042 25.9844 87.3582 26.1155 86.7356 26.1155C86.0367 26.1155 85.4141 25.9517 84.8681 25.624C84.322 25.2964 83.8961 24.8322 83.5903 24.2316C83.2954 23.6309 83.148 22.9374 83.148 22.151C83.148 21.3647 83.3009 20.6712 83.6067 20.0705C83.9125 19.4698 84.3329 19.0057 84.8681 18.678C85.4141 18.3395 86.0367 18.1702 86.7356 18.1702C87.3472 18.1702 87.8824 18.3012 88.3411 18.5634C88.8107 18.8255 89.1656 19.1968 89.4059 19.6773V18.3668H91.0441ZM87.1288 24.8049C87.8387 24.8049 88.3957 24.5701 88.7998 24.1005C89.2039 23.6309 89.4059 22.9811 89.4059 22.151C89.4059 21.3319 89.2039 20.6876 88.7998 20.218C88.4066 19.7374 87.8496 19.4971 87.1288 19.4971C86.408 19.4971 85.8401 19.732 85.4251 20.2016C85.021 20.6712 84.8189 21.321 84.8189 22.151C84.8189 22.9811 85.0264 23.6309 85.4415 24.1005C85.8565 24.5701 86.4189 24.8049 87.1288 24.8049ZM87.3582 16.8596C86.7138 16.8596 86.1404 16.6794 85.638 16.319C85.1357 15.9586 84.7752 15.418 84.5568 14.6972L85.4906 14.304C85.7309 14.8064 86.0039 15.1668 86.3097 15.3852C86.6155 15.6037 86.965 15.7129 87.3582 15.7129C87.7513 15.7129 88.1008 15.6037 88.4066 15.3852C88.7124 15.1668 88.9854 14.8064 89.2257 14.304L90.1595 14.6972C89.952 15.418 89.5916 15.9586 89.0783 16.319C88.5759 16.6794 88.0025 16.8596 87.3582 16.8596ZM93.3495 26.3612V18.3668H95.0041V26.3612H93.3495ZM102.183 19.5627L101.183 19.661C100.397 19.7374 99.829 19.9777 99.4795 20.3818C99.1409 20.7859 98.9717 21.2992 98.9717 21.9217V26.3612H97.3171V18.3668H98.9225V19.7593C99.3484 18.82 100.217 18.3012 101.527 18.203L102.068 18.1702L102.183 19.5627ZM103.316 26.3612V14.8119H104.971V26.3612H103.316ZM107.284 26.3612V18.3668H108.938V26.3612H107.284ZM118.787 26.3612H116.69L112.906 22.5934V26.3612H111.251V14.8119H112.906V21.9708L116.412 18.3832H118.46L114.675 22.2166L118.787 26.3612Z" fill="black"/>
<path d="M90.6643 94.5897V217.825H358.196V196.424C358.196 196.424 300.082 204.794 248.74 186.625C213.491 173.594 197.058 157.806 170.179 134.466C120.265 96.1207 90.6643 94.5897 90.6643 94.5897Z" fill="#ADEEEA"/>
<path d="M358.196 217.825H90.6643V35.6895" stroke="#C5C5C5" stroke-width="0.680481" stroke-miterlimit="10"/>
<path d="M358.196 196.424C358.196 196.424 300.082 204.794 248.74 186.625C213.491 173.594 197.058 157.806 170.179 134.466C120.265 96.1207 90.6643 94.5897 90.6643 94.5897" stroke="#00CFC3" stroke-width="0.680481" stroke-miterlimit="10"/>
<g filter="url(#filter0_d)">
<path fill-rule="evenodd" clip-rule="evenodd" d="M358.763 203.927C363.347 203.927 367.062 200.212 367.062 195.629C367.062 191.045 363.347 187.33 358.763 187.33C354.18 187.33 350.464 191.045 350.464 195.629C350.464 200.212 354.18 203.927 358.763 203.927Z" fill="#00CFC3"/>
<path d="M365.238 195.629C365.238 199.205 362.339 202.104 358.763 202.104C355.187 202.104 352.288 199.205 352.288 195.629C352.288 192.052 355.187 189.153 358.763 189.153C362.339 189.153 365.238 192.052 365.238 195.629Z" stroke="white" stroke-width="3.64713"/>
</g>
<path d="M357.548 94.2159V39.6073C357.548 39.6073 329.444 37.4298 304.981 57.7081C291.167 69.1742 282.048 81.8652 274.971 94.2159H357.548Z" fill="#FFBAAB"/>
<path d="M357.65 39.0628C357.65 39.0628 329.546 36.8852 305.083 57.1636C257.449 96.7676 265.479 150.832 222.337 154.711C199.813 156.65 176.302 138.277 169.633 133.888C119.72 95.5768 90.085 94.0457 90.085 94.0457" stroke="#EC3B15" stroke-width="0.680481" stroke-miterlimit="10"/>
<path d="M358.365 43.35C360.771 43.35 362.72 41.4002 362.72 38.9949C362.72 36.5897 360.771 34.6398 358.365 34.6398C355.96 34.6398 354.01 36.5897 354.01 38.9949C354.01 41.4002 355.96 43.35 358.365 43.35Z" fill="#EC3B15"/>
<path d="M89.677 94.2164H91.3782" stroke="#EC3B15" stroke-width="0.680481" stroke-miterlimit="10"/>
<path d="M94.8132 94.2164H354.111" stroke="#EC3B15" stroke-width="0.680481" stroke-miterlimit="10" stroke-dasharray="3.43 3.43"/>
<path d="M355.846 94.2164H357.548" stroke="#EC3B15" stroke-width="0.680481" stroke-miterlimit="10"/>
<path d="M169.361 137.359C171.766 137.359 173.716 135.409 173.716 133.003C173.716 130.598 171.766 128.648 169.361 128.648C166.956 128.648 165.006 130.598 165.006 133.003C165.006 135.409 166.956 137.359 169.361 137.359Z" fill="#EC3B15"/>
<path d="M169.26 216.805V215.104" stroke="#EC3B15" stroke-width="0.680481" stroke-miterlimit="10"/>
<path d="M169.26 211.633V136.916" stroke="#EC3B15" stroke-width="0.680481" stroke-miterlimit="10" stroke-dasharray="3.47 3.47"/>
<path d="M169.26 135.181V133.48" stroke="#EC3B15" stroke-width="0.680481" stroke-miterlimit="10"/>
<g filter="url(#filter1_d)">
<path fill-rule="evenodd" clip-rule="evenodd" d="M90.7988 103.295C95.3822 103.295 99.0977 99.5792 99.0977 94.9959C99.0977 90.4125 95.3822 86.697 90.7988 86.697C86.2155 86.697 82.5 90.4125 82.5 94.9959C82.5 99.5792 86.2155 103.295 90.7988 103.295Z" fill="#00CFC3"/>
<path d="M97.2741 94.9959C97.2741 98.5721 94.375 101.471 90.7988 101.471C87.2226 101.471 84.3236 98.5721 84.3236 94.9959C84.3236 91.4197 87.2226 88.5206 90.7988 88.5206C94.375 88.5206 97.2741 91.4197 97.2741 94.9959Z" stroke="white" stroke-width="3.64713"/>
</g>
<defs>
<filter id="filter0_d" x="340.739" y="182.467" width="36.0491" height="36.0491" filterUnits="userSpaceOnUse" color-interpolation-filters="sRGB">
<feFlood flood-opacity="0" result="BackgroundImageFix"/>
<feColorMatrix in="SourceAlpha" type="matrix" values="0 0 0 0 0 0 0 0 0 0 0 0 0 0 0 0 0 0 127 0"/>
<feOffset dy="4.86284"/>
<feGaussianBlur stdDeviation="4.86284"/>
<feColorMatrix type="matrix" values="0 0 0 0 0 0 0 0 0 0 0 0 0 0 0 0 0 0 0.16 0"/>
<feBlend mode="normal" in2="BackgroundImageFix" result="effect1_dropShadow"/>
<feBlend mode="normal" in="SourceGraphic" in2="effect1_dropShadow" result="shape"/>
</filter>
<filter id="filter1_d" x="72.7743" y="81.8342" width="36.0491" height="36.0491" filterUnits="userSpaceOnUse" color-interpolation-filters="sRGB">
<feFlood flood-opacity="0" result="BackgroundImageFix"/>
<feColorMatrix in="SourceAlpha" type="matrix" values="0 0 0 0 0 0 0 0 0 0 0 0 0 0 0 0 0 0 127 0"/>
<feOffset dy="4.86284"/>
<feGaussianBlur stdDeviation="4.86284"/>
<feColorMatrix type="matrix" values="0 0 0 0 0 0 0 0 0 0 0 0 0 0 0 0 0 0 0.16 0"/>
<feBlend mode="normal" in2="BackgroundImageFix" result="effect1_dropShadow"/>
<feBlend mode="normal" in="SourceGraphic" in2="effect1_dropShadow" result="shape"/>
</filter>
</defs>
</svg>
