<svg width="468" height="259" viewBox="0 0 468 259" fill="none" xmlns="http://www.w3.org/2000/svg">
<path d="M0 7.02088C0 3.14335 3.14336 0 7.0209 0H460.979C464.857 0 468 3.14336 468 7.0209V251.979C468 255.857 464.857 259 460.979 259H7.02091C3.14338 259 0 255.857 0 251.979V7.02088Z" fill="#F8F8F8"/>
<path d="M344.244 243.009V232.868H340.345V231.46H349.863V232.868H345.948V243.009H344.244ZM356.798 239.29H351.146C351.266 240.983 352.107 241.829 353.669 241.829C354.586 241.829 355.417 241.529 356.159 240.928L356.667 242.092C356.296 242.408 355.837 242.659 355.291 242.845C354.745 243.031 354.188 243.124 353.62 243.124C352.342 243.124 351.332 242.758 350.589 242.026C349.858 241.294 349.492 240.284 349.492 238.995C349.492 238.176 349.65 237.45 349.967 236.817C350.294 236.183 350.748 235.692 351.326 235.342C351.916 234.993 352.582 234.818 353.325 234.818C354.406 234.818 355.253 235.167 355.864 235.866C356.487 236.565 356.798 237.532 356.798 238.766V239.29ZM353.358 236.03C352.724 236.03 352.217 236.232 351.834 236.636C351.463 237.03 351.239 237.597 351.163 238.34H355.373C355.34 237.597 355.149 237.03 354.799 236.636C354.461 236.232 353.98 236.03 353.358 236.03ZM367.795 234.818C369.586 234.818 370.482 235.894 370.482 238.045V243.009H368.827V238.111C368.827 237.434 368.707 236.942 368.467 236.636C368.238 236.32 367.861 236.161 367.337 236.161C366.736 236.161 366.261 236.369 365.911 236.784C365.562 237.199 365.387 237.767 365.387 238.488V243.009H363.733V238.111C363.733 237.434 363.612 236.942 363.372 236.636C363.132 236.32 362.755 236.161 362.242 236.161C361.63 236.161 361.15 236.369 360.8 236.784C360.451 237.199 360.276 237.767 360.276 238.488V243.009H358.621V235.015H360.243V236.227C360.494 235.779 360.833 235.435 361.259 235.195C361.685 234.944 362.171 234.818 362.717 234.818C363.951 234.818 364.754 235.331 365.125 236.358C365.376 235.877 365.737 235.501 366.206 235.227C366.676 234.954 367.206 234.818 367.795 234.818ZM377.04 234.818C377.728 234.818 378.339 234.993 378.875 235.342C379.421 235.692 379.841 236.183 380.136 236.817C380.442 237.45 380.595 238.182 380.595 239.012C380.595 239.831 380.447 240.552 380.152 241.174C379.858 241.797 379.437 242.277 378.891 242.616C378.356 242.954 377.739 243.124 377.04 243.124C376.439 243.124 375.909 242.998 375.451 242.747C374.992 242.485 374.643 242.113 374.402 241.633V245.958H372.748V235.015H374.402V236.325C374.643 235.845 374.992 235.473 375.451 235.211C375.909 234.949 376.439 234.818 377.04 234.818ZM376.647 241.813C377.367 241.813 377.924 241.573 378.318 241.092C378.711 240.601 378.907 239.907 378.907 239.012C378.907 238.105 378.705 237.401 378.301 236.898C377.908 236.396 377.357 236.145 376.647 236.145C375.926 236.145 375.369 236.391 374.976 236.882C374.593 237.374 374.402 238.073 374.402 238.979C374.402 239.885 374.593 240.584 374.976 241.076C375.369 241.567 375.926 241.813 376.647 241.813ZM385.244 243.124C383.857 243.124 382.749 242.785 381.919 242.108L382.427 240.912C383.246 241.546 384.201 241.862 385.293 241.862C385.829 241.862 386.238 241.775 386.522 241.6C386.806 241.414 386.948 241.158 386.948 240.83C386.948 240.546 386.85 240.322 386.653 240.158C386.467 239.995 386.14 239.858 385.67 239.749L384.343 239.454C383.633 239.29 383.098 239.023 382.738 238.651C382.377 238.28 382.197 237.81 382.197 237.242C382.197 236.522 382.487 235.937 383.065 235.49C383.655 235.042 384.425 234.818 385.375 234.818C385.943 234.818 386.484 234.911 386.997 235.096C387.51 235.271 387.953 235.522 388.324 235.85L387.816 237.013C387.03 236.391 386.216 236.079 385.375 236.079C384.873 236.079 384.474 236.178 384.179 236.374C383.896 236.571 383.754 236.838 383.754 237.177C383.754 237.45 383.841 237.674 384.016 237.849C384.201 238.012 384.491 238.138 384.884 238.225L386.244 238.537C387.019 238.711 387.587 238.984 387.947 239.356C388.308 239.716 388.488 240.191 388.488 240.781C388.488 241.502 388.193 242.075 387.603 242.501C387.024 242.916 386.238 243.124 385.244 243.124Z" fill="black"/>
<path d="M306.237 25.3613H304.369L302.403 21.6589C302.185 21.2657 301.923 20.9927 301.617 20.8398C301.322 20.676 300.929 20.5941 300.437 20.5941H298.537V25.3613H296.866V13.8119H301.781C303.059 13.8119 304.031 14.0958 304.697 14.6638C305.374 15.2317 305.713 16.0617 305.713 17.1538C305.713 18.0385 305.461 18.7647 304.959 19.3327C304.467 19.9006 303.763 20.261 302.846 20.4139C303.414 20.5886 303.883 21.0146 304.255 21.6917L306.237 25.3613ZM301.584 19.2344C302.436 19.2344 303.064 19.0705 303.468 18.7429C303.883 18.4043 304.091 17.8856 304.091 17.1866C304.091 16.4876 303.889 15.9798 303.485 15.6631C303.08 15.3354 302.447 15.1716 301.584 15.1716H298.521V19.2344H301.584ZM314.828 21.6425H309.176C309.296 23.3353 310.137 24.1818 311.699 24.1818C312.616 24.1818 313.446 23.8814 314.189 23.2807L314.697 24.4439C314.326 24.7606 313.867 25.0118 313.321 25.1974C312.775 25.3831 312.218 25.4759 311.65 25.4759C310.372 25.4759 309.362 25.1101 308.619 24.3783C307.887 23.6466 307.522 22.6364 307.522 21.3477C307.522 20.5286 307.68 19.8023 307.997 19.1688C308.324 18.5354 308.778 18.0439 309.356 17.6944C309.946 17.345 310.612 17.1702 311.355 17.1702C312.436 17.1702 313.283 17.5197 313.894 18.2187C314.517 18.9176 314.828 19.8842 314.828 21.1183V21.6425ZM311.388 18.3825C310.754 18.3825 310.246 18.5845 309.864 18.9886C309.493 19.3818 309.269 19.9497 309.193 20.6924H313.403C313.37 19.9497 313.179 19.3818 312.829 18.9886C312.491 18.5845 312.01 18.3825 311.388 18.3825ZM311.896 16.3184H310.814L312.436 12.9928H314.205L311.896 16.3184ZM324.089 17.3668V24.7224C324.089 25.9456 323.761 26.8684 323.106 27.4909C322.461 28.1135 321.506 28.4247 320.239 28.4247C319.551 28.4247 318.896 28.3319 318.273 28.1462C317.661 27.9715 317.115 27.7148 316.635 27.3763L317.143 26.1804C317.667 26.5189 318.169 26.7592 318.65 26.9012C319.141 27.0541 319.666 27.1305 320.223 27.1305C321.719 27.1305 322.467 26.3715 322.467 24.8534V23.592C322.238 24.0725 321.888 24.4493 321.418 24.7224C320.949 24.9845 320.403 25.1155 319.78 25.1155C319.081 25.1155 318.459 24.9517 317.913 24.6241C317.367 24.2964 316.941 23.8323 316.635 23.2316C316.34 22.6309 316.193 21.9374 316.193 21.1511C316.193 20.3647 316.345 19.6712 316.651 19.0705C316.957 18.4699 317.378 18.0057 317.913 17.6781C318.459 17.3395 319.081 17.1702 319.78 17.1702C320.392 17.1702 320.927 17.3013 321.386 17.5634C321.855 17.8255 322.21 18.1968 322.451 18.6774V17.3668H324.089ZM320.173 23.805C320.883 23.805 321.44 23.5702 321.844 23.1005C322.248 22.6309 322.451 21.9811 322.451 21.1511C322.451 20.332 322.248 19.6876 321.844 19.218C321.451 18.7374 320.894 18.4972 320.173 18.4972C319.453 18.4972 318.885 18.732 318.47 19.2016C318.066 19.6712 317.864 20.321 317.864 21.1511C317.864 21.9811 318.071 22.6309 318.486 23.1005C318.901 23.5702 319.464 23.805 320.173 23.805ZM326.394 25.3613V17.3668H328.049V25.3613H326.394ZM326.279 13.7955H328.18V15.5156H326.279V13.7955ZM339.536 17.1702C341.327 17.1702 342.222 18.246 342.222 20.3975V25.3613H340.568V20.463C340.568 19.7859 340.448 19.2944 340.207 18.9886C339.978 18.6719 339.601 18.5136 339.077 18.5136C338.476 18.5136 338.001 18.7211 337.652 19.1361C337.302 19.5511 337.127 20.119 337.127 20.8398V25.3613H335.473V20.463C335.473 19.7859 335.353 19.2944 335.112 18.9886C334.872 18.6719 334.495 18.5136 333.982 18.5136C333.371 18.5136 332.89 18.7211 332.54 19.1361C332.191 19.5511 332.016 20.119 332.016 20.8398V25.3613H330.362V17.3668H331.983V18.5791C332.235 18.1313 332.573 17.7873 332.999 17.547C333.425 17.2958 333.911 17.1702 334.457 17.1702C335.691 17.1702 336.494 17.6835 336.865 18.7101C337.117 18.2296 337.477 17.8528 337.947 17.5798C338.416 17.3067 338.946 17.1702 339.536 17.1702ZM351.336 21.6425H345.684C345.804 23.3353 346.645 24.1818 348.207 24.1818C349.124 24.1818 349.954 23.8814 350.697 23.2807L351.205 24.4439C350.833 24.7606 350.375 25.0118 349.829 25.1974C349.283 25.3831 348.726 25.4759 348.158 25.4759C346.88 25.4759 345.87 25.1101 345.127 24.3783C344.395 23.6466 344.029 22.6364 344.029 21.3477C344.029 20.5286 344.188 19.8023 344.504 19.1688C344.832 18.5354 345.285 18.0439 345.864 17.6944C346.454 17.345 347.12 17.1702 347.863 17.1702C348.944 17.1702 349.79 17.5197 350.402 18.2187C351.024 18.9176 351.336 19.8842 351.336 21.1183V21.6425ZM347.895 18.3825C347.262 18.3825 346.754 18.5845 346.372 18.9886C346.001 19.3818 345.777 19.9497 345.7 20.6924H349.91C349.878 19.9497 349.687 19.3818 349.337 18.9886C348.999 18.5845 348.518 18.3825 347.895 18.3825ZM367.046 25.3613H365.178L363.212 21.6589C362.994 21.2657 362.732 20.9927 362.426 20.8398C362.131 20.676 361.738 20.5941 361.246 20.5941H359.346V25.3613H357.675V13.8119H362.59C363.868 13.8119 364.84 14.0958 365.506 14.6638C366.183 15.2317 366.521 16.0617 366.521 17.1538C366.521 18.0385 366.27 18.7647 365.768 19.3327C365.276 19.9006 364.572 20.261 363.655 20.4139C364.222 20.5886 364.692 21.0146 365.063 21.6917L367.046 25.3613ZM362.393 19.2344C363.245 19.2344 363.873 19.0705 364.277 18.7429C364.692 18.4043 364.9 17.8856 364.9 17.1866C364.9 16.4876 364.698 15.9798 364.293 15.6631C363.889 15.3354 363.256 15.1716 362.393 15.1716H359.33V19.2344H362.393ZM375.637 21.6425H369.985C370.105 23.3353 370.946 24.1818 372.508 24.1818C373.425 24.1818 374.255 23.8814 374.998 23.2807L375.506 24.4439C375.135 24.7606 374.676 25.0118 374.13 25.1974C373.584 25.3831 373.027 25.4759 372.459 25.4759C371.181 25.4759 370.171 25.1101 369.428 24.3783C368.696 23.6466 368.33 22.6364 368.33 21.3477C368.33 20.5286 368.489 19.8023 368.806 19.1688C369.133 18.5354 369.586 18.0439 370.165 17.6944C370.755 17.345 371.421 17.1702 372.164 17.1702C373.245 17.1702 374.092 17.5197 374.703 18.2187C375.326 18.9176 375.637 19.8842 375.637 21.1183V21.6425ZM372.197 18.3825C371.563 18.3825 371.055 18.5845 370.673 18.9886C370.302 19.3818 370.078 19.9497 370.001 20.6924H374.212C374.179 19.9497 373.988 19.3818 373.638 18.9886C373.3 18.5845 372.819 18.3825 372.197 18.3825ZM380.278 25.4759C378.891 25.4759 377.782 25.1374 376.952 24.4603L377.46 23.2644C378.279 23.8978 379.235 24.2145 380.327 24.2145C380.862 24.2145 381.272 24.1271 381.556 23.9524C381.84 23.7667 381.982 23.5101 381.982 23.1824C381.982 22.8985 381.883 22.6746 381.687 22.5108C381.501 22.347 381.173 22.2104 380.704 22.1012L379.377 21.8064C378.667 21.6425 378.132 21.375 377.771 21.0036C377.411 20.6323 377.231 20.1627 377.231 19.5948C377.231 18.874 377.52 18.2897 378.099 17.8419C378.689 17.3941 379.459 17.1702 380.409 17.1702C380.977 17.1702 381.517 17.2631 382.031 17.4487C382.544 17.6235 382.986 17.8747 383.358 18.2023L382.85 19.3654C382.064 18.7429 381.25 18.4316 380.409 18.4316C379.907 18.4316 379.508 18.5299 379.213 18.7265C378.929 18.9231 378.787 19.1907 378.787 19.5292C378.787 19.8023 378.874 20.0262 379.049 20.2009C379.235 20.3647 379.524 20.4903 379.917 20.5777L381.277 20.889C382.053 21.0637 382.621 21.3367 382.981 21.7081C383.341 22.0685 383.522 22.5435 383.522 23.1333C383.522 23.8541 383.227 24.4275 382.637 24.8534C382.058 25.2684 381.272 25.4759 380.278 25.4759ZM389.068 24.1981C389.319 24.1981 389.564 24.1818 389.805 24.149L389.723 25.4104C389.45 25.4541 389.166 25.4759 388.871 25.4759C387.833 25.4759 387.058 25.2247 386.545 24.7224C386.042 24.2091 385.791 23.4719 385.791 22.5108V18.6446H384.235V17.3668H385.791V14.9586H387.446V17.3668H389.641V18.6446H387.446V22.4453C387.446 23.6138 387.986 24.1981 389.068 24.1981ZM395.924 18.5627L394.925 18.661C394.138 18.7374 393.571 18.9777 393.221 19.3818C392.882 19.7859 392.713 20.2992 392.713 20.9217V25.3613H391.059V17.3668H392.664V18.7593C393.09 17.82 393.958 17.3013 395.269 17.203L395.809 17.1702L395.924 18.5627ZM397.058 25.3613V17.3668H398.712V25.3613H397.058ZM396.943 13.7955H398.844V15.5156H396.943V13.7955ZM404.531 25.4759C403.723 25.4759 403.019 25.3067 402.418 24.9681C401.828 24.6295 401.369 24.1545 401.042 23.5429C400.725 22.9203 400.567 22.1941 400.567 21.364C400.567 20.534 400.731 19.8023 401.058 19.1688C401.397 18.5354 401.866 18.0439 402.467 17.6944C403.079 17.345 403.789 17.1702 404.597 17.1702C405.154 17.1702 405.689 17.2631 406.202 17.4487C406.726 17.6344 407.152 17.8856 407.48 18.2023L406.972 19.3818C406.251 18.792 405.503 18.4972 404.728 18.4972C403.963 18.4972 403.363 18.7484 402.926 19.2507C402.5 19.7422 402.287 20.4412 402.287 21.3477C402.287 22.2432 402.5 22.9367 402.926 23.4282C403.352 23.9087 403.952 24.149 404.728 24.149C405.503 24.149 406.251 23.8541 406.972 23.2644L407.48 24.4603C407.13 24.777 406.694 25.0282 406.169 25.2138C405.645 25.3886 405.099 25.4759 404.531 25.4759ZM412.761 24.1981C413.012 24.1981 413.258 24.1818 413.498 24.149L413.416 25.4104C413.143 25.4541 412.859 25.4759 412.564 25.4759C411.527 25.4759 410.751 25.2247 410.238 24.7224C409.736 24.2091 409.484 23.4719 409.484 22.5108V18.6446H407.928V17.3668H409.484V14.9586H411.139V17.3668H413.334V18.6446H411.139V22.4453C411.139 23.6138 411.68 24.1981 412.761 24.1981ZM414.752 25.3613V17.3668H416.406V25.3613H414.752ZM414.637 13.7955H416.537V15.5156H414.637V13.7955ZM420.882 17.3668H423.077V18.6446H420.882V25.3613H419.227V18.6446H417.671V17.3668H419.227V17.2194C419.227 16.1163 419.506 15.2863 420.063 14.7293C420.631 14.1723 421.493 13.861 422.651 13.7955L423.388 13.7627L423.487 15.0078L422.733 15.0569C422.078 15.0897 421.603 15.259 421.308 15.5648C421.024 15.8706 420.882 16.3347 420.882 16.9573V17.3668Z" fill="#EC3B15"/>
<path d="M307.997 180.991H306.13L304.164 177.289C303.945 176.896 303.683 176.622 303.377 176.47C303.083 176.306 302.689 176.224 302.198 176.224H300.298V180.991H298.627V169.442H303.541C304.819 169.442 305.791 169.726 306.457 170.294C307.134 170.861 307.473 171.691 307.473 172.784C307.473 173.668 307.222 174.395 306.719 174.962C306.228 175.53 305.523 175.891 304.606 176.044C305.174 176.218 305.644 176.644 306.015 177.321L307.997 180.991ZM303.345 174.864C304.197 174.864 304.824 174.7 305.229 174.373C305.644 174.034 305.851 173.515 305.851 172.816C305.851 172.117 305.649 171.61 305.245 171.293C304.841 170.965 304.207 170.801 303.345 170.801H300.281V174.864H303.345ZM316.588 177.272H310.937C311.057 178.965 311.898 179.812 313.459 179.812C314.377 179.812 315.207 179.511 315.95 178.911L316.457 180.074C316.086 180.39 315.627 180.642 315.081 180.827C314.535 181.013 313.978 181.106 313.41 181.106C312.132 181.106 311.122 180.74 310.38 180.008C309.648 179.276 309.282 178.266 309.282 176.977C309.282 176.158 309.44 175.432 309.757 174.799C310.085 174.165 310.538 173.674 311.117 173.324C311.707 172.975 312.373 172.8 313.115 172.8C314.197 172.8 315.043 173.149 315.655 173.848C316.277 174.547 316.588 175.514 316.588 176.748V177.272ZM313.148 174.012C312.515 174.012 312.007 174.214 311.625 174.618C311.253 175.012 311.029 175.579 310.953 176.322H315.163C315.13 175.579 314.939 175.012 314.59 174.618C314.251 174.214 313.771 174.012 313.148 174.012ZM313.656 171.948H312.575L314.197 168.623H315.966L313.656 171.948ZM325.849 172.997V180.352C325.849 181.575 325.522 182.498 324.866 183.121C324.222 183.743 323.266 184.054 321.999 184.054C321.311 184.054 320.656 183.962 320.034 183.776C319.422 183.601 318.876 183.345 318.395 183.006L318.903 181.81C319.427 182.149 319.93 182.389 320.41 182.531C320.902 182.684 321.426 182.76 321.983 182.76C323.479 182.76 324.227 182.001 324.227 180.483V179.222C323.998 179.702 323.648 180.079 323.179 180.352C322.709 180.614 322.163 180.745 321.541 180.745C320.842 180.745 320.219 180.581 319.673 180.254C319.127 179.926 318.701 179.462 318.395 178.861C318.1 178.261 317.953 177.567 317.953 176.781C317.953 175.994 318.106 175.301 318.412 174.7C318.717 174.1 319.138 173.635 319.673 173.308C320.219 172.969 320.842 172.8 321.541 172.8C322.152 172.8 322.687 172.931 323.146 173.193C323.616 173.455 323.971 173.827 324.211 174.307V172.997H325.849ZM321.934 179.435C322.644 179.435 323.201 179.2 323.605 178.73C324.009 178.261 324.211 177.611 324.211 176.781C324.211 175.962 324.009 175.317 323.605 174.848C323.212 174.367 322.655 174.127 321.934 174.127C321.213 174.127 320.645 174.362 320.23 174.831C319.826 175.301 319.624 175.951 319.624 176.781C319.624 177.611 319.831 178.261 320.246 178.73C320.661 179.2 321.224 179.435 321.934 179.435ZM328.155 180.991V172.997H329.809V180.991H328.155ZM328.04 169.425H329.94V171.145H328.04V169.425ZM341.296 172.8C343.087 172.8 343.983 173.876 343.983 176.027V180.991H342.328V176.093C342.328 175.416 342.208 174.924 341.968 174.618C341.738 174.302 341.362 174.143 340.837 174.143C340.237 174.143 339.762 174.351 339.412 174.766C339.063 175.181 338.888 175.749 338.888 176.47V180.991H337.233V176.093C337.233 175.416 337.113 174.924 336.873 174.618C336.633 174.302 336.256 174.143 335.743 174.143C335.131 174.143 334.65 174.351 334.301 174.766C333.951 175.181 333.777 175.749 333.777 176.47V180.991H332.122V172.997H333.744V174.209C333.995 173.761 334.334 173.417 334.76 173.177C335.186 172.926 335.672 172.8 336.218 172.8C337.452 172.8 338.254 173.313 338.626 174.34C338.877 173.859 339.237 173.483 339.707 173.21C340.177 172.937 340.706 172.8 341.296 172.8ZM353.096 177.272H347.444C347.564 178.965 348.405 179.812 349.967 179.812C350.885 179.812 351.715 179.511 352.457 178.911L352.965 180.074C352.594 180.39 352.135 180.642 351.589 180.827C351.043 181.013 350.486 181.106 349.918 181.106C348.64 181.106 347.63 180.74 346.887 180.008C346.156 179.276 345.79 178.266 345.79 176.977C345.79 176.158 345.948 175.432 346.265 174.799C346.592 174.165 347.046 173.674 347.625 173.324C348.214 172.975 348.88 172.8 349.623 172.8C350.704 172.8 351.551 173.149 352.162 173.848C352.785 174.547 353.096 175.514 353.096 176.748V177.272ZM349.656 174.012C349.022 174.012 348.515 174.214 348.132 174.618C347.761 175.012 347.537 175.579 347.461 176.322H351.671C351.638 175.579 351.447 175.012 351.098 174.618C350.759 174.214 350.278 174.012 349.656 174.012ZM359.436 180.991V169.442H366.939V170.801H361.09V174.438H366.611V175.814H361.09V179.631H366.939V180.991H359.436ZM363.973 168.459H362.892L364.547 165.952H366.234L363.973 168.459ZM376.194 172.997V183.94H374.539V179.648C374.299 180.117 373.949 180.478 373.491 180.729C373.043 180.98 372.519 181.106 371.918 181.106C371.219 181.106 370.597 180.936 370.05 180.598C369.515 180.259 369.1 179.779 368.805 179.156C368.511 178.534 368.363 177.813 368.363 176.994C368.363 176.164 368.511 175.432 368.805 174.799C369.111 174.165 369.532 173.674 370.067 173.324C370.613 172.975 371.23 172.8 371.918 172.8C372.519 172.8 373.048 172.931 373.507 173.193C373.966 173.455 374.315 173.827 374.556 174.307V172.997H376.194ZM372.311 179.795C373.032 179.795 373.584 179.549 373.966 179.058C374.359 178.566 374.556 177.868 374.556 176.961C374.556 176.055 374.359 175.356 373.966 174.864C373.584 174.373 373.032 174.127 372.311 174.127C371.601 174.127 371.044 174.384 370.64 174.897C370.236 175.399 370.034 176.098 370.034 176.994C370.034 177.889 370.231 178.583 370.624 179.074C371.028 179.555 371.59 179.795 372.311 179.795ZM385.512 172.997V180.991H383.907V179.697C383.656 180.156 383.306 180.505 382.858 180.745C382.421 180.986 381.93 181.106 381.384 181.106C379.44 181.106 378.468 180.035 378.468 177.895V172.997H380.123V177.878C380.123 178.523 380.254 178.998 380.516 179.304C380.778 179.609 381.182 179.762 381.728 179.762C382.372 179.762 382.886 179.555 383.268 179.14C383.661 178.725 383.858 178.173 383.858 177.485V172.997H385.512ZM387.828 180.991V172.997H389.482V180.991H387.828ZM387.713 169.425H389.613V171.145H387.713V169.425ZM391.795 180.991V169.442H393.45V180.991H391.795ZM395.763 180.991V172.997H397.417V180.991H395.763ZM395.648 169.425H397.548V171.145H395.648V169.425ZM404.022 172.8C404.721 172.8 405.338 172.969 405.873 173.308C406.409 173.646 406.824 174.127 407.119 174.749C407.424 175.372 407.577 176.098 407.577 176.928C407.577 177.747 407.424 178.474 407.119 179.107C406.824 179.741 406.403 180.232 405.857 180.581C405.322 180.931 404.71 181.106 404.022 181.106C403.422 181.106 402.892 180.98 402.433 180.729C401.975 180.467 401.625 180.095 401.385 179.615V180.991H399.73V169.442H401.385V174.307C401.625 173.827 401.975 173.455 402.433 173.193C402.892 172.931 403.422 172.8 404.022 172.8ZM403.629 179.795C404.339 179.795 404.891 179.544 405.284 179.042C405.688 178.539 405.89 177.835 405.89 176.928C405.89 176.033 405.693 175.345 405.3 174.864C404.907 174.373 404.35 174.127 403.629 174.127C402.908 174.127 402.351 174.373 401.958 174.864C401.576 175.356 401.385 176.055 401.385 176.961C401.385 177.868 401.576 178.566 401.958 179.058C402.351 179.549 402.908 179.795 403.629 179.795ZM414.275 174.192L413.275 174.291C412.489 174.367 411.921 174.607 411.572 175.012C411.233 175.416 411.064 175.929 411.064 176.551V180.991H409.409V172.997H411.015V174.389C411.44 173.45 412.309 172.931 413.619 172.833L414.16 172.8L414.275 174.192ZM422.096 177.272H416.444C416.564 178.965 417.405 179.812 418.967 179.812C419.885 179.812 420.715 179.511 421.457 178.911L421.965 180.074C421.594 180.39 421.135 180.642 420.589 180.827C420.043 181.013 419.486 181.106 418.918 181.106C417.64 181.106 416.63 180.74 415.887 180.008C415.156 179.276 414.79 178.266 414.79 176.977C414.79 176.158 414.948 175.432 415.265 174.799C415.592 174.165 416.046 173.674 416.624 173.324C417.214 172.975 417.88 172.8 418.623 172.8C419.704 172.8 420.551 173.149 421.162 173.848C421.785 174.547 422.096 175.514 422.096 176.748V177.272ZM418.656 174.012C418.022 174.012 417.515 174.214 417.132 174.618C416.761 175.012 416.537 175.579 416.461 176.322H420.671C420.638 175.579 420.447 175.012 420.097 174.618C419.759 174.214 419.278 174.012 418.656 174.012ZM419.164 171.948H418.082L419.704 168.623H421.474L419.164 171.948Z" fill="#00CFC3"/>
<path d="M75.2362 14.8119H80.0198C81.243 14.8119 82.1932 15.1122 82.8703 15.7129C83.5474 16.3136 83.886 17.1654 83.886 18.2685C83.886 19.3606 83.5474 20.2125 82.8703 20.8241C82.1932 21.4357 81.243 21.7415 80.0198 21.7415H76.9236V26.3612H75.2362V14.8119ZM79.8396 20.3818C81.456 20.3818 82.2642 19.6773 82.2642 18.2685C82.2642 16.8705 81.456 16.1716 79.8396 16.1716H76.9236V20.3818H79.8396ZM88.9274 26.4759C88.1411 26.4759 87.4476 26.3066 86.8469 25.9681C86.2572 25.6295 85.7985 25.149 85.4708 24.5264C85.1541 23.893 84.9957 23.1613 84.9957 22.3312C84.9957 21.4903 85.1541 20.7586 85.4708 20.136C85.7985 19.5026 86.2572 19.0166 86.8469 18.678C87.4476 18.3395 88.1411 18.1702 88.9274 18.1702C89.7138 18.1702 90.4018 18.3395 90.9916 18.678C91.5923 19.0166 92.051 19.5026 92.3677 20.136C92.6953 20.7586 92.8591 21.4903 92.8591 22.3312C92.8591 23.1613 92.6953 23.893 92.3677 24.5264C92.051 25.149 91.5923 25.6295 90.9916 25.9681C90.4018 26.3066 89.7138 26.4759 88.9274 26.4759ZM88.9274 25.1653C89.6592 25.1653 90.2162 24.9251 90.5984 24.4445C90.9916 23.964 91.1882 23.2596 91.1882 22.3312C91.1882 21.4138 90.9916 20.7149 90.5984 20.2343C90.2052 19.7429 89.6483 19.4971 88.9274 19.4971C88.2066 19.4971 87.6496 19.7429 87.2565 20.2343C86.8633 20.7149 86.6667 21.4138 86.6667 22.3312C86.6667 23.2596 86.8578 23.964 87.2401 24.4445C87.6333 24.9251 88.1957 25.1653 88.9274 25.1653ZM94.7014 26.3612V18.3668H96.356V26.3612H94.7014ZM94.5867 14.7955H96.487V16.5156H94.5867V14.7955ZM106.041 14.8119V26.3612H104.403V24.9851C104.162 25.4657 103.813 25.837 103.354 26.0991C102.895 26.3503 102.366 26.4759 101.765 26.4759C101.077 26.4759 100.46 26.3012 99.9139 25.9517C99.3788 25.6022 98.9583 25.1107 98.6525 24.4773C98.3576 23.8439 98.2102 23.1176 98.2102 22.2985C98.2102 21.4685 98.3576 20.7422 98.6525 20.1197C98.9583 19.4971 99.3788 19.0166 99.9139 18.678C100.449 18.3395 101.066 18.1702 101.765 18.1702C102.366 18.1702 102.89 18.3012 103.338 18.5634C103.796 18.8146 104.146 19.175 104.386 19.6446V14.8119H106.041ZM102.158 25.1653C102.879 25.1653 103.431 24.9196 103.813 24.4281C104.206 23.9367 104.403 23.2377 104.403 22.3312C104.403 21.4248 104.206 20.7258 103.813 20.2343C103.431 19.7429 102.879 19.4971 102.158 19.4971C101.437 19.4971 100.875 19.7429 100.471 20.2343C100.078 20.7149 99.8812 21.4029 99.8812 22.2985C99.8812 23.194 100.083 23.8985 100.487 24.4118C100.891 24.9142 101.448 25.1653 102.158 25.1653ZM111.165 26.4759C109.778 26.4759 108.67 26.1373 107.84 25.4602L108.348 24.2643C109.167 24.8978 110.122 25.2145 111.215 25.2145C111.75 25.2145 112.159 25.1271 112.443 24.9524C112.727 24.7667 112.869 24.5101 112.869 24.1824C112.869 23.8985 112.771 23.6746 112.574 23.5108C112.389 23.3469 112.061 23.2104 111.591 23.1012L110.264 22.8063C109.555 22.6425 109.019 22.3749 108.659 22.0036C108.299 21.6323 108.118 21.1627 108.118 20.5947C108.118 19.8739 108.408 19.2896 108.987 18.8419C109.576 18.3941 110.346 18.1702 111.297 18.1702C111.864 18.1702 112.405 18.263 112.918 18.4487C113.432 18.6234 113.874 18.8746 114.245 19.2023L113.737 20.3654C112.951 19.7429 112.137 19.4316 111.297 19.4316C110.794 19.4316 110.396 19.5299 110.101 19.7265C109.817 19.9231 109.675 20.1906 109.675 20.5292C109.675 20.8022 109.762 21.0261 109.937 21.2009C110.122 21.3647 110.412 21.4903 110.805 21.5777L112.165 21.8889C112.94 22.0637 113.508 22.3367 113.869 22.708C114.229 23.0684 114.409 23.5435 114.409 24.1333C114.409 24.8541 114.114 25.4275 113.525 25.8534C112.946 26.2684 112.159 26.4759 111.165 26.4759Z" fill="black"/>
<path d="M90.6643 94.5897V217.825H358.196V196.424C358.196 196.424 300.082 204.794 248.74 186.625C213.491 173.594 197.058 157.806 170.179 134.466C120.265 96.1207 90.6643 94.5897 90.6643 94.5897Z" fill="#ADEEEA"/>
<path d="M358.196 217.825H90.6643V35.6895" stroke="#C5C5C5" stroke-width="0.680481" stroke-miterlimit="10"/>
<path d="M358.196 196.424C358.196 196.424 300.082 204.794 248.74 186.625C213.491 173.594 197.058 157.806 170.179 134.466C120.265 96.1207 90.6643 94.5897 90.6643 94.5897" stroke="#00CFC3" stroke-width="0.680481" stroke-miterlimit="10"/>
<g filter="url(#filter0_d)">
<path fill-rule="evenodd" clip-rule="evenodd" d="M358.763 203.927C363.346 203.927 367.062 200.212 367.062 195.629C367.062 191.045 363.346 187.33 358.763 187.33C354.18 187.33 350.464 191.045 350.464 195.629C350.464 200.212 354.18 203.927 358.763 203.927Z" fill="#00CFC3"/>
<path d="M365.238 195.629C365.238 199.205 362.339 202.104 358.763 202.104C355.187 202.104 352.288 199.205 352.288 195.629C352.288 192.052 355.187 189.153 358.763 189.153C362.339 189.153 365.238 192.052 365.238 195.629Z" stroke="white" stroke-width="3.64713"/>
</g>
<path d="M357.548 94.2159V39.6073C357.548 39.6073 329.444 37.4298 304.981 57.7081C291.167 69.1742 282.048 81.8652 274.971 94.2159H357.548Z" fill="#FFBAAB"/>
<path d="M357.65 39.0628C357.65 39.0628 329.546 36.8852 305.083 57.1636C257.449 96.7676 265.479 150.832 222.336 154.711C199.812 156.65 176.302 138.277 169.633 133.888C119.72 95.5768 90.0848 94.0457 90.0848 94.0457" stroke="#EC3B15" stroke-width="0.680481" stroke-miterlimit="10"/>
<path d="M358.365 43.35C360.771 43.35 362.72 41.4002 362.72 38.9949C362.72 36.5897 360.771 34.6398 358.365 34.6398C355.96 34.6398 354.01 36.5897 354.01 38.9949C354.01 41.4002 355.96 43.35 358.365 43.35Z" fill="#EC3B15"/>
<path d="M89.6769 94.2164H91.3781" stroke="#EC3B15" stroke-width="0.680481" stroke-miterlimit="10"/>
<path d="M94.813 94.2163H354.11" stroke="#EC3B15" stroke-width="0.680481" stroke-miterlimit="10" stroke-dasharray="3.43 3.43"/>
<path d="M355.846 94.2163H357.548" stroke="#EC3B15" stroke-width="0.680481" stroke-miterlimit="10"/>
<path d="M169.361 137.359C171.766 137.359 173.716 135.409 173.716 133.004C173.716 130.598 171.766 128.648 169.361 128.648C166.956 128.648 165.006 130.598 165.006 133.004C165.006 135.409 166.956 137.359 169.361 137.359Z" fill="#EC3B15"/>
<path d="M169.26 216.805V215.104" stroke="#EC3B15" stroke-width="0.680481" stroke-miterlimit="10"/>
<path d="M169.26 211.633V136.916" stroke="#EC3B15" stroke-width="0.680481" stroke-miterlimit="10" stroke-dasharray="3.47 3.47"/>
<path d="M169.26 135.181V133.48" stroke="#EC3B15" stroke-width="0.680481" stroke-miterlimit="10"/>
<g filter="url(#filter1_d)">
<path fill-rule="evenodd" clip-rule="evenodd" d="M90.7987 103.295C95.382 103.295 99.0976 99.5792 99.0976 94.9959C99.0976 90.4125 95.382 86.697 90.7987 86.697C86.2154 86.697 82.4999 90.4125 82.4999 94.9959C82.4999 99.5792 86.2154 103.295 90.7987 103.295Z" fill="#00CFC3"/>
<path d="M97.274 94.9959C97.274 98.5721 94.3749 101.471 90.7987 101.471C87.2225 101.471 84.3234 98.5721 84.3234 94.9959C84.3234 91.4197 87.2225 88.5206 90.7987 88.5206C94.3749 88.5206 97.274 91.4197 97.274 94.9959Z" stroke="white" stroke-width="3.64713"/>
</g>
<defs>
<filter id="filter0_d" x="340.738" y="182.467" width="36.0491" height="36.0491" filterUnits="userSpaceOnUse" color-interpolation-filters="sRGB">
<feFlood flood-opacity="0" result="BackgroundImageFix"/>
<feColorMatrix in="SourceAlpha" type="matrix" values="0 0 0 0 0 0 0 0 0 0 0 0 0 0 0 0 0 0 127 0"/>
<feOffset dy="4.86284"/>
<feGaussianBlur stdDeviation="4.86284"/>
<feColorMatrix type="matrix" values="0 0 0 0 0 0 0 0 0 0 0 0 0 0 0 0 0 0 0.16 0"/>
<feBlend mode="normal" in2="BackgroundImageFix" result="effect1_dropShadow"/>
<feBlend mode="normal" in="SourceGraphic" in2="effect1_dropShadow" result="shape"/>
</filter>
<filter id="filter1_d" x="72.7742" y="81.8342" width="36.0491" height="36.0491" filterUnits="userSpaceOnUse" color-interpolation-filters="sRGB">
<feFlood flood-opacity="0" result="BackgroundImageFix"/>
<feColorMatrix in="SourceAlpha" type="matrix" values="0 0 0 0 0 0 0 0 0 0 0 0 0 0 0 0 0 0 127 0"/>
<feOffset dy="4.86284"/>
<feGaussianBlur stdDeviation="4.86284"/>
<feColorMatrix type="matrix" values="0 0 0 0 0 0 0 0 0 0 0 0 0 0 0 0 0 0 0.16 0"/>
<feBlend mode="normal" in2="BackgroundImageFix" result="effect1_dropShadow"/>
<feBlend mode="normal" in="SourceGraphic" in2="effect1_dropShadow" result="shape"/>
</filter>
</defs>
</svg>
