<svg width="468" height="259" viewBox="0 0 468 259" fill="none" xmlns="http://www.w3.org/2000/svg">
<path d="M0 7.02088C0 3.14335 3.14336 0 7.0209 0H460.979C464.857 0 468 3.14336 468 7.0209V251.979C468 255.857 464.857 259 460.979 259H7.02091C3.14338 259 0 255.857 0 251.979V7.02088Z" fill="#F8F8F8"/>
<path d="M356.635 232.46H358.306V244.009H356.635V238.832H350.181V244.009H348.51V232.46H350.181V237.456H356.635V232.46ZM364.265 244.124C363.478 244.124 362.785 243.955 362.184 243.616C361.594 243.277 361.136 242.797 360.808 242.174C360.491 241.541 360.333 240.809 360.333 239.979C360.333 239.138 360.491 238.406 360.808 237.784C361.136 237.151 361.594 236.665 362.184 236.326C362.785 235.987 363.478 235.818 364.265 235.818C365.051 235.818 365.739 235.987 366.329 236.326C366.929 236.665 367.388 237.151 367.705 237.784C368.032 238.406 368.196 239.138 368.196 239.979C368.196 240.809 368.032 241.541 367.705 242.174C367.388 242.797 366.929 243.277 366.329 243.616C365.739 243.955 365.051 244.124 364.265 244.124ZM364.265 242.813C364.996 242.813 365.553 242.573 365.936 242.092C366.329 241.612 366.525 240.907 366.525 239.979C366.525 239.062 366.329 238.363 365.936 237.882C365.542 237.391 364.985 237.145 364.265 237.145C363.544 237.145 362.987 237.391 362.594 237.882C362.2 238.363 362.004 239.062 362.004 239.979C362.004 240.907 362.195 241.612 362.577 242.092C362.97 242.573 363.533 242.813 364.265 242.813ZM374.904 237.211L373.905 237.309C373.118 237.385 372.55 237.626 372.201 238.03C371.862 238.434 371.693 238.947 371.693 239.57V244.009H370.038V236.015H371.644V237.407C372.07 236.468 372.938 235.949 374.249 235.851L374.789 235.818L374.904 237.211ZM379.332 235.818C380.402 235.818 381.194 236.086 381.707 236.621C382.231 237.156 382.493 237.97 382.493 239.062V244.009H380.904V242.682C380.697 243.152 380.386 243.512 379.971 243.763C379.567 244.004 379.091 244.124 378.545 244.124C378.021 244.124 377.541 244.02 377.104 243.813C376.667 243.594 376.323 243.294 376.072 242.912C375.831 242.529 375.711 242.103 375.711 241.634C375.711 241.055 375.859 240.602 376.154 240.274C376.459 239.935 376.956 239.695 377.644 239.553C378.343 239.411 379.299 239.34 380.511 239.34H380.888V238.865C380.888 238.254 380.757 237.811 380.495 237.538C380.244 237.265 379.829 237.129 379.25 237.129C378.343 237.129 377.437 237.407 376.53 237.964L376.039 236.801C376.465 236.506 376.978 236.271 377.579 236.097C378.19 235.911 378.775 235.818 379.332 235.818ZM378.84 242.895C379.441 242.895 379.932 242.693 380.315 242.289C380.697 241.874 380.888 241.344 380.888 240.7V240.274H380.593C379.741 240.274 379.086 240.312 378.627 240.389C378.169 240.465 377.841 240.596 377.644 240.782C377.448 240.957 377.35 241.213 377.35 241.552C377.35 241.934 377.486 242.256 377.759 242.518C378.043 242.77 378.403 242.895 378.84 242.895Z" fill="black"/>
<path d="M300.174 13.812H304.22C306.088 13.812 307.535 14.3143 308.561 15.3191C309.588 16.3239 310.101 17.7437 310.101 19.5785C310.101 21.4132 309.588 22.8385 308.561 23.8542C307.535 24.8589 306.088 25.3613 304.22 25.3613H300.174V13.812ZM304.122 23.9525C306.962 23.9525 308.381 22.4945 308.381 19.5785C308.381 16.6734 306.962 15.2208 304.122 15.2208H301.861V23.9525H304.122ZM312.2 25.3613V17.3669H313.854V25.3613H312.2ZM312.085 13.7956H313.985V15.5157H312.085V13.7956ZM323.015 21.6426H317.363C317.483 23.3354 318.324 24.1818 319.886 24.1818C320.804 24.1818 321.634 23.8815 322.376 23.2808L322.884 24.4439C322.513 24.7607 322.054 25.0118 321.508 25.1975C320.962 25.3832 320.405 25.476 319.837 25.476C318.559 25.476 317.549 25.1101 316.806 24.3784C316.075 23.6467 315.709 22.6364 315.709 21.3477C315.709 20.5286 315.867 19.8023 316.184 19.1689C316.511 18.5355 316.965 18.044 317.543 17.6945C318.133 17.345 318.799 17.1703 319.542 17.1703C320.623 17.1703 321.47 17.5198 322.081 18.2187C322.704 18.9177 323.015 19.8842 323.015 21.1184V21.6426ZM319.575 18.3826C318.941 18.3826 318.434 18.5846 318.051 18.9887C317.68 19.3819 317.456 19.9498 317.38 20.6924H321.59C321.557 19.9498 321.366 19.3819 321.016 18.9887C320.678 18.5846 320.197 18.3826 319.575 18.3826ZM328.543 24.1982C328.794 24.1982 329.04 24.1818 329.28 24.1491L329.198 25.4105C328.925 25.4542 328.641 25.476 328.346 25.476C327.309 25.476 326.533 25.2248 326.02 24.7224C325.517 24.2091 325.266 23.4719 325.266 22.5108V18.6447H323.71V17.3669H325.266V14.9587H326.921V17.3669H329.116V18.6447H326.921V22.4453C326.921 23.6139 327.461 24.1982 328.543 24.1982ZM333.876 17.1703C334.946 17.1703 335.738 17.4379 336.251 17.973C336.775 18.5082 337.037 19.3218 337.037 20.4139V25.3613H335.448V24.0344C335.241 24.504 334.93 24.8644 334.515 25.1156C334.11 25.3559 333.635 25.476 333.089 25.476C332.565 25.476 332.085 25.3722 331.648 25.1647C331.211 24.9463 330.867 24.646 330.616 24.2637C330.375 23.8815 330.255 23.4555 330.255 22.9859C330.255 22.4071 330.403 21.9539 330.698 21.6262C331.003 21.2876 331.5 21.0474 332.188 20.9054C332.887 20.7634 333.843 20.6924 335.055 20.6924H335.432V20.2174C335.432 19.6058 335.301 19.1634 335.039 18.8904C334.788 18.6174 334.373 18.4809 333.794 18.4809C332.887 18.4809 331.981 18.7593 331.074 19.3163L330.583 18.1532C331.009 17.8583 331.522 17.6235 332.123 17.4488C332.734 17.2631 333.319 17.1703 333.876 17.1703ZM333.384 24.2473C333.985 24.2473 334.476 24.0453 334.859 23.6412C335.241 23.2262 335.432 22.6965 335.432 22.0521V21.6262H335.137C334.285 21.6262 333.63 21.6644 333.171 21.7409C332.713 21.8173 332.385 21.9484 332.188 22.1341C331.992 22.3088 331.893 22.5655 331.893 22.904C331.893 23.2863 332.03 23.6084 332.303 23.8706C332.587 24.1217 332.947 24.2473 333.384 24.2473ZM353.187 25.3613H351.32L349.354 21.659C349.135 21.2658 348.873 20.9928 348.568 20.8399C348.273 20.6761 347.88 20.5941 347.388 20.5941H345.488V25.3613H343.817V13.812H348.731C350.009 13.812 350.981 14.0959 351.647 14.6638C352.325 15.2317 352.663 16.0618 352.663 17.1539C352.663 18.0385 352.412 18.7648 351.91 19.3327C351.418 19.9006 350.714 20.261 349.796 20.4139C350.364 20.5887 350.834 21.0146 351.205 21.6917L353.187 25.3613ZM348.535 19.2344C349.387 19.2344 350.015 19.0706 350.419 18.743C350.834 18.4044 351.041 17.8856 351.041 17.1867C351.041 16.4877 350.839 15.9799 350.435 15.6631C350.031 15.3355 349.398 15.1717 348.535 15.1717H345.471V19.2344H348.535ZM361.779 21.6426H356.127C356.247 23.3354 357.088 24.1818 358.65 24.1818C359.567 24.1818 360.397 23.8815 361.14 23.2808L361.648 24.4439C361.276 24.7607 360.817 25.0118 360.271 25.1975C359.725 25.3832 359.168 25.476 358.6 25.476C357.323 25.476 356.312 25.1101 355.57 24.3784C354.838 23.6467 354.472 22.6364 354.472 21.3477C354.472 20.5286 354.631 19.8023 354.947 19.1689C355.275 18.5355 355.728 18.044 356.307 17.6945C356.897 17.345 357.563 17.1703 358.306 17.1703C359.387 17.1703 360.233 17.5198 360.845 18.2187C361.467 18.9177 361.779 19.8842 361.779 21.1184V21.6426ZM358.338 18.3826C357.705 18.3826 357.197 18.5846 356.815 18.9887C356.443 19.3819 356.22 19.9498 356.143 20.6924H360.353C360.321 19.9498 360.129 19.3819 359.78 18.9887C359.441 18.5846 358.961 18.3826 358.338 18.3826ZM366.42 25.476C365.033 25.476 363.924 25.1374 363.094 24.4603L363.602 23.2644C364.421 23.8979 365.377 24.2146 366.469 24.2146C367.004 24.2146 367.413 24.1272 367.697 23.9525C367.981 23.7668 368.123 23.5102 368.123 23.1825C368.123 22.8986 368.025 22.6747 367.828 22.5108C367.643 22.347 367.315 22.2105 366.846 22.1013L365.519 21.8064C364.809 21.6426 364.274 21.375 363.913 21.0037C363.553 20.6324 363.373 20.1627 363.373 19.5948C363.373 18.874 363.662 18.2897 364.241 17.8419C364.831 17.3942 365.6 17.1703 366.551 17.1703C367.119 17.1703 367.659 17.2631 368.172 17.4488C368.686 17.6235 369.128 17.8747 369.499 18.2024L368.992 19.3655C368.205 18.743 367.392 18.4317 366.551 18.4317C366.048 18.4317 365.65 18.53 365.355 18.7266C365.071 18.9232 364.929 19.1907 364.929 19.5293C364.929 19.8023 365.016 20.0262 365.191 20.201C365.377 20.3648 365.666 20.4904 366.059 20.5778L367.419 20.889C368.194 21.0638 368.762 21.3368 369.123 21.7081C369.483 22.0685 369.663 22.5436 369.663 23.1334C369.663 23.8542 369.368 24.4275 368.779 24.8535C368.2 25.2685 367.413 25.476 366.42 25.476ZM375.209 24.1982C375.46 24.1982 375.706 24.1818 375.946 24.1491L375.864 25.4105C375.591 25.4542 375.307 25.476 375.013 25.476C373.975 25.476 373.2 25.2248 372.686 24.7224C372.184 24.2091 371.933 23.4719 371.933 22.5108V18.6447H370.376V17.3669H371.933V14.9587H373.587V17.3669H375.783V18.6447H373.587V22.4453C373.587 23.6139 374.128 24.1982 375.209 24.1982ZM382.066 18.5628L381.066 18.6611C380.28 18.7375 379.712 18.9778 379.363 19.3819C379.024 19.786 378.855 20.2993 378.855 20.9218V25.3613H377.2V17.3669H378.806V18.7593C379.232 17.8201 380.1 17.3013 381.41 17.203L381.951 17.1703L382.066 18.5628ZM383.2 25.3613V17.3669H384.854V25.3613H383.2ZM383.085 13.7956H384.985V15.5157H383.085V13.7956ZM390.673 25.476C389.865 25.476 389.16 25.3067 388.56 24.9682C387.97 24.6296 387.511 24.1545 387.183 23.5429C386.867 22.9204 386.708 22.1941 386.708 21.3641C386.708 20.5341 386.872 19.8023 387.2 19.1689C387.538 18.5355 388.008 18.044 388.609 17.6945C389.22 17.345 389.93 17.1703 390.738 17.1703C391.295 17.1703 391.831 17.2631 392.344 17.4488C392.868 17.6344 393.294 17.8856 393.622 18.2024L393.114 19.3819C392.393 18.7921 391.645 18.4972 390.869 18.4972C390.105 18.4972 389.504 18.7484 389.067 19.2508C388.641 19.7423 388.429 20.4412 388.429 21.3477C388.429 22.2433 388.641 22.9368 389.067 23.4282C389.493 23.9088 390.094 24.1491 390.869 24.1491C391.645 24.1491 392.393 23.8542 393.114 23.2644L393.622 24.4603C393.272 24.777 392.835 25.0282 392.311 25.2139C391.787 25.3886 391.241 25.476 390.673 25.476ZM398.902 24.1982C399.154 24.1982 399.399 24.1818 399.64 24.1491L399.558 25.4105C399.285 25.4542 399.001 25.476 398.706 25.476C397.668 25.476 396.893 25.2248 396.38 24.7224C395.877 24.2091 395.626 23.4719 395.626 22.5108V18.6447H394.07V17.3669H395.626V14.9587H397.281V17.3669H399.476V18.6447H397.281V22.4453C397.281 23.6139 397.821 24.1982 398.902 24.1982ZM400.894 25.3613V17.3669H402.548V25.3613H400.894ZM400.779 13.7956H402.679V15.5157H400.779V13.7956ZM410.529 17.3833H412.184L408.711 25.3613H407.22L403.78 17.3833H405.516L408.006 23.4938L410.529 17.3833ZM416.586 17.1703C417.656 17.1703 418.448 17.4379 418.961 17.973C419.486 18.5082 419.748 19.3218 419.748 20.4139V25.3613H418.159V24.0344C417.951 24.504 417.64 24.8644 417.225 25.1156C416.821 25.3559 416.346 25.476 415.8 25.476C415.275 25.476 414.795 25.3722 414.358 25.1647C413.921 24.9463 413.577 24.646 413.326 24.2637C413.086 23.8815 412.966 23.4555 412.966 22.9859C412.966 22.4071 413.113 21.9539 413.408 21.6262C413.714 21.2876 414.211 21.0474 414.899 20.9054C415.598 20.7634 416.553 20.6924 417.766 20.6924H418.142V20.2174C418.142 19.6058 418.011 19.1634 417.749 18.8904C417.498 18.6174 417.083 18.4809 416.504 18.4809C415.598 18.4809 414.691 18.7593 413.785 19.3163L413.293 18.1532C413.719 17.8583 414.232 17.6235 414.833 17.4488C415.445 17.2631 416.029 17.1703 416.586 17.1703ZM416.095 24.2473C416.695 24.2473 417.187 24.0453 417.569 23.6412C417.951 23.2262 418.142 22.6965 418.142 22.0521V21.6262H417.847C416.996 21.6262 416.34 21.6644 415.882 21.7409C415.423 21.8173 415.095 21.9484 414.899 22.1341C414.702 22.3088 414.604 22.5655 414.604 22.904C414.604 23.2863 414.74 23.6084 415.013 23.8706C415.297 24.1217 415.658 24.2473 416.095 24.2473Z" fill="#EC3B15"/>
<path d="M298.383 169.442H302.429C304.297 169.442 305.744 169.944 306.77 170.949C307.797 171.954 308.31 173.373 308.31 175.208C308.31 177.043 307.797 178.468 306.77 179.484C305.744 180.489 304.297 180.991 302.429 180.991H298.383V169.442ZM302.331 179.582C305.17 179.582 306.59 178.124 306.59 175.208C306.59 172.303 305.17 170.851 302.331 170.851H300.07V179.582H302.331ZM310.409 180.991V172.997H312.063V180.991H310.409ZM310.294 169.425H312.194V171.145H310.294V169.425ZM321.224 177.272H315.572C315.692 178.965 316.533 179.812 318.095 179.812C319.012 179.812 319.842 179.511 320.585 178.911L321.093 180.074C320.722 180.39 320.263 180.642 319.717 180.827C319.171 181.013 318.614 181.106 318.046 181.106C316.768 181.106 315.758 180.74 315.015 180.008C314.283 179.276 313.918 178.266 313.918 176.977C313.918 176.158 314.076 175.432 314.393 174.799C314.72 174.165 315.173 173.674 315.752 173.324C316.342 172.975 317.008 172.8 317.751 172.8C318.832 172.8 319.679 173.15 320.29 173.848C320.913 174.547 321.224 175.514 321.224 176.748V177.272ZM317.784 174.012C317.15 174.012 316.642 174.214 316.26 174.618C315.889 175.012 315.665 175.58 315.588 176.322H319.799C319.766 175.58 319.575 175.012 319.225 174.618C318.887 174.214 318.406 174.012 317.784 174.012ZM326.751 179.828C327.003 179.828 327.248 179.812 327.489 179.779L327.407 181.04C327.134 181.084 326.85 181.106 326.555 181.106C325.517 181.106 324.742 180.855 324.229 180.352C323.726 179.839 323.475 179.102 323.475 178.141V174.274H321.919V172.997H323.475V170.588H325.13V172.997H327.325V174.274H325.13V178.075C325.13 179.244 325.67 179.828 326.751 179.828ZM332.084 172.8C333.155 172.8 333.947 173.068 334.46 173.603C334.984 174.138 335.246 174.952 335.246 176.044V180.991H333.657V179.664C333.45 180.134 333.138 180.494 332.723 180.745C332.319 180.986 331.844 181.106 331.298 181.106C330.774 181.106 330.293 181.002 329.857 180.795C329.42 180.576 329.076 180.276 328.824 179.893C328.584 179.511 328.464 179.085 328.464 178.616C328.464 178.037 328.611 177.584 328.906 177.256C329.212 176.917 329.709 176.677 330.397 176.535C331.096 176.393 332.052 176.322 333.264 176.322H333.641V175.847C333.641 175.236 333.51 174.793 333.248 174.52C332.996 174.247 332.581 174.111 332.003 174.111C331.096 174.111 330.19 174.389 329.283 174.946L328.792 173.783C329.218 173.488 329.731 173.253 330.332 173.079C330.943 172.893 331.527 172.8 332.084 172.8ZM331.593 179.877C332.194 179.877 332.685 179.675 333.067 179.271C333.45 178.856 333.641 178.326 333.641 177.682V177.256H333.346C332.494 177.256 331.839 177.294 331.38 177.371C330.921 177.447 330.594 177.578 330.397 177.764C330.201 177.939 330.102 178.195 330.102 178.534C330.102 178.916 330.239 179.238 330.512 179.5C330.796 179.752 331.156 179.877 331.593 179.877ZM342.026 180.991V169.442H349.529V170.801H343.68V174.438H349.201V175.814H343.68V179.631H349.529V180.991H342.026ZM358.784 172.997V183.94H357.129V179.648C356.889 180.117 356.539 180.478 356.081 180.729C355.633 180.98 355.109 181.106 354.508 181.106C353.809 181.106 353.187 180.936 352.641 180.598C352.105 180.259 351.69 179.779 351.396 179.156C351.101 178.534 350.953 177.813 350.953 176.994C350.953 176.164 351.101 175.432 351.396 174.799C351.701 174.165 352.122 173.674 352.657 173.324C353.203 172.975 353.82 172.8 354.508 172.8C355.109 172.8 355.638 172.931 356.097 173.193C356.556 173.455 356.905 173.827 357.146 174.307V172.997H358.784ZM354.901 179.795C355.622 179.795 356.174 179.549 356.556 179.058C356.949 178.567 357.146 177.868 357.146 176.961C357.146 176.055 356.949 175.356 356.556 174.864C356.174 174.373 355.622 174.127 354.901 174.127C354.191 174.127 353.634 174.384 353.23 174.897C352.826 175.399 352.624 176.098 352.624 176.994C352.624 177.889 352.821 178.583 353.214 179.074C353.618 179.555 354.18 179.795 354.901 179.795ZM368.102 172.997V180.991H366.497V179.697C366.246 180.156 365.896 180.505 365.448 180.745C365.012 180.986 364.52 181.106 363.974 181.106C362.03 181.106 361.058 180.035 361.058 177.895V172.997H362.713V177.878C362.713 178.523 362.844 178.998 363.106 179.304C363.368 179.61 363.772 179.762 364.318 179.762C364.962 179.762 365.476 179.555 365.858 179.14C366.251 178.725 366.448 178.173 366.448 177.485V172.997H368.102ZM370.418 180.991V172.997H372.072V180.991H370.418ZM370.303 169.425H372.203V171.145H370.303V169.425ZM374.385 180.991V169.442H376.04V180.991H374.385ZM378.353 180.991V172.997H380.007V180.991H378.353ZM378.238 169.425H380.138V171.145H378.238V169.425ZM386.612 172.8C387.311 172.8 387.928 172.969 388.464 173.308C388.999 173.646 389.414 174.127 389.709 174.75C390.014 175.372 390.167 176.098 390.167 176.928C390.167 177.747 390.014 178.474 389.709 179.107C389.414 179.741 388.993 180.232 388.447 180.582C387.912 180.931 387.3 181.106 386.612 181.106C386.012 181.106 385.482 180.98 385.023 180.729C384.565 180.467 384.215 180.096 383.975 179.615V180.991H382.32V169.442H383.975V174.307C384.215 173.827 384.565 173.455 385.023 173.193C385.482 172.931 386.012 172.8 386.612 172.8ZM386.219 179.795C386.929 179.795 387.481 179.544 387.874 179.042C388.278 178.539 388.48 177.835 388.48 176.928C388.48 176.033 388.283 175.345 387.89 174.864C387.497 174.373 386.94 174.127 386.219 174.127C385.498 174.127 384.941 174.373 384.548 174.864C384.166 175.356 383.975 176.055 383.975 176.961C383.975 177.868 384.166 178.567 384.548 179.058C384.941 179.549 385.498 179.795 386.219 179.795ZM396.865 174.193L395.865 174.291C395.079 174.367 394.511 174.608 394.162 175.012C393.823 175.416 393.654 175.929 393.654 176.552V180.991H391.999V172.997H393.605V174.389C394.031 173.45 394.899 172.931 396.209 172.833L396.75 172.8L396.865 174.193ZM401.292 172.8C402.363 172.8 403.155 173.068 403.668 173.603C404.192 174.138 404.454 174.952 404.454 176.044V180.991H402.865V179.664C402.658 180.134 402.346 180.494 401.931 180.745C401.527 180.986 401.052 181.106 400.506 181.106C399.982 181.106 399.501 181.002 399.064 180.795C398.628 180.576 398.284 180.276 398.032 179.893C397.792 179.511 397.672 179.085 397.672 178.616C397.672 178.037 397.819 177.584 398.114 177.256C398.42 176.917 398.917 176.677 399.605 176.535C400.304 176.393 401.26 176.322 402.472 176.322H402.849V175.847C402.849 175.236 402.718 174.793 402.456 174.52C402.204 174.247 401.789 174.111 401.211 174.111C400.304 174.111 399.398 174.389 398.491 174.946L398 173.783C398.426 173.488 398.939 173.253 399.54 173.079C400.151 172.893 400.735 172.8 401.292 172.8ZM400.801 179.877C401.402 179.877 401.893 179.675 402.275 179.271C402.658 178.856 402.849 178.326 402.849 177.682V177.256H402.554C401.702 177.256 401.047 177.294 400.588 177.371C400.129 177.447 399.802 177.578 399.605 177.764C399.408 177.939 399.31 178.195 399.31 178.534C399.31 178.916 399.447 179.238 399.72 179.5C400.004 179.752 400.364 179.877 400.801 179.877ZM414.089 169.442V180.991H412.451V179.615C412.211 180.096 411.861 180.467 411.403 180.729C410.944 180.98 410.414 181.106 409.814 181.106C409.126 181.106 408.509 180.931 407.962 180.582C407.427 180.232 407.007 179.741 406.701 179.107C406.406 178.474 406.259 177.747 406.259 176.928C406.259 176.098 406.406 175.372 406.701 174.75C407.007 174.127 407.427 173.646 407.962 173.308C408.498 172.969 409.115 172.8 409.814 172.8C410.414 172.8 410.939 172.931 411.386 173.193C411.845 173.444 412.195 173.805 412.435 174.274V169.442H414.089ZM410.207 179.795C410.928 179.795 411.479 179.549 411.861 179.058C412.255 178.567 412.451 177.868 412.451 176.961C412.451 176.055 412.255 175.356 411.861 174.864C411.479 174.373 410.928 174.127 410.207 174.127C409.486 174.127 408.924 174.373 408.519 174.864C408.126 175.345 407.93 176.033 407.93 176.928C407.93 177.824 408.132 178.528 408.536 179.042C408.94 179.544 409.497 179.795 410.207 179.795ZM419.738 172.8C420.809 172.8 421.6 173.068 422.114 173.603C422.638 174.138 422.9 174.952 422.9 176.044V180.991H421.311V179.664C421.103 180.134 420.792 180.494 420.377 180.745C419.973 180.986 419.498 181.106 418.952 181.106C418.428 181.106 417.947 181.002 417.51 180.795C417.073 180.576 416.729 180.276 416.478 179.893C416.238 179.511 416.118 179.085 416.118 178.616C416.118 178.037 416.265 177.584 416.56 177.256C416.866 176.917 417.363 176.677 418.051 176.535C418.75 176.393 419.706 176.322 420.918 176.322H421.295V175.847C421.295 175.236 421.164 174.793 420.901 174.52C420.65 174.247 420.235 174.111 419.656 174.111C418.75 174.111 417.843 174.389 416.937 174.946L416.445 173.783C416.871 173.488 417.385 173.253 417.985 173.079C418.597 172.893 419.181 172.8 419.738 172.8ZM419.247 179.877C419.847 179.877 420.339 179.675 420.721 179.271C421.103 178.856 421.295 178.326 421.295 177.682V177.256H421C420.148 177.256 419.493 177.294 419.034 177.371C418.575 177.447 418.247 177.578 418.051 177.764C417.854 177.939 417.756 178.195 417.756 178.534C417.756 178.916 417.893 179.238 418.166 179.5C418.45 179.752 418.81 179.877 419.247 179.877Z" fill="#00CFC3"/>
<path d="M77.724 14.812H82.5075C83.7307 14.812 84.6809 15.1123 85.358 15.713C86.0351 16.3136 86.3737 17.1655 86.3737 18.2686C86.3737 19.3607 86.0351 20.2126 85.358 20.8242C84.6809 21.4358 83.7307 21.7416 82.5075 21.7416H79.4113V26.3613H77.724V14.812ZM82.3273 20.3819C83.9437 20.3819 84.7519 19.6774 84.7519 18.2686C84.7519 16.8706 83.9437 16.1717 82.3273 16.1717H79.4113V20.3819H82.3273ZM94.7899 22.6426H89.138C89.2582 24.3354 90.0991 25.1818 91.6609 25.1818C92.5783 25.1818 93.4083 24.8815 94.151 24.2808L94.6588 25.4439C94.2875 25.7607 93.8288 26.0118 93.2827 26.1975C92.7366 26.3832 92.1797 26.476 91.6117 26.476C90.3339 26.476 89.3237 26.1101 88.5811 25.3784C87.8493 24.6467 87.4835 23.6364 87.4835 22.3477C87.4835 21.5286 87.6418 20.8023 87.9585 20.1689C88.2862 19.5355 88.7394 19.044 89.3182 18.6945C89.908 18.345 90.5742 18.1703 91.3169 18.1703C92.3981 18.1703 93.2445 18.5198 93.8561 19.2187C94.4786 19.9177 94.7899 20.8842 94.7899 22.1184V22.6426ZM91.3496 19.3826C90.7162 19.3826 90.2083 19.5846 89.8261 19.9887C89.4548 20.3819 89.2309 20.9498 89.1544 21.6924H93.3646C93.3319 20.9498 93.1407 20.3819 92.7913 19.9887C92.4527 19.5846 91.9721 19.3826 91.3496 19.3826ZM99.4309 26.476C98.0438 26.476 96.9353 26.1374 96.1053 25.4603L96.6131 24.2644C97.4322 24.8979 98.3879 25.2146 99.48 25.2146C100.015 25.2146 100.425 25.1272 100.709 24.9525C100.993 24.7668 101.135 24.5102 101.135 24.1825C101.135 23.8986 101.036 23.6747 100.84 23.5108C100.654 23.347 100.326 23.2105 99.8568 23.1013L98.5298 22.8064C97.82 22.6426 97.2848 22.375 96.9244 22.0037C96.564 21.6324 96.3838 21.1627 96.3838 20.5948C96.3838 19.874 96.6732 19.2897 97.252 18.8419C97.8418 18.3942 98.6118 18.1703 99.5619 18.1703C100.13 18.1703 100.67 18.2631 101.184 18.4488C101.697 18.6235 102.139 18.8747 102.511 19.2024L102.003 20.3655C101.217 19.743 100.403 19.4317 99.5619 19.4317C99.0595 19.4317 98.6609 19.53 98.366 19.7266C98.0821 19.9232 97.9401 20.1907 97.9401 20.5293C97.9401 20.8023 98.0275 21.0262 98.2022 21.201C98.3879 21.3648 98.6773 21.4904 99.0705 21.5778L100.43 21.889C101.206 22.0638 101.773 22.3368 102.134 22.7081C102.494 23.0685 102.675 23.5436 102.675 24.1334C102.675 24.8542 102.38 25.4275 101.79 25.8535C101.211 26.2685 100.425 26.476 99.4309 26.476ZM107.989 26.476C107.203 26.476 106.509 26.3067 105.909 25.9682C105.319 25.6296 104.86 25.1491 104.533 24.5265C104.216 23.8931 104.058 23.1614 104.058 22.3313C104.058 21.4904 104.216 20.7587 104.533 20.1361C104.86 19.5027 105.319 19.0167 105.909 18.6781C106.509 18.3396 107.203 18.1703 107.989 18.1703C108.776 18.1703 109.464 18.3396 110.053 18.6781C110.654 19.0167 111.113 19.5027 111.429 20.1361C111.757 20.7587 111.921 21.4904 111.921 22.3313C111.921 23.1614 111.757 23.8931 111.429 24.5265C111.113 25.1491 110.654 25.6296 110.053 25.9682C109.464 26.3067 108.776 26.476 107.989 26.476ZM107.989 25.1654C108.721 25.1654 109.278 24.9252 109.66 24.4446C110.053 23.9641 110.25 23.2597 110.25 22.3313C110.25 21.4139 110.053 20.715 109.66 20.2344C109.267 19.743 108.71 19.4972 107.989 19.4972C107.268 19.4972 106.711 19.743 106.318 20.2344C105.925 20.715 105.728 21.4139 105.728 22.3313C105.728 23.2597 105.92 23.9641 106.302 24.4446C106.695 24.9252 107.257 25.1654 107.989 25.1654Z" fill="black"/>
<path d="M90.6643 94.5898V217.825H358.196V196.424C358.196 196.424 300.082 204.794 248.74 186.625C213.491 173.594 197.058 157.807 170.179 134.466C120.265 96.1209 90.6643 94.5898 90.6643 94.5898Z" fill="#ADEEEA"/>
<path d="M358.196 217.825H90.6643V35.6897" stroke="#C5C5C5" stroke-width="0.680481" stroke-miterlimit="10"/>
<path d="M358.196 196.424C358.196 196.424 300.082 204.794 248.74 186.625C213.491 173.594 197.058 157.807 170.179 134.466C120.265 96.1209 90.6643 94.5898 90.6643 94.5898" stroke="#00CFC3" stroke-width="0.680481" stroke-miterlimit="10"/>
<g filter="url(#filter0_d)">
<path fill-rule="evenodd" clip-rule="evenodd" d="M358.763 203.928C363.346 203.928 367.062 200.212 367.062 195.629C367.062 191.045 363.346 187.33 358.763 187.33C354.18 187.33 350.464 191.045 350.464 195.629C350.464 200.212 354.18 203.928 358.763 203.928Z" fill="#00CFC3"/>
<path d="M365.238 195.629C365.238 199.205 362.339 202.104 358.763 202.104C355.187 202.104 352.288 199.205 352.288 195.629C352.288 192.053 355.187 189.154 358.763 189.154C362.339 189.154 365.238 192.053 365.238 195.629Z" stroke="white" stroke-width="3.64713"/>
</g>
<path d="M357.548 94.2162V39.6076C357.548 39.6076 329.444 37.4301 304.981 57.7084C291.167 69.1745 282.048 81.8655 274.971 94.2162H357.548Z" fill="#FFBAAB"/>
<path d="M357.65 39.0631C357.65 39.0631 329.546 36.8855 305.083 57.1639C257.449 96.7679 265.479 150.832 222.336 154.711C199.812 156.65 176.302 138.277 169.633 133.888C119.72 95.577 90.0848 94.0459 90.0848 94.0459" stroke="#EC3B15" stroke-width="0.680481" stroke-miterlimit="10"/>
<path d="M358.365 43.3503C360.771 43.3503 362.72 41.4005 362.72 38.9952C362.72 36.59 360.771 34.6401 358.365 34.6401C355.96 34.6401 354.01 36.59 354.01 38.9952C354.01 41.4005 355.96 43.3503 358.365 43.3503Z" fill="#EC3B15"/>
<path d="M89.6769 94.2166H91.3781" stroke="#EC3B15" stroke-width="0.680481" stroke-miterlimit="10"/>
<path d="M94.813 94.2166H354.11" stroke="#EC3B15" stroke-width="0.680481" stroke-miterlimit="10" stroke-dasharray="3.43 3.43"/>
<path d="M355.846 94.2166H357.548" stroke="#EC3B15" stroke-width="0.680481" stroke-miterlimit="10"/>
<path d="M169.361 137.359C171.766 137.359 173.716 135.409 173.716 133.004C173.716 130.599 171.766 128.649 169.361 128.649C166.956 128.649 165.006 130.599 165.006 133.004C165.006 135.409 166.956 137.359 169.361 137.359Z" fill="#EC3B15"/>
<path d="M169.26 216.805V215.104" stroke="#EC3B15" stroke-width="0.680481" stroke-miterlimit="10"/>
<path d="M169.26 211.633V136.917" stroke="#EC3B15" stroke-width="0.680481" stroke-miterlimit="10" stroke-dasharray="3.47 3.47"/>
<path d="M169.26 135.181V133.48" stroke="#EC3B15" stroke-width="0.680481" stroke-miterlimit="10"/>
<g filter="url(#filter1_d)">
<path fill-rule="evenodd" clip-rule="evenodd" d="M90.7987 103.295C95.382 103.295 99.0976 99.5794 99.0976 94.9961C99.0976 90.4128 95.382 86.6973 90.7987 86.6973C86.2154 86.6973 82.4999 90.4128 82.4999 94.9961C82.4999 99.5794 86.2154 103.295 90.7987 103.295Z" fill="#00CFC3"/>
<path d="M97.274 94.9961C97.274 98.5723 94.3749 101.471 90.7987 101.471C87.2225 101.471 84.3234 98.5723 84.3234 94.9961C84.3234 91.4199 87.2225 88.5208 90.7987 88.5208C94.3749 88.5208 97.274 91.4199 97.274 94.9961Z" stroke="white" stroke-width="3.64713"/>
</g>
<defs>
<filter id="filter0_d" x="340.738" y="182.467" width="36.0491" height="36.0491" filterUnits="userSpaceOnUse" color-interpolation-filters="sRGB">
<feFlood flood-opacity="0" result="BackgroundImageFix"/>
<feColorMatrix in="SourceAlpha" type="matrix" values="0 0 0 0 0 0 0 0 0 0 0 0 0 0 0 0 0 0 127 0"/>
<feOffset dy="4.86284"/>
<feGaussianBlur stdDeviation="4.86284"/>
<feColorMatrix type="matrix" values="0 0 0 0 0 0 0 0 0 0 0 0 0 0 0 0 0 0 0.16 0"/>
<feBlend mode="normal" in2="BackgroundImageFix" result="effect1_dropShadow"/>
<feBlend mode="normal" in="SourceGraphic" in2="effect1_dropShadow" result="shape"/>
</filter>
<filter id="filter1_d" x="72.7742" y="81.8344" width="36.0491" height="36.0491" filterUnits="userSpaceOnUse" color-interpolation-filters="sRGB">
<feFlood flood-opacity="0" result="BackgroundImageFix"/>
<feColorMatrix in="SourceAlpha" type="matrix" values="0 0 0 0 0 0 0 0 0 0 0 0 0 0 0 0 0 0 127 0"/>
<feOffset dy="4.86284"/>
<feGaussianBlur stdDeviation="4.86284"/>
<feColorMatrix type="matrix" values="0 0 0 0 0 0 0 0 0 0 0 0 0 0 0 0 0 0 0.16 0"/>
<feBlend mode="normal" in2="BackgroundImageFix" result="effect1_dropShadow"/>
<feBlend mode="normal" in="SourceGraphic" in2="effect1_dropShadow" result="shape"/>
</filter>
</defs>
</svg>
