<svg width="468" height="259" viewBox="0 0 468 259" fill="none" xmlns="http://www.w3.org/2000/svg">
<path d="M0 7.02088C0 3.14335 3.14336 0 7.0209 0H460.979C464.857 0 468 3.14336 468 7.0209V251.979C468 255.857 464.857 259 460.979 259H7.02091C3.14338 259 0 255.857 0 251.979V7.02088Z" fill="#F8F8F8"/>
<path d="M352.684 230.698V232.385H349.621V233.45H352.684V235.367H348.818V236.448H357.73V235.367H353.831V233.45H356.862V232.385H353.831V230.698H352.684ZM349.195 238.479V239.577H354.486V243.672C354.486 244.213 354.273 244.491 353.88 244.491C353.29 244.491 352.668 244.459 352.013 244.41L352.258 245.524H354.273C355.174 245.524 355.633 244.999 355.633 243.951V239.577H357.566V238.479H355.633V237.201H354.486V238.479H349.195ZM350.342 240.249L349.424 240.805C350.276 241.772 350.964 242.657 351.456 243.459L352.389 242.804C351.898 242.067 351.226 241.215 350.342 240.249ZM348.048 231.844H343.461V244.311H344.608V242.804H346.934V243.918H348.048V231.844ZM344.608 241.707V237.791H346.934V241.707H344.608ZM344.608 236.71V232.926H346.934V236.71H344.608ZM363.677 237.84V244.164H369.689V237.84H363.677ZM368.575 243.181H364.807V241.477H368.575V243.181ZM364.807 240.511V238.823H368.575V240.511H364.807ZM361.252 234.351H364.676V235.596H361.252V234.351ZM364.676 233.434H361.252V232.205H364.676V233.434ZM368.608 234.367H372.146V235.596H368.608V234.367ZM372.146 233.45H368.608V232.205H372.146V233.45ZM365.856 231.156H360.073V245.605H361.252V236.661H365.856V231.156ZM372.146 236.661V243.951C372.146 244.295 371.966 244.475 371.638 244.475C371.163 244.475 370.656 244.442 370.099 244.41L370.41 245.54C370.95 245.556 371.507 245.573 372.064 245.573C372.883 245.573 373.309 245.147 373.309 244.328V231.14H367.428V236.661H372.146Z" fill="black"/>
<path d="M266.973 12.6486C265.105 14.5489 262.746 16.1544 259.912 17.4322L260.485 18.4642C263.336 17.1373 265.646 15.5482 267.382 13.7134C269.282 15.5974 271.56 17.1373 274.246 18.3168L274.82 17.2847C272.166 16.1544 269.823 14.6144 267.792 12.6486H266.973ZM264.384 20.7413H270.642V22.0847H264.384V20.7413ZM270.642 19.7257H264.384V18.3823H270.642V19.7257ZM272.706 22.8219C272.067 23.5591 271.347 24.2471 270.56 24.886C269.626 24.4601 268.627 24.0341 267.562 23.641L266.907 24.4437C269.594 25.4758 271.805 26.5898 273.542 27.7693L274.279 26.8846C273.443 26.3604 272.526 25.8526 271.543 25.3611C272.313 24.755 273.034 24.0669 273.706 23.3133L272.706 22.8219ZM263.008 27.671C265.105 27.3106 266.874 26.901 268.283 26.4423L268.07 25.443C266.907 25.787 265.678 26.0819 264.384 26.344V23.1331H271.805V17.3339H268.152C267.955 16.6458 267.726 16.0233 267.497 15.4827L266.416 15.6629C266.645 16.1707 266.874 16.7277 267.071 17.3339H263.221V25.8362C263.221 26.3276 263.041 26.6389 262.697 26.7372L263.008 27.671ZM278.342 15.581V18.7755H283.191V19.7912H277.801V20.7413H283.191V22.0028H276.327V22.9693H283.191V24.1652H277.801V25.1154H283.191V25.9181C283.191 26.3276 282.961 26.5406 282.519 26.5406C281.929 26.5406 281.307 26.5078 280.652 26.4587L280.897 27.5727H282.912C283.879 27.5727 284.37 27.114 284.37 26.1966V25.1154H289.449V22.9693H291.234V22.0028H289.449V19.7912H284.37V18.7755H289.219V15.581H284.37V14.5653H290.792V13.5496H284.37V12.5667H283.191V13.5496H276.769V14.5653H283.191V15.581H278.342ZM288.04 17.8745H284.37V16.482H288.04V17.8745ZM283.191 17.8745H279.521V16.482H283.191V17.8745ZM284.37 20.7413H288.318V22.0028H284.37V20.7413ZM288.318 22.9693V24.1652H284.37V22.9693H288.318ZM294.527 15.794H296.821V17.9072H292.856V19.0048H296.821V20.725H293.593V26.6225H294.74V21.8226H296.821V27.6546H298V21.8226H300.064V24.8041C300.064 25.23 299.819 25.443 299.36 25.443L298.557 25.3939L298.852 26.5078H299.72C300.703 26.5078 301.195 26.0164 301.195 25.0498V20.725H298V19.0048H301.539V17.9072H298V15.794H301.064V14.6964H298V12.665H296.821V14.6964H294.92C295.051 14.254 295.15 13.779 295.232 13.2547L294.118 13.0745C293.888 14.6308 293.364 15.8431 292.545 16.7277L293.495 17.4158C293.888 16.9899 294.232 16.4492 294.527 15.794ZM302.505 14.1394V24.2635H303.652V14.1394H302.505ZM305.503 27.4908C306.503 27.4908 307.01 26.9665 307.01 25.9509V12.665H305.847V25.656C305.847 26.1802 305.585 26.4423 305.094 26.4423C304.373 26.4423 303.619 26.4096 302.833 26.3604L303.095 27.4908H305.503ZM309.73 13.2711V27.6546H310.877V14.4015H313.58C313.154 15.7612 312.548 17.3011 311.778 19.0048C312.924 20.3809 313.498 21.6424 313.498 22.7563C313.498 23.1004 313.383 23.3461 313.186 23.4935C312.973 23.6246 312.564 23.7065 311.958 23.7393C311.794 23.7393 311.581 23.7065 311.319 23.6737L311.712 24.8696C312.892 24.8533 313.711 24.6567 314.169 24.2799C314.497 23.9686 314.677 23.4608 314.677 22.7563C314.612 21.5768 314.038 20.2663 312.99 18.8246C313.678 17.2192 314.268 15.6957 314.759 14.2213V13.2711H309.73ZM316.692 17.3666H321.525V19.2178H316.692V17.3666ZM321.525 16.2854H316.692V14.4015H321.525V16.2854ZM318.576 20.299C319.133 23.3625 320.788 25.7707 323.507 27.5072L324.162 26.4751C322.917 25.7379 321.934 24.8533 321.181 23.8212C322.115 23.3461 322.95 22.6581 323.704 21.7734L322.934 21.0035C322.197 21.8881 321.427 22.5434 320.64 22.9857C320.165 22.1666 319.838 21.2656 319.641 20.299H322.672V13.2875H315.529V25.9672C315.529 26.1311 315.398 26.2621 315.169 26.344L315.447 27.3597C317.233 26.8846 318.707 26.3932 319.887 25.8853L319.625 24.7877C318.658 25.23 317.675 25.6068 316.692 25.9017V20.299H318.576ZM333.287 14.5325C331.141 14.5325 329.405 15.2206 328.078 16.6294C326.833 17.9236 326.21 19.4799 326.21 21.3147C326.21 22.4942 326.489 23.5099 327.078 24.329C327.685 25.1809 328.471 25.6068 329.421 25.6068C330.601 25.6068 331.567 24.6894 332.288 22.8546C332.73 21.7898 333.074 20.4137 333.32 18.7264L333.664 15.6793C334.909 15.7448 335.99 16.1871 336.908 16.9899C337.923 17.8745 338.431 18.9885 338.431 20.3646C338.431 21.7734 338.022 22.9038 337.235 23.7229C336.367 24.6075 334.958 25.2464 333.009 25.6232L333.418 26.7372C335.499 26.3113 337.039 25.6232 338.022 24.6731C339.103 23.6246 339.66 22.1994 339.66 20.3646C339.66 18.7264 339.054 17.3503 337.874 16.2363C336.646 15.0895 335.122 14.5325 333.287 14.5325ZM329.421 24.4765C328.864 24.4765 328.389 24.1816 328.029 23.5918C327.635 22.9857 327.439 22.2321 327.439 21.3147C327.439 19.6929 327.996 18.3332 329.143 17.252C330.06 16.3673 331.174 15.8431 332.468 15.712C332.337 17.4485 332.091 19.054 331.764 20.512C331.158 23.1495 330.371 24.4765 329.421 24.4765ZM355.551 14.5817C353.699 14.6964 351.324 14.7783 348.408 14.8274C348.49 14.2213 348.588 13.6315 348.703 13.0581L347.54 12.796C347.409 13.4677 347.294 14.1557 347.212 14.8438C345.869 14.8438 344.443 14.8602 342.904 14.8602L342.92 15.9578C344.394 15.9578 345.787 15.9414 347.097 15.9414C347.015 16.7441 346.966 17.5632 346.95 18.3987C346.196 18.6772 345.492 19.0704 344.869 19.5618C343.395 20.6922 342.658 22.0192 342.658 23.5427C342.658 24.3946 342.871 25.0498 343.329 25.5413C343.772 26.0328 344.394 26.2949 345.197 26.2949C347.245 26.2949 348.981 25.1809 350.423 22.9857C351.127 21.8717 351.733 20.5775 352.225 19.0868C352.635 19.2014 353.011 19.3653 353.372 19.5946C354.322 20.1844 354.797 21.0198 354.797 22.0847C354.797 23.1823 354.371 24.0669 353.536 24.7386C352.733 25.3611 351.553 25.7707 350.013 25.9672L350.423 26.9829C352.225 26.7372 353.585 26.2457 354.502 25.4922C355.485 24.6731 355.976 23.5427 355.976 22.0847C355.976 20.7086 355.387 19.611 354.224 18.8083C353.699 18.4479 353.142 18.1857 352.536 18.0219C352.602 17.727 352.684 17.4322 352.766 17.1373L351.652 16.8916C351.57 17.2028 351.488 17.5141 351.422 17.809C351.144 17.7762 350.865 17.7762 350.587 17.7762C349.719 17.7762 348.899 17.8581 348.146 18.0383C348.162 17.3175 348.211 16.6131 348.277 15.925C351.193 15.8595 353.634 15.7776 355.616 15.6629L355.551 14.5817ZM351.095 18.8738C350.636 20.2171 350.079 21.3966 349.424 22.4123C349.096 22.8874 348.768 23.3133 348.441 23.6737C348.211 22.4287 348.113 21.0035 348.113 19.398V19.1687C348.867 18.9557 349.702 18.8574 350.587 18.8574C350.751 18.8574 350.931 18.8574 351.095 18.8738ZM346.934 19.611C346.934 21.4458 347.097 23.1004 347.409 24.542C346.721 24.9843 345.983 25.2137 345.197 25.2137C344.28 25.2137 343.821 24.6567 343.821 23.5427C343.821 22.3632 344.427 21.3147 345.672 20.3809C346.065 20.0697 346.475 19.8076 346.934 19.611ZM369.115 13.7953L360.957 14.0575L361.022 15.2042L367.772 14.8766L359.744 21.8553L360.531 22.6908C361.448 21.8553 362.464 21.1837 363.561 20.6594C364.839 20.0697 366.051 19.7748 367.215 19.7748C368.23 19.7748 369 19.9714 369.557 20.3809C370.147 20.8233 370.458 21.4785 370.458 22.3468C370.458 23.3625 369.901 24.198 368.804 24.8205L368.394 25.0335C368.198 24.1816 367.853 23.4935 367.378 22.9857C366.739 22.2649 365.871 21.9209 364.757 21.9209C363.938 21.9209 363.283 22.1502 362.791 22.6253C362.316 23.0512 362.087 23.5918 362.087 24.2471C362.087 24.9679 362.398 25.5413 363.054 25.9836C363.709 26.4096 364.593 26.6225 365.707 26.6225C367.411 26.6225 368.836 26.2293 369.983 25.443C371.097 24.6567 371.671 23.6246 371.671 22.3468C371.671 21.2 371.294 20.3154 370.54 19.6601C369.77 19.0048 368.705 18.6772 367.346 18.6772C366.199 18.6772 364.987 19.0376 363.709 19.7912C366.035 17.7926 368.066 16.0888 369.803 14.6472L369.115 13.7953ZM367.264 25.3939C366.772 25.4922 366.264 25.5577 365.707 25.5577C364.856 25.5577 364.217 25.4102 363.791 25.1154C363.43 24.8696 363.266 24.5748 363.266 24.2307C363.266 23.8867 363.398 23.5918 363.676 23.3625C363.938 23.1168 364.299 23.0021 364.757 23.0021C366.002 23.0021 366.821 23.6901 367.198 25.0826C367.215 25.1645 367.231 25.2628 367.264 25.3939ZM388.315 12.0916L387.659 12.5995C388.315 13.2384 388.888 13.9755 389.38 14.7947L390.084 14.2868C389.625 13.5332 389.036 12.796 388.315 12.0916ZM386.136 12.108L385.481 12.6322C386.136 13.2875 386.709 14.0083 387.201 14.8274L387.889 14.336C387.43 13.5332 386.84 12.796 386.136 12.108ZM380.713 13.009C380.287 14.2868 379.649 15.5482 378.78 16.7933C377.896 18.0055 376.88 19.0868 375.733 20.0369L376.602 20.8888C377.781 19.955 378.813 18.8574 379.73 17.596C380.042 17.1537 380.337 16.7114 380.599 16.2527H386.169C385.808 17.9236 385.153 19.4308 384.236 20.8069C383.777 20.4792 383.285 20.1516 382.745 19.824C381.893 19.2997 381.074 18.841 380.32 18.4479L379.567 19.3653C380.304 19.7257 381.123 20.2007 382.008 20.7741C382.532 21.1181 383.04 21.4622 383.498 21.7898C383.449 21.8553 383.4 21.9045 383.351 21.97C381.877 23.6737 380.025 24.9679 377.797 25.8526L378.485 26.9502C380.976 25.9672 383.04 24.4273 384.662 22.3468C386.201 20.3482 387.168 18.0711 387.594 15.4991L386.808 15.0568H381.238C381.5 14.4998 381.713 13.9428 381.909 13.3858L380.713 13.009ZM402.862 13.1401C401.551 14.5325 399.864 15.9578 397.784 17.4322C395.654 18.9066 393.639 20.0697 391.706 20.8888L392.377 21.97C394.261 21.1673 396.162 20.1188 398.095 18.8246V26.8191H399.373V17.9236C401.109 16.6294 402.6 15.3189 403.829 13.9755L402.862 13.1401ZM409.398 15.3516V16.5475H414.198V24.6894H408.284V25.8853H421.39V24.6894H415.476V16.5475H420.276V15.3516H409.398ZM430.04 16.9243L429.024 17.5141C429.876 18.7919 430.564 19.955 431.105 20.9871L432.137 20.3809C431.842 19.824 431.531 19.2506 431.17 18.6936C430.859 18.1857 430.482 17.596 430.04 16.9243ZM435.036 17.3666C434.643 19.5291 433.955 21.2656 432.972 22.5761C431.924 23.9522 430.433 25.0171 428.5 25.787L429.188 26.8027C431.252 26 432.874 24.8205 434.037 23.2642C435.102 21.7898 435.839 19.8895 436.265 17.5796L435.036 17.3666ZM427.173 17.8909L426.141 18.5134C426.895 19.5946 427.583 20.7413 428.221 21.9536L429.237 21.3311C428.68 20.2499 427.992 19.1031 427.173 17.8909ZM444.636 13.222V27.0157H445.931V19.6601C447.061 19.8567 448.273 20.1844 449.567 20.6103C450.747 21.0035 451.861 21.4458 452.877 21.9372L453.434 20.856C452.32 20.3154 451.124 19.8403 449.846 19.4308C448.47 18.9721 447.159 18.6281 445.931 18.4151V13.222H444.636Z" fill="#EC3B15"/>
<path d="M265.121 168.534L264.466 169.042C265.121 169.681 265.695 170.418 266.186 171.237L266.891 170.729C266.432 169.976 265.842 169.238 265.121 168.534ZM263.483 169.73L262.828 170.238C263.483 170.893 264.057 171.63 264.548 172.449L265.236 171.958C264.761 171.139 264.171 170.401 263.483 169.73ZM261.435 170.483L260.321 171.073C261.304 172.531 262.255 174.3 263.172 176.397C264.106 178.543 264.794 180.558 265.236 182.426L266.53 182.164C266.072 180.231 265.351 178.15 264.384 175.955C263.434 173.825 262.451 172.007 261.435 170.483ZM255.8 170.86C255.653 172.941 255.243 174.907 254.571 176.774C253.883 178.674 252.966 180.362 251.803 181.869L252.999 182.475C254.178 180.902 255.112 179.117 255.816 177.135C256.488 175.201 256.914 173.17 257.094 171.008L255.8 170.86ZM271.281 170.123V171.302H280.193V170.123H271.281ZM269.954 173.727V174.923H280.177C279.554 176.627 278.686 178.019 277.555 179.1C276.245 180.345 274.492 181.23 272.33 181.754L272.985 182.885C275.442 182.295 277.408 181.214 278.85 179.674C280.062 178.363 281.012 176.561 281.733 174.284L281.012 173.727H269.954ZM286.287 169.976L285.665 171.073C286.975 171.761 288.515 172.777 290.317 174.104L291.136 173.121C289.269 171.728 287.647 170.68 286.287 169.976ZM297.345 172.629C296.329 174.923 294.904 176.872 293.102 178.445C291.202 180.083 288.99 181.214 286.467 181.836L287.057 182.983C289.809 182.278 292.185 181.05 294.15 179.313C295.985 177.675 297.443 175.595 298.524 173.105L297.345 172.629ZM308.78 177.921C309.681 178.527 310.614 179.215 311.565 180.001C312.842 181.033 313.858 181.967 314.612 182.803L315.611 181.967C314.825 181.083 313.76 180.116 312.433 179.051C311.499 178.298 310.549 177.593 309.582 176.938C310.795 175.316 311.86 173.383 312.761 171.155L311.958 170.614H303.046V171.81H311.057C309.156 176.299 305.929 179.641 301.375 181.82L302.161 182.868C304.832 181.525 307.027 179.887 308.747 177.954L308.78 177.921ZM325.096 170.533C322.95 170.533 321.214 171.221 319.887 172.629C318.642 173.924 318.019 175.48 318.019 177.315C318.019 178.494 318.298 179.51 318.887 180.329C319.494 181.181 320.28 181.607 321.23 181.607C322.41 181.607 323.376 180.689 324.097 178.855C324.539 177.79 324.883 176.414 325.129 174.726L325.473 171.679C326.718 171.745 327.799 172.187 328.717 172.99C329.732 173.874 330.24 174.988 330.24 176.365C330.24 177.773 329.831 178.904 329.044 179.723C328.176 180.608 326.767 181.246 324.818 181.623L325.227 182.737C327.308 182.311 328.848 181.623 329.831 180.673C330.912 179.625 331.469 178.199 331.469 176.365C331.469 174.726 330.863 173.35 329.683 172.236C328.455 171.09 326.931 170.533 325.096 170.533ZM321.23 180.476C320.673 180.476 320.198 180.182 319.838 179.592C319.444 178.986 319.248 178.232 319.248 177.315C319.248 175.693 319.805 174.333 320.952 173.252C321.869 172.367 322.983 171.843 324.277 171.712C324.146 173.449 323.9 175.054 323.573 176.512C322.967 179.15 322.18 180.476 321.23 180.476ZM341.888 179.15C341.396 179.281 340.905 179.395 340.397 179.51V170.369H341.659V171.286H342.314C342.543 174.038 343.264 176.578 344.476 178.904C343.592 180.378 342.494 181.623 341.167 182.672L341.97 183.589C343.198 182.623 344.247 181.443 345.132 180.067C345.885 181.296 346.802 182.475 347.9 183.605L348.686 182.704C347.523 181.574 346.54 180.329 345.754 178.986C346.884 176.84 347.638 174.251 347.998 171.221V170.139H341.659V169.255H333.861V170.369H335.155V180.509C334.663 180.575 334.172 180.657 333.68 180.722L333.959 181.869C335.794 181.607 337.547 181.296 339.25 180.935V183.638H340.397V180.673C340.889 180.558 341.38 180.444 341.888 180.313V179.15ZM343.395 171.286H346.884C346.59 173.727 345.983 175.873 345.099 177.741C344.165 175.791 343.592 173.645 343.395 171.286ZM339.25 179.772C338.284 179.969 337.301 180.165 336.302 180.329V177.544H339.25V179.772ZM336.302 176.479V173.989H339.25V176.479H336.302ZM336.302 172.908V170.369H339.25V172.908H336.302ZM359.826 171.352C358.467 171.352 356.828 172.171 354.928 173.842L354.895 173.874C354.895 173.678 354.912 173.465 354.912 173.268L355.485 172.072L354.961 171.63C354.977 170.483 354.994 169.582 355.026 168.943L353.83 168.927L353.765 171.679L350.783 171.859L350.849 172.99L353.732 172.81L353.667 175.021C352.553 176.135 351.373 177.479 350.144 179.084L351.127 179.854C352.012 178.691 352.847 177.692 353.617 176.84C353.568 179.199 353.552 181.263 353.552 183.032H354.748C354.748 181.099 354.781 178.609 354.862 175.529C355.026 175.349 355.207 175.185 355.37 175.038C357.172 173.334 358.663 172.498 359.826 172.498C360.727 172.498 361.186 172.957 361.186 173.874C361.186 174.366 361.088 175.365 360.907 176.84C360.678 178.56 360.58 179.608 360.58 179.969C360.58 181.509 361.252 182.278 362.611 182.278C363.201 182.278 363.742 182.098 364.233 181.738C364.577 181.443 364.97 180.968 365.413 180.313L364.413 179.592C363.823 180.608 363.217 181.115 362.628 181.115C362.103 181.115 361.841 180.722 361.841 179.969C361.841 179.51 361.94 178.461 362.153 176.84C362.316 175.431 362.415 174.431 362.415 173.874C362.415 173.088 362.185 172.482 361.759 172.04C361.301 171.581 360.662 171.352 359.826 171.352ZM380.238 173.842C377.879 173.842 375.52 173.94 373.129 174.137L373.194 175.316C375.586 175.103 377.928 175.005 380.238 175.005V173.842ZM375.438 171.171C374.292 171.319 373.063 171.434 371.72 171.515C371.867 170.68 372.015 169.828 372.146 168.976L370.884 168.812C370.753 169.746 370.606 170.664 370.442 171.581C369.344 171.614 368.198 171.647 366.985 171.647L367.034 172.81C368.165 172.793 369.23 172.761 370.229 172.728C370.016 173.776 369.787 174.825 369.557 175.84C368.935 178.363 368.247 180.526 367.493 182.344L368.689 182.754C369.443 180.902 370.131 178.691 370.753 176.119C371.015 175.005 371.277 173.842 371.507 172.662C373.079 172.564 374.455 172.449 375.635 172.302L375.438 171.171ZM373.391 177.741C372.735 178.625 372.424 179.461 372.424 180.28C372.424 181.836 373.98 182.623 377.109 182.623C378.387 182.623 379.501 182.524 380.451 182.36L380.419 181.197C379.436 181.394 378.322 181.492 377.109 181.492C376.028 181.492 375.209 181.377 374.619 181.165C373.98 180.935 373.669 180.591 373.669 180.165C373.669 179.641 373.931 179.035 374.455 178.314L373.391 177.741ZM396.506 168.092L395.85 168.599C396.506 169.238 397.079 169.976 397.571 170.795L398.275 170.287C397.816 169.533 397.227 168.796 396.506 168.092ZM394.327 168.108L393.672 168.632C394.327 169.287 394.9 170.008 395.392 170.827L396.08 170.336C395.621 169.533 395.031 168.796 394.327 168.108ZM388.904 169.009C388.479 170.287 387.84 171.548 386.971 172.793C386.087 174.006 385.071 175.087 383.924 176.037L384.793 176.889C385.972 175.955 387.004 174.857 387.922 173.596C388.233 173.154 388.528 172.711 388.79 172.253H394.36C393.999 173.924 393.344 175.431 392.427 176.807C391.968 176.479 391.476 176.152 390.936 175.824C390.084 175.3 389.265 174.841 388.511 174.448L387.758 175.365C388.495 175.726 389.314 176.201 390.199 176.774C390.723 177.118 391.231 177.462 391.689 177.79C391.64 177.855 391.591 177.904 391.542 177.97C390.068 179.674 388.216 180.968 385.988 181.853L386.677 182.95C389.167 181.967 391.231 180.427 392.853 178.347C394.392 176.348 395.359 174.071 395.785 171.499L394.999 171.057H389.429C389.691 170.5 389.904 169.943 390.1 169.386L388.904 169.009ZM411.053 169.14C409.742 170.533 408.055 171.958 405.975 173.432C403.845 174.907 401.83 176.07 399.897 176.889L400.569 177.97C402.452 177.167 404.353 176.119 406.286 174.825V182.819H407.564V173.924C409.3 172.629 410.791 171.319 412.02 169.976L411.053 169.14ZM417.59 171.352V172.548H422.389V180.689H416.476V181.885H429.581V180.689H423.667V172.548H428.467V171.352H417.59ZM438.231 172.924L437.215 173.514C438.067 174.792 438.755 175.955 439.296 176.987L440.328 176.381C440.033 175.824 439.722 175.251 439.361 174.694C439.05 174.186 438.673 173.596 438.231 172.924ZM443.227 173.367C442.834 175.529 442.146 177.266 441.163 178.576C440.115 179.952 438.624 181.017 436.691 181.787L437.379 182.803C439.443 182 441.065 180.82 442.228 179.264C443.293 177.79 444.03 175.889 444.456 173.58L443.227 173.367ZM435.364 173.891L434.332 174.513C435.086 175.595 435.774 176.741 436.413 177.954L437.428 177.331C436.871 176.25 436.183 175.103 435.364 173.891ZM452.827 169.222V183.016H454.122V175.66C455.252 175.857 456.464 176.184 457.758 176.61C458.938 177.003 460.052 177.446 461.068 177.937L461.625 176.856C460.511 176.315 459.315 175.84 458.037 175.431C456.661 174.972 455.35 174.628 454.122 174.415V169.222H452.827Z" fill="#00CFC3"/>
<path d="M80.7554 19.1695V28.0158H81.9186V17.2692C82.5575 16.0569 83.0817 14.7627 83.5076 13.403L82.4428 12.9115C81.6892 15.6146 80.4605 18.0064 78.7568 20.1033L79.1008 21.2828C79.6906 20.6111 80.2476 19.9067 80.7554 19.1695ZM83.2291 15.7784V16.9252H86.4236C85.6373 19.9395 84.3431 22.3968 82.5083 24.2971L83.1144 25.3128C85.1294 23.134 86.5547 20.3326 87.3738 16.9252H87.5704V23.4944H85.0639V24.6247H87.5704V27.9994H88.7335V24.6247H91.2727V23.4944H88.7335V16.9252H88.9301C89.6837 19.9558 91.0761 22.6916 93.0748 25.1162L93.8447 24.1497C91.9444 22.0364 90.6174 19.6282 89.8639 16.9252H93.2058V15.7784H88.7335V12.9607H87.5704V15.7784H83.2291ZM97.0228 17.7934V23.2323H102.085V24.3626H96.2693V25.3128H102.085V26.5414H95.4502V27.5735H109.932V26.5414H103.264V25.3128H109.129V24.3626H103.264V23.2323H108.343V17.7934H103.264V16.7449H109.703V15.7293H103.264V14.4842C105.083 14.3695 106.787 14.2385 108.359 14.0747L107.999 13.0917C104.739 13.4521 100.971 13.6979 96.7116 13.8289L96.9082 14.7955C98.7102 14.73 100.43 14.648 102.085 14.5497V15.7293H95.6795V16.7449H102.085V17.7934H97.0228ZM107.196 22.2821H103.264V20.9551H107.196V22.2821ZM102.085 22.2821H98.1532V20.9551H102.085V22.2821ZM98.1532 20.0377V18.7436H102.085V20.0377H98.1532ZM103.264 18.7436H107.196V20.0377H103.264V18.7436Z" fill="black"/>
<path d="M90.6643 94.5897V217.825H358.196V196.424C358.196 196.424 300.082 204.794 248.74 186.625C213.491 173.594 197.058 157.806 170.179 134.466C120.265 96.1207 90.6643 94.5897 90.6643 94.5897Z" fill="#ADEEEA"/>
<path d="M358.196 217.825H90.6643V35.6895" stroke="#C5C5C5" stroke-width="0.680481" stroke-miterlimit="10"/>
<path d="M358.196 196.424C358.196 196.424 300.082 204.794 248.74 186.625C213.491 173.594 197.058 157.806 170.179 134.466C120.265 96.1207 90.6643 94.5897 90.6643 94.5897" stroke="#00CFC3" stroke-width="0.680481" stroke-miterlimit="10"/>
<g filter="url(#filter0_d)">
<path fill-rule="evenodd" clip-rule="evenodd" d="M358.763 203.927C363.346 203.927 367.062 200.212 367.062 195.629C367.062 191.045 363.346 187.33 358.763 187.33C354.18 187.33 350.464 191.045 350.464 195.629C350.464 200.212 354.18 203.927 358.763 203.927Z" fill="#00CFC3"/>
<path d="M365.238 195.629C365.238 199.205 362.339 202.104 358.763 202.104C355.187 202.104 352.288 199.205 352.288 195.629C352.288 192.052 355.187 189.153 358.763 189.153C362.339 189.153 365.238 192.052 365.238 195.629Z" stroke="white" stroke-width="3.64713"/>
</g>
<path d="M357.548 94.216V39.6073C357.548 39.6073 329.444 37.4298 304.981 57.7081C291.167 69.1742 282.048 81.8652 274.971 94.216H357.548Z" fill="#FFBAAB"/>
<path d="M357.65 39.0628C357.65 39.0628 329.546 36.8852 305.083 57.1636C257.449 96.7676 265.479 150.832 222.336 154.711C199.812 156.65 176.302 138.277 169.633 133.888C119.72 95.5768 90.0848 94.0457 90.0848 94.0457" stroke="#EC3B15" stroke-width="0.680481" stroke-miterlimit="10"/>
<path d="M358.365 43.35C360.771 43.35 362.72 41.4002 362.72 38.9949C362.72 36.5897 360.771 34.6398 358.365 34.6398C355.96 34.6398 354.01 36.5897 354.01 38.9949C354.01 41.4002 355.96 43.35 358.365 43.35Z" fill="#EC3B15"/>
<path d="M89.6769 94.2164H91.3781" stroke="#EC3B15" stroke-width="0.680481" stroke-miterlimit="10"/>
<path d="M94.813 94.2164H354.11" stroke="#EC3B15" stroke-width="0.680481" stroke-miterlimit="10" stroke-dasharray="3.43 3.43"/>
<path d="M355.846 94.2164H357.548" stroke="#EC3B15" stroke-width="0.680481" stroke-miterlimit="10"/>
<path d="M169.361 137.359C171.766 137.359 173.716 135.409 173.716 133.004C173.716 130.598 171.766 128.648 169.361 128.648C166.956 128.648 165.006 130.598 165.006 133.004C165.006 135.409 166.956 137.359 169.361 137.359Z" fill="#EC3B15"/>
<path d="M169.26 216.805V215.104" stroke="#EC3B15" stroke-width="0.680481" stroke-miterlimit="10"/>
<path d="M169.26 211.633V136.916" stroke="#EC3B15" stroke-width="0.680481" stroke-miterlimit="10" stroke-dasharray="3.47 3.47"/>
<path d="M169.26 135.181V133.48" stroke="#EC3B15" stroke-width="0.680481" stroke-miterlimit="10"/>
<g filter="url(#filter1_d)">
<path fill-rule="evenodd" clip-rule="evenodd" d="M90.7987 103.295C95.382 103.295 99.0976 99.5792 99.0976 94.9959C99.0976 90.4126 95.382 86.697 90.7987 86.697C86.2154 86.697 82.4999 90.4126 82.4999 94.9959C82.4999 99.5792 86.2154 103.295 90.7987 103.295Z" fill="#00CFC3"/>
<path d="M97.274 94.9959C97.274 98.5721 94.3749 101.471 90.7987 101.471C87.2225 101.471 84.3234 98.5721 84.3234 94.9959C84.3234 91.4197 87.2225 88.5206 90.7987 88.5206C94.3749 88.5206 97.274 91.4197 97.274 94.9959Z" stroke="white" stroke-width="3.64713"/>
</g>
<defs>
<filter id="filter0_d" x="340.738" y="182.467" width="36.0491" height="36.0491" filterUnits="userSpaceOnUse" color-interpolation-filters="sRGB">
<feFlood flood-opacity="0" result="BackgroundImageFix"/>
<feColorMatrix in="SourceAlpha" type="matrix" values="0 0 0 0 0 0 0 0 0 0 0 0 0 0 0 0 0 0 127 0"/>
<feOffset dy="4.86284"/>
<feGaussianBlur stdDeviation="4.86284"/>
<feColorMatrix type="matrix" values="0 0 0 0 0 0 0 0 0 0 0 0 0 0 0 0 0 0 0.16 0"/>
<feBlend mode="normal" in2="BackgroundImageFix" result="effect1_dropShadow"/>
<feBlend mode="normal" in="SourceGraphic" in2="effect1_dropShadow" result="shape"/>
</filter>
<filter id="filter1_d" x="72.7742" y="81.8342" width="36.0491" height="36.0491" filterUnits="userSpaceOnUse" color-interpolation-filters="sRGB">
<feFlood flood-opacity="0" result="BackgroundImageFix"/>
<feColorMatrix in="SourceAlpha" type="matrix" values="0 0 0 0 0 0 0 0 0 0 0 0 0 0 0 0 0 0 127 0"/>
<feOffset dy="4.86284"/>
<feGaussianBlur stdDeviation="4.86284"/>
<feColorMatrix type="matrix" values="0 0 0 0 0 0 0 0 0 0 0 0 0 0 0 0 0 0 0.16 0"/>
<feBlend mode="normal" in2="BackgroundImageFix" result="effect1_dropShadow"/>
<feBlend mode="normal" in="SourceGraphic" in2="effect1_dropShadow" result="shape"/>
</filter>
</defs>
</svg>
