<svg width="468" height="259" viewBox="0 0 468 259" fill="none" xmlns="http://www.w3.org/2000/svg">
<path d="M0 7.02088C0 3.14335 3.14336 0 7.0209 0H460.979C464.857 0 468 3.14336 468 7.0209V251.979C468 255.857 464.857 259 460.979 259H7.02091C3.14338 259 0 255.857 0 251.979V7.02088Z" fill="#F8F8F8"/>
<path d="M341.64 231.585H344.904C346.333 231.585 347.41 231.798 348.136 232.225C348.872 232.641 349.24 233.372 349.24 234.417C349.24 235.089 349.053 235.649 348.68 236.097C348.306 236.534 347.768 236.817 347.064 236.945V237.025C347.544 237.1 347.976 237.238 348.36 237.441C348.754 237.644 349.064 237.932 349.288 238.305C349.512 238.678 349.624 239.164 349.624 239.761C349.624 240.796 349.266 241.596 348.552 242.161C347.848 242.726 346.882 243.009 345.656 243.009H341.64V231.585ZM343.08 236.449H345.192C346.173 236.449 346.845 236.294 347.208 235.985C347.57 235.665 347.752 235.196 347.752 234.577C347.752 233.948 347.528 233.5 347.08 233.233C346.642 232.956 345.938 232.817 344.968 232.817H343.08V236.449ZM343.08 237.649V241.793H345.384C346.397 241.793 347.101 241.596 347.496 241.201C347.89 240.806 348.088 240.289 348.088 239.649C348.088 239.052 347.88 238.572 347.464 238.209C347.058 237.836 346.328 237.649 345.272 237.649H343.08ZM355.934 234.273C356.99 234.273 357.838 234.641 358.478 235.377C359.129 236.113 359.454 237.222 359.454 238.705C359.454 240.166 359.129 241.276 358.478 242.033C357.838 242.79 356.985 243.169 355.918 243.169C355.257 243.169 354.707 243.046 354.27 242.801C353.843 242.545 353.507 242.252 353.262 241.921H353.166C353.187 242.102 353.209 242.332 353.23 242.609C353.251 242.886 353.262 243.126 353.262 243.329V246.849H351.854V234.433H353.006L353.198 235.601H353.262C353.518 235.228 353.854 234.913 354.27 234.657C354.686 234.401 355.241 234.273 355.934 234.273ZM355.678 235.457C354.803 235.457 354.185 235.702 353.822 236.193C353.47 236.684 353.283 237.43 353.262 238.433V238.705C353.262 239.761 353.433 240.577 353.774 241.153C354.126 241.718 354.771 242.001 355.71 242.001C356.233 242.001 356.659 241.857 356.99 241.569C357.331 241.281 357.582 240.892 357.742 240.401C357.913 239.9 357.998 239.329 357.998 238.689C357.998 237.708 357.806 236.924 357.422 236.337C357.049 235.75 356.467 235.457 355.678 235.457ZM365.01 234.273C365.746 234.273 366.375 234.433 366.898 234.753C367.431 235.073 367.836 235.526 368.114 236.113C368.402 236.689 368.546 237.366 368.546 238.145V238.993H362.674C362.695 239.964 362.94 240.705 363.41 241.217C363.89 241.718 364.556 241.969 365.41 241.969C365.954 241.969 366.434 241.921 366.85 241.825C367.276 241.718 367.714 241.569 368.162 241.377V242.609C367.724 242.801 367.292 242.94 366.866 243.025C366.439 243.121 365.932 243.169 365.346 243.169C364.535 243.169 363.815 243.004 363.186 242.673C362.567 242.342 362.082 241.852 361.73 241.201C361.388 240.54 361.218 239.734 361.218 238.785C361.218 237.846 361.372 237.041 361.682 236.369C362.002 235.697 362.444 235.18 363.01 234.817C363.586 234.454 364.252 234.273 365.01 234.273ZM364.994 235.425C364.322 235.425 363.788 235.644 363.394 236.081C363.01 236.508 362.78 237.105 362.706 237.873H367.074C367.063 237.148 366.892 236.561 366.562 236.113C366.231 235.654 365.708 235.425 364.994 235.425ZM379.929 234.433V243.009H378.665V237.537C378.665 237.313 378.67 237.078 378.681 236.833C378.702 236.588 378.724 236.348 378.745 236.113H378.697L375.897 243.009H374.713L371.993 236.113H371.945C371.977 236.593 371.993 237.084 371.993 237.585V243.009H370.729V234.433H372.601L375.305 241.329L378.057 234.433H379.929ZM383.194 243.009H381.562L384.01 239.409C383.68 239.324 383.36 239.19 383.05 239.009C382.741 238.817 382.49 238.556 382.298 238.225C382.106 237.884 382.01 237.462 382.01 236.961C382.01 236.14 382.288 235.516 382.842 235.089C383.397 234.652 384.133 234.433 385.05 234.433H388.89V243.009H387.482V239.601H385.402L383.194 243.009ZM383.37 236.977C383.37 237.468 383.552 237.836 383.914 238.081C384.288 238.316 384.805 238.433 385.466 238.433H387.482V235.601H385.194C384.544 235.601 384.074 235.729 383.786 235.985C383.509 236.241 383.37 236.572 383.37 236.977Z" fill="black"/>
<path d="M307.119 19.4892L302.687 13.9372H304.287L308.655 19.4732V13.9372H310.031V19.4732L314.399 13.9372H315.999L311.567 19.4732L316.143 25.3612H314.495L310.031 19.5692V25.3612H308.655V19.5692L304.175 25.3612H302.527L307.119 19.4892ZM320.84 16.6252C321.576 16.6252 322.205 16.7852 322.728 17.1052C323.261 17.4252 323.666 17.8785 323.944 18.4652C324.232 19.0412 324.376 19.7185 324.376 20.4972V21.3452H318.504C318.525 22.3159 318.77 23.0572 319.24 23.5692C319.72 24.0705 320.386 24.3212 321.24 24.3212C321.784 24.3212 322.264 24.2732 322.68 24.1772C323.106 24.0705 323.544 23.9212 323.992 23.7292V24.9612C323.554 25.1532 323.122 25.2919 322.696 25.3772C322.269 25.4732 321.762 25.5212 321.176 25.5212C320.365 25.5212 319.645 25.3559 319.016 25.0252C318.397 24.6945 317.912 24.2039 317.56 23.5532C317.218 22.8919 317.048 22.0865 317.048 21.1372C317.048 20.1985 317.202 19.3932 317.512 18.7212C317.832 18.0492 318.274 17.5319 318.84 17.1692C319.416 16.8065 320.082 16.6252 320.84 16.6252ZM320.824 17.7772C320.152 17.7772 319.618 17.9959 319.224 18.4332C318.84 18.8599 318.61 19.4572 318.536 20.2252H322.904C322.893 19.4999 322.722 18.9132 322.392 18.4652C322.061 18.0065 321.538 17.7772 320.824 17.7772ZM329.999 25.5212C329.242 25.5212 328.564 25.3665 327.967 25.0572C327.38 24.7479 326.916 24.2679 326.575 23.6172C326.244 22.9665 326.079 22.1345 326.079 21.1212C326.079 20.0652 326.255 19.2065 326.607 18.5452C326.959 17.8839 327.434 17.3985 328.031 17.0892C328.639 16.7799 329.327 16.6252 330.095 16.6252C330.532 16.6252 330.954 16.6732 331.359 16.7692C331.764 16.8545 332.095 16.9612 332.351 17.0892L331.919 18.2572C331.663 18.1612 331.364 18.0705 331.023 17.9852C330.682 17.8999 330.362 17.8572 330.063 17.8572C328.378 17.8572 327.535 18.9399 327.535 21.1052C327.535 22.1399 327.738 22.9345 328.143 23.4892C328.559 24.0332 329.172 24.3052 329.983 24.3052C330.452 24.3052 330.863 24.2572 331.215 24.1612C331.578 24.0652 331.908 23.9479 332.207 23.8092V25.0572C331.919 25.2065 331.599 25.3185 331.247 25.3932C330.906 25.4785 330.49 25.5212 329.999 25.5212ZM340.166 17.9692H337.366V25.3612H335.974V17.9692H333.206V16.7852H340.166V17.9692ZM346.928 16.7852H348.464L344.8 20.9132L348.768 25.3612H347.136L343.264 21.0092V25.3612H341.856V16.7852H343.264V20.9452L346.928 16.7852ZM353.573 16.6412C354.618 16.6412 355.391 16.8705 355.893 17.3292C356.394 17.7879 356.645 18.5185 356.645 19.5212V25.3612H355.621L355.349 24.1452H355.285C354.911 24.6145 354.517 24.9612 354.101 25.1852C353.695 25.4092 353.13 25.5212 352.405 25.5212C351.626 25.5212 350.981 25.3185 350.469 24.9132C349.957 24.4972 349.701 23.8519 349.701 22.9772C349.701 22.1239 350.037 21.4679 350.709 21.0092C351.381 20.5399 352.415 20.2839 353.813 20.2412L355.269 20.1932V19.6812C355.269 18.9665 355.114 18.4705 354.805 18.1932C354.495 17.9159 354.058 17.7772 353.493 17.7772C353.045 17.7772 352.618 17.8465 352.213 17.9852C351.807 18.1132 351.429 18.2625 351.077 18.4332L350.645 17.3772C351.018 17.1745 351.461 17.0039 351.973 16.8652C352.485 16.7159 353.018 16.6412 353.573 16.6412ZM355.253 21.1692L353.989 21.2172C352.922 21.2599 352.181 21.4305 351.765 21.7292C351.359 22.0279 351.157 22.4492 351.157 22.9932C351.157 23.4732 351.301 23.8252 351.589 24.0492C351.887 24.2732 352.266 24.3852 352.725 24.3852C353.45 24.3852 354.053 24.1879 354.533 23.7932C355.013 23.3879 355.253 22.7692 355.253 21.9372V21.1692ZM359.821 25.3612H358.189L360.637 21.7612C360.307 21.6759 359.987 21.5425 359.677 21.3612C359.368 21.1692 359.117 20.9079 358.925 20.5772C358.733 20.2359 358.637 19.8145 358.637 19.3132C358.637 18.4919 358.915 17.8679 359.469 17.4412C360.024 17.0039 360.76 16.7852 361.677 16.7852H365.517V25.3612H364.109V21.9532H362.029L359.821 25.3612ZM359.997 19.3292C359.997 19.8199 360.179 20.1879 360.541 20.4332C360.915 20.6679 361.432 20.7852 362.093 20.7852H364.109V17.9532H361.821C361.171 17.9532 360.701 18.0812 360.413 18.3372C360.136 18.5932 359.997 18.9239 359.997 19.3292ZM378.724 16.7852V24.1772H379.972V28.3372H378.612V25.3612H372.644V28.3372H371.3V24.1772H371.988C372.724 23.1639 373.273 22.0119 373.636 20.7212C374.009 19.4199 374.201 18.1079 374.212 16.7852H378.724ZM377.364 17.8892H375.46C375.417 18.6145 375.305 19.3665 375.124 20.1452C374.943 20.9132 374.708 21.6492 374.42 22.3532C374.143 23.0572 373.817 23.6652 373.444 24.1772H377.364V17.8892ZM382.981 16.7852V22.0172C382.981 22.1452 382.975 22.3372 382.965 22.5932C382.954 22.8492 382.938 23.1052 382.917 23.3612C382.906 23.6172 382.895 23.8199 382.885 23.9692L387.477 16.7852H389.205V25.3612H387.893V20.3052C387.893 20.1345 387.893 19.9105 387.893 19.6332C387.903 19.3559 387.914 19.0839 387.925 18.8172C387.935 18.5399 387.946 18.3319 387.957 18.1932L383.397 25.3612H381.653V16.7852H382.981ZM395.246 16.6252C395.982 16.6252 396.611 16.7852 397.134 17.1052C397.667 17.4252 398.073 17.8785 398.35 18.4652C398.638 19.0412 398.782 19.7185 398.782 20.4972V21.3452H392.91C392.931 22.3159 393.177 23.0572 393.646 23.5692C394.126 24.0705 394.793 24.3212 395.646 24.3212C396.19 24.3212 396.67 24.2732 397.086 24.1772C397.513 24.0705 397.95 23.9212 398.398 23.7292V24.9612C397.961 25.1532 397.529 25.2919 397.102 25.3772C396.675 25.4732 396.169 25.5212 395.582 25.5212C394.771 25.5212 394.051 25.3559 393.422 25.0252C392.803 24.6945 392.318 24.2039 391.966 23.5532C391.625 22.8919 391.454 22.0865 391.454 21.1372C391.454 20.1985 391.609 19.3932 391.918 18.7212C392.238 18.0492 392.681 17.5319 393.246 17.1692C393.822 16.8065 394.489 16.6252 395.246 16.6252ZM395.23 17.7772C394.558 17.7772 394.025 17.9959 393.63 18.4332C393.246 18.8599 393.017 19.4572 392.942 20.2252H397.31C397.299 19.4999 397.129 18.9132 396.798 18.4652C396.467 18.0065 395.945 17.7772 395.23 17.7772ZM406.885 17.9692H404.085V25.3612H402.693V17.9692H399.925V16.7852H406.885V17.9692ZM411.823 16.6412C412.868 16.6412 413.641 16.8705 414.143 17.3292C414.644 17.7879 414.895 18.5185 414.895 19.5212V25.3612H413.871L413.599 24.1452H413.535C413.161 24.6145 412.767 24.9612 412.351 25.1852C411.945 25.4092 411.38 25.5212 410.655 25.5212C409.876 25.5212 409.231 25.3185 408.719 24.9132C408.207 24.4972 407.951 23.8519 407.951 22.9772C407.951 22.1239 408.287 21.4679 408.959 21.0092C409.631 20.5399 410.665 20.2839 412.063 20.2412L413.519 20.1932V19.6812C413.519 18.9665 413.364 18.4705 413.055 18.1932C412.745 17.9159 412.308 17.7772 411.743 17.7772C411.295 17.7772 410.868 17.8465 410.463 17.9852C410.057 18.1132 409.679 18.2625 409.327 18.4332L408.895 17.3772C409.268 17.1745 409.711 17.0039 410.223 16.8652C410.735 16.7159 411.268 16.6412 411.823 16.6412ZM413.503 21.1692L412.239 21.2172C411.172 21.2599 410.431 21.4305 410.015 21.7292C409.609 22.0279 409.407 22.4492 409.407 22.9932C409.407 23.4732 409.551 23.8252 409.839 24.0492C410.137 24.2732 410.516 24.3852 410.975 24.3852C411.7 24.3852 412.303 24.1879 412.783 23.7932C413.263 23.3879 413.503 22.7692 413.503 21.9372V21.1692Z" fill="#EC3B15"/>
<path d="M292.932 146.671C291.706 146.671 290.74 147.082 290.036 147.903C289.332 148.724 288.98 149.85 288.98 151.279C288.98 152.698 289.306 153.823 289.956 154.655C290.618 155.476 291.604 155.887 292.916 155.887C293.418 155.887 293.892 155.844 294.34 155.759C294.788 155.674 295.226 155.567 295.652 155.439V156.687C295.226 156.847 294.783 156.964 294.324 157.039C293.876 157.114 293.338 157.151 292.708 157.151C291.546 157.151 290.575 156.911 289.796 156.431C289.018 155.951 288.431 155.268 288.036 154.383C287.652 153.498 287.46 152.458 287.46 151.263C287.46 150.111 287.668 149.098 288.084 148.223C288.511 147.338 289.135 146.65 289.956 146.159C290.778 145.658 291.775 145.407 292.948 145.407C294.154 145.407 295.204 145.631 296.1 146.079L295.524 147.295C295.172 147.135 294.778 146.991 294.34 146.863C293.914 146.735 293.444 146.671 292.932 146.671ZM297.506 151.839C297.506 149.962 297.788 148.5 298.354 147.455C298.919 146.399 299.831 145.738 301.09 145.471C301.783 145.322 302.46 145.188 303.122 145.071C303.783 144.954 304.402 144.847 304.978 144.751L305.218 145.983C304.844 146.036 304.423 146.106 303.954 146.191C303.484 146.266 303.02 146.346 302.562 146.431C302.103 146.506 301.708 146.58 301.378 146.655C300.684 146.804 300.135 147.167 299.73 147.743C299.324 148.308 299.095 149.194 299.042 150.399H299.138C299.287 150.196 299.49 149.988 299.746 149.775C300.012 149.562 300.327 149.38 300.69 149.231C301.063 149.082 301.484 149.007 301.954 149.007C303.063 149.007 303.9 149.364 304.466 150.079C305.031 150.794 305.314 151.722 305.314 152.863C305.314 153.812 305.148 154.607 304.818 155.247C304.487 155.887 304.028 156.367 303.442 156.687C302.855 156.996 302.172 157.151 301.394 157.151C300.21 157.151 299.266 156.698 298.562 155.791C297.858 154.884 297.506 153.567 297.506 151.839ZM301.506 155.983C302.199 155.983 302.759 155.759 303.186 155.311C303.612 154.863 303.826 154.095 303.826 153.007C303.826 152.132 303.66 151.444 303.33 150.943C303.01 150.431 302.476 150.175 301.73 150.175C301.26 150.175 300.834 150.282 300.45 150.495C300.066 150.698 299.746 150.932 299.49 151.199C299.234 151.466 299.052 151.69 298.946 151.871C298.946 152.394 298.983 152.9 299.058 153.391C299.132 153.882 299.26 154.324 299.442 154.719C299.634 155.103 299.895 155.412 300.226 155.647C300.567 155.871 300.994 155.983 301.506 155.983ZM310.78 148.271C311.825 148.271 312.599 148.5 313.1 148.959C313.601 149.418 313.852 150.148 313.852 151.151V156.991H312.828L312.556 155.775H312.492C312.119 156.244 311.724 156.591 311.308 156.815C310.903 157.039 310.337 157.151 309.612 157.151C308.833 157.151 308.188 156.948 307.676 156.543C307.164 156.127 306.908 155.482 306.908 154.607C306.908 153.754 307.244 153.098 307.916 152.639C308.588 152.17 309.623 151.914 311.02 151.871L312.476 151.823V151.311C312.476 150.596 312.321 150.1 312.012 149.823C311.703 149.546 311.265 149.407 310.7 149.407C310.252 149.407 309.825 149.476 309.42 149.615C309.015 149.743 308.636 149.892 308.284 150.063L307.852 149.007C308.225 148.804 308.668 148.634 309.18 148.495C309.692 148.346 310.225 148.271 310.78 148.271ZM312.46 152.799L311.196 152.847C310.129 152.89 309.388 153.06 308.972 153.359C308.567 153.658 308.364 154.079 308.364 154.623C308.364 155.103 308.508 155.455 308.796 155.679C309.095 155.903 309.473 156.015 309.932 156.015C310.657 156.015 311.26 155.818 311.74 155.423C312.22 155.018 312.46 154.399 312.46 153.567V152.799ZM323.029 156.991H321.605V149.583H319.077C318.938 151.386 318.746 152.842 318.501 153.951C318.255 155.05 317.93 155.85 317.525 156.351C317.119 156.852 316.607 157.103 315.989 157.103C315.85 157.103 315.711 157.092 315.573 157.071C315.445 157.06 315.338 157.034 315.253 156.991V155.935C315.317 155.956 315.386 155.972 315.461 155.983C315.535 155.994 315.61 155.999 315.685 155.999C316.261 155.999 316.719 155.386 317.061 154.159C317.413 152.932 317.679 151.018 317.861 148.415H323.029V156.991ZM328.999 148.271C330.044 148.271 330.817 148.5 331.319 148.959C331.82 149.418 332.071 150.148 332.071 151.151V156.991H331.047L330.775 155.775H330.711C330.337 156.244 329.943 156.591 329.527 156.815C329.121 157.039 328.556 157.151 327.831 157.151C327.052 157.151 326.407 156.948 325.895 156.543C325.383 156.127 325.127 155.482 325.127 154.607C325.127 153.754 325.463 153.098 326.135 152.639C326.807 152.17 327.841 151.914 329.239 151.871L330.695 151.823V151.311C330.695 150.596 330.54 150.1 330.231 149.823C329.921 149.546 329.484 149.407 328.919 149.407C328.471 149.407 328.044 149.476 327.639 149.615C327.233 149.743 326.855 149.892 326.503 150.063L326.071 149.007C326.444 148.804 326.887 148.634 327.399 148.495C327.911 148.346 328.444 148.271 328.999 148.271ZM330.679 152.799L329.415 152.847C328.348 152.89 327.607 153.06 327.191 153.359C326.785 153.658 326.583 154.079 326.583 154.623C326.583 155.103 326.727 155.455 327.015 155.679C327.313 155.903 327.692 156.015 328.151 156.015C328.876 156.015 329.479 155.818 329.959 155.423C330.439 155.018 330.679 154.399 330.679 153.567V152.799ZM336.127 148.415V151.983H340.783V148.415H342.191V156.991H340.783V153.167H336.127V156.991H334.719V148.415H336.127ZM348.347 157.151C347.59 157.151 346.912 156.996 346.315 156.687C345.728 156.378 345.264 155.898 344.923 155.247C344.592 154.596 344.427 153.764 344.427 152.751C344.427 151.695 344.603 150.836 344.955 150.175C345.307 149.514 345.782 149.028 346.379 148.719C346.987 148.41 347.675 148.255 348.443 148.255C348.88 148.255 349.302 148.303 349.707 148.399C350.112 148.484 350.443 148.591 350.699 148.719L350.267 149.887C350.011 149.791 349.712 149.7 349.371 149.615C349.03 149.53 348.71 149.487 348.411 149.487C346.726 149.487 345.883 150.57 345.883 152.735C345.883 153.77 346.086 154.564 346.491 155.119C346.907 155.663 347.52 155.935 348.331 155.935C348.8 155.935 349.211 155.887 349.563 155.791C349.926 155.695 350.256 155.578 350.555 155.439V156.687C350.267 156.836 349.947 156.948 349.595 157.023C349.254 157.108 348.838 157.151 348.347 157.151ZM353.922 148.415V153.647C353.922 153.775 353.917 153.967 353.906 154.223C353.896 154.479 353.88 154.735 353.858 154.991C353.848 155.247 353.837 155.45 353.826 155.599L358.418 148.415H360.146V156.991H358.834V151.935C358.834 151.764 358.834 151.54 358.834 151.263C358.845 150.986 358.856 150.714 358.866 150.447C358.877 150.17 358.888 149.962 358.898 149.823L354.338 156.991H352.594V148.415H353.922ZM366.956 148.255C368.012 148.255 368.86 148.623 369.5 149.359C370.15 150.095 370.476 151.204 370.476 152.687C370.476 154.148 370.15 155.258 369.5 156.015C368.86 156.772 368.006 157.151 366.94 157.151C366.278 157.151 365.729 157.028 365.292 156.783C364.865 156.527 364.529 156.234 364.284 155.903H364.188C364.209 156.084 364.23 156.314 364.252 156.591C364.273 156.868 364.284 157.108 364.284 157.311V160.831H362.876V148.415H364.028L364.22 149.583H364.284C364.54 149.21 364.876 148.895 365.292 148.639C365.708 148.383 366.262 148.255 366.956 148.255ZM366.7 149.439C365.825 149.439 365.206 149.684 364.844 150.175C364.492 150.666 364.305 151.412 364.284 152.415V152.687C364.284 153.743 364.454 154.559 364.796 155.135C365.148 155.7 365.793 155.983 366.732 155.983C367.254 155.983 367.681 155.839 368.012 155.551C368.353 155.263 368.604 154.874 368.764 154.383C368.934 153.882 369.02 153.311 369.02 152.671C369.02 151.69 368.828 150.906 368.444 150.319C368.07 149.732 367.489 149.439 366.7 149.439ZM380.175 152.687C380.175 154.106 379.813 155.204 379.087 155.983C378.373 156.762 377.402 157.151 376.175 157.151C375.418 157.151 374.741 156.98 374.143 156.639C373.557 156.287 373.093 155.78 372.751 155.119C372.41 154.447 372.239 153.636 372.239 152.687C372.239 151.268 372.597 150.175 373.311 149.407C374.026 148.639 374.997 148.255 376.223 148.255C377.002 148.255 377.685 148.431 378.271 148.783C378.869 149.124 379.333 149.626 379.663 150.287C380.005 150.938 380.175 151.738 380.175 152.687ZM373.695 152.687C373.695 153.7 373.893 154.506 374.287 155.103C374.693 155.69 375.333 155.983 376.207 155.983C377.071 155.983 377.706 155.69 378.111 155.103C378.517 154.506 378.719 153.7 378.719 152.687C378.719 151.674 378.517 150.879 378.111 150.303C377.706 149.727 377.066 149.439 376.191 149.439C375.317 149.439 374.682 149.727 374.287 150.303C373.893 150.879 373.695 151.674 373.695 152.687ZM389.303 150.575C389.303 151.108 389.143 151.524 388.823 151.823C388.503 152.122 388.092 152.324 387.591 152.431V152.495C388.124 152.57 388.588 152.762 388.983 153.071C389.378 153.37 389.575 153.839 389.575 154.479C389.575 155.204 389.303 155.807 388.759 156.287C388.226 156.756 387.34 156.991 386.103 156.991H382.407V148.415H386.087C386.695 148.415 387.239 148.484 387.719 148.623C388.21 148.751 388.594 148.975 388.871 149.295C389.159 149.604 389.303 150.031 389.303 150.575ZM387.879 150.751C387.879 150.346 387.73 150.052 387.431 149.871C387.143 149.679 386.668 149.583 386.007 149.583H383.815V151.935H385.751C387.17 151.935 387.879 151.54 387.879 150.751ZM388.119 154.479C388.119 153.988 387.932 153.636 387.559 153.423C387.186 153.21 386.636 153.103 385.911 153.103H383.815V155.855H385.943C386.647 155.855 387.186 155.754 387.559 155.551C387.932 155.338 388.119 154.98 388.119 154.479ZM394.874 148.271C395.919 148.271 396.692 148.5 397.194 148.959C397.695 149.418 397.946 150.148 397.946 151.151V156.991H396.922L396.65 155.775H396.586C396.212 156.244 395.818 156.591 395.402 156.815C394.996 157.039 394.431 157.151 393.706 157.151C392.927 157.151 392.282 156.948 391.77 156.543C391.258 156.127 391.002 155.482 391.002 154.607C391.002 153.754 391.338 153.098 392.01 152.639C392.682 152.17 393.716 151.914 395.114 151.871L396.57 151.823V151.311C396.57 150.596 396.415 150.1 396.106 149.823C395.796 149.546 395.359 149.407 394.794 149.407C394.346 149.407 393.919 149.476 393.514 149.615C393.108 149.743 392.73 149.892 392.378 150.063L391.946 149.007C392.319 148.804 392.762 148.634 393.274 148.495C393.786 148.346 394.319 148.271 394.874 148.271ZM396.554 152.799L395.29 152.847C394.223 152.89 393.482 153.06 393.066 153.359C392.66 153.658 392.458 154.079 392.458 154.623C392.458 155.103 392.602 155.455 392.89 155.679C393.188 155.903 393.567 156.015 394.026 156.015C394.751 156.015 395.354 155.818 395.834 155.423C396.314 155.018 396.554 154.399 396.554 153.567V152.799ZM402.002 148.415V151.983H406.658V148.415H408.066V156.991H406.658V153.167H402.002V156.991H400.594V148.415H402.002ZM412.19 148.415V151.983H416.846V148.415H418.254V156.991H416.846V153.167H412.19V156.991H410.782V148.415H412.19ZM424.217 148.271C425.263 148.271 426.036 148.5 426.537 148.959C427.039 149.418 427.289 150.148 427.289 151.151V156.991H426.265L425.993 155.775H425.929C425.556 156.244 425.161 156.591 424.745 156.815C424.34 157.039 423.775 157.151 423.049 157.151C422.271 157.151 421.625 156.948 421.113 156.543C420.601 156.127 420.345 155.482 420.345 154.607C420.345 153.754 420.681 153.098 421.353 152.639C422.025 152.17 423.06 151.914 424.457 151.871L425.913 151.823V151.311C425.913 150.596 425.759 150.1 425.449 149.823C425.14 149.546 424.703 149.407 424.137 149.407C423.689 149.407 423.263 149.476 422.857 149.615C422.452 149.743 422.073 149.892 421.721 150.063L421.289 149.007C421.663 148.804 422.105 148.634 422.617 148.495C423.129 148.346 423.663 148.271 424.217 148.271ZM425.897 152.799L424.633 152.847C423.567 152.89 422.825 153.06 422.409 153.359C422.004 153.658 421.801 154.079 421.801 154.623C421.801 155.103 421.945 155.455 422.233 155.679C422.532 155.903 422.911 156.015 423.369 156.015C424.095 156.015 424.697 155.818 425.177 155.423C425.657 155.018 425.897 154.399 425.897 153.567V152.799ZM430.466 156.991H428.834L431.282 153.391C430.951 153.306 430.631 153.172 430.322 152.991C430.013 152.799 429.762 152.538 429.57 152.207C429.378 151.866 429.282 151.444 429.282 150.943C429.282 150.122 429.559 149.498 430.114 149.071C430.669 148.634 431.405 148.415 432.322 148.415H436.162V156.991H434.754V153.583H432.674L430.466 156.991ZM430.642 150.959C430.642 151.45 430.823 151.818 431.186 152.063C431.559 152.298 432.077 152.415 432.738 152.415H434.754V149.583H432.466C431.815 149.583 431.346 149.711 431.058 149.967C430.781 150.223 430.642 150.554 430.642 150.959ZM347.134 170.415V177.807H348.382V181.967H347.022V178.991H341.054V181.967H339.71V177.807H340.398C341.134 176.794 341.684 175.642 342.046 174.351C342.42 173.05 342.612 171.738 342.622 170.415H347.134ZM345.774 171.519H343.87C343.828 172.244 343.716 172.996 343.534 173.775C343.353 174.543 343.118 175.279 342.83 175.983C342.553 176.687 342.228 177.295 341.854 177.807H345.774V171.519ZM351.391 170.415V175.647C351.391 175.775 351.386 175.967 351.375 176.223C351.364 176.479 351.348 176.735 351.327 176.991C351.316 177.247 351.306 177.45 351.295 177.599L355.887 170.415H357.615V178.991H356.303V173.935C356.303 173.764 356.303 173.54 356.303 173.263C356.314 172.986 356.324 172.714 356.335 172.447C356.346 172.17 356.356 171.962 356.367 171.823L351.807 178.991H350.063V170.415H351.391ZM363.656 170.255C364.392 170.255 365.022 170.415 365.544 170.735C366.078 171.055 366.483 171.508 366.76 172.095C367.048 172.671 367.192 173.348 367.192 174.127V174.975H361.32C361.342 175.946 361.587 176.687 362.056 177.199C362.536 177.7 363.203 177.951 364.056 177.951C364.6 177.951 365.08 177.903 365.496 177.807C365.923 177.7 366.36 177.551 366.808 177.359V178.591C366.371 178.783 365.939 178.922 365.512 179.007C365.086 179.103 364.579 179.151 363.992 179.151C363.182 179.151 362.462 178.986 361.832 178.655C361.214 178.324 360.728 177.834 360.376 177.183C360.035 176.522 359.864 175.716 359.864 174.767C359.864 173.828 360.019 173.023 360.328 172.351C360.648 171.679 361.091 171.162 361.656 170.799C362.232 170.436 362.899 170.255 363.656 170.255ZM363.64 171.407C362.968 171.407 362.435 171.626 362.04 172.063C361.656 172.49 361.427 173.087 361.352 173.855H365.72C365.71 173.13 365.539 172.543 365.208 172.095C364.878 171.636 364.355 171.407 363.64 171.407ZM375.296 171.599H372.496V178.991H371.104V171.599H368.336V170.415H375.296V171.599ZM380.233 170.271C381.278 170.271 382.052 170.5 382.553 170.959C383.054 171.418 383.305 172.148 383.305 173.151V178.991H382.281L382.009 177.775H381.945C381.572 178.244 381.177 178.591 380.761 178.815C380.356 179.039 379.79 179.151 379.065 179.151C378.286 179.151 377.641 178.948 377.129 178.543C376.617 178.127 376.361 177.482 376.361 176.607C376.361 175.754 376.697 175.098 377.369 174.639C378.041 174.17 379.076 173.914 380.473 173.871L381.929 173.823V173.311C381.929 172.596 381.774 172.1 381.465 171.823C381.156 171.546 380.718 171.407 380.153 171.407C379.705 171.407 379.278 171.476 378.873 171.615C378.468 171.743 378.089 171.892 377.737 172.063L377.305 171.007C377.678 170.804 378.121 170.634 378.633 170.495C379.145 170.346 379.678 170.271 380.233 170.271ZM381.913 174.799L380.649 174.847C379.582 174.89 378.841 175.06 378.425 175.359C378.02 175.658 377.817 176.079 377.817 176.623C377.817 177.103 377.961 177.455 378.249 177.679C378.548 177.903 378.926 178.015 379.385 178.015C380.11 178.015 380.713 177.818 381.193 177.423C381.673 177.018 381.913 176.399 381.913 175.567V174.799Z" fill="#00CFC3"/>
<path d="M82.488 13.9372H85.752C87.1814 13.9372 88.2587 14.1505 88.984 14.5772C89.72 14.9932 90.088 15.7239 90.088 16.7692C90.088 17.4412 89.9014 18.0012 89.528 18.4492C89.1547 18.8865 88.616 19.1692 87.912 19.2972V19.3772C88.392 19.4519 88.824 19.5905 89.208 19.7932C89.6027 19.9959 89.912 20.2839 90.136 20.6572C90.36 21.0305 90.472 21.5159 90.472 22.1132C90.472 23.1479 90.1147 23.9479 89.4 24.5132C88.696 25.0785 87.7307 25.3612 86.504 25.3612H82.488V13.9372ZM83.928 18.8012H86.04C87.0214 18.8012 87.6934 18.6465 88.056 18.3372C88.4187 18.0172 88.6 17.5479 88.6 16.9292C88.6 16.2999 88.376 15.8519 87.928 15.5852C87.4907 15.3079 86.7867 15.1692 85.816 15.1692H83.928V18.8012ZM83.928 20.0012V24.1452H86.232C87.2454 24.1452 87.9494 23.9479 88.344 23.5532C88.7387 23.1585 88.936 22.6412 88.936 22.0012C88.936 21.4039 88.728 20.9239 88.312 20.5612C87.9067 20.1879 87.176 20.0012 86.12 20.0012H83.928ZM96.0143 16.6252C96.7503 16.6252 97.3796 16.7852 97.9023 17.1052C98.4356 17.4252 98.841 17.8785 99.1183 18.4652C99.4063 19.0412 99.5503 19.7185 99.5503 20.4972V21.3452H93.6783C93.6996 22.3159 93.945 23.0572 94.4143 23.5692C94.8943 24.0705 95.561 24.3212 96.4143 24.3212C96.9583 24.3212 97.4383 24.2732 97.8543 24.1772C98.281 24.0705 98.7183 23.9212 99.1663 23.7292V24.9612C98.729 25.1532 98.297 25.2919 97.8703 25.3772C97.4436 25.4732 96.937 25.5212 96.3503 25.5212C95.5396 25.5212 94.8196 25.3559 94.1903 25.0252C93.5716 24.6945 93.0863 24.2039 92.7343 23.5532C92.393 22.8919 92.2223 22.0865 92.2223 21.1372C92.2223 20.1985 92.377 19.3932 92.6863 18.7212C93.0063 18.0492 93.449 17.5319 94.0143 17.1692C94.5903 16.8065 95.257 16.6252 96.0143 16.6252ZM95.9983 17.7772C95.3263 17.7772 94.793 17.9959 94.3983 18.4332C94.0143 18.8599 93.785 19.4572 93.7103 20.2252H98.0783C98.0676 19.4999 97.897 18.9132 97.5663 18.4652C97.2356 18.0065 96.713 17.7772 95.9983 17.7772ZM105.174 25.5212C104.416 25.5212 103.739 25.3665 103.142 25.0572C102.555 24.7479 102.091 24.2679 101.75 23.6172C101.419 22.9665 101.254 22.1345 101.254 21.1212C101.254 20.0652 101.43 19.2065 101.782 18.5452C102.134 17.8839 102.608 17.3985 103.206 17.0892C103.814 16.7799 104.502 16.6252 105.27 16.6252C105.707 16.6252 106.128 16.6732 106.534 16.7692C106.939 16.8545 107.27 16.9612 107.526 17.0892L107.094 18.2572C106.838 18.1612 106.539 18.0705 106.198 17.9852C105.856 17.8999 105.536 17.8572 105.238 17.8572C103.552 17.8572 102.71 18.9399 102.71 21.1052C102.71 22.1399 102.912 22.9345 103.318 23.4892C103.734 24.0332 104.347 24.3052 105.158 24.3052C105.627 24.3052 106.038 24.2572 106.39 24.1612C106.752 24.0652 107.083 23.9479 107.382 23.8092V25.0572C107.094 25.2065 106.774 25.3185 106.422 25.3932C106.08 25.4785 105.664 25.5212 105.174 25.5212Z" fill="black"/>
<path d="M90.6643 94.5897V217.825H358.196V196.424C358.196 196.424 300.082 204.794 248.74 186.625C213.491 173.594 197.058 157.806 170.179 134.466C120.265 96.1208 90.6643 94.5897 90.6643 94.5897Z" fill="#ADEEEA"/>
<path d="M358.196 217.825H90.6643V35.6896" stroke="#C5C5C5" stroke-width="0.680481" stroke-miterlimit="10"/>
<path d="M358.196 196.424C358.196 196.424 300.082 204.794 248.74 186.625C213.491 173.594 197.058 157.806 170.179 134.466C120.265 96.1208 90.6643 94.5897 90.6643 94.5897" stroke="#00CFC3" stroke-width="0.680481" stroke-miterlimit="10"/>
<g filter="url(#filter0_d)">
<path fill-rule="evenodd" clip-rule="evenodd" d="M358.763 203.928C363.346 203.928 367.062 200.212 367.062 195.629C367.062 191.045 363.346 187.33 358.763 187.33C354.18 187.33 350.464 191.045 350.464 195.629C350.464 200.212 354.18 203.928 358.763 203.928Z" fill="#00CFC3"/>
<path d="M365.238 195.629C365.238 199.205 362.339 202.104 358.763 202.104C355.187 202.104 352.288 199.205 352.288 195.629C352.288 192.052 355.187 189.153 358.763 189.153C362.339 189.153 365.238 192.052 365.238 195.629Z" stroke="white" stroke-width="3.64713"/>
</g>
<path d="M357.548 94.2161V39.6075C357.548 39.6075 329.444 37.43 304.981 57.7083C291.167 69.1744 282.048 81.8654 274.971 94.2161H357.548Z" fill="#FFBAAB"/>
<path d="M357.65 39.0629C357.65 39.0629 329.546 36.8854 305.083 57.1637C257.449 96.7678 265.479 150.832 222.336 154.711C199.812 156.65 176.302 138.277 169.633 133.888C119.72 95.5769 90.0849 94.0458 90.0849 94.0458" stroke="#EC3B15" stroke-width="0.680481" stroke-miterlimit="10"/>
<path d="M358.365 43.3502C360.771 43.3502 362.72 41.4003 362.72 38.9951C362.72 36.5899 360.771 34.64 358.365 34.64C355.96 34.64 354.01 36.5899 354.01 38.9951C354.01 41.4003 355.96 43.3502 358.365 43.3502Z" fill="#EC3B15"/>
<path d="M89.6769 94.2164H91.3781" stroke="#EC3B15" stroke-width="0.680481" stroke-miterlimit="10"/>
<path d="M94.8131 94.2164H354.11" stroke="#EC3B15" stroke-width="0.680481" stroke-miterlimit="10" stroke-dasharray="3.43 3.43"/>
<path d="M355.846 94.2164H357.548" stroke="#EC3B15" stroke-width="0.680481" stroke-miterlimit="10"/>
<path d="M169.361 137.359C171.766 137.359 173.716 135.409 173.716 133.004C173.716 130.598 171.766 128.649 169.361 128.649C166.956 128.649 165.006 130.598 165.006 133.004C165.006 135.409 166.956 137.359 169.361 137.359Z" fill="#EC3B15"/>
<path d="M169.26 216.805V215.104" stroke="#EC3B15" stroke-width="0.680481" stroke-miterlimit="10"/>
<path d="M169.26 211.633V136.917" stroke="#EC3B15" stroke-width="0.680481" stroke-miterlimit="10" stroke-dasharray="3.47 3.47"/>
<path d="M169.26 135.181V133.48" stroke="#EC3B15" stroke-width="0.680481" stroke-miterlimit="10"/>
<g filter="url(#filter1_d)">
<path fill-rule="evenodd" clip-rule="evenodd" d="M90.7988 103.295C95.3821 103.295 99.0976 99.5793 99.0976 94.996C99.0976 90.4127 95.3821 86.6971 90.7988 86.6971C86.2155 86.6971 82.4999 90.4127 82.4999 94.996C82.4999 99.5793 86.2155 103.295 90.7988 103.295Z" fill="#00CFC3"/>
<path d="M97.274 94.996C97.274 98.5722 94.375 101.471 90.7988 101.471C87.2226 101.471 84.3235 98.5722 84.3235 94.996C84.3235 91.4198 87.2226 88.5207 90.7988 88.5207C94.375 88.5207 97.274 91.4198 97.274 94.996Z" stroke="white" stroke-width="3.64713"/>
</g>
<defs>
<filter id="filter0_d" x="340.738" y="182.467" width="36.0491" height="36.0491" filterUnits="userSpaceOnUse" color-interpolation-filters="sRGB">
<feFlood flood-opacity="0" result="BackgroundImageFix"/>
<feColorMatrix in="SourceAlpha" type="matrix" values="0 0 0 0 0 0 0 0 0 0 0 0 0 0 0 0 0 0 127 0"/>
<feOffset dy="4.86284"/>
<feGaussianBlur stdDeviation="4.86284"/>
<feColorMatrix type="matrix" values="0 0 0 0 0 0 0 0 0 0 0 0 0 0 0 0 0 0 0.16 0"/>
<feBlend mode="normal" in2="BackgroundImageFix" result="effect1_dropShadow"/>
<feBlend mode="normal" in="SourceGraphic" in2="effect1_dropShadow" result="shape"/>
</filter>
<filter id="filter1_d" x="72.7743" y="81.8343" width="36.0491" height="36.0491" filterUnits="userSpaceOnUse" color-interpolation-filters="sRGB">
<feFlood flood-opacity="0" result="BackgroundImageFix"/>
<feColorMatrix in="SourceAlpha" type="matrix" values="0 0 0 0 0 0 0 0 0 0 0 0 0 0 0 0 0 0 127 0"/>
<feOffset dy="4.86284"/>
<feGaussianBlur stdDeviation="4.86284"/>
<feColorMatrix type="matrix" values="0 0 0 0 0 0 0 0 0 0 0 0 0 0 0 0 0 0 0.16 0"/>
<feBlend mode="normal" in2="BackgroundImageFix" result="effect1_dropShadow"/>
<feBlend mode="normal" in="SourceGraphic" in2="effect1_dropShadow" result="shape"/>
</filter>
</defs>
</svg>
