<?xml version="1.0" encoding="UTF-8" standalone="no"?>
<!DOCTYPE svg PUBLIC "-//W3C//DTD SVG 1.1//EN" "http://www.w3.org/Graphics/SVG/1.1/DTD/svg11.dtd">
<svg width="100%" height="100%" viewBox="0 0 53 211" version="1.1" xmlns="http://www.w3.org/2000/svg" xmlns:xlink="http://www.w3.org/1999/xlink" xml:space="preserve" xmlns:serif="http://www.serif.com/" style="fill-rule:evenodd;clip-rule:evenodd;stroke-miterlimit:10;">
    <path d="M14.035,21.377C13.628,24.318 13.357,27.28 13.198,30.243C13.085,32.158 12.474,35.577 13.9,37.104C14.329,37.559 14.895,37.833 15.483,38.084C19.668,39.861 24.306,40.317 28.853,40.203C33.4,40.089 37.902,39.428 42.449,39.018C42.947,38.972 43.512,38.904 43.852,38.539C44.259,38.084 44.191,37.377 44.1,36.762C43.264,31.725 42.698,26.597 41.635,21.583C40.798,17.662 40.368,13.628 39.033,9.845C38.445,8.181 37.789,6.312 36.861,4.671C35.956,3.053 34.78,1.64 33.174,0.797C31.794,0.067 30.188,-0.092 28.649,0.044C27.88,0.113 26.975,0.204 26.251,0.477C25.708,0.683 25.369,1.002 24.713,0.956C24.238,0.911 23.763,0.774 23.265,0.774C22.519,0.751 21.795,1.07 21.184,1.526C17.677,4.124 16.365,7.702 15.415,11.896C14.714,15.019 14.465,18.209 14.035,21.377Z" style="fill-rule:nonzero;"/>
    <path d="M50.593,81.616C50.005,75.758 49.552,69.878 48.942,63.998C48.353,58.505 47.403,53.286 46.046,47.861C45.345,45.103 45.254,40.75 43.06,38.699C41.16,36.944 38.49,37.104 36.137,37.149C34.916,37.172 33.558,36.99 32.472,36.42C31.025,35.645 31.115,33.708 31.025,32.226C30.957,31.132 31.047,29.947 31.183,28.876C31.183,28.785 31.206,28.694 31.228,28.625C31.273,28.511 31.364,28.42 31.432,28.329C32.902,26.665 34.26,24.751 34.984,22.631C35.504,21.104 35.617,19.486 35.843,17.89C36.047,16.409 36.024,15.019 35.911,13.514C35.843,12.671 35.64,11.805 35.64,10.962C35.64,9.708 35.3,8.227 34.35,7.315C33.287,6.312 31.839,5.742 30.391,5.583C28.446,5.355 26.478,5.742 24.555,6.153C23.627,6.335 22.654,6.563 21.998,7.224C21.591,7.634 21.342,8.204 21.139,8.751C20.754,9.776 20.437,10.825 20.211,11.896C20.075,12.557 19.894,13.218 19.826,13.879C19.759,14.54 19.894,15.269 19.962,15.93C20.166,17.959 20.279,19.987 20.777,21.947C21.297,24.112 22.428,26.027 23.921,27.668C24.012,27.782 24.125,27.896 24.17,28.033C24.215,28.169 24.215,28.329 24.215,28.466C24.17,30.563 24.69,32.978 23.604,34.938C23.152,35.759 22.451,36.443 21.546,36.671C18.266,37.56 15.098,36.283 12.135,38.22C8.9,40.34 8.334,43.166 7.542,46.767C6.728,50.46 6.14,54.175 5.62,57.912C4.624,65.16 3.968,72.431 2.656,79.633C2.068,82.847 2.045,85.741 2.068,88.977L2.068,91.371C2.023,94.447 1.842,97.524 1.57,100.601C1.186,104.635 1.186,108.692 0.484,112.681C0.439,112.977 0.371,113.296 0.462,113.592C0.733,114.595 2.068,116.099 2.679,117.034C3.199,117.832 3.9,118.515 4.624,119.154C5.28,119.746 5.778,120.384 6.502,120.931C6.615,121 6.705,121.091 6.796,121.182C6.864,121.273 6.932,121.41 6.977,121.524C7.95,124.008 8.945,126.515 9.895,129.022C10.348,130.207 10.755,131.37 11.072,132.578C11.366,133.695 11.976,135.153 11.976,136.316C12.112,136.84 12.203,137.478 12.429,137.957C12.587,138.321 12.836,138.458 13.062,138.754C13.65,139.506 13.583,140.532 13.718,141.421C13.877,142.583 13.967,143.723 14.035,144.885C14.307,149.535 13.967,154.161 13.696,158.811C13.56,161.181 13.447,163.552 13.424,165.922C13.402,170.503 14.623,174.856 15.46,179.346C16.614,185.523 18.899,192.862 17.677,199.152C17.315,200.998 16.071,202.161 15.121,203.71C14.872,204.121 14.623,204.531 14.51,204.987C14.397,205.443 14.465,205.99 14.782,206.331C14.963,206.537 15.211,206.673 15.438,206.81C16.252,207.357 16.84,208.246 17.79,208.497C18.198,208.611 18.628,208.565 19.012,208.725C19.487,208.93 19.94,209.408 20.437,209.249C20.641,209.613 20.89,210.024 21.297,210.138C21.704,210.252 22.134,210.069 22.428,209.773C22.722,209.477 22.881,209.066 23.039,208.679C23.65,207.198 24.125,205.557 23.966,203.938C23.831,202.525 23.808,200.725 24.238,199.357C24.374,198.924 24.577,198.514 24.668,198.058C25.007,196.577 24.057,195.118 23.627,193.751C23.107,192.064 22.745,190.355 22.496,188.6C21.998,185.204 21.93,181.739 22.157,178.321C22.519,172.463 24.215,166.697 24.193,160.817C24.193,159.153 23.876,157.443 23.831,155.757C23.785,154.275 24.057,152.817 24.374,151.358C24.69,149.899 24.577,148.577 24.69,147.096C25.098,141.922 25.075,136.726 25.007,131.529C24.962,128.133 25.256,124.76 25.55,121.387C25.844,118.014 25.844,114.618 26.161,111.268C26.161,111.222 26.161,111.176 26.206,111.154C26.229,111.131 26.274,111.131 26.319,111.131C26.726,111.154 27.609,111.404 27.971,111.199C28.242,112.977 28.265,114.823 28.265,116.646C28.265,118.014 28.197,119.381 28.197,120.749C28.197,122.413 28.174,124.076 28.197,125.74C28.265,129.569 28.604,133.398 28.853,137.227C29.011,139.962 28.785,142.72 28.785,145.455C28.785,147.917 29.984,150.378 29.599,152.794C28.717,158.378 29.418,164.03 30.278,169.569C31.115,175.039 31.522,180.349 31.228,185.887C31.07,188.964 31.025,192.223 29.758,195.05C29.554,195.528 29.305,195.984 29.237,196.486C29.17,197.033 29.283,197.58 29.373,198.127C29.871,200.77 30.074,203.437 29.984,206.126C29.961,206.992 29.894,207.904 30.188,208.725C31.115,211.368 34.237,208.975 35.798,208.041C35.979,207.927 36.16,207.836 36.318,207.722C36.635,207.539 36.929,207.334 37.246,207.152C38.241,206.537 39.237,206.149 38.829,204.691C38.626,203.938 38.105,203.323 37.653,202.685C35.685,199.768 35.436,195.984 35.934,192.497C36.431,189.033 37.382,185.637 38.173,182.218C40.209,173.443 39.531,164.486 39.214,155.575C39.146,153.706 39.078,151.837 39.327,149.991C39.463,149.033 39.666,148.099 39.802,147.142C40.096,144.908 39.938,142.629 40.3,140.395C40.481,139.279 40.775,138.207 41.069,137.136C41.295,136.293 41.363,135.45 41.567,134.606C42.11,132.395 42.901,130.253 43.512,128.065C44.214,125.74 44.756,123.279 45.616,121.022C46.634,121.797 47.72,120.361 48.376,119.746C49.371,118.789 50.322,117.763 51.204,116.692C51.634,116.168 52.064,115.621 52.29,114.96C52.652,113.911 52.403,112.817 52.312,111.746C52.222,110.584 52.38,109.467 52.358,108.327C52.245,103.245 52.064,98.026 51.656,92.943C51.362,89.205 50.978,85.399 50.593,81.616ZM15.211,74.961C15.144,75.189 15.053,75.416 14.963,75.667C13.899,78.129 12.293,80.294 11.094,82.71C10.257,84.419 9.239,86.037 9.058,87.975C9.262,85.787 9.42,83.667 9.352,81.456C9.307,80.112 9.103,78.767 9.217,77.399C9.33,76.1 9.601,74.801 9.918,73.525C10.37,71.656 10.891,69.81 11.411,67.964C11.841,66.414 12.633,64.864 12.836,63.291C13.085,64.271 13.583,65.183 14.261,65.89C14.374,66.003 14.465,66.095 14.555,66.231C14.691,66.437 14.736,66.687 14.759,66.915C14.94,68.214 15.031,69.513 15.166,70.813C15.347,72.408 15.596,73.57 15.211,74.961ZM44.168,80.385C44.146,82.368 44.078,84.374 44.033,86.356C43.806,86.151 43.716,85.832 43.648,85.536C43.399,84.533 43.082,83.553 42.698,82.619C42.381,81.844 41.861,81.251 41.499,80.499C40.639,78.698 39.712,76.921 38.716,75.211C37.789,73.639 37.653,72.567 38.128,70.813C38.445,69.627 38.445,68.579 38.829,67.439C38.965,67.006 39.01,66.55 39.191,66.14C39.35,65.798 39.576,65.525 39.802,65.228C40.571,64.203 41.114,63.018 41.386,61.787C41.273,62.585 41.725,63.838 41.883,64.636C42.042,65.57 42.087,66.459 42.313,67.394C42.539,68.442 42.766,69.491 42.969,70.539C43.173,71.542 43.354,72.545 43.535,73.548C44.123,75.416 44.191,77.81 44.191,79.747C44.168,79.975 44.168,80.18 44.168,80.385Z" style="fill:rgb(226,168,138);fill-rule:nonzero;"/>
    <path d="M47.788,119.313C48.059,118.88 49.597,117.444 49.597,117.033C50.57,116.031 51.792,114.845 51.136,113.296C50.932,112.84 50.57,112.498 50.367,112.019C50.254,111.746 49.688,109.763 49.869,109.581C49.054,110.378 48.964,111.677 48.308,112.589C48.24,112.68 48.172,112.749 48.15,112.863C48.104,113.022 48.127,113.182 48.15,113.341C48.285,114.731 47.878,116.167 47.222,117.375C46.611,118.492 45.842,119.609 45.729,120.885C45.706,121.068 45.706,121.273 45.842,121.409C46.023,121.637 46.362,121.546 46.634,121.387C46.951,120.68 47.38,119.974 47.788,119.313Z" style="fill:rgb(174,106,83);fill-opacity:0.71;fill-rule:nonzero;"/>
    <path d="M11.139,82.823C10.438,83.986 10.053,85.239 9.42,86.447C8.017,89.137 6.863,91.94 5.936,94.812C4.646,98.8 3.809,103.313 5.596,107.096C6.004,107.963 6.547,108.783 6.728,109.718C6.931,110.766 6.682,111.883 6.841,112.954C6.999,113.911 7.474,114.914 7.089,115.803C6.705,115.735 6.32,115.666 5.936,115.598C5.868,118.287 6.637,120.908 7.678,123.393C8.741,125.9 10.302,128.27 11.116,130.868C11.999,133.694 12.926,136.589 13.446,139.506C15.03,148.304 13.514,157.124 13.469,165.944C13.446,170.526 14.668,174.879 15.505,179.369C16.659,185.545 18.944,192.884 17.722,199.175C17.36,201.021 16.116,202.183 15.166,203.733C14.917,204.143 14.668,204.554 14.555,205.009C14.442,205.465 14.51,206.012 14.826,206.354C14.962,206.491 15.12,206.605 15.279,206.696C15.234,206.081 15.324,205.465 15.505,204.873C15.958,203.437 16.908,202.229 17.699,200.975C18.265,200.086 18.763,199.152 19.193,198.172C19.509,197.443 19.803,196.69 19.894,195.893C19.984,195.209 19.894,194.502 19.826,193.796C19.17,187.779 17.813,181.876 16.727,175.927C15.731,170.434 14.464,164.19 15.505,158.628C15.867,156.714 16.727,154.822 18.242,153.614C18.74,153.204 19.328,152.885 19.803,152.452C20.753,151.609 21.342,150.355 21.387,149.079C19.894,150.515 17.134,150.742 16.229,148.509C15.89,147.666 15.912,146.731 15.912,145.819C15.935,141.99 15.686,138.139 15.166,134.332C14.668,130.731 13.401,127.244 12.632,123.689C11.501,118.515 10.664,113.273 10.415,107.985C10.279,105.342 10.234,102.903 10.754,100.259C10.867,99.712 10.98,99.142 11.297,98.664C11.614,98.185 12.134,97.82 12.677,97.866C13.062,97.889 13.401,98.094 13.718,98.322C16.591,100.419 18.695,103.427 20.256,106.618C21.07,108.327 22.224,110.196 22.609,112.065C22.835,113.182 22.993,114.344 23.061,115.484C23.265,118.31 23.084,121.182 22.925,123.94C22.563,130.184 22.518,136.429 22.767,142.674C22.857,145.272 23.016,147.939 22.179,150.401C21.952,151.084 21.636,151.745 21.523,152.452C21.274,153.774 21.681,155.118 21.975,156.44C23.536,163.278 22.133,170.229 21.794,177.09C21.636,180.372 21.817,183.699 22.269,186.936C22.292,187.141 22.337,187.346 22.382,187.551C22.02,184.497 21.975,181.397 22.179,178.298C22.541,172.44 24.237,166.674 24.215,160.794C24.215,159.13 23.898,157.42 23.853,155.734C23.808,154.252 24.079,152.794 24.396,151.335C24.712,149.876 24.599,148.554 24.712,147.073C25.12,141.899 25.097,136.703 25.029,131.506C24.984,128.11 25.278,124.737 25.572,121.364C25.866,117.991 25.866,114.595 26.183,111.245C26.183,111.199 26.183,111.153 26.228,111.131C26.251,111.108 26.296,111.108 26.341,111.108C26.748,111.131 27.631,111.381 27.993,111.176C28.264,112.954 28.287,114.8 28.287,116.623C28.287,117.991 28.219,119.358 28.219,120.726C28.219,122.39 28.196,124.053 28.219,125.717C28.287,129.546 28.626,133.375 28.875,137.204C29.033,139.939 28.807,142.697 28.807,145.432C28.807,147.894 30.006,150.355 29.622,152.771C28.739,158.355 29.441,164.007 30.3,169.546C31.137,175.016 31.544,180.326 31.25,185.864C31.092,188.941 31.047,192.2 29.78,195.027C29.576,195.505 29.327,195.961 29.26,196.462C29.192,197.009 29.305,197.556 29.395,198.103C29.893,200.747 30.097,203.414 30.006,206.103C29.983,206.969 29.916,207.881 30.21,208.702C30.345,209.112 30.549,209.385 30.775,209.568C30.549,206.491 29.441,203.277 30.956,200.656C31.612,199.517 32.743,198.605 32.992,197.306C33.128,196.599 32.992,195.893 32.902,195.163C32.585,192.383 33.128,189.557 33.648,186.799C34.123,184.292 34.576,181.739 34.621,179.186C34.666,176.36 34.236,173.58 34.01,170.754C33.671,166.491 32.065,155.415 38.467,154.503C38.784,155.643 39.078,156.782 39.349,157.922C39.327,157.124 39.281,156.304 39.259,155.506C39.191,153.637 39.123,151.768 39.372,149.922C39.508,148.965 39.711,148.03 39.847,147.073C40.141,144.839 39.983,142.56 40.344,140.327C40.571,138.914 40.978,137.546 41.362,136.156C41.838,134.424 42.177,132.669 42.494,130.914C42.562,130.207 42.607,129.501 42.675,128.817C41.747,134.925 38.603,140.144 38.014,146.412C37.924,147.347 37.879,148.327 37.404,149.124C36.929,149.945 35.911,150.515 35.074,150.127C34.259,149.762 33.988,148.737 33.807,147.848C32.472,141.01 32.676,133.74 32.698,126.766C32.721,119.86 31.341,112.635 34.87,106.253C35.684,104.772 36.725,103.45 37.585,101.968C37.901,101.421 38.082,100.715 38.444,100.191C38.557,100.031 39.621,99.028 39.621,99.028C38.942,98.527 38.037,98.572 37.223,98.778C36.408,98.983 35.662,99.37 34.847,99.507C34.666,99.53 34.417,99.53 34.35,99.347C34.304,99.233 34.372,99.097 34.417,99.006C35.888,96.271 38.512,94.402 41.046,92.624C40.367,92.669 36.182,93.262 36.34,92.145C36.725,89.456 36.906,86.744 36.861,84.031C35.978,87.746 33.988,91.165 31.182,93.741C30.413,94.447 29.124,94.857 28.083,94.652C27.925,94.629 27.766,94.561 27.653,94.447C27.54,94.333 27.495,94.151 27.472,93.991C27.246,93.011 27.02,92.054 26.794,91.074C26.273,92.145 26.409,93.581 25.527,94.379C24.826,95.04 23.446,94.88 22.563,94.789C20.957,94.629 19.532,93.741 18.152,92.897C18.378,93.285 18.152,93.832 17.79,94.083C17.428,94.333 16.93,94.356 16.5,94.288C15.482,94.105 14.804,93.353 13.876,92.943C12.949,92.533 12.066,92.305 11.501,91.393C10.822,90.299 10.166,89.023 10.279,87.701C10.325,87.108 10.528,86.538 10.732,85.969C11.863,83.028 13.401,80.248 15.098,77.581C15.844,76.419 16.613,75.12 16.953,73.775C17.337,72.294 16.568,70.47 16.319,69.012C16.229,68.51 16.161,67.941 16.387,67.507C16.795,66.755 17.813,66.664 18.65,66.687C21.048,66.71 23.468,66.345 25.821,66.573C26.047,66.596 26.273,66.641 26.409,66.801C26.5,66.915 26.522,67.052 26.545,67.188C26.771,68.601 26.997,69.992 27.224,71.405C27.404,70.151 27.608,68.921 27.789,67.667C27.812,67.485 27.857,67.302 27.97,67.188C28.106,67.074 28.287,67.052 28.468,67.029C31.454,66.801 34.169,67.348 37.087,67.872C37.223,67.895 37.358,67.918 37.426,68.032C37.562,68.191 37.472,68.419 37.381,68.601C37.064,69.308 36.499,69.878 36.318,70.63C36.046,71.678 36.273,72.932 36.386,73.98C36.702,77.285 36.793,80.59 36.657,83.917C37.72,82.254 37.449,79.975 38.557,78.356C39.485,79.929 40.344,81.524 41.114,83.165C41.973,84.989 42.765,86.903 42.946,88.909C42.969,89.296 42.991,89.684 42.856,90.048C42.743,90.39 42.494,90.687 42.267,90.937C41.295,91.986 40.005,92.783 39.394,94.083C39.349,94.174 39.304,94.288 39.327,94.402C39.349,94.516 39.44,94.584 39.53,94.652C40.231,95.154 41.182,95.313 41.996,95.063C42.923,94.766 43.489,93.923 44.145,93.285C44.937,92.51 45.435,91.598 45.435,90.459C45.435,89.068 44.869,87.769 44.236,86.538C43.195,84.51 42.72,82.276 41.589,80.225C40.48,78.197 39.168,76.259 38.331,74.071C37.788,72.658 37.992,71.131 38.376,69.718C38.761,68.282 38.851,66.892 39.417,65.502C39.892,64.385 40.435,63.291 40.684,62.106C40.729,61.855 40.82,61.536 41.091,61.468C41.272,61.422 42.267,67.621 42.358,68.032C42.923,70.607 43.557,73.16 43.851,75.781C44.326,80.134 43.444,84.692 44.484,88.954C44.96,90.869 45.819,92.442 46.362,94.333C47.312,97.615 49.461,102.834 47.674,106.116C46.566,108.145 47.176,110.265 46.407,112.339C46.34,112.544 46.249,112.726 46.181,112.931C46.136,113.273 46.091,113.615 46.045,113.957C46.091,114.139 46.204,114.299 46.34,114.413C48.33,108.555 51.068,102.675 49.326,96.498C48.489,93.604 46.95,91.097 46.566,88.111C46.136,84.647 45.367,81.342 45.254,77.832C45.073,72.339 45.593,67.074 44.281,61.673C43.218,57.251 41.34,53.149 39.983,48.841C38.806,45.035 38.557,40.932 39.259,37.012C38.286,36.921 37.291,36.989 36.114,37.012C34.893,37.035 33.535,36.853 32.449,36.283C31.454,35.759 31.182,34.688 31.092,33.571C31.069,33.571 31.047,33.571 31.047,33.548C30.504,34.3 30.753,35.417 31.386,36.101C32.019,36.762 32.947,37.081 33.852,37.309C34.779,37.536 35.797,37.764 36.34,38.539C36.68,39.018 36.77,39.656 36.838,40.249C37.019,42.095 36.815,43.918 36.861,45.764C36.906,47.177 36.883,48.362 36.521,49.776C36.295,50.642 36.024,51.508 36.069,52.397C36.092,52.852 36.205,53.286 36.182,53.741C36.137,54.79 35.413,55.679 34.689,56.408C33.399,57.684 31.906,58.778 30.3,59.599C29.395,60.077 28.649,59.621 28.196,58.801C27.834,58.14 26.997,56.454 27.11,55.701C26.862,57.206 26.341,58.938 25.414,60.146C25.097,60.556 25.052,60.875 24.396,60.716C22.088,60.1 19.871,59.075 18.084,57.479C16.297,55.907 14.962,53.741 14.623,51.371C14.283,49.137 14.849,46.858 15.03,44.602C15.188,42.687 15.075,40.727 15.641,38.904C15.731,38.63 15.844,38.334 16.071,38.152C16.297,37.969 16.568,37.901 16.862,37.833C17.971,37.582 18.898,37.4 20.007,37.423C21.07,37.445 22.314,37.217 23.242,36.693C24.441,35.987 25.142,34.733 25.957,33.662C26.816,32.499 28.015,31.747 28.875,30.585C29.124,30.243 29.327,29.879 29.486,29.491C29.531,29.4 29.554,29.263 29.486,29.195C29.441,29.126 29.35,29.126 29.26,29.126C27.359,29.126 26.115,28.283 24.871,26.824C24.011,25.822 23.423,24.636 22.925,23.428C21.907,20.967 21.274,18.232 21.5,15.543C21.523,15.155 21.591,14.768 21.817,14.471C22.043,14.175 22.427,14.016 22.79,13.924C25.142,13.241 27.766,13.469 29.938,12.283C30.323,12.078 30.73,11.828 31.137,11.896C31.363,11.941 31.544,12.055 31.748,12.147C32.495,12.488 33.422,12.42 34.101,11.941C34.259,11.828 34.417,11.714 34.598,11.691C34.96,11.668 35.187,12.101 35.322,12.443C35.549,13.081 35.752,13.696 35.978,14.335C35.956,14.016 35.933,13.674 35.911,13.355C35.843,12.511 35.639,11.645 35.639,10.802C35.639,9.548 35.3,8.067 34.35,7.155C33.286,6.152 31.839,5.583 30.391,5.423C28.513,5.195 26.635,5.56 24.78,5.947C24.079,6.312 23.423,6.699 22.767,7.132C22.043,7.634 21.477,8.249 21.025,8.91C20.686,9.822 20.414,10.756 20.211,11.714C20.075,12.375 19.894,13.035 19.826,13.696C19.758,14.357 19.894,15.087 19.962,15.748C20.165,17.776 20.278,19.805 20.776,21.765C21.296,23.93 22.427,25.844 23.921,27.485C24.011,27.599 24.124,27.713 24.169,27.85C24.215,27.987 24.215,28.146 24.215,28.283C24.169,30.38 24.69,32.796 23.604,34.756C23.151,35.576 22.45,36.26 21.545,36.488C18.785,37.24 16.093,36.442 13.537,37.354C13.56,37.719 13.537,38.106 13.514,38.494C12.971,44.1 10.053,49.479 9.827,54.972C9.714,57.707 9.623,60.374 9.668,63.063C9.759,68.601 7.519,73.935 7.044,79.405C6.682,83.576 6.614,87.61 6.004,91.781C5.664,94.196 5.461,96.704 4.918,99.074C4.488,101.011 3.131,103.154 4.149,105.136C5.325,107.461 6.388,109.626 6.795,111.997C6.863,111.564 6.931,111.131 6.999,110.698C7.27,108.988 6.252,108.373 5.755,106.891C4.42,102.971 5.529,98.891 6.501,95.04C7.293,91.94 9.193,89.137 9.329,85.878C9.487,82.459 8.877,79.017 9.601,75.621C10.03,73.638 10.506,71.678 11.026,69.718C11.297,68.647 11.456,67.553 11.953,66.573C12.541,65.433 12.768,64.066 12.881,62.79C14.6,65.821 15.935,69.65 15.46,73.183C14.94,76.806 12.881,79.906 11.139,82.823Z" style="fill:rgb(174,106,83);fill-opacity:0.71;fill-rule:nonzero;"/>
    <path d="M6.864,114.891C6.841,115.279 6.796,115.666 6.705,116.077C6.705,116.077 6.728,116.077 6.728,116.054C7.045,115.758 6.977,115.302 6.864,114.891Z" style="fill:rgb(174,106,83);fill-opacity:0.71;fill-rule:nonzero;"/>
    <path d="M5.8,116.191C5.981,116.213 6.162,116.236 6.343,116.191C5.574,114.367 4.918,112.521 4.375,110.629C3.628,111.701 3.674,113.136 4.058,114.39C4.443,115.644 5.121,116.76 5.551,117.991C5.845,118.857 6.026,119.746 6.162,120.635C6.366,120.772 6.547,120.886 6.728,120.908C7.972,121.091 5.959,116.646 5.8,116.191Z" style="fill:rgb(174,106,83);fill-opacity:0.71;fill-rule:nonzero;"/>
    <path d="M26.048,139.598C26.252,137.934 26.478,136.27 26.568,134.606C26.908,128.453 27.36,122.253 26.862,116.077C26.727,114.413 26.636,112.818 25.958,111.291C26.704,111.61 27.564,111.632 28.31,111.359C28.107,111.929 27.632,112.726 27.632,113.342C26.681,116.943 26.953,120.909 26.908,124.624C26.885,126.151 26.885,127.678 26.862,129.182C26.862,130.276 26.749,131.37 26.772,132.441C26.817,134.265 27.066,136.156 27.202,138.002C27.405,140.806 27.88,143.609 28.016,146.412C28.174,149.467 27.767,152.498 27.767,155.529C27.767,160.11 28.65,164.623 29.487,169.113C29.916,171.415 30.324,173.694 30.618,176.019C30.799,177.523 30.482,180.349 32.111,181.124C32.97,181.534 34.102,181.489 35.007,181.443C36.138,181.375 37.246,181.238 38.355,181.01C38.852,180.919 39.486,175.905 39.554,175.289C39.848,172.668 39.983,170.025 40.097,167.381C40.323,162.23 41.001,157.421 40.413,152.224C40.278,150.925 39.961,149.626 40.029,148.35C40.097,147.028 40.436,145.683 40.662,144.407C41.228,141.398 41.952,138.413 42.834,135.495C42.97,135.062 43.105,134.606 43.241,134.173C43.852,132.213 44.44,130.253 45.006,128.293C45.322,127.222 45.616,126.128 45.888,125.034C46.205,123.803 46.521,122.367 46.567,121.068C45.119,121.159 47.223,117.49 47.471,116.988C47.833,116.282 47.969,115.484 48.15,114.709C48.309,114.117 48.376,112.818 48.761,112.339C48.354,112.84 47.381,114.641 46.544,114.276C45.933,114.003 46.182,113.159 46.34,112.704C46.815,111.291 46.906,109.65 46.974,108.168C47.019,107.256 47.177,106.755 47.766,106.117C49.53,104.225 48.512,100.465 48.195,98.185C47.788,95.314 47.132,92.442 45.888,89.821C45.39,88.75 44.712,87.792 44.191,86.721C44.44,87.519 44.169,88.385 43.761,89.114C42.766,90.938 41.838,92.305 39.893,93.171C38.603,93.741 37.291,94.197 35.934,94.584C33.265,95.359 30.482,95.792 27.699,95.883C22.881,96.043 18.062,95.496 13.515,93.741C12.452,93.331 11.185,92.715 10.416,91.849C9.239,90.505 8.877,88.727 9.081,86.972C8.04,90.847 6.593,94.584 5.869,98.55C5.371,101.194 4.534,104.681 5.665,107.256C5.982,107.986 6.48,108.647 6.706,109.422C6.955,110.311 6.841,111.245 6.864,112.157C6.887,112.886 6.977,113.593 7.158,114.299C7.294,114.846 7.452,115.53 6.977,115.849C6.706,116.031 6.299,115.963 6.027,115.758C5.756,115.553 5.575,115.256 5.416,114.96C5.756,115.917 6.027,116.897 6.276,117.877C6.457,118.629 6.955,119.45 6.887,120.248C6.864,120.612 6.48,120.749 6.457,121.045C6.412,121.524 6.593,122.071 6.66,122.527C7.045,124.92 7.588,127.29 8.199,129.638C9.398,134.265 10.868,138.8 12.158,143.404C12.769,145.569 13.334,147.803 13.198,150.036C13.131,151.472 12.791,152.863 12.61,154.276C11.615,162.936 13.696,171.027 15.257,179.415C15.393,180.121 15.528,180.851 15.687,181.58C17.361,182.423 19.51,182.081 21.252,181.512C21.501,181.42 21.727,181.375 21.953,181.261C21.727,180.167 22.428,178.663 22.655,177.569C22.949,176.224 23.22,174.879 23.446,173.535C23.899,170.822 24.216,168.11 24.374,165.352C24.532,162.663 24.578,159.951 24.464,157.261C24.419,155.917 24.306,154.572 24.216,153.227C24.08,151.244 24.917,148.965 25.12,146.982C25.46,144.544 25.754,142.082 26.048,139.598Z" style="fill:rgb(175,25,0);fill-rule:nonzero;stroke:rgb(36,0,0);stroke-width:0.23px;"/>
    <path d="M19.713,13.287C19.871,16.25 20.007,19.03 20.731,21.947C21.251,24.113 22.383,26.027 23.876,27.668C23.966,27.782 24.079,27.896 24.124,28.033C24.17,28.17 24.17,28.329 24.17,28.466C24.124,30.563 24.645,32.979 23.559,34.939C23.106,35.759 22.405,36.443 21.5,36.671C18.22,37.56 15.053,36.283 12.089,38.221C10.528,39.246 9.42,40.568 8.877,42.369C7.406,47.178 6.343,52.124 5.642,57.092C4.601,64.591 3.99,72.157 2.656,79.633C2.067,82.847 2.045,85.741 2.067,88.978C2.09,92.852 1.909,96.727 1.547,100.601C1.163,104.635 1.163,108.692 0.461,112.681C0.416,112.977 0.348,113.296 0.439,113.593C0.755,114.846 1.977,116.373 2.859,117.308C3.47,117.969 4.058,118.63 4.692,119.268C5.099,119.678 6.004,120.84 6.637,120.84C6.434,121.068 6.886,122.778 6.931,123.074C7.723,128.817 9.284,134.652 11.207,140.122C12.18,142.903 13.153,146.595 13.22,149.558C13.243,150.994 12.972,152.407 12.791,153.82C12.27,157.854 12.768,161.546 12.858,165.557C12.949,170.139 14.578,174.879 15.437,179.392C16.591,185.569 18.876,192.907 17.654,199.198C17.292,201.044 16.048,202.206 15.098,203.756C14.849,204.167 14.6,204.577 14.487,205.033C14.374,205.488 14.442,206.035 14.759,206.377C14.94,206.582 15.189,206.719 15.415,206.856C16.229,207.403 16.817,208.292 17.767,208.543C18.175,208.656 18.605,208.611 18.989,208.77C19.464,208.976 19.917,209.454 20.414,209.295C20.618,209.659 20.867,210.07 21.274,210.184C21.681,210.297 22.111,210.115 22.405,209.819C22.699,209.523 22.858,209.112 23.016,208.725C23.627,207.243 24.102,205.602 23.943,203.984C23.808,202.571 23.785,200.771 24.215,199.403C24.351,198.97 24.554,198.56 24.645,198.104C24.984,196.622 24.034,195.164 23.604,193.796C23.084,192.11 22.722,190.4 22.473,188.645C22.134,186.435 21.998,184.178 21.998,181.945C21.998,179.825 22.677,177.797 23.061,175.723C23.717,172.121 24.17,168.475 24.486,164.828C24.961,159.495 23.898,154.025 24.622,148.76C24.984,146.093 25.414,143.45 25.821,140.806C26.228,138.23 26.726,135.609 26.794,133.011C26.794,137.41 27.586,141.74 27.857,146.139C28.038,149.398 27.902,152.657 27.789,155.917C27.608,160.885 28.92,165.466 29.712,170.298C30.572,175.472 31.432,180.691 31.16,185.956C31.002,189.033 30.956,192.292 29.69,195.118C29.486,195.597 29.237,196.053 29.169,196.554C29.101,197.101 29.215,197.648 29.305,198.195C29.803,200.839 30.006,203.506 29.916,206.195C29.893,207.061 29.825,207.973 30.119,208.793C31.047,211.437 34.169,209.044 35.73,208.109C35.911,207.996 36.092,207.904 36.25,207.79C36.567,207.608 36.861,207.403 37.178,207.221C38.173,206.605 39.168,206.218 38.761,204.759C38.558,204.007 38.037,203.392 37.585,202.753C35.617,199.836 35.368,196.053 35.866,192.566C36.363,189.101 37.313,185.705 38.105,182.287C38.874,178.959 39.259,175.54 39.53,172.121C39.779,168.953 40.254,165.877 40.39,162.709C40.503,160.201 40.594,157.672 40.594,155.165C40.594,152.931 39.983,150.789 40.073,148.532C40.254,143.7 41.86,139.074 43.263,134.515C43.964,132.213 44.62,129.889 45.209,127.564C45.503,126.401 45.797,125.239 46.068,124.054C46.204,123.484 46.34,122.914 46.453,122.345C46.543,121.912 46.498,121.365 46.792,121C46.928,120.84 47.109,120.772 47.29,120.658C47.561,120.498 47.765,120.271 47.991,120.043C48.602,119.587 49.122,118.857 49.665,118.288C50.163,117.763 50.706,117.33 51.158,116.783C51.588,116.259 52.018,115.712 52.244,115.051C52.606,114.003 52.357,112.909 52.267,111.838C52.176,110.675 52.335,109.558 52.312,108.419C52.199,103.336 52.018,98.117 51.611,93.034C51.294,89.228 50.909,85.422 50.525,81.616C50.05,76.944 49.281,72.363 49.032,67.713C48.715,61.901 47.855,55.725 46.634,50.004C45.933,46.745 45.231,40.454 42.449,38.426C40.3,36.853 38.535,37.127 36.069,37.172C34.847,37.195 33.49,37.013 32.404,36.443C30.956,35.668 31.047,33.731 30.956,32.249C30.889,31.155 30.979,29.97 31.115,28.899C31.115,28.808 31.137,28.717 31.16,28.648C31.205,28.534 31.296,28.443 31.364,28.352C32.834,26.688 34.191,24.774 34.915,22.654C35.911,19.737 36.205,16.728 36.092,13.651" style="fill:none;fill-rule:nonzero;stroke:rgb(31,0,0);stroke-width:0.23px;"/>
    <path d="M34.011,11.896C34.712,11.851 36.793,12.101 36.657,11.532C36.137,9.617 35.775,7.908 34.667,6.175C33.852,4.967 32.857,3.805 31.567,3.076C30.436,2.46 28.966,2.301 27.699,2.164C25.029,1.891 22.269,2.825 20.55,4.967C19.6,6.153 19.012,7.429 18.718,8.933C18.491,10.141 18.356,11.372 17.881,12.512C19.758,12.99 21.704,12.876 23.627,12.739C25.007,12.648 26.387,12.534 27.767,12.352C28.694,12.215 29.531,11.987 30.436,11.828C30.481,11.828 30.527,11.805 30.572,11.782C30.685,11.714 30.708,11.577 30.73,11.463C30.956,10.164 31.228,9.002 31.251,7.68C31.635,8.933 31.816,10.255 31.816,11.577C31.816,11.623 31.816,11.668 31.839,11.714C31.884,11.759 31.952,11.759 32.02,11.759L32.925,11.759C32.947,10.734 32.97,9.708 32.744,8.728C33.173,9.754 33.513,10.848 33.739,11.942C33.762,11.919 33.852,11.896 34.011,11.896Z" style="fill-rule:nonzero;"/>
    <path d="M26.5,78.653C26.545,79.747 26.568,80.841 26.59,81.935C26.613,83.029 26.613,84.123 26.613,85.217C26.613,86.311 26.658,87.405 26.726,88.499C26.772,89.046 26.794,89.593 26.862,90.14C26.907,90.687 26.975,91.234 27.02,91.781C26.93,91.234 26.839,90.687 26.749,90.163C26.681,89.616 26.613,89.069 26.545,88.522C26.432,87.428 26.387,86.334 26.364,85.217C26.387,84.123 26.364,83.029 26.387,81.935C26.41,80.841 26.432,79.747 26.5,78.653Z" style="fill:rgb(31,0,0);fill-rule:nonzero;"/>
    <path d="M36.499,83.667C36.408,84.624 36.318,85.558 36.16,86.493C36.024,87.427 35.82,88.362 35.549,89.296C35.277,90.208 34.938,91.119 34.486,91.963L34.124,92.578C33.988,92.783 33.875,92.988 33.739,93.171L33.309,93.74C33.151,93.923 32.992,94.105 32.834,94.265C33.422,93.513 33.92,92.715 34.327,91.872C34.734,91.028 35.074,90.139 35.323,89.228C35.594,88.316 35.798,87.404 35.979,86.47C36.16,85.535 36.318,84.601 36.499,83.667Z" style="fill:rgb(31,0,0);fill-rule:nonzero;"/>
    <path d="M16.591,89.889C16.885,90.686 17.292,91.439 17.744,92.145C18.197,92.852 18.717,93.535 19.147,94.287C18.581,93.649 18.038,92.988 17.563,92.259C17.337,91.894 17.111,91.507 16.953,91.119C16.772,90.732 16.658,90.322 16.591,89.889Z" style="fill:rgb(31,0,0);fill-rule:nonzero;"/>
    <path d="M4.533,111.541C4.805,111.883 4.986,112.293 5.076,112.726C5.167,113.159 5.212,113.592 5.257,114.025C5.302,114.458 5.37,114.869 5.506,115.256C5.642,115.644 5.868,116.008 6.185,116.327C5.823,116.077 5.529,115.735 5.348,115.324C5.167,114.914 5.076,114.481 5.031,114.048C4.986,113.615 4.963,113.182 4.895,112.772C4.85,112.339 4.737,111.928 4.533,111.541Z" style="fill:rgb(31,0,0);fill-rule:nonzero;"/>
    <path d="M50.005,109.946C49.711,110.288 49.44,110.63 49.281,111.017C49.191,111.222 49.123,111.427 49.078,111.632C49.01,111.838 48.942,112.065 48.829,112.271C48.422,113.091 47.811,113.752 47.155,114.345C47.698,113.638 48.263,112.954 48.625,112.179C48.716,111.974 48.806,111.792 48.874,111.587C48.942,111.382 49.033,111.154 49.123,110.949C49.327,110.538 49.666,110.219 50.005,109.946Z" style="fill:rgb(31,0,0);fill-rule:nonzero;"/>
    <path d="M39.169,149.466C38.694,149.831 38.354,150.332 37.992,150.811C37.811,151.062 37.608,151.29 37.381,151.495C37.155,151.7 36.861,151.859 36.567,151.973C36.273,152.087 35.934,152.11 35.617,152.042C35.3,151.973 35.029,151.791 34.78,151.632L34.033,151.13C33.785,150.948 33.536,150.788 33.287,150.606C33.558,150.743 33.807,150.902 34.079,151.039L34.87,151.495C35.142,151.654 35.368,151.791 35.662,151.837C35.934,151.905 36.228,151.859 36.499,151.768C37.042,151.586 37.472,151.176 37.856,150.72C38.06,150.492 38.241,150.264 38.467,150.036C38.648,149.808 38.897,149.603 39.169,149.466Z" style="fill:rgb(31,0,0);fill-rule:nonzero;"/>
    <path d="M20.754,149.99C20.211,150.264 19.713,150.606 19.261,150.971L18.899,151.244C18.786,151.336 18.673,151.427 18.537,151.518C18.288,151.7 17.994,151.837 17.677,151.906C17.067,152.042 16.41,151.928 15.868,151.609C15.596,151.45 15.347,151.267 15.144,151.039C14.94,150.811 14.782,150.537 14.669,150.264C14.827,150.515 15.008,150.765 15.234,150.948C15.46,151.153 15.687,151.313 15.958,151.45C16.478,151.7 17.089,151.814 17.632,151.678C17.768,151.655 17.904,151.609 18.039,151.541C18.175,151.472 18.288,151.427 18.424,151.336C18.673,151.176 18.899,150.971 19.148,150.811C19.397,150.651 19.645,150.469 19.917,150.332C20.188,150.218 20.483,150.081 20.754,149.99Z" style="fill:rgb(31,0,0);fill-rule:nonzero;"/>
    <path d="M24.305,150.446C24.079,150.811 23.876,151.176 23.672,151.54C23.491,151.905 23.333,152.292 23.242,152.703C23.152,153.09 23.197,153.5 23.265,153.911C23.355,154.321 23.491,154.731 23.559,155.141C23.401,154.754 23.22,154.366 23.084,153.956C22.948,153.546 22.903,153.09 22.993,152.657C23.22,151.791 23.717,151.062 24.305,150.446Z" style="fill:rgb(31,0,0);fill-rule:nonzero;"/>
    <path d="M43.103,127.131C43.217,126.743 43.284,126.378 43.284,126.036C43.217,126.401 43.171,126.766 43.103,127.131Z" style="fill-opacity:0.28;fill-rule:nonzero;"/>
    <path d="M32.879,163.369C32.675,161.819 32.584,160.269 33.06,158.788C33.467,157.557 34.236,156.44 35.163,155.552C36.046,154.708 37.086,153.751 38.195,153.25C38.376,153.158 38.602,153.09 38.76,153.204C38.874,153.272 38.941,153.409 38.987,153.546C39.597,155.21 39.733,156.987 39.869,158.765C39.982,160.383 40.118,161.979 40.231,163.597C40.457,161.751 40.57,159.882 40.616,158.036C40.661,156.281 40.887,154.116 40.435,152.429C39.665,149.535 39.462,146.686 40.661,143.814C41.634,141.489 42.063,138.982 42.652,136.475C43.986,130.959 45.479,125.489 46.565,119.928C45.253,124.942 42.923,129.637 41.475,134.629C40.502,138.002 39.937,141.466 38.964,144.839C38.353,147.005 37.652,151.335 34.553,150.856C33.263,150.651 32.177,149.671 31.544,148.509C30.91,147.347 30.639,146.047 30.368,144.748C29.304,139.392 28.422,133.991 28.399,128.543C28.377,123.096 29.236,117.558 31.544,112.635C32.245,111.153 33.06,109.718 33.987,108.373C34.824,107.165 35.344,105.82 36.001,104.521C36.317,103.883 36.657,103.245 36.996,102.629C37.177,102.287 37.539,101.262 37.856,101.057C34.711,102.834 32.765,106.208 29.847,108.373C29.033,108.988 28.083,109.512 27.087,109.398C25.255,109.193 24.395,107.188 23.445,105.866C22.902,105.114 22.359,104.362 21.839,103.632C21.635,103.336 21.409,103.017 21.409,102.652C21.409,102.105 21.861,101.695 22.223,101.285C22.585,100.874 22.902,100.259 22.563,99.826C22.382,99.598 22.02,99.393 22.133,99.119C22.156,99.051 22.223,98.983 22.291,98.937C22.744,98.573 23.309,98.39 23.852,98.185C26.295,97.319 28.761,96.498 31.227,95.746C27.766,96.179 24.259,96.134 20.798,95.632C20.481,95.587 20.187,95.427 19.871,95.359C19.735,95.336 19.599,95.313 19.463,95.29C19.328,95.268 19.192,95.245 19.056,95.222C18.921,95.199 18.785,95.177 18.672,95.154C18.536,95.131 18.378,95.085 18.242,95.063C18.129,95.04 18.016,95.017 17.88,94.994C17.676,94.949 17.473,94.903 17.269,94.857C17.179,94.835 17.088,94.812 16.998,94.789C16.771,94.721 16.545,94.675 16.296,94.607C16.206,94.584 16.115,94.561 16.025,94.516C15.844,94.47 15.663,94.402 15.505,94.356C15.414,94.333 15.301,94.288 15.21,94.265C15.029,94.197 14.848,94.151 14.668,94.083C14.577,94.06 14.509,94.014 14.419,93.991C14.147,93.9 13.898,93.809 13.627,93.695C13.491,93.65 13.355,93.581 13.22,93.536C13.174,93.513 13.129,93.49 13.084,93.467C12.993,93.421 12.903,93.399 12.812,93.353C12.745,93.33 12.699,93.308 12.631,93.262C12.564,93.216 12.473,93.194 12.405,93.148C10.347,92.145 8.876,90.003 8.559,87.724C8.74,89.023 7.496,91.416 7.157,92.715C6.501,95.222 6.048,97.706 5.596,100.236C5.143,102.675 4.895,105.342 5.867,107.689C6.275,108.692 6.795,109.376 6.75,110.538C6.704,111.7 6.704,112.794 6.953,113.934C7.066,114.458 7.202,114.982 7.157,115.507C7.134,115.803 6.976,116.145 6.704,116.145C6.569,116.145 6.455,116.076 6.342,116.008C6.003,115.78 5.686,115.552 5.37,115.302C5.664,116.122 5.98,116.943 6.275,117.763C6.478,118.287 6.682,118.834 6.682,119.404C6.704,120.156 6.455,120.817 6.546,121.546C6.75,123.21 7.564,124.783 7.564,126.469C7.564,128.224 8.062,129.934 8.514,131.643C9.939,137.181 12.586,142.469 13.129,148.19C13.22,149.056 13.242,149.945 13.152,150.811C13.061,151.517 12.88,152.201 12.745,152.885C11.772,157.42 12.134,162.116 12.835,166.651C13.152,168.634 13.288,170.571 13.966,172.44C14.713,174.583 14.984,177.112 15.391,179.346C15.527,180.053 15.663,180.782 15.821,181.511C16.523,181.853 17.292,181.99 18.061,182.013C17.722,182.013 16.545,174.947 16.342,174.15C15.64,171.232 14.577,168.452 14.125,165.489C13.649,162.389 13.627,159.198 14.079,156.076C14.147,155.552 14.238,155.027 14.532,154.571C15.346,153.341 17.065,153.432 18.264,152.885C18.807,152.634 19.396,152.497 19.916,152.201C20.527,151.837 20.911,151.221 21.205,150.606C21.386,150.218 21.545,149.831 21.613,149.398C21.635,149.261 21.522,148.304 21.545,148.281C19.554,150.036 16.432,150.742 15.007,147.848C14.396,146.617 14.328,145.204 14.17,143.859C13.876,141.535 13.288,139.278 12.745,136.999C11.908,133.444 11.252,129.865 10.731,126.241C10.03,120.589 9.645,114.618 11.908,109.421C12.428,108.213 13.016,107.347 14.373,107.21C15.844,107.074 16.952,107.735 17.993,108.76C24.735,115.552 23.219,125.786 23.445,134.583C23.603,140.395 23.716,146.344 21.839,151.859C21.432,153.067 21.839,153.432 22.178,154.458C23.513,158.492 22.925,163.096 22.698,167.266C22.427,172.053 21.341,176.771 21.07,181.534C21.273,181.511 21.477,181.534 21.658,181.602C22.404,178.867 23.083,175.996 23.468,173.169C23.897,170.07 24.44,167.016 24.667,163.87C24.802,161.979 24.87,160.155 24.689,158.287C24.486,156.326 24.169,154.344 24.305,152.361C24.373,151.267 24.576,150.173 24.78,149.101C25.707,143.951 26.544,138.709 26.725,133.489C26.974,125.991 27.246,118.606 26.295,111.131C27.087,111.017 27.902,111.062 28.693,111.29C27.472,113.068 26.929,115.233 26.748,117.398C26.567,119.541 26.703,121.729 26.748,123.871C26.793,126.811 26.635,129.774 26.703,132.714C26.77,135.609 27.517,138.389 27.675,141.238C28.037,147.21 27.427,153.204 27.947,159.175C28.06,160.611 28.264,162.024 28.467,163.437C28.603,164.326 29.01,165.101 29.169,165.967C29.349,166.993 29.417,168.064 29.576,169.113C29.87,171.141 30.277,173.283 30.594,175.357C30.729,176.269 30.707,177.295 30.865,178.252C30.978,178.913 30.82,179.825 31.227,180.417C31.815,181.26 32.924,180.964 33.648,181.511C33.874,176.292 34.078,171.027 33.286,165.853C33.127,165.033 32.992,164.212 32.879,163.369Z" style="fill-opacity:0.28;fill-rule:nonzero;"/>
    <g opacity="0.49">
        <path d="M31.477,27.03C31.748,26.529 32.042,26.255 32.404,25.662C32.472,25.571 32.563,25.412 32.766,25.07C32.857,24.91 33.083,24.5 33.083,24.5C33.083,24.5 33.264,24.158 33.377,23.976C33.626,23.52 33.762,23.224 33.83,23.064C34.124,22.449 34.192,22.039 34.44,21.537C34.169,22.039 33.875,22.312 33.513,22.905C33.422,23.041 33.264,23.315 32.993,23.771C32.879,23.953 32.699,24.295 32.699,24.295C32.699,24.295 32.472,24.705 32.404,24.888C32.223,25.229 32.156,25.412 32.11,25.503C31.816,26.118 31.726,26.529 31.477,27.03Z" style="fill:white;fill-opacity:0.06;fill-rule:nonzero;"/>
        <path d="M42.631,39.815C42.812,39.975 42.879,40.135 43.06,40.34C43.151,40.454 43.422,40.818 43.671,41.137C43.92,41.456 44.124,41.776 44.124,41.776C44.124,41.776 44.327,42.072 44.531,42.437C44.734,42.778 44.961,43.166 45.051,43.303C45.187,43.553 45.3,43.667 45.391,43.895C45.323,43.667 45.345,43.508 45.277,43.211C45.232,43.052 45.096,42.619 44.915,42.231C44.825,42.049 44.712,41.867 44.644,41.73C44.553,41.593 44.508,41.525 44.508,41.525C44.508,41.525 44.463,41.456 44.373,41.32C44.282,41.206 44.169,41.046 44.011,40.887C43.739,40.568 43.377,40.271 43.241,40.18C42.97,39.998 42.812,39.952 42.631,39.815Z" style="fill:white;fill-opacity:0.06;fill-rule:nonzero;"/>
        <path d="M10.574,40.956C10.529,41.001 10.438,41.001 10.348,41.047C10.325,41.07 10.28,41.092 10.235,41.115C10.189,41.161 10.121,41.184 10.076,41.229C9.963,41.32 9.895,41.412 9.895,41.412C9.895,41.412 9.805,41.503 9.737,41.617C9.692,41.662 9.669,41.731 9.646,41.799C9.624,41.845 9.601,41.913 9.601,41.936C9.579,42.027 9.579,42.118 9.556,42.187C9.601,42.141 9.692,42.141 9.782,42.096C9.805,42.073 9.85,42.05 9.895,42.027C9.94,41.982 10.008,41.959 10.054,41.913C10.167,41.822 10.235,41.731 10.235,41.731C10.235,41.731 10.325,41.64 10.393,41.526C10.438,41.457 10.461,41.412 10.483,41.343C10.506,41.298 10.529,41.229 10.529,41.206C10.529,41.115 10.529,41.024 10.574,40.956Z" style="fill:white;fill-opacity:0.06;fill-rule:nonzero;"/>
        <path d="M34.961,77.673C34.983,77.946 34.983,78.197 34.983,78.448C34.983,78.699 34.961,78.972 34.961,79.314C34.961,79.428 34.938,79.61 34.938,79.998C34.938,80.157 34.916,80.317 34.916,80.522C34.893,80.704 34.893,80.932 34.87,81.137C34.848,81.365 34.825,81.57 34.802,81.798C34.78,82.026 34.734,82.254 34.712,82.459C34.644,82.892 34.576,83.28 34.508,83.553C34.44,83.827 34.418,84.009 34.418,84.009C34.418,84.009 34.373,84.146 34.327,84.396C34.282,84.624 34.169,84.966 34.078,85.331C34.033,85.513 33.965,85.696 33.898,85.901C33.83,86.106 33.762,86.288 33.694,86.493C33.558,86.881 33.4,87.245 33.287,87.564C33.196,87.815 33.106,87.998 33.038,88.157C32.97,88.317 32.925,88.431 32.902,88.499C32.631,89.114 32.495,89.502 32.223,89.98C32.359,89.73 32.495,89.525 32.631,89.319C32.766,89.114 32.925,88.886 33.083,88.59C33.128,88.522 33.174,88.408 33.264,88.271C33.332,88.111 33.445,87.929 33.558,87.701C33.717,87.405 33.875,87.04 34.033,86.653C34.124,86.47 34.192,86.265 34.259,86.06C34.327,85.855 34.418,85.673 34.463,85.49C34.576,85.126 34.689,84.784 34.734,84.533C34.802,84.282 34.825,84.146 34.825,84.146C34.825,84.146 34.87,83.963 34.916,83.69C34.983,83.394 35.051,83.006 35.096,82.573C35.119,82.345 35.142,82.117 35.164,81.889C35.187,81.661 35.187,81.434 35.21,81.206C35.232,80.978 35.21,80.772 35.21,80.567L35.21,80.043C35.187,79.656 35.187,79.451 35.164,79.337C35.119,78.995 35.096,78.721 35.051,78.471C35.029,78.197 34.983,77.946 34.961,77.673Z" style="fill:white;fill-opacity:0.06;fill-rule:nonzero;"/>
        <path d="M27.766,78.356C27.744,78.926 27.653,79.314 27.608,79.997C27.608,80.111 27.585,80.294 27.585,80.704L27.585,81.73C27.585,82.094 27.608,82.391 27.608,82.391C27.608,82.391 27.631,82.641 27.653,82.96C27.676,83.279 27.721,83.667 27.744,83.94C27.812,84.465 27.857,84.784 27.879,84.943C27.993,85.627 28.128,85.992 28.219,86.561C28.151,85.992 28.219,85.604 28.196,84.92C28.196,84.761 28.174,84.419 28.151,83.918C28.128,83.371 28.06,82.391 28.06,82.391C28.06,82.391 27.993,81.205 27.947,80.704C27.925,80.317 27.902,80.134 27.902,80.02C27.857,79.314 27.766,78.926 27.766,78.356Z" style="fill:white;fill-opacity:0.06;fill-rule:nonzero;"/>
        <path d="M48.625,69.832C48.67,70.402 48.67,70.789 48.715,71.473C48.738,71.701 48.761,72.157 48.806,72.704C48.851,73.479 48.942,74.413 49.009,75.279C49.168,77.034 49.326,78.63 49.326,78.63C49.326,78.63 49.439,79.587 49.552,80.795C49.688,82.003 49.869,83.484 50.027,84.533C50.095,85.057 50.141,85.376 50.163,85.536C50.254,86.219 50.367,86.584 50.412,87.154C50.367,86.584 50.367,86.196 50.322,85.513C50.322,85.353 50.299,85.011 50.254,84.51C50.186,83.461 50.073,81.98 49.96,80.749C49.846,79.541 49.756,78.584 49.756,78.584C49.756,78.584 49.598,76.989 49.394,75.234C49.281,74.368 49.168,73.433 49.055,72.681C48.987,72.134 48.919,71.678 48.874,71.45C48.783,70.789 48.693,70.402 48.625,69.832Z" style="fill:white;fill-opacity:0.06;fill-rule:nonzero;"/>
        <path d="M15.799,81.206C15.483,81.684 15.188,81.935 14.759,82.482C14.691,82.573 14.578,82.733 14.329,83.029C14.216,83.166 14.057,83.394 13.899,83.599C13.763,83.804 13.65,83.963 13.65,83.963C13.65,83.963 13.56,84.1 13.424,84.282C13.311,84.465 13.152,84.693 13.062,84.852C12.79,85.308 12.655,85.604 12.587,85.764C12.293,86.402 12.247,86.79 12.021,87.314C12.247,86.79 12.519,86.493 12.858,85.923C12.949,85.787 13.107,85.513 13.401,85.08C13.605,84.761 13.989,84.191 13.989,84.191C13.989,84.191 14.442,83.507 14.623,83.211C14.826,82.892 14.94,82.71 14.985,82.619C15.392,82.072 15.505,81.684 15.799,81.206Z" style="fill:white;fill-opacity:0.06;fill-rule:nonzero;"/>
        <path d="M44.734,90.55C44.847,90.801 44.938,91.028 45.028,91.279C45.096,91.53 45.186,91.781 45.3,92.1C45.322,92.145 45.345,92.236 45.367,92.328C45.413,92.442 45.458,92.578 45.503,92.761C45.594,93.034 45.707,93.376 45.82,93.786C45.933,94.174 46.046,94.607 46.159,94.971C46.272,95.359 46.363,95.724 46.408,95.974C46.476,96.225 46.521,96.385 46.521,96.385C46.521,96.385 46.544,96.521 46.612,96.749C46.657,96.977 46.725,97.273 46.793,97.638C46.861,97.98 46.928,98.367 47.019,98.755C47.087,99.142 47.155,99.507 47.2,99.803C47.29,100.305 47.336,100.646 47.358,100.806C47.449,101.49 47.562,101.854 47.584,102.424C47.562,101.854 47.607,101.467 47.584,100.783C47.562,100.624 47.562,100.282 47.517,99.758C47.494,99.439 47.449,99.074 47.403,98.686C47.358,98.299 47.29,97.912 47.222,97.547C47.155,97.182 47.087,96.886 47.042,96.658C46.996,96.43 46.951,96.293 46.951,96.293C46.951,96.293 46.906,96.134 46.838,95.86C46.77,95.587 46.679,95.245 46.566,94.857C46.453,94.47 46.318,94.037 46.159,93.65C46.024,93.262 45.865,92.92 45.752,92.647C45.594,92.282 45.503,92.122 45.458,92.009C45.3,91.689 45.164,91.462 45.051,91.234C44.983,91.006 44.847,90.801 44.734,90.55Z" style="fill:white;fill-opacity:0.06;fill-rule:nonzero;"/>
        <path d="M20.459,116.783C20.482,117.353 20.437,117.74 20.437,118.424L20.437,119.131C20.437,119.883 20.459,121.159 20.482,122.253C20.505,123.347 20.527,124.236 20.527,124.236C20.527,124.236 20.55,124.988 20.573,125.945C20.595,126.903 20.64,128.065 20.686,128.886C20.708,129.41 20.731,129.729 20.731,129.888C20.776,130.572 20.821,130.96 20.844,131.529C20.844,130.96 20.912,130.572 20.935,129.888C20.935,129.729 20.957,129.387 20.98,128.863C21.002,128.019 21.025,126.857 21.002,125.9C21.002,124.943 20.98,124.19 20.98,124.19C20.98,124.19 20.957,123.302 20.912,122.208C20.867,121.114 20.776,119.86 20.708,119.085C20.663,118.698 20.663,118.515 20.64,118.401C20.573,117.74 20.482,117.353 20.459,116.783Z" style="fill:white;fill-opacity:0.06;fill-rule:nonzero;"/>
        <path d="M35.165,148.691C35.187,148.76 35.142,148.828 35.165,148.942C35.165,148.965 35.187,149.033 35.21,149.079C35.233,149.147 35.278,149.216 35.323,149.261C35.414,149.375 35.527,149.444 35.527,149.444C35.527,149.444 35.64,149.512 35.776,149.558C35.843,149.581 35.934,149.581 36.002,149.581C36.07,149.581 36.115,149.558 36.138,149.558C36.228,149.535 36.273,149.467 36.341,149.444C36.273,149.444 36.228,149.375 36.16,149.33C36.138,149.307 36.115,149.284 36.07,149.261C36.024,149.239 35.979,149.193 35.934,149.17C35.843,149.125 35.753,149.056 35.753,149.056C35.753,149.056 35.662,149.011 35.594,148.942C35.549,148.919 35.504,148.874 35.459,148.851C35.414,148.828 35.368,148.805 35.368,148.783C35.278,148.783 35.21,148.76 35.165,148.691Z" style="fill:white;fill-opacity:0.06;fill-rule:nonzero;"/>
        <path d="M17.202,147.78C17.202,147.848 17.157,147.917 17.134,147.985C17.111,148.053 17.089,148.122 17.066,148.213C17.066,148.259 17.044,148.373 17.066,148.509C17.089,148.646 17.111,148.783 17.179,148.92C17.225,149.057 17.315,149.171 17.36,149.262C17.428,149.353 17.473,149.399 17.473,149.399C17.473,149.399 17.519,149.444 17.586,149.513C17.654,149.581 17.767,149.672 17.903,149.741C18.039,149.809 18.175,149.878 18.288,149.9C18.401,149.946 18.514,149.923 18.559,149.946C18.65,149.946 18.74,149.923 18.808,149.9C18.876,149.878 18.944,149.855 19.012,149.855C18.944,149.855 18.876,149.832 18.808,149.809C18.718,149.764 18.672,149.741 18.604,149.718C18.559,149.695 18.491,149.672 18.401,149.604C18.356,149.581 18.31,149.558 18.265,149.513C18.22,149.49 18.175,149.444 18.129,149.399C18.039,149.33 17.948,149.239 17.903,149.193C17.835,149.125 17.813,149.102 17.813,149.102C17.813,149.102 17.79,149.057 17.722,148.988C17.677,148.92 17.609,148.829 17.541,148.737C17.496,148.692 17.473,148.646 17.451,148.578C17.428,148.532 17.406,148.464 17.383,148.418C17.338,148.327 17.315,148.236 17.292,148.19C17.27,148.145 17.247,148.076 17.225,147.985C17.202,147.917 17.202,147.848 17.202,147.78Z" style="fill:white;fill-opacity:0.06;fill-rule:nonzero;"/>
        <path d="M37.786,159.631C37.922,160.178 37.922,160.589 38.035,161.25C38.058,161.364 38.081,161.546 38.126,161.933C38.149,162.138 38.194,162.412 38.239,162.731C38.284,163.027 38.307,163.346 38.352,163.665C38.375,163.962 38.42,164.235 38.443,164.44C38.465,164.646 38.465,164.759 38.465,164.759C38.465,164.759 38.465,164.873 38.488,165.033C38.511,165.193 38.51,165.443 38.533,165.694C38.578,166.218 38.624,166.879 38.646,167.335C38.669,167.859 38.691,168.178 38.691,168.338C38.714,169.022 38.782,169.409 38.759,169.979C38.805,169.409 38.895,169.022 38.94,168.338C38.963,168.178 38.986,167.836 38.986,167.312C38.986,166.856 38.986,166.195 38.963,165.648C38.94,165.375 38.94,165.147 38.918,164.965C38.895,164.782 38.895,164.691 38.895,164.691C38.895,164.691 38.872,164.577 38.85,164.372C38.827,164.167 38.805,163.893 38.759,163.597C38.669,163.005 38.533,162.298 38.443,161.888C38.352,161.5 38.307,161.318 38.284,161.204C38.103,160.52 37.922,160.178 37.786,159.631Z" style="fill:white;fill-opacity:0.06;fill-rule:nonzero;"/>
        <path d="M20.415,158.72C20.573,159.267 20.618,159.654 20.754,160.315C20.776,160.429 20.822,160.611 20.912,160.999C21.071,161.705 21.433,163.369 21.433,163.369C21.433,163.369 21.727,164.782 21.862,165.557C21.953,166.059 22.021,166.378 22.066,166.56C22.202,167.221 22.337,167.608 22.405,168.178C22.36,167.608 22.405,167.221 22.337,166.537C22.315,166.378 22.292,166.036 22.247,165.534C22.202,165.147 22.111,164.577 22.043,164.121C21.953,163.666 21.885,163.324 21.885,163.324C21.885,163.324 21.795,162.891 21.681,162.389C21.568,161.888 21.387,161.295 21.274,160.953C21.161,160.589 21.093,160.406 21.048,160.292C20.799,159.586 20.596,159.244 20.415,158.72Z" style="fill:white;fill-opacity:0.06;fill-rule:nonzero;"/>
    </g>
    <path d="M12.203,80.909C13.357,78.766 15.122,76.054 15.529,73.684C15.846,71.769 15.054,68.921 14.782,66.983C14.737,66.733 14.692,66.505 14.579,66.3C14.488,66.163 14.398,66.072 14.285,65.958C13.583,65.228 13.086,64.317 12.859,63.359C12.656,64.932 11.864,66.505 11.434,68.032C10.914,69.878 10.394,71.724 9.941,73.593C9.624,74.846 9.353,76.168 9.24,77.467C9.127,78.812 9.33,80.157 9.375,81.524C9.443,83.712 9.285,85.855 9.081,88.043C9.308,85.558 11.027,83.257 12.135,81.114C12.135,81 12.181,80.955 12.203,80.909Z" style="fill:none;fill-rule:nonzero;stroke:rgb(36,0,0);stroke-width:0.23px;"/>
    <path d="M44.281,86.972C44.009,86.357 44.213,84.875 44.168,84.169C44.1,82.961 44.213,81.753 44.19,80.545C44.145,78.197 43.964,75.85 43.534,73.548C43.353,72.545 43.172,71.542 42.969,70.539C42.765,69.491 42.539,68.442 42.313,67.394C41.951,65.776 41.589,64.226 41.091,62.653C40.661,63.702 40.231,64.773 39.44,65.571C39.326,65.685 39.191,65.821 39.123,65.981C39.078,66.095 39.055,66.209 39.032,66.323C38.716,68.123 38.15,69.901 37.946,71.702C37.765,73.297 38.376,74.459 39.078,75.85C40.05,77.741 41.227,79.724 42.199,81.707C43.036,83.417 43.466,85.217 44.281,86.972Z" style="fill:none;fill-rule:nonzero;stroke:rgb(36,0,0);stroke-width:0.23px;"/>
    <path d="M37.065,52.557C37.699,50.483 37.88,47.839 37.88,45.673C37.857,44.169 37.857,42.642 37.812,41.138C37.789,40.409 37.744,39.679 37.653,38.95C37.586,38.312 37.405,37.56 37.495,36.944C37.88,36.785 38.287,36.716 38.694,36.762C38.762,36.762 38.852,36.785 38.898,36.83C38.943,36.876 38.966,36.967 38.988,37.058C39.463,40.021 39.689,43.007 39.803,45.993C39.893,47.953 39.803,49.981 40.074,51.918C40.436,54.471 41.454,56.819 41.454,59.394C41.454,60.488 41.341,61.582 41.069,62.63C40.821,63.588 40.232,64.294 39.87,65.16C39.803,65.297 39.757,65.434 39.712,65.571C39.011,66.004 38.174,66.004 37.382,65.981C35.255,65.935 33.129,65.89 31.002,65.776C30.052,65.73 29.147,65.662 28.197,65.685C27.134,65.707 26.093,65.685 25.03,65.662C23.401,65.616 21.772,65.821 20.121,65.867C18.04,65.912 16.049,66.072 13.968,65.73C13.312,64.385 12.452,63.155 12.248,61.628C12.045,60.1 12.09,58.528 12.361,57.024C12.565,55.907 12.882,54.813 13.153,53.696C13.877,50.824 14.33,47.884 14.692,44.944C14.759,44.42 15.325,37.149 15.37,37.149C15.574,37.149 16.909,36.899 16.909,37.241C16.931,41.07 16.614,44.853 16.592,48.659C16.569,50.505 16.343,52.625 17.361,54.22C17.904,55.064 18.718,55.679 19.578,56.089C21.026,56.819 22.609,57.092 24.193,57.274C26.093,57.502 28.016,57.662 29.939,57.571C30.821,57.525 31.817,57.548 32.654,57.252C33.265,57.047 34.124,56.819 34.622,56.386C35.617,55.542 36.658,53.833 37.065,52.557Z" style="fill:rgb(175,25,0);fill-rule:nonzero;stroke:rgb(36,0,0);stroke-width:0.23px;"/>
    <path d="M39.893,65.137C40.255,64.294 40.843,63.565 41.092,62.607C41.363,61.559 41.476,60.465 41.476,59.371C41.476,56.773 40.458,54.448 40.096,51.895C39.825,49.958 39.915,47.93 39.825,45.969C39.689,42.984 39.463,39.998 39.01,37.035C38.988,36.944 38.988,36.876 38.92,36.807C38.875,36.762 38.784,36.739 38.716,36.739C38.49,36.716 38.264,36.739 38.038,36.785C37.902,38.334 37.992,39.907 38.06,41.457C38.196,44.42 38.354,47.405 39.033,50.3C39.667,53.035 41.25,55.337 41.386,58.209C41.476,60.602 40.504,62.904 38.603,64.271C36.907,65.479 34.147,64.978 32.269,64.773C29.215,64.431 26.183,63.519 23.084,63.975C19.668,64.476 14.442,65.57 12.474,61.468C12.316,61.149 12.225,60.784 12.18,60.419C12.203,60.807 12.225,61.217 12.293,61.605C12.52,63.132 13.357,64.362 14.013,65.707C16.094,66.049 18.085,65.889 20.166,65.844C21.817,65.798 23.424,65.593 25.075,65.639C26.138,65.662 27.179,65.684 28.242,65.662C29.192,65.662 30.097,65.707 31.047,65.753C33.174,65.867 35.3,65.912 37.427,65.958C38.219,65.981 39.078,65.981 39.757,65.548C39.78,65.411 39.825,65.274 39.893,65.137Z" style="fill-opacity:0.28;fill-rule:nonzero;"/>
    <path d="M14.691,44.898C14.329,47.838 13.877,50.779 13.153,53.65C12.881,54.744 12.565,55.861 12.361,56.978C12.316,57.206 12.293,57.411 12.248,57.639C12.429,56.59 12.723,55.61 12.949,54.858C13.99,51.599 15.166,48.454 15.506,45.012C15.754,42.368 15.89,39.702 15.868,37.035C15.619,37.058 15.415,37.081 15.347,37.103C15.325,37.103 14.759,44.374 14.691,44.898Z" style="fill-opacity:0.28;fill-rule:nonzero;"/>
</svg>
