<?xml version="1.0" encoding="UTF-8" standalone="no"?>
<!DOCTYPE svg PUBLIC "-//W3C//DTD SVG 1.1//EN" "http://www.w3.org/Graphics/SVG/1.1/DTD/svg11.dtd">
<svg width="100%" height="100%" viewBox="0 0 50 205" version="1.1" xmlns="http://www.w3.org/2000/svg" xmlns:xlink="http://www.w3.org/1999/xlink" xml:space="preserve" xmlns:serif="http://www.serif.com/" style="fill-rule:evenodd;clip-rule:evenodd;stroke-miterlimit:10;">
    <path d="M13.203,21.163C12.807,24.018 12.544,26.896 12.39,29.774C12.28,31.633 11.687,34.954 13.071,36.437C13.489,36.88 14.038,37.145 14.609,37.389C18.674,39.115 23.178,39.558 27.595,39.447C32.011,39.337 36.384,38.695 40.8,38.296C41.283,38.252 41.833,38.186 42.162,37.832C42.558,37.389 42.492,36.703 42.404,36.105C41.591,31.213 41.042,26.232 40.009,21.362C39.196,17.555 38.779,13.636 37.482,9.962C36.911,8.346 36.274,6.531 35.373,4.937C34.494,3.365 33.351,1.993 31.791,1.174C30.451,0.465 28.891,0.31 27.397,0.443C26.65,0.509 25.771,0.598 25.068,0.864C24.541,1.063 24.211,1.373 23.574,1.329C23.112,1.284 22.651,1.151 22.168,1.151C21.443,1.129 20.739,1.439 20.146,1.882C16.762,4.405 15.466,7.881 14.565,11.954C13.884,14.987 13.62,18.086 13.203,21.163Z" style="fill-rule:nonzero;"/>
    <path d="M33.306,20.188C34.514,16.669 35.196,12.153 33.636,8.655C32.185,5.401 28.296,3.475 24.847,4.272C17.75,5.888 18.145,13.968 19.485,19.524C19.991,21.649 21.089,23.509 22.54,25.125C22.628,25.235 22.737,25.346 22.781,25.479C22.825,25.612 22.825,25.767 22.825,25.9C22.781,27.958 23.287,30.327 22.232,32.231C21.793,33.028 21.111,33.692 20.233,33.935C16.937,34.843 13.245,33.36 10.257,35.396C7.445,37.322 6.983,40.975 6.258,44.051C5.335,47.815 4.984,51.666 4.566,55.518C3.863,61.739 2.962,67.959 2.633,74.224C2.479,77.057 2.633,79.758 2.391,82.591C1.776,89.498 1.886,96.227 0.853,103.089C0.589,104.705 0.128,106.675 0.458,108.314C0.743,109.752 1.38,111.103 1.666,112.564C1.732,112.962 1.798,113.361 2.04,113.693C2.237,113.98 2.523,114.158 2.831,114.335C4.281,115.242 5.335,115.951 6.5,117.168C6.566,117.235 6.632,117.301 6.742,117.323C6.939,117.345 7.093,117.124 7.137,116.903C7.291,116.106 6.808,115.331 6.28,114.733C5.753,114.135 5.028,113.361 5.028,112.497C5.423,112.608 5.973,112.652 6.148,112.276C6.302,111.988 6.082,111.634 5.973,111.324C5.379,109.907 6.39,108.291 6.302,106.764C6.17,104.705 5.357,102.735 5.269,100.699C5.182,98.839 5.555,96.781 5.863,94.943C6.522,90.804 7.664,86.775 8.258,82.635C8.851,78.429 8.016,74.091 8.829,69.929C9.686,65.546 10.653,61.185 11.4,56.78C11.663,57.776 11.927,58.794 12.542,59.636C12.652,59.791 12.784,59.946 12.85,60.1C12.916,60.278 12.938,60.477 12.938,60.676C13.092,64.129 13.685,67.494 13.817,70.925C13.883,72.917 14.014,74.932 13.905,76.924C13.685,80.776 12.213,84.318 11.224,87.948C10.719,89.763 10.455,91.623 10.015,93.46C9.774,93.327 9.444,93.482 9.312,93.726C9.181,93.969 9.181,94.257 9.181,94.545C9.268,99.481 8.609,104.418 8.741,109.398C8.983,118.983 11.751,128.059 12.938,137.489C13.026,138.109 13.092,138.751 13.114,139.371C13.289,143.577 12.784,147.871 12.872,152.099C13.004,158.674 13.927,165.204 15.333,171.602C16.102,175.077 16.849,178.552 17.398,182.094C17.75,184.419 18.409,186.588 18.387,188.979C18.387,190.285 17.903,191.192 17.42,192.366C16.607,194.358 15.091,195.885 14.014,197.7C13.773,198.099 13.531,198.497 13.421,198.962C13.311,199.427 13.377,199.936 13.685,200.29C13.861,200.49 14.102,200.622 14.322,200.755C15.113,201.287 15.684,202.172 16.607,202.393C17.003,202.504 17.42,202.46 17.794,202.615C18.255,202.814 18.694,203.279 19.178,203.124C19.376,203.478 19.617,203.877 20.013,204.009C20.408,204.142 20.826,203.943 21.111,203.655C21.397,203.367 21.551,202.969 21.705,202.593C22.298,201.154 22.759,199.538 22.606,197.944C22.474,196.549 22.452,194.801 22.869,193.45C23.001,193.03 23.199,192.609 23.287,192.189C23.528,191.06 23.089,190.019 22.759,189.001C22.342,187.673 22.276,186.477 22.342,185.083C22.628,179.062 22.715,172.996 22.935,167.019C23.067,163.5 22.957,159.958 22.825,156.438C22.759,154.534 22.496,152.631 22.452,150.727C22.408,149.266 22.671,147.849 22.979,146.41C23.287,144.971 23.177,143.688 23.287,142.227C24.209,130.428 22.913,118.607 23.902,106.853C24.495,107.229 25.286,107.229 25.901,106.875C26.407,112.431 26.187,118.009 26.451,123.566C26.67,128.192 26.692,132.819 26.758,137.445C26.78,139.371 26.714,141.297 26.692,143.223C26.67,145.591 27.549,147.716 27.527,150.107C27.461,156.394 27.33,162.703 27.703,168.99C28.121,175.83 28.56,182.803 27.132,189.532C27.044,189.975 26.934,190.44 26.934,190.905C26.934,191.303 27.022,191.679 27.088,192.078C27.395,193.871 27.176,195.598 27.066,197.391C27,198.365 26.868,199.56 27.308,200.423C27.769,201.287 28.23,202.238 28.67,203.035C29.131,203.899 29.768,204.186 30.779,203.655C30.955,203.567 31.131,203.434 31.307,203.345C31.482,203.257 31.658,203.19 31.856,203.102C32.603,202.792 33.35,202.438 34.053,202.017C34.229,201.906 34.405,201.796 34.558,201.707C34.866,201.53 35.152,201.331 35.459,201.154C36.272,200.645 37.173,199.958 37.129,199.007C37.129,198.896 37.107,198.785 37.085,198.697C37.063,198.586 37.019,198.497 36.975,198.409C36.514,197.457 35.657,196.926 34.976,196.151C34.141,195.221 33.614,194.026 33.108,192.897C32.889,192.388 32.647,191.879 32.537,191.347C31.416,185.525 33.46,179.836 34.734,174.236C35.811,169.454 36.822,164.429 37.107,159.515C37.283,156.66 37.107,153.782 36.975,150.926C36.865,148.513 36.272,145.99 36.58,143.577C36.887,141.098 37.283,138.53 37.459,136.051C37.744,132 38.975,127.904 39.7,123.898C40.777,118.009 41.326,112.01 41.282,106.011C41.26,103.355 41.128,100.765 40.93,98.109C40.864,97.201 40.777,96.293 40.711,95.386C40.689,95.12 40.82,93.571 40.601,93.46C40.469,93.394 40.337,93.549 40.183,93.504C40.051,93.482 40.007,93.305 39.986,93.172C39.458,89.852 38.338,86.708 37.525,83.477C35.789,76.614 36.162,69.353 37.437,62.469C37.547,61.871 37.656,61.274 37.876,60.698C38.535,58.927 39.085,57.09 39.151,55.186C39.085,57.488 39.546,59.923 39.634,62.225C39.744,64.904 40.425,67.516 40.601,70.173C40.864,74.578 40.952,78.784 41.875,83.078C42.6,86.421 43.347,89.763 43.875,93.15C44.16,95.01 44.644,96.913 44.666,98.817C44.71,100.654 44.16,102.602 43.721,104.373C43.369,105.879 43.962,107.162 43.831,108.646C43.721,109.752 43.369,110.859 43.237,112.01C43.193,112.365 43.171,112.763 43.413,113.029C43.633,113.25 43.984,113.272 44.27,113.184C44.556,113.073 44.797,112.852 45.039,112.652C44.907,113.405 44.797,114.29 44.49,114.999C44.16,115.751 43.457,116.305 43.259,117.146C43.215,117.345 43.215,117.611 43.369,117.766C44.182,118.585 47.368,114.423 47.764,113.936C48.445,113.095 49.236,112.365 49.28,111.236C49.324,110.107 49.126,108.889 49.148,107.716C49.346,101.164 47.939,94.633 48.071,88.081C48.137,84.561 48.159,80.975 47.895,77.478C47.654,74.401 46.819,71.523 46.819,68.468C46.797,64.506 46.511,60.565 46.182,56.603C45.896,52.928 45.215,49.298 45.105,45.601C45.017,42.192 45.193,38.03 42.051,35.773C40.755,34.843 39.216,34.422 37.656,34.334C36.558,34.267 35.415,34.511 34.317,34.533C33.13,34.555 31.812,34.378 30.757,33.825C29.351,33.072 29.439,31.146 29.351,29.707C29.285,28.622 29.373,27.471 29.505,26.409C29.505,26.32 29.527,26.232 29.549,26.165C29.593,26.055 29.68,25.966 29.746,25.878C31.285,24.129 32.603,22.247 33.306,20.188Z" style="fill:rgb(226,168,138);fill-rule:nonzero;"/>
    <path d="M27.373,200.38C27.505,200.601 27.615,200.844 27.746,201.088C27.615,199.981 27.615,198.808 27.79,197.856C27.9,197.214 28.098,196.594 28.076,195.952C28.054,195.355 27.878,194.801 27.812,194.203C27.636,192.809 28.186,191.304 28.296,189.909C28.669,184.862 28.823,179.77 29.416,174.746C29.944,170.141 29.482,165.293 29.57,160.622C29.614,158.187 29.724,155.775 29.856,153.34C29.965,151.547 29.724,149.621 30.515,147.96C31.284,146.344 32.229,144.839 33.371,143.467C33.503,143.312 33.635,143.157 33.657,142.958C33.701,142.537 33.283,142.227 32.888,142.116C31.899,141.807 30.625,141.209 29.988,140.368C29.065,139.128 29.218,137.291 29.24,135.785C29.284,129.941 28.933,124.12 29.109,118.275C29.24,113.959 29.438,109.554 30.515,105.348C31.504,101.408 34.536,99.858 37.7,97.578C38.579,96.936 39.589,96.028 39.348,94.966C35.656,96.98 32.185,99.305 28.669,101.585C27.197,102.536 25.571,103.533 23.835,103.267C22.385,103.046 21.111,101.939 19.661,102.049C20.012,102.027 21.836,109.155 21.902,109.886C22.385,114.689 22.253,119.493 22.407,124.319C22.605,130.362 23.198,136.582 22.891,142.648C22.759,145.459 21.66,148.138 21.946,151.037C22.1,152.631 22.605,153.982 22.847,155.487C22.737,153.915 22.561,152.343 22.517,150.772C22.473,149.311 22.737,147.894 23.044,146.455C23.352,145.016 23.242,143.732 23.352,142.271C24.275,130.473 22.978,118.652 23.967,106.897C24.56,107.274 25.351,107.274 25.967,106.919C26.472,112.476 26.252,118.054 26.516,123.61C26.736,128.237 26.758,132.863 26.824,137.49C26.845,139.416 26.78,141.342 26.758,143.268C26.736,145.636 27.615,147.761 27.593,150.152C27.527,156.439 27.395,162.748 27.768,169.034C28.186,175.874 28.625,182.847 27.197,189.577C27.109,190.02 26.999,190.485 26.999,190.949C26.999,191.348 27.087,191.724 27.153,192.123C27.461,193.916 27.241,195.642 27.131,197.435C27.065,198.321 26.911,199.538 27.373,200.38Z" style="fill:rgb(174,106,83);fill-opacity:0.71;fill-rule:nonzero;"/>
    <path d="M6.719,117.346C6.917,117.368 7.07,117.146 7.114,116.925C7.268,116.128 6.785,115.353 6.257,114.756C5.73,114.158 5.005,113.383 5.005,112.52C5.401,112.631 5.95,112.675 6.126,112.298C6.279,112.011 6.06,111.657 5.95,111.347C5.357,109.93 6.367,108.314 6.279,106.787C6.148,104.728 5.335,102.758 5.247,100.721C5.159,98.862 5.532,96.803 5.84,94.966C6.499,90.826 7.642,86.797 8.235,82.658C8.828,78.452 7.993,74.113 8.806,69.952C9.663,65.569 10.63,61.208 11.377,56.802C11.641,57.799 11.904,58.817 12.52,59.658C12.629,59.813 12.761,59.968 12.827,60.123C12.893,60.3 12.915,60.499 12.915,60.698C13.069,64.152 13.662,67.516 13.794,70.948C13.86,72.94 13.992,74.954 13.882,76.947C13.684,80.776 12.212,84.318 11.223,87.948C10.718,89.764 10.454,91.623 10.015,93.46C9.773,93.328 9.443,93.483 9.312,93.726C9.18,93.97 9.18,94.257 9.18,94.545C9.268,99.482 8.609,104.418 8.74,109.399C8.982,118.984 11.751,128.06 12.937,137.49C13.025,138.11 13.091,138.752 13.113,139.371C13.289,143.577 12.783,147.872 12.871,152.1C13.003,158.674 13.926,165.205 15.332,171.602C16.101,175.077 16.848,178.553 17.397,182.095C17.749,184.419 18.408,186.588 18.386,188.979L18.386,189.09C19.287,187.075 18.782,185.482 18.518,182.936C18.078,178.597 17.595,174.281 17.024,169.964C16.562,166.356 15.991,162.747 15.486,159.139C15.178,157.014 14.607,154.778 14.673,152.631C14.739,150.661 15.662,148.824 16.167,146.92C16.431,145.924 16.365,144.618 17.244,143.909C17.507,143.688 17.881,143.644 18.21,143.555C19.309,143.245 20.276,142.006 19.792,140.965C18.782,141.563 17.09,142.47 15.991,141.585C15.288,141.009 15.244,139.615 15.046,138.752C14.387,135.785 14.211,132.73 13.684,129.72C13.003,125.691 12.146,121.684 11.465,117.655C10.41,111.435 10.41,103.532 12.388,97.489C12.476,97.246 12.564,97.002 12.783,96.869C12.981,96.759 13.201,96.803 13.42,96.847C15.596,97.268 17.551,98.397 19.639,99.105C22.275,99.991 25.154,100.19 27.834,99.459C30.515,98.729 32.954,97.024 34.404,94.634C33.064,94.855 27.241,95.984 26.384,94.523C25.527,93.04 25.571,90.339 25.417,88.679C25.11,85.536 24.824,82.392 24.78,79.249C24.868,83.92 25.132,88.9 24.407,93.527C24.253,94.567 23.857,95.807 22.627,95.718C21.352,95.63 12.849,95.408 13.135,93.283C13.882,87.86 16.035,82.813 16.606,77.367C17.178,72.032 15.837,67.096 15.771,61.827C15.771,61.783 15.771,61.717 15.793,61.672C15.837,61.606 15.903,61.584 15.947,61.562C16.958,61.163 17.859,60.831 18.957,60.831C19.814,60.853 23.659,59.968 24.143,60.743C24.253,60.942 24.253,61.185 24.275,61.407C24.319,62.005 24.56,62.58 24.934,63.023C25.307,62.934 25.241,62.403 25.285,62.027C25.351,61.318 26.076,60.876 26.758,60.698C28.735,60.189 31.196,61.008 33.217,61.053C34.074,61.075 34.953,60.964 35.788,60.721C36.118,60.632 36.447,60.521 36.777,60.544C37.172,60.566 37.502,60.765 37.766,61.075C37.81,60.92 37.853,60.787 37.919,60.632C38.579,58.861 39.128,57.024 39.194,55.12C39.128,57.422 39.589,59.857 39.677,62.159C39.787,64.838 40.468,67.45 40.644,70.106C40.908,74.512 40.996,78.718 41.918,83.012C42.643,86.355 43.39,89.697 43.918,93.084C44.203,94.944 44.687,96.847 44.709,98.751C44.753,100.588 44.203,102.536 43.764,104.307C43.412,105.812 44.006,107.096 43.874,108.58C43.764,109.686 43.412,110.793 43.281,111.944C43.237,112.298 43.215,112.697 43.456,112.963C43.676,113.184 44.028,113.206 44.313,113.118C44.599,113.007 44.841,112.785 45.082,112.586C44.951,113.339 44.841,114.224 44.533,114.933C44.203,115.685 43.5,116.239 43.303,117.08C43.259,117.279 43.259,117.545 43.412,117.7C43.566,117.855 43.786,117.833 44.072,117.7C44.731,116.482 45.39,115.243 46.049,114.025C46.379,113.427 46.686,112.808 46.708,112.144C46.73,111.679 46.598,111.214 46.489,110.749C46.159,109.089 46.423,107.362 46.686,105.68C46.005,107.561 45.324,109.421 44.665,111.302C44.555,111.59 44.247,111.944 44.006,111.745C43.896,111.657 43.918,111.479 43.918,111.347C44.094,109.155 44.094,106.875 44.357,104.728C44.599,102.691 45.5,100.81 45.654,98.751C45.939,94.944 45.038,91.446 44.445,87.705C43.984,84.827 43.61,81.861 43.984,78.961C44.291,76.637 45.148,74.312 45.082,71.922C45.082,71.722 45.06,71.501 44.951,71.302C44.775,70.992 44.401,70.859 44.094,70.682C43.171,70.151 42.731,69.066 42.38,68.07C41.523,65.723 41.215,63.598 40.974,61.141C40.622,57.599 39.919,54.124 39.282,50.649C38.381,45.823 37.919,41.063 37.7,36.149C37.678,35.397 37.744,34.821 38.183,34.334C38.029,34.312 37.875,34.312 37.722,34.29C36.623,34.223 35.48,34.467 34.382,34.489C33.195,34.511 31.877,34.334 30.822,33.781C29.965,33.316 29.658,32.43 29.526,31.456C29.24,32.563 29.636,33.936 30.647,34.4C32.295,35.175 34.228,34.799 35.964,34.777C36.008,34.777 36.074,34.777 36.118,34.799C36.162,34.843 36.184,34.91 36.206,34.976C36.887,37.212 36.909,39.381 36.469,41.728C36.03,44.096 35.173,46.376 34.755,48.789C34.47,50.493 33.701,51.932 32.404,53.106C31.767,53.681 31.196,54.367 30.449,54.81C29.109,55.607 28.362,54.589 27.109,54.788C26.735,54.832 26.406,55.032 26.076,55.231C25.285,55.718 24.494,56.271 23.572,56.293C22.956,56.293 21.814,55.673 21.286,55.319C19.814,54.345 18.364,53.416 16.98,52.309C16.321,51.778 16.299,51.069 15.991,50.339C15.64,49.52 15.398,48.678 15.244,47.815C14.937,46.066 15.024,44.251 15.134,42.48C15.222,41.063 15.288,39.669 15.376,38.252C15.42,37.389 15.464,36.548 15.64,35.706C15.684,35.485 15.749,35.242 15.903,35.087C16.079,34.91 16.365,34.843 16.628,34.821C17.683,34.688 18.738,34.71 19.77,34.489C23.198,33.736 23.044,29.243 26.318,28.335C27.592,27.981 28.164,27.184 28.757,25.966C26.78,27.671 24.099,25.679 22.847,24.041C21.484,22.292 20.847,20.078 20.364,17.931C20.21,17.223 19.595,15.142 20.144,14.5C20.21,14.411 20.342,14.367 20.452,14.323C22.495,13.659 24.582,13.349 26.67,12.795C27.417,12.596 28.405,12.53 29.109,12.198C29.79,11.888 29.922,11.29 30.053,10.537C30.141,10.847 30.229,11.179 30.339,11.489C30.515,12.065 30.8,11.799 31.218,11.821C32.009,11.91 32.778,12.286 33.547,12.463C33.767,12.507 33.877,14.633 33.899,14.898C33.964,15.762 33.899,16.426 33.723,17.245C33.547,18.086 33.437,18.949 33.371,19.812C34.492,16.359 35.063,12.065 33.569,8.678C32.119,5.424 28.23,3.498 24.78,4.295C17.683,5.911 18.078,13.991 19.419,19.547C19.924,21.672 21.023,23.531 22.473,25.147C22.561,25.258 22.671,25.369 22.715,25.502C22.759,25.634 22.759,25.789 22.759,25.922C22.715,27.981 23.22,30.349 22.165,32.253C21.726,33.05 21.045,33.714 20.166,33.958C18.078,34.533 15.837,34.157 13.706,34.312C13.816,34.755 13.882,35.197 13.904,35.662C14.211,40.754 12.673,46.022 11.311,50.87C9.509,57.356 8.411,64.063 7.202,70.682C7.114,71.125 7.027,71.59 6.807,71.988C6.587,72.387 6.192,72.719 5.752,72.741C5.357,72.763 4.873,72.564 4.61,72.874C4.478,73.006 4.456,73.206 4.456,73.383C4.324,75.087 5.247,76.305 5.598,77.943C6.499,82.038 6.323,86.266 5.774,90.383C5.488,92.486 5.027,94.545 4.675,96.648C4.434,98.087 3.511,100.146 3.906,101.562C4.192,102.625 4.917,103.422 5.181,104.506C5.796,107.052 5.357,109.62 5.84,112.188C5.554,112.431 5.181,112.055 5.005,111.745C4.082,110.063 3.313,108.292 2.676,106.477C2.918,109.111 2.5,112.653 3.797,114.999C3.819,115.021 3.841,115.066 3.841,115.088C4.763,115.707 5.554,116.327 6.411,117.213C6.543,117.257 6.631,117.323 6.719,117.346Z" style="fill:rgb(174,106,83);fill-opacity:0.71;fill-rule:nonzero;"/>
    <path d="M37.04,198.343C36.644,197.524 35.963,197.015 35.348,196.395C35.656,196.816 35.985,197.258 36.315,197.701C36.6,198.077 36.908,198.454 37.084,198.919C37.128,199.007 37.15,199.096 37.172,199.206C37.172,199.118 37.194,199.051 37.194,198.963C37.194,198.852 37.172,198.741 37.15,198.653C37.106,198.52 37.084,198.432 37.04,198.343Z" style="fill:rgb(174,106,83);fill-opacity:0.71;fill-rule:nonzero;"/>
    <path d="M32.558,181.453C32.118,183.002 32.03,184.729 31.898,186.323C31.657,189.289 32.36,191.591 33.612,193.783C33.458,193.473 33.327,193.163 33.173,192.831C32.953,192.322 32.711,191.813 32.602,191.281C31.547,185.836 33.283,180.479 34.535,175.232C33.546,177.136 33.107,179.483 32.558,181.453Z" style="fill:rgb(174,106,83);fill-opacity:0.71;fill-rule:nonzero;"/>
    <path d="M17.815,202.614C18.277,202.814 18.716,203.278 19.2,203.123C19.397,203.478 19.639,203.876 20.035,204.009C20.43,204.142 20.848,203.943 21.133,203.655C21.419,203.367 21.573,202.969 21.726,202.592C22.32,201.153 22.781,199.537 22.627,197.944C22.496,196.549 22.474,194.8 22.891,193.45C23.023,193.029 23.221,192.609 23.308,192.188C23.55,191.059 23.111,190.019 22.781,189C22.364,187.672 22.298,186.477 22.364,185.082C22.649,179.061 22.737,172.996 22.957,167.019C23.067,164.008 23.001,160.998 22.913,157.987C22.803,160.157 22.452,162.326 22.342,164.495C22.144,168.391 21.88,172.265 21.726,176.161C21.595,179.438 21.946,182.869 21.617,186.078C21.551,186.765 21.485,187.451 21.617,188.115C21.858,189.155 22.605,190.196 22.583,191.281C22.539,192.365 21.77,193.14 21.419,194.136C20.76,195.996 21.463,198.076 21.309,200.002C21.067,202.991 19.507,201.817 17.398,201.707C16.871,201.685 16.299,201.773 15.904,201.419C15.42,200.998 15.289,200.047 14.651,200.135C14.476,200.157 14.344,200.268 14.168,200.334C14.058,200.379 13.948,200.401 13.838,200.401C13.992,200.511 14.146,200.6 14.3,200.711C15.091,201.242 15.662,202.127 16.585,202.349C17.024,202.482 17.442,202.459 17.815,202.614Z" style="fill:rgb(174,106,83);fill-opacity:0.71;fill-rule:nonzero;"/>
    <path d="M37.546,135.962C37.832,131.911 39.062,127.816 39.788,123.81C40.864,117.921 41.413,111.922 41.369,105.923C41.347,103.267 41.216,100.677 41.018,98.021C40.952,97.113 40.864,96.205 40.798,95.298C40.776,95.143 40.842,94.479 40.82,93.97C40.71,93.416 40.535,93.328 39.612,93.593C39.326,93.682 39.018,93.748 38.733,93.837C38.184,93.97 37.656,94.169 37.107,94.302C30.361,95.696 23.748,96.228 16.914,95.165C15.64,94.966 14.388,94.744 13.135,94.412C12.454,94.235 11.817,93.97 11.158,93.748C9.686,93.306 9.532,93.483 9.224,94.7C9.29,99.592 8.653,104.462 8.785,109.354C9.026,118.939 11.795,128.015 12.981,137.446C13.069,138.065 13.135,138.707 13.157,139.327C13.333,143.533 12.828,147.828 12.916,152.056C13.047,158.63 13.97,165.16 15.376,171.558C15.596,172.598 15.838,173.661 16.058,174.701C16.453,174.989 16.914,175.188 17.398,175.343C19.112,175.897 21.045,175.874 22.781,175.343C22.869,172.532 22.935,169.743 23.045,166.976C23.177,163.456 23.067,159.914 22.935,156.394C22.869,154.491 22.605,152.587 22.561,150.683C22.517,149.222 22.781,147.805 23.089,146.367C23.396,144.928 23.286,143.644 23.396,142.183C24.319,130.384 23.023,118.563 24.011,106.809C24.605,107.185 25.396,107.185 26.011,106.831C26.516,112.387 26.297,117.965 26.56,123.522C26.78,128.148 26.802,132.775 26.868,137.401C26.89,139.327 26.824,141.253 26.802,143.179C26.78,145.547 27.659,147.673 27.637,150.063C27.571,156.35 27.439,162.659 27.813,168.946C27.923,170.761 28.032,172.576 28.12,174.413C28.164,174.436 28.208,174.458 28.23,174.48C29.834,175.232 32.515,175.432 34.69,174.923C34.756,174.679 34.8,174.436 34.866,174.17C35.942,169.388 36.953,164.363 37.239,159.449C37.414,156.594 37.239,153.716 37.107,150.86C36.997,148.447 36.404,145.924 36.711,143.511C36.975,141.032 37.371,138.464 37.546,135.962Z" style="fill:rgb(175,25,0);fill-rule:nonzero;stroke:rgb(36,0,0);stroke-width:0.22px;"/>
    <path d="M24.889,91.468C24.757,90.339 24.691,89.21 24.647,88.081C24.604,86.952 24.581,85.823 24.581,84.672C24.604,83.543 24.626,82.414 24.691,81.263C24.735,80.688 24.757,80.134 24.801,79.559C24.845,79.005 24.889,78.43 24.955,77.876L24.845,81.263C24.823,82.392 24.779,83.521 24.779,84.65C24.757,85.779 24.779,86.908 24.779,88.037C24.823,89.21 24.845,90.339 24.889,91.468Z" style="fill:rgb(31,0,0);fill-rule:nonzero;"/>
    <path d="M44.797,72.653C44.687,72.941 44.555,73.229 44.314,73.45C44.204,73.561 44.05,73.65 43.896,73.716C43.808,73.738 43.72,73.738 43.633,73.738C43.545,73.716 43.457,73.694 43.369,73.65C43.061,73.45 42.907,73.163 42.798,72.875C42.688,72.587 42.6,72.277 42.534,71.989C42.688,72.254 42.798,72.542 42.951,72.808C43.017,72.941 43.105,73.074 43.193,73.185C43.281,73.295 43.369,73.406 43.479,73.473C43.523,73.517 43.589,73.517 43.655,73.539C43.72,73.539 43.786,73.539 43.83,73.517C43.962,73.495 44.072,73.406 44.204,73.34C44.423,73.14 44.599,72.897 44.797,72.653Z" style="fill:rgb(31,0,0);fill-rule:nonzero;"/>
    <path d="M7.201,73.471C7.091,73.759 6.959,74.047 6.717,74.268C6.608,74.379 6.454,74.468 6.3,74.534C6.212,74.556 6.124,74.556 6.036,74.556C5.948,74.534 5.86,74.512 5.773,74.468C5.465,74.268 5.311,73.98 5.201,73.693C5.091,73.405 5.004,73.095 4.938,72.807C5.091,73.072 5.201,73.36 5.355,73.626C5.421,73.759 5.509,73.892 5.597,74.003C5.685,74.113 5.773,74.224 5.882,74.29C5.926,74.335 5.992,74.335 6.058,74.357C6.124,74.357 6.19,74.357 6.234,74.335C6.366,74.313 6.476,74.224 6.608,74.158C6.849,73.98 7.025,73.715 7.201,73.471Z" style="fill:rgb(31,0,0);fill-rule:nonzero;"/>
    <path d="M3.204,107.406C3.358,107.605 3.49,107.849 3.6,108.092C3.709,108.336 3.775,108.579 3.841,108.845C3.973,109.354 4.061,109.863 4.149,110.373C4.259,110.882 4.369,111.369 4.566,111.834C4.676,112.055 4.808,112.276 4.984,112.431C5.072,112.498 5.204,112.564 5.313,112.564C5.445,112.564 5.555,112.542 5.687,112.498C5.577,112.564 5.445,112.608 5.313,112.608C5.182,112.608 5.05,112.586 4.918,112.498C4.676,112.343 4.522,112.121 4.391,111.878C4.149,111.413 4.017,110.882 3.907,110.373C3.797,109.863 3.731,109.354 3.643,108.845C3.578,108.38 3.424,107.871 3.204,107.406Z" style="fill:rgb(31,0,0);fill-rule:nonzero;"/>
    <path d="M44.578,113.14C45.039,112.719 45.237,112.144 45.347,111.568C45.413,111.28 45.479,110.97 45.545,110.683C45.611,110.395 45.698,110.107 45.786,109.819C45.962,109.244 46.16,108.668 46.292,108.093C46.445,107.517 46.533,106.919 46.533,106.322C46.577,106.61 46.577,106.919 46.577,107.229C46.555,107.539 46.511,107.827 46.467,108.137C46.358,108.735 46.182,109.31 46.006,109.886C45.83,110.461 45.654,111.037 45.501,111.612C45.413,111.9 45.325,112.188 45.171,112.476C45.017,112.719 44.82,112.963 44.578,113.14Z" style="fill:rgb(31,0,0);fill-rule:nonzero;"/>
    <path d="M33.307,141.94C32.999,142.073 32.647,142.14 32.318,142.095C31.966,142.073 31.637,141.985 31.329,141.83C30.714,141.52 30.209,141.054 29.791,140.523C30.318,140.944 30.824,141.342 31.417,141.63C31.703,141.763 32.01,141.874 32.34,141.918C32.647,141.985 32.977,141.985 33.307,141.94Z" style="fill:rgb(31,0,0);fill-rule:nonzero;"/>
    <path d="M20.252,140.323C20.076,140.655 19.856,140.987 19.593,141.275C19.329,141.563 18.999,141.784 18.648,141.962C18.296,142.117 17.901,142.183 17.527,142.227C17.154,142.249 16.758,142.227 16.385,142.205C17.132,142.117 17.901,142.072 18.56,141.784C18.89,141.652 19.197,141.43 19.483,141.186C19.768,140.899 20.01,140.611 20.252,140.323Z" style="fill:rgb(31,0,0);fill-rule:nonzero;"/>
    <path d="M22.211,189.377C22.321,189.62 22.431,189.864 22.519,190.107C22.607,190.351 22.695,190.617 22.673,190.927C22.673,191.081 22.607,191.236 22.541,191.347C22.453,191.458 22.365,191.568 22.277,191.679C22.08,191.878 21.882,192.033 21.64,192.188C21.816,191.989 21.992,191.79 22.145,191.568C22.299,191.369 22.453,191.148 22.453,190.927C22.475,190.683 22.409,190.44 22.343,190.174C22.321,189.93 22.233,189.665 22.211,189.377Z" style="fill:rgb(31,0,0);fill-rule:nonzero;"/>
    <path d="M27.748,189.709C27.638,190.13 27.55,190.528 27.572,190.949C27.572,191.148 27.616,191.347 27.704,191.546C27.77,191.746 27.88,191.923 27.99,192.1C27.814,191.989 27.638,191.812 27.528,191.613C27.418,191.413 27.352,191.192 27.352,190.971C27.331,190.506 27.484,190.063 27.748,189.709Z" style="fill:rgb(31,0,0);fill-rule:nonzero;"/>
    <path d="M18.497,11.025C18.651,13.947 18.782,16.648 19.485,19.503C19.991,21.628 21.089,23.488 22.54,25.104C22.628,25.214 22.737,25.325 22.781,25.458C22.825,25.591 22.825,25.746 22.825,25.879C22.781,27.937 23.287,30.306 22.232,32.209C21.793,33.006 21.111,33.67 20.233,33.914C16.937,34.822 13.245,33.338 10.257,35.375C7.445,37.301 6.983,40.953 6.258,44.03C5.335,47.794 4.984,51.645 4.566,55.497C3.863,61.717 2.962,67.938 2.633,74.202C2.479,77.036 2.633,79.736 2.391,82.57C1.776,89.476 1.886,96.206 0.853,103.068C0.589,104.706 0.128,106.676 0.458,108.315C0.743,109.753 1.38,111.104 1.666,112.565C1.732,112.963 1.798,113.362 2.04,113.694C2.237,113.981 2.523,114.159 2.831,114.336C4.281,115.243 5.335,115.952 6.5,117.169C6.566,117.236 6.632,117.302 6.742,117.324C6.939,117.346 7.093,117.125 7.137,116.903C7.291,116.107 6.808,115.332 6.28,114.734C5.753,114.136 5.028,113.362 5.028,112.498C5.423,112.609 5.973,112.653 6.148,112.277C6.302,111.989 6.082,111.635 5.973,111.325C5.379,109.908 6.39,108.292 6.302,106.765C6.17,104.706 5.357,102.736 5.269,100.7C5.182,98.84 5.555,96.781 5.863,94.944C6.522,90.805 7.664,86.776 8.258,82.636C8.851,78.43 8.016,74.092 8.829,69.93C9.686,65.547 10.653,61.186 11.4,56.781C11.663,57.777 11.927,58.795 12.542,59.637C12.652,59.792 12.784,59.946 12.85,60.101C12.916,60.279 12.938,60.478 12.938,60.677C13.092,64.13 13.685,67.495 13.817,70.926C13.883,72.918 14.014,74.933 13.905,76.925C13.685,80.777 12.213,84.319 11.224,87.949C10.719,89.764 10.455,91.624 10.015,93.461C9.774,93.328 9.444,93.483 9.312,93.727C9.18,93.97 9.181,94.258 9.181,94.546C9.268,99.482 8.609,104.419 8.741,109.399C8.983,118.984 11.751,128.06 12.938,137.49C13.026,138.11 13.092,138.752 13.114,139.372C13.289,143.578 12.784,147.872 12.872,152.1C13.004,158.675 13.927,165.205 15.333,171.603C16.102,175.078 16.849,178.553 17.398,182.095C17.75,184.42 18.409,186.589 18.387,188.98C18.387,190.286 17.903,191.193 17.42,192.367C16.607,194.359 15.091,195.886 14.014,197.701C13.773,198.1 13.531,198.498 13.421,198.963C13.311,199.428 13.377,199.937 13.685,200.291C13.861,200.491 14.102,200.623 14.322,200.756C15.113,201.288 15.684,202.173 16.607,202.394C17.003,202.505 17.42,202.461 17.794,202.616C18.255,202.815 18.694,203.28 19.178,203.125C19.376,203.479 19.617,203.878 20.013,204.01C20.408,204.143 20.826,203.944 21.111,203.656C21.397,203.368 21.551,202.97 21.705,202.594C22.298,201.155 22.759,199.539 22.606,197.945C22.474,196.55 22.452,194.802 22.869,193.451C23.001,193.031 23.199,192.61 23.287,192.189C23.528,191.061 23.089,190.02 22.759,189.002C22.342,187.674 22.276,186.478 22.342,185.084C22.628,179.063 22.715,172.997 22.935,167.02C23.067,163.501 22.957,159.959 22.825,156.439C22.759,154.535 22.496,152.632 22.452,150.728C22.408,149.267 22.671,147.85 22.979,146.411C23.287,144.972 23.177,143.689 23.287,142.228C24.209,130.429 22.913,118.608 23.902,106.854C24.495,107.23 25.286,107.23 25.901,106.876C26.407,112.432 26.187,118.01 26.451,123.567C26.67,128.193 26.692,132.82 26.758,137.446C26.78,139.372 26.714,141.298 26.692,143.224C26.67,145.592 27.549,147.717 27.527,150.108C27.461,156.395 27.33,162.704 27.703,168.991C28.121,175.831 28.56,182.804 27.132,189.533C27.044,189.976 26.934,190.441 26.934,190.906C26.934,191.304 27.022,191.68 27.088,192.079C27.395,193.872 27.176,195.599 27.066,197.392C27,198.366 26.868,199.561 27.308,200.424C27.769,201.288 28.23,202.239 28.67,203.036C29.131,203.9 29.768,204.187 30.779,203.656C30.955,203.568 31.131,203.435 31.307,203.346C31.482,203.258 31.658,203.191 31.856,203.103C32.603,202.793 33.35,202.439 34.053,202.018C34.229,201.907 34.405,201.797 34.558,201.708C34.866,201.531 35.152,201.332 35.459,201.155C36.272,200.646 37.173,199.959 37.129,199.008C37.129,198.897 37.107,198.786 37.085,198.698C37.063,198.587 37.019,198.498 36.975,198.41C36.514,197.458 35.657,196.927 34.976,196.152C34.141,195.222 33.614,194.027 33.108,192.898C32.889,192.389 32.647,191.88 32.537,191.348C31.416,185.526 33.46,179.837 34.734,174.237C35.811,169.455 36.822,164.43 37.107,159.516C37.283,156.661 37.107,153.783 36.975,150.927C36.865,148.514 36.272,145.991 36.58,143.578C36.887,141.099 37.283,138.531 37.459,136.051C37.744,132.001 38.975,127.905 39.7,123.899C40.777,118.01 41.326,112.011 41.282,106.012C41.26,103.356 41.128,100.766 40.93,98.11C40.864,97.202 40.777,96.295 40.711,95.387C40.689,95.121 40.82,93.572 40.601,93.461C40.469,93.395 40.337,93.55 40.183,93.505C40.051,93.483 40.007,93.306 39.986,93.173C39.458,89.853 38.338,86.709 37.525,83.478C35.789,76.615 36.162,69.354 37.437,62.47C37.547,61.872 37.656,61.275 37.876,60.699C38.535,58.928 39.085,57.091 39.151,55.187C39.085,57.489 39.546,59.924 39.634,62.227C39.744,64.905 40.425,67.517 40.601,70.174C40.864,74.579 40.952,78.784 41.875,83.079C42.6,86.422 43.347,89.764 43.875,93.151C44.16,95.01 44.644,96.914 44.666,98.818C44.71,100.655 44.16,102.603 43.721,104.374C43.369,105.88 43.962,107.163 43.831,108.647C43.721,109.753 43.369,110.86 43.237,112.011C43.193,112.366 43.171,112.764 43.413,113.03C43.633,113.251 43.984,113.273 44.27,113.185C44.556,113.074 44.797,112.853 45.039,112.653C44.907,113.406 44.797,114.291 44.49,115C44.16,115.752 43.457,116.306 43.259,117.147C43.215,117.346 43.215,117.612 43.369,117.767C44.182,118.586 47.368,114.424 47.764,113.937C48.445,113.096 49.236,112.366 49.28,111.237C49.324,110.108 49.126,108.89 49.148,107.717C49.346,101.164 47.939,94.634 48.071,88.082C48.137,84.562 48.159,80.976 47.895,77.479C47.654,74.402 46.819,71.524 46.819,68.469C46.797,64.507 46.511,60.566 46.182,56.604C45.896,52.929 45.215,49.299 45.105,45.602C45.017,42.193 45.193,38.031 42.051,35.773C40.755,34.844 39.216,34.423 37.656,34.335C36.558,34.268 35.415,34.512 34.317,34.534C33.13,34.556 31.812,34.379 30.757,33.825C29.351,33.073 29.439,31.147 29.351,29.708C29.285,28.623 29.373,27.472 29.505,26.41C29.505,26.321 29.527,26.233 29.549,26.166C29.593,26.055 29.68,25.967 29.746,25.879C31.175,24.24 32.493,22.359 33.196,20.3C34.163,17.445 34.449,14.478 34.339,11.468" style="fill:none;fill-rule:nonzero;stroke:rgb(31,0,0);stroke-width:0.22px;"/>
    <path d="M32.602,11.954C33.283,11.91 35.305,12.154 35.173,11.6C34.668,9.741 34.316,8.081 33.24,6.398C32.449,5.225 31.482,4.096 30.229,3.388C29.131,2.79 27.703,2.635 26.472,2.502C23.879,2.237 21.199,3.144 19.529,5.225C18.606,6.398 18.035,7.638 17.749,9.121C17.529,10.294 17.398,11.49 16.936,12.596C18.76,13.061 20.65,12.951 22.517,12.818C23.857,12.729 25.198,12.618 26.538,12.441C27.439,12.309 28.252,12.087 29.131,11.932C29.175,11.932 29.219,11.91 29.263,11.888C29.372,11.822 29.394,11.689 29.416,11.578C29.636,10.316 29.9,9.187 29.922,7.903C30.295,9.121 30.471,10.405 30.471,11.689C30.471,11.733 30.471,11.777 30.493,11.822C30.537,11.866 30.603,11.866 30.669,11.866L31.548,11.866C31.57,10.87 31.592,9.874 31.372,8.922C31.789,9.918 32.119,10.98 32.339,12.043C32.383,11.977 32.471,11.954 32.602,11.954Z" style="fill-rule:nonzero;"/>
    <path d="M38.207,60.012C38.141,60.145 38.097,60.255 38.053,60.388C37.372,60.786 36.559,60.786 35.79,60.764C33.724,60.72 31.659,60.676 29.594,60.565C28.671,60.521 27.792,60.477 26.869,60.477C25.836,60.477 24.826,60.477 23.793,60.455C22.211,60.41 20.629,60.609 19.025,60.632C17.004,60.676 15.07,60.831 13.049,60.521C12.411,59.303 11.576,58.174 11.379,56.758C11.181,55.363 11.225,53.924 11.489,52.53C11.686,51.489 11.994,50.493 12.258,49.475C12.961,46.841 13.4,44.162 13.752,41.461C13.818,40.974 14.367,34.311 14.411,34.311C14.609,34.311 15.905,34.09 15.905,34.4C15.927,37.897 15.619,41.373 15.597,44.87C15.575,46.486 15.158,48.966 16.279,50.272C18.058,52.397 20.102,54.013 22.233,55.695C22.76,56.116 23.244,56.581 23.859,56.868C26.562,58.108 29.176,55.496 30.89,53.747C31.791,52.817 32.802,51.998 33.637,51.024C34.296,50.272 35.175,49.453 35.504,48.479C36.119,46.575 36.295,44.14 36.295,42.17C36.273,40.775 36.273,39.403 36.229,38.008C36.207,37.344 36.163,36.68 36.075,35.994C36.01,35.418 35.834,34.732 35.922,34.156C36.295,34.024 36.691,33.957 37.086,33.979C37.152,33.979 37.24,34.001 37.284,34.046C37.328,34.09 37.35,34.179 37.372,34.245C37.833,36.946 38.053,39.691 38.163,42.435C38.251,44.228 38.163,46.088 38.426,47.859C38.778,50.205 39.767,52.353 39.767,54.721C39.767,55.717 39.657,56.736 39.393,57.687C39.108,58.573 38.558,59.237 38.207,60.012Z" style="fill:rgb(175,25,0);fill-rule:nonzero;stroke:rgb(36,0,0);stroke-width:0.22px;"/>
    <path d="M35.46,48.479C36.075,46.575 36.251,44.14 36.251,42.17C36.229,40.775 36.229,39.403 36.185,38.008C36.163,37.344 36.119,36.68 36.031,35.994C35.966,35.418 35.79,34.732 35.878,34.156C36.251,34.024 36.647,33.957 37.042,33.979C37.108,33.979 37.196,34.001 37.24,34.046C37.284,34.09 37.306,34.179 37.328,34.245C37.789,36.946 38.009,39.691 38.119,42.435C38.207,44.228 38.119,46.088 38.382,47.859C38.734,50.205 39.723,52.353 39.723,54.721C39.723,55.717 39.613,56.736 39.349,57.687C39.108,58.573 38.536,59.215 38.185,59.99C38.119,60.122 38.075,60.233 38.031,60.366C37.35,60.764 36.537,60.764 35.768,60.742C33.702,60.698 31.637,60.654 29.572,60.543C28.649,60.499 27.77,60.455 26.847,60.455C25.814,60.455 24.804,60.455 23.771,60.432C22.189,60.388 20.607,60.587 19.003,60.609C16.982,60.654 15.048,60.809 13.027,60.499C12.389,59.281 11.554,58.152 11.357,56.736C11.159,55.341 11.203,53.902 11.467,52.508C11.664,51.467 11.972,50.471 12.236,49.453C12.939,46.818 13.378,44.14 13.73,41.439C13.796,40.952 14.345,34.289 14.389,34.289C14.587,34.289 15.883,34.068 15.883,34.378C15.905,37.875 15.597,41.351 15.575,44.848C15.553,46.531 15.334,48.479 16.322,49.962C16.85,50.737 17.641,51.29 18.476,51.688C19.882,52.353 21.42,52.618 22.958,52.773C24.804,52.995 26.671,53.127 28.539,53.061C29.396,53.017 30.363,53.039 31.176,52.773C31.769,52.574 32.604,52.375 33.087,51.976C34.054,51.224 35.065,49.652 35.46,48.479Z" style="fill:rgb(175,25,0);fill-rule:nonzero;stroke:rgb(36,0,0);stroke-width:0.22px;"/>
    <path d="M33.019,16.846C32.909,17.399 32.778,17.753 32.536,18.351C32.514,18.395 32.492,18.462 32.448,18.572C32.426,18.683 32.36,18.794 32.294,18.971C32.228,19.17 32.118,19.414 31.987,19.679C31.855,19.945 31.723,20.233 31.591,20.498C31.459,20.764 31.327,20.985 31.24,21.162C31.152,21.339 31.086,21.428 31.086,21.428C31.086,21.428 31.042,21.517 30.954,21.649C30.866,21.782 30.756,21.981 30.602,22.203C30.47,22.424 30.317,22.668 30.163,22.889C30.009,23.133 29.855,23.354 29.723,23.531C29.438,23.952 29.262,24.195 29.174,24.328C28.801,24.881 28.625,25.213 28.273,25.634C28.625,25.213 28.932,24.97 29.372,24.483C29.482,24.35 29.679,24.129 30.009,23.73C30.141,23.553 30.317,23.332 30.492,23.11C30.668,22.889 30.822,22.645 30.976,22.424C31.13,22.203 31.24,22.004 31.327,21.849C31.415,21.694 31.459,21.605 31.459,21.605C31.459,21.605 31.525,21.494 31.613,21.317C31.723,21.14 31.833,20.897 31.965,20.631C32.096,20.365 32.228,20.055 32.338,19.768C32.448,19.48 32.536,19.214 32.602,19.015C32.668,18.838 32.712,18.705 32.734,18.595C32.755,18.484 32.778,18.417 32.8,18.351C32.931,17.775 32.931,17.377 33.019,16.846Z" style="fill:white;fill-opacity:0.1;fill-rule:nonzero;"/>
    <path d="M9.355,36.88C9.443,36.836 9.531,36.858 9.641,36.836C9.662,36.836 9.728,36.814 9.794,36.792C9.86,36.77 9.948,36.748 10.014,36.703C10.168,36.637 10.3,36.57 10.3,36.57C10.3,36.57 10.432,36.504 10.563,36.415C10.629,36.371 10.695,36.327 10.761,36.282C10.827,36.238 10.871,36.194 10.893,36.172C10.981,36.083 11.025,36.017 11.113,35.972C11.025,35.995 10.937,35.95 10.827,35.95C10.805,35.95 10.739,35.95 10.651,35.972C10.585,35.995 10.497,35.995 10.41,36.039C10.256,36.083 10.102,36.172 10.102,36.172C10.102,36.172 9.97,36.238 9.816,36.349C9.75,36.393 9.684,36.46 9.619,36.504C9.553,36.548 9.531,36.615 9.509,36.637C9.443,36.725 9.421,36.814 9.355,36.88Z" style="fill:white;fill-opacity:0.1;fill-rule:nonzero;"/>
    <path d="M40.798,35.618C40.996,35.795 41.15,35.995 41.282,36.194C41.413,36.393 41.567,36.614 41.765,36.88C41.831,36.969 41.941,37.101 42.16,37.411C42.204,37.478 42.336,37.677 42.336,37.677C42.336,37.677 42.446,37.832 42.49,37.92C42.622,38.12 42.732,38.297 42.82,38.43C42.908,38.562 42.973,38.673 43.017,38.739C43.193,39.005 43.347,39.226 43.479,39.426C43.611,39.625 43.742,39.824 43.852,40.09C43.676,39.581 43.633,39.16 43.347,38.562C43.303,38.496 43.259,38.385 43.171,38.23C43.083,38.075 42.995,37.898 42.842,37.677C42.776,37.588 42.666,37.433 42.666,37.433C42.666,37.433 42.534,37.256 42.468,37.168C42.226,36.858 42.094,36.725 42.029,36.659C41.567,36.172 41.216,35.995 40.798,35.618Z" style="fill:white;fill-opacity:0.1;fill-rule:nonzero;"/>
    <path d="M24.517,74.954C24.473,75.507 24.385,75.884 24.298,76.548C24.276,76.659 24.276,76.836 24.232,77.212C24.188,77.765 24.1,78.717 24.056,79.514C24.012,80.311 23.99,80.975 23.99,80.975C23.99,80.975 23.968,81.529 23.968,82.237C23.968,82.945 23.968,83.809 23.99,84.429C24.012,84.938 24.034,85.248 24.034,85.425C24.078,86.089 24.144,86.465 24.166,87.019C24.166,86.465 24.232,86.089 24.254,85.425C24.254,85.27 24.276,84.938 24.298,84.451C24.342,83.211 24.407,80.997 24.407,80.997C24.407,80.997 24.429,80.333 24.451,79.536C24.473,78.739 24.495,77.788 24.495,77.234L24.495,76.548C24.539,75.884 24.495,75.507 24.517,74.954Z" style="fill:white;fill-opacity:0.1;fill-rule:nonzero;"/>
    <path d="M6.124,50.25C6.036,50.803 5.926,51.157 5.816,51.821C5.795,51.91 5.773,52.043 5.751,52.198C5.707,52.441 5.663,52.707 5.597,53.017C5.465,53.814 5.311,54.743 5.179,55.651C4.916,57.444 4.718,59.082 4.718,59.082C4.718,59.082 4.608,60.056 4.476,61.318C4.344,62.557 4.234,64.085 4.169,65.17C4.147,65.679 4.125,65.989 4.125,66.144C4.103,66.808 4.125,67.184 4.081,67.737C4.125,67.184 4.213,66.808 4.3,66.166C4.322,66.011 4.366,65.701 4.432,65.192C4.718,63.022 5.157,59.126 5.157,59.126C5.157,59.126 5.355,57.488 5.553,55.695C5.663,54.788 5.751,53.858 5.86,53.061C5.926,52.507 5.97,52.065 5.992,51.843C6.036,51.179 6.036,50.803 6.124,50.25Z" style="fill:white;fill-opacity:0.1;fill-rule:nonzero;"/>
    <path d="M1.534,104.551C1.359,105.083 1.139,105.415 0.985,106.057C0.963,106.167 0.897,106.344 0.853,106.743C0.809,107.008 0.809,107.451 0.853,107.827C0.897,108.204 0.963,108.492 0.963,108.492C0.963,108.492 1.007,108.735 1.095,109.045C1.161,109.355 1.271,109.731 1.337,109.997C1.468,110.484 1.556,110.794 1.6,110.949C1.798,111.591 1.974,111.923 2.106,112.476C1.996,111.945 1.996,111.546 1.886,110.882C1.864,110.727 1.798,110.417 1.71,109.908C1.666,109.643 1.578,109.244 1.512,108.934C1.447,108.624 1.381,108.381 1.381,108.381C1.381,108.381 1.315,108.093 1.271,107.739C1.227,107.385 1.205,106.986 1.205,106.743C1.227,106.366 1.249,106.189 1.249,106.079C1.337,105.459 1.381,105.083 1.534,104.551Z" style="fill:white;fill-opacity:0.1;fill-rule:nonzero;"/>
    <path d="M12.762,103.798C12.718,104.351 12.675,104.728 12.609,105.392C12.609,105.48 12.587,105.613 12.587,105.79C12.565,106.166 12.543,106.609 12.499,107.074C12.433,108.535 12.389,110.284 12.433,111.944C12.433,112.763 12.499,113.582 12.521,114.335C12.565,115.087 12.609,115.774 12.653,116.349C12.697,116.925 12.74,117.412 12.784,117.744C12.806,118.076 12.85,118.275 12.85,118.275C12.85,118.275 12.872,118.452 12.916,118.784C12.96,119.116 13.004,119.603 13.092,120.179C13.18,120.754 13.268,121.441 13.4,122.171C13.466,122.547 13.531,122.924 13.597,123.322C13.663,123.721 13.751,124.119 13.839,124.518C13.905,124.916 14.015,125.337 14.103,125.735C14.191,126.134 14.278,126.554 14.388,126.953C14.498,127.351 14.586,127.749 14.674,128.126C14.718,128.325 14.784,128.502 14.828,128.679C14.872,128.856 14.916,129.033 14.982,129.21C15.091,129.631 15.201,129.985 15.245,130.162C15.443,130.804 15.575,131.158 15.729,131.69C15.575,131.158 15.509,130.782 15.355,130.14C15.311,129.963 15.245,129.609 15.135,129.188C15.091,129.011 15.048,128.834 15.025,128.657C14.982,128.48 14.938,128.281 14.894,128.082C14.806,127.705 14.74,127.307 14.652,126.886C14.564,126.488 14.498,126.067 14.41,125.669C14.344,125.248 14.257,124.85 14.191,124.451C14.125,124.053 14.059,123.632 13.993,123.256C13.927,122.857 13.883,122.481 13.817,122.105C13.707,121.374 13.619,120.688 13.531,120.112C13.444,119.537 13.4,119.05 13.356,118.74C13.312,118.408 13.29,118.231 13.29,118.231C13.29,118.231 13.268,118.054 13.224,117.722C13.202,117.39 13.136,116.903 13.092,116.327C13.048,115.752 12.982,115.065 12.938,114.313C12.894,113.56 12.828,112.763 12.806,111.944C12.718,110.284 12.718,108.557 12.718,107.096C12.718,106.609 12.718,106.166 12.74,105.812L12.74,105.414C12.74,104.728 12.74,104.351 12.762,103.798Z" style="fill:white;fill-opacity:0.1;fill-rule:nonzero;"/>
    <path d="M38.251,111.479C38.229,112.033 38.119,112.409 38.053,113.073C38.031,113.184 38.009,113.361 37.965,113.737C37.877,114.556 37.657,116.527 37.657,116.527C37.657,116.527 37.482,118.165 37.394,119.094C37.35,119.604 37.306,119.913 37.306,120.068C37.24,120.733 37.262,121.109 37.174,121.662C37.262,121.109 37.416,120.755 37.548,120.113C37.592,119.958 37.635,119.648 37.745,119.139C37.833,118.674 37.921,118.054 37.987,117.523C38.053,116.991 38.097,116.593 38.097,116.593C38.097,116.593 38.141,116.106 38.207,115.508C38.251,114.911 38.295,114.202 38.295,113.782L38.295,113.095C38.295,112.409 38.229,112.033 38.251,111.479Z" style="fill:white;fill-opacity:0.1;fill-rule:nonzero;"/>
    <path d="M30.537,138.95C30.603,139.105 30.603,139.238 30.669,139.415C30.713,139.526 30.844,139.814 30.998,140.079C31.152,140.323 31.35,140.544 31.35,140.544C31.35,140.544 31.526,140.743 31.745,140.942C31.965,141.142 32.251,141.319 32.339,141.363C32.514,141.452 32.646,141.474 32.778,141.562C32.646,141.452 32.602,141.341 32.47,141.186C32.339,141.009 31.657,140.234 31.657,140.234C31.657,140.234 30.976,139.459 30.844,139.282C30.735,139.149 30.625,139.083 30.537,138.95Z" style="fill:white;fill-opacity:0.1;fill-rule:nonzero;"/>
    <path d="M17.112,141.12C17.2,141.164 17.243,141.231 17.331,141.297C17.353,141.319 17.419,141.341 17.485,141.386C17.551,141.408 17.639,141.452 17.727,141.474C17.903,141.519 18.056,141.519 18.056,141.519C18.056,141.519 18.21,141.519 18.386,141.496C18.474,141.474 18.562,141.452 18.628,141.408C18.694,141.386 18.76,141.341 18.782,141.319C18.891,141.253 18.913,141.164 19.001,141.142C18.913,141.164 18.825,141.12 18.716,141.098C18.694,141.098 18.628,141.098 18.562,141.076L18.342,141.076L18.056,141.076L17.771,141.076L17.397,141.076C17.287,141.12 17.2,141.164 17.112,141.12Z" style="fill:white;fill-opacity:0.1;fill-rule:nonzero;"/>
    <path d="M38.206,60.012C38.557,59.237 39.129,58.573 39.37,57.71C39.634,56.758 39.744,55.739 39.744,54.743C39.744,52.375 38.755,50.227 38.403,47.881C38.14,46.11 38.228,44.251 38.14,42.458C38.008,39.713 37.788,36.968 37.349,34.267C37.327,34.201 37.327,34.112 37.261,34.068C37.217,34.024 37.129,34.001 37.063,34.001C36.843,33.979 36.624,34.001 36.404,34.046C36.272,35.462 36.36,36.901 36.426,38.318C36.558,41.041 36.712,43.786 37.371,46.42C37.986,48.921 39.524,51.046 39.656,53.658C39.744,55.85 38.799,57.975 36.953,59.215C35.305,60.322 32.625,59.879 30.801,59.68C27.835,59.37 24.891,58.529 21.88,58.949C18.563,59.414 13.487,60.41 11.575,56.647C11.422,56.359 11.334,56.027 11.29,55.673C11.312,56.027 11.334,56.403 11.4,56.758C11.619,58.174 12.432,59.303 13.07,60.521C15.091,60.831 17.025,60.698 19.046,60.632C20.65,60.587 22.21,60.41 23.814,60.454C24.847,60.477 25.857,60.499 26.89,60.477C27.813,60.477 28.692,60.521 29.615,60.565C31.68,60.676 33.745,60.72 35.811,60.764C36.58,60.786 37.415,60.786 38.074,60.388C38.096,60.255 38.14,60.122 38.206,60.012Z" style="fill-opacity:0.28;fill-rule:nonzero;"/>
    <path d="M13.73,41.461C13.378,44.162 12.939,46.841 12.236,49.475C11.972,50.493 11.664,51.489 11.467,52.53C11.423,52.729 11.401,52.928 11.357,53.15C11.533,52.198 11.818,51.29 12.038,50.604C13.049,47.615 14.191,44.738 14.521,41.572C14.762,39.137 14.894,36.702 14.872,34.267C14.631,34.289 14.433,34.311 14.367,34.311C14.345,34.311 13.796,40.974 13.73,41.461Z" style="fill-opacity:0.28;fill-rule:nonzero;"/>
    <path d="M28.142,155.089C28.142,158.188 27.813,161.265 27.813,164.364C27.813,166.135 27.944,167.906 28.076,169.677C28.164,170.783 27.593,174.237 29.021,174.613C30.054,169.3 29.307,163.523 29.57,158.099C29.702,155.399 29.57,152.322 30.186,149.71C30.581,148.005 31.482,146.389 32.668,145.194C33.569,144.286 34.382,142.272 32.317,142.139C32.075,142.117 31.833,142.139 31.592,142.073C29.197,141.342 29.373,136.937 29.109,134.922C28.691,131.735 28.582,128.414 28.406,125.293C28.076,118.763 27.966,111.945 30.361,105.747C30.867,104.441 31.855,101.873 33.086,101.12C31.658,101.983 30.208,102.869 28.779,103.732C27.395,104.573 25.527,104.839 23.967,104.219C23.11,103.865 22.342,103.312 21.594,102.78C21.045,102.382 20.518,101.983 19.969,101.585C20.891,102.493 21.704,103.511 22.429,104.573C21.748,104.197 21.089,103.776 20.43,103.356C21.265,104.109 22.056,104.883 22.803,105.747C23.154,106.145 23.528,106.765 24.033,106.986C24.561,107.23 25.506,106.721 25.813,106.942C25.989,107.075 26.055,107.318 26.099,107.54C26.494,109.598 26.362,111.923 26.472,114.026C26.582,116.35 26.714,118.674 26.824,120.976C27.219,128.68 26.736,136.472 27.197,144.153C27.307,145.858 27.944,147.54 28.098,149.267C28.274,151.193 28.23,153.141 28.142,155.089Z" style="fill-opacity:0.28;fill-rule:nonzero;"/>
    <path d="M13.246,94.456C13.202,94.434 13.158,94.434 13.114,94.434C12.432,94.257 11.795,93.992 11.136,93.77C10.697,93.637 9.73,93.239 9.4,93.659C9.356,93.704 9.334,93.748 9.312,93.814C9.291,93.859 9.291,93.903 9.291,93.947C9.049,95.984 9.312,98.197 9.181,100.278C9.027,103.067 8.675,105.879 8.653,108.668C8.631,111.679 9.005,114.689 9.422,117.655C9.994,121.64 10.653,125.602 11.422,129.543C11.993,132.465 12.586,135.387 12.96,138.331C13.136,139.792 13.268,141.275 13.29,142.736C13.311,144.02 13.048,145.304 12.96,146.588C12.674,151.9 13.026,157.213 13.817,162.459C14.212,165.138 14.74,167.794 15.333,170.451C15.794,172.509 15.575,174.679 17.86,175.741C16.344,170.119 15.443,164.363 14.871,158.563C14.674,156.527 14.476,154.778 14.959,152.83C15.509,150.639 15.772,148.425 16.453,146.278C16.629,145.68 16.849,145.06 17.266,144.595C17.728,144.086 18.387,143.821 18.98,143.466C19.749,143.024 20.914,141.762 20.343,140.788C19.596,141.474 18.761,142.183 17.75,142.227C15.443,142.315 15.443,139.88 15.201,138.264C14.871,135.918 14.564,133.549 14.278,131.203C13.707,126.488 13.202,121.751 12.696,117.013C12.301,113.383 11.927,109.731 11.883,106.078C11.861,103.776 11.971,101.474 12.235,99.194C12.257,98.994 12.301,98.773 12.455,98.64C12.63,98.507 12.872,98.574 13.07,98.64C13.949,98.906 14.828,99.149 15.728,99.415C14.828,98.839 14.037,98.109 13.399,97.246C13.707,97.135 13.993,96.936 14.212,96.692C13.949,96.537 13.685,96.36 13.399,96.205C14.762,95.63 14.212,95.076 13.246,94.456Z" style="fill-opacity:0.28;fill-rule:nonzero;"/>
</svg>
