<?xml version="1.0" encoding="UTF-8" standalone="no"?>
<!DOCTYPE svg PUBLIC "-//W3C//DTD SVG 1.1//EN" "http://www.w3.org/Graphics/SVG/1.1/DTD/svg11.dtd">
<svg width="100%" height="100%" viewBox="0 0 53 208" version="1.1" xmlns="http://www.w3.org/2000/svg" xmlns:xlink="http://www.w3.org/1999/xlink" xml:space="preserve" xmlns:serif="http://www.serif.com/" style="fill-rule:evenodd;clip-rule:evenodd;stroke-miterlimit:10;">
    <path d="M14.431,21.106C14.025,24.009 13.755,26.934 13.598,29.86C13.485,31.75 12.878,35.125 14.296,36.633C14.723,37.083 15.286,37.353 15.871,37.601C20.034,39.356 24.647,39.806 29.17,39.693C33.693,39.581 38.171,38.928 42.694,38.523C43.189,38.478 43.751,38.411 44.089,38.051C44.494,37.601 44.426,36.903 44.336,36.295C43.504,31.322 42.941,26.259 41.884,21.309C41.051,17.438 40.623,13.455 39.296,9.72C38.711,8.077 38.058,6.232 37.136,4.612C36.235,3.014 35.065,1.619 33.468,0.786C32.095,0.066 30.497,-0.091 28.967,0.044C28.202,0.111 27.302,0.201 26.582,0.471C26.042,0.674 25.704,0.989 25.052,0.944C24.579,0.899 24.107,0.764 23.612,0.764C22.869,0.741 22.149,1.056 21.541,1.507C18.053,4.072 16.748,7.605 15.803,11.745C15.105,14.828 14.858,17.978 14.431,21.106Z" style="fill-rule:nonzero;"/>
    <path d="M21.09,21.646C21.608,23.784 22.733,25.674 24.218,27.294C24.308,27.407 24.42,27.519 24.466,27.654C24.511,27.789 24.511,27.947 24.511,28.082C24.466,30.152 24.983,32.537 23.903,34.472C23.453,35.283 22.755,35.958 21.855,36.183C18.592,37.06 15.442,35.8 12.494,37.713C6.846,41.448 5.923,49.752 5.271,55.917C4.798,60.305 4.821,64.738 4.618,69.149C4.483,72.344 3.696,75.472 3.111,78.623C2.525,81.795 2.503,84.653 2.525,87.849C2.548,91.674 2.368,95.499 2.008,99.325C1.625,103.308 1.625,107.313 0.928,111.251C0.883,111.544 0.815,111.859 0.905,112.151C1.175,113.141 2.503,114.627 3.111,115.549C3.628,116.337 4.326,117.012 5.046,117.642C5.518,118.069 6.531,119.307 7.184,119.397C8.399,119.555 6.418,115.167 6.261,114.739C6.576,114.784 6.936,114.807 7.184,114.582C7.544,114.244 7.364,113.659 7.251,113.186C6.936,111.971 7.184,110.689 7.386,109.451C7.656,107.763 6.643,107.156 6.148,105.693C5.023,102.43 6.058,98.875 7.026,95.702C8.106,92.237 9.029,88.884 9.569,85.283C10.064,81.818 9.276,78.195 9.996,74.797C10.424,72.839 10.896,70.904 11.414,68.969C11.887,67.146 12.224,65.189 12.832,63.411C13.214,63.906 13.597,64.401 13.979,64.874C14.497,65.526 14.767,66.201 14.992,67.011C15.487,68.901 15.87,70.837 16.14,72.772C16.342,74.212 16.455,75.697 16.23,77.115C15.847,79.523 14.564,81.638 13.372,83.731C12.787,84.766 12.224,85.823 11.774,86.903C11.324,88.029 11.121,89.176 10.806,90.324C10.784,90.369 10.784,90.414 10.739,90.436C10.716,90.459 10.671,90.459 10.626,90.459C10.424,90.459 10.244,90.616 10.154,90.796C10.064,90.976 10.041,91.179 9.996,91.381C9.546,94.577 9.006,97.727 8.759,100.968C8.421,105.153 8.399,109.406 8.646,113.659C8.939,118.632 9.996,123.493 11.234,128.286C12.044,131.413 13.214,134.519 13.799,137.714C15.374,146.4 13.867,155.109 13.822,163.817C13.799,168.34 15.014,172.638 15.847,177.071C16.995,183.169 19.267,190.415 18.052,196.626C17.692,198.448 16.455,199.596 15.509,201.126C15.262,201.531 15.014,201.936 14.902,202.386C14.789,202.836 14.857,203.377 15.172,203.714C15.352,203.917 15.6,204.052 15.825,204.187C16.635,204.727 17.22,205.604 18.165,205.852C18.57,205.964 18.997,205.919 19.38,206.077C19.852,206.279 20.302,206.752 20.798,206.594C21,206.954 21.248,207.359 21.653,207.472C22.058,207.585 22.485,207.404 22.778,207.112C23.07,206.819 23.228,206.414 23.385,206.032C23.993,204.569 24.466,202.949 24.308,201.351C24.173,199.956 24.15,198.178 24.578,196.828C24.713,196.401 24.916,195.996 25.006,195.546C25.343,194.083 24.398,192.643 23.97,191.293C23.453,189.627 23.093,187.94 22.845,186.207C22.35,182.854 22.283,179.434 22.508,176.058C22.868,170.275 24.555,164.582 24.533,158.777C24.533,157.134 24.218,155.446 24.173,153.781C24.128,152.318 24.398,150.878 24.713,149.438C25.028,147.998 24.916,146.693 25.028,145.23C25.433,140.122 25.411,134.991 25.343,129.861C25.298,126.508 25.591,123.178 25.883,119.847C26.176,116.517 26.176,113.164 26.491,109.856C26.491,109.811 26.491,109.766 26.536,109.743C26.558,109.721 26.603,109.721 26.648,109.721C27.053,109.743 27.931,109.991 28.291,109.788C28.561,111.544 28.583,113.366 28.583,115.167C28.583,116.517 28.516,117.867 28.516,119.217C28.516,120.86 28.493,122.502 28.516,124.145C28.583,127.926 28.921,131.706 29.169,135.486C29.326,138.187 29.101,140.91 29.101,143.61C29.101,146.04 30.294,148.47 29.911,150.856C29.034,156.369 29.731,161.949 30.586,167.417C31.419,172.818 31.824,178.061 31.531,183.529C31.374,186.567 31.329,189.785 30.069,192.575C29.866,193.048 29.619,193.498 29.551,193.993C29.484,194.533 29.596,195.073 29.686,195.613C30.181,198.223 30.384,200.856 30.294,203.512C30.271,204.367 30.204,205.267 30.496,206.077C31.419,208.687 34.524,206.324 36.077,205.402C36.257,205.289 36.437,205.199 36.594,205.087C36.909,204.907 37.202,204.704 37.517,204.524C38.507,203.917 39.497,203.534 39.092,202.094C38.89,201.351 38.372,200.744 37.922,200.114C35.964,197.233 35.717,193.498 36.212,190.055C36.707,186.635 37.652,183.282 38.44,179.906C40.465,171.243 39.79,162.399 39.475,153.601C39.407,151.756 39.34,149.911 39.587,148.088C39.722,147.143 39.925,146.22 40.06,145.275C40.352,143.07 40.195,140.82 40.555,138.614C40.78,137.219 41.185,135.869 41.567,134.496C42.49,131.121 42.895,127.701 43.638,124.303C44.358,121.017 45.055,117.687 45.393,114.334C45.595,112.241 45.73,110.126 45.775,108.011C45.82,106.098 46.023,104.253 45.978,102.34C45.91,100.27 45.73,98.2 45.438,96.152C45.325,95.364 45.1,94.599 44.943,93.812C44.83,93.249 44.695,92.687 44.583,92.124C44.448,91.539 44.493,90.909 44.268,90.369C44.178,90.144 43.953,89.874 43.728,89.941C43.683,89.964 43.638,89.986 43.593,89.964C43.525,89.941 43.503,89.874 43.48,89.829C43.278,89.199 43.053,88.569 42.85,87.939C42.737,87.601 42.58,87.263 42.468,86.948C42.085,85.958 41.68,84.991 41.185,84.046C39.745,81.323 38.327,78.263 38.08,75.157C37.945,73.514 38.08,71.872 38.372,70.252C38.53,69.442 38.71,68.631 38.912,67.821C39.002,67.439 39.205,65.931 39.497,65.751C40.15,65.323 40.375,64.761 40.735,64.108C41.005,63.636 41.702,62.848 41.635,62.263C42.22,66.494 43.615,70.702 44.065,74.91C44.538,79.208 43.66,83.708 44.695,87.916C45.168,89.806 46.023,91.359 46.563,93.227C47.508,96.467 49.646,101.62 47.868,104.86C46.766,106.863 47.373,108.956 46.608,111.004C46.428,111.454 46.18,111.904 46.203,112.399C46.225,112.894 46.721,113.389 47.17,113.186C47.621,113.006 47.711,112.286 48.206,112.219C48.566,113.434 48.048,114.739 47.441,115.842C46.833,116.944 46.068,118.047 45.955,119.307C45.933,119.487 45.933,119.69 46.068,119.825C46.315,120.117 46.811,119.892 47.103,119.622C48.656,118.272 50.096,116.809 51.423,115.212C51.851,114.694 52.279,114.154 52.504,113.501C52.864,112.466 52.616,111.386 52.526,110.329C52.436,109.181 52.594,108.078 52.571,106.953C52.459,101.935 52.279,96.782 51.874,91.764C51.559,88.006 51.176,84.248 50.793,80.49C50.321,75.877 49.556,71.354 49.308,66.764C49.038,61.813 48.723,56.885 48.363,51.935C48.003,46.939 47.148,41.021 42.76,37.848C40.622,36.295 38.867,36.565 36.414,36.61C35.199,36.633 33.849,36.453 32.769,35.89C31.329,35.125 31.419,33.212 31.329,31.75C31.261,30.67 31.351,29.5 31.486,28.442C31.486,28.352 31.509,28.262 31.531,28.194C31.576,28.082 31.666,27.992 31.734,27.902C33.196,26.259 34.547,24.369 35.267,22.276C35.784,20.769 35.897,19.171 36.122,17.596C36.324,16.133 36.302,14.76 36.189,13.275C36.122,12.443 35.919,11.588 35.919,10.755C35.919,9.517 35.582,8.055 34.637,7.154C33.579,6.164 32.139,5.602 30.699,5.444C28.763,5.219 26.806,5.602 24.893,6.007C23.97,6.187 23.003,6.412 22.35,7.064C21.945,7.47 21.698,8.032 21.495,8.572C21.113,9.585 20.798,10.62 20.573,11.678C20.438,12.33 20.258,12.983 20.19,13.635C20.123,14.288 20.258,15.008 20.325,15.66C20.483,17.686 20.618,19.711 21.09,21.646Z" style="fill:rgb(226,168,138);fill-rule:nonzero;"/>
    <path d="M48.004,117.799C48.274,117.371 49.804,115.954 49.804,115.548C50.524,114.806 51.379,114.041 51.492,113.006C51.649,111.588 50.299,110.238 50.727,108.865C49.917,110.125 49.106,111.386 48.296,112.646C48.476,113.748 48.004,114.896 47.441,115.886C46.834,116.989 46.069,118.091 45.956,119.351C45.934,119.531 45.934,119.734 46.069,119.869C46.249,120.094 46.586,120.004 46.856,119.846C47.171,119.149 47.599,118.451 48.004,117.799Z" style="fill:rgb(174,106,83);fill-opacity:0.71;fill-rule:nonzero;"/>
    <path d="M22.532,90.706C21.407,88.298 20.912,85.486 20.282,82.92C19.899,81.368 20.282,79.657 20.529,78.105C20.889,76.057 21.632,74.054 21.632,71.939C21.632,71.039 21.519,70.139 21.407,69.239C21.339,68.766 21.272,68.271 21.002,67.889C21.047,69.576 20.732,70.881 20.192,72.412C19.606,74.099 19.449,75.967 18.954,77.7C18.189,80.355 18.054,83.168 18.751,85.846C19.381,88.253 20.034,90.774 17.941,92.686C17.784,92.821 17.604,92.979 17.401,93.024C17.154,93.069 16.884,92.979 16.659,92.866C15.376,92.349 11.191,91.224 11.978,89.086C12.631,87.331 13.666,86.003 14.611,84.383C15.466,82.92 16.861,81.435 17.401,79.86C18.594,76.417 17.199,71.692 16.614,68.249C16.524,67.754 16.456,67.191 16.681,66.763C17.086,66.021 18.099,65.931 18.931,65.953C21.317,65.976 23.724,65.616 26.065,65.841C26.29,65.863 26.515,65.908 26.65,66.066C26.74,66.178 26.762,66.313 26.785,66.448C27.01,67.844 27.235,69.216 27.46,70.611C27.64,69.374 27.842,68.159 28.022,66.921C28.045,66.741 28.09,66.561 28.202,66.448C28.337,66.336 28.517,66.313 28.698,66.291C31.668,66.066 34.368,66.606 37.271,67.124C37.406,67.146 37.541,67.169 37.609,67.281C37.744,67.439 37.654,67.664 37.564,67.844C37.158,68.721 36.753,69.599 36.371,70.476C36.146,70.949 35.921,71.444 35.898,71.984C35.808,73.312 36.618,74.887 36.776,76.237C36.956,77.835 37.474,79.207 38.194,80.647C39.499,83.303 42.987,87.691 41.974,90.886C41.524,92.304 39.611,93.226 39.679,94.757C41.479,94.082 43.144,93.001 44.472,91.629C44.427,91.201 44.404,90.774 44.247,90.391C44.157,90.166 43.932,89.896 43.707,89.964C43.662,89.986 43.617,90.009 43.572,89.986C43.504,89.964 43.482,89.896 43.459,89.851C43.257,89.221 43.032,88.591 42.829,87.961C42.717,87.623 42.559,87.286 42.447,86.971C42.064,85.981 41.659,85.013 41.164,84.068C39.724,81.345 38.306,78.285 38.059,75.179C37.923,73.537 38.059,71.894 38.351,70.274C38.509,69.464 38.689,68.654 38.891,67.844C38.981,67.461 39.184,65.953 39.476,65.773C40.129,65.346 40.354,64.783 40.714,64.131C40.984,63.658 41.681,62.871 41.614,62.286C42.199,66.516 43.594,70.724 44.044,74.932C44.517,79.23 43.639,83.73 44.674,87.938C45.147,89.829 46.002,91.381 46.542,93.249C47.487,96.489 49.625,101.642 47.847,104.883C46.745,106.885 47.352,108.978 46.587,111.026C46.52,111.228 46.429,111.408 46.362,111.611C46.317,111.949 46.272,112.286 46.227,112.624C46.272,112.804 46.385,112.961 46.52,113.074C48.5,107.291 51.222,101.485 49.49,95.387C48.657,92.529 47.127,90.054 46.745,87.106C46.317,83.685 45.552,80.423 45.439,76.957C45.259,71.534 45.777,66.336 44.472,61.003C43.414,56.637 41.546,52.587 40.196,48.334C39.026,44.576 38.779,40.526 39.476,36.655C38.509,36.565 37.519,36.633 36.348,36.655C35.133,36.678 33.783,36.498 32.703,35.935C31.713,35.417 31.443,34.36 31.353,33.257C31.33,33.257 31.308,33.257 31.308,33.235C30.768,33.977 31.015,35.08 31.645,35.755C32.275,36.408 33.198,36.723 34.098,36.948C35.021,37.173 36.033,37.398 36.573,38.163C36.911,38.635 37.001,39.265 37.068,39.85C37.248,41.673 37.046,43.473 37.091,45.296C37.136,46.691 37.113,47.861 36.753,49.257C36.528,50.112 36.258,50.967 36.303,51.844C36.326,52.294 36.438,52.722 36.416,53.172C36.371,54.207 35.651,55.085 34.931,55.805C33.648,57.065 32.163,58.145 30.565,58.955C30.183,59.158 29.643,59.315 29.395,58.978C29.283,58.843 29.26,58.663 29.26,58.483C29.103,56.322 30.183,54.117 31.983,52.902C30.34,52.924 29.238,55.017 27.595,54.927C26.627,54.882 25.727,54.072 24.872,53.69C23.859,53.217 22.779,52.947 21.654,52.834C24.287,53.667 26.11,56.502 25.75,59.248C25.705,59.608 25.57,60.013 25.232,60.103C25.075,60.148 24.895,60.103 24.737,60.058C22.442,59.45 20.237,58.438 18.459,56.862C16.681,55.31 15.354,53.172 15.016,50.832C14.678,48.626 15.241,46.376 15.421,44.148C15.579,42.258 15.466,40.323 16.029,38.523C16.119,38.253 16.231,37.96 16.456,37.78C16.681,37.6 16.951,37.533 17.244,37.465C18.346,37.218 19.269,37.038 20.372,37.06C21.429,37.083 22.667,36.858 23.589,36.34C24.782,35.643 25.48,34.405 26.29,33.347C27.145,32.2 28.337,31.457 29.193,30.309C29.44,29.972 29.643,29.612 29.8,29.229C29.845,29.139 29.868,29.004 29.8,28.937C29.755,28.869 29.665,28.869 29.575,28.869C27.685,28.869 26.447,28.037 25.21,26.596C24.355,25.606 23.769,24.436 23.274,23.244C22.262,20.813 21.632,18.113 21.857,15.458C21.879,15.075 21.947,14.693 22.172,14.4C22.397,14.108 22.779,13.95 23.139,13.86C25.48,13.185 28.09,13.41 30.25,12.24C30.633,12.037 31.038,11.79 31.443,11.857C31.668,11.902 31.848,12.015 32.05,12.105C32.793,12.442 33.716,12.375 34.391,11.902C34.548,11.79 34.706,11.677 34.886,11.655C35.246,11.632 35.471,12.06 35.606,12.397C35.831,13.027 36.033,13.635 36.258,14.265C36.236,13.95 36.213,13.613 36.191,13.298C36.123,12.465 35.921,11.61 35.921,10.777C35.921,9.54 35.583,8.077 34.638,7.177C33.581,6.187 32.14,5.624 30.7,5.467C28.833,5.242 26.965,5.602 25.12,5.984C24.422,6.344 23.769,6.727 23.117,7.154C22.397,7.649 21.834,8.257 21.384,8.909C21.047,9.81 20.777,10.732 20.574,11.677C20.439,12.33 20.259,12.982 20.192,13.635C20.124,14.288 20.259,15.008 20.327,15.66C20.529,17.663 20.642,19.666 21.137,21.601C21.654,23.739 22.779,25.629 24.265,27.249C24.355,27.362 24.467,27.474 24.512,27.609C24.557,27.744 24.557,27.902 24.557,28.037C24.512,30.107 25.03,32.492 23.949,34.427C23.499,35.237 22.802,35.913 21.902,36.138C19.156,36.88 16.479,36.093 13.936,36.993C13.958,37.353 13.936,37.735 13.913,38.118C13.373,43.653 10.47,48.964 10.245,54.387C10.133,57.087 10.043,59.72 10.088,62.376C10.178,67.844 7.95,73.109 7.478,78.51C7.118,82.628 7.05,86.611 6.442,90.729C6.105,93.114 5.902,95.589 5.362,97.93C4.935,99.842 3.585,101.957 4.597,103.915C5.767,106.21 6.825,108.348 7.23,110.688C7.298,110.261 7.365,109.833 7.433,109.406C7.703,107.718 6.69,107.111 6.195,105.648C5.07,102.385 6.105,98.83 7.073,95.657C8.153,92.191 9.075,88.839 9.615,85.238C10.11,81.773 9.323,78.15 10.043,74.752C10.47,72.794 10.943,70.859 11.461,68.924C11.933,67.101 12.271,65.143 12.878,63.366C13.261,63.861 13.643,64.356 14.026,64.828C14.543,65.481 14.813,66.156 15.038,66.966C15.534,68.856 15.916,70.791 16.186,72.727C16.389,74.167 16.501,75.652 16.276,77.07C15.894,79.477 14.611,81.593 13.418,83.685C12.833,84.721 12.271,85.778 11.821,86.858C11.371,87.983 11.168,89.131 10.853,90.279C10.831,90.324 10.831,90.369 10.785,90.391C10.763,90.414 10.718,90.414 10.673,90.414C10.47,90.414 10.29,90.571 10.2,90.751C10.11,90.931 10.088,91.134 10.043,91.336C9.593,94.532 9.053,97.682 8.805,100.922C8.423,105.153 8.4,109.406 8.648,113.659C8.94,118.632 9.998,123.492 11.236,128.285C12.046,131.413 13.216,134.519 13.801,137.714C15.376,146.4 13.868,155.108 13.823,163.817C13.801,168.34 15.016,172.638 15.849,177.071C16.996,183.169 19.269,190.415 18.054,196.626C17.694,198.448 16.456,199.596 15.511,201.126C15.264,201.531 15.016,201.936 14.903,202.386C14.791,202.836 14.858,203.376 15.173,203.714C15.309,203.849 15.466,203.961 15.624,204.051C15.579,203.444 15.669,202.836 15.849,202.251C16.299,200.834 17.244,199.641 18.031,198.403C18.594,197.526 19.089,196.603 19.516,195.635C19.831,194.915 20.124,194.173 20.214,193.385C20.304,192.71 20.214,192.013 20.147,191.315C19.494,185.374 18.144,179.546 17.064,173.673C16.073,168.25 14.813,162.084 15.849,156.594C16.209,154.703 17.064,152.836 18.571,151.643C19.066,151.238 19.651,150.923 20.124,150.495C21.069,149.663 21.654,148.425 21.699,147.165C20.214,148.583 17.469,148.808 16.569,146.602C16.231,145.77 16.254,144.847 16.254,143.947C16.276,140.167 16.029,136.364 15.511,132.606C15.016,129.05 13.756,125.608 12.991,122.097C11.866,116.989 11.033,111.814 10.785,106.593C10.65,103.983 10.605,101.575 11.123,98.965C11.236,98.424 11.348,97.862 11.663,97.389C11.978,96.917 12.496,96.557 13.036,96.602C13.418,96.624 13.756,96.827 14.071,97.052C16.929,99.122 19.021,102.092 20.574,105.243C21.384,106.93 22.532,108.776 22.914,110.621C23.139,111.724 23.297,112.871 23.364,113.996C23.567,116.787 23.387,119.622 23.229,122.345C22.869,128.51 22.824,134.676 23.072,140.842C23.162,143.407 23.319,146.04 22.487,148.47C22.262,149.145 21.947,149.798 21.834,150.495C21.587,151.801 21.992,153.128 22.284,154.433C23.837,161.184 22.442,168.047 22.104,174.821C21.947,178.061 22.127,181.346 22.577,184.542C22.599,184.744 22.644,184.947 22.689,185.149C22.329,182.134 22.284,179.074 22.487,176.013C22.847,170.23 24.535,164.537 24.512,158.731C24.512,157.089 24.197,155.401 24.152,153.736C24.107,152.273 24.377,150.833 24.692,149.393C25.007,147.953 24.895,146.647 25.007,145.185C25.412,140.077 25.39,134.946 25.322,129.816C25.277,126.463 25.57,123.132 25.862,119.802C26.155,116.472 26.155,113.119 26.47,109.811C26.47,109.766 26.47,109.721 26.515,109.698C26.537,109.676 26.582,109.676 26.627,109.676C27.032,109.698 27.91,109.946 28.27,109.743C28.54,111.499 28.563,113.321 28.563,115.121C28.563,116.472 28.495,117.822 28.495,119.172C28.495,120.815 28.472,122.457 28.495,124.1C28.563,127.88 28.9,131.661 29.148,135.441C29.305,138.142 29.08,140.864 29.08,143.565C29.08,145.995 30.273,148.425 29.89,150.81C29.013,156.324 29.71,161.904 30.565,167.372C31.398,172.773 31.803,178.016 31.51,183.484C31.353,186.522 31.308,189.74 30.048,192.53C29.845,193.003 29.598,193.453 29.53,193.948C29.463,194.488 29.575,195.028 29.665,195.568C30.16,198.178 30.363,200.811 30.273,203.466C30.25,204.321 30.183,205.222 30.475,206.032C30.61,206.437 30.813,206.707 31.038,206.887C30.813,203.849 29.71,200.676 31.218,198.088C31.87,196.963 32.996,196.063 33.243,194.78C33.378,194.083 33.243,193.385 33.153,192.665C32.838,189.92 33.378,187.13 33.896,184.407C34.368,181.931 34.818,179.411 34.863,176.891C34.908,174.101 34.481,171.355 34.256,168.565C33.918,164.357 32.32,153.421 38.689,152.521C39.004,153.646 39.296,154.771 39.566,155.896C39.544,155.108 39.499,154.298 39.476,153.511C39.409,151.666 39.341,149.82 39.589,147.998C39.724,147.053 39.926,146.13 40.061,145.185C40.354,142.98 40.196,140.729 40.556,138.524C40.781,137.129 41.186,135.779 41.569,134.406C42.042,132.696 42.379,130.963 42.694,129.231C42.762,128.533 42.807,127.835 42.874,127.16C41.952,133.191 38.824,138.344 38.239,144.532C38.149,145.455 38.103,146.422 37.631,147.21C37.158,148.02 36.146,148.583 35.313,148.2C34.503,147.84 34.233,146.827 34.053,145.95C32.725,139.199 32.928,132.021 32.95,125.135C32.973,118.317 31.6,111.183 35.111,104.883C36.416,102.52 38.374,100.472 39.004,97.84C37.429,98.875 35.853,99.91 34.278,100.945C33.941,101.17 33.536,101.417 33.131,101.327C32.343,101.17 32.298,100.022 32.568,99.257C33.783,95.589 37.811,93.091 40.849,90.976C39.859,91.246 38.981,91.876 38.014,92.169C37.023,92.461 35.718,92.214 35.358,91.269C34.323,88.501 35.516,85.216 35.516,82.358C35.516,78.217 34.053,74.549 32.388,70.836C32.073,73.739 33.783,76.507 34.031,79.432C34.391,83.573 32.163,87.106 33.153,91.426C33.198,91.606 33.243,91.786 33.176,91.966C33.108,92.169 32.928,92.326 32.725,92.439C31.668,93.114 29.305,94.239 28.405,93.046C27.505,91.899 27.977,88.478 27.91,87.083C27.662,82.605 27.415,78.127 27.167,73.649C27.235,74.909 26.672,76.462 26.605,77.767C26.335,82.515 26.695,87.331 25.93,91.989C25.907,92.124 25.885,92.259 25.772,92.326C25.66,92.394 25.525,92.371 25.412,92.326C25.075,92.236 24.737,92.146 24.4,92.056C23.882,91.921 23.342,91.764 22.982,91.381C22.779,91.269 22.644,90.976 22.532,90.706Z" style="fill:rgb(174,106,83);fill-opacity:0.71;fill-rule:nonzero;"/>
    <path d="M7.299,113.434C7.277,113.817 7.232,114.199 7.142,114.604C7.142,114.604 7.164,114.604 7.164,114.582C7.479,114.289 7.412,113.839 7.299,113.434Z" style="fill:rgb(174,106,83);fill-opacity:0.71;fill-rule:nonzero;"/>
    <path d="M6.24,114.716C6.42,114.739 6.6,114.761 6.78,114.716C6.015,112.916 5.362,111.093 4.822,109.226C4.079,110.283 4.124,111.701 4.507,112.939C4.889,114.176 5.565,115.279 5.992,116.494C6.285,117.349 6.465,118.227 6.6,119.104C6.802,119.239 6.982,119.352 7.162,119.374C8.4,119.554 6.397,115.166 6.24,114.716Z" style="fill:rgb(174,106,83);fill-opacity:0.71;fill-rule:nonzero;"/>
    <path d="M45.462,108.506C45.507,106.593 45.71,104.748 45.665,102.835C45.597,100.765 45.417,98.695 45.125,96.647C45.012,95.859 44.787,95.094 44.63,94.307C44.539,93.879 44.45,93.474 44.359,93.046C44.225,92.506 44.09,91.944 44.022,91.404C44,91.224 43.977,91.044 43.887,90.864C43.797,90.684 43.639,90.526 43.459,90.414L43.414,90.414C42.222,90.819 41.187,91.809 40.017,92.326C38.734,92.889 37.429,93.339 36.079,93.721C33.423,94.487 30.656,94.914 27.888,95.004C23.095,95.162 18.302,94.622 13.779,92.889C12.631,92.439 11.461,91.899 10.628,90.999C10.583,91.044 10.538,91.156 10.493,91.111C10.471,91.066 10.448,91.021 10.426,90.976C10.313,90.819 10.066,90.931 9.953,91.089C9.863,91.201 9.796,91.359 9.751,91.494C9.728,91.584 9.728,91.674 9.706,91.764C9.661,92.101 9.616,92.416 9.571,92.754C9.503,93.249 9.436,93.744 9.346,94.239C9.008,96.602 8.648,98.942 8.468,101.35C8.13,105.58 8.085,109.833 8.333,114.064C8.625,119.037 9.683,123.897 10.921,128.69C11.731,131.818 12.901,134.924 13.486,138.119C15.061,146.805 13.554,155.513 13.509,164.222C13.486,168.745 14.701,173.043 15.534,177.476C15.669,178.173 15.804,178.894 15.961,179.614C17.627,180.446 19.764,180.109 21.497,179.546C21.7,179.479 21.902,179.411 22.127,179.344C22.15,178.398 22.172,177.431 22.24,176.486C22.6,170.703 24.287,165.009 24.265,159.204C24.265,157.561 23.95,155.873 23.905,154.208C23.86,152.746 24.13,151.305 24.445,149.865C24.76,148.425 24.647,147.12 24.76,145.657C25.165,140.549 25.142,135.419 25.075,130.288C25.03,126.935 25.322,123.605 25.615,120.274C25.907,116.944 25.907,113.591 26.223,110.283C26.223,110.238 26.223,110.193 26.267,110.171C26.29,110.148 26.335,110.148 26.38,110.148C26.785,110.171 27.663,110.418 28.023,110.216C28.293,111.971 28.315,113.794 28.315,115.594C28.315,116.944 28.248,118.294 28.248,119.644C28.248,121.287 28.225,122.93 28.248,124.572C28.315,128.353 28.653,132.133 28.9,135.914C29.058,138.614 28.833,141.337 28.833,144.037C28.833,146.467 30.025,148.898 29.643,151.283C28.765,156.796 29.463,162.377 30.318,167.845C30.881,171.468 31.241,175.023 31.331,178.601C32.343,179.389 33.828,179.501 35.134,179.434C36.259,179.366 37.361,179.231 38.464,179.006C40.129,170.77 39.522,162.354 39.229,154.006C39.161,152.161 39.094,150.315 39.341,148.493C39.477,147.547 39.679,146.625 39.814,145.68C40.106,143.475 39.949,141.224 40.309,139.019C40.534,137.624 40.939,136.274 41.322,134.901C42.244,131.526 42.649,128.105 43.392,124.707C44.112,121.422 44.81,118.092 45.147,114.739C45.305,112.714 45.417,110.621 45.462,108.506Z" style="fill:rgb(175,25,0);fill-rule:nonzero;stroke:rgb(36,0,0);stroke-width:0.23px;"/>
    <path d="M20.078,13.118C20.235,16.043 20.37,18.788 21.09,21.669C21.608,23.806 22.733,25.697 24.218,27.317C24.308,27.429 24.42,27.542 24.466,27.677C24.511,27.812 24.511,27.969 24.511,28.104C24.466,30.175 24.983,32.56 23.903,34.495C23.453,35.305 22.755,35.98 21.855,36.205C18.592,37.083 15.442,35.823 12.494,37.735C6.846,41.448 5.923,49.752 5.271,55.917C4.798,60.306 4.821,64.739 4.618,69.149C4.483,72.344 3.696,75.472 3.111,78.623C2.525,81.795 2.503,84.653 2.525,87.849C2.548,91.674 2.368,95.499 2.008,99.325C1.625,103.308 1.625,107.313 0.928,111.251C0.883,111.544 0.815,111.859 0.905,112.151C1.175,113.141 2.503,114.627 3.111,115.549C3.628,116.337 4.326,117.012 5.046,117.642C5.518,118.069 6.531,119.307 7.184,119.397C8.399,119.555 6.418,115.167 6.261,114.739C6.576,114.784 6.936,114.807 7.184,114.582C7.544,114.244 7.364,113.659 7.251,113.186C6.936,111.971 7.184,110.689 7.386,109.451C7.656,107.763 6.643,107.156 6.148,105.693C5.023,102.43 6.058,98.875 7.026,95.702C8.106,92.237 9.029,88.884 9.569,85.283C10.064,81.818 9.276,78.195 9.996,74.797C10.424,72.839 10.896,70.904 11.414,68.969C11.887,67.146 12.224,65.189 12.832,63.411C13.214,63.906 13.597,64.401 13.979,64.874C14.497,65.526 14.767,66.201 14.992,67.011C15.487,68.902 15.87,70.837 16.14,72.772C16.342,74.212 16.455,75.697 16.23,77.115C15.847,79.523 14.564,81.638 13.372,83.731C12.787,84.766 12.224,85.823 11.774,86.903C11.324,88.029 11.121,89.176 10.806,90.324C10.784,90.369 10.784,90.414 10.739,90.436C10.716,90.459 10.671,90.459 10.626,90.459C10.424,90.459 10.244,90.616 10.154,90.796C10.064,90.976 10.041,91.179 9.996,91.382C9.546,94.577 9.006,97.727 8.759,100.968C8.421,105.153 8.399,109.406 8.646,113.659C8.939,118.632 9.996,123.493 11.234,128.286C12.044,131.413 13.214,134.519 13.799,137.714C15.374,146.4 13.867,155.109 13.822,163.817C13.799,168.34 15.014,172.638 15.847,177.071C16.995,183.169 19.267,190.415 18.052,196.626C17.692,198.449 16.455,199.596 15.509,201.126C15.262,201.531 15.014,201.936 14.902,202.386C14.789,202.836 14.857,203.377 15.172,203.714C15.352,203.917 15.6,204.052 15.825,204.187C16.635,204.727 17.22,205.604 18.165,205.852C18.57,205.964 18.997,205.919 19.38,206.077C19.852,206.279 20.302,206.752 20.798,206.594C21,206.954 21.248,207.36 21.653,207.472C22.058,207.585 22.485,207.405 22.778,207.112C23.07,206.819 23.228,206.414 23.385,206.032C23.993,204.569 24.466,202.949 24.308,201.351C24.173,199.956 24.15,198.178 24.578,196.828C24.713,196.401 24.916,195.996 25.006,195.546C25.343,194.083 24.398,192.643 23.97,191.293C23.453,189.628 23.093,187.94 22.845,186.207C22.35,182.854 22.283,179.434 22.508,176.058C22.868,170.275 24.555,164.582 24.533,158.777C24.533,157.134 24.218,155.446 24.173,153.781C24.128,152.318 24.398,150.878 24.713,149.438C25.028,147.998 24.916,146.693 25.028,145.23C25.433,140.122 25.411,134.991 25.343,129.861C25.298,126.508 25.591,123.178 25.883,119.847C26.176,116.517 26.176,113.164 26.491,109.856C26.491,109.811 26.491,109.766 26.536,109.744C26.558,109.721 26.603,109.721 26.648,109.721C27.053,109.744 27.931,109.991 28.291,109.789C28.561,111.544 28.583,113.366 28.583,115.167C28.583,116.517 28.516,117.867 28.516,119.217C28.516,120.86 28.493,122.502 28.516,124.145C28.583,127.926 28.921,131.706 29.169,135.486C29.326,138.187 29.101,140.91 29.101,143.61C29.101,146.04 30.294,148.47 29.911,150.856C29.034,156.369 29.731,161.949 30.586,167.418C31.419,172.818 31.824,178.061 31.531,183.529C31.374,186.567 31.329,189.785 30.069,192.575C29.866,193.048 29.619,193.498 29.551,193.993C29.484,194.533 29.596,195.073 29.686,195.613C30.181,198.223 30.384,200.856 30.294,203.512C30.271,204.367 30.204,205.267 30.496,206.077C31.419,208.687 34.524,206.324 36.077,205.402C36.257,205.289 36.437,205.199 36.594,205.087C36.909,204.907 37.202,204.704 37.517,204.524C38.507,203.917 39.497,203.534 39.092,202.094C38.89,201.351 38.372,200.744 37.922,200.114C35.964,197.233 35.717,193.498 36.212,190.055C36.707,186.635 37.652,183.282 38.44,179.906C40.465,171.243 39.79,162.399 39.475,153.601C39.407,151.756 39.34,149.911 39.587,148.088C39.722,147.143 39.925,146.22 40.06,145.275C40.352,143.07 40.195,140.82 40.555,138.614C40.78,137.219 41.185,135.869 41.567,134.496C42.49,131.121 42.895,127.701 43.638,124.303C44.358,121.017 45.055,117.687 45.393,114.334C45.595,112.241 45.73,110.126 45.775,108.011C45.82,106.098 46.023,104.253 45.978,102.34C45.91,100.27 45.73,98.2 45.438,96.152C45.325,95.364 45.1,94.599 44.943,93.812C44.83,93.249 44.695,92.687 44.583,92.124C44.448,91.539 44.493,90.909 44.268,90.369C44.178,90.144 43.953,89.874 43.728,89.941C43.683,89.964 43.638,89.986 43.593,89.964C43.525,89.941 43.503,89.874 43.48,89.829C43.278,89.199 43.053,88.569 42.85,87.939C42.737,87.601 42.58,87.263 42.468,86.949C42.085,85.958 41.68,84.991 41.185,84.046C39.745,81.323 38.327,78.263 38.08,75.157C37.945,73.515 38.08,71.872 38.372,70.252C38.53,69.442 38.71,68.631 38.912,67.821C39.002,67.439 39.205,65.931 39.497,65.751C40.15,65.323 40.375,64.761 40.735,64.108C41.005,63.636 41.702,62.848 41.635,62.263C42.22,66.494 43.615,70.702 44.065,74.91C44.538,79.208 43.66,83.708 44.695,87.916C45.168,89.806 46.023,91.359 46.563,93.227C47.508,96.467 49.646,101.62 47.868,104.86C46.766,106.863 47.373,108.956 46.608,111.004C46.428,111.454 46.18,111.904 46.203,112.399C46.225,112.894 46.721,113.389 47.17,113.186C47.621,113.006 47.711,112.286 48.206,112.219C48.566,113.434 48.048,114.739 47.441,115.842C46.833,116.944 46.068,118.047 45.955,119.307C45.933,119.487 45.933,119.69 46.068,119.825C46.315,120.117 46.811,119.892 47.103,119.622C48.656,118.272 50.096,116.809 51.423,115.212C51.851,114.694 52.279,114.154 52.504,113.501C52.864,112.466 52.616,111.386 52.526,110.329C52.436,109.181 52.594,108.078 52.571,106.953C52.459,101.935 52.279,96.782 51.874,91.764C51.559,88.006 51.176,84.248 50.793,80.49C50.321,75.877 49.556,71.354 49.308,66.764C49.038,61.813 48.723,56.885 48.363,51.935C48.003,46.939 47.148,41.021 42.76,37.848C40.622,36.295 38.867,36.565 36.414,36.61C35.199,36.633 33.849,36.453 32.769,35.89C31.329,35.125 31.419,33.212 31.329,31.75C31.261,30.67 31.351,29.5 31.486,28.442C31.486,28.352 31.509,28.262 31.531,28.194C31.576,28.082 31.666,27.992 31.734,27.902C33.196,26.259 34.547,24.369 35.267,22.276C36.257,19.396 36.549,16.426 36.437,13.388" style="fill:none;fill-rule:nonzero;stroke:rgb(31,0,0);stroke-width:0.23px;"/>
    <path d="M34.3,11.745C34.997,11.7 37.068,11.948 36.933,11.385C36.415,9.495 36.055,7.807 34.952,6.097C34.142,4.904 33.152,3.757 31.869,3.037C30.744,2.429 29.282,2.272 28.022,2.137C25.366,1.867 22.621,2.789 20.911,4.904C19.966,6.075 19.381,7.335 19.088,8.82C18.863,10.013 18.728,11.228 18.255,12.353C20.123,12.825 22.058,12.713 23.971,12.578C25.344,12.488 26.716,12.375 28.089,12.195C29.012,12.06 29.844,11.835 30.744,11.678C30.789,11.678 30.834,11.655 30.879,11.633C30.992,11.565 31.014,11.43 31.037,11.318C31.262,10.035 31.532,8.887 31.554,7.582C31.937,8.82 32.117,10.125 32.117,11.43C32.117,11.475 32.117,11.52 32.139,11.565C32.185,11.61 32.252,11.61 32.319,11.61L33.22,11.61C33.242,10.598 33.265,9.585 33.04,8.617C33.467,9.63 33.805,10.71 34.03,11.79C34.052,11.768 34.142,11.745 34.3,11.745Z" style="fill-rule:nonzero;"/>
    <path d="M41.68,53.464C41.388,52.767 41.028,52.092 40.623,51.439C39.295,49.279 39.475,46.624 39.34,44.193C39.318,43.653 38.777,36.61 39.205,36.565C38.597,36.632 37.99,36.655 37.382,36.632C37.292,37.285 37.54,38.118 37.585,38.77C37.63,39.558 37.675,40.345 37.697,41.156C37.765,42.753 37.787,44.328 37.787,45.926C37.787,48.401 38.282,51.372 36.505,53.352C34.254,55.895 31.554,58.122 28.966,60.328C26.244,62.623 24.061,59.338 22.283,57.47C20.685,55.805 18.93,54.274 17.31,52.632C16.905,52.227 16.5,51.799 16.23,51.304C15.712,50.292 15.802,48.784 15.87,47.681C16.117,44.126 16.77,40.368 16.635,36.835C16.612,36.182 14.767,37.128 14.565,37.173C14.677,37.87 14.722,38.523 14.677,39.243C14.475,42.573 14.43,45.904 13.822,49.189C13.552,50.629 13.259,51.529 12.585,52.857C11.864,54.297 11.324,55.827 11.099,57.402C10.897,58.888 11.009,60.44 11.617,61.813C11.954,62.555 12.449,63.208 12.967,63.838C13.35,64.311 13.957,65.503 14.587,65.638C14.835,65.683 15.037,65.571 15.262,65.526C15.577,65.481 15.87,65.526 16.185,65.526C16.86,65.503 17.535,65.413 18.233,65.413C21.631,65.391 25.006,65.346 28.404,65.436C30.136,65.481 31.847,65.548 33.579,65.683C34.547,65.751 35.492,65.706 36.437,65.751C37.315,65.796 38.192,65.841 39.07,65.886C39.205,65.886 39.362,65.908 39.475,65.841C39.88,65.616 40.33,64.963 40.69,64.626C42.22,63.163 43.008,61.025 42.985,58.932C43.008,57.042 42.4,55.152 41.68,53.464Z" style="fill:rgb(175,25,0);fill-rule:nonzero;stroke:rgb(36,0,0);stroke-width:0.23px;"/>
    <path d="M30.9,53.465C30.36,53.825 29.843,54.252 29.415,54.748C28.988,55.243 28.65,55.783 28.403,56.39C28.155,56.975 28.02,57.628 27.998,58.258C27.975,58.573 27.975,58.911 27.998,59.225C27.998,59.563 28.043,59.878 28.065,60.216C27.908,59.586 27.818,58.911 27.818,58.258C27.818,57.583 27.93,56.93 28.2,56.3C28.47,55.693 28.83,55.108 29.303,54.635C29.528,54.387 29.798,54.185 30.045,53.982C30.315,53.78 30.608,53.6 30.9,53.465Z" style="fill:rgb(31,0,0);fill-rule:nonzero;"/>
    <path d="M22.101,53.15C22.821,53.308 23.541,53.555 24.194,53.938C24.847,54.321 25.387,54.883 25.792,55.536C26.197,56.188 26.467,56.908 26.579,57.651C26.714,58.394 26.714,59.159 26.557,59.879C26.579,59.519 26.602,59.136 26.557,58.776C26.534,58.416 26.489,58.033 26.399,57.696C26.242,56.976 25.972,56.278 25.589,55.671C25.206,55.041 24.689,54.523 24.081,54.118C23.474,53.69 22.799,53.398 22.101,53.15Z" style="fill:rgb(31,0,0);fill-rule:nonzero;"/>
    <path d="M26.826,77.656C26.871,78.983 26.894,80.334 26.894,81.661C26.916,82.989 26.894,84.339 26.894,85.667C26.871,86.994 26.871,88.345 26.894,89.672C26.894,90.347 26.916,91 26.939,91.675C26.961,92.35 26.984,93.003 27.029,93.678C26.939,93.003 26.894,92.35 26.826,91.675C26.781,91 26.736,90.347 26.714,89.672C26.646,88.345 26.646,86.994 26.646,85.644L26.691,81.639C26.736,80.334 26.759,78.983 26.826,77.656Z" style="fill:rgb(31,0,0);fill-rule:nonzero;"/>
    <path d="M32.161,70.139C32.296,71.062 32.161,72.007 32.318,72.907C32.363,73.132 32.431,73.357 32.498,73.582L32.701,74.257C32.836,74.707 32.948,75.157 33.106,75.585C33.263,76.012 33.511,76.395 33.691,76.845C33.781,77.07 33.848,77.295 33.893,77.52C33.961,77.745 34.006,77.97 34.051,78.195C34.231,79.118 34.298,80.04 34.276,80.985C34.253,81.908 34.163,82.853 34.028,83.753C33.893,84.676 33.713,85.576 33.623,86.499C33.511,87.421 33.488,88.344 33.578,89.244C33.623,89.694 33.691,90.166 33.803,90.617C33.916,91.067 34.051,91.494 34.208,91.944C33.826,91.089 33.578,90.189 33.466,89.266C33.353,88.344 33.376,87.399 33.466,86.476C33.533,85.553 33.713,84.631 33.848,83.731C33.983,82.808 34.073,81.908 34.073,80.985C34.096,80.063 34.028,79.14 33.871,78.24C33.826,78.015 33.781,77.79 33.736,77.565C33.691,77.34 33.623,77.115 33.533,76.912C33.353,76.485 33.106,76.102 32.971,75.652C32.836,75.202 32.723,74.752 32.588,74.302L32.408,73.627C32.341,73.402 32.273,73.177 32.251,72.952C32.071,71.984 32.228,71.062 32.161,70.139Z" style="fill:rgb(31,0,0);fill-rule:nonzero;"/>
    <path d="M21.114,69.846C21.204,70.791 21.249,71.759 21.204,72.704C21.181,73.177 21.114,73.649 21.024,74.122C20.934,74.594 20.799,75.044 20.641,75.517C20.371,76.439 20.056,77.34 19.809,78.24C19.674,78.69 19.584,79.162 19.494,79.635C19.471,79.86 19.426,80.107 19.404,80.332C19.381,80.557 19.359,80.805 19.359,81.03C19.314,82.92 19.764,84.788 20.011,86.678C20.124,87.623 20.214,88.591 20.169,89.536C20.101,90.504 19.674,91.404 19.201,92.214C19.629,91.381 20.034,90.481 20.056,89.536C20.079,88.591 19.989,87.646 19.854,86.701C19.561,84.833 19.111,82.943 19.156,81.007C19.156,80.76 19.179,80.535 19.201,80.287C19.224,80.04 19.269,79.815 19.314,79.567C19.404,79.095 19.516,78.622 19.651,78.172C19.899,77.25 20.214,76.349 20.529,75.449C20.686,74.999 20.821,74.549 20.934,74.077C21.046,73.604 21.114,73.154 21.159,72.682C21.181,71.759 21.159,70.814 21.114,69.846Z" style="fill:rgb(31,0,0);fill-rule:nonzero;"/>
    <path d="M4.978,110.126C5.248,110.464 5.428,110.869 5.518,111.296C5.608,111.724 5.653,112.151 5.698,112.579C5.743,113.006 5.811,113.411 5.946,113.794C6.081,114.176 6.306,114.536 6.621,114.852C6.261,114.604 5.968,114.266 5.788,113.861C5.608,113.456 5.518,113.029 5.473,112.601C5.428,112.174 5.406,111.746 5.338,111.341C5.293,110.914 5.18,110.509 4.978,110.126Z" style="fill:rgb(31,0,0);fill-rule:nonzero;"/>
    <path d="M50.208,108.55C49.915,108.888 49.645,109.225 49.488,109.608C49.398,109.81 49.33,110.013 49.285,110.215C49.218,110.418 49.15,110.643 49.038,110.846C48.633,111.656 48.025,112.308 47.373,112.893C47.913,112.196 48.475,111.521 48.835,110.756C48.925,110.553 49.015,110.373 49.083,110.17C49.15,109.968 49.24,109.743 49.33,109.54C49.533,109.135 49.87,108.82 50.208,108.55Z" style="fill:rgb(31,0,0);fill-rule:nonzero;"/>
    <path d="M39.428,147.57C38.956,147.93 38.618,148.425 38.258,148.898C38.078,149.145 37.876,149.371 37.651,149.573C37.425,149.776 37.133,149.933 36.84,150.046C36.548,150.158 36.21,150.181 35.895,150.113C35.58,150.046 35.31,149.866 35.063,149.708L34.32,149.213C34.073,149.033 33.825,148.875 33.578,148.695C33.847,148.83 34.095,148.988 34.365,149.123L35.153,149.573C35.423,149.731 35.648,149.866 35.94,149.911C36.21,149.978 36.503,149.933 36.773,149.843C37.313,149.663 37.741,149.258 38.123,148.808C38.326,148.583 38.506,148.358 38.731,148.133C38.911,147.908 39.158,147.705 39.428,147.57Z" style="fill:rgb(31,0,0);fill-rule:nonzero;"/>
    <path d="M21.115,148.088C20.575,148.358 20.08,148.696 19.63,149.056L19.27,149.326C19.158,149.416 19.045,149.506 18.91,149.596C18.662,149.776 18.37,149.911 18.055,149.979C17.447,150.114 16.795,150.001 16.255,149.686C15.985,149.529 15.737,149.349 15.535,149.123C15.332,148.898 15.175,148.628 15.062,148.358C15.22,148.606 15.4,148.853 15.625,149.033C15.85,149.236 16.075,149.394 16.345,149.529C16.862,149.776 17.47,149.889 18.01,149.754C18.145,149.731 18.28,149.686 18.415,149.619C18.55,149.551 18.662,149.506 18.797,149.416C19.045,149.259 19.27,149.056 19.517,148.898C19.765,148.741 20.013,148.561 20.283,148.426C20.553,148.313 20.845,148.178 21.115,148.088Z" style="fill:rgb(31,0,0);fill-rule:nonzero;"/>
    <path d="M24.647,148.539C24.422,148.899 24.219,149.259 24.017,149.619C23.837,149.979 23.679,150.362 23.589,150.767C23.499,151.149 23.544,151.554 23.612,151.959C23.702,152.364 23.837,152.77 23.904,153.175C23.747,152.792 23.567,152.41 23.432,152.004C23.296,151.599 23.251,151.149 23.341,150.722C23.567,149.867 24.062,149.147 24.647,148.539Z" style="fill:rgb(31,0,0);fill-rule:nonzero;"/>
    <path d="M31.778,26.687C32.048,26.192 32.34,25.922 32.7,25.337C32.768,25.247 32.858,25.089 33.061,24.752C33.151,24.594 33.376,24.189 33.376,24.189C33.376,24.189 33.556,23.852 33.668,23.671C33.916,23.221 34.051,22.929 34.118,22.771C34.411,22.164 34.478,21.759 34.726,21.264C34.456,21.759 34.163,22.029 33.803,22.614C33.713,22.749 33.556,23.019 33.286,23.469C33.173,23.649 32.993,23.987 32.993,23.987C32.993,23.987 32.768,24.392 32.7,24.572C32.52,24.909 32.453,25.089 32.408,25.179C32.115,25.787 32.025,26.192 31.778,26.687Z" style="fill:white;fill-opacity:0.1;fill-rule:nonzero;"/>
    <path d="M30.338,56.66C30.428,56.502 30.541,56.435 30.676,56.255C30.743,56.164 30.946,55.895 31.126,55.625C31.306,55.377 31.463,55.129 31.463,55.129C31.463,55.129 31.621,54.882 31.801,54.634C31.981,54.364 32.161,54.072 32.206,53.982C32.319,53.802 32.341,53.667 32.453,53.532C32.341,53.667 32.206,53.712 32.026,53.847C31.936,53.914 31.666,54.162 31.463,54.409C31.261,54.657 31.103,54.904 31.103,54.904C31.103,54.904 30.946,55.152 30.788,55.445C30.631,55.737 30.518,56.052 30.473,56.164C30.406,56.345 30.406,56.48 30.338,56.66Z" style="fill:white;fill-opacity:0.1;fill-rule:nonzero;"/>
    <path d="M21.944,53.51C22.079,53.6 22.146,53.69 22.281,53.825C22.326,53.87 22.394,53.938 22.484,54.005C22.574,54.095 22.686,54.185 22.776,54.275C22.979,54.455 23.181,54.613 23.181,54.613C23.181,54.613 23.361,54.77 23.586,54.95C23.789,55.13 24.036,55.311 24.126,55.356C24.284,55.468 24.396,55.49 24.509,55.603C24.419,55.49 24.396,55.356 24.306,55.198C24.284,55.153 24.216,55.063 24.149,54.973C24.081,54.883 23.969,54.748 23.879,54.658C23.676,54.455 23.474,54.298 23.474,54.298C23.474,54.298 23.271,54.14 23.024,53.983C22.911,53.915 22.776,53.848 22.664,53.78C22.551,53.713 22.461,53.69 22.394,53.668C22.191,53.578 22.079,53.578 21.944,53.51Z" style="fill:white;fill-opacity:0.1;fill-rule:nonzero;"/>
    <path d="M42.87,39.31C43.05,39.468 43.117,39.625 43.297,39.828C43.387,39.94 43.657,40.3 43.905,40.615C44.153,40.93 44.355,41.245 44.355,41.245C44.355,41.245 44.558,41.538 44.76,41.898C44.963,42.235 45.188,42.618 45.278,42.753C45.413,43.001 45.525,43.113 45.615,43.338C45.548,43.113 45.57,42.956 45.503,42.663C45.458,42.505 45.323,42.078 45.143,41.695C45.053,41.515 44.94,41.335 44.873,41.2C44.783,41.065 44.737,40.998 44.737,40.998C44.737,40.998 44.693,40.93 44.603,40.795C44.513,40.683 44.4,40.525 44.243,40.368C43.972,40.053 43.612,39.76 43.477,39.67C43.207,39.49 43.05,39.445 42.87,39.31Z" style="fill:white;fill-opacity:0.1;fill-rule:nonzero;"/>
    <path d="M10.988,40.436C10.943,40.481 10.853,40.481 10.763,40.526C10.741,40.548 10.696,40.571 10.651,40.593C10.606,40.638 10.538,40.661 10.493,40.706C10.381,40.796 10.313,40.886 10.313,40.886C10.313,40.886 10.223,40.976 10.156,41.088C10.111,41.133 10.088,41.201 10.066,41.268C10.043,41.313 10.021,41.381 10.021,41.403C9.998,41.493 9.998,41.583 9.976,41.651C10.021,41.606 10.111,41.606 10.201,41.561C10.223,41.538 10.268,41.516 10.313,41.493C10.358,41.448 10.426,41.426 10.471,41.381C10.583,41.291 10.651,41.201 10.651,41.201C10.651,41.201 10.741,41.111 10.808,40.998C10.853,40.931 10.876,40.886 10.898,40.818C10.921,40.773 10.943,40.706 10.943,40.683C10.943,40.593 10.943,40.503 10.988,40.436Z" style="fill:white;fill-opacity:0.1;fill-rule:nonzero;"/>
    <path d="M31.686,73.74C31.866,74.28 31.933,74.662 32.136,75.292C32.158,75.405 32.226,75.585 32.316,75.945C32.518,76.643 32.833,77.813 33.013,78.825C33.216,79.838 33.306,80.671 33.306,80.671C33.306,80.671 33.328,80.851 33.351,81.143C33.373,81.436 33.396,81.841 33.396,82.291C33.396,82.741 33.396,83.236 33.351,83.731C33.306,84.226 33.238,84.676 33.171,85.059C33.148,85.194 33.126,85.306 33.103,85.396C33.081,85.509 33.058,85.576 33.036,85.666C32.991,85.824 32.968,85.936 32.946,86.026C32.766,86.656 32.653,87.039 32.406,87.534C32.676,87.039 32.878,86.724 33.148,86.071C33.171,86.004 33.216,85.869 33.283,85.711C33.306,85.621 33.351,85.554 33.373,85.441C33.396,85.329 33.441,85.216 33.463,85.104C33.576,84.721 33.666,84.248 33.734,83.753C33.801,83.258 33.824,82.741 33.846,82.268C33.846,81.796 33.824,81.391 33.801,81.098C33.779,80.806 33.756,80.626 33.756,80.626C33.756,80.626 33.666,79.748 33.441,78.735C33.328,78.218 33.171,77.678 33.013,77.16C32.856,76.665 32.698,76.193 32.563,75.855C32.428,75.495 32.361,75.315 32.316,75.202C32.068,74.617 31.888,74.28 31.686,73.74Z" style="fill:white;fill-opacity:0.1;fill-rule:nonzero;"/>
    <path d="M28.087,77.362C28.065,77.925 27.975,78.307 27.93,78.983C27.93,79.095 27.907,79.275 27.907,79.68L27.907,80.693C27.907,81.053 27.93,81.345 27.93,81.345C27.93,81.345 27.952,81.593 27.975,81.908C27.997,82.223 28.042,82.605 28.065,82.875C28.132,83.393 28.177,83.708 28.2,83.866C28.313,84.541 28.448,84.901 28.538,85.463C28.47,84.901 28.538,84.518 28.515,83.843C28.515,83.686 28.493,83.348 28.47,82.853C28.448,82.313 28.38,81.345 28.38,81.345C28.38,81.345 28.313,80.175 28.267,79.68C28.245,79.298 28.222,79.118 28.222,79.005C28.177,78.307 28.087,77.925 28.087,77.362Z" style="fill:white;fill-opacity:0.1;fill-rule:nonzero;"/>
    <path d="M48.837,68.946C48.882,69.508 48.882,69.891 48.927,70.566C48.95,70.791 48.972,71.241 49.017,71.781C49.062,72.546 49.152,73.469 49.22,74.324C49.377,76.057 49.535,77.632 49.535,77.632C49.535,77.632 49.647,78.577 49.76,79.769C49.895,80.962 50.075,82.425 50.233,83.46C50.3,83.978 50.345,84.293 50.368,84.45C50.458,85.125 50.57,85.485 50.615,86.048C50.57,85.485 50.57,85.103 50.525,84.428C50.525,84.27 50.503,83.933 50.458,83.437C50.39,82.402 50.278,80.94 50.165,79.725C50.053,78.532 49.963,77.587 49.963,77.587C49.963,77.587 49.805,76.012 49.602,74.279C49.49,73.424 49.377,72.501 49.265,71.759C49.197,71.219 49.13,70.769 49.085,70.544C48.995,69.891 48.905,69.508 48.837,68.946Z" style="fill:white;fill-opacity:0.1;fill-rule:nonzero;"/>
    <path d="M15.915,85.126C15.847,85.216 15.735,85.238 15.622,85.328C15.6,85.351 15.532,85.396 15.465,85.463C15.397,85.531 15.33,85.621 15.262,85.688C15.127,85.846 15.037,86.026 15.037,86.026C15.037,86.026 14.925,86.183 14.857,86.386C14.812,86.476 14.79,86.588 14.745,86.678C14.722,86.768 14.7,86.858 14.7,86.881C14.677,87.038 14.7,87.128 14.655,87.241C14.7,87.128 14.79,87.083 14.902,86.971C14.925,86.948 14.97,86.881 15.037,86.813C15.082,86.746 15.15,86.656 15.217,86.566C15.33,86.386 15.42,86.228 15.42,86.228C15.42,86.228 15.51,86.071 15.622,85.891C15.667,85.801 15.712,85.711 15.757,85.621C15.802,85.531 15.825,85.463 15.847,85.418C15.847,85.328 15.847,85.238 15.915,85.126Z" style="fill:white;fill-opacity:0.1;fill-rule:nonzero;"/>
    <path d="M44.225,99.1C44.271,99.663 44.271,100.045 44.293,100.72C44.293,100.833 44.293,101.013 44.316,101.395C44.338,101.868 44.338,102.498 44.361,103.173C44.361,103.848 44.383,104.591 44.361,105.243C44.361,105.918 44.338,106.526 44.338,106.976C44.316,107.426 44.316,107.696 44.316,107.696C44.316,107.696 44.293,108.619 44.225,109.811C44.203,110.104 44.181,110.419 44.158,110.734C44.136,111.049 44.113,111.364 44.091,111.679C44.045,112.309 43.978,112.939 43.933,113.434C43.888,113.952 43.843,114.267 43.843,114.424C43.775,115.099 43.753,115.482 43.685,116.045C43.775,115.482 43.911,115.122 44.023,114.447C44.045,114.289 44.113,113.974 44.203,113.457C44.293,112.939 44.383,112.332 44.451,111.702C44.496,111.386 44.518,111.071 44.563,110.734C44.586,110.419 44.631,110.104 44.653,109.811C44.698,109.226 44.743,108.686 44.743,108.304C44.766,107.921 44.766,107.696 44.766,107.696C44.766,107.696 44.766,107.426 44.788,106.976C44.811,106.526 44.811,105.918 44.788,105.243C44.766,104.568 44.743,103.826 44.698,103.151C44.653,102.475 44.586,101.845 44.541,101.373C44.496,100.99 44.473,100.81 44.451,100.698C44.383,100.023 44.271,99.663 44.225,99.1Z" style="fill:white;fill-opacity:0.1;fill-rule:nonzero;"/>
    <path d="M20.819,115.302C20.841,115.864 20.796,116.247 20.796,116.922L20.796,117.62C20.796,118.362 20.819,119.622 20.841,120.702C20.864,121.782 20.886,122.66 20.886,122.66C20.886,122.66 20.909,123.403 20.931,124.348C20.954,125.293 20.999,126.441 21.044,127.251C21.066,127.768 21.089,128.083 21.089,128.241C21.134,128.916 21.179,129.298 21.201,129.861C21.201,129.298 21.269,128.916 21.291,128.241C21.291,128.083 21.314,127.746 21.336,127.228C21.359,126.396 21.381,125.248 21.359,124.303C21.359,123.358 21.336,122.615 21.336,122.615C21.336,122.615 21.314,121.737 21.269,120.657C21.224,119.577 21.134,118.34 21.066,117.575C21.021,117.192 21.021,117.012 20.999,116.899C20.931,116.247 20.841,115.864 20.819,115.302Z" style="fill:white;fill-opacity:0.1;fill-rule:nonzero;"/>
    <path d="M35.446,146.805C35.468,146.872 35.423,146.94 35.446,147.052C35.446,147.075 35.468,147.142 35.491,147.187C35.513,147.255 35.558,147.322 35.603,147.367C35.693,147.48 35.806,147.547 35.806,147.547C35.806,147.547 35.918,147.615 36.053,147.66C36.121,147.682 36.211,147.682 36.278,147.682C36.346,147.682 36.391,147.66 36.413,147.66C36.503,147.637 36.548,147.57 36.616,147.547C36.548,147.547 36.503,147.48 36.436,147.435C36.413,147.412 36.391,147.39 36.346,147.367C36.301,147.345 36.256,147.3 36.211,147.277C36.121,147.232 36.031,147.165 36.031,147.165C36.031,147.165 35.941,147.12 35.873,147.052C35.828,147.03 35.783,146.985 35.738,146.962C35.693,146.94 35.648,146.917 35.648,146.895C35.558,146.895 35.491,146.872 35.446,146.805Z" style="fill:white;fill-opacity:0.1;fill-rule:nonzero;"/>
    <path d="M17.581,145.905C17.581,145.972 17.536,146.04 17.514,146.107C17.491,146.175 17.469,146.242 17.446,146.332C17.446,146.377 17.424,146.49 17.446,146.625C17.469,146.76 17.491,146.895 17.559,147.03C17.604,147.165 17.694,147.277 17.739,147.367C17.806,147.457 17.851,147.502 17.851,147.502C17.851,147.502 17.896,147.547 17.964,147.615C18.031,147.682 18.144,147.773 18.279,147.84C18.414,147.908 18.549,147.975 18.662,147.998C18.774,148.043 18.887,148.02 18.932,148.043C19.022,148.043 19.112,148.02 19.179,147.998C19.247,147.975 19.314,147.953 19.382,147.953C19.314,147.953 19.247,147.93 19.179,147.908C19.089,147.863 19.044,147.84 18.977,147.817C18.932,147.795 18.864,147.772 18.774,147.705C18.729,147.682 18.684,147.66 18.639,147.615C18.594,147.592 18.549,147.547 18.504,147.502C18.414,147.435 18.324,147.345 18.279,147.3C18.212,147.232 18.189,147.21 18.189,147.21C18.189,147.21 18.167,147.165 18.099,147.097C18.054,147.03 17.986,146.94 17.919,146.85C17.874,146.805 17.851,146.76 17.829,146.692C17.806,146.647 17.784,146.58 17.761,146.535C17.716,146.445 17.694,146.355 17.671,146.31C17.649,146.265 17.626,146.197 17.604,146.107C17.581,146.04 17.581,145.972 17.581,145.905Z" style="fill:white;fill-opacity:0.1;fill-rule:nonzero;"/>
    <path d="M38.056,157.607C38.191,158.147 38.191,158.552 38.303,159.205C38.326,159.317 38.348,159.497 38.393,159.88C38.416,160.082 38.461,160.352 38.506,160.667C38.551,160.96 38.573,161.275 38.618,161.59C38.641,161.882 38.686,162.152 38.708,162.355C38.731,162.557 38.731,162.67 38.731,162.67C38.731,162.67 38.731,162.783 38.753,162.94C38.776,163.098 38.776,163.345 38.798,163.593C38.843,164.11 38.888,164.763 38.911,165.213C38.933,165.73 38.956,166.045 38.956,166.203C38.978,166.878 39.046,167.261 39.023,167.823C39.068,167.261 39.158,166.878 39.203,166.203C39.226,166.045 39.248,165.708 39.248,165.19C39.248,164.74 39.248,164.088 39.226,163.548C39.203,163.278 39.203,163.053 39.181,162.873C39.158,162.693 39.158,162.602 39.158,162.602C39.158,162.602 39.136,162.49 39.113,162.287C39.091,162.085 39.068,161.815 39.023,161.522C38.933,160.937 38.798,160.24 38.708,159.835C38.618,159.452 38.573,159.272 38.551,159.16C38.371,158.485 38.191,158.147 38.056,157.607Z" style="fill:white;fill-opacity:0.1;fill-rule:nonzero;"/>
    <path d="M20.774,156.706C20.931,157.246 20.976,157.629 21.111,158.281C21.134,158.394 21.179,158.574 21.269,158.956C21.427,159.654 21.787,161.297 21.787,161.297C21.787,161.297 22.079,162.692 22.214,163.457C22.304,163.952 22.372,164.267 22.417,164.447C22.552,165.1 22.687,165.482 22.754,166.045C22.709,165.482 22.754,165.099 22.687,164.424C22.664,164.267 22.642,163.929 22.597,163.434C22.552,163.052 22.462,162.489 22.394,162.039C22.304,161.589 22.237,161.252 22.237,161.252C22.237,161.252 22.147,160.824 22.034,160.329C21.922,159.834 21.741,159.249 21.629,158.911C21.517,158.551 21.449,158.371 21.404,158.259C21.156,157.561 20.954,157.224 20.774,156.706Z" style="fill:white;fill-opacity:0.1;fill-rule:nonzero;"/>
    <path d="M37.833,45.926C37.833,48.019 38.216,50.314 37.271,52.272C36.258,54.41 32.928,55.085 30.88,55.985C28.652,56.953 27.1,57.088 24.782,56.548C21.812,55.873 19.494,54.815 17.356,52.632C16.951,52.227 16.546,51.8 16.276,51.304C15.758,50.292 15.848,48.784 15.916,47.682C16.163,44.126 16.816,40.368 16.681,36.835C16.659,36.183 14.813,37.128 14.611,37.173C14.723,37.871 14.768,38.523 14.723,39.243C14.521,42.574 14.476,45.904 13.868,49.189C13.598,50.63 13.306,51.53 12.631,52.857C11.91,54.297 11.37,55.828 11.145,57.403C10.943,58.888 11.055,60.441 11.663,61.813C12,62.556 12.496,63.208 13.013,63.839C13.396,64.311 14.003,65.504 14.633,65.639C14.881,65.684 15.083,65.571 15.308,65.526C15.623,65.481 15.916,65.526 16.231,65.526C16.906,65.504 17.581,65.414 18.279,65.414C21.677,65.391 25.052,65.346 28.45,65.436C30.183,65.481 31.893,65.549 33.625,65.684C34.593,65.751 35.538,65.706 36.483,65.751C37.361,65.796 38.238,65.841 39.116,65.886C39.251,65.886 39.408,65.909 39.521,65.841C39.926,65.616 40.376,64.964 40.736,64.626C42.266,63.163 43.054,61.026 43.031,58.933C43.009,57.065 42.401,55.153 41.681,53.487C41.389,52.79 41.029,52.115 40.624,51.462C39.296,49.302 39.476,46.647 39.341,44.216C39.319,43.676 38.779,36.633 39.206,36.588C38.598,36.655 37.991,36.678 37.383,36.655C37.293,37.308 37.541,38.141 37.586,38.793C37.631,39.581 37.676,40.368 37.698,41.178C37.788,42.731 37.833,44.329 37.833,45.926Z" style="fill:rgb(175,25,0);fill-rule:nonzero;stroke:rgb(36,0,0);stroke-width:0.23px;"/>
    <path d="M13.868,49.145C13.778,49.618 13.688,50.023 13.576,50.428C13.666,50.27 13.733,50.112 13.801,49.933C14.814,47.727 15.309,45.342 15.804,42.957C16.209,40.999 16.614,39.041 16.501,37.039C16.501,36.881 16.479,36.701 16.434,36.544C15.939,36.476 14.746,37.061 14.588,37.106C14.701,37.804 14.746,38.456 14.701,39.176C14.543,42.529 14.476,45.882 13.868,49.145Z" style="fill-opacity:0.28;fill-rule:nonzero;"/>
    <path d="M40.737,64.603C42.268,63.14 43.055,61.002 43.033,58.91C43.01,57.042 42.403,55.129 41.683,53.464C41.39,52.766 41.03,52.091 40.625,51.439C39.297,49.278 39.477,46.623 39.342,44.193C39.32,43.653 38.78,36.609 39.207,36.565C38.6,36.632 37.992,36.655 37.385,36.632C37.295,37.285 37.542,38.117 37.587,38.77C37.632,39.557 37.677,40.345 37.7,41.155C37.767,42.753 37.79,44.328 37.79,45.926C37.79,46.398 37.812,46.871 37.812,47.366C37.88,47.636 37.97,47.906 38.037,48.198C38.24,48.941 38.465,49.706 38.847,50.381C39.297,51.146 39.927,51.754 40.467,52.451C41.66,53.981 42.358,55.939 42.29,57.874C41.953,67.618 30.071,62.082 24.536,62.915C20.98,63.455 17.335,63.59 14.094,61.677C12.362,60.665 11.259,58.684 11.214,56.682C11.169,56.907 11.124,57.132 11.102,57.379C10.899,58.865 11.012,60.417 11.619,61.79C11.957,62.532 12.452,63.185 12.969,63.815C13.352,64.288 13.959,65.48 14.589,65.615C14.837,65.66 15.04,65.548 15.265,65.503C15.58,65.458 15.872,65.503 16.187,65.503C16.862,65.48 17.537,65.39 18.235,65.39C21.633,65.368 25.008,65.323 28.406,65.413C30.139,65.458 31.849,65.525 33.582,65.66C34.549,65.728 35.494,65.683 36.439,65.728C37.317,65.773 38.195,65.818 39.072,65.863C39.207,65.863 39.365,65.885 39.477,65.818C39.905,65.593 40.377,64.94 40.737,64.603Z" style="fill-opacity:0.28;fill-rule:nonzero;"/>
    <path d="M43.346,125.518C43.458,125.135 43.526,124.775 43.526,124.438C43.458,124.798 43.413,125.158 43.346,125.518Z" style="fill-opacity:0.28;fill-rule:nonzero;"/>
    <path d="M13.552,92.259C13.462,92.214 13.372,92.191 13.282,92.146C13.215,92.124 13.17,92.101 13.102,92.056C13.035,92.011 12.945,91.989 12.877,91.944C12.81,91.921 12.765,91.876 12.697,91.854C12.63,91.809 12.562,91.786 12.495,91.741C12.427,91.696 12.36,91.674 12.315,91.629C12.247,91.584 12.18,91.561 12.135,91.516C12.067,91.471 12,91.449 11.955,91.404C11.887,91.359 11.842,91.314 11.775,91.291C11.707,91.246 11.662,91.201 11.595,91.156C11.527,91.111 11.482,91.066 11.415,91.021C11.37,90.976 11.302,90.931 11.257,90.886C10.897,90.864 10.514,90.864 10.154,90.864C10.109,90.931 10.087,91.021 10.064,91.089C10.042,91.179 10.042,91.269 10.019,91.359C9.974,91.651 9.929,91.921 9.907,92.214C9.502,95.994 8.984,99.73 8.624,103.51C8.444,106.886 8.467,110.283 8.669,113.659C8.962,118.632 10.019,123.492 11.257,128.285C12.067,131.413 13.237,134.519 13.822,137.714C15.398,146.4 13.89,155.108 13.845,163.817C13.822,168.34 15.038,172.638 15.87,177.071C16.005,177.769 16.14,178.489 16.298,179.209C16.995,179.546 17.76,179.681 18.525,179.704C17.153,174.011 16.208,168.205 15.713,162.354C15.578,160.869 15.488,159.361 15.668,157.854C16.005,154.838 17.378,152.858 19.651,150.968C21.046,149.798 22.463,148.133 21.991,146.378C20.866,147.368 19.335,148.425 17.985,147.75C17.243,147.39 16.815,146.558 16.703,145.747C16.568,144.937 16.703,144.105 16.793,143.272C17.49,136.116 15.083,129.366 13.507,122.502C12.517,118.159 11.032,112.309 12.742,107.988C13.102,107.088 13.665,106.21 14.565,105.873C15.915,105.378 17.333,106.323 18.345,107.336C25.051,114.041 23.543,124.145 23.768,132.831C23.926,138.569 24.039,144.442 22.171,149.888C21.766,151.081 22.171,151.441 22.508,152.453C22.913,153.691 22.958,155.153 23.003,156.436C23.093,159.091 22.823,161.747 22.508,164.402C21.946,169.195 21.158,174.191 22.351,178.939C22.373,178.939 22.396,178.916 22.418,178.916C22.441,177.971 22.463,177.003 22.531,176.058C22.891,170.275 24.578,164.582 24.556,158.776C24.556,157.134 24.241,155.446 24.196,153.781C24.151,152.318 24.421,150.878 24.736,149.438C25.051,147.998 24.939,146.693 25.051,145.23C25.456,140.122 25.434,134.991 25.366,129.861C25.321,126.508 25.614,123.177 25.906,119.847C26.199,116.517 26.199,113.164 26.514,109.856C26.514,109.811 26.514,109.766 26.559,109.743C26.581,109.721 26.626,109.721 26.671,109.721C27.076,109.743 27.954,109.991 28.314,109.788C28.584,111.544 28.607,113.366 28.607,115.167C28.607,116.517 28.539,117.867 28.539,119.217C28.539,120.86 28.517,122.502 28.539,124.145C28.607,127.925 28.944,131.706 29.192,135.486C29.349,138.187 29.124,140.909 29.124,143.61C29.124,146.04 30.317,148.47 29.934,150.856C29.057,156.369 29.754,161.949 30.609,167.417C31.172,171.04 31.532,174.596 31.622,178.174C32.634,178.961 34.12,179.074 35.425,179.006L35.447,179.006C36.28,173.111 34.435,166.99 34.187,161.117C34.142,159.924 34.142,158.709 34.615,157.606C35.02,156.684 35.717,155.919 36.392,155.176C37,154.523 37.608,153.848 38.238,153.196C38.44,152.971 38.71,152.723 39.025,152.768C39.228,152.791 39.385,152.948 39.498,153.151C39.43,151.463 39.408,149.753 39.633,148.088C39.768,147.143 39.97,146.22 40.105,145.275C40.398,143.07 40.24,140.819 40.6,138.614C40.825,137.219 41.23,135.869 41.613,134.496C42.176,132.448 42.536,130.401 42.918,128.33C43.076,127.363 43.233,126.395 43.391,125.428C42.986,126.913 41.951,128.691 41.545,129.906C40.915,131.773 40.33,133.664 39.813,135.554C39.34,137.219 38.755,138.907 38.35,140.549C37.9,142.372 38.013,144.532 37.878,146.423C37.855,146.76 37.833,147.098 37.72,147.413C37.405,148.335 36.325,148.92 35.38,148.695C33.827,148.313 33.737,146.265 33.377,145.005C32.882,143.272 32.612,141.449 32.409,139.672C31.419,131.211 31.419,122.637 32.387,114.176C32.972,109.046 34.052,103.645 37.608,99.887C35.852,101.012 33.67,102.025 32.252,103.578C31.104,104.838 30.182,106.391 28.427,106.886C25.119,107.853 21.046,101.777 23.543,99.1C23.746,98.897 23.994,98.65 23.926,98.357C23.836,98.02 23.318,97.885 23.386,97.547C25.389,95.724 28.472,95.679 30.654,94.082C27.751,94.329 24.466,94.599 21.586,94.239C21.293,94.194 21.001,94.149 20.708,94.104C20.596,94.082 20.483,94.059 20.371,94.059C20.235,94.037 20.101,94.014 19.966,93.992C19.831,93.969 19.696,93.947 19.561,93.924C19.425,93.902 19.29,93.879 19.178,93.857C19.043,93.834 18.885,93.789 18.75,93.767C18.638,93.744 18.525,93.722 18.39,93.699C18.188,93.654 17.985,93.609 17.783,93.564C17.693,93.542 17.603,93.519 17.513,93.497C17.288,93.429 17.063,93.384 16.815,93.317C16.725,93.294 16.635,93.272 16.545,93.227C16.365,93.182 16.185,93.114 16.028,93.069C15.938,93.046 15.825,93.001 15.735,92.979C15.555,92.912 15.375,92.867 15.195,92.799C15.105,92.777 15.038,92.732 14.947,92.709C14.677,92.619 14.43,92.529 14.16,92.416C14.025,92.371 13.89,92.304 13.755,92.259C13.642,92.304 13.597,92.281 13.552,92.259Z" style="fill-opacity:0.28;fill-rule:nonzero;"/>
</svg>
