<?xml version="1.0" encoding="UTF-8" standalone="no"?>
<!DOCTYPE svg PUBLIC "-//W3C//DTD SVG 1.1//EN" "http://www.w3.org/Graphics/SVG/1.1/DTD/svg11.dtd">
<svg width="100%" height="100%" viewBox="0 0 62 208" version="1.1" xmlns="http://www.w3.org/2000/svg" xmlns:xlink="http://www.w3.org/1999/xlink" xml:space="preserve" xmlns:serif="http://www.serif.com/" style="fill-rule:evenodd;clip-rule:evenodd;stroke-miterlimit:10;">
    <path d="M19.961,21.382C19.553,24.323 19.282,27.287 19.123,30.25C19.01,32.165 18.399,35.585 19.825,37.112C20.255,37.568 20.82,37.842 21.409,38.092C25.595,39.87 30.234,40.326 34.782,40.212C39.33,40.098 43.833,39.437 48.381,39.027C48.879,38.981 49.444,38.913 49.784,38.548C50.191,38.092 50.123,37.386 50.033,36.77C49.195,31.732 48.63,26.603 47.566,21.587C46.729,17.666 46.299,13.631 44.964,9.847C44.376,8.183 43.719,6.314 42.792,4.672C41.887,3.054 40.71,1.64 39.103,0.797C37.723,0.067 36.117,-0.092 34.578,0.044C33.809,0.113 32.904,0.204 32.179,0.478C31.636,0.683 31.297,1.002 30.641,0.956C30.166,0.911 29.69,0.774 29.193,0.774C28.446,0.751 27.722,1.07 27.111,1.526C23.604,4.125 22.291,7.704 21.341,11.899C20.662,15.022 20.391,18.214 19.961,21.382Z" style="fill-rule:nonzero;"/>
    <path d="M25.91,10.12C26.136,13.882 26.34,17.598 27.177,21.291C27.584,23.114 28.24,25.075 29.553,26.443C29.643,26.534 29.756,26.648 29.802,26.785C29.847,26.899 29.824,27.035 29.802,27.172C29.621,28.654 29.756,30.455 28.897,31.732C27.562,33.738 25.299,34.194 23.172,34.832C21.882,35.219 20.502,35.379 19.302,35.926C16.542,37.18 14.302,38.707 12.469,41.124C10.749,43.403 9.437,45.98 8.509,48.692C7.174,52.568 6.993,56.489 6.473,60.501C6.178,62.849 6.246,65.311 5.771,67.614C4.753,72.675 2.649,77.485 2.083,82.682C1.789,85.327 2.287,88.245 2.377,90.935C2.445,93.306 2.535,95.677 2.558,98.047C2.581,100.373 1.427,102.47 1.087,104.75C0.748,106.892 1.2,109.149 1.336,111.292C1.381,111.908 1.381,112.546 1.562,113.139C1.947,114.393 2.988,115.122 3.757,116.102C4.685,117.242 5.273,118.405 6.495,119.271C6.608,119.34 6.722,119.431 6.857,119.408C7.106,119.362 7.151,118.998 7.106,118.747C6.789,116.672 6.292,114.621 5.862,112.569C6.133,113.048 6.495,113.526 6.993,113.686C7.491,113.846 8.215,113.526 8.215,112.979C8.215,112.774 8.124,112.569 8.034,112.387C7.265,110.654 7.785,109.172 7.898,107.348C7.989,106.14 7.898,104.909 7.355,103.838C7.219,103.564 7.061,103.291 6.948,103.017C5.726,100.008 7.649,96.52 8.079,93.534C8.668,89.544 10.206,86.079 11.247,82.249C10.659,84.939 10.093,87.675 10.297,90.433C10.116,90.274 9.822,90.365 9.686,90.547C9.55,90.752 9.527,91.003 9.527,91.231C9.233,99.643 9.459,108.078 10.5,116.444C11.609,125.267 13.804,133.588 16.949,141.863C17.108,142.296 17.266,142.729 17.334,143.185C17.379,143.595 17.334,143.983 17.289,144.393C15.795,159.28 18.986,173.482 22.855,187.73C23.353,189.531 23.262,191.605 23.285,193.475C23.285,193.725 23.285,193.953 23.194,194.181C23.081,194.455 22.855,194.66 22.651,194.865C21.407,196.005 20.298,197.373 19.302,198.741C18.759,199.47 17.492,200.656 17.628,201.613C17.696,202.115 18.126,202.525 18.624,202.571C18.759,202.571 18.895,202.571 18.986,202.662C19.574,203.141 19.257,203.916 20.298,204.052C20.705,204.098 21.135,204.075 21.497,204.303C21.701,204.44 21.859,204.622 22.018,204.805C22.606,205.466 22.991,205.443 23.828,205.466C24.077,206.195 24.688,206.788 25.412,206.993C28.127,207.791 29.168,204.805 29.01,202.776C28.851,200.405 28.625,197.555 29.145,195.23C29.734,192.654 28.625,189.576 28.489,186.932C28.286,182.259 28.738,177.585 29.236,172.935C29.485,170.564 29.756,168.216 29.96,165.845C30.209,162.676 29.711,159.804 29.145,156.795C28.716,154.583 28.331,152.304 28.467,150.047C28.535,148.633 29.078,147.334 29.259,145.943C30.119,139.743 30.571,133.474 30.616,127.227C30.662,121.004 30.073,114.803 29.96,108.602C30.39,108.602 31.612,108.329 31.77,108.899C31.816,109.013 31.793,109.127 31.77,109.241C31.205,113.846 30.775,118.496 30.775,123.147C30.775,126.612 30.888,130.373 31.589,133.747C32.087,136.164 32.087,138.808 32.268,141.316C32.54,144.94 33.626,148.428 33.445,152.099C33.241,156.134 32.426,160.191 32.675,164.249C32.924,168.375 33.354,172.547 33.694,176.673C33.897,179.181 33.897,181.666 33.943,184.174C33.988,186.476 34.169,189.075 33.309,191.286C32.834,192.494 32.313,194.295 32.404,195.618C32.449,196.256 32.834,196.803 33.083,197.396C33.965,199.47 33.762,202.434 33.467,204.622C33.286,205.967 34.373,206.948 35.73,207.153C36.567,207.267 37.518,206.834 37.767,206.013C38.581,206.127 39.645,206.104 39.984,205.352C40.075,205.169 40.12,204.941 40.278,204.828C40.414,204.736 40.595,204.782 40.753,204.759C41.183,204.714 41.523,204.394 41.817,204.075C42.451,203.414 43.876,202.548 44.261,201.75C44.759,200.701 43.695,199.356 43.039,198.65C42.247,197.783 41.251,197.077 40.391,196.279C40.12,196.028 39.848,195.777 39.667,195.458C38.31,193.27 39.079,190.169 39.599,187.867C41.025,181.62 42.383,175.351 43.605,169.037C44.306,165.435 45.007,161.81 45.347,158.162C45.505,156.43 45.686,154.697 45.347,152.988C45.189,152.213 44.917,151.46 44.781,150.685C44.6,149.545 44.849,148.246 44.94,147.083C45.03,146.035 44.781,145.123 44.781,144.074C44.781,143.618 44.962,143.185 45.121,142.775C48.402,134.636 50.28,125.996 51.321,117.311C51.886,112.66 52.384,107.987 52.61,103.313C52.724,101.079 52.746,98.845 52.905,96.634C53.063,94.696 52.542,92.485 52.271,90.57C52.226,90.319 52.158,90 51.909,89.932C51.705,89.863 51.434,90 51.275,89.841C51.185,89.749 51.162,89.613 51.162,89.476C51.162,88.359 51.072,87.265 51.049,86.125C50.981,83.708 50.823,81.292 50.574,78.898C50.868,81.383 51.162,83.891 51.886,86.284C52.565,88.496 53.402,90.73 53.968,92.918C54.398,94.537 54.375,96.201 54.715,97.819C55.032,99.21 55.054,100.464 54.669,101.877C54.307,103.199 53.606,104.499 53.629,105.889C53.674,107.713 54.42,109.537 53.991,111.361C53.832,111.999 53.538,112.614 53.629,113.276C53.719,114.142 54.715,114.575 55.439,114.119C55.009,114.849 54.534,115.555 54.24,116.33C53.945,117.128 53.81,118.017 54.104,118.815C54.149,118.952 54.217,119.089 54.33,119.18C54.534,119.362 54.85,119.34 55.099,119.18C55.326,119.043 55.484,118.815 55.642,118.587C57.045,116.536 58.018,114.393 59.512,112.409C61.141,110.221 60.643,108.238 60.915,105.616C61.05,104.111 60.281,103.313 59.919,101.968C59.467,100.259 59.693,98.07 59.693,96.292C59.693,92.918 59.829,89.544 59.964,86.193C60.055,83.708 60.191,81.041 59.602,78.625C58.969,76.048 57.679,73.883 57.113,71.284C56.344,67.659 55.823,63.966 55.439,60.273C55.054,56.534 54.896,52.75 54.172,49.057C53.651,46.458 52.905,43.973 51.683,41.625C50.981,40.258 49.556,39.163 48.356,38.229C47.338,37.431 46.32,36.633 45.234,35.972C44.306,35.402 43.31,34.9 42.315,34.444C41.025,33.852 39.373,33.213 38.989,31.686C38.74,30.706 38.83,29.68 38.785,28.7C38.762,28.312 38.762,27.902 38.83,27.514C39.079,26.351 40.097,25.804 40.618,24.847C41.229,23.707 41.636,22.476 41.975,21.222C42.632,18.897 42.948,16.48 43.243,14.087" style="fill:none;fill-rule:nonzero;stroke:rgb(31,0,0);stroke-width:0.23px;"/>
    <path d="M33.716,4.787C32.336,4.764 31.114,5.243 29.87,5.79C29.01,6.155 28.173,6.269 27.426,6.884C24.733,9.164 24.688,12.834 25.095,16.094C25.525,19.605 25.842,23.207 28.195,26.011C28.308,26.125 28.421,26.262 28.467,26.421C28.489,26.512 28.512,26.626 28.512,26.74C28.602,28.564 28.557,31.254 27.607,32.895C26.815,34.24 24.507,34.446 23.172,34.856C21.882,35.243 20.502,35.403 19.302,35.95C16.542,37.204 14.302,38.731 12.469,41.148C10.749,43.428 9.437,46.004 8.509,48.716C7.174,52.592 6.993,56.513 6.473,60.525C6.178,62.873 6.246,65.335 5.771,67.638C4.753,72.676 2.649,77.486 2.083,82.684C1.789,85.328 2.287,88.246 2.377,90.936C2.445,93.307 2.535,95.678 2.558,98.049C2.581,100.374 1.427,102.471 1.087,104.751C0.748,106.894 1.2,109.151 1.336,111.294C1.381,111.909 1.381,112.547 1.562,113.14C1.947,114.394 2.988,115.123 3.757,116.104C4.685,117.243 5.273,118.406 6.495,119.272C6.608,119.341 6.722,119.432 6.857,119.409C7.106,119.364 7.151,118.999 7.106,118.748C6.789,116.674 6.292,114.622 5.862,112.57C6.133,113.049 6.495,113.528 6.993,113.687C7.491,113.847 8.215,113.528 8.215,112.98C8.215,112.775 8.124,112.57 8.034,112.388C7.265,110.655 7.785,109.173 7.898,107.35C7.989,106.141 7.898,104.91 7.355,103.839C7.219,103.565 7.061,103.292 6.948,103.018C5.726,100.009 7.649,96.521 8.079,93.535C8.668,89.545 10.206,86.08 11.247,82.25C10.659,84.94 10.093,87.676 10.297,90.434C10.116,90.275 9.822,90.366 9.686,90.548C9.55,90.754 9.527,91.004 9.527,91.232C9.233,99.644 9.459,108.079 10.5,116.446C11.609,125.268 13.804,133.589 16.949,141.864C17.108,142.297 17.266,142.73 17.334,143.186C17.379,143.597 17.334,143.984 17.289,144.394C15.795,159.281 18.986,173.483 22.855,187.731C23.353,189.532 23.262,191.607 23.285,193.476C23.285,193.727 23.285,193.955 23.194,194.183C23.081,194.456 22.855,194.661 22.651,194.867C21.407,196.006 20.298,197.374 19.302,198.742C18.759,199.471 17.492,200.657 17.628,201.614C17.696,202.116 18.126,202.526 18.624,202.572C18.759,202.572 18.895,202.572 18.986,202.663C19.574,203.142 19.257,203.917 20.298,204.054C20.705,204.099 21.135,204.076 21.497,204.304C21.701,204.441 21.859,204.624 22.018,204.806C22.606,205.467 22.991,205.444 23.828,205.467C24.077,206.197 24.688,206.789 25.412,206.994C28.127,207.792 29.168,204.806 29.01,202.777C28.851,200.406 28.625,197.557 29.145,195.231C29.734,192.655 28.625,189.578 28.489,186.933C28.286,182.26 28.738,177.587 29.236,172.936C29.485,170.565 29.756,168.217 29.96,165.846C30.209,162.677 29.711,159.805 29.145,156.796C28.716,154.585 28.331,152.305 28.467,150.048C28.535,148.635 29.078,147.335 29.259,145.945C30.119,139.744 30.571,133.475 30.616,127.228C30.662,121.005 30.073,114.804 29.96,108.603C30.39,108.603 31.612,108.33 31.77,108.9C31.816,109.014 31.793,109.128 31.77,109.242C31.205,113.847 30.775,118.497 30.775,123.148C30.775,126.613 30.888,130.374 31.589,133.748C32.087,136.165 32.087,138.809 32.268,141.317C32.54,144.942 33.626,148.429 33.445,152.1C33.241,156.135 32.426,160.193 32.675,164.25C32.924,168.377 33.354,172.548 33.694,176.675C33.897,179.182 33.897,181.667 33.943,184.175C33.988,186.477 34.169,189.076 33.309,191.287C32.834,192.496 32.313,194.297 32.404,195.619C32.449,196.257 32.834,196.804 33.083,197.397C33.965,199.471 33.762,202.435 33.467,204.624C33.286,205.969 34.373,206.949 35.73,207.154C36.567,207.268 37.518,206.835 37.767,206.014C38.581,206.128 39.645,206.105 39.984,205.353C40.075,205.171 40.12,204.943 40.278,204.829C40.414,204.738 40.595,204.783 40.753,204.76C41.183,204.715 41.523,204.396 41.817,204.076C42.451,203.415 43.876,202.549 44.261,201.751C44.759,200.703 43.695,199.357 43.039,198.651C42.247,197.785 41.251,197.078 40.391,196.28C40.12,196.029 39.848,195.778 39.667,195.459C38.31,193.271 39.079,190.17 39.599,187.868C41.025,181.622 42.383,175.352 43.605,169.038C44.306,165.436 45.007,161.811 45.347,158.164C45.505,156.431 45.686,154.699 45.347,152.989C45.189,152.214 44.917,151.461 44.781,150.686C44.6,149.547 44.849,148.247 44.94,147.084C45.03,146.036 44.781,145.124 44.781,144.075C44.781,143.619 44.962,143.186 45.121,142.776C48.402,134.637 50.28,125.997 51.321,117.312C51.886,112.661 52.384,107.988 52.61,103.315C52.724,101.081 52.746,98.847 52.905,96.635C53.063,94.697 52.542,92.486 52.271,90.571C52.226,90.321 52.158,90.001 51.909,89.933C51.705,89.865 51.434,90.001 51.275,89.842C51.185,89.751 51.162,89.614 51.162,89.477C51.162,88.36 51.072,87.266 51.049,86.126C50.981,83.709 50.823,81.293 50.574,78.899C50.868,81.384 51.162,83.892 51.886,86.285C52.565,88.497 53.402,90.731 53.968,92.919C54.398,94.538 54.375,96.202 54.715,97.821C55.032,99.211 55.054,100.465 54.669,101.878C54.307,103.201 53.606,104.5 53.629,105.891C53.674,107.714 54.42,109.538 53.991,111.362C53.832,112 53.538,112.616 53.629,113.277C53.719,114.143 54.715,114.576 55.439,114.12C55.009,114.85 54.534,115.557 54.24,116.332C53.945,117.129 53.81,118.019 54.104,118.816C54.149,118.953 54.217,119.09 54.33,119.181C54.534,119.364 54.85,119.341 55.099,119.181C55.326,119.044 55.484,118.816 55.642,118.588C57.045,116.537 58.018,114.394 59.512,112.411C61.141,110.222 60.643,108.239 60.915,105.617C61.05,104.113 60.281,103.315 59.919,101.97C59.467,100.26 59.693,98.071 59.693,96.293C59.693,92.919 59.829,89.545 59.964,86.194C60.055,83.709 60.191,81.042 59.602,78.626C58.969,76.05 57.679,73.884 57.113,71.285C56.344,67.661 55.823,63.967 55.439,60.274C55.054,56.536 54.896,52.751 54.172,49.058C53.651,46.459 52.905,43.975 51.683,41.627C50.981,40.259 49.556,39.164 48.356,38.23C47.338,37.432 46.32,36.634 45.234,35.973C43.921,35.152 41.002,34.354 40.482,32.713C39.984,31.072 39.735,29.385 39.735,27.675C39.735,26.33 40.369,25.441 41.138,24.392C41.523,23.868 41.704,23.435 41.885,22.819C42.27,21.611 42.451,20.334 42.541,19.081C42.722,16.505 42.518,13.928 42.745,11.352C42.971,8.708 39.735,6.861 37.654,5.881C36.454,5.243 35.119,4.787 33.716,4.787Z" style="fill:rgb(226,168,138);fill-rule:nonzero;"/>
    <path d="M51.342,117.267C51.908,112.616 52.406,107.943 52.632,103.27C52.745,101.035 52.768,98.801 52.926,96.59C53.085,94.652 52.564,92.441 52.293,90.526C52.247,90.275 52.179,89.956 51.931,89.888C51.727,89.82 51.455,89.956 51.297,89.797C51.207,89.706 51.184,89.569 51.184,89.432C51.184,88.315 51.093,87.221 51.071,86.081C51.003,83.664 50.844,81.248 50.596,78.854C50.89,81.339 51.184,83.847 51.908,86.24C52.587,88.452 53.424,90.686 53.99,92.874C54.42,94.493 54.397,96.157 54.736,97.775C55.053,99.166 55.076,100.42 54.691,101.833C54.329,103.156 53.628,104.455 53.65,105.846C53.673,106.53 53.786,107.191 53.899,107.875C53.99,107.168 54.125,106.461 54.42,105.8C55.008,104.432 56.139,103.338 56.705,101.947C57.112,100.921 57.18,99.804 57.225,98.71C57.429,92.099 56.479,85.693 54.465,79.47C53.198,75.594 52.293,71.582 52.202,67.479C52.134,64.241 52.904,60.845 52.338,57.653C52.021,55.921 51.207,54.325 50.528,52.706C48.491,47.873 47.835,42.767 47.631,37.569C46.862,36.977 46.093,36.407 45.278,35.905C43.966,35.084 41.047,34.286 40.526,32.645C40.028,31.004 39.78,29.317 39.78,27.607C39.78,26.262 40.413,25.373 41.182,24.324C41.567,23.8 41.748,23.367 41.929,22.751C42.11,22.159 42.246,21.543 42.359,20.927C42.02,22.045 41.499,23.116 40.82,24.074C40.323,24.757 39.734,25.305 39.078,25.829C38.716,26.125 37.449,27.242 36.974,27.174C37.562,27.265 38.196,27.425 38.512,27.903C38.693,28.177 38.739,28.496 38.761,28.815C38.897,29.818 39.055,30.799 39.078,31.802C39.078,32.075 39.101,32.371 39.237,32.6C39.372,32.85 39.599,32.987 39.847,33.147C41.069,33.899 42.382,34.469 43.581,35.244C44.237,35.654 44.871,36.179 45.12,36.908C45.278,37.341 45.278,37.82 45.255,38.276C45.142,41.012 44.101,43.451 43.762,46.095C43.717,46.437 43.717,46.802 43.83,47.121C43.92,47.395 44.101,47.623 44.237,47.873C45.436,49.902 44.056,51.931 42.699,53.481C40.979,55.442 39.191,57.174 37.087,58.679C36.725,58.93 36.363,59.203 35.933,59.272C34.304,59.523 33.104,57.927 33.376,56.445C33.693,54.644 34.869,53.778 36.295,52.866C35.503,52.82 34.756,53.162 34.077,53.573C33.399,53.983 32.765,54.462 32.018,54.735C30.525,55.305 29.823,54.302 28.466,54.051C27.719,53.914 26.972,53.892 26.226,53.755C28.036,54.074 29.507,55.602 30.027,57.402C30.299,58.36 30.276,59.545 29.529,60.161C28.873,60.708 27.877,60.64 27.04,60.434C23.171,59.477 20.252,56.285 17.944,52.98C17.333,52.091 16.722,51.179 16.564,50.107C16.451,49.446 16.518,48.762 16.586,48.101C16.835,45.685 17.084,43.291 17.333,40.875C17.469,39.53 17.672,38.071 18.6,37.091C19.053,36.635 19.618,36.315 20.207,36.042C21.361,35.518 22.56,35.153 23.804,34.948C25.366,34.697 27.04,34.628 28.285,33.511C29.484,32.44 30.027,30.799 30.638,29.34C30.751,29.089 30.842,28.815 31.023,28.633C31.588,28.04 33.127,27.812 33.896,27.561C32.923,27.174 31.95,26.786 30.977,26.399C29.371,25.761 28.104,24.233 27.81,22.523C27.38,20.039 27.018,17.531 27.199,15.023C27.221,14.841 27.221,14.658 27.312,14.499C27.493,14.203 27.855,14.134 28.194,14.089C32.561,13.405 36.702,12.242 41.137,12.265C41.477,12.265 41.861,12.288 42.155,12.47C42.404,12.607 42.563,12.858 42.653,13.108C42.676,12.698 42.676,12.265 42.721,11.854C42.721,11.809 42.721,11.74 42.699,11.695C42.676,11.512 42.676,11.33 42.563,11.193C42.472,11.079 42.314,11.011 42.155,10.965C41.477,10.737 41.318,10.76 40.956,10.19C40.639,9.689 40.526,9.05 40.232,8.526C39.847,7.865 39.35,7.295 38.829,6.725C38.739,6.611 38.626,6.497 38.467,6.474C38.196,6.406 37.969,6.657 37.788,6.862C36.612,8.321 35.865,8.822 34.055,8.526C31.905,8.161 29.371,8.663 27.221,8.936C26.701,9.005 26.18,9.073 25.66,9.142C24.664,11.239 24.732,13.815 25.004,16.14C25.434,19.651 25.75,23.253 28.104,26.057C28.217,26.171 28.33,26.308 28.375,26.467C28.398,26.558 28.421,26.672 28.421,26.786C28.511,28.61 28.466,31.3 27.515,32.942C26.723,34.286 24.415,34.492 23.08,34.902C21.791,35.289 20.41,35.449 19.211,35.996C17.152,36.931 15.387,38.025 13.848,39.507C13.939,41.148 13.26,42.653 12.988,44.226C12.694,45.981 12.694,47.759 12.445,49.515C12.174,51.407 11.789,52.957 11.789,54.895C11.812,59.363 11.065,63.808 10.522,68.231C10.341,69.713 10.16,71.217 9.821,72.653C9.436,74.226 8.893,75.685 8.983,77.35C9.029,78.353 9.278,79.356 9.323,80.359C9.459,83.094 8.237,85.83 7.603,88.452C6.834,91.552 6.178,94.698 5.634,97.844C5.408,99.166 5.205,100.534 5.499,101.833C5.906,103.703 7.264,105.321 7.309,107.236C7.332,108.49 6.788,109.721 6.97,110.975C7.105,111.887 7.648,112.799 7.671,113.688C7.92,113.551 8.124,113.346 8.124,113.049C8.124,112.844 8.033,112.639 7.942,112.457C7.173,110.724 7.694,109.242 7.807,107.419C7.897,106.21 7.807,104.979 7.264,103.908C7.128,103.634 6.97,103.361 6.856,103.087C5.634,100.078 7.558,96.59 7.988,93.604C8.576,89.614 10.115,86.149 11.156,82.319C10.567,85.009 10.002,87.745 10.205,90.503C10.024,90.344 9.73,90.435 9.594,90.617C9.459,90.8 9.436,91.073 9.436,91.301C9.142,99.713 9.368,108.148 10.409,116.514C11.518,125.337 13.713,133.658 16.858,141.933C17.016,142.366 17.174,142.799 17.242,143.255C17.288,143.665 17.242,144.053 17.197,144.463C15.704,159.35 18.894,173.552 22.764,187.8C23.261,189.601 23.171,191.676 23.194,193.545C23.194,193.796 23.194,194.024 23.103,194.252C22.99,194.525 22.764,194.73 22.56,194.935C21.315,196.075 20.207,197.443 19.211,198.811C18.668,199.54 17.401,200.726 17.537,201.683C17.582,202.116 17.921,202.481 18.351,202.595C18.668,199.312 21.225,197.648 23.985,196.189C25.049,195.619 24.823,196.144 25.162,194.844C25.388,193.932 25.207,192.952 25.117,192.04C24.891,189.783 24.483,187.549 24.008,185.338C22.831,179.844 21.089,174.51 20.026,168.993C18.985,163.567 18.872,158.711 20.139,153.286C20.297,152.579 20.501,151.872 20.908,151.302C21.315,150.732 22.04,150.299 22.741,150.436C23.08,150.505 23.42,150.687 23.759,150.641C24.008,150.618 24.234,150.482 24.438,150.345C25.23,149.775 25.773,148.863 25.909,147.906C25.886,147.997 21.949,145.808 21.542,145.398C20.365,144.19 20.048,142.229 19.754,140.633C19.234,137.921 18.057,135.595 17.446,132.905C16.654,129.44 15.953,125.93 15.319,122.442C14.391,117.244 13.486,112.046 13.079,106.78C12.807,103.406 11.088,96.157 15.364,94.675C13.848,94.037 12.785,92.396 12.853,90.731C12.921,89.067 13.69,87.563 13.78,85.876C13.916,83.641 14.075,81.407 14.233,79.196C14.346,77.623 14.459,76.005 15.161,74.591C16.337,76.392 16.926,78.603 16.79,80.746C16.745,81.362 16.654,82 16.858,82.593C17.242,83.733 18.623,84.325 18.962,85.488C19.121,85.99 19.053,86.514 19.053,87.038C19.098,90.07 21.202,92.601 22.922,94.903C22.424,91.734 21.904,88.566 21.406,85.397C21.338,84.918 21.248,84.417 21.044,83.961C20.818,83.459 20.41,83.026 20.116,82.547C19.143,80.952 19.347,78.945 19.03,77.122C18.736,75.48 18.034,73.976 17.582,72.38C17.197,71.012 17.288,69.485 17.763,68.14C17.853,67.866 17.967,67.593 18.193,67.41C18.442,67.205 18.759,67.137 19.075,67.068C23.42,66.316 27.832,66.476 32.199,66.818C34.394,66.977 36.612,67.205 38.807,67.365C40.142,67.479 43.151,67.296 44.124,68.368C44.509,68.801 44.622,69.416 44.69,69.986C44.871,71.536 44.939,73.087 44.237,74.523C43.807,75.412 43.287,76.278 43.151,77.258C42.834,79.333 43.649,81.339 42.088,83.117C41.68,83.573 41.182,83.961 40.866,84.485C40.255,85.579 40.617,86.924 40.753,88.178C41.182,92.168 37.992,94.835 34.802,96.681C36.499,96.864 38.331,97.023 39.847,96.203C42.45,94.812 42.563,92.578 42.925,90.07C43.377,86.97 45.708,84.417 46.319,81.316C46.477,80.45 46.545,79.561 46.839,78.74C47.134,77.92 47.812,77.144 48.672,77.03C48.944,80.404 49.102,83.801 49.125,87.175C49.17,91.985 44.712,96.043 40.888,98.437C34.96,102.175 27.289,103.885 20.908,101.035C21.904,101.491 23.08,104.774 23.555,105.777C24.393,107.51 25.117,109.288 25.705,111.134C26.95,114.896 27.04,118.635 27.244,122.578C27.493,126.933 27.674,131.31 27.787,135.664C27.9,139.904 28.398,143.688 26.814,147.814C25.977,149.98 26.882,150.801 27.515,152.761C28.172,154.768 28.466,156.956 28.579,159.053C29.009,167.397 27.629,175.695 26.882,183.993C26.678,186.273 26.542,188.644 27.357,190.764C27.719,191.744 28.285,192.656 28.421,193.682C28.602,195.095 27.923,196.463 27.968,197.876C27.991,198.857 28.33,199.768 28.76,200.657C28.669,198.834 28.647,196.919 29.031,195.255C29.62,192.679 28.511,189.601 28.375,186.957C28.172,182.283 28.624,177.61 29.122,172.959C29.371,170.588 29.642,168.24 29.846,165.87C30.095,162.701 29.597,159.828 29.031,156.819C28.602,154.608 28.217,152.328 28.353,150.071C28.421,148.658 28.964,147.359 29.145,145.968C30.004,139.767 30.457,133.498 30.502,127.252C30.548,121.028 29.959,114.828 29.846,108.627C30.276,108.627 31.498,108.353 31.656,108.923C31.702,109.037 31.679,109.151 31.656,109.265C31.09,113.87 30.661,118.521 30.661,123.171C30.661,126.636 30.774,130.398 31.475,133.772C31.973,136.188 31.973,138.833 32.154,141.34C32.426,144.965 33.512,148.453 33.331,152.123C33.127,156.158 32.312,160.216 32.561,164.274C32.81,168.4 33.24,172.572 33.58,176.698C33.783,179.206 33.783,181.691 33.829,184.198C33.874,186.501 34.055,189.099 33.195,191.311C32.72,192.519 32.199,194.32 32.29,195.642C32.335,196.28 32.72,196.828 32.969,197.42C33.851,199.495 33.647,202.458 33.353,204.647C33.172,205.992 34.258,206.972 35.616,207.177C35.729,207.2 35.842,207.2 35.956,207.2C35.548,207.018 35.186,206.744 34.915,206.379C33.466,204.373 35.82,201.524 35.118,199.13C34.824,198.081 33.942,197.261 33.647,196.212C33.014,193.932 34.96,191.676 35.322,189.51C35.797,186.774 35.503,183.628 35.526,180.847C35.593,175.079 35.48,169.289 35.186,163.521C35.028,160.467 34.847,157.389 35.231,154.334C35.39,153.126 35.639,151.941 35.774,150.755C36.747,151.872 38.015,151.895 39.531,152.602C41.499,153.491 41.725,155.748 41.635,157.708C41.341,165.186 40.911,172.64 40.504,180.095C40.413,181.896 40.3,183.697 39.961,185.475C41.182,180.026 42.359,174.555 43.423,169.061C44.124,165.459 44.826,161.835 45.165,158.187C45.323,156.454 45.504,154.722 45.165,153.012C45.007,152.237 44.735,151.485 44.599,150.71C44.418,149.57 44.667,148.27 44.758,147.108C44.848,146.059 44.599,145.147 44.599,144.099C44.599,143.643 44.78,143.21 44.939,142.799C48.423,134.592 50.301,125.952 51.342,117.267ZM42.223,142.252C41.907,143.46 41.59,144.714 40.82,145.694C40.051,146.675 38.716,147.313 37.539,146.88C36.974,146.675 36.453,146.219 35.842,146.287C35.548,143.734 34.983,141.158 34.802,138.627C34.123,129.167 33.082,119.159 35.277,109.858C35.616,108.422 36.069,106.963 36.928,105.754C37.72,104.66 38.807,103.862 39.87,103.064C41.047,102.175 42.223,101.309 43.423,100.42C44.328,99.736 45.436,99.029 46.523,99.349C47.36,99.599 47.903,100.42 48.265,101.195C49.939,104.729 49.781,108.832 49.283,112.707C48.061,122.647 44.69,132.541 42.223,142.252Z" style="fill:rgb(174,106,83);fill-opacity:0.71;fill-rule:nonzero;"/>
    <path d="M58.832,111.065C57.904,110.7 57.338,109.72 57.202,108.74C57.067,107.76 57.27,106.757 57.474,105.776C56.682,108.352 55.754,110.883 54.691,113.368C54.578,113.618 54.442,113.892 54.261,114.097C54.623,114.28 55.075,114.302 55.46,114.074C55.03,114.804 54.555,115.511 54.261,116.286C53.967,117.084 53.831,117.973 54.125,118.771C54.17,118.907 54.238,119.044 54.351,119.135C54.555,119.318 54.872,119.295 55.121,119.135C55.347,118.999 55.505,118.771 55.664,118.543C57.067,116.491 58.039,114.348 59.533,112.365C59.624,112.228 59.714,112.091 59.804,111.954C60.053,111.042 60.302,109.743 60.755,109.082L60.755,109.036C60.121,109.72 59.465,110.404 58.832,111.065Z" style="fill:rgb(174,106,83);fill-opacity:0.71;fill-rule:nonzero;"/>
    <path d="M44.26,201.706C44.758,200.658 43.694,199.313 43.038,198.606C42.744,198.264 42.405,197.968 42.065,197.671C42.201,197.899 42.314,198.127 42.427,198.355C42.699,198.948 42.88,199.632 42.721,200.27C42.405,201.478 40.911,202.094 40.594,203.325C40.459,203.827 40.572,204.305 40.843,204.716C41.251,204.647 41.567,204.351 41.839,204.054C42.472,203.393 43.898,202.504 44.26,201.706Z" style="fill:rgb(174,106,83);fill-opacity:0.71;fill-rule:nonzero;"/>
    <path d="M6.562,113.414C6.471,113.209 6.403,112.981 6.358,112.776C5.883,110.747 5.408,108.741 4.932,106.712C3.937,110.861 5.815,115.101 6.562,119.319C6.652,119.364 6.743,119.41 6.856,119.41C7.105,119.364 7.15,118.999 7.105,118.749C6.788,116.674 6.29,114.622 5.86,112.571C6.041,112.867 6.267,113.186 6.562,113.414Z" style="fill:rgb(174,106,83);fill-opacity:0.71;fill-rule:nonzero;"/>
    <path d="M39.827,186.798C39.782,187.004 39.714,187.209 39.646,187.414C39.035,189.352 38.039,191.175 37.903,193.204C37.881,193.478 37.881,193.751 38.017,193.979C38.175,194.298 38.537,194.435 38.854,194.595C39.035,194.686 39.239,194.8 39.42,194.914C38.447,192.771 39.125,189.944 39.623,187.801C39.668,187.459 39.736,187.14 39.827,186.798Z" style="fill:rgb(174,106,83);fill-opacity:0.71;fill-rule:nonzero;"/>
    <path d="M1.428,112.685C1.45,112.845 1.496,113.004 1.541,113.141C1.609,113.392 1.722,113.62 1.835,113.825C1.677,113.438 1.541,113.073 1.428,112.685Z" style="fill:rgb(174,106,83);fill-opacity:0.71;fill-rule:nonzero;"/>
    <path d="M2.083,82.683C1.788,85.328 2.286,88.246 2.377,90.936C2.445,93.306 2.535,95.677 2.558,98.048C2.58,100.373 1.426,102.471 1.087,104.75C1.019,105.206 0.974,105.685 0.974,106.141C1.11,105.275 1.313,104.408 1.607,103.565C2.128,102.106 2.852,100.715 3.214,99.188C3.983,95.791 3.237,91.802 3.191,88.337C3.146,85.305 3.214,82.227 4.006,79.286C5.16,75.001 7.242,71.399 7.219,66.794C7.219,64.628 6.925,62.485 6.518,60.342C6.518,60.388 6.518,60.434 6.495,60.456C6.201,62.804 6.269,65.266 5.794,67.569C4.753,72.675 2.648,77.486 2.083,82.683Z" style="fill:rgb(174,106,83);fill-opacity:0.71;fill-rule:nonzero;"/>
    <path d="M50.393,63.647C50.28,63.875 50.145,64.08 49.986,64.263C49.76,64.582 49.488,64.901 49.443,65.289C49.375,65.904 49.511,66.086 48.99,66.337C48.606,66.519 47.701,66.428 47.271,66.451C46.004,66.519 44.737,66.451 43.469,66.337C41.953,66.2 40.369,66.223 38.831,66.132C34.848,65.881 30.866,65.63 26.883,65.904C22.584,66.2 18.013,66.907 13.737,66.383C13.601,66.36 13.465,66.337 13.375,66.246C13.239,66.132 13.239,65.927 13.216,65.767C13.103,64.969 12.537,64.103 12.243,63.351C11.859,62.371 11.564,61.345 11.383,60.296C11.044,58.244 11.27,56.147 12.175,54.255C12.945,52.705 14.393,51.36 14.959,49.718C15.524,48.054 15.434,45.934 15.524,44.179C15.592,42.925 15.66,41.671 15.751,40.394C15.796,39.597 15.615,38.274 15.999,37.59C16.316,37.021 17.493,36.542 18.036,36.177C18.172,38.502 17.651,40.759 17.583,43.084C17.516,45.615 17.583,48.168 17.832,50.699C17.855,50.949 17.878,51.2 17.991,51.428C18.126,51.747 18.375,51.998 18.624,52.249C20.751,54.323 22.991,56.307 25.277,58.222C26.634,59.361 28.06,60.41 29.531,61.39C30.685,62.188 32.02,63.351 33.355,62.279C35.572,60.478 37.654,58.495 39.713,56.512C41.139,55.144 42.587,53.799 43.899,52.317C45.257,50.767 45.37,49.559 45.234,47.598C45.144,46.413 45.28,45.182 45.28,43.974C45.302,41.466 45.257,38.958 45.121,36.451C45.121,36.337 45.121,36.245 45.166,36.154C45.28,35.995 45.506,36.04 45.687,36.109C46.139,36.245 46.615,36.428 46.909,36.77C47.474,37.431 47.225,38.206 47.225,38.981C47.225,40.098 47.293,41.215 47.316,42.355C47.361,44.361 47.339,46.276 47.565,48.282C47.814,50.493 49.307,52.226 50.235,54.164C51.593,56.877 51.955,60.866 50.393,63.647Z" style="fill:rgb(175,25,0);fill-rule:nonzero;stroke:rgb(36,0,0);stroke-width:0.23px;"/>
    <path d="M10.928,83.525C11.856,81.041 11.856,78.305 11.969,75.661C12.06,73.54 12.784,71.534 12.92,69.414C13.01,68.32 13.055,67.34 13.372,66.291" style="fill:none;fill-rule:nonzero;stroke:rgb(31,0,0);stroke-width:0.23px;"/>
    <path d="M49.081,66.315C49.285,67.226 49.307,68.229 49.42,69.164C49.534,70.213 49.669,71.261 49.918,72.287C50.235,73.609 50.461,74.977 50.597,76.345C50.665,77.052 50.71,77.736 50.71,78.442C50.71,79.012 50.597,79.537 50.733,80.107" style="fill:none;fill-rule:nonzero;stroke:rgb(31,0,0);stroke-width:0.23px;"/>
    <path d="M27.789,54.3C27.947,54.346 28.128,54.392 28.309,54.437C28.468,54.506 28.626,54.574 28.807,54.642C28.965,54.733 29.124,54.825 29.26,54.916C29.395,55.03 29.554,55.121 29.69,55.235C30.233,55.691 30.685,56.261 31.047,56.899C31.409,57.515 31.658,58.199 31.817,58.905C31.975,59.612 32.02,60.341 31.93,61.025L31.93,60.501C31.907,60.319 31.907,60.159 31.884,59.977C31.862,59.794 31.839,59.635 31.794,59.452C31.749,59.293 31.726,59.11 31.681,58.951C31.5,58.267 31.228,57.629 30.889,57.013C30.549,56.398 30.119,55.85 29.622,55.372C29.056,54.916 28.468,54.551 27.789,54.3Z" style="fill:rgb(31,0,0);fill-rule:nonzero;"/>
    <path d="M39.19,26.536C39.666,26.263 40.073,25.92 40.412,25.533C40.774,25.145 41.091,24.712 41.385,24.278C41.227,24.803 40.933,25.282 40.571,25.692C40.39,25.898 40.163,26.08 39.937,26.217C39.711,26.377 39.462,26.491 39.19,26.536Z" style="fill:rgb(31,0,0);fill-rule:nonzero;"/>
    <path d="M27.879,25.599C28.151,25.804 28.377,26.032 28.648,26.238C28.897,26.443 29.169,26.625 29.463,26.808C29.124,26.785 28.784,26.648 28.513,26.42C28.241,26.192 28.015,25.918 27.879,25.599Z" style="fill:rgb(31,0,0);fill-rule:nonzero;"/>
    <path d="M34.419,54.05C33.853,54.643 33.31,55.235 32.88,55.896C32.45,56.557 32.111,57.287 31.794,58.039C31.93,57.241 32.247,56.466 32.699,55.76C33.152,55.076 33.74,54.483 34.419,54.05Z" style="fill:rgb(31,0,0);fill-rule:nonzero;"/>
    <path d="M16.112,71.604C16.271,72.493 16.429,73.382 16.633,74.248C16.746,74.681 16.859,75.114 16.995,75.547C17.131,75.981 17.334,76.368 17.561,76.756C17.787,77.143 18.036,77.531 18.172,77.987C18.239,78.215 18.262,78.443 18.285,78.671C18.307,78.899 18.33,79.126 18.33,79.354C18.375,80.244 18.398,81.155 18.669,81.999C18.805,82.409 19.009,82.797 19.28,83.162C19.552,83.526 19.801,83.914 19.982,84.347C20.163,84.78 20.276,85.236 20.321,85.669C20.389,86.125 20.412,86.581 20.434,87.014C20.502,87.903 20.638,88.792 20.819,89.659C21,90.525 21.272,91.391 21.588,92.235C21.226,91.414 20.932,90.548 20.706,89.681C20.48,88.815 20.321,87.926 20.253,87.014C20.163,86.125 20.14,85.213 19.778,84.415C19.597,84.005 19.371,83.64 19.099,83.275C18.828,82.911 18.602,82.5 18.443,82.067C18.149,81.178 18.149,80.266 18.104,79.377C18.081,79.149 18.081,78.921 18.058,78.716C18.036,78.488 18.013,78.283 17.945,78.078C17.832,77.668 17.606,77.28 17.38,76.892C17.266,76.687 17.153,76.505 17.063,76.3C16.972,76.095 16.904,75.867 16.814,75.661C16.678,75.228 16.565,74.795 16.475,74.362C16.339,73.382 16.226,72.493 16.112,71.604Z" style="fill:rgb(31,0,0);fill-rule:nonzero;"/>
    <path d="M46.161,71.672C46.161,72.607 46.138,73.541 45.957,74.453C45.867,74.909 45.731,75.365 45.55,75.798C45.369,76.231 45.188,76.642 45.075,77.098C44.826,77.987 44.713,78.899 44.622,79.833C44.577,80.289 44.532,80.768 44.486,81.224C44.441,81.703 44.305,82.158 44.124,82.592C43.943,83.025 43.672,83.435 43.378,83.8C43.242,83.982 43.083,84.165 42.925,84.324C42.767,84.507 42.608,84.666 42.495,84.848C42.269,85.213 42.359,85.692 42.359,86.148C42.382,86.627 42.359,87.083 42.337,87.538C42.178,89.408 41.703,91.209 41.319,93.01C41.454,92.098 41.658,91.186 41.794,90.274C41.952,89.362 42.088,88.45 42.156,87.516C42.178,87.06 42.178,86.604 42.156,86.125C42.156,85.897 42.133,85.669 42.133,85.418C42.133,85.19 42.178,84.917 42.314,84.712C42.427,84.484 42.608,84.324 42.767,84.142C42.925,83.982 43.061,83.8 43.219,83.617C43.491,83.253 43.74,82.865 43.921,82.455C44.305,81.634 44.305,80.677 44.419,79.765C44.509,78.853 44.622,77.918 44.916,77.006C45.052,76.55 45.256,76.117 45.437,75.707C45.618,75.274 45.776,74.841 45.867,74.408C46.07,73.541 46.093,72.607 46.161,71.672Z" style="fill:rgb(31,0,0);fill-rule:nonzero;"/>
    <path d="M57.294,107.554C57.158,108.146 57.09,108.739 57.023,109.355C56.977,109.947 56.909,110.563 56.774,111.178C56.638,111.794 56.412,112.364 56.14,112.911L55.733,113.732C55.597,114.005 55.484,114.279 55.348,114.552C55.416,114.256 55.529,113.96 55.62,113.686L55.959,112.843C56.185,112.273 56.412,111.726 56.525,111.133C56.661,110.54 56.728,109.947 56.819,109.355C56.864,109.058 56.909,108.762 56.977,108.466C57.09,108.124 57.181,107.827 57.294,107.554Z" style="fill:rgb(31,0,0);fill-rule:nonzero;"/>
    <path d="M44.507,143.414C44.236,144.052 43.942,144.69 43.58,145.306C43.24,145.921 42.833,146.514 42.38,147.038C42.154,147.312 41.905,147.563 41.611,147.791C41.317,148.019 41.023,148.201 40.683,148.315C40.005,148.566 39.326,148.657 38.624,148.771C38.964,148.657 39.303,148.588 39.62,148.474C39.959,148.383 40.276,148.292 40.593,148.133C41.226,147.859 41.724,147.403 42.177,146.856C42.629,146.332 43.037,145.762 43.399,145.169C43.58,144.873 43.761,144.576 43.942,144.28L44.507,143.414Z" style="fill:rgb(31,0,0);fill-rule:nonzero;"/>
    <path d="M22.808,147.858C22.197,147.904 21.563,147.881 20.952,147.744C20.658,147.676 20.341,147.585 20.07,147.38C19.821,147.174 19.662,146.878 19.504,146.604C19.21,146.057 18.961,145.487 18.712,144.917C18.599,144.621 18.486,144.348 18.373,144.051C18.259,143.755 18.169,143.458 18.056,143.162L18.87,144.826C19.142,145.373 19.413,145.921 19.708,146.468C19.843,146.741 20.002,146.992 20.205,147.197C20.409,147.38 20.703,147.493 20.997,147.562C21.292,147.653 21.586,147.699 21.88,147.744C22.197,147.813 22.513,147.835 22.808,147.858Z" style="fill:rgb(31,0,0);fill-rule:nonzero;"/>
    <path d="M4.934,107.395C5.047,107.896 5.115,108.42 5.228,108.922L5.522,110.449L5.817,111.954L5.952,112.706C5.998,112.957 6.043,113.208 6.088,113.458C5.998,113.208 5.93,112.957 5.839,112.729L5.636,111.977C5.5,111.475 5.387,110.974 5.296,110.472C5.206,109.971 5.115,109.446 5.07,108.945C5.002,108.42 4.957,107.919 4.934,107.395Z" style="fill:rgb(31,0,0);fill-rule:nonzero;"/>
    <path d="M51.932,89.863C51.751,89.795 51.502,89.909 51.343,89.817L51.321,89.817C49.624,90.159 48.198,90.98 46.614,91.664C45.03,92.348 43.401,92.941 41.727,93.26C38.491,93.898 35.21,94.194 31.906,94.194C25.933,94.172 19.891,93.67 14.144,91.983C12.763,91.573 11.474,90.843 10.048,90.57C9.89,90.593 10.093,90.387 9.935,90.387C9.912,90.387 9.867,90.387 9.844,90.41C9.776,90.456 9.709,90.501 9.663,90.57C9.528,90.775 9.505,91.026 9.505,91.254C9.211,99.666 9.437,108.1 10.478,116.467C11.587,125.289 13.782,133.61 16.927,141.885C17.085,142.318 17.244,142.752 17.311,143.207C17.357,143.618 17.311,144.005 17.266,144.416C15.999,156.977 18.103,169.082 21.09,181.141C23.466,182.577 25.955,182.236 28.467,181.802C28.58,178.839 28.897,175.875 29.214,172.934C29.462,170.564 29.734,168.216 29.938,165.845C30.186,162.676 29.689,159.804 29.123,156.794C28.693,154.583 28.308,152.303 28.444,150.046C28.512,148.633 29.055,147.334 29.236,145.943C30.096,139.742 30.549,133.473 30.594,127.227C30.639,121.003 30.051,114.803 29.938,108.602C30.368,108.602 31.589,108.328 31.748,108.898C31.793,109.012 31.77,109.126 31.748,109.24C31.182,113.845 30.752,118.496 30.752,123.146C30.752,126.611 30.865,130.373 31.567,133.747C32.065,136.163 32.065,138.808 32.246,141.315C32.517,144.94 33.603,148.428 33.422,152.098C33.219,156.133 32.404,160.191 32.653,164.249C32.902,168.375 33.332,172.547 33.671,176.673C33.784,178.201 33.852,179.751 33.875,181.278C34.101,181.301 34.327,181.324 34.576,181.369C35.73,181.597 36.884,182.053 38.061,182.008C39.147,181.962 40.165,181.438 41.138,180.913C41.998,176.947 42.835,172.98 43.605,169.013C44.306,165.412 45.008,161.787 45.347,158.139C45.505,156.407 45.686,154.674 45.347,152.964C45.189,152.189 44.917,151.437 44.781,150.662C44.6,149.522 44.849,148.223 44.94,147.06C45.03,146.011 44.781,145.1 44.781,144.051C44.781,143.595 44.962,143.162 45.121,142.752C48.402,134.613 50.28,125.973 51.321,117.288C51.886,112.637 52.384,107.964 52.611,103.29C52.724,101.056 52.746,98.822 52.905,96.611C53.063,94.673 52.543,92.462 52.271,90.547C52.271,90.251 52.181,89.931 51.932,89.863Z" style="fill:rgb(175,25,0);fill-rule:nonzero;stroke:rgb(36,0,0);stroke-width:0.23px;"/>
    <path d="M40.529,11.899C41.23,11.854 43.312,12.105 43.176,11.535C42.656,9.62 42.294,7.91 41.185,6.177C40.37,4.969 39.375,3.806 38.085,3.077C36.954,2.461 35.483,2.302 34.216,2.165C31.546,1.892 28.785,2.826 27.065,4.969C26.115,6.155 25.527,7.431 25.233,8.936C25.006,10.144 24.87,11.375 24.395,12.515C26.273,12.994 28.219,12.88 30.143,12.743C31.523,12.652 32.903,12.538 34.283,12.355C35.211,12.219 36.048,11.991 36.954,11.831C36.999,11.831 37.044,11.808 37.089,11.785C37.203,11.717 37.225,11.58 37.248,11.466C37.474,10.167 37.746,9.004 37.768,7.682C38.153,8.936 38.334,10.258 38.334,11.58C38.334,11.626 38.334,11.671 38.356,11.717C38.402,11.763 38.47,11.763 38.538,11.763L39.443,11.763C39.465,10.737 39.488,9.711 39.262,8.731C39.692,9.756 40.031,10.851 40.257,11.945C40.303,11.922 40.393,11.899 40.529,11.899Z" style="fill-rule:nonzero;"/>
    <path d="M38.015,26.261C38.4,25.85 38.717,25.622 39.169,25.075C39.215,25.03 39.26,24.961 39.328,24.893C39.396,24.802 39.486,24.688 39.599,24.528C39.69,24.414 39.803,24.255 39.893,24.095C40.007,23.935 40.12,23.73 40.21,23.571C40.323,23.388 40.391,23.229 40.459,23.115C40.527,23.001 40.55,22.932 40.55,22.932C40.55,22.932 40.572,22.864 40.64,22.773C40.685,22.659 40.753,22.522 40.821,22.362C40.889,22.203 40.957,22.02 41.025,21.838C41.093,21.656 41.161,21.473 41.206,21.337C41.274,21.086 41.342,20.881 41.387,20.721C41.432,20.561 41.455,20.447 41.477,20.356C41.636,19.672 41.613,19.285 41.704,18.715C41.59,19.285 41.409,19.627 41.183,20.265C41.161,20.333 41.115,20.447 41.047,20.607C41.002,20.767 40.912,20.949 40.821,21.2C40.753,21.337 40.685,21.496 40.617,21.678C40.55,21.838 40.459,22.02 40.391,22.18C40.323,22.34 40.255,22.476 40.21,22.568C40.165,22.659 40.142,22.727 40.142,22.727C40.142,22.727 40.097,22.796 40.052,22.91C39.984,23.023 39.916,23.183 39.826,23.365C39.735,23.548 39.622,23.73 39.531,23.89C39.441,24.072 39.328,24.209 39.26,24.346C39.169,24.505 39.079,24.642 39.033,24.733C38.966,24.824 38.943,24.893 38.898,24.938C38.558,25.463 38.377,25.827 38.015,26.261Z" style="fill:white;fill-opacity:0.1;fill-rule:nonzero;"/>
    <path d="M34.983,55.008C35.096,54.825 35.232,54.757 35.413,54.575C35.504,54.484 35.798,54.187 36.069,53.959C36.341,53.708 36.59,53.503 36.59,53.503C36.59,53.503 36.839,53.298 37.133,53.07C37.427,52.842 37.744,52.614 37.857,52.523C38.061,52.363 38.151,52.249 38.355,52.158C38.151,52.227 37.993,52.227 37.766,52.318C37.631,52.363 37.246,52.523 36.929,52.728C36.59,52.933 36.341,53.161 36.341,53.161C36.341,53.161 36.069,53.389 35.82,53.686C35.571,53.982 35.345,54.324 35.277,54.461C35.096,54.666 35.074,54.825 34.983,55.008Z" style="fill:white;fill-opacity:0.1;fill-rule:nonzero;"/>
    <path d="M25.682,54.369C25.84,54.392 25.93,54.483 26.089,54.551C26.134,54.574 26.225,54.62 26.338,54.665C26.451,54.711 26.564,54.779 26.677,54.825C26.903,54.939 27.13,55.03 27.13,55.03C27.13,55.03 27.333,55.144 27.56,55.258C27.673,55.327 27.786,55.395 27.899,55.441C28.012,55.509 28.08,55.555 28.125,55.578C28.284,55.669 28.397,55.692 28.51,55.783C28.419,55.669 28.374,55.555 28.261,55.395C28.216,55.349 28.171,55.281 28.08,55.19C27.99,55.099 27.876,55.007 27.763,54.916C27.537,54.734 27.311,54.62 27.311,54.62C27.311,54.62 27.084,54.506 26.813,54.414C26.677,54.369 26.541,54.346 26.406,54.323C26.292,54.3 26.179,54.3 26.134,54.3C25.953,54.346 25.84,54.392 25.682,54.369Z" style="fill:white;fill-opacity:0.1;fill-rule:nonzero;"/>
    <path d="M50.3,41.786C50.662,42.219 50.82,42.584 51.115,43.199C51.137,43.245 51.16,43.313 51.205,43.427C51.25,43.518 51.295,43.655 51.363,43.837C51.522,44.271 51.771,45 51.929,45.638C52.088,46.277 52.201,46.801 52.201,46.801C52.201,46.801 52.585,48.579 52.812,49.582C52.925,50.084 52.993,50.403 53.038,50.562C53.196,51.224 53.332,51.611 53.4,52.158C53.332,51.588 53.355,51.201 53.264,50.517C53.242,50.357 53.219,50.015 53.128,49.514C53.06,49.012 52.947,48.306 52.834,47.736C52.721,47.166 52.608,46.71 52.608,46.71C52.608,46.71 52.495,46.163 52.314,45.524C52.223,45.205 52.11,44.863 51.997,44.544C51.884,44.225 51.748,43.929 51.635,43.723C51.544,43.541 51.477,43.427 51.431,43.313C51.386,43.222 51.341,43.154 51.295,43.108C50.956,42.492 50.662,42.219 50.3,41.786Z" style="fill:white;fill-opacity:0.1;fill-rule:nonzero;"/>
    <path d="M41.816,77.85C41.93,78.1 41.952,78.351 41.952,78.602C41.952,78.853 41.907,79.103 41.839,79.423C41.839,79.468 41.816,79.537 41.794,79.651C41.771,79.742 41.726,79.879 41.658,80.061C41.613,80.152 41.568,80.289 41.5,80.448C41.432,80.585 41.364,80.745 41.296,80.882C41.16,81.155 41.024,81.383 41.024,81.383C41.024,81.383 40.911,81.566 40.776,81.816C40.64,82.067 40.459,82.363 40.346,82.569C40.097,83.025 39.984,83.344 39.916,83.503C39.667,84.164 39.689,84.575 39.667,85.145C39.689,84.848 39.757,84.62 39.848,84.392C39.938,84.164 40.051,83.914 40.21,83.617C40.278,83.48 40.436,83.184 40.708,82.751C40.843,82.546 41.002,82.249 41.16,82.021C41.296,81.771 41.409,81.588 41.409,81.588C41.409,81.588 41.545,81.36 41.681,81.064C41.749,80.904 41.816,80.745 41.884,80.585C41.93,80.426 41.997,80.289 42.02,80.175C42.065,79.97 42.111,79.833 42.111,79.719C42.133,79.605 42.133,79.537 42.133,79.468C42.156,79.103 42.133,78.83 42.065,78.579C42.043,78.328 41.952,78.1 41.816,77.85Z" style="fill:white;fill-opacity:0.1;fill-rule:nonzero;"/>
    <path d="M38.762,89.705C38.83,89.979 38.762,90.229 38.649,90.457C38.536,90.685 38.4,90.891 38.174,91.096C38.106,91.164 37.97,91.301 37.654,91.506C37.54,91.574 37.337,91.688 37.156,91.802C36.975,91.894 36.839,91.985 36.839,91.985C36.839,91.985 36.341,92.236 36.07,92.395C35.617,92.646 35.345,92.805 35.187,92.897C34.599,93.261 34.327,93.535 33.829,93.809C34.327,93.558 34.734,93.489 35.345,93.193C35.504,93.125 35.798,92.988 36.251,92.76C36.522,92.623 37.042,92.35 37.042,92.35C37.042,92.35 37.201,92.281 37.382,92.167C37.563,92.053 37.767,91.916 37.88,91.825C38.197,91.574 38.332,91.415 38.4,91.324C38.626,91.027 38.717,90.754 38.762,90.503C38.83,90.252 38.808,90.001 38.762,89.705Z" style="fill:white;fill-opacity:0.1;fill-rule:nonzero;"/>
    <path d="M58.063,76.186C58.267,76.733 58.289,77.121 58.448,77.782C58.47,77.827 58.47,77.919 58.493,78.01C58.516,78.124 58.538,78.26 58.584,78.443C58.606,78.58 58.652,78.762 58.674,78.967C58.719,79.172 58.742,79.378 58.787,79.583C58.81,79.788 58.855,79.97 58.855,80.084C58.878,80.221 58.878,80.29 58.878,80.29C58.878,80.29 58.878,80.358 58.9,80.472C58.923,80.586 58.923,80.745 58.946,80.928C58.991,81.27 59.014,81.703 59.036,82.022C59.059,82.273 59.081,82.478 59.081,82.66C59.081,82.82 59.104,82.957 59.104,83.025C59.127,83.709 59.195,84.097 59.149,84.666C59.217,84.097 59.353,83.709 59.398,83.025C59.398,82.934 59.421,82.82 59.421,82.638C59.443,82.478 59.443,82.25 59.443,81.999C59.443,81.68 59.421,81.247 59.398,80.882C59.376,80.7 59.353,80.54 59.353,80.426C59.33,80.312 59.33,80.244 59.33,80.244C59.33,80.244 59.308,80.153 59.308,80.016C59.285,79.879 59.262,79.697 59.217,79.492C59.172,79.286 59.127,79.081 59.081,78.876C59.036,78.671 58.991,78.489 58.946,78.352C58.9,78.169 58.855,78.033 58.81,77.919C58.765,77.805 58.742,77.736 58.742,77.691C58.493,77.052 58.267,76.71 58.063,76.186Z" style="fill:white;fill-opacity:0.1;fill-rule:nonzero;"/>
    <path d="M46.77,109.924C46.702,110.494 46.634,110.881 46.521,111.542C46.476,111.793 46.408,112.317 46.295,112.956C46.136,114.004 45.933,115.235 45.729,116.421C45.526,117.606 45.322,118.723 45.163,119.544C45.005,120.365 44.892,120.912 44.892,120.912C44.892,120.912 44.779,121.436 44.62,122.257C44.439,123.078 44.213,124.195 43.942,125.357C43.67,126.52 43.376,127.751 43.127,128.754C43.014,129.187 42.923,129.552 42.878,129.734C42.72,130.395 42.629,130.783 42.471,131.33C42.629,130.783 42.788,130.418 43.014,129.78C43.082,129.597 43.195,129.256 43.331,128.822C43.647,127.819 43.987,126.611 44.304,125.448C44.62,124.286 44.869,123.169 45.05,122.348C45.231,121.527 45.344,120.98 45.344,120.98C45.344,120.98 45.458,120.456 45.616,119.612C45.774,118.792 45.955,117.652 46.136,116.467C46.317,115.281 46.453,114.027 46.566,112.979C46.589,112.842 46.589,112.728 46.612,112.591C46.612,112.477 46.634,112.363 46.634,112.249C46.634,112.158 46.657,112.044 46.657,111.976C46.679,111.793 46.679,111.656 46.679,111.565C46.725,110.881 46.725,110.471 46.77,109.924Z" style="fill:white;fill-opacity:0.1;fill-rule:nonzero;"/>
    <path d="M16.019,112.639C16.087,113.209 16.064,113.596 16.132,114.28C16.132,114.394 16.155,114.576 16.2,114.964C16.245,115.374 16.313,115.921 16.381,116.514C16.472,117.107 16.562,117.745 16.653,118.338C16.856,119.501 17.037,120.481 17.037,120.481C17.037,120.481 17.196,121.279 17.422,122.305C17.648,123.33 17.988,124.561 18.236,125.428C18.372,125.929 18.485,126.248 18.531,126.408C18.734,127.069 18.893,127.411 19.051,127.958C18.893,127.411 18.847,127.023 18.712,126.34C18.666,126.18 18.599,125.861 18.508,125.359C18.327,124.47 18.055,123.239 17.829,122.213C17.626,121.187 17.445,120.39 17.445,120.39C17.445,120.39 17.264,119.432 17.037,118.269C16.811,117.107 16.562,115.739 16.404,114.918C16.336,114.531 16.291,114.348 16.268,114.234C16.2,113.573 16.109,113.209 16.019,112.639Z" style="fill:white;fill-opacity:0.1;fill-rule:nonzero;"/>
    <path d="M22.221,156.407C22.199,156.977 22.085,157.365 22.04,158.049C22.04,158.163 22.018,158.345 21.995,158.755C21.972,159.097 21.972,159.644 21.972,160.123C21.972,160.602 21.995,160.989 21.995,160.989C21.995,160.989 22.018,161.309 22.018,161.742C22.04,162.152 22.085,162.676 22.108,163.041C22.153,163.565 22.199,163.885 22.221,164.044C22.312,164.728 22.448,165.093 22.493,165.663C22.448,165.093 22.493,164.705 22.493,164.021C22.493,163.862 22.493,163.52 22.47,163.018C22.448,162.289 22.402,160.967 22.402,160.967C22.402,160.967 22.357,159.394 22.312,158.733C22.289,158.345 22.289,158.163 22.289,158.049C22.289,157.365 22.199,156.977 22.221,156.407Z" style="fill:white;fill-opacity:0.1;fill-rule:nonzero;"/>
    <path d="M59.851,102.151C59.67,102.676 59.534,103.109 59.67,103.816C59.692,103.93 59.738,104.135 59.851,104.499C59.851,104.522 59.873,104.591 59.873,104.591C59.873,104.591 59.873,104.613 59.896,104.636C59.896,104.659 59.896,104.659 59.919,104.682C60.054,105.115 60.167,105.457 60.213,105.616C60.303,105.936 60.371,106.186 60.371,106.414C60.394,106.665 60.349,106.893 60.213,107.144C60.349,106.893 60.484,106.688 60.552,106.414C60.62,106.164 60.643,105.867 60.597,105.502C60.575,105.32 60.484,104.933 60.349,104.499C60.349,104.477 60.349,104.477 60.326,104.454C60.326,104.431 60.303,104.408 60.303,104.408C60.303,104.408 60.281,104.34 60.281,104.317C60.213,104.135 60.167,103.998 60.145,103.907C60.122,103.816 60.1,103.724 60.077,103.679C59.987,103.36 59.896,103.109 59.851,102.881C59.783,102.676 59.783,102.425 59.851,102.151Z" style="fill:white;fill-opacity:0.1;fill-rule:nonzero;"/>
    <path d="M43.469,52.841C43.583,52.75 43.673,52.636 43.786,52.545C44.397,51.93 44.917,51.246 45.234,50.402C45.574,49.445 45.347,48.578 45.257,47.598C45.166,46.413 45.302,45.182 45.302,43.974C45.325,41.466 45.28,38.958 45.144,36.451C45.144,36.337 45.144,36.245 45.189,36.154C45.302,35.995 45.528,36.04 45.71,36.109C46.162,36.245 46.637,36.428 46.931,36.77C47.497,37.431 47.248,38.206 47.248,38.981C47.248,40.098 47.316,41.215 47.339,42.355C47.384,44.361 47.361,46.276 47.588,48.282C47.837,50.493 49.33,52.226 50.258,54.164C51.593,56.899 51.955,60.911 50.393,63.67C50.28,63.898 50.145,64.103 49.986,64.285C49.76,64.605 49.488,64.924 49.443,65.311C49.375,65.927 49.511,66.109 48.99,66.36C48.606,66.542 47.701,66.451 47.271,66.474C46.004,66.542 44.737,66.474 43.469,66.36C41.953,66.223 40.369,66.246 38.831,66.155C34.848,65.904 30.866,65.653 26.883,65.927C22.584,66.223 18.013,66.93 13.737,66.406C13.601,66.383 13.465,66.36 13.375,66.269C13.239,66.155 13.239,65.95 13.216,65.79C13.103,64.992 12.537,64.126 12.243,63.374C11.859,62.393 11.564,61.367 11.383,60.319C11.044,58.267 11.27,56.17 12.175,54.278C12.945,52.727 14.393,51.382 14.959,49.741C15.524,48.077 15.434,45.957 15.524,44.201C15.592,42.948 15.66,41.694 15.751,40.417C15.796,39.619 15.615,38.297 15.999,37.613C16.316,37.043 17.493,36.565 18.036,36.2C18.172,38.525 17.651,40.782 17.583,43.107C17.538,44.794 17.538,46.527 17.674,48.191C17.787,49.536 17.629,51.132 18.647,52.203C19.145,52.727 19.846,53.024 20.548,53.275C23.625,54.483 26.747,55.873 30.074,56.17C31.68,56.307 33.31,56.238 34.916,55.987C36.364,55.759 37.971,55.463 39.351,55.007C40.822,54.551 42.293,53.89 43.469,52.841Z" style="fill:rgb(175,25,0);fill-rule:nonzero;stroke:rgb(36,0,0);stroke-width:0.23px;"/>
    <path d="M50.258,54.141C49.331,52.203 47.837,50.47 47.588,48.259C47.362,46.276 47.385,44.338 47.34,42.332C47.317,41.215 47.249,40.098 47.249,38.958C47.249,38.183 47.498,37.408 46.932,36.747C46.615,36.382 46.14,36.222 45.71,36.086C45.529,36.017 45.303,35.994 45.19,36.131C45.122,36.222 45.122,36.336 45.145,36.428C45.28,38.935 45.348,41.443 45.303,43.951C45.28,45.136 45.167,46.39 45.258,47.575C45.394,49.331 45.303,50.493 44.307,51.815C44.896,51.2 45.394,50.516 45.801,49.764C48.697,51.838 51.164,56.078 50.281,59.749C48.561,67.044 38.854,64.718 33.65,63.943C29.441,63.328 25.255,65.379 21.046,65.266C17.878,65.174 14.733,64.103 12.538,61.732C11.791,60.911 11.362,59.954 11.226,58.951C11.248,59.407 11.294,59.84 11.362,60.296C11.52,61.344 11.837,62.37 12.221,63.351C12.516,64.103 13.081,64.969 13.194,65.767C13.217,65.949 13.24,66.132 13.353,66.246C13.443,66.337 13.579,66.36 13.715,66.383C17.991,66.907 22.562,66.2 26.862,65.904C30.844,65.63 34.849,65.881 38.809,66.132C40.348,66.223 41.909,66.223 43.448,66.337C44.715,66.451 45.982,66.519 47.249,66.451C47.679,66.428 48.607,66.519 48.969,66.337C49.489,66.086 49.353,65.904 49.421,65.288C49.467,64.901 49.738,64.582 49.964,64.263C50.1,64.057 50.236,63.852 50.372,63.647C51.956,60.866 51.594,56.876 50.258,54.141Z" style="fill-opacity:0.28;fill-rule:nonzero;"/>
    <path d="M14.866,52.295C15.228,52.112 15.635,51.975 15.839,51.611C15.974,51.383 15.997,51.132 16.02,50.881C16.223,48.761 16.404,46.618 16.608,44.498C16.766,42.697 17.219,41.147 17.536,39.392C17.717,38.366 17.898,37.317 17.943,36.269C17.377,36.611 16.314,37.066 15.997,37.614C15.612,38.298 15.793,39.62 15.748,40.418C15.658,41.671 15.59,42.925 15.522,44.202C15.409,45.957 15.522,48.077 14.956,49.742C14.39,51.383 12.942,52.728 12.173,54.278C11.811,55.008 11.562,55.783 11.404,56.558C11.901,54.757 13.146,53.115 14.866,52.295Z" style="fill-opacity:0.28;fill-rule:nonzero;"/>
    <path d="M9.686,90.548C9.551,90.753 9.528,91.004 9.528,91.232C9.234,99.644 9.46,108.078 10.501,116.445C11.61,125.267 13.805,133.588 16.95,141.863C17.108,142.296 17.267,142.729 17.334,143.185C17.38,143.596 17.334,143.983 17.289,144.394C16.022,156.955 18.126,169.06 21.113,181.119C21.769,181.507 22.403,181.758 23.082,181.94C21.294,174.873 20.072,167.646 19.416,160.374C19.303,159.166 19.212,157.958 19.212,156.727C19.212,155.131 19.461,153.512 20.525,152.281C21.905,150.686 23.942,151.141 25.458,149.979C25.707,149.774 25.956,149.5 25.91,149.181C25.888,148.953 25.752,148.748 25.616,148.588C24.621,147.38 23.082,146.696 22.064,145.511C20.208,143.322 19.642,139.333 18.828,136.643C17.742,133.086 16.814,129.462 16.022,125.837C14.031,117.995 12.832,109.332 13.194,101.285C13.216,100.829 13.239,100.35 13.465,99.963C13.895,99.256 17.787,99.872 18.104,100.419C17.153,98.732 14.845,98.321 13.646,96.817C14.348,96.748 15.026,96.68 15.728,96.612C16.339,96.543 16.429,96.042 16.995,95.882C17.493,95.745 18.828,95.631 19.326,95.814C17.629,95.221 15.683,94.719 14.506,93.283C17.606,94.081 20.751,94.651 23.942,95.039C23.104,95.563 22.222,96.019 21.317,96.384C21.815,96.976 22.245,97.615 22.584,98.321C22.765,98.709 22.923,99.165 22.697,99.53C22.471,99.872 21.996,99.917 21.634,100.122C21.272,100.327 21.091,100.966 21.498,101.08C19.688,100.692 17.9,100.282 16.09,99.894C17.787,100.259 19.756,102.128 20.978,103.268C22.448,104.659 23.693,105.844 24.462,107.782C26.069,111.726 25.797,116.08 26.137,120.229C26.612,125.769 27.064,131.331 27.54,136.871C27.743,139.333 27.879,141.795 27.969,144.28C27.992,145.169 28.15,146.126 27.947,147.015C27.675,148.223 26.77,149.158 26.499,150.366C26.25,151.575 26.702,152.783 27.042,153.968C28.354,158.3 27.834,162.221 27.811,166.598C27.788,171.727 27.675,176.879 27.472,182.008C27.834,181.963 28.173,181.894 28.535,181.826C28.648,178.862 28.965,175.899 29.282,172.958C29.531,170.587 29.802,168.239 30.006,165.868C30.255,162.699 29.757,159.827 29.191,156.818C28.761,154.607 28.377,152.327 28.512,150.07C28.58,148.657 29.123,147.357 29.304,145.967C30.164,139.766 30.617,133.497 30.662,127.25C30.707,121.027 30.119,114.826 30.006,108.625C30.436,108.625 31.658,108.352 31.816,108.922C31.861,109.036 31.839,109.15 31.816,109.264C31.25,113.869 30.821,118.519 30.821,123.17C30.821,126.635 30.934,130.396 31.635,133.77C32.133,136.187 32.133,138.831 32.314,141.339C32.585,144.964 33.672,148.451 33.491,152.122C33.287,156.157 32.472,160.215 32.721,164.272C32.97,168.399 33.4,172.57 33.739,176.697C33.853,178.224 33.92,179.774 33.943,181.302C34.169,181.324 34.396,181.347 34.645,181.393C34.826,181.438 35.029,181.461 35.21,181.53C35.233,178.817 34.848,175.99 34.803,174.394C34.531,166.894 33.92,159.326 34.939,151.848C36.5,152.486 38.944,152.897 40.234,154.037C40.754,154.493 41.048,155.154 41.274,155.815C41.818,157.525 41.885,159.348 41.885,161.149C41.908,167.943 41.116,174.713 40.234,181.461C40.573,181.302 40.89,181.142 41.207,180.96C42.066,176.993 42.904,173.026 43.673,169.06C44.374,165.458 45.076,161.833 45.415,158.186C45.574,156.453 45.755,154.721 45.415,153.011C45.257,152.236 44.985,151.483 44.85,150.708C44.669,149.568 44.917,148.269 45.008,147.106C45.099,146.058 44.85,145.146 44.85,144.097C44.85,143.641 45.031,143.208 45.189,142.798C46.818,138.74 48.108,134.545 49.126,130.282C49.85,123.877 50.665,117.448 51.321,111.042C51.774,106.711 52.136,102.356 51.909,98.025C51.163,101.923 50.416,105.821 50.031,109.765C49.76,112.524 49.692,115.282 49.398,118.041C48.312,128.071 44.352,137.509 40.415,146.787C40.234,147.198 40.053,147.631 39.668,147.859C39.374,148.041 38.989,148.064 38.627,148.041C36.342,147.859 35.527,146.651 35.369,144.667C35.142,142.068 34.735,139.47 34.486,136.848C34.034,131.65 33.898,126.43 34.102,121.209C34.26,117.06 34.056,112.25 35.912,108.489C37.586,105.092 39.894,101.923 42.904,99.598C44.193,98.595 45.709,97.911 47.067,97.022C48.244,96.27 49.466,95.768 50.733,95.175C51.095,95.016 51.547,94.879 51.909,94.697C51.774,93.967 51.638,93.26 51.593,92.531C51.593,92.28 51.57,92.029 51.48,91.801C51.185,91.186 50.326,91.209 49.669,91.3C50.031,90.867 50.393,90.434 50.755,90.001C50.642,90.023 50.529,90.069 50.416,90.115C50.348,90.137 50.258,90.16 50.19,90.183C50.077,90.229 49.963,90.251 49.85,90.297C49.782,90.32 49.715,90.342 49.624,90.388C49.511,90.434 49.398,90.479 49.285,90.525C49.217,90.548 49.149,90.593 49.081,90.616C48.968,90.662 48.855,90.707 48.742,90.753C48.674,90.776 48.606,90.821 48.538,90.844C48.425,90.89 48.289,90.958 48.176,91.004C48.153,91.026 48.108,91.026 48.085,91.049C47.836,91.163 47.61,91.277 47.361,91.391C47.316,91.414 47.271,91.437 47.203,91.46C47.022,91.551 46.818,91.619 46.637,91.71C46.275,91.87 45.891,92.029 45.528,92.166C46.207,92.463 46.999,92.554 47.723,92.371C46.456,93.352 45.166,94.309 43.899,95.289C45.823,94.583 47.769,93.853 49.692,93.146C49.285,93.511 48.9,93.876 48.493,94.263C49.375,94.036 50.303,93.967 51.208,94.104C50.71,94.036 49.262,95.198 48.787,95.449C47.904,95.928 47.022,96.406 46.162,96.885C44.42,97.843 42.7,98.846 41.026,99.917C38.65,101.467 34.984,105.799 31.884,105.411C31.002,105.297 30.232,104.75 29.667,104.066C29.101,103.382 28.694,102.584 28.309,101.786C27.653,100.464 27.019,99.142 26.363,97.797C26.272,97.615 26.182,97.432 26.204,97.25C26.25,96.931 26.567,96.726 26.861,96.566C28.264,95.837 29.621,95.654 31.16,95.312C32.337,95.061 33.558,94.947 34.758,94.765C35.663,94.628 37.202,94.081 38.084,94.263C37.699,94.195 37.315,94.104 36.953,94.036C36.115,94.104 35.278,94.172 34.441,94.218C34.056,94.241 33.672,94.241 33.287,94.263L33.174,94.263C32.766,94.263 32.337,94.286 31.929,94.263C25.956,94.241 19.914,93.739 14.166,92.052C12.786,91.642 11.496,90.912 10.071,90.639C9.913,90.662 10.116,90.456 9.958,90.456C9.935,90.456 9.89,90.456 9.867,90.479C9.799,90.434 9.732,90.479 9.686,90.548Z" style="fill-opacity:0.28;fill-rule:nonzero;"/>
</svg>
