<?xml version="1.0" encoding="UTF-8" standalone="no"?>
<!DOCTYPE svg PUBLIC "-//W3C//DTD SVG 1.1//EN" "http://www.w3.org/Graphics/SVG/1.1/DTD/svg11.dtd">
<svg width="100%" height="100%" viewBox="0 0 46 46" version="1.1" xmlns="http://www.w3.org/2000/svg" xmlns:xlink="http://www.w3.org/1999/xlink" xml:space="preserve" xmlns:serif="http://www.serif.com/" style="fill-rule:evenodd;clip-rule:evenodd;stroke-linejoin:round;stroke-miterlimit:2;">
    <path d="M23,22.791L3.205,22.791C2.888,23.144 2.724,23.614 2.753,24.087C3.154,30.426 6.51,36.179 11.754,39.678C12.134,39.931 12.618,40.037 13.101,39.936C13.101,39.936 13.101,39.936 13.101,39.937L23,22.791Z" style="fill:rgb(255,160,0);fill-rule:nonzero;"/>
    <path d="M13.101,5.644C13.101,5.645 13.101,5.645 13.1,5.645C12.636,5.548 12.148,5.641 11.754,5.904C6.515,9.4 3.154,15.15 2.753,21.494C2.724,21.967 2.888,22.437 3.205,22.791L23,22.791L13.101,5.644Z" style="fill:rgb(255,160,0);fill-rule:nonzero;"/>
    <path d="M32.899,5.644C32.752,5.195 32.429,4.818 32.007,4.608C26.346,1.798 19.658,1.796 13.993,4.608C13.57,4.818 13.248,5.195 13.101,5.644L23,22.791L32.899,5.644Z" style="fill:rgb(255,160,0);fill-rule:nonzero;"/>
    <path d="M13.101,39.937C13.248,40.387 13.57,40.763 13.993,40.973C19.653,43.782 26.342,43.785 32.007,40.973C32.924,40.518 33.261,39.376 32.749,38.489L24.029,23.385L23,22.791L13.101,39.937Z" style="fill:rgb(255,160,0);fill-rule:nonzero;"/>
    <path d="M43.247,21.494C42.847,15.155 39.491,9.402 34.246,5.904C33.853,5.641 33.364,5.548 32.9,5.645C32.9,5.645 32.9,5.644 32.9,5.644L23.001,22.791L24.03,23.385L41.467,23.385C42.494,23.385 43.312,22.517 43.247,21.494Z" style="fill:rgb(255,160,0);fill-rule:nonzero;"/>
    <path d="M18.916,22.791L9.95,38.32C10.527,38.806 11.13,39.26 11.756,39.678C12.135,39.931 12.619,40.037 13.101,39.936C13.102,39.936 13.102,39.936 13.102,39.937L23.001,22.791L18.916,22.791Z" style="fill:rgb(245,124,0);fill-rule:nonzero;"/>
    <path d="M13.101,5.644C13.101,5.645 13.101,5.645 13.1,5.645C12.636,5.548 12.148,5.641 11.754,5.904C11.571,6.026 11.391,6.151 11.213,6.279L19.83,21.206L2.776,21.206C2.769,21.302 2.76,21.398 2.753,21.494C2.724,21.967 2.888,22.437 3.205,22.791L23,22.791L13.101,5.644Z" style="fill:rgb(245,124,0);fill-rule:nonzero;"/>
    <path d="M32.006,4.608C31.178,4.197 30.331,3.847 29.468,3.556C29.58,3.708 29.67,3.877 29.729,4.059L20.957,19.253L23,22.791L32.899,5.644C32.752,5.195 32.429,4.818 32.006,4.608Z" style="fill:rgb(245,124,0);fill-rule:nonzero;"/>
    <path d="M32.751,38.489L24.031,23.385L23.001,22.791L22.217,24.149L29.581,36.904C30.093,37.79 29.755,38.933 28.838,39.388C23.834,41.872 18.212,42.076 13.363,40.44C13.528,40.663 13.743,40.848 13.995,40.973C16.808,42.37 19.839,43.078 23.001,43.078C26.164,43.078 29.194,42.37 32.008,40.973C32.925,40.518 33.263,39.376 32.751,38.489Z" style="fill:rgb(245,124,0);fill-rule:nonzero;"/>
    <path d="M43.247,21.494C42.847,15.155 39.491,9.402 34.246,5.904C33.853,5.641 33.364,5.548 32.9,5.645C32.9,5.645 32.9,5.644 32.9,5.644L32.882,5.676C37.173,9.292 39.731,14.427 40.077,19.909C40.142,20.932 39.324,21.8 38.297,21.8L23.573,21.8L23.001,22.791L24.03,23.385L41.467,23.385C42.494,23.385 43.312,22.517 43.247,21.494Z" style="fill:rgb(245,124,0);fill-rule:nonzero;"/>
    <path d="M6.572,22.791C6.572,23.773 6.343,24.763 6.507,25.699C6.675,26.661 7.232,27.513 7.558,28.41C7.891,29.324 8.015,30.333 8.496,31.164C8.981,32.002 9.796,32.612 10.415,33.35C11.036,34.089 11.497,34.997 12.236,35.617C12.973,36.237 13.946,36.534 14.784,37.019L22.999,22.791L6.572,22.791Z" style="fill:rgb(255,224,130);fill-rule:nonzero;"/>
    <path d="M18.916,22.791L11.775,35.158C11.919,35.322 12.071,35.477 12.238,35.617C12.975,36.237 13.948,36.534 14.786,37.019L23.001,22.791L18.916,22.791Z" style="fill:rgb(255,202,40);fill-rule:nonzero;"/>
    <path d="M14.785,37.019C15.612,37.497 16.357,38.196 17.271,38.529C18.169,38.856 19.184,38.802 20.146,38.97C21.082,39.134 22.017,39.534 23,39.534C23.982,39.534 24.918,39.134 25.853,38.97C26.815,38.802 27.83,38.856 28.728,38.529C29.179,38.364 29.589,38.112 29.987,37.839C30.675,37.371 30.888,36.455 30.472,35.734C28.452,32.234 23,22.791 23,22.791L14.785,37.019Z" style="fill:rgb(255,224,130);fill-rule:nonzero;"/>
    <path d="M23.001,22.791L21.874,24.743L28.046,35.434C27.004,36.075 26.409,36.635 25.56,36.944C24.662,37.271 23.647,37.217 22.685,37.385C21.749,37.549 20.814,37.95 19.831,37.95C18.849,37.95 17.914,37.549 16.978,37.385C16.334,37.273 15.666,37.259 15.025,37.164C15.762,37.631 16.448,38.228 17.273,38.529C18.171,38.856 19.186,38.802 20.148,38.971C21.084,39.134 22.019,39.534 23.002,39.534C23.984,39.534 24.919,39.134 25.855,38.971C26.817,38.802 27.832,38.856 28.73,38.529C29.181,38.365 29.59,38.112 29.989,37.84C30.676,37.371 30.89,36.455 30.474,35.735C28.453,32.234 23.001,22.791 23.001,22.791Z" style="fill:rgb(255,202,40);fill-rule:nonzero;"/>
    <path d="M14.784,8.562C13.946,9.047 12.973,9.344 12.236,9.964C11.497,10.584 11.036,11.492 10.415,12.232C9.796,12.969 8.981,13.579 8.496,14.417C8.015,15.248 7.891,16.257 7.558,17.171C7.232,18.068 6.675,18.92 6.507,19.882C6.343,20.818 6.572,21.808 6.572,22.79L22.999,22.79L14.784,8.562Z" style="fill:rgb(255,224,130);fill-rule:nonzero;"/>
    <path d="M14.784,8.562C14.224,8.886 13.604,9.127 13.034,9.435L18.457,18.828C19.067,19.885 18.304,21.206 17.084,21.206L6.47,21.206C6.506,21.729 6.572,22.261 6.572,22.79L22.999,22.79L14.784,8.562Z" style="fill:rgb(255,202,40);fill-rule:nonzero;"/>
    <path d="M28.728,7.052C27.83,6.726 26.815,6.779 25.853,6.611C24.917,6.447 23.982,6.047 22.999,6.047C22.017,6.047 21.081,6.447 20.146,6.611C19.184,6.779 18.169,6.726 17.271,7.052C16.358,7.385 15.615,8.082 14.785,8.562C14.785,8.562 14.785,8.562 14.785,8.562L22.999,22.791L31.214,8.562L31.214,8.562C30.383,8.082 29.641,7.385 28.728,7.052Z" style="fill:rgb(255,224,130);fill-rule:nonzero;"/>
    <path d="M31.214,8.562C30.384,8.082 29.641,7.385 28.728,7.052C28.524,6.978 28.313,6.925 28.099,6.883L20.957,19.253L23,22.791L31.214,8.562L31.214,8.562Z" style="fill:rgb(255,202,40);fill-rule:nonzero;"/>
    <path d="M38.227,22.79C38.889,22.79 39.44,22.284 39.496,21.625C39.547,21.033 39.592,20.448 39.493,19.882C39.324,18.92 38.768,18.068 38.441,17.171C38.108,16.257 37.984,15.248 37.504,14.417C37.019,13.579 36.204,12.968 35.585,12.231C34.964,11.492 34.503,10.584 33.763,9.964C33.027,9.344 32.054,9.047 31.215,8.562L23.001,22.79L31.005,22.79L31.005,26.758C31.004,27.569 31.662,28.226 32.473,28.226C33.411,28.226 34.032,27.505 34.032,26.712L34.032,26.167C34.032,25.647 34.454,25.225 34.975,25.225C35.496,25.225 35.918,25.647 35.918,26.167L35.918,30.404C35.918,31.041 36.435,31.558 37.073,31.558C37.71,31.558 38.227,31.041 38.227,30.404L38.227,22.79Z" style="fill:rgb(255,224,130);fill-rule:nonzero;"/>
    <path d="M39.493,19.882C39.324,18.92 38.768,18.068 38.441,17.171C38.108,16.257 37.984,15.248 37.504,14.417C37.019,13.579 36.204,12.968 35.585,12.231C34.964,11.492 34.503,10.584 33.763,9.964C33.027,9.344 32.054,9.047 31.215,8.562L31.056,8.838C31.549,9.401 31.934,10.074 32.415,10.646C33.034,11.384 33.849,11.994 34.334,12.832C34.814,13.663 34.939,14.672 35.271,15.586C35.598,16.483 36.155,17.335 36.323,18.297C36.325,18.307 36.326,18.316 36.328,18.326C36.58,19.837 35.39,21.206 33.858,21.206L23.916,21.206L23.001,22.79L35.058,22.79L35.058,25.229C35.54,25.27 35.918,25.674 35.918,26.167L35.918,30.404C35.918,31.042 36.435,31.558 37.073,31.558C37.71,31.558 38.227,31.041 38.227,30.404L38.227,22.79C38.888,22.79 39.44,22.284 39.496,21.625C39.547,21.033 39.592,20.448 39.493,19.882Z" style="fill:rgb(255,202,40);fill-rule:nonzero;"/>
    <path d="M23.588,34.212C23.588,35.514 22.534,36.568 21.233,36.568C19.931,36.568 18.877,35.514 18.877,34.212C18.877,32.911 19.931,31.856 21.233,31.856C22.534,31.856 23.588,32.911 23.588,34.212Z" style="fill:rgb(239,83,80);fill-rule:nonzero;"/>
    <path d="M16.242,30.476C16.242,31.778 15.187,32.833 13.886,32.833C12.585,32.833 11.53,31.778 11.53,30.476C11.53,29.175 12.585,28.121 13.886,28.121C15.187,28.121 16.242,29.175 16.242,30.476Z" style="fill:rgb(239,83,80);fill-rule:nonzero;"/>
    <path d="M18.182,18.341C18.182,19.642 17.127,20.697 15.826,20.697C14.525,20.697 13.47,19.642 13.47,18.341C13.47,17.04 14.525,15.985 15.826,15.985C17.127,15.985 18.182,17.04 18.182,18.341Z" style="fill:rgb(239,83,80);fill-rule:nonzero;"/>
    <path d="M23.128,10.358C23.128,11.659 22.073,12.714 20.772,12.714C19.471,12.714 18.416,11.659 18.416,10.358C18.416,9.057 19.471,8.002 20.772,8.002C22.073,8.002 23.128,9.057 23.128,10.358Z" style="fill:rgb(239,83,80);fill-rule:nonzero;"/>
    <path d="M33.479,13.274C33.479,13.924 32.951,14.452 32.301,14.452C31.65,14.452 31.123,13.924 31.123,13.274C31.123,12.623 31.65,12.096 32.301,12.096C32.951,12.096 33.479,12.623 33.479,13.274Z" style="fill:rgb(255,111,0);fill-rule:nonzero;"/>
    <path d="M29.686,19.392C29.686,20.042 29.159,20.57 28.508,20.57C27.858,20.57 27.331,20.042 27.331,19.392C27.331,18.741 27.858,18.214 28.508,18.214C29.159,18.214 29.686,18.741 29.686,19.392Z" style="fill:rgb(255,111,0);fill-rule:nonzero;"/>
    <path d="M28.304,9.74C28.304,10.391 27.777,10.918 27.126,10.918C26.476,10.918 25.948,10.391 25.948,9.74C25.948,9.089 26.476,8.562 27.126,8.562C27.777,8.562 28.304,9.089 28.304,9.74Z" style="fill:rgb(255,111,0);fill-rule:nonzero;"/>
    <path d="M24.178,16.258C24.178,16.908 23.651,17.435 23,17.435C22.35,17.435 21.822,16.908 21.822,16.258C21.822,15.607 22.35,15.08 23,15.08C23.651,15.08 24.178,15.607 24.178,16.258Z" style="fill:rgb(255,111,0);fill-rule:nonzero;"/>
    <path d="M10.979,19.868C10.979,20.518 10.452,21.045 9.801,21.045C9.15,21.045 8.623,20.518 8.623,19.868C8.623,19.217 9.15,18.69 9.801,18.69C10.452,18.69 10.979,19.217 10.979,19.868Z" style="fill:rgb(255,111,0);fill-rule:nonzero;"/>
    <path d="M17.743,25.455C17.743,26.106 17.216,26.633 16.565,26.633C15.915,26.633 15.387,26.106 15.387,25.455C15.387,24.805 15.915,24.277 16.565,24.277C17.216,24.277 17.743,24.805 17.743,25.455Z" style="fill:rgb(255,111,0);fill-rule:nonzero;"/>
    <path d="M15.016,12.383C14.834,11.759 14.18,11.401 13.555,11.583C12.931,11.766 12.573,12.42 12.755,13.044C12.938,13.669 13.592,14.027 14.216,13.844C14.841,13.662 15.199,13.008 15.016,12.383Z" style="fill:rgb(255,111,0);fill-rule:nonzero;"/>
    <path d="M11.402,26.324C11.402,26.975 10.875,27.502 10.224,27.502C9.574,27.502 9.046,26.975 9.046,26.324C9.046,25.674 9.574,25.146 10.224,25.146C10.875,25.146 11.402,25.674 11.402,26.324Z" style="fill:rgb(255,111,0);fill-rule:nonzero;"/>
    <path d="M27.995,35.391C27.995,36.041 27.467,36.569 26.817,36.569C26.166,36.569 25.639,36.041 25.639,35.391C25.639,34.74 26.166,34.212 26.817,34.212C27.467,34.212 27.995,34.74 27.995,35.391Z" style="fill:rgb(255,111,0);fill-rule:nonzero;"/>
    <path d="M24.178,28.68C24.178,29.331 23.651,29.859 23,29.859C22.35,29.859 21.822,29.331 21.822,28.68C21.822,28.03 22.35,27.502 23,27.502C23.651,27.502 24.178,28.03 24.178,28.68Z" style="fill:rgb(255,111,0);fill-rule:nonzero;"/>
    <path d="M36.656,18.5C36.656,19.801 35.601,20.856 34.301,20.856C32.999,20.856 31.944,19.801 31.944,18.5C31.944,17.199 32.999,16.144 34.301,16.144C35.601,16.144 36.656,17.199 36.656,18.5Z" style="fill:rgb(239,83,80);fill-rule:nonzero;"/>
    <path d="M21.722,31.908C21.901,32.24 22.003,32.62 22.003,33.024C22.003,34.518 20.626,35.639 19.156,35.328C19.554,36.066 20.334,36.568 21.232,36.568C22.533,36.568 23.587,35.513 23.587,34.212C23.587,33.079 22.788,32.133 21.722,31.908Z" style="fill:rgb(211,47,47);fill-rule:nonzero;"/>
    <path d="M14.376,28.172C14.555,28.504 14.656,28.884 14.656,29.288C14.656,30.589 13.602,31.644 12.301,31.644C12.132,31.644 11.968,31.626 11.81,31.592C12.208,32.331 12.988,32.832 13.885,32.832C15.187,32.832 16.241,31.778 16.241,30.476C16.241,29.343 15.442,28.398 14.376,28.172Z" style="fill:rgb(211,47,47);fill-rule:nonzero;"/>
    <path d="M16.315,16.037C16.494,16.369 16.596,16.749 16.596,17.152C16.596,18.454 15.541,19.508 14.24,19.508C14.072,19.508 13.908,19.49 13.75,19.457C14.147,20.195 14.928,20.697 15.825,20.697C17.126,20.697 18.181,19.642 18.181,18.341C18.181,17.208 17.381,16.262 16.315,16.037Z" style="fill:rgb(211,47,47);fill-rule:nonzero;"/>
    <path d="M21.262,8.054C21.441,8.386 21.542,8.766 21.542,9.17C21.542,10.471 20.488,11.525 19.186,11.525C19.018,11.525 18.854,11.507 18.696,11.474C19.094,12.212 19.874,12.714 20.771,12.714C22.072,12.714 23.127,11.659 23.127,10.358C23.127,9.225 22.327,8.279 21.262,8.054Z" style="fill:rgb(211,47,47);fill-rule:nonzero;"/>
    <path d="M34.79,16.195C34.969,16.528 35.071,16.907 35.071,17.311C35.071,18.612 34.016,19.667 32.715,19.667C32.546,19.667 32.383,19.649 32.224,19.616C32.622,20.354 33.402,20.856 34.3,20.856C35.601,20.856 36.656,19.801 36.656,18.5C36.656,17.367 35.856,16.421 34.79,16.195Z" style="fill:rgb(211,47,47);fill-rule:nonzero;"/>
</svg>
