<?xml version="1.0" encoding="UTF-8" standalone="no"?>
<!DOCTYPE svg PUBLIC "-//W3C//DTD SVG 1.1//EN" "http://www.w3.org/Graphics/SVG/1.1/DTD/svg11.dtd">
<svg width="100%" height="100%" viewBox="0 0 46 46" version="1.1" xmlns="http://www.w3.org/2000/svg" xmlns:xlink="http://www.w3.org/1999/xlink" xml:space="preserve" xmlns:serif="http://www.serif.com/" style="fill-rule:evenodd;clip-rule:evenodd;stroke-linejoin:round;stroke-miterlimit:2;">
    <g>
        <path d="M41.095,9.155C38.222,6.282 33.564,6.282 30.69,9.155L41.095,19.56C43.968,16.686 43.968,12.028 41.095,9.155Z" style="fill:rgb(198,197,202);fill-rule:nonzero;"/>
        <path d="M42.334,10.799C42.008,10.209 41.595,9.655 41.095,9.155C38.222,6.282 33.564,6.282 30.69,9.155L33.573,12.037C35.946,9.664 39.537,9.251 42.334,10.799Z" style="fill:rgb(172,171,177);fill-rule:nonzero;"/>
        <path d="M39.443,10.809C40.247,11.613 41.54,11.625 42.361,10.849C42.031,10.241 41.61,9.669 41.096,9.155C40.582,8.641 40.011,8.221 39.403,7.891C38.627,8.711 38.639,10.005 39.443,10.809Z" style="fill:rgb(120,118,128);fill-rule:nonzero;"/>
        <path d="M41.096,9.155C40.582,8.641 40.01,8.221 39.402,7.891C38.883,8.44 38.717,9.2 38.905,9.884C40.088,9.905 41.267,10.209 42.331,10.797C42.005,10.208 41.595,9.654 41.096,9.155Z" style="fill:rgb(87,86,92);fill-rule:nonzero;"/>
        <path d="M36.289,8.526C36.691,8.124 36.895,7.598 36.901,7.07C35.521,6.88 34.098,7.082 32.811,7.675C32.909,7.986 33.08,8.279 33.326,8.526C34.144,9.344 35.471,9.344 36.289,8.526Z" style="fill:rgb(87,86,92);fill-rule:nonzero;"/>
        <path d="M43.182,13.35C42.654,13.356 42.128,13.56 41.725,13.962C40.907,14.78 40.907,16.107 41.725,16.924C41.972,17.171 42.265,17.342 42.576,17.44C43.17,16.153 43.371,14.73 43.182,13.35Z" style="fill:rgb(120,118,128);fill-rule:nonzero;"/>
        <path d="M39.884,19.078L31.172,10.366L6.892,23.618C5.636,24.304 4.899,25.664 5.011,27.091L5.513,33.472C5.633,35 6.294,36.435 7.378,37.518L12.732,42.872C13.815,43.956 15.25,44.617 16.778,44.737L23.159,45.239C24.586,45.351 25.946,44.614 26.632,43.358L39.884,19.078Z" style="fill:rgb(194,223,246);fill-rule:nonzero;"/>
        <path d="M7.377,37.518L12.731,42.872C13.311,43.452 13.991,43.909 14.733,44.229L39.884,19.078L31.172,10.366L6.021,35.517C6.34,36.258 6.798,36.939 7.377,37.518Z" style="fill:rgb(209,231,248);fill-rule:nonzero;"/>
        <path d="M37.703,22.071L28.18,12.548C27.204,11.572 27.204,9.976 28.18,9.001C29.155,8.026 30.751,8.026 31.726,9.001L41.249,18.524C42.225,19.499 42.225,21.095 41.249,22.071C40.274,23.046 38.678,23.046 37.703,22.071Z" style="fill:rgb(216,215,218);fill-rule:nonzero;"/>
        <path d="M31.813,12.635C32.789,11.659 34.385,11.659 35.36,12.635L31.726,9.001C30.751,8.026 29.155,8.026 28.18,9.001C27.204,9.976 27.204,11.572 28.18,12.548L31.813,16.181C30.838,15.206 30.838,13.61 31.813,12.635Z" style="fill:rgb(198,197,202);fill-rule:nonzero;"/>
        <path d="M24.174,42.017L30.426,30.563C31.337,29.164 31.18,27.271 29.952,26.043C29.668,25.76 29.349,25.535 29.009,25.366C28.736,25.231 28.575,24.951 28.577,24.647C28.582,23.884 28.294,23.12 27.711,22.538C27.133,21.959 26.375,21.672 25.617,21.673C25.308,21.673 25.029,21.503 24.892,21.226C24.729,20.895 24.514,20.584 24.23,20.322C22.162,18.403 19.802,19.76 19.802,19.76L8.233,26.075C7.945,26.232 7.776,26.545 7.801,26.872L8.303,33.252C8.371,34.115 8.745,34.927 9.357,35.539L14.711,40.893C15.323,41.504 16.135,41.879 16.997,41.947L23.378,42.448C23.705,42.474 24.017,42.305 24.174,42.017Z" style="fill:rgb(221,255,251);fill-rule:nonzero;"/>
        <path d="M30.959,28.003C30.84,27.286 30.506,26.597 29.952,26.043C29.669,25.76 29.349,25.535 29.009,25.366C28.736,25.232 28.576,24.951 28.578,24.647C28.582,23.884 28.294,23.12 27.712,22.538C27.134,21.96 26.376,21.672 25.618,21.673C25.308,21.673 25.029,21.503 24.892,21.226C24.73,20.895 24.514,20.585 24.231,20.322C23.557,19.696 22.852,19.42 22.208,19.331L8.302,33.236L8.303,33.252C8.371,34.115 8.746,34.927 9.357,35.539L14.711,40.893C15.323,41.504 16.135,41.879 16.998,41.947L17.014,41.948L30.959,28.003Z" style="fill:white;fill-rule:nonzero;"/>
        <path d="M18.792,31.252C19.13,31.252 19.405,30.978 19.405,30.639C19.405,30.301 19.13,30.026 18.792,30.026C18.453,30.026 18.179,30.301 18.179,30.639C18.179,30.978 18.453,31.252 18.792,31.252Z" style="fill:rgb(221,255,251);fill-rule:nonzero;"/>
        <path d="M22.111,32.099C22.449,32.099 22.724,31.825 22.724,31.486C22.724,31.148 22.449,30.873 22.111,30.873C21.772,30.873 21.498,31.148 21.498,31.486C21.498,31.825 21.772,32.099 22.111,32.099Z" style="fill:rgb(221,255,251);fill-rule:nonzero;"/>
        <path d="M22.493,28.055C22.832,28.055 23.106,27.781 23.106,27.442C23.106,27.104 22.832,26.829 22.493,26.829C22.155,26.829 21.88,27.104 21.88,27.442C21.88,27.781 22.155,28.055 22.493,28.055Z" style="fill:rgb(221,255,251);fill-rule:nonzero;"/>
        <path d="M25.708,28.668C26.047,28.668 26.321,28.394 26.321,28.055C26.321,27.717 26.047,27.442 25.708,27.442C25.37,27.442 25.095,27.717 25.095,28.055C25.095,28.394 25.37,28.668 25.708,28.668Z" style="fill:rgb(221,255,251);fill-rule:nonzero;"/>
        <path d="M24.562,25.537C24.9,25.537 25.175,25.263 25.175,24.924C25.175,24.586 24.9,24.311 24.562,24.311C24.223,24.311 23.949,24.586 23.949,24.924C23.949,25.263 24.223,25.537 24.562,25.537Z" style="fill:rgb(221,255,251);fill-rule:nonzero;"/>
        <path d="M19.019,34.771C19.357,34.771 19.632,34.497 19.632,34.158C19.632,33.819 19.357,33.545 19.019,33.545C18.68,33.545 18.406,33.819 18.406,34.158C18.406,34.497 18.68,34.771 19.019,34.771Z" style="fill:rgb(221,255,251);fill-rule:nonzero;"/>
        <path d="M43.991,30.328C44.892,30.328 45.623,29.597 45.623,28.696C45.623,27.795 44.892,27.064 43.991,27.064C43.09,27.064 42.359,27.795 42.359,28.696C42.359,29.597 43.09,30.328 43.991,30.328Z" style="fill:rgb(221,255,251);fill-rule:nonzero;"/>
        <path d="M43.991,28.696C43.991,28.092 44.32,27.566 44.807,27.284C44.567,27.145 44.289,27.064 43.991,27.064C43.09,27.064 42.359,27.795 42.359,28.696C42.359,29.597 43.09,30.328 43.991,30.328C44.289,30.328 44.567,30.247 44.807,30.108C44.32,29.826 43.991,29.3 43.991,28.696Z" style="fill:rgb(170,255,245);fill-rule:nonzero;"/>
        <path d="M40.593,36.809C41.495,36.809 42.225,36.079 42.225,35.177C42.225,34.276 41.495,33.545 40.593,33.545C39.692,33.545 38.961,34.276 38.961,35.177C38.961,36.079 39.692,36.809 40.593,36.809Z" style="fill:rgb(221,255,251);fill-rule:nonzero;"/>
        <path d="M43.992,42.616C44.893,42.616 45.624,41.885 45.624,40.984C45.624,40.083 44.893,39.352 43.992,39.352C43.091,39.352 42.36,40.083 42.36,40.984C42.36,41.885 43.091,42.616 43.992,42.616Z" style="fill:rgb(221,255,251);fill-rule:nonzero;"/>
        <path d="M40.593,35.177C40.593,34.573 40.922,34.047 41.409,33.765C41.169,33.626 40.891,33.545 40.593,33.545C39.692,33.545 38.961,34.276 38.961,35.177C38.961,36.078 39.692,36.809 40.593,36.809C40.891,36.809 41.169,36.728 41.409,36.589C40.922,36.307 40.593,35.781 40.593,35.177Z" style="fill:rgb(170,255,245);fill-rule:nonzero;"/>
        <path d="M43.992,40.984C43.992,40.38 44.321,39.854 44.808,39.572C44.568,39.433 44.289,39.352 43.992,39.352C43.091,39.352 42.36,40.082 42.36,40.984C42.36,41.885 43.091,42.616 43.992,42.616C44.289,42.616 44.568,42.535 44.808,42.396C44.321,42.113 43.992,41.587 43.992,40.984Z" style="fill:rgb(170,255,245);fill-rule:nonzero;"/>
    </g>
</svg>
