<?xml version="1.0" encoding="UTF-8" standalone="no"?>
<!DOCTYPE svg PUBLIC "-//W3C//DTD SVG 1.1//EN" "http://www.w3.org/Graphics/SVG/1.1/DTD/svg11.dtd">
<svg width="100%" height="100%" viewBox="0 0 46 46" version="1.1" xmlns="http://www.w3.org/2000/svg" xmlns:xlink="http://www.w3.org/1999/xlink" xml:space="preserve" xmlns:serif="http://www.serif.com/" style="fill-rule:evenodd;clip-rule:evenodd;stroke-linejoin:round;stroke-miterlimit:2;">
    <path d="M40.106,34.1L12.774,6.769C11.582,5.577 9.65,5.577 8.459,6.769L7.019,8.207C5.827,9.4 5.827,11.332 7.019,12.522L34.35,39.854C35.543,41.046 37.475,41.046 38.665,39.854L40.104,38.415C41.298,37.225 41.298,35.292 40.106,34.1Z" style="fill:rgb(244,67,54);fill-rule:nonzero;"/>
    <path d="M34.35,6.77L7.019,34.101C5.827,35.293 5.827,37.226 7.019,38.416L8.457,39.854C9.65,41.046 11.582,41.046 12.772,39.854L40.106,12.525C41.298,11.333 41.298,9.4 40.106,8.21L38.667,6.772C37.475,5.578 35.543,5.578 34.35,6.77Z" style="fill:rgb(244,67,54);fill-rule:nonzero;"/>
</svg>
