<?xml version="1.0" encoding="UTF-8" standalone="no"?>
<!DOCTYPE svg PUBLIC "-//W3C//DTD SVG 1.1//EN" "http://www.w3.org/Graphics/SVG/1.1/DTD/svg11.dtd">
<svg width="100%" height="100%" viewBox="0 0 46 46" version="1.1" xmlns="http://www.w3.org/2000/svg" xmlns:xlink="http://www.w3.org/1999/xlink" xml:space="preserve" xmlns:serif="http://www.serif.com/" style="fill-rule:evenodd;clip-rule:evenodd;stroke-linejoin:round;stroke-miterlimit:2;">
    <g>
        <path d="M6.125,23.284L45.939,23.284L45.939,41.131C45.939,43.406 44.095,45.25 41.82,45.25L6.125,45.25L6.125,23.284Z" style="fill:rgb(240,219,194);fill-rule:nonzero;"/>
        <path d="M6.125,27.402L39.761,27.402C40.898,27.402 41.82,28.324 41.82,29.462L41.82,39.072C41.82,40.209 40.898,41.131 39.761,41.131L6.125,41.131L6.125,27.402Z" style="fill:rgb(242,185,184);fill-rule:nonzero;"/>
        <path d="M6.125,27.402L39.761,27.402C40.898,27.402 41.82,28.324 41.82,29.462L41.82,39.072C41.82,40.209 40.898,41.131 39.761,41.131L6.125,41.131L6.125,27.402Z" style="fill:rgb(242,185,184);fill-rule:nonzero;"/>
        <path d="M6.125,23.284L30.15,8.869C38.323,8.87 45.156,15.083 45.932,23.219L45.939,23.284L6.125,23.284Z" style="fill:rgb(242,156,155);fill-rule:nonzero;"/>
        <path d="M37.7,16.419C39.975,16.419 41.819,14.575 41.819,12.301C41.819,10.026 39.975,8.182 37.7,8.182C35.426,8.182 33.582,10.026 33.582,12.301C33.582,14.575 35.426,16.419 37.7,16.419Z" style="fill:rgb(240,97,74);fill-rule:nonzero;"/>
        <path d="M39.752,8.731C39.653,11.793 37.194,14.252 34.132,14.351C35.261,16.326 37.777,17.012 39.752,15.884C41.726,14.756 42.413,12.24 41.285,10.265C40.92,9.626 40.391,9.097 39.752,8.731Z" style="fill:rgb(234,82,66);fill-rule:nonzero;"/>
        <path d="M38.386,10.928L37.013,10.928C37.017,7.518 39.781,4.754 43.191,4.75L43.191,6.123C40.538,6.126 38.388,8.276 38.386,10.928Z" style="fill:rgb(150,87,53);fill-rule:nonzero;"/>
        <path d="M31.037,14.159L32.007,13.189L29.948,11.129L28.977,12.1L31.037,14.159Z" style="fill:rgb(150,87,53);fill-rule:nonzero;"/>
        <path d="M22.398,18.277L24.458,16.218L23.487,15.247L21.427,17.306L22.398,18.277Z" style="fill:rgb(150,87,53);fill-rule:nonzero;"/>
        <path d="M26.23,21.025L27.201,20.054L25.142,17.994L24.171,18.965L26.23,21.025Z" style="fill:rgb(150,87,53);fill-rule:nonzero;"/>
        <path d="M28.576,18.279L30.635,16.22L29.665,15.249L27.605,17.308L28.576,18.279Z" style="fill:rgb(150,87,53);fill-rule:nonzero;"/>
        <path d="M40.245,21.023L42.304,18.963L41.333,17.993L39.274,20.052L40.245,21.023Z" style="fill:rgb(150,87,53);fill-rule:nonzero;"/>
        <path d="M32.694,21.024L34.754,18.964L33.783,17.994L31.724,20.053L32.694,21.024Z" style="fill:rgb(150,87,53);fill-rule:nonzero;"/>
        <path d="M17.592,21.027L19.651,18.967L18.681,17.997L16.621,20.056L17.592,21.027Z" style="fill:rgb(150,87,53);fill-rule:nonzero;"/>
        <path d="M31.307,27.402L39.762,27.402C40.899,27.402 41.821,28.324 41.821,29.462L41.821,39.072C41.821,40.209 40.899,41.131 39.762,41.131L15.411,41.131L10.642,45.25L41.821,45.25C44.096,45.25 45.94,43.406 45.94,41.131L45.94,23.284L36.077,23.284L31.307,27.402Z" style="fill:rgb(235,211,183);fill-rule:nonzero;"/>
        <path d="M39.76,41.131C40.898,41.131 41.82,40.209 41.82,39.072L41.82,29.462C41.82,28.324 40.898,27.402 39.76,27.402L31.306,27.402L15.41,41.131L39.76,41.131Z" style="fill:rgb(242,174,172);fill-rule:nonzero;"/>
        <rect x="6.125" y="33.581" width="35.695" height="1.373" style="fill:rgb(242,134,133);fill-rule:nonzero;"/>
    </g>
</svg>
