<svg xmlns="http://www.w3.org/2000/svg" width="468" height="234" fill="none"><style><![CDATA[.B{fill:#fff}.C{fill-rule:evenodd}.D{fill:#fed3a4}.E{fill:#fdc687}.F{fill:#e97f74}.G{fill:#f5a99a}.H{fill:#f3d0b6}.I{fill:#faad72}]]></style><g clip-path="url(#A)"><rect width="468" height="234" rx="9.258" fill="#fbf4f6"/><g clip-path="url(#B)"><path d="M433.196-7.505H273.87v264.11h159.325V-7.505z" fill="#c0a696"/><path d="M471.998-7.835H0v264.108h471.998V-7.835z" fill="#845a46"/><path d="M168.557-15.487H0v279.412h168.557V-15.487z" fill="#c28e76"/><g class="C"><path d="M180.257-7.835c17.717 15.073 35.468 30.146 46.41 41.02 10.974 10.908 15.14 17.618 19.47 26.146 4.33 8.56 8.76 18.94 13.222 29.353.96 1.09 1.42.86 2.248-.165 1.388-1.72 3.834-5.718 5.1-8.198s1.356-3.405 1.09-12.23l-1.256-34.377c-.33-8.892-.33-10.016-4.363-15.668-.595-.86-1.322-1.785-2.083-2.8C255.688 9.386 248.78.76 241.87-7.9h-61.614v.066z" fill="#fee9dd"/><path d="M226.667 33.186c-10.94-10.875-28.692-25.948-46.41-41.02H149.78l22.874 14.147c7.437 4.76 14.842 9.718 22.213 15.106 14.842 10.875 29.386 23.47 43.93 36.03 1.322 1.917 2.61 3.8 3.768 5.818l13.62 20.89c1.52 2.314 2.48 3.768 3.173 4.562-4.43-10.412-8.892-20.79-13.222-29.353-4.297-8.56-8.495-15.27-19.47-26.18z" class="H"/><path d="M138.378 13.22l11.437-21.056h-30.542l-6.28 19.8c-1.256 4.53-1.256 5.917.893 12.56s6.48 18.577 10.776 30.5c-.133-3.504-.066-7.008.33-10.313 1.355-10.578 6.38-19.073 11.14-27.47l2.247-4.033z" fill="#fee9dd"/><path d="M241.837-7.835l18.213 23.138.695-11.8c.132-2.545.132-3.008-.794-4.562-.958-1.554-2.81-4.165-4.694-6.776h-13.42z" class="H"/><g class="D"><path d="M187.695 172.248c-.363 2.214-.99 4.462-2.247 6.776-1.62 3.008-4.297 6.214-9.156 9.652-1.3.925-2.71 1.85-4.298 2.776-7.7 4.53-19.37 9.454-28.493 13.652s-15.767 7.636-20.428 12.66-7.37 11.635-8.594 18.345c-1.223 6.678-.926 13.42-.66 20.164h163.82v-63.53c-6.48-2.347-12.958-4.66-18.6-7.9-5.653-3.206-10.512-7.37-12.958-11.304-2.446-3.967-2.446-7.768-2.446-11.536.033-5.058.132-10.05.33-15.007.66-17.156 2.413-33.65 4.165-50.144-.53 0-1.09.033-1.653.033-.86 8.396-1.85 16.76-3.603 23.238-1.72 6.48-4.165 11.04-12.13 18.544s-21.52 17.95-31.468 24.064c-4.23 2.578-7.8 4.363-11.008 5.388-.165 1.355-.297 2.743-.562 4.132z"/><path d="M149.814-7.835l-13.718 25.122c-4.76 8.396-9.784 16.89-11.14 27.47s.992 23.27 2.182 31.534 1.29 12.197 1.123 16.395c-.198 4.198-.66 8.66 3.967 18.18s14.313 24.03 22.543 35.137c8.198 11.106 14.94 18.742 21.486 21.684 6.578 2.942 13.024 1.157 23.006-4.925 9.983-6.115 23.502-16.56 31.468-24.064s10.38-12.065 12.132-18.544c1.718-6.48 2.743-14.842 3.603-23.237.826-8.396 1.487-16.76.198-23.337-1.322-6.578-4.562-11.305-7.834-16.065-14.544-12.56-29.088-25.155-43.93-36.03s-29.98-20.13-45.087-29.32z"/></g><g fill="#554745"><path d="M177.68 76.256c-.066-.198.595-1.157 1.85-1.322 1.256-.132 3.14.562 6.214 1.1s7.338.925 11.933-.066 9.487-3.305 12.957-5.652c3.438-2.347 5.454-4.727 6.6-5.818s1.455-.926 2.347-.76c.86.132 2.314.23 3.537-.066s2.314-.992 2.975-1.587.926-1.058.562-.562c-.397.496-1.388 1.95-2.7 2.942-1.322 1.025-2.908 1.653-4.098 1.983s-1.917.364-1.917.463c.033.1.826.23 1.652.297s1.653.066 2.512-.23 1.686-.925 1.885-.892c.165.033-.33.66-1.2 1.388-.893.694-2.182 1.454-3.802 2.15s-3.57 1.355-4.528 1.752c-.926.397-.86.53-.265.562s1.72-.066 1.818.066-.86.53-3.107 1.388c-2.28.86-5.884 2.215-9.652 3.24-3.8 1.025-7.735 1.72-11.272 1.72-3.503 0-6.577-.694-8.627-1.322-2.016-.628-3.008-1.2-3.9-1.157-.926-.033-1.72.562-1.785.397zm-21.023 3.9c.264-.033-.43-.595-1.2-.892s-1.62-.364-2.678.33c-1.057.66-2.347 2.05-5.024 3.14s-6.677 1.917-9.454 2.182-4.264 0-5.454-.397c-1.223-.364-2.148-.826-2.8-1.124l-1.4-.595c-.727.595-1.487 1.223-2.313 1.587-.794.364-1.686.496-3.207.397s-3.636-.397-5.817-.694c.793.53 1.553 1.058 2.743 1.454s2.777.694 3.934.727 1.917-.198 2.677-.397l-2.413.992c-.727.264-1.322.397-1.917.53 1.223.264 2.446.496 3.603.53 1.2 0 2.28-.23 3.404-.463-.363.33-.727.66-1.322.925-.628.264-1.487.53-2.38.76 1.85.066 3.736.165 6.942-.23 3.24-.397 7.8-1.3 11.437-2.678 3.636-1.355 6.346-3.206 7.8-4.462s1.72-1.884 2.446-1.95c.86-.132 2.115.364 2.38.33z"/></g><path d="M176.39 62.406c1.62-.66 4.363-1.752 8.13-4s8.627-5.62 12.726-7.603c4.1-1.95 7.47-2.48 11.206-1.785s7.834 2.61 8.164 2.578-3.107-2.05-6.578-3.34c-3.437-1.29-6.908-1.917-10.346-1.454s-6.908 2.016-11.04 3.934l-11.768 5.553c-2.743 1.29-3.404 1.52-3.603 2.578s.1 2.91.496 3.702c.43.793.96.496 2.612-.165z" fill="#794d1c"/><path d="M149.98 67.794c-1.62-.165-4.628-.463-7.67-1.455-3.04-1.025-6.082-2.8-8.495-4.033-2.446-1.223-4.23-1.884-5.454-2.182-1.256-.297-1.917-.23-2.314.463-.397.727-.53 2.05-.53 3.206l.033 2.347c-.1.198-.397-.397-.66-1.653s-.463-3.206-.066-4.495c.397-1.322 1.355-1.983 3.768-1.884s6.28.992 10.05 1.72 7.47 1.322 9.553 2.182 2.512 1.983 2.875 3.008c.364 1.058.628 2.016.66 2.48.067.53-.165.463-1.75.297z" fill="#6b4520"/><g class="E"><path d="M138.346 84.884c2.776-.264 6.776-1.1 9.453-2.182 2.645-1.1 3.934-2.48 5.025-3.14 1.057-.66 1.917-.628 2.677-.33.265.1.53.23.727.364-1.487-1.85-2.942-3.702-5.817-5.454-2.843-1.752-7.107-3.405-10.8-3.868s-6.876.23-8.528.628-1.785.496-1.818 1.72.066 3.537 0 5.42-.33 3.305-.628 4.165c-.2.53-.397.826-.595 1.058v.033c.23-.165.462-.33.66-.53.363.132.727.264 1.388.595.66.297 1.587.76 2.8 1.124 1.2.397 2.677.66 5.454.397zm43.63-18.114c-2.214 2.876-3.24 6.05-4.23 9.222.2-.364.827-.96 1.785-1.058 1.256-.132 3.14.562 6.215 1.1s7.338.925 11.932-.066 9.487-3.305 12.958-5.652c3.438-2.347 5.454-4.727 6.6-5.818-3.768-2.28-7.537-4.56-11.867-5.52-4.33-.992-9.222-.66-13.42.826-4.198 1.42-7.702 4.066-9.983 6.974z"/></g><path d="M156.722 112.32c.23.66 2.545.364 4.727.926 2.182.53 4.43.66 6.677.562 2.248-.133 4.495-.496 6.677-1.653.86-.463 1.686-.992 2.446-1.52l2.48-1.42c1.2-4-11.338-13.156-14.114-12.957-3.835.33-10.346 12.065-8.892 16.064z" fill="#fecd98"/><path d="M168.128 113.807c-2.248.132-4.496 0-6.677-.562-2.182-.53-4.297-1.455-4.727-.926-.397.562.86 2.61 3.24 4.198 2.38 1.62 5.85 2.777 9.057 2.28 3.173-.496 6.082-2.645 8.132-4.86 2.016-2.248 3.14-4.562 2.61-4.76l-2.48 1.42c-.76.53-1.587 1.058-2.446 1.52-2.248 1.2-4.496 1.553-6.7 1.686z" class="I"/><path d="M163.034 135.06l.892-.297c1.124-.364 1.852-.53 3.108-.595l1.818-.067c-.166 0-.364.033-.53.033-.893.067-1.884.166-3.14.397l-2.15.53zm16.693-2.38l-2.546.265-3.24.528 3.438-.528 2.347-.265zm-6.61-5.42c-1.455.265-2.975.86-4.562.96-1.553.066-3.173-.364-4.396-.232s-2.116.893-3.206 2.116c-1.124 1.223-2.447 2.91-3.67 3.768a5.88 5.88 0 0 1-1.454.727c-.364-.165-.66-.33-.96-.396-.793-.265-1.123 0-.958.264.132.23.562.463 1.058.727l.363.2c.066.033.132.066.165.1.728.363 1.455.793 2.447.925.99.166 2.18.066 3.67-.33s3.24-1.124 4.726-1.223c1.52-.1 2.777.462 3.57.628.794.198 1.058 0 1.818-.43.728-.43 1.918-1.058 4.1-1.355l8.793-.794c2.115-.363 4.363-.99 6.18-1.586l2.777-1.025c1.884-.793 1.983-1.124 1.85-1.388s-.43-.463-.694-.43c-.265 0-.496.198-.76.397-.066-.132-.628-.1-1.586 0-1.52.198-4 .595-6.677.363s-5.554-1.1-7.67-1.586-3.47-.628-4.925-.397z" class="F"/><path d="M175.827 133.673c-2.18.297-3.37.925-4.1 1.355s-1.024.595-1.818.43-2.05-.728-3.57-.628-3.24.826-4.726 1.223c-.298.066-.595.165-.893.198-.892.198-1.85.264-2.776.132l1.884 4.264c.694 1.29 1.52 2.38 3.173 3.008 1.686.66 4.264.926 7.173.727 2.876-.165 6.082-.727 8.594-1.388 2.48-.66 4.264-1.42 5.62-2.314 1.356-.925 2.314-1.983 3.075-3.206s1.355-2.644 1.85-3.702c.528-1.058.99-1.752 1.487-2.48l-1.256.396c-1.52.463-3.24.893-4.892 1.2-3.47.562-6.644.496-8.826.794z" class="G"/><path d="M193.944 128.88c.265-.2.53-.397.794-.43.264 0 .595.165.694.43s0 .595-1.85 1.388c-1.884.793-5.554 2.05-8.99 2.61-3.438.595-6.61.53-8.793.794-2.18.297-3.37.925-4.1 1.355s-1.024.595-1.818.43-2.05-.728-3.57-.628-3.24.826-4.726 1.223-2.71.495-3.67.33c-.992-.165-1.72-.562-2.447-.925s-1.42-.728-1.586-1.025.198-.53.958-.265c.794.265 2.017 1.025 3.108 1.356s2.016.23 3.24-.1l4-1.2c1.256-.265 2.247-.2 3.14-.166a23.06 23.06 0 0 0 2.611-.132l2.942-.43 3.438-.53 4.363-.528 4.66-.728a32.06 32.06 0 0 0 3.669-.991c1.09-.364 2.082-.794 2.743-1.124.66-.298.926-.53 1.2-.727z" fill="#92232c"/><path d="M164.625 111.228c2.842 0 5.19-.99 5.19-2.247 0-1.223-2.314-2.248-5.19-2.248-2.843 0-5.2.992-5.2 2.248s2.347 2.247 5.2 2.247z" fill="#ffe3c2"/><path d="M246.632 73.546c1.323 6.578.66 14.974-.198 23.337l1.653-.033c2.016-.066 3.9-.132 5.123-.33 1.554-.23 2.083-.66 2.91-1.983.86-1.322 2.016-3.57 3.206-5.818-.694-.793-1.652-2.248-3.173-4.562L242.6 63.266c1.752 3.04 3.24 6.313 4.032 10.28z" class="I"/><g class="E"><path d="M226.6 61.58c.033-.033.033-.066.066-.066.264-.364.198-.23-.066.066zm8.33 25.684c-1.983 5.487-7.305 11.437-9.85 16.43-2.512 5-2.248 9-2.28 14.775s-.43 13.32-5.156 20.924c-4.76 7.603-13.916 15.238-21.52 19.965-7.636 4.727-13.75 6.512-17.783 6.776-4.066.265-6.083-1.057-8.066-2.677s-3.933-3.504-5.884-5.42c4.165 4.66 8.066 7.933 11.867 9.652 3.8 1.686 7.57 1.818 12 .43 3.24-.992 6.8-2.8 11.007-5.388 9.983-6.115 23.502-16.56 31.468-24.064s10.38-12.065 12.132-18.544c1.718-6.48 2.743-14.842 3.603-23.238.826-8.396 1.487-16.76.198-23.337-.793-3.933-2.28-7.24-4.066-10.247l-3.768-5.818c-14.544-12.56-29.088-25.155-43.93-36.03-7.338-5.388-14.742-10.38-22.213-15.106-1.983-1.256-3.933-2.512-7.768-2.744-3.834-.264-9.486.463-14.213 2.248s-8.528 4.595-12.33 7.437l-2.28 4.066c-4.76 8.396-9.784 16.9-11.14 27.47-.43 3.306-.496 6.8-.33 10.313.33-4.628.628-9.255 2.546-15.536 1.917-6.314 5.42-14.247 9.62-20.164s9.057-9.718 14.808-11.173 12.33-.562 21.188 3.173 19.932 10.28 29.353 17.95c9.42 7.636 17.2 16.362 18.907 22.94 1.356 5.2-1.057 9.057-2.644 11.47.397-.132.727-.033 1.223.033.86.132 2.314.23 3.537-.066s2.314-.992 2.975-1.587l.496-.496c-.397.562-1.4 1.917-2.645 2.876-1.322 1.025-2.9 1.653-4.1 1.983s-1.917.364-1.917.463c.033.1.827.23 1.653.297s1.653.066 2.512-.23 1.686-.925 1.884-.892c.166.033-.33.66-1.2 1.388-.892.694-2.18 1.454-3.8 2.148s-3.57 1.355-4.528 1.752c-.926.397-.86.53-.265.562s1.72-.066 1.818.066-.86.53-3.107 1.388c-2.28.86-5.884 2.215-9.652 3.24-3.8 1.025-7.735 1.72-11.272 1.72-3.504 0-6.578-.694-8.627-1.322-2.016-.628-3.008-1.2-3.9-1.157-.86 0-1.652.595-1.75.463-.034.066-.067.198-.133.496-.132.496-.363 1.487.595 1.62.926.132 3.074-.628 7.206-.297 4.165.33 10.313 1.72 16.594.33s12.627-5.586 18.048-7.173 9.883-.562 12.76 2.446c2.8 2.876 4.1 7.9 2.115 13.42zm-83-5.564c-1.454 1.256-4.165 3.107-7.8 4.462-3.636 1.388-8.23 2.248-11.437 2.677-1.058.132-1.95.198-2.744.264 3.306.066 6.6.132 9.917-.33s6.545-1.42 8.76-2.876 3.34-3.34 4.66-4.066c1.322-.694 2.777-.198 3.372-.264s.33-.76.066-1.454c-.265.033-1.554-.463-2.28-.397-.826.1-1.058.76-2.512 1.983z"/></g><path d="M150.708 5.783c4.727-1.785 10.38-2.512 14.214-2.248s5.784 1.487 7.768 2.744L149.816-7.835 138.38 13.22c3.8-2.843 7.57-5.652 12.33-7.437z" fill="#6b4520"/><path d="M187.993 170.198c6.313-2.347 12.594-4.66 17.52-5.784s8.462-1.025 12.428 2.578 8.33 10.677 11.503 18.676 5.124 16.957 6.876 14.38c1.72-2.58 3.206-16.627 4.528-33.088l3.537-54.078c-.463 2.61-.958 5.057-1.553 7.272-1.72 6.48-4.165 11.04-12.13 18.544-7.934 7.47-21.486 17.916-31.436 24.03-4.23 2.578-7.8 4.363-11.007 5.388-.1.66-.165 1.355-.264 2.082z" class="I"/><g class="E"><path d="M240.55 191.618c-1.42 5.487-4.23 8.43-4.23 8.43s-3.702-6.38-6.875-14.38c-3.173-8.032-7.537-15.106-11.503-18.676-3.967-3.603-7.504-3.67-12.43-2.578-2.6.595-5.62 1.553-8.825 2.644-1.62 11.106-3.207 22.213-8.33 30.675-5.1 8.43-13.685 14.214-21.684 17.188s-15.47 3.14-22.94 3.306c10.842 4.925 21.65 9.883 29.518 15.7 7.9 5.818 12.825 12.528 15.8 16.428 2.975 3.868 4.033 4.925 5.024 5.983h83.563v-21.915l11.106 13.916 6.248 7.966h41.054c-24.46-37.484-23.932-55.433-48.393-61.085l-9.982-2.446v3.67c-3.04-.727-5.983-1.653-10.644-3.67-23.6-10.247-25.022-6.677-26.477-1.157zm-66-45.153c-1.224-.066-2.7.165-3.77.595-1.057.397-1.752.992-2.347 1.653-.595.628-1.124 1.322.728 1.388s6.115-.53 7.966-1.1c1.85-.595 1.256-1.2.463-1.653-.827-.495-1.818-.826-3.04-.892z"/></g><g class="H"><path d="M122.942 37.78c-.066-1.85-.132-7.735 1.058-13.784 1.223-6.05 3.735-12.296 3.405-12.726s-3.504 5-5.355 9.388c-1.85 4.43-2.446 7.867-3.272 9.288-.86 1.388-1.984.76-3.075-1.3s-2.18-5.454-3.24-8.86c.265 1.256.727 2.777 1.355 4.727 2.15 6.644 6.48 18.577 10.776 30.5-.132-3.504-.066-7.008.33-10.313 1.355-10.577 6.38-19.073 11.14-27.47l2.28-4.066L149.78-7.882h-9.454L125.85 29.186c-2.842 8.33-2.842 10.445-2.9 8.594zM258.795 77.7c-1.62 1.355-2.9.595-4.198-.132l4.793 11.14c.958 1.1 1.42.86 2.247-.165 1.4-1.72 3.835-5.72 5.1-8.198s1.355-3.405 1.1-12.23l-1.256-34.377c-.33-8.892-.33-10.016-4.364-15.668-.33-.43-.66-.925-1.057-1.42 1.586 2.9 3.206 5.85 4.098 8.693s1.124 5.62.463 7.867c-.628 2.248-2.115 4-3.768 3.8s-3.537-2.347-3.372-1.785c.133.562 2.28 3.834 3.372 6.94 1.058 3.107 1.058 6.115.793 6.776-.297.66-.86-1.025-6.412-7.9-5.554-6.842-16.098-18.874-23.998-25.98-7.933-7.14-13.255-9.355-13.156-9.1s5.586 3.074 12.76 10.016c7.206 6.942 16.065 18.015 21.75 27.6s8.198 17.717 8.495 23.47c.2 5.85-1.752 9.288-3.37 10.644z"/></g><path d="M141.75 120.616c-1.025-1.752-2.513-3.438-4.1-5.157l-4.23-4.99c-2.512-3.603-3.835-7.603-5.157-11.602.364 2.975 1.355 6.7 3.9 12 4.627 9.52 14.312 24.03 22.543 35.137-3.47-4.958-6.94-9.917-8.826-14.18-1.85-4.264-2.115-7.834-4.13-11.205z" fill="#fecd98"/><g class="D"><path d="M79.703 221.433c30.212 0 54.838-24.626 54.838-54.805s-24.626-54.805-54.838-54.805-54.87 24.626-54.87 54.805 24.66 54.805 54.87 54.805z"/><path d="M79.706 213.6c25.915 0 47.037-21.09 47.037-46.97s-21.122-46.97-47.037-46.97-47.037 21.09-47.037 46.97S53.79 213.6 79.706 213.6z"/></g><g class="B"><path d="M79.703 119.657c25.98 0 47.004 21.023 47.004 46.97S105.65 213.6 79.703 213.6c-25.98 0-47.037-21.023-47.037-46.97s21.056-46.97 47.037-46.97zm54.838 46.97c0-30.245-24.56-54.805-54.838-54.805s-54.87 24.527-54.87 54.805c0 30.245 24.56 54.805 54.87 54.805s54.838-24.56 54.838-54.805z"/></g></g><path d="M121.09 130.665l-.86-.992.43-.397 36.592-31.964.86.992-36.59 31.964-.43.397z" class="B"/><g class="C"><g class="D"><path d="M277.638 196.444c6.38 1.752 12.726 3.504 19.14 8.297s12.825 12.627 18.84 21.717c5.983 9.1 11.536 19.47 17.056 29.848h3.372c-24.46-37.484-23.932-55.433-48.393-61.085l-9.982-2.446v3.67h-.033zM281.8 158.3c-4.86-18.148 5.916-36.8 24.097-41.65s36.823 5.917 41.715 24.064c4.86 18.147-5.917 36.8-24.097 41.65S286.66 176.446 281.8 158.3z"/></g><g class="B"><path d="M281.8 158.298c-4.86-18.147 5.917-36.8 24.097-41.65s36.823 5.917 41.715 24.064c4.86 18.147-5.917 36.8-24.097 41.65s-36.856-5.916-41.715-24.064zm22.6-47.136c-21.188 5.686-33.782 27.436-28.096 48.6s27.468 33.716 48.656 28.063c21.2-5.685 33.782-27.435 28.097-48.6S325.597 105.5 304.4 111.15zm-97.576.098c-3.834 1.025-6.082 4.96-5.1 8.76a7.19 7.19 0 0 0 8.792 5.057c3.835-1.024 6.082-4.958 5.058-8.792-1.025-3.802-4.958-6.05-8.76-5.025zm-4.1 8.495a6.17 6.17 0 0 1 4.364-7.536c3.272-.893 6.644 1.058 7.536 4.33s-1.058 6.644-4.363 7.537-6.677-1.025-7.537-4.33z"/></g></g><path d="M275.62 141.738l-60.127-21.717.463-1.256 60.126 21.717-.462 1.256z" class="B"/><g class="C"><path d="M96.1 32.46c4.826 18.015-5.884 36.526-23.9 41.32-18.015 4.86-36.526-5.85-41.385-23.833-4.826-18.015 5.884-36.492 23.9-41.32 18.048-4.86 36.56 5.818 41.385 23.833z" class="D"/><g class="B"><path d="M94.05 33.02c4.53 16.858-5.487 34.212-22.378 38.707-16.9 4.528-34.245-5.487-38.773-22.345s5.487-34.212 22.378-38.707C72.17 6.147 89.522 16.163 94.05 33.02zM73.028 76.818c19.7-5.256 31.402-25.485 26.113-45.153S73.623.33 53.922 5.585 22.52 31.07 27.8 50.738s25.518 31.336 45.22 26.08zm82.505-28.46a7.2 7.2 0 0 0 5.1-8.793 7.19 7.19 0 0 0-8.792-5.057 7.19 7.19 0 0 0-5.09 8.76c1.058 3.834 5 6.115 8.793 5.1zm4.1-8.528a6.17 6.17 0 0 1-4.364 7.536c-3.305.892-6.677-1.058-7.536-4.33a6.17 6.17 0 0 1 4.363-7.537c3.306-.892 6.677 1.058 7.537 4.33z"/></g></g><path d="M147.692 42.355l-47.476 1.425.04 1.322 47.476-1.425-.04-1.322z" class="B"/><g class="C"><g fill="#3f3d3d"><path d="M68.27 139.027a1.61 1.61 0 0 0 1.587-1.586 1.61 1.61 0 0 0-1.587-1.587 1.61 1.61 0 0 0-1.587 1.587 1.61 1.61 0 0 0 1.587 1.586zm17.683 11.503a1.61 1.61 0 0 0 1.587-1.587 1.61 1.61 0 0 0-1.587-1.587 1.59 1.59 0 0 0-1.587 1.587c0 .892.694 1.587 1.587 1.587zm4.727-14.84c.86 0 1.587-.694 1.587-1.587a1.61 1.61 0 0 0-1.587-1.586 1.61 1.61 0 0 0-1.587 1.586c0 .893.694 1.587 1.587 1.587zm17.65 17.485c.86 0 1.586-.694 1.586-1.587 0-.86-.694-1.586-1.586-1.586-.86 0-1.587.694-1.587 1.586a1.61 1.61 0 0 0 1.587 1.587zm-10.512 22.477a1.61 1.61 0 0 0 1.587-1.586c0-.86-.694-1.587-1.587-1.587-.86 0-1.587.694-1.587 1.587.033.86.727 1.586 1.587 1.586zm18.68-.925c.86 0 1.586-.694 1.586-1.587s-.727-1.587-1.586-1.587a1.59 1.59 0 0 0-1.587 1.587c0 .892.694 1.587 1.587 1.587zm-12.893 21.056c.86 0 1.586-.695 1.586-1.587a1.61 1.61 0 0 0-1.586-1.587c-.86 0-1.587.694-1.587 1.587.033.892.727 1.587 1.587 1.587zm-27.8-13.255a1.61 1.61 0 0 0 1.587-1.587c0-.86-.694-1.587-1.587-1.587a1.61 1.61 0 0 0-1.587 1.587 1.61 1.61 0 0 0 1.587 1.587zm-19.006-19.635a1.61 1.61 0 0 0 1.587-1.587 1.61 1.61 0 0 0-1.587-1.586 1.61 1.61 0 0 0-1.587 1.586c.033.893.727 1.587 1.587 1.587zm-12.494-13.42c.86 0 1.587-.694 1.587-1.587 0-.86-.694-1.586-1.587-1.586s-1.587.727-1.587 1.586c.033.893.727 1.587 1.587 1.587zm-2.28 30.94a1.61 1.61 0 0 0 1.587-1.586c0-.86-.694-1.587-1.587-1.587s-1.587.694-1.587 1.587c.033.892.727 1.586 1.587 1.586zm17.322 16.958c.86 0 1.587-.694 1.587-1.586a1.61 1.61 0 0 0-1.587-1.587c-.86 0-1.587.694-1.587 1.587.033.892.727 1.586 1.587 1.586zm23.633 10.312a1.61 1.61 0 0 0 1.587-1.586 1.61 1.61 0 0 0-1.587-1.587 1.61 1.61 0 0 0-1.587 1.587c0 .86.694 1.586 1.587 1.586z"/></g><g class="E"><path d="M74.978 20.427c-5.785.132-14.412.132-20.66-.066-6.214-.198-10.016-.562-13.85-.926-.826.892-1.62 1.818-2.347 2.8 11.305-.264 22.6-.53 31.237-.264s14.577 1.025 20.527 1.818a31.71 31.71 0 0 0-3.173-4.033c-2.975.264-5.917.53-11.734.66zm18.6 11.106c-4.1.826-8.198 1.653-15.57 1.983-7.37.364-18.048.23-26.014-.297s-13.222-1.454-18.478-2.38c-.33.992-.66 2.05-.892 3.074 2.9-.132 5.818-.298 11.47-.066L65.5 34.905c7.272.165 13.42-.165 18.114-.033s7.9.694 11.106 1.256a34.72 34.72 0 0 0-.661-3.107c-.132-.496-.297-.992-.463-1.487zm.958 15.7l-22.014-.297-25.188-.397c-7.008-.33-11.172-.992-15.337-1.62.132.992.297 1.983.496 2.975l33.947-.463c10.28.132 19.04.66 27.766 1.2.132-.463.23-.925.33-1.388zM90.15 58.242c-.066.066-.132.132-3.735.1l-18.246-.198c-7.305-.033-14.676.066-19.998-.066a127.06 127.06 0 0 1-11.966-.826c.53.893 1.1 1.785 1.72 2.6 9.916-.463 19.833-.925 28.262-.76 8.396.165 15.27.925 22.147 1.72.628-.826 1.223-1.686 1.818-2.578-.033 0-.033 0 0 0z"/></g><path d="M312.313 128.318c1.785 0 3.24-1.455 3.24-3.24s-1.455-3.207-3.24-3.207a3.24 3.24 0 0 0-3.239 3.207c0 1.784 1.454 3.24 3.24 3.24z" class="G"/><path d="M312.3 126.665c.86 0 1.587-.694 1.587-1.587 0-.86-.694-1.586-1.587-1.586s-1.586.727-1.586 1.586c0 .893.694 1.587 1.586 1.587z" class="F"/><path d="M334.095 165.802c1.785 0 3.24-1.454 3.24-3.24s-1.455-3.24-3.24-3.24-3.24 1.455-3.24 3.24 1.454 3.24 3.24 3.24z" class="G"/><path d="M334.095 164.15c.86 0 1.586-.694 1.586-1.587s-.694-1.586-1.586-1.586-1.587.694-1.587 1.586.694 1.587 1.587 1.587z" class="F"/><path d="M293.14 162.298c1.785 0 3.24-1.454 3.24-3.24s-1.455-3.207-3.24-3.207a3.24 3.24 0 0 0-3.239 3.207c.033 1.785 1.487 3.24 3.24 3.24z" class="G"/><path d="M293.14 160.645c.86 0 1.587-.694 1.587-1.586 0-.86-.694-1.587-1.587-1.587a1.61 1.61 0 0 0-1.586 1.587c.033.892.727 1.586 1.586 1.586z" class="F"/><path d="M170.672 95.693c0-3.967-3.206-7.173-7.173-7.173a7.17 7.17 0 0 0-7.173 7.173 7.19 7.19 0 0 0 7.173 7.173c3.934-.034 7.173-3.24 7.173-7.173zm-7.206-6.148c3.405 0 6.148 2.744 6.148 6.148s-2.743 6.148-6.148 6.148a6.14 6.14 0 0 1-6.148-6.148 6.16 6.16 0 0 1 6.148-6.148z" class="B"/><path d="M175.332 138.267c-.86-.33-4.33-.1-6.544.1-2.248.165-3.24.265-3.77.562-.562.298-.694.793.66 1.124 1.356.298 4.198.397 6.48-.033s4.033-1.388 3.173-1.752z" fill="#fcd7cc"/></g><g class="B"><path d="M314.693 192.477c-23.733 0-43.037-19.27-43.037-42.97s19.304-42.97 43.037-42.97 43.037 19.27 43.037 42.97-19.304 42.97-43.037 42.97zm0-84.653c-23.006 0-41.715 18.676-41.715 41.65s18.7 41.65 41.715 41.65 41.715-18.676 41.715-41.65c0-22.94-18.7-41.65-41.715-41.65zM63.476 82.14c-22.6 0-40.988-18.38-40.988-40.955S40.866.23 63.476.23s40.988 18.378 40.988 40.955C104.43 63.762 86.052 82.14 63.476 82.14zm0-80.555C41.593 1.585 23.8 19.37 23.8 41.218S41.593 80.85 63.476 80.85c21.85 0 39.665-17.783 39.665-39.633S85.325 1.585 63.476 1.585zM79.704 224.74c-32.096 0-58.2-26.08-58.2-58.1 0-32.063 26.113-58.143 58.2-58.143s58.176 26.08 58.176 58.143-26.08 58.1-58.176 58.1zm0-114.932c-31.37 0-56.887 25.485-56.887 56.82 0 31.303 25.518 56.788 56.887 56.788s56.854-25.485 56.854-56.788c0-31.336-25.485-56.82-56.854-56.82z"/></g><g fill="#000"><path d="M49.35 46H47.9L46 42.384c-.235-.437-.512-.736-.832-.896-.3-.17-.736-.256-1.28-.256h-2.112V46H40.47V34.72h4.64c1.227 0 2.16.272 2.8.816.65.544.976 1.344.976 2.4 0 .875-.25 1.584-.752 2.128-.5.533-1.195.87-2.112 1.008a1.83 1.83 0 0 1 .752.432c.224.203.427.475.608.816L49.35 46zm-4.352-5.856c.875 0 1.525-.18 1.952-.544.437-.363.656-.912.656-1.648 0-.725-.213-1.264-.64-1.616s-1.083-.528-1.968-.528h-3.232v4.336h3.232zm12.8-1.936V46h-1.264v-1.328c-.245.47-.592.827-1.04 1.072a2.99 2.99 0 0 1-1.488.368c-.928 0-1.627-.256-2.096-.768-.47-.523-.704-1.3-.704-2.304v-4.832h1.296v4.8c0 .693.14 1.205.416 1.536.277.32.715.48 1.312.48.683 0 1.232-.22 1.648-.656.416-.448.624-1.035.624-1.76v-4.4h1.296zm9.385 0v7.264c0 1.163-.3 2.037-.896 2.624-.597.597-1.483.896-2.656.896-1.365 0-2.512-.352-3.44-1.056l.432-.96c.523.34 1.013.587 1.472.736s.97.224 1.536.224c.747 0 1.312-.203 1.696-.608.384-.395.576-.976.576-1.744v-1.376a2.43 2.43 0 0 1-1.04 1.152c-.46.267-1.003.4-1.632.4-.683 0-1.3-.16-1.824-.48-.523-.32-.933-.773-1.232-1.36-.288-.587-.432-1.264-.432-2.032s.144-1.445.432-2.032c.3-.587.7-1.04 1.232-1.36.533-.32 1.14-.48 1.824-.48.62 0 1.157.133 1.616.4s.805.645 1.04 1.136v-1.344h1.296zm-3.696 6.48c.747 0 1.333-.245 1.76-.736.427-.5.64-1.2.64-2.064 0-.864-.213-1.54-.64-2.032-.416-.5-1.003-.752-1.76-.752s-1.355.25-1.792.752c-.427.5-.64 1.168-.64 2.032 0 .875.213 1.563.64 2.064.437.5 1.035.736 1.792.736zm10.015-6.672c1.867 0 2.8 1.03 2.8 3.088V46h-1.296v-4.816c0-.725-.144-1.253-.432-1.584-.277-.33-.725-.496-1.344-.496-.715 0-1.285.22-1.712.656s-.64 1.03-.64 1.776V46H69.6V34.72h1.296v4.736c.256-.47.608-.827 1.056-1.072.46-.245.98-.368 1.568-.368zm11.702 4.288h-5.696c.043.907.288 1.595.736 2.064.448.46 1.083.688 1.904.688.907 0 1.74-.3 2.496-.928l.432.944c-.34.32-.78.576-1.312.768a5.04 5.04 0 0 1-1.632.272c-1.216 0-2.176-.357-2.88-1.072-.693-.715-1.04-1.7-1.04-2.96 0-.8.155-1.504.464-2.112.3-.62.74-1.1 1.296-1.44.565-.34 1.205-.512 1.92-.512 1.035 0 1.845.34 2.432 1.024.587.672.88 1.6.88 2.784v.48zm-3.296-3.28c-.683 0-1.232.213-1.648.64-.405.427-.645 1.03-.72 1.808h4.528c-.02-.8-.22-1.392-.592-1.808-.373-.427-.896-.64-1.568-.64zm217.937 110.184c.65.17 1.152.5 1.504.96.362.47.544 1.056.544 1.76 0 .992-.326 1.755-.976 2.288-.65.523-1.574.784-2.768.784h-4.704v-11.28h4.528c1.162 0 2.064.256 2.704.768s.96 1.237.96 2.176c0 .608-.16 1.13-.48 1.568-.3.437-.747.763-1.312.976zm-5.104-.48h3.04c.842 0 1.477-.17 1.904-.512.437-.34.656-.837.656-1.488 0-1.28-.854-1.92-2.56-1.92h-3.04v3.92zm3.28 5.184c.885 0 1.536-.16 1.952-.48.426-.33.64-.843.64-1.536 0-1.387-.864-2.08-2.592-2.08h-3.28v4.096h3.28zm10.43-5.776l-.848.08c-.8.075-1.382.325-1.744.752-.352.427-.528.955-.528 1.584V155h-1.296v-7.792h1.264v1.36c.437-.907 1.296-1.413 2.576-1.52l.464-.032.112 1.12zm7.784-.928V155h-1.264v-1.328a2.52 2.52 0 0 1-1.04 1.072 2.99 2.99 0 0 1-1.488.368c-.928 0-1.626-.256-2.096-.768-.47-.523-.704-1.3-.704-2.304v-4.832h1.296v4.8c0 .693.14 1.205.416 1.536.278.32.715.48 1.312.48.683 0 1.232-.22 1.648-.656.416-.448.624-1.035.624-1.76v-4.4h1.296zm4.137 0h2.208v1.024h-2.208V155h-1.296v-6.768h-1.52v-1.024h1.52v-.256c0-1.035.256-1.82.768-2.352.523-.533 1.323-.832 2.4-.896l.64-.032.096 1.008-.736.048c-.65.043-1.125.23-1.424.56-.3.32-.448.816-.448 1.488v.432zm6.676 7.904c-.736 0-1.387-.165-1.952-.496a3.38 3.38 0 0 1-1.296-1.408c-.3-.62-.448-1.333-.448-2.144s.15-1.52.448-2.128c.3-.62.74-1.093 1.296-1.424.565-.33 1.216-.496 1.952-.496s1.387.165 1.952.496.997.805 1.296 1.424c.3.608.464 1.317.464 2.128s-.155 1.525-.464 2.144c-.3.608-.73 1.077-1.296 1.408s-1.216.496-1.952.496zm0-1.072c.768 0 1.355-.25 1.76-.752.416-.512.624-1.253.624-2.224 0-.95-.208-1.68-.624-2.192-.416-.523-1.003-.784-1.76-.784s-1.344.26-1.76.784c-.416.512-.624 1.243-.624 2.192 0 .96.203 1.696.608 2.208.416.512 1.008.768 1.776.768zm5.643.96v-11.28h1.296V155H332.7zm3.72 0v-7.792h1.296V155h-1.296zm-.128-11.168h1.568v1.456h-1.568v-1.456zM68.012 172l-1.56-3.62h-7.36l-1.56 3.62h-1.68l6.2-14.1h1.42l6.2 14.1h-1.66zm-8.34-4.98h6.2l-3.1-7.22-3.1 7.22zm15.97 5.12c-.96 0-1.793-.207-2.5-.62a4.21 4.21 0 0 1-1.64-1.74c-.373-.76-.56-1.647-.56-2.66s.193-1.9.58-2.66a4.43 4.43 0 0 1 1.66-1.8c.72-.427 1.56-.64 2.52-.64a5.33 5.33 0 0 1 1.92.36c.627.227 1.133.533 1.52.92l-.54 1.2c-.92-.747-1.853-1.12-2.8-1.12-1 0-1.78.327-2.34.98s-.84 1.573-.84 2.76c0 1.173.28 2.08.84 2.72s1.34.96 2.34.96c.947 0 1.88-.373 2.8-1.12l.54 1.2c-.413.387-.933.693-1.56.92s-1.273.34-1.94.34zm10.35-10.12c2.333 0 3.5 1.287 3.5 3.86V172h-1.62v-6.02c0-.907-.18-1.567-.54-1.98-.347-.413-.907-.62-1.68-.62-.893 0-1.607.273-2.14.82s-.8 1.287-.8 2.22V172h-1.62v-9.74h1.6v1.6a3.22 3.22 0 0 1 1.34-1.36c.573-.32 1.227-.48 1.96-.48zm14.627 5.36H93.5c.053 1.133.36 1.993.92 2.58.56.573 1.353.86 2.38.86 1.133 0 2.173-.387 3.12-1.16l.54 1.18c-.427.4-.973.72-1.64.96a6.29 6.29 0 0 1-2.04.34c-1.52 0-2.72-.447-3.6-1.34-.867-.893-1.3-2.127-1.3-3.7 0-1 .193-1.88.58-2.64a4.34 4.34 0 0 1 1.62-1.8c.707-.427 1.507-.64 2.4-.64 1.293 0 2.307.427 3.04 1.28.733.84 1.1 2 1.1 3.48v.6zm-4.12-4.1c-.853 0-1.54.267-2.06.8-.507.533-.807 1.287-.9 2.26h5.66c-.027-.987-.273-1.74-.74-2.26-.467-.533-1.12-.8-1.96-.8z"/></g></g></g><defs><clipPath id="A"><rect width="468" height="234" rx="9.258" class="B"/></clipPath><clipPath id="B"><path d="M0-8h472v264.274H0z" class="B"/></clipPath></defs></svg>