<?xml version="1.0" encoding="UTF-8" standalone="no"?>
<!DOCTYPE svg PUBLIC "-//W3C//DTD SVG 1.1//EN" "http://www.w3.org/Graphics/SVG/1.1/DTD/svg11.dtd">
<svg width="100%" height="100%" viewBox="0 0 468 234" version="1.1" xmlns="http://www.w3.org/2000/svg" xmlns:xlink="http://www.w3.org/1999/xlink" xml:space="preserve" xmlns:serif="http://www.serif.com/" style="fill-rule:evenodd;clip-rule:evenodd;stroke-linejoin:round;stroke-miterlimit:2;">
    <g>
        <path d="M468,9.258C468,4.149 463.851,0 458.742,0L9.258,0C4.149,0 0,4.149 0,9.258L0,224.742C0,229.851 4.149,234 9.258,234L458.742,234C463.851,234 468,229.851 468,224.742L468,9.258Z" style="fill:rgb(251,244,246);"/>
        <g>
            <rect x="273.871" y="-7.505" width="159.324" height="264.109" style="fill:rgb(192,166,150);fill-rule:nonzero;"/>
            <rect x="0" y="-7.835" width="471.998" height="264.108" style="fill:rgb(132,90,70);fill-rule:nonzero;"/>
            <rect x="0" y="-15.487" width="168.557" height="279.412" style="fill:rgb(194,142,118);fill-rule:nonzero;"/>
            <path d="M180.257,-7.835C197.974,7.238 215.725,22.311 226.666,33.186C237.64,44.094 241.805,50.804 246.135,59.332C250.465,67.893 254.895,78.273 259.357,88.685C260.316,89.776 260.778,89.544 261.605,88.52C262.993,86.801 265.439,82.801 266.695,80.322C267.951,77.843 268.05,76.917 267.786,68.092C267.489,59.299 266.861,42.606 266.53,33.715C266.199,24.823 266.199,23.699 262.167,18.047C261.572,17.187 260.845,16.262 260.084,15.237C255.688,9.386 248.78,0.759 241.871,-7.901L180.257,-7.901L180.257,-7.835Z" style="fill:rgb(254,233,221);"/>
            <path d="M226.667,33.186C215.726,22.311 197.975,7.238 180.258,-7.835L149.781,-7.835C157.417,-3.208 165.053,1.453 172.655,6.312C180.093,11.072 187.497,16.03 194.868,21.418C209.71,32.293 224.254,44.887 238.798,57.448C240.12,59.365 241.409,61.249 242.566,63.266L256.185,84.156C257.705,86.47 258.664,87.925 259.358,88.718C254.929,78.306 250.466,67.927 246.136,59.365C241.839,50.804 237.641,44.094 226.667,33.186Z" style="fill:rgb(243,208,182);"/>
            <path d="M138.378,13.221C142.312,6.18 146.047,-0.828 149.815,-7.835L119.273,-7.835C116.761,-0.2 114.248,7.436 112.992,11.965C111.736,16.493 111.736,17.882 113.885,24.526C116.033,31.17 120.364,43.102 124.661,55.035C124.528,51.531 124.595,48.028 124.991,44.722C126.346,34.144 131.371,25.649 136.131,17.253C136.858,15.931 137.618,14.576 138.378,13.221Z" style="fill:rgb(254,233,221);"/>
            <path d="M241.837,-7.835C248.746,0.792 255.654,9.452 260.051,15.303C260.315,10.676 260.613,6.048 260.745,3.503C260.877,0.957 260.877,0.495 259.951,-1.059C258.993,-2.613 257.142,-5.224 255.258,-7.835L241.837,-7.835Z" style="fill:rgb(243,208,182);"/>
            <path d="M187.696,172.248C187.332,174.462 186.704,176.71 185.448,179.024C183.828,182.032 181.151,185.238 176.292,188.676C175.003,189.601 173.581,190.527 171.995,191.452C164.293,195.981 152.624,200.906 143.501,205.104C134.378,209.302 127.734,212.74 123.073,217.764C118.413,222.788 115.702,229.399 114.479,236.109C113.256,242.787 113.554,249.53 113.818,256.273L277.638,256.273L277.638,218.723L277.638,192.742C271.159,190.395 264.68,188.081 259.028,184.841C253.376,181.635 248.516,177.47 246.07,173.537C243.624,169.57 243.624,165.769 243.624,162.001C243.657,156.943 243.757,151.952 243.955,146.994C244.616,129.838 246.368,113.344 248.12,96.85C247.591,96.85 247.029,96.882 246.467,96.882C245.608,105.278 244.616,113.641 242.864,120.12C241.145,126.599 238.699,131.16 230.733,138.664C222.767,146.167 209.214,156.613 199.265,162.728C195.034,165.306 191.464,167.091 188.257,168.116C188.092,169.471 187.96,170.859 187.696,172.248Z" style="fill:rgb(254,211,164);"/>
            <path d="M149.814,-7.835C145.319,0.528 140.856,8.857 136.096,17.287C131.337,25.682 126.312,34.178 124.957,44.755C123.602,55.333 125.949,68.026 127.139,76.289C128.329,84.553 128.428,88.487 128.262,92.685C128.064,96.882 127.601,101.345 132.229,110.865C136.857,120.385 146.542,134.896 154.772,146.002C162.97,157.108 169.713,164.744 176.258,167.686C182.836,170.628 189.282,168.843 199.264,162.761C209.247,156.646 222.766,146.2 230.732,138.697C238.699,131.193 241.112,126.632 242.864,120.153C244.582,113.674 245.607,105.311 246.466,96.916C247.293,88.52 247.954,80.157 246.665,73.579C245.343,67.001 242.103,62.274 238.831,57.514C224.287,44.953 209.743,32.359 194.901,21.484C180.059,10.609 164.92,1.354 149.814,-7.835Z" style="fill:rgb(254,211,164);"/>
            <path d="M177.681,76.256C177.615,76.058 178.276,75.099 179.532,74.934C180.788,74.802 182.672,75.496 185.746,76.025C188.82,76.554 193.084,76.95 197.679,75.959C202.274,74.967 207.166,72.653 210.636,70.306C214.074,67.96 216.09,65.58 217.247,64.489C218.404,63.398 218.702,63.563 219.594,63.728C220.454,63.861 221.908,63.96 223.131,63.662C224.354,63.365 225.445,62.671 226.106,62.076C226.767,61.481 227.032,61.018 226.668,61.514C226.271,62.01 225.28,63.464 223.958,64.456C222.635,65.48 221.049,66.109 219.859,66.439C218.669,66.77 217.942,66.803 217.942,66.902C217.975,67.001 218.768,67.133 219.594,67.199C220.421,67.265 221.247,67.265 222.106,66.968C222.966,66.67 223.792,66.042 223.991,66.075C224.156,66.109 223.66,66.737 222.801,67.464C221.908,68.158 220.619,68.918 218.999,69.612C217.38,70.306 215.429,70.968 214.471,71.364C213.545,71.761 213.611,71.893 214.206,71.926C214.801,71.959 215.925,71.86 216.024,71.992C216.124,72.124 215.165,72.521 212.917,73.381C210.636,74.24 207.033,75.595 203.265,76.62C199.464,77.645 195.53,78.339 191.994,78.339C188.49,78.339 185.416,77.645 183.366,77.017C181.35,76.388 180.358,75.827 179.466,75.86C178.54,75.827 177.747,76.422 177.681,76.256Z" style="fill:rgb(85,71,69);"/>
            <path d="M156.657,80.157C156.921,80.124 156.227,79.562 155.467,79.264C154.707,78.967 153.847,78.901 152.79,79.595C151.732,80.256 150.443,81.644 147.765,82.735C145.088,83.826 141.088,84.652 138.312,84.917C135.535,85.181 134.048,84.917 132.858,84.52C131.635,84.156 130.709,83.694 130.048,83.396C129.387,83.099 129.023,82.966 128.66,82.801C127.932,83.396 127.172,84.024 126.346,84.388C125.552,84.751 124.66,84.884 123.139,84.784C121.619,84.685 119.503,84.388 117.322,84.09C118.115,84.619 118.875,85.148 120.065,85.545C121.255,85.941 122.842,86.239 123.999,86.272C125.156,86.305 125.916,86.074 126.676,85.875C125.817,86.239 124.991,86.602 124.263,86.867C123.536,87.131 122.941,87.263 122.346,87.396C123.569,87.66 124.792,87.892 125.949,87.925C127.139,87.925 128.23,87.693 129.354,87.462C128.99,87.792 128.627,88.123 128.032,88.387C127.404,88.652 126.544,88.916 125.652,89.148C127.503,89.214 129.387,89.313 132.593,88.916C135.832,88.52 140.394,87.627 144.03,86.239C147.666,84.884 150.377,83.033 151.831,81.776C153.285,80.52 153.55,79.892 154.277,79.826C155.137,79.694 156.393,80.19 156.657,80.157Z" style="fill:rgb(85,71,69);"/>
            <path d="M176.391,62.406C178.01,61.745 180.754,60.654 184.522,58.407C188.29,56.159 193.149,52.787 197.248,50.804C201.347,48.854 204.719,48.325 208.454,49.019C212.189,49.713 216.288,51.631 216.618,51.597C216.949,51.564 213.511,49.548 210.04,48.259C206.603,46.97 203.132,46.342 199.694,46.804C196.256,47.267 192.786,48.821 188.654,50.738C184.489,52.655 179.663,55.002 176.886,56.291C174.143,57.58 173.482,57.812 173.283,58.87C173.085,59.927 173.383,61.778 173.779,62.572C174.209,63.365 174.738,63.067 176.391,62.406Z" style="fill:rgb(121,77,28);"/>
            <path d="M149.979,67.794C148.359,67.629 145.351,67.331 142.31,66.34C139.269,65.315 136.228,63.53 133.815,62.307C131.369,61.084 129.584,60.423 128.361,60.125C127.105,59.828 126.444,59.894 126.047,60.588C125.65,61.315 125.518,62.638 125.518,63.795C125.518,64.951 125.65,65.943 125.551,66.141C125.452,66.34 125.154,65.745 124.89,64.489C124.626,63.233 124.427,61.282 124.824,59.993C125.221,58.671 126.179,58.01 128.592,58.109C131.005,58.208 134.873,59.101 138.641,59.828C142.409,60.555 146.111,61.15 148.194,62.01C150.276,62.869 150.706,63.993 151.069,65.018C151.433,66.075 151.697,67.034 151.731,67.497C151.797,68.025 151.565,67.959 149.979,67.794Z" style="fill:rgb(107,69,32);"/>
            <path d="M138.346,84.884C141.122,84.619 145.122,83.793 147.8,82.702C150.444,81.611 151.733,80.223 152.824,79.562C153.882,78.901 154.741,78.934 155.501,79.231C155.766,79.331 156.03,79.463 156.229,79.595C154.741,77.744 153.287,75.893 150.411,74.141C147.568,72.389 143.304,70.736 139.602,70.273C135.9,69.811 132.727,70.505 131.074,70.902C129.421,71.298 129.289,71.397 129.256,72.62C129.223,73.843 129.322,76.157 129.256,78.041C129.19,79.925 128.925,81.347 128.628,82.206C128.429,82.735 128.231,83.033 128.033,83.264L128.033,83.297C128.264,83.132 128.495,82.967 128.694,82.768C129.057,82.9 129.421,83.033 130.082,83.363C130.743,83.661 131.669,84.123 132.892,84.487C134.082,84.884 135.569,85.148 138.346,84.884Z" style="fill:rgb(253,198,135);"/>
            <path d="M181.977,66.77C179.762,69.645 178.738,72.819 177.746,75.992C177.944,75.628 178.572,75.033 179.531,74.934C180.787,74.802 182.671,75.496 185.745,76.025C188.819,76.554 193.084,76.951 197.678,75.959C202.273,74.967 207.165,72.653 210.636,70.307C214.073,67.96 216.09,65.58 217.247,64.489C213.478,62.208 209.71,59.927 205.38,58.969C201.05,57.977 196.158,58.308 191.96,59.795C187.762,61.216 184.258,63.861 181.977,66.77Z" style="fill:rgb(253,198,135);"/>
            <path d="M156.722,112.319C156.954,112.98 159.267,112.683 161.449,113.245C163.631,113.774 165.878,113.906 168.126,113.807C170.374,113.674 172.622,113.311 174.803,112.154C175.663,111.691 176.489,111.162 177.249,110.633L179.728,109.212C180.918,105.212 168.391,96.056 165.614,96.254C161.78,96.585 155.268,108.32 156.722,112.319Z" style="fill:rgb(254,205,152);"/>
            <path d="M168.128,113.807C165.88,113.939 163.632,113.807 161.451,113.245C159.269,112.716 157.153,111.79 156.724,112.319C156.327,112.881 157.583,114.931 159.963,116.517C162.343,118.137 165.814,119.294 169.02,118.798C172.193,118.302 175.102,116.154 177.152,113.939C179.168,111.691 180.292,109.377 179.763,109.179L177.284,110.6C176.524,111.129 175.697,111.658 174.838,112.121C172.59,113.311 170.342,113.674 168.128,113.807Z" style="fill:rgb(250,173,114);"/>
            <path d="M163.034,135.061C163.365,134.962 163.662,134.863 163.927,134.764C165.051,134.4 165.778,134.235 167.034,134.169C167.563,134.135 168.191,134.102 168.852,134.102C168.687,134.102 168.488,134.135 168.323,134.135C167.431,134.202 166.439,134.301 165.183,134.532C164.522,134.697 163.794,134.863 163.034,135.061ZM179.727,132.681C178.801,132.78 177.942,132.846 177.182,132.946C175.86,133.111 174.835,133.309 173.942,133.474C174.967,133.309 176.091,133.144 177.38,132.946C178.074,132.879 178.867,132.78 179.727,132.681ZM173.116,127.26C171.662,127.525 170.141,128.12 168.554,128.219C167.001,128.285 165.381,127.855 164.158,127.987C162.935,128.12 162.043,128.88 160.952,130.103C159.828,131.326 158.506,133.012 157.283,133.871C156.754,134.235 156.225,134.466 155.828,134.598C155.465,134.433 155.167,134.268 154.87,134.202C154.076,133.937 153.746,134.202 153.911,134.466C154.043,134.697 154.473,134.929 154.969,135.193C155.101,135.259 155.2,135.325 155.332,135.392C155.399,135.425 155.465,135.458 155.498,135.491C156.225,135.854 156.952,136.284 157.944,136.416C158.935,136.582 160.125,136.482 161.613,136.086C163.1,135.689 164.852,134.962 166.34,134.863C167.86,134.764 169.116,135.325 169.91,135.491C170.703,135.689 170.967,135.491 171.728,135.061C172.455,134.631 173.645,134.003 175.826,133.706C178.008,133.408 181.181,133.474 184.619,132.912C186.735,132.549 188.982,131.921 190.8,131.326C191.924,130.962 192.883,130.599 193.577,130.301C195.461,129.508 195.56,129.177 195.428,128.913C195.296,128.648 194.998,128.45 194.734,128.483C194.469,128.483 194.238,128.681 193.974,128.88C193.907,128.748 193.346,128.781 192.387,128.88C190.866,129.078 188.387,129.475 185.71,129.243C183.032,129.012 180.157,128.153 178.041,127.657C175.926,127.161 174.57,127.029 173.116,127.26Z" style="fill:rgb(233,127,116);"/>
            <path d="M175.827,133.673C173.645,133.97 172.455,134.598 171.728,135.028C171.001,135.458 170.704,135.623 169.91,135.458C169.117,135.292 167.861,134.73 166.34,134.83C164.82,134.929 163.101,135.656 161.613,136.053C161.316,136.119 161.018,136.218 160.721,136.251C159.828,136.449 158.87,136.515 157.944,136.383C158.539,137.871 159.134,139.358 159.828,140.647C160.523,141.936 161.349,143.027 163.002,143.655C164.688,144.316 167.266,144.581 170.175,144.382C173.05,144.217 176.257,143.655 178.769,142.994C181.248,142.333 183.033,141.573 184.388,140.68C185.743,139.755 186.702,138.697 187.462,137.474C188.223,136.251 188.818,134.83 189.313,133.772C189.842,132.714 190.305,132.02 190.801,131.293C190.371,131.425 189.941,131.557 189.545,131.689C188.024,132.152 186.305,132.582 184.653,132.879C181.182,133.441 178.009,133.375 175.827,133.673Z" style="fill:rgb(245,169,154);"/>
            <path d="M193.944,128.88C194.209,128.681 194.473,128.483 194.738,128.45C195.002,128.45 195.333,128.615 195.432,128.88C195.531,129.144 195.432,129.475 193.581,130.268C191.697,131.061 188.028,132.317 184.59,132.879C181.152,133.474 177.979,133.408 175.797,133.673C173.616,133.97 172.426,134.598 171.699,135.028C170.971,135.458 170.674,135.623 169.881,135.458C169.087,135.292 167.831,134.73 166.311,134.83C164.79,134.929 163.071,135.656 161.584,136.053C160.096,136.449 158.873,136.548 157.915,136.383C156.923,136.218 156.196,135.821 155.469,135.458C154.741,135.094 154.047,134.73 153.882,134.433C153.717,134.135 154.08,133.904 154.841,134.168C155.634,134.433 156.857,135.193 157.948,135.524C159.039,135.854 159.964,135.755 161.187,135.425C162.41,135.094 163.931,134.499 165.187,134.235C166.443,133.97 167.435,134.036 168.327,134.069C169.219,134.069 170.046,134.036 170.938,133.937C171.831,133.838 172.822,133.673 173.88,133.507C174.938,133.342 176.029,133.177 177.318,132.978C178.607,132.813 180.095,132.648 181.681,132.45C183.268,132.251 184.921,131.987 186.342,131.722C187.763,131.425 188.92,131.094 190.011,130.731C191.102,130.367 192.093,129.937 192.755,129.607C193.416,129.309 193.68,129.078 193.944,128.88Z" style="fill:rgb(146,35,44);"/>
            <path d="M164.625,111.229C167.467,111.229 169.814,110.237 169.814,108.981C169.814,107.758 167.5,106.733 164.625,106.733C161.782,106.733 159.435,107.725 159.435,108.981C159.435,110.237 161.782,111.229 164.625,111.229Z" style="fill:rgb(255,227,194);"/>
            <path d="M246.632,73.546C247.955,80.124 247.293,88.52 246.434,96.882L248.087,96.849C250.103,96.783 251.987,96.717 253.21,96.519C254.764,96.287 255.293,95.858 256.119,94.536C256.978,93.213 258.135,90.966 259.325,88.718C258.631,87.925 257.673,86.47 256.152,84.156L242.6,63.266C244.352,66.307 245.839,69.579 246.632,73.546Z" style="fill:rgb(250,173,114);"/>
            <path d="M226.6,61.58C226.633,61.547 226.633,61.514 226.667,61.514C226.931,61.15 226.865,61.282 226.6,61.58ZM234.93,87.263C232.947,92.751 227.625,98.701 225.08,103.692C222.568,108.683 222.832,112.683 222.799,118.467C222.766,124.252 222.369,131.788 217.643,139.391C212.883,146.994 203.726,154.629 196.124,159.356C188.488,164.083 182.373,165.868 178.34,166.132C174.275,166.397 172.258,165.075 170.275,163.455C168.292,161.835 166.341,159.951 164.391,158.034C168.556,162.695 172.457,165.967 176.258,167.686C180.059,169.372 183.827,169.504 188.257,168.116C191.496,167.124 195.066,165.306 199.264,162.728C209.247,156.613 222.766,146.167 230.732,138.664C238.698,131.16 241.111,126.599 242.863,120.12C244.582,113.641 245.607,105.278 246.466,96.882C247.293,88.487 247.954,80.124 246.665,73.546C245.871,69.612 244.384,66.307 242.599,63.299L238.831,57.481C224.287,44.92 209.742,32.326 194.901,21.451C187.563,16.063 180.158,11.072 172.688,6.345C170.705,5.089 168.754,3.833 164.92,3.602C161.086,3.337 155.433,4.065 150.707,5.849C145.98,7.634 142.178,10.444 138.377,13.287C137.617,14.642 136.857,15.997 136.096,17.353C131.336,25.749 126.312,34.244 124.957,44.821C124.527,48.127 124.461,51.63 124.626,55.134C124.957,50.507 125.254,45.879 127.171,39.599C129.089,33.285 132.592,25.352 136.79,19.435C140.988,13.518 145.847,9.717 151.599,8.262C157.351,6.808 163.928,7.701 172.787,11.436C181.646,15.171 192.719,21.716 202.14,29.385C211.56,37.02 219.328,45.747 221.047,52.325C222.402,57.514 219.989,61.382 218.403,63.795C218.799,63.662 219.13,63.762 219.626,63.828C220.485,63.96 221.94,64.059 223.163,63.762C224.386,63.464 225.477,62.77 226.138,62.175C226.336,61.977 226.501,61.811 226.633,61.679C226.237,62.241 225.245,63.596 223.989,64.555C222.667,65.58 221.08,66.208 219.89,66.538C218.7,66.869 217.973,66.902 217.973,67.001C218.006,67.1 218.799,67.232 219.626,67.298C220.452,67.365 221.279,67.365 222.138,67.067C222.997,66.769 223.824,66.141 224.022,66.175C224.187,66.208 223.692,66.836 222.832,67.563C221.94,68.257 220.651,69.017 219.031,69.711C217.411,70.406 215.461,71.067 214.502,71.463C213.577,71.86 213.643,71.992 214.238,72.025C214.833,72.058 215.957,71.959 216.056,72.091C216.155,72.224 215.196,72.62 212.949,73.48C210.668,74.339 207.065,75.694 203.297,76.719C199.495,77.744 195.562,78.438 192.025,78.438C188.521,78.438 185.447,77.744 183.398,77.116C181.381,76.488 180.39,75.926 179.497,75.959C178.638,75.959 177.845,76.554 177.745,76.422C177.712,76.488 177.679,76.62 177.613,76.917C177.481,77.413 177.25,78.405 178.208,78.537C179.134,78.669 181.282,77.909 185.414,78.24C189.579,78.57 195.727,79.958 202.008,78.57C208.288,77.182 214.635,72.984 220.056,71.397C225.477,69.811 229.939,70.835 232.815,73.843C235.624,76.719 236.914,81.743 234.93,87.263Z" style="fill:rgb(253,198,135);"/>
            <path d="M151.93,81.71C150.476,82.966 147.765,84.818 144.129,86.173C140.493,87.561 135.899,88.42 132.692,88.85C131.635,88.982 130.742,89.049 129.949,89.115C133.254,89.181 136.56,89.247 139.865,88.784C143.171,88.321 146.41,87.363 148.625,85.908C150.839,84.454 151.963,82.57 153.285,81.843C154.608,81.148 156.062,81.644 156.657,81.578C157.252,81.512 156.988,80.818 156.723,80.124C156.459,80.157 155.17,79.661 154.442,79.727C153.616,79.826 153.385,80.487 151.93,81.71Z" style="fill:rgb(253,198,135);"/>
            <path d="M150.708,5.783C155.435,3.998 161.087,3.271 164.921,3.536C168.756,3.8 170.706,5.023 172.689,6.279C165.054,1.453 157.451,-3.208 149.815,-7.835C146.047,-0.828 142.312,6.18 138.378,13.221C142.18,10.378 145.948,7.568 150.708,5.783Z" style="fill:rgb(107,69,32);"/>
            <path d="M187.993,170.198C194.306,167.851 200.587,165.537 205.512,164.414C210.437,163.29 213.974,163.389 217.94,166.992C221.907,170.595 226.27,177.669 229.443,185.668C232.617,193.667 234.567,202.625 236.319,200.047C238.038,197.468 239.525,183.42 240.847,166.959C242.17,150.531 243.293,131.689 244.384,112.881C243.921,115.492 243.426,117.938 242.831,120.153C241.112,126.632 238.666,131.193 230.7,138.697C222.766,146.167 209.214,156.613 199.264,162.728C195.033,165.306 191.463,167.091 188.257,168.116C188.158,168.777 188.092,169.471 187.993,170.198Z" style="fill:rgb(250,173,114);"/>
            <path d="M240.551,191.618C239.13,197.105 236.32,200.047 236.32,200.047C236.32,200.047 232.618,193.667 229.445,185.668C226.272,177.636 221.909,170.562 217.942,166.992C213.975,163.389 210.439,163.323 205.513,164.414C202.902,165.009 199.894,165.967 196.688,167.058C195.068,178.164 193.481,189.271 188.358,197.733C183.267,206.162 174.673,211.946 166.674,214.921C158.675,217.896 151.204,218.062 143.734,218.227C154.576,223.152 165.385,228.11 173.252,233.928C181.152,239.746 186.077,246.456 189.052,250.356C192.027,254.224 193.085,255.281 194.076,256.339L277.639,256.339L277.639,234.424C281.738,239.58 285.837,244.704 288.745,248.34C291.621,252.009 293.307,254.157 294.993,256.306L336.047,256.306C311.586,218.822 312.115,200.873 287.655,195.221C284.382,194.46 281.044,193.601 277.672,192.775L277.672,196.444C274.631,195.717 271.689,194.791 267.028,192.775C243.427,182.528 242.006,186.098 240.551,191.618Z" style="fill:rgb(253,198,135);"/>
            <path d="M174.539,146.465C173.316,146.399 171.829,146.63 170.771,147.06C169.713,147.457 169.019,148.052 168.424,148.713C167.829,149.341 167.3,150.035 169.152,150.101C171.003,150.167 175.267,149.572 177.118,149.01C178.969,148.415 178.374,147.82 177.581,147.357C176.754,146.862 175.763,146.531 174.539,146.465Z" style="fill:rgb(253,198,135);"/>
            <path d="M122.943,37.781C122.877,35.929 122.811,30.046 124.001,23.997C125.224,17.948 127.736,11.7 127.405,11.271C127.075,10.841 123.901,16.262 122.05,20.658C120.199,25.087 119.604,28.525 118.778,29.947C117.918,31.335 116.795,30.707 115.704,28.657C114.613,26.608 113.522,23.203 112.464,19.799C112.729,21.055 113.192,22.575 113.82,24.526C115.968,31.17 120.298,43.102 124.595,55.035C124.463,51.531 124.529,48.028 124.926,44.722C126.281,34.145 131.306,25.649 136.066,17.254C136.826,15.898 137.586,14.543 138.346,13.188C142.28,6.147 146.015,-0.861 149.783,-7.868L140.33,-7.868C134.545,6.511 128.76,20.923 125.852,29.186C123.009,37.516 123.009,39.632 122.943,37.781Z" style="fill:rgb(243,208,182);"/>
            <path d="M258.795,77.711C257.175,79.066 255.886,78.306 254.597,77.579C256.183,81.248 257.77,84.983 259.39,88.718C260.348,89.809 260.811,89.577 261.637,88.553C263.026,86.834 265.472,82.834 266.728,80.355C267.984,77.876 268.083,76.95 267.819,68.125C267.521,59.332 266.893,42.64 266.563,33.748C266.232,24.856 266.232,23.732 262.199,18.08C261.869,17.65 261.538,17.154 261.142,16.658C262.728,19.567 264.348,22.509 265.24,25.352C266.133,28.195 266.364,30.971 265.703,33.219C265.075,35.467 263.588,37.219 261.935,37.02C260.282,36.822 258.398,34.673 258.563,35.235C258.696,35.797 260.844,39.07 261.935,42.177C262.993,45.284 262.993,48.292 262.728,48.953C262.431,49.614 261.869,47.928 256.316,41.053C250.762,34.211 240.218,22.179 232.318,15.072C224.385,7.932 219.063,5.717 219.162,5.982C219.261,6.246 224.748,9.056 231.921,15.997C239.127,22.939 247.986,34.012 253.671,43.598C259.357,53.184 261.869,61.316 262.166,67.067C262.365,72.918 260.414,76.355 258.795,77.711Z" style="fill:rgb(243,208,182);"/>
            <path d="M141.749,120.616C140.724,118.864 139.236,117.178 137.65,115.459C136.195,113.84 134.675,112.187 133.419,110.468C130.907,106.865 129.584,102.865 128.262,98.866C128.626,101.841 129.617,105.576 132.163,110.865C136.79,120.384 146.475,134.895 154.706,146.002C151.235,141.044 147.765,136.085 145.88,131.821C144.029,127.557 143.765,123.987 141.749,120.616Z" style="fill:rgb(254,205,152);"/>
            <path d="M79.703,221.433C109.915,221.433 134.541,196.807 134.541,166.628C134.541,136.449 109.915,111.823 79.703,111.823C49.491,111.823 24.832,136.449 24.832,166.628C24.832,196.807 49.491,221.433 79.703,221.433Z" style="fill:rgb(254,211,164);"/>
            <path d="M79.707,213.599C105.621,213.599 126.744,192.51 126.744,166.628C126.744,140.746 105.621,119.657 79.707,119.657C53.792,119.657 32.669,140.746 32.669,166.628C32.669,192.51 53.792,213.599 79.707,213.599Z" style="fill:rgb(254,211,164);"/>
            <path d="M79.703,119.657C105.684,119.657 126.707,140.68 126.707,166.628C126.707,192.576 105.651,213.599 79.703,213.599C53.722,213.599 32.666,192.576 32.666,166.628C32.666,140.68 53.722,119.657 79.703,119.657ZM134.541,166.628C134.541,136.383 109.981,111.823 79.703,111.823C49.425,111.823 24.832,136.35 24.832,166.628C24.832,196.873 49.392,221.433 79.703,221.433C110.014,221.433 134.541,196.873 134.541,166.628Z" style="fill:white;"/>
            <path d="M121.089,130.665L120.229,129.673L120.659,129.276C132.856,118.633 145.054,107.989 157.251,97.312L158.11,98.304C145.913,108.948 133.716,119.624 121.519,130.268L121.089,130.665Z" style="fill:white;fill-rule:nonzero;"/>
            <path d="M277.638,196.444C284.017,198.196 290.364,199.948 296.776,204.741C303.189,209.534 309.602,217.368 315.618,226.458C321.601,235.548 327.154,245.927 332.674,256.306L336.046,256.306C311.585,218.822 312.114,200.873 287.653,195.221C284.381,194.461 281.042,193.601 277.671,192.775L277.671,196.444L277.638,196.444Z" style="fill:rgb(254,211,164);"/>
            <path d="M281.801,158.299C276.942,140.151 287.718,121.508 305.898,116.649C324.078,111.79 342.721,122.566 347.613,140.713C352.472,158.86 341.696,177.503 323.516,182.362C305.336,187.222 286.66,176.446 281.801,158.299Z" style="fill:rgb(254,211,164);"/>
            <path d="M281.801,158.298C276.942,140.151 287.718,121.508 305.898,116.649C324.078,111.79 342.721,122.566 347.613,140.713C352.472,158.86 341.696,177.503 323.516,182.362C305.336,187.221 286.66,176.446 281.801,158.298ZM304.41,111.162C283.222,116.848 270.628,138.598 276.314,159.753C281.999,180.908 303.782,193.469 324.971,187.816C346.159,182.131 358.753,160.381 353.067,139.226C347.382,118.071 325.599,105.51 304.41,111.162Z" style="fill:white;"/>
            <path d="M206.834,111.261C203,112.286 200.752,116.22 201.744,120.021C202.768,123.822 206.702,126.103 210.536,125.078C214.371,124.054 216.618,120.12 215.594,116.286C214.569,112.484 210.635,110.237 206.834,111.261ZM202.735,119.756C201.876,116.484 203.793,113.112 207.099,112.22C210.371,111.327 213.743,113.278 214.635,116.55C215.528,119.823 213.577,123.194 210.272,124.087C206.966,124.979 203.595,123.062 202.735,119.756Z" style="fill:white;"/>
            <path d="M275.62,141.738C265.704,138.168 255.788,134.565 245.871,130.995C235.756,127.326 225.608,123.69 215.494,120.021L215.956,118.765C226.071,122.434 236.186,126.07 246.334,129.739C256.25,133.309 266.167,136.912 276.083,140.482L275.62,141.738Z" style="fill:white;fill-rule:nonzero;"/>
            <path d="M96.101,32.459C100.927,50.474 90.217,68.984 72.202,73.777C54.187,78.636 35.677,67.927 30.817,49.945C25.991,31.93 36.701,13.452 54.716,8.626C72.764,3.767 91.275,14.444 96.101,32.459Z" style="fill:rgb(254,211,164);"/>
            <path d="M94.051,33.021C98.579,49.879 88.564,67.233 71.673,71.728C54.782,76.256 37.428,66.241 32.899,49.383C28.371,32.525 38.387,15.171 55.278,10.676C72.169,6.147 89.522,16.163 94.051,33.021ZM73.028,76.818C92.729,71.563 104.43,51.333 99.141,31.666C93.853,11.998 73.623,0.329 53.922,5.585C34.222,10.841 22.52,31.071 27.809,50.738C33.098,70.406 53.327,82.074 73.028,76.818Z" style="fill:white;"/>
            <path d="M155.533,48.358C159.367,47.333 161.648,43.4 160.623,39.565C159.599,35.764 155.665,33.483 151.831,34.508C147.996,35.533 145.749,39.466 146.74,43.268C147.798,47.102 151.732,49.383 155.533,48.358ZM159.632,39.83C160.491,43.102 158.574,46.474 155.268,47.366C151.963,48.259 148.591,46.309 147.732,43.036C146.873,39.764 148.79,36.392 152.095,35.5C155.401,34.607 158.772,36.557 159.632,39.83Z" style="fill:white;"/>
            <path d="M147.692,42.355L100.216,43.78L100.255,45.102L147.732,43.676L147.692,42.355Z" style="fill:white;fill-rule:nonzero;"/>
            <path d="M68.268,139.027C69.128,139.027 69.855,138.3 69.855,137.441C69.855,136.581 69.128,135.854 68.268,135.854C67.409,135.854 66.682,136.581 66.682,137.441C66.682,138.3 67.409,139.027 68.268,139.027Z" style="fill:rgb(63,61,61);"/>
            <path d="M85.953,150.531C86.812,150.531 87.54,149.803 87.54,148.944C87.54,148.085 86.812,147.357 85.953,147.357C85.093,147.357 84.366,148.052 84.366,148.944C84.366,149.837 85.06,150.531 85.953,150.531Z" style="fill:rgb(63,61,61);"/>
            <path d="M90.679,135.689C91.538,135.689 92.266,134.995 92.266,134.102C92.266,133.243 91.538,132.516 90.679,132.516C89.82,132.516 89.092,133.243 89.092,134.102C89.092,134.995 89.786,135.689 90.679,135.689Z" style="fill:rgb(63,61,61);"/>
            <path d="M108.331,153.175C109.19,153.175 109.917,152.481 109.917,151.588C109.917,150.729 109.223,150.002 108.331,150.002C107.471,150.002 106.744,150.696 106.744,151.588C106.744,152.448 107.471,153.175 108.331,153.175Z" style="fill:rgb(63,61,61);"/>
            <path d="M97.818,175.652C98.678,175.652 99.405,174.925 99.405,174.066C99.405,173.206 98.711,172.479 97.818,172.479C96.959,172.479 96.231,173.173 96.231,174.066C96.265,174.925 96.959,175.652 97.818,175.652Z" style="fill:rgb(63,61,61);"/>
            <path d="M116.497,174.727C117.356,174.727 118.083,174.033 118.083,173.14C118.083,172.248 117.356,171.553 116.497,171.553C115.637,171.553 114.91,172.248 114.91,173.14C114.91,174.033 115.604,174.727 116.497,174.727Z" style="fill:rgb(63,61,61);"/>
            <path d="M103.604,195.783C104.463,195.783 105.19,195.088 105.19,194.196C105.19,193.336 104.463,192.609 103.604,192.609C102.744,192.609 102.017,193.303 102.017,194.196C102.05,195.088 102.744,195.783 103.604,195.783Z" style="fill:rgb(63,61,61);"/>
            <path d="M75.803,182.528C76.663,182.528 77.39,181.801 77.39,180.941C77.39,180.082 76.696,179.354 75.803,179.354C74.944,179.354 74.217,180.082 74.217,180.941C74.217,181.801 74.944,182.528 75.803,182.528Z" style="fill:rgb(63,61,61);"/>
            <path d="M56.798,162.893C57.658,162.893 58.385,162.166 58.385,161.306C58.385,160.447 57.658,159.72 56.798,159.72C55.939,159.72 55.211,160.447 55.211,161.306C55.245,162.199 55.939,162.893 56.798,162.893Z" style="fill:rgb(63,61,61);"/>
            <path d="M44.304,149.473C45.164,149.473 45.891,148.779 45.891,147.886C45.891,147.027 45.197,146.3 44.304,146.3C43.412,146.3 42.718,147.027 42.718,147.886C42.751,148.779 43.445,149.473 44.304,149.473Z" style="fill:rgb(63,61,61);"/>
            <path d="M42.023,180.412C42.882,180.412 43.609,179.685 43.609,178.826C43.609,177.966 42.915,177.239 42.023,177.239C41.13,177.239 40.436,177.933 40.436,178.826C40.469,179.718 41.163,180.412 42.023,180.412Z" style="fill:rgb(63,61,61);"/>
            <path d="M59.345,197.369C60.204,197.369 60.932,196.675 60.932,195.783C60.932,194.923 60.204,194.196 59.345,194.196C58.486,194.196 57.758,194.89 57.758,195.783C57.791,196.675 58.486,197.369 59.345,197.369Z" style="fill:rgb(63,61,61);"/>
            <path d="M82.978,207.682C83.837,207.682 84.564,206.955 84.564,206.096C84.564,205.236 83.837,204.509 82.978,204.509C82.118,204.509 81.391,205.236 81.391,206.096C81.391,206.955 82.085,207.682 82.978,207.682Z" style="fill:rgb(63,61,61);"/>
            <path d="M73.138,170L72.124,167.647L67.34,167.647L66.326,170L65.234,170L69.264,160.835L70.187,160.835L74.217,170L73.138,170ZM67.717,166.763L71.747,166.763L69.732,162.07L67.717,166.763ZM78.098,170.091C77.474,170.091 76.933,169.957 76.473,169.688C76.014,169.419 75.659,169.042 75.407,168.557C75.165,168.063 75.043,167.487 75.043,166.828C75.043,166.169 75.169,165.593 75.42,165.099C75.68,164.596 76.04,164.206 76.499,163.929C76.967,163.652 77.513,163.513 78.137,163.513C78.562,163.513 78.978,163.591 79.385,163.747C79.793,163.894 80.122,164.094 80.373,164.345L80.022,165.125C79.424,164.64 78.818,164.397 78.202,164.397C77.552,164.397 77.045,164.609 76.681,165.034C76.317,165.459 76.135,166.057 76.135,166.828C76.135,167.591 76.317,168.18 76.681,168.596C77.045,169.012 77.552,169.22 78.202,169.22C78.818,169.22 79.424,168.977 80.022,168.492L80.373,169.272C80.105,169.523 79.767,169.723 79.359,169.87C78.952,170.017 78.532,170.091 78.098,170.091ZM84.826,163.513C86.343,163.513 87.101,164.349 87.101,166.022L87.101,170L86.048,170L86.048,166.087C86.048,165.498 85.931,165.069 85.697,164.8C85.472,164.531 85.108,164.397 84.605,164.397C84.024,164.397 83.561,164.575 83.214,164.93C82.867,165.285 82.694,165.766 82.694,166.373L82.694,170L81.641,170L81.641,163.669L82.681,163.669L82.681,164.709C82.889,164.319 83.179,164.024 83.552,163.825C83.925,163.617 84.349,163.513 84.826,163.513ZM94.334,166.997L89.706,166.997C89.74,167.734 89.94,168.293 90.304,168.674C90.668,169.047 91.183,169.233 91.851,169.233C92.587,169.233 93.263,168.982 93.879,168.479L94.23,169.246C93.952,169.506 93.597,169.714 93.164,169.87C92.73,170.017 92.288,170.091 91.838,170.091C90.85,170.091 90.07,169.801 89.498,169.22C88.934,168.639 88.653,167.838 88.653,166.815C88.653,166.165 88.778,165.593 89.03,165.099C89.281,164.596 89.632,164.206 90.083,163.929C90.542,163.652 91.062,163.513 91.643,163.513C92.483,163.513 93.142,163.79 93.619,164.345C94.095,164.891 94.334,165.645 94.334,166.607L94.334,166.997ZM91.656,164.332C91.101,164.332 90.655,164.505 90.317,164.852C89.987,165.199 89.792,165.688 89.732,166.321L93.411,166.321C93.393,165.68 93.233,165.19 92.93,164.852C92.626,164.505 92.202,164.332 91.656,164.332Z" style="fill-rule:nonzero;"/>
            <path d="M54.346,45L53.176,45L51.616,42.062C51.425,41.707 51.2,41.464 50.94,41.334C50.689,41.195 50.342,41.126 49.9,41.126L48.184,41.126L48.184,45L47.131,45L47.131,35.835L50.901,35.835C51.898,35.835 52.656,36.056 53.176,36.498C53.705,36.94 53.969,37.59 53.969,38.448C53.969,39.159 53.765,39.735 53.358,40.177C52.959,40.61 52.387,40.883 51.642,40.996C51.876,41.065 52.08,41.182 52.253,41.347C52.435,41.512 52.6,41.733 52.747,42.01L54.346,45ZM50.81,40.242C51.521,40.242 52.049,40.095 52.396,39.8C52.751,39.505 52.929,39.059 52.929,38.461C52.929,37.872 52.756,37.434 52.409,37.148C52.062,36.862 51.529,36.719 50.81,36.719L48.184,36.719L48.184,40.242L50.81,40.242ZM61.217,38.669L61.217,45L60.19,45L60.19,43.921C59.991,44.302 59.709,44.593 59.345,44.792C58.99,44.991 58.587,45.091 58.136,45.091C57.382,45.091 56.814,44.883 56.433,44.467C56.052,44.042 55.861,43.418 55.861,42.595L55.861,38.669L56.914,38.669L56.914,42.569C56.914,43.132 57.027,43.548 57.252,43.817C57.477,44.077 57.833,44.207 58.318,44.207C58.873,44.207 59.319,44.029 59.657,43.674C59.995,43.31 60.164,42.833 60.164,42.244L60.164,38.669L61.217,38.669ZM68.842,38.669L68.842,44.571C68.842,45.516 68.6,46.226 68.114,46.703C67.629,47.188 66.91,47.431 65.956,47.431C64.847,47.431 63.915,47.145 63.161,46.573L63.512,45.793C63.937,46.07 64.336,46.27 64.708,46.391C65.081,46.512 65.497,46.573 65.956,46.573C66.563,46.573 67.022,46.408 67.334,46.079C67.646,45.758 67.802,45.286 67.802,44.662L67.802,43.544C67.62,43.951 67.339,44.263 66.957,44.48C66.585,44.697 66.143,44.805 65.631,44.805C65.077,44.805 64.583,44.675 64.149,44.415C63.725,44.155 63.391,43.787 63.148,43.31C62.914,42.833 62.797,42.283 62.797,41.659C62.797,41.035 62.914,40.485 63.148,40.008C63.391,39.531 63.725,39.163 64.149,38.903C64.583,38.643 65.077,38.513 65.631,38.513C66.134,38.513 66.572,38.621 66.944,38.838C67.317,39.055 67.599,39.362 67.789,39.761L67.789,38.669L68.842,38.669ZM65.839,43.934C66.446,43.934 66.923,43.735 67.269,43.336C67.616,42.929 67.789,42.37 67.789,41.659C67.789,40.957 67.616,40.407 67.269,40.008C66.931,39.601 66.455,39.397 65.839,39.397C65.224,39.397 64.739,39.601 64.383,40.008C64.037,40.407 63.863,40.957 63.863,41.659C63.863,42.37 64.037,42.929 64.383,43.336C64.739,43.735 65.224,43.934 65.839,43.934ZM73.365,38.513C74.171,38.513 74.769,38.721 75.159,39.137C75.558,39.544 75.757,40.168 75.757,41.009L75.757,45L74.73,45L74.73,43.921C74.566,44.294 74.314,44.584 73.976,44.792C73.638,44.991 73.248,45.091 72.806,45.091C72.399,45.091 72.022,45.009 71.675,44.844C71.337,44.679 71.069,44.45 70.869,44.155C70.67,43.86 70.57,43.535 70.57,43.18C70.57,42.703 70.692,42.335 70.934,42.075C71.177,41.806 71.576,41.616 72.13,41.503C72.685,41.382 73.456,41.321 74.444,41.321L74.73,41.321L74.73,40.892C74.73,40.363 74.622,39.982 74.405,39.748C74.189,39.505 73.838,39.384 73.352,39.384C72.624,39.384 71.901,39.609 71.181,40.06L70.83,39.293C71.16,39.059 71.554,38.873 72.013,38.734C72.481,38.587 72.932,38.513 73.365,38.513ZM72.949,44.259C73.469,44.259 73.894,44.086 74.223,43.739C74.561,43.384 74.73,42.929 74.73,42.374L74.73,41.997L74.496,41.997C73.734,41.997 73.153,42.032 72.754,42.101C72.356,42.162 72.07,42.27 71.896,42.426C71.732,42.573 71.649,42.794 71.649,43.089C71.649,43.427 71.771,43.709 72.013,43.934C72.265,44.151 72.577,44.259 72.949,44.259ZM79.83,45.091C78.764,45.091 77.919,44.818 77.295,44.272L77.646,43.492C77.984,43.761 78.326,43.956 78.673,44.077C79.028,44.19 79.427,44.246 79.869,44.246C80.337,44.246 80.692,44.168 80.935,44.012C81.186,43.847 81.312,43.613 81.312,43.31C81.312,43.059 81.23,42.859 81.065,42.712C80.9,42.565 80.627,42.448 80.246,42.361L79.18,42.114C78.643,41.993 78.231,41.785 77.945,41.49C77.659,41.195 77.516,40.831 77.516,40.398C77.516,39.835 77.737,39.38 78.179,39.033C78.621,38.686 79.21,38.513 79.947,38.513C80.389,38.513 80.809,38.587 81.208,38.734C81.607,38.873 81.94,39.076 82.209,39.345L81.858,40.112C81.277,39.618 80.64,39.371 79.947,39.371C79.505,39.371 79.158,39.458 78.907,39.631C78.664,39.796 78.543,40.03 78.543,40.333C78.543,40.584 78.617,40.788 78.764,40.944C78.92,41.091 79.167,41.204 79.505,41.282L80.584,41.542C81.173,41.681 81.611,41.893 81.897,42.179C82.183,42.456 82.326,42.82 82.326,43.271C82.326,43.826 82.101,44.268 81.65,44.597C81.208,44.926 80.601,45.091 79.83,45.091Z" style="fill-rule:nonzero;"/>
            <path d="M74.978,20.427C69.193,20.559 60.566,20.559 54.318,20.361C48.104,20.162 44.303,19.799 40.469,19.435C39.642,20.328 38.849,21.253 38.122,22.245C49.426,21.98 60.731,21.716 69.358,21.98C77.986,22.245 83.936,23.005 89.885,23.798C88.927,22.344 87.869,21.022 86.712,19.766C83.737,20.03 80.795,20.295 74.978,20.427Z" style="fill:rgb(253,198,135);"/>
            <path d="M93.588,31.533C89.489,32.36 85.39,33.186 78.019,33.517C70.648,33.88 59.971,33.748 52.005,33.219C44.039,32.69 38.783,31.765 33.527,30.839C33.197,31.831 32.866,32.889 32.635,33.913C35.544,33.781 38.452,33.616 44.105,33.847C49.757,34.078 58.186,34.74 65.491,34.905C72.763,35.07 78.912,34.74 83.605,34.872C88.299,35.004 91.505,35.566 94.712,36.128C94.546,35.103 94.315,34.045 94.051,33.021C93.918,32.525 93.753,32.029 93.588,31.533Z" style="fill:rgb(253,198,135);"/>
            <path d="M94.547,47.234C87.737,47.102 80.895,46.97 72.532,46.937C64.202,46.871 54.352,46.871 47.344,46.54C40.337,46.209 36.172,45.548 32.007,44.92C32.139,45.912 32.304,46.904 32.503,47.895C44.336,47.598 56.17,47.3 66.45,47.433C76.73,47.565 85.49,48.094 94.216,48.622C94.348,48.16 94.447,47.697 94.547,47.234Z" style="fill:rgb(253,198,135);"/>
            <path d="M90.149,58.242C90.083,58.308 90.017,58.374 86.414,58.341C82.745,58.308 75.473,58.175 68.168,58.142C60.862,58.109 53.491,58.209 48.17,58.076C42.815,57.944 39.509,57.614 36.204,57.25C36.733,58.142 37.294,59.035 37.923,59.861C47.839,59.398 57.755,58.936 66.184,59.101C74.58,59.266 81.456,60.027 88.331,60.82C88.959,59.993 89.554,59.134 90.149,58.242C90.116,58.242 90.116,58.242 90.149,58.242Z" style="fill:rgb(253,198,135);"/>
            <path d="M294.357,149.018C294.804,149.135 295.149,149.355 295.391,149.678C295.64,150.001 295.765,150.404 295.765,150.888C295.765,151.57 295.541,152.094 295.094,152.461C294.647,152.82 294.012,153 293.191,153L289.957,153L289.957,145.245L293.07,145.245C293.869,145.245 294.489,145.421 294.929,145.773C295.369,146.125 295.589,146.624 295.589,147.269C295.589,147.687 295.479,148.046 295.259,148.347C295.046,148.648 294.746,148.871 294.357,149.018ZM290.848,148.688L292.938,148.688C293.517,148.688 293.954,148.571 294.247,148.336C294.548,148.101 294.698,147.76 294.698,147.313C294.698,146.433 294.111,145.993 292.938,145.993L290.848,145.993L290.848,148.688ZM293.103,152.252C293.712,152.252 294.159,152.142 294.445,151.922C294.738,151.695 294.885,151.343 294.885,150.866C294.885,149.913 294.291,149.436 293.103,149.436L290.848,149.436L290.848,152.252L293.103,152.252ZM299.459,153.077C298.953,153.077 298.506,152.963 298.117,152.736C297.736,152.509 297.439,152.186 297.226,151.768C297.021,151.343 296.918,150.851 296.918,150.294C296.918,149.737 297.021,149.249 297.226,148.831C297.439,148.406 297.736,148.079 298.117,147.852C298.506,147.625 298.953,147.511 299.459,147.511C299.965,147.511 300.412,147.625 300.801,147.852C301.19,148.079 301.487,148.406 301.692,148.831C301.905,149.249 302.011,149.737 302.011,150.294C302.011,150.851 301.905,151.343 301.692,151.768C301.487,152.186 301.19,152.509 300.801,152.736C300.412,152.963 299.965,153.077 299.459,153.077ZM299.459,152.34C299.987,152.34 300.39,152.168 300.669,151.823C300.955,151.471 301.098,150.961 301.098,150.294C301.098,149.641 300.955,149.139 300.669,148.787C300.383,148.428 299.98,148.248 299.459,148.248C298.938,148.248 298.535,148.428 298.249,148.787C297.963,149.139 297.82,149.641 297.82,150.294C297.82,150.954 297.959,151.46 298.238,151.812C298.524,152.164 298.931,152.34 299.459,152.34ZM306.375,148.281L305.792,148.336C305.242,148.387 304.842,148.56 304.593,148.853C304.351,149.146 304.23,149.509 304.23,149.942L304.23,153L303.339,153L303.339,147.643L304.208,147.643L304.208,148.578C304.508,147.955 305.099,147.606 305.979,147.533L306.298,147.511L306.375,148.281ZM309.912,147.511C310.381,147.511 310.795,147.625 311.155,147.852C311.514,148.079 311.793,148.402 311.991,148.82C312.189,149.238 312.288,149.722 312.288,150.272C312.288,150.829 312.189,151.321 311.991,151.746C311.793,152.164 311.514,152.49 311.155,152.725C310.795,152.96 310.381,153.077 309.912,153.077C309.494,153.077 309.127,152.985 308.812,152.802C308.504,152.619 308.269,152.358 308.108,152.021L308.108,153L307.217,153L307.217,145.245L308.108,145.245L308.108,148.567C308.269,148.23 308.504,147.969 308.812,147.786C309.127,147.603 309.494,147.511 309.912,147.511ZM309.736,152.34C310.256,152.34 310.66,152.16 310.946,151.801C311.232,151.434 311.375,150.925 311.375,150.272C311.375,149.634 311.232,149.139 310.946,148.787C310.66,148.435 310.256,148.259 309.736,148.259C309.215,148.259 308.812,148.435 308.526,148.787C308.247,149.139 308.108,149.641 308.108,150.294C308.108,150.947 308.247,151.453 308.526,151.812C308.812,152.164 309.215,152.34 309.736,152.34ZM318.129,147.643L318.129,153L317.26,153L317.26,152.087C317.091,152.41 316.853,152.655 316.545,152.824C316.244,152.993 315.903,153.077 315.522,153.077C314.884,153.077 314.404,152.901 314.081,152.549C313.758,152.19 313.597,151.662 313.597,150.965L313.597,147.643L314.488,147.643L314.488,150.943C314.488,151.42 314.583,151.772 314.774,151.999C314.965,152.219 315.265,152.329 315.676,152.329C316.145,152.329 316.523,152.179 316.809,151.878C317.095,151.57 317.238,151.167 317.238,150.668L317.238,147.643L318.129,147.643ZM319.785,153L319.785,145.245L320.676,145.245L320.676,153L319.785,153ZM325.037,147.511C326.32,147.511 326.962,148.219 326.962,149.634L326.962,153L326.071,153L326.071,149.689C326.071,149.19 325.972,148.827 325.774,148.6C325.583,148.373 325.275,148.259 324.85,148.259C324.358,148.259 323.966,148.409 323.673,148.71C323.379,149.011 323.233,149.418 323.233,149.931L323.233,153L322.342,153L322.342,145.245L323.233,145.245L323.233,148.501C323.409,148.178 323.651,147.933 323.959,147.764C324.274,147.595 324.633,147.511 325.037,147.511ZM330.772,147.511C331.454,147.511 331.96,147.687 332.29,148.039C332.627,148.384 332.796,148.912 332.796,149.623L332.796,153L331.927,153L331.927,152.087C331.787,152.402 331.575,152.648 331.289,152.824C331.003,152.993 330.673,153.077 330.299,153.077C329.954,153.077 329.635,153.007 329.342,152.868C329.056,152.729 328.828,152.534 328.66,152.285C328.491,152.036 328.407,151.761 328.407,151.46C328.407,151.057 328.509,150.745 328.715,150.525C328.92,150.298 329.257,150.136 329.727,150.041C330.196,149.938 330.849,149.887 331.685,149.887L331.927,149.887L331.927,149.524C331.927,149.077 331.835,148.754 331.652,148.556C331.468,148.351 331.171,148.248 330.761,148.248C330.145,148.248 329.532,148.439 328.924,148.82L328.627,148.171C328.905,147.973 329.239,147.815 329.628,147.698C330.024,147.573 330.405,147.511 330.772,147.511ZM330.42,152.373C330.86,152.373 331.219,152.226 331.498,151.933C331.784,151.632 331.927,151.247 331.927,150.778L331.927,150.459L331.729,150.459C331.083,150.459 330.592,150.488 330.255,150.547C329.917,150.598 329.675,150.69 329.529,150.822C329.389,150.947 329.32,151.134 329.32,151.383C329.32,151.669 329.422,151.907 329.628,152.098C329.84,152.281 330.104,152.373 330.42,152.373ZM336.242,153.077C335.34,153.077 334.625,152.846 334.097,152.384L334.394,151.724C334.68,151.951 334.969,152.116 335.263,152.219C335.563,152.314 335.901,152.362 336.275,152.362C336.671,152.362 336.971,152.296 337.177,152.164C337.389,152.025 337.496,151.827 337.496,151.57C337.496,151.357 337.426,151.189 337.287,151.064C337.147,150.939 336.916,150.84 336.594,150.767L335.692,150.558C335.237,150.455 334.889,150.279 334.647,150.03C334.405,149.781 334.284,149.473 334.284,149.106C334.284,148.629 334.471,148.244 334.845,147.951C335.219,147.658 335.717,147.511 336.341,147.511C336.715,147.511 337.07,147.573 337.408,147.698C337.745,147.815 338.027,147.988 338.255,148.215L337.958,148.864C337.466,148.446 336.927,148.237 336.341,148.237C335.967,148.237 335.673,148.31 335.461,148.457C335.255,148.596 335.153,148.794 335.153,149.051C335.153,149.264 335.215,149.436 335.34,149.568C335.472,149.693 335.681,149.788 335.967,149.854L336.88,150.074C337.378,150.191 337.749,150.371 337.991,150.613C338.233,150.848 338.354,151.156 338.354,151.537C338.354,152.006 338.163,152.38 337.782,152.659C337.408,152.938 336.894,153.077 336.242,153.077Z" style="fill-rule:nonzero;"/>
            <path d="M312.313,128.318C314.098,128.318 315.552,126.863 315.552,125.079C315.552,123.294 314.098,121.872 312.313,121.872C310.528,121.872 309.074,123.327 309.074,125.079C309.074,126.863 310.528,128.318 312.313,128.318Z" style="fill:rgb(245,169,154);"/>
            <path d="M312.31,126.665C313.17,126.665 313.897,125.971 313.897,125.078C313.897,124.219 313.203,123.492 312.31,123.492C311.418,123.492 310.724,124.219 310.724,125.078C310.724,125.971 311.418,126.665 312.31,126.665Z" style="fill:rgb(233,127,116);"/>
            <path d="M334.095,165.802C335.88,165.802 337.335,164.348 337.335,162.563C337.335,160.778 335.88,159.323 334.095,159.323C332.31,159.323 330.856,160.778 330.856,162.563C330.856,164.348 332.31,165.802 334.095,165.802Z" style="fill:rgb(245,169,154);"/>
            <path d="M334.094,164.149C334.954,164.149 335.681,163.455 335.681,162.562C335.681,161.67 334.987,160.976 334.094,160.976C333.202,160.976 332.508,161.67 332.508,162.562C332.508,163.455 333.202,164.149 334.094,164.149Z" style="fill:rgb(233,127,116);"/>
            <path d="M293.141,162.298C294.926,162.298 296.381,160.844 296.381,159.059C296.381,157.274 294.926,155.852 293.141,155.852C291.356,155.852 289.902,157.307 289.902,159.059C289.935,160.844 291.389,162.298 293.141,162.298Z" style="fill:rgb(245,169,154);"/>
            <path d="M293.14,160.645C294,160.645 294.727,159.951 294.727,159.059C294.727,158.199 294.033,157.472 293.14,157.472C292.281,157.472 291.554,158.199 291.554,159.059C291.587,159.951 292.281,160.645 293.14,160.645Z" style="fill:rgb(233,127,116);"/>
            <path d="M170.672,95.693C170.672,91.726 167.466,88.52 163.499,88.52C159.532,88.52 156.326,91.726 156.326,95.693C156.326,99.626 159.532,102.866 163.499,102.866C167.433,102.832 170.672,99.626 170.672,95.693ZM163.466,89.544C166.871,89.544 169.614,92.288 169.614,95.693C169.614,99.097 166.871,101.841 163.466,101.841C160.061,101.841 157.318,99.097 157.318,95.693C157.318,92.288 160.094,89.544 163.466,89.544Z" style="fill:white;"/>
            <path d="M175.332,138.267C174.473,137.937 171.002,138.168 168.787,138.366C166.54,138.532 165.548,138.631 165.019,138.928C164.457,139.226 164.325,139.722 165.68,140.052C167.035,140.35 169.878,140.449 172.159,140.019C174.44,139.589 176.192,138.631 175.332,138.267Z" style="fill:rgb(252,215,204);"/>
            <path d="M314.693,192.477C290.96,192.477 271.656,173.206 271.656,149.506C271.656,125.806 290.96,106.535 314.693,106.535C338.427,106.535 357.731,125.806 357.731,149.506C357.731,173.206 338.427,192.477 314.693,192.477ZM314.693,107.824C291.687,107.824 272.978,126.5 272.978,149.473C272.978,172.446 291.687,191.122 314.693,191.122C337.699,191.122 356.408,172.446 356.408,149.473C356.408,126.533 337.699,107.824 314.693,107.824Z" style="fill:white;fill-rule:nonzero;"/>
            <path d="M63.476,82.14C40.866,82.14 22.488,63.762 22.488,41.185C22.488,18.609 40.866,0.23 63.476,0.23C86.085,0.23 104.464,18.609 104.464,41.185C104.431,63.762 86.052,82.14 63.476,82.14ZM63.476,1.585C41.594,1.585 23.81,19.369 23.81,41.218C23.81,63.068 41.594,80.851 63.476,80.851C85.325,80.851 103.142,63.068 103.142,41.218C103.142,19.369 85.325,1.585 63.476,1.585Z" style="fill:white;fill-rule:nonzero;"/>
            <path d="M79.704,224.739C47.608,224.739 21.494,198.658 21.494,166.628C21.494,134.565 47.608,108.485 79.704,108.485C111.8,108.485 137.88,134.565 137.88,166.628C137.88,198.691 111.8,224.739 79.704,224.739ZM79.704,109.807C48.335,109.807 22.816,135.292 22.816,166.628C22.816,197.931 48.335,223.416 79.704,223.416C111.073,223.416 136.558,197.931 136.558,166.628C136.558,135.292 111.073,109.807 79.704,109.807Z" style="fill:white;fill-rule:nonzero;"/>
        </g>
    </g>
</svg>
