<svg width="468" height="234" viewBox="0 0 468 234" fill="none" xmlns="http://www.w3.org/2000/svg">
<g clip-path="url(#clip0)">
<rect width="468" height="234" rx="9.25842" fill="#FBF4F6"/>
<g clip-path="url(#clip1)">
<path d="M433.196 -7.50458H273.871V256.604H433.196V-7.50458Z" fill="#C0A696"/>
<path d="M471.998 -7.83521H0V256.273H471.998V-7.83521Z" fill="#845A46"/>
<path d="M168.557 -15.4873H0V263.925H168.557V-15.4873Z" fill="#C28E76"/>
<path fill-rule="evenodd" clip-rule="evenodd" d="M180.257 -7.83526C197.974 7.23775 215.725 22.3108 226.666 33.1858C237.64 44.0939 241.805 50.804 246.135 59.3322C250.465 67.8934 254.895 78.2726 259.357 88.6849C260.316 89.7757 260.778 89.5443 261.605 88.5196C262.993 86.8007 265.439 82.8011 266.695 80.322C267.951 77.8429 268.05 76.9173 267.786 68.0917C267.489 59.2991 266.861 42.6064 266.53 33.7147C266.199 24.8229 266.199 23.6991 262.167 18.0467C261.572 17.1873 260.845 16.2617 260.084 15.237C255.688 9.38631 248.78 0.759001 241.871 -7.90137H180.257V-7.83526Z" fill="#FEE9DD"/>
<path fill-rule="evenodd" clip-rule="evenodd" d="M226.667 33.1859C215.726 22.3108 197.975 7.2378 180.258 -7.83521H149.781C157.417 -3.20753 165.053 1.45321 172.655 6.31227C180.093 11.0722 187.497 16.0304 194.868 21.4183C209.71 32.2934 224.254 44.8873 238.798 57.4481C240.12 59.3653 241.409 61.2494 242.566 63.2658L256.185 84.1564C257.705 86.4703 258.664 87.9247 259.358 88.718C254.929 78.3057 250.466 67.9265 246.136 59.3653C241.839 50.8041 237.641 44.0939 226.667 33.1859Z" fill="#F3D0B6"/>
<path fill-rule="evenodd" clip-rule="evenodd" d="M138.378 13.2207C142.312 6.18005 146.047 -0.82758 149.815 -7.83521H119.273C116.761 -0.199538 114.248 7.43613 112.992 11.9646C111.736 16.4932 111.736 17.8815 113.885 24.5255C116.033 31.1695 120.364 43.1023 124.661 55.0351C124.528 51.5313 124.595 48.0275 124.991 44.722C126.346 34.1444 131.371 25.6493 136.131 17.2534C136.858 15.9312 137.618 14.576 138.378 13.2207Z" fill="#FEE9DD"/>
<path fill-rule="evenodd" clip-rule="evenodd" d="M241.837 -7.83521C248.746 0.792107 255.654 9.45247 260.05 15.3032C260.315 10.6755 260.612 6.04782 260.745 3.5026C260.877 0.95738 260.877 0.494614 259.951 -1.05896C258.993 -2.61254 257.142 -5.22387 255.258 -7.83521H241.837Z" fill="#F3D0B6"/>
<path fill-rule="evenodd" clip-rule="evenodd" d="M187.695 172.248C187.332 174.462 186.704 176.71 185.448 179.024C183.828 182.032 181.151 185.238 176.292 188.676C175.002 189.601 173.581 190.527 171.994 191.452C164.293 195.981 152.624 200.906 143.501 205.104C134.378 209.302 127.734 212.74 123.073 217.764C118.413 222.788 115.702 229.399 114.479 236.109C113.256 242.787 113.553 249.53 113.818 256.273H194.141H261.242H277.638V218.723V192.742C271.159 190.395 264.68 188.081 259.028 184.841C253.375 181.635 248.516 177.47 246.07 173.537C243.624 169.57 243.624 165.769 243.624 162.001C243.657 156.943 243.756 151.952 243.955 146.994C244.616 129.838 246.368 113.344 248.12 96.8495C247.591 96.8495 247.029 96.8825 246.467 96.8825C245.608 105.278 244.616 113.641 242.864 120.12C241.145 126.599 238.699 131.16 230.733 138.664C222.767 146.167 209.214 156.613 199.265 162.728C195.034 165.306 191.464 167.091 188.257 168.116C188.092 169.471 187.96 170.859 187.695 172.248Z" fill="#FED3A4"/>
<path fill-rule="evenodd" clip-rule="evenodd" d="M149.814 -7.83521C145.319 0.527668 140.856 8.85749 136.097 17.2865C131.337 25.6824 126.312 34.1775 124.957 44.755C123.602 55.3326 125.949 68.0256 127.139 76.2894C128.329 84.5531 128.428 88.4866 128.263 92.6845C128.064 96.8825 127.601 101.345 132.229 110.865C136.857 120.385 146.542 134.896 154.773 146.002C162.97 157.108 169.713 164.744 176.258 167.686C182.836 170.628 189.282 168.843 199.264 162.761C209.247 156.646 222.766 146.2 230.733 138.697C238.699 131.193 241.112 126.632 242.864 120.153C244.582 113.674 245.607 105.311 246.467 96.9156C247.293 88.5196 247.954 80.1568 246.665 73.5788C245.343 67.0009 242.103 62.2741 238.831 57.5142C224.287 44.9534 209.743 32.3595 194.901 21.4844C180.059 10.6094 164.92 1.35404 149.814 -7.83521Z" fill="#FED3A4"/>
<path fill-rule="evenodd" clip-rule="evenodd" d="M177.681 76.2563C177.615 76.058 178.276 75.0994 179.532 74.9341C180.788 74.8019 182.672 75.496 185.746 76.0249C188.82 76.5538 193.084 76.9504 197.679 75.9588C202.274 74.9672 207.166 72.6533 210.636 70.3064C214.074 67.9595 216.09 65.5796 217.247 64.4888C218.404 63.398 218.702 63.5632 219.594 63.7285C220.454 63.8607 221.908 63.9599 223.131 63.6624C224.354 63.3649 225.445 62.6708 226.106 62.0758C226.767 61.4808 227.032 61.018 226.668 61.5138C226.271 62.0097 225.28 63.4641 223.958 64.4557C222.635 65.4804 221.049 66.1085 219.859 66.439C218.669 66.7696 217.942 66.8026 217.942 66.9018C217.975 67.0009 218.768 67.1332 219.594 67.1993C220.421 67.2654 221.247 67.2654 222.106 66.9679C222.966 66.6704 223.792 66.0424 223.991 66.0754C224.156 66.1085 223.66 66.7365 222.801 67.4637C221.908 68.1579 220.619 68.9181 218.999 69.6123C217.38 70.3064 215.429 70.9675 214.471 71.3642C213.545 71.7608 213.611 71.8931 214.206 71.9261C214.801 71.9592 215.925 71.86 216.024 71.9922C216.124 72.1244 215.165 72.5211 212.917 73.3805C210.636 74.2399 207.033 75.5952 203.265 76.6199C199.464 77.6446 195.53 78.3388 191.994 78.3388C188.49 78.3388 185.416 77.6446 183.366 77.0166C181.35 76.3885 180.358 75.8266 179.466 75.8596C178.54 75.8266 177.747 76.4216 177.681 76.2563Z" fill="#554745"/>
<path fill-rule="evenodd" clip-rule="evenodd" d="M156.657 80.1568C156.921 80.1237 156.227 79.5618 155.467 79.2643C154.707 78.9668 153.847 78.9007 152.789 79.5948C151.732 80.2559 150.442 81.6442 147.765 82.735C145.088 83.8258 141.088 84.6522 138.311 84.9167C135.535 85.1811 134.047 84.9167 132.857 84.52C131.634 84.1564 130.709 83.6936 130.048 83.3961C129.387 83.0986 129.023 82.9664 128.659 82.8011C127.932 83.3961 127.172 84.0242 126.346 84.3878C125.552 84.7514 124.66 84.8836 123.139 84.7844C121.619 84.6853 119.503 84.3878 117.322 84.0903C118.115 84.6192 118.875 85.148 120.065 85.5447C121.255 85.9414 122.842 86.2389 123.999 86.2719C125.156 86.305 125.916 86.0736 126.676 85.8752C125.817 86.2388 124.99 86.6024 124.263 86.8669C123.536 87.1313 122.941 87.2635 122.346 87.3958C123.569 87.6602 124.792 87.8916 125.949 87.9246C127.139 87.9246 128.23 87.6933 129.353 87.4619C128.99 87.7924 128.626 88.123 128.031 88.3874C127.403 88.6519 126.544 88.9163 125.651 89.1477C127.502 89.2138 129.387 89.313 132.593 88.9163C135.832 88.5196 140.394 87.6272 144.03 86.2388C147.666 84.8836 150.376 83.0325 151.831 81.7764C153.285 80.5204 153.55 79.8923 154.277 79.8262C155.136 79.694 156.392 80.1898 156.657 80.1568Z" fill="#554745"/>
<path fill-rule="evenodd" clip-rule="evenodd" d="M176.391 62.4063C178.01 61.7452 180.754 60.6544 184.522 58.4067C188.29 56.159 193.149 52.7874 197.248 50.8041C201.347 48.8539 204.719 48.325 208.454 49.0191C212.189 49.7133 216.288 51.6305 216.618 51.5974C216.949 51.5644 213.511 49.548 210.04 48.2589C206.603 46.9697 203.132 46.3417 199.694 46.8045C196.256 47.2672 192.786 48.8208 188.654 50.738C184.489 52.6552 179.663 55.0021 176.886 56.2912C174.143 57.5803 173.482 57.8117 173.283 58.8695C173.085 59.9272 173.383 61.7783 173.779 62.5716C174.209 63.3649 174.738 63.0674 176.391 62.4063Z" fill="#794D1C"/>
<path fill-rule="evenodd" clip-rule="evenodd" d="M149.979 67.7942C148.359 67.6289 145.351 67.3314 142.31 66.3397C139.269 65.315 136.228 63.5301 133.815 62.3071C131.369 61.084 129.584 60.4229 128.361 60.1254C127.105 59.8279 126.443 59.8941 126.047 60.5882C125.65 61.3154 125.518 62.6376 125.518 63.7945C125.518 64.9514 125.65 65.9431 125.551 66.1414C125.452 66.3398 125.154 65.7448 124.89 64.4887C124.625 63.2326 124.427 61.2824 124.824 59.9932C125.22 58.671 126.179 58.0099 128.592 58.1091C131.005 58.2083 134.872 59.1007 138.641 59.8279C142.409 60.5552 146.111 61.1501 148.194 62.0096C150.276 62.869 150.706 63.9929 151.069 65.0176C151.433 66.0753 151.697 67.0339 151.73 67.4967C151.797 68.0255 151.565 67.9594 149.979 67.7942Z" fill="#6B4520"/>
<path fill-rule="evenodd" clip-rule="evenodd" d="M138.346 84.8837C141.122 84.6192 145.122 83.7929 147.799 82.7021C150.444 81.6112 151.733 80.2229 152.824 79.5618C153.881 78.9008 154.741 78.9338 155.501 79.2313C155.766 79.3305 156.03 79.4627 156.228 79.5949C154.741 77.7438 153.286 75.8928 150.411 74.1409C147.568 72.389 143.304 70.7362 139.602 70.2734C135.9 69.8107 132.726 70.5048 131.074 70.9015C129.421 71.2981 129.289 71.3973 129.256 72.6203C129.223 73.8434 129.322 76.1572 129.256 78.0413C129.19 79.9254 128.925 81.3468 128.628 82.2062C128.429 82.7351 128.231 83.0326 128.033 83.264V83.297C128.264 83.1318 128.495 82.9665 128.694 82.7682C129.057 82.9004 129.421 83.0326 130.082 83.3632C130.743 83.6606 131.669 84.1234 132.892 84.487C134.082 84.8837 135.569 85.1481 138.346 84.8837Z" fill="#FDC687"/>
<path fill-rule="evenodd" clip-rule="evenodd" d="M181.977 66.7696C179.763 69.6454 178.738 72.8187 177.746 75.9919C177.945 75.6283 178.573 75.0333 179.531 74.9342C180.787 74.802 182.672 75.4961 185.746 76.025C188.82 76.5539 193.084 76.9505 197.678 75.9589C202.273 74.9672 207.165 72.6534 210.636 70.3065C214.074 67.9596 216.09 65.5797 217.247 64.4888C213.479 62.2081 209.71 59.9273 205.38 58.9687C201.05 57.977 196.158 58.3076 191.96 59.7951C187.762 61.2164 184.258 63.8608 181.977 66.7696Z" fill="#FDC687"/>
<path fill-rule="evenodd" clip-rule="evenodd" d="M156.722 112.319C156.954 112.98 159.267 112.683 161.449 113.245C163.631 113.774 165.878 113.906 168.126 113.807C170.374 113.674 172.622 113.311 174.803 112.154C175.663 111.691 176.489 111.162 177.249 110.633L179.728 109.212C180.918 105.212 168.39 96.0562 165.614 96.2546C161.78 96.5851 155.268 108.32 156.722 112.319Z" fill="#FECD98"/>
<path fill-rule="evenodd" clip-rule="evenodd" d="M168.128 113.807C165.88 113.939 163.632 113.807 161.451 113.245C159.269 112.716 157.154 111.79 156.724 112.319C156.327 112.881 157.583 114.93 159.963 116.517C162.343 118.137 165.814 119.294 169.02 118.798C172.193 118.302 175.102 116.153 177.152 113.939C179.168 111.691 180.292 109.377 179.763 109.179L177.284 110.6C176.524 111.129 175.697 111.658 174.838 112.121C172.59 113.311 170.342 113.674 168.128 113.807Z" fill="#FAAD72"/>
<path fill-rule="evenodd" clip-rule="evenodd" d="M163.034 135.061C163.365 134.962 163.662 134.863 163.926 134.764C165.05 134.4 165.778 134.235 167.034 134.169C167.562 134.135 168.191 134.102 168.852 134.102C168.686 134.102 168.488 134.135 168.323 134.135C167.43 134.202 166.439 134.301 165.183 134.532C164.521 134.697 163.794 134.863 163.034 135.061ZM179.727 132.681C178.801 132.78 177.942 132.846 177.181 132.946C175.859 133.111 174.835 133.309 173.942 133.474C174.967 133.309 176.091 133.144 177.38 132.946C178.074 132.879 178.867 132.78 179.727 132.681ZM173.116 127.26C171.661 127.525 170.141 128.12 168.554 128.219C167.001 128.285 165.381 127.855 164.158 127.987C162.935 128.12 162.042 128.88 160.952 130.103C159.828 131.326 158.505 133.012 157.282 133.871C156.754 134.235 156.225 134.466 155.828 134.598C155.464 134.433 155.167 134.268 154.869 134.202C154.076 133.937 153.746 134.202 153.911 134.466C154.043 134.697 154.473 134.929 154.969 135.193C155.101 135.259 155.2 135.325 155.332 135.392C155.398 135.425 155.464 135.458 155.497 135.491C156.225 135.854 156.952 136.284 157.944 136.416C158.935 136.582 160.125 136.482 161.613 136.086C163.1 135.689 164.852 134.962 166.339 134.863C167.86 134.764 169.116 135.325 169.909 135.491C170.703 135.689 170.967 135.491 171.727 135.061C172.455 134.631 173.645 134.003 175.826 133.706C178.008 133.408 181.181 133.474 184.619 132.912C186.734 132.549 188.982 131.921 190.8 131.326C191.924 130.962 192.883 130.599 193.577 130.301C195.461 129.508 195.56 129.177 195.428 128.913C195.296 128.648 194.998 128.45 194.734 128.483C194.469 128.483 194.238 128.681 193.973 128.88C193.907 128.748 193.345 128.781 192.387 128.88C190.866 129.078 188.387 129.475 185.71 129.243C183.032 129.012 180.156 128.153 178.041 127.657C175.925 127.161 174.57 127.029 173.116 127.26Z" fill="#E97F74"/>
<path fill-rule="evenodd" clip-rule="evenodd" d="M175.827 133.673C173.646 133.97 172.456 134.598 171.728 135.028C171.001 135.458 170.704 135.623 169.91 135.458C169.117 135.292 167.861 134.73 166.341 134.83C164.82 134.929 163.101 135.656 161.614 136.053C161.316 136.119 161.019 136.218 160.721 136.251C159.829 136.449 158.87 136.515 157.945 136.383C158.54 137.871 159.135 139.358 159.829 140.647C160.523 141.936 161.349 143.027 163.002 143.655C164.688 144.316 167.266 144.581 170.175 144.382C173.051 144.217 176.257 143.655 178.769 142.994C181.248 142.333 183.033 141.573 184.388 140.68C185.744 139.755 186.702 138.697 187.463 137.474C188.223 136.251 188.818 134.83 189.314 133.772C189.842 132.714 190.305 132.02 190.801 131.293C190.371 131.425 189.942 131.557 189.545 131.689C188.024 132.152 186.306 132.582 184.653 132.879C181.182 133.441 178.009 133.375 175.827 133.673Z" fill="#F5A99A"/>
<path fill-rule="evenodd" clip-rule="evenodd" d="M193.944 128.88C194.209 128.681 194.473 128.483 194.738 128.45C195.002 128.45 195.333 128.615 195.432 128.88C195.531 129.144 195.432 129.475 193.581 130.268C191.697 131.061 188.027 132.317 184.59 132.879C181.152 133.474 177.979 133.408 175.797 133.673C173.616 133.97 172.426 134.598 171.698 135.028C170.971 135.458 170.674 135.623 169.88 135.458C169.087 135.292 167.831 134.73 166.31 134.83C164.79 134.929 163.071 135.656 161.584 136.053C160.096 136.449 158.873 136.548 157.914 136.383C156.923 136.218 156.196 135.821 155.468 135.458C154.741 135.094 154.047 134.73 153.882 134.433C153.717 134.135 154.08 133.904 154.84 134.168C155.634 134.433 156.857 135.193 157.948 135.524C159.038 135.854 159.964 135.755 161.187 135.425C162.41 135.094 163.93 134.499 165.187 134.235C166.443 133.97 167.434 134.036 168.327 134.069C169.219 134.069 170.046 134.036 170.938 133.937C171.831 133.838 172.822 133.673 173.88 133.507C174.938 133.342 176.029 133.177 177.318 132.978C178.607 132.813 180.094 132.648 181.681 132.45C183.268 132.251 184.92 131.987 186.342 131.722C187.763 131.425 188.92 131.094 190.011 130.731C191.102 130.367 192.093 129.937 192.754 129.607C193.415 129.309 193.68 129.078 193.944 128.88Z" fill="#92232C"/>
<path fill-rule="evenodd" clip-rule="evenodd" d="M164.625 111.228C167.467 111.228 169.814 110.237 169.814 108.981C169.814 107.758 167.5 106.733 164.625 106.733C161.782 106.733 159.435 107.725 159.435 108.981C159.435 110.237 161.782 111.228 164.625 111.228Z" fill="#FFE3C2"/>
<path fill-rule="evenodd" clip-rule="evenodd" d="M246.632 73.5457C247.955 80.1237 247.293 88.5196 246.434 96.8825L248.087 96.8494C250.103 96.7833 251.987 96.7172 253.21 96.5189C254.764 96.2875 255.293 95.8578 256.119 94.5356C256.978 93.2134 258.135 90.9656 259.325 88.7179C258.631 87.9246 257.673 86.4702 256.152 84.1563L242.6 63.2657C244.352 66.3067 245.839 69.5792 246.632 73.5457Z" fill="#FAAD72"/>
<path fill-rule="evenodd" clip-rule="evenodd" d="M226.601 61.5799C226.634 61.5469 226.634 61.5138 226.667 61.5138C226.931 61.1502 226.865 61.2824 226.601 61.5799ZM234.93 87.2635C232.947 92.7506 227.625 98.7005 225.08 103.692C222.568 108.683 222.832 112.683 222.799 118.467C222.766 124.252 222.37 131.788 217.643 139.391C212.883 146.994 203.727 154.629 196.124 159.356C188.488 164.083 182.373 165.868 178.341 166.132C174.275 166.397 172.259 165.075 170.275 163.455C168.292 161.835 166.342 159.951 164.391 158.034C168.556 162.695 172.457 165.967 176.258 167.686C180.059 169.372 183.828 169.504 188.257 168.116C191.496 167.124 195.066 165.306 199.264 162.728C209.247 156.613 222.766 146.167 230.733 138.664C238.699 131.16 241.112 126.599 242.864 120.12C244.582 113.641 245.607 105.278 246.467 96.8825C247.293 88.4866 247.954 80.1237 246.665 73.5458C245.872 69.6123 244.384 66.3068 242.599 63.2988L238.831 57.4811C224.287 44.9203 209.743 32.3264 194.901 21.4514C187.563 16.0634 180.159 11.0721 172.688 6.3453C170.705 5.08921 168.755 3.83313 164.92 3.60174C161.086 3.3373 155.434 4.06451 150.707 5.84947C145.98 7.63443 142.179 10.4441 138.377 13.2868C137.617 14.6421 136.857 15.9973 136.097 17.3526C131.337 25.7485 126.312 34.2436 124.957 44.8211C124.527 48.1266 124.461 51.6304 124.626 55.1342C124.957 50.5066 125.255 45.8789 127.172 39.5985C129.089 33.285 132.593 25.3518 136.791 19.435C140.989 13.5182 145.848 9.71689 151.599 8.26248C157.351 6.80806 163.929 7.70054 172.787 11.4357C181.646 15.1709 192.719 21.7158 202.14 29.3845C211.561 37.0202 219.329 45.7467 221.047 52.3246C222.403 57.5142 219.99 61.3816 218.403 63.7946C218.8 63.6624 219.13 63.7616 219.626 63.8277C220.486 63.9599 221.94 64.059 223.163 63.7616C224.386 63.4641 225.477 62.7699 226.138 62.1749C226.336 61.9766 226.501 61.8113 226.634 61.6791C226.237 62.241 225.245 63.5963 223.989 64.5549C222.667 65.5796 221.08 66.2076 219.891 66.5382C218.701 66.8687 217.973 66.9018 217.973 67.0009C218.006 67.1001 218.8 67.2323 219.626 67.2984C220.452 67.3645 221.279 67.3645 222.138 67.067C222.998 66.7695 223.824 66.1415 224.022 66.1746C224.188 66.2076 223.692 66.8357 222.832 67.5629C221.94 68.257 220.651 69.0173 219.031 69.7114C217.411 70.4056 215.461 71.0667 214.503 71.4633C213.577 71.86 213.643 71.9922 214.238 72.0253C214.833 72.0583 215.957 71.9592 216.056 72.0914C216.155 72.2236 215.197 72.6202 212.949 73.4797C210.668 74.3391 207.065 75.6944 203.297 76.719C199.496 77.7438 195.562 78.4379 192.025 78.4379C188.521 78.4379 185.447 77.7438 183.398 77.1157C181.382 76.4877 180.39 75.9257 179.498 75.9588C178.638 75.9588 177.845 76.5538 177.746 76.4216C177.713 76.4877 177.68 76.6199 177.613 76.9174C177.481 77.4132 177.25 78.4048 178.208 78.5371C179.134 78.6693 181.282 77.909 185.414 78.2396C189.579 78.5701 195.727 79.9584 202.008 78.5701C208.288 77.1818 214.635 72.9838 220.056 71.3972C225.477 69.8106 229.939 70.8353 232.815 73.8433C235.625 76.719 236.914 81.7434 234.93 87.2635Z" fill="#FDC687"/>
<path fill-rule="evenodd" clip-rule="evenodd" d="M151.93 81.7103C150.476 82.9664 147.765 84.8175 144.129 86.1727C140.493 87.561 135.898 88.4204 132.692 88.8502C131.634 88.9824 130.742 89.0485 129.948 89.1146C133.254 89.1807 136.559 89.2468 139.865 88.784C143.17 88.3213 146.41 87.3627 148.624 85.9083C150.839 84.4539 151.963 82.5697 153.285 81.8425C154.607 81.1484 156.062 81.6442 156.657 81.5781C157.252 81.512 156.987 80.8178 156.723 80.1237C156.458 80.1567 155.169 79.6609 154.442 79.727C153.616 79.8262 153.384 80.4873 151.93 81.7103Z" fill="#FDC687"/>
<path fill-rule="evenodd" clip-rule="evenodd" d="M150.708 5.78339C155.435 3.99843 161.087 3.27122 164.922 3.53566C168.756 3.8001 170.706 5.02313 172.69 6.27921C165.054 1.45321 157.451 -3.20753 149.816 -7.83521C146.047 -0.827579 142.312 6.18005 138.379 13.2207C142.18 10.378 145.948 7.56835 150.708 5.78339Z" fill="#6B4520"/>
<path fill-rule="evenodd" clip-rule="evenodd" d="M187.993 170.198C194.306 167.851 200.587 165.537 205.512 164.414C210.437 163.29 213.974 163.389 217.94 166.992C221.907 170.595 226.27 177.669 229.443 185.668C232.617 193.667 234.567 202.625 236.319 200.047C238.038 197.468 239.525 183.42 240.847 166.959C242.17 150.531 243.293 131.689 244.384 112.881C243.921 115.492 243.426 117.938 242.831 120.153C241.112 126.632 238.666 131.193 230.7 138.697C222.766 146.167 209.214 156.613 199.264 162.728C195.033 165.306 191.463 167.091 188.257 168.116C188.158 168.777 188.092 169.471 187.993 170.198Z" fill="#FAAD72"/>
<path fill-rule="evenodd" clip-rule="evenodd" d="M240.551 191.618C239.13 197.105 236.32 200.047 236.32 200.047C236.32 200.047 232.618 193.667 229.445 185.668C226.272 177.636 221.908 170.562 217.942 166.992C213.975 163.389 210.438 163.323 205.513 164.414C202.902 165.009 199.894 165.967 196.688 167.058C195.068 178.164 193.481 189.271 188.358 197.733C183.267 206.162 174.673 211.947 166.674 214.921C158.675 217.896 151.204 218.062 143.734 218.227C154.576 223.152 165.385 228.11 173.252 233.928C181.152 239.746 186.077 246.456 189.052 250.356C192.027 254.224 193.085 255.281 194.076 256.339H261.178H277.639V234.424C281.738 239.58 285.836 244.704 288.745 248.34C291.621 252.009 293.307 254.158 294.993 256.306H336.047C311.586 218.822 312.115 200.873 287.654 195.221C284.382 194.461 281.044 193.601 277.672 192.775V196.444C274.631 195.717 271.689 194.791 267.028 192.775C243.427 182.528 242.006 186.098 240.551 191.618Z" fill="#FDC687"/>
<path fill-rule="evenodd" clip-rule="evenodd" d="M174.539 146.465C173.316 146.399 171.829 146.63 170.771 147.06C169.713 147.457 169.019 148.052 168.424 148.713C167.829 149.341 167.3 150.035 169.152 150.101C171.003 150.167 175.267 149.572 177.118 149.01C178.969 148.415 178.374 147.82 177.581 147.357C176.754 146.862 175.763 146.531 174.539 146.465Z" fill="#FDC687"/>
<path fill-rule="evenodd" clip-rule="evenodd" d="M122.942 37.7805C122.876 35.9294 122.81 30.0457 124 23.9966C125.223 17.9476 127.735 11.7002 127.405 11.2705C127.074 10.8408 123.901 16.2618 122.05 20.6581C120.199 25.0874 119.604 28.5252 118.778 29.9465C117.918 31.3348 116.794 30.7068 115.703 28.6574C114.613 26.608 113.522 23.2033 112.464 19.7987C112.729 21.0548 113.191 22.5753 113.819 24.5255C115.968 31.1695 120.298 43.1023 124.595 55.0351C124.463 51.5313 124.529 48.0275 124.926 44.722C126.281 34.1445 131.305 25.6494 136.065 17.2535C136.826 15.8982 137.586 14.543 138.346 13.1877C142.28 6.14703 146.015 -0.860599 149.783 -7.86823H140.329C134.545 6.51063 128.76 20.9225 125.851 29.1862C123.009 37.5161 123.009 39.6316 122.942 37.7805Z" fill="#F3D0B6"/>
<path fill-rule="evenodd" clip-rule="evenodd" d="M258.795 77.7107C257.175 79.0659 255.886 78.3057 254.597 77.5785C256.183 81.2475 257.77 84.9827 259.39 88.7179C260.348 89.8088 260.811 89.5774 261.637 88.5527C263.026 86.8338 265.472 82.8342 266.728 80.3551C267.984 77.876 268.083 76.9504 267.819 68.1248C267.521 59.3322 266.893 42.6395 266.563 33.7477C266.232 24.856 266.232 23.7321 262.199 18.0797C261.869 17.65 261.538 17.1542 261.142 16.6584C262.728 19.5672 264.348 22.5091 265.24 25.3518C266.133 28.1945 266.364 30.9711 265.703 33.2189C265.075 35.4666 263.588 37.2185 261.935 37.0202C260.282 36.8218 258.398 34.6733 258.563 35.2352C258.696 35.7971 260.844 39.0696 261.935 42.1767C262.993 45.2839 262.993 48.2919 262.728 48.953C262.431 49.6141 261.869 47.9283 256.316 41.0529C250.762 34.2105 240.218 22.1785 232.318 15.0718C224.385 7.93191 219.063 5.71724 219.162 5.98167C219.261 6.24611 224.748 9.05577 231.921 15.9973C239.127 22.9388 247.986 34.0122 253.671 43.5981C259.357 53.184 261.869 61.3155 262.166 67.067C262.365 72.9177 260.414 76.3554 258.795 77.7107Z" fill="#F3D0B6"/>
<path fill-rule="evenodd" clip-rule="evenodd" d="M141.749 120.616C140.724 118.864 139.236 117.178 137.65 115.459C136.195 113.84 134.675 112.187 133.419 110.468C130.907 106.865 129.584 102.865 128.262 98.8657C128.626 101.841 129.617 105.576 132.163 110.865C136.79 120.384 146.475 134.895 154.706 146.002C151.235 141.044 147.765 136.085 145.88 131.821C144.029 127.557 143.765 123.987 141.749 120.616Z" fill="#FECD98"/>
<path fill-rule="evenodd" clip-rule="evenodd" d="M79.7028 221.433C109.915 221.433 134.541 196.807 134.541 166.628C134.541 136.449 109.915 111.823 79.7028 111.823C49.4907 111.823 24.8318 136.449 24.8318 166.628C24.8318 196.807 49.4907 221.433 79.7028 221.433Z" fill="#FED3A4"/>
<path fill-rule="evenodd" clip-rule="evenodd" d="M79.7063 213.599C105.621 213.599 126.743 192.51 126.743 166.628C126.743 140.746 105.621 119.657 79.7063 119.657C53.7913 119.657 32.6693 140.746 32.6693 166.628C32.6693 192.51 53.7913 213.599 79.7063 213.599Z" fill="#FED3A4"/>
<path fill-rule="evenodd" clip-rule="evenodd" d="M79.7028 119.657C105.684 119.657 126.707 140.68 126.707 166.628C126.707 192.576 105.651 213.599 79.7028 213.599C53.7217 213.599 32.6658 192.576 32.6658 166.628C32.6658 140.68 53.7217 119.657 79.7028 119.657ZM134.541 166.628C134.541 136.383 109.981 111.823 79.7028 111.823C49.4246 111.823 24.8318 136.35 24.8318 166.628C24.8318 196.873 49.3915 221.433 79.7028 221.433C110.014 221.433 134.541 196.873 134.541 166.628Z" fill="white"/>
<path d="M121.089 130.665L120.229 129.673L120.659 129.276C132.856 118.633 145.054 107.989 157.251 97.3123L158.11 98.3039C145.913 108.948 133.716 119.624 121.519 130.268L121.089 130.665Z" fill="white"/>
<path fill-rule="evenodd" clip-rule="evenodd" d="M277.638 196.444C284.017 198.196 290.364 199.948 296.777 204.741C303.189 209.534 309.602 217.368 315.618 226.458C321.601 235.548 327.154 245.927 332.674 256.306H336.046C311.585 218.822 312.114 200.873 287.653 195.221C284.381 194.461 281.042 193.601 277.671 192.775V196.444H277.638Z" fill="#FED3A4"/>
<path fill-rule="evenodd" clip-rule="evenodd" d="M281.801 158.299C276.941 140.151 287.717 121.508 305.898 116.649C324.078 111.79 342.721 122.566 347.613 140.713C352.472 158.86 341.696 177.503 323.516 182.362C305.336 187.222 286.66 176.446 281.801 158.299Z" fill="#FED3A4"/>
<path fill-rule="evenodd" clip-rule="evenodd" d="M281.801 158.298C276.942 140.151 287.718 121.508 305.898 116.649C324.078 111.79 342.721 122.566 347.613 140.713C352.472 158.86 341.696 177.503 323.516 182.362C305.336 187.221 286.66 176.446 281.801 158.298ZM304.41 111.162C283.222 116.848 270.628 138.598 276.314 159.753C281.999 180.908 303.782 193.469 324.97 187.816C346.158 182.131 358.752 160.381 353.067 139.226C347.382 118.071 325.598 105.51 304.41 111.162Z" fill="white"/>
<path fill-rule="evenodd" clip-rule="evenodd" d="M206.834 111.261C203 112.286 200.752 116.22 201.744 120.021C202.768 123.822 206.702 126.103 210.536 125.078C214.371 124.054 216.618 120.12 215.594 116.286C214.569 112.484 210.635 110.237 206.834 111.261ZM202.735 119.756C201.876 116.484 203.793 113.112 207.099 112.22C210.371 111.327 213.743 113.278 214.635 116.55C215.528 119.823 213.577 123.194 210.272 124.087C206.966 124.979 203.595 123.062 202.735 119.756Z" fill="white"/>
<path d="M275.621 141.738C265.704 138.168 255.788 134.565 245.871 130.995C235.756 127.326 225.609 123.69 215.494 120.021L215.957 118.765C226.071 122.434 236.186 126.07 246.334 129.739C256.25 133.309 266.167 136.912 276.083 140.482L275.621 141.738Z" fill="white"/>
<path fill-rule="evenodd" clip-rule="evenodd" d="M96.101 32.4588C100.927 50.4737 90.2172 68.9844 72.2023 73.7774C54.1874 78.6364 35.6767 67.9267 30.8177 49.9448C25.9917 31.9299 36.7014 13.4523 54.7163 8.62628C72.7643 3.76722 91.275 14.4439 96.101 32.4588Z" fill="#FED3A4"/>
<path fill-rule="evenodd" clip-rule="evenodd" d="M94.0508 33.0207C98.5793 49.8787 88.5637 67.2325 71.6726 71.7279C54.7816 76.2564 37.4278 66.2408 32.8993 49.3829C28.3708 32.5249 38.3864 15.1711 55.2775 10.6756C72.1685 6.14713 89.5223 16.1627 94.0508 33.0207ZM73.0279 76.8184C92.7286 71.5627 104.43 51.3331 99.1412 31.6655C93.8524 11.9978 73.6229 0.329479 53.9222 5.5852C34.2215 10.8409 22.5201 31.0705 27.8089 50.7381C33.0977 70.4057 53.3272 82.0741 73.0279 76.8184Z" fill="white"/>
<path fill-rule="evenodd" clip-rule="evenodd" d="M155.533 48.358C159.367 47.3333 161.648 43.3998 160.623 39.5654C159.599 35.7641 155.665 33.4833 151.831 34.508C147.996 35.5327 145.749 39.4663 146.74 43.2676C147.798 47.1019 151.731 49.3827 155.533 48.358ZM159.632 39.8299C160.491 43.1023 158.574 46.4739 155.268 47.3664C151.963 48.2589 148.591 46.3086 147.732 43.0362C146.872 39.7638 148.79 36.3922 152.095 35.4997C155.401 34.6072 158.772 36.5574 159.632 39.8299Z" fill="white"/>
<path d="M147.692 42.3548L100.216 43.78L100.256 45.1015L147.732 43.6763L147.692 42.3548Z" fill="white"/>
<path fill-rule="evenodd" clip-rule="evenodd" d="M68.2685 139.027C69.1279 139.027 69.8551 138.3 69.8551 137.441C69.8551 136.581 69.1279 135.854 68.2685 135.854C67.4091 135.854 66.6819 136.581 66.6819 137.441C66.6819 138.3 67.4091 139.027 68.2685 139.027Z" fill="#3F3D3D"/>
<path fill-rule="evenodd" clip-rule="evenodd" d="M85.9528 150.531C86.8123 150.531 87.5395 149.803 87.5395 148.944C87.5395 148.085 86.8123 147.357 85.9528 147.357C85.0934 147.357 84.3662 148.052 84.3662 148.944C84.3662 149.836 85.0604 150.531 85.9528 150.531Z" fill="#3F3D3D"/>
<path fill-rule="evenodd" clip-rule="evenodd" d="M90.679 135.689C91.5385 135.689 92.2657 134.995 92.2657 134.102C92.2657 133.243 91.5385 132.516 90.679 132.516C89.8196 132.516 89.0924 133.243 89.0924 134.102C89.0924 134.995 89.7866 135.689 90.679 135.689Z" fill="#3F3D3D"/>
<path fill-rule="evenodd" clip-rule="evenodd" d="M108.331 153.175C109.19 153.175 109.917 152.481 109.917 151.588C109.917 150.729 109.223 150.002 108.331 150.002C107.471 150.002 106.744 150.696 106.744 151.588C106.744 152.448 107.471 153.175 108.331 153.175Z" fill="#3F3D3D"/>
<path fill-rule="evenodd" clip-rule="evenodd" d="M97.8182 175.652C98.6776 175.652 99.4048 174.925 99.4048 174.066C99.4048 173.206 98.7107 172.479 97.8182 172.479C96.9588 172.479 96.2316 173.173 96.2316 174.066C96.2646 174.925 96.9588 175.652 97.8182 175.652Z" fill="#3F3D3D"/>
<path fill-rule="evenodd" clip-rule="evenodd" d="M116.497 174.727C117.356 174.727 118.083 174.033 118.083 173.14C118.083 172.248 117.356 171.553 116.497 171.553C115.637 171.553 114.91 172.248 114.91 173.14C114.91 174.033 115.604 174.727 116.497 174.727Z" fill="#3F3D3D"/>
<path fill-rule="evenodd" clip-rule="evenodd" d="M103.604 195.783C104.463 195.783 105.19 195.088 105.19 194.196C105.19 193.336 104.463 192.609 103.604 192.609C102.744 192.609 102.017 193.303 102.017 194.196C102.05 195.088 102.744 195.783 103.604 195.783Z" fill="#3F3D3D"/>
<path fill-rule="evenodd" clip-rule="evenodd" d="M75.8035 182.528C76.663 182.528 77.3902 181.801 77.3902 180.941C77.3902 180.082 76.696 179.354 75.8035 179.354C74.9441 179.354 74.2169 180.082 74.2169 180.941C74.2169 181.801 74.9441 182.528 75.8035 182.528Z" fill="#3F3D3D"/>
<path fill-rule="evenodd" clip-rule="evenodd" d="M44.3043 149.473C45.1637 149.473 45.8909 148.779 45.8909 147.886C45.8909 147.027 45.1968 146.3 44.3043 146.3C43.4118 146.3 42.7177 147.027 42.7177 147.886C42.7507 148.779 43.4449 149.473 44.3043 149.473Z" fill="#3F3D3D"/>
<path fill-rule="evenodd" clip-rule="evenodd" d="M42.0227 180.412C42.8821 180.412 43.6093 179.685 43.6093 178.826C43.6093 177.966 42.9151 177.239 42.0227 177.239C41.1302 177.239 40.436 177.933 40.436 178.826C40.4691 179.718 41.1632 180.412 42.0227 180.412Z" fill="#3F3D3D"/>
<path fill-rule="evenodd" clip-rule="evenodd" d="M59.3448 197.369C60.2042 197.369 60.9314 196.675 60.9314 195.783C60.9314 194.923 60.2042 194.196 59.3448 194.196C58.4854 194.196 57.7582 194.89 57.7582 195.783C57.7912 196.675 58.4854 197.369 59.3448 197.369Z" fill="#3F3D3D"/>
<path fill-rule="evenodd" clip-rule="evenodd" d="M82.9777 207.682C83.8372 207.682 84.5644 206.955 84.5644 206.096C84.5644 205.236 83.8372 204.509 82.9777 204.509C82.1183 204.509 81.3911 205.236 81.3911 206.096C81.3911 206.955 82.0853 207.682 82.9777 207.682Z" fill="#3F3D3D"/>
<path fill-rule="evenodd" clip-rule="evenodd" d="M74.9775 20.4267C69.1929 20.5589 60.5656 20.5589 54.3182 20.3606C48.1039 20.1623 44.3026 19.7987 40.4682 19.4351C39.6419 20.3275 38.8485 21.2531 38.1213 22.2447C49.4261 21.9803 60.7308 21.7158 69.3582 21.9803C77.9855 22.2447 83.9353 23.005 89.8852 23.7983C88.9266 22.3439 87.8689 21.0217 86.7119 19.7656C83.737 20.03 80.7951 20.2945 74.9775 20.4267Z" fill="#FDC687"/>
<path fill-rule="evenodd" clip-rule="evenodd" d="M93.588 31.5332C89.4892 32.3596 85.3904 33.1859 78.0192 33.5165C70.648 33.8801 59.9712 33.7479 52.005 33.219C44.0388 32.6901 38.7831 31.7646 33.5274 30.8391C33.1968 31.8307 32.8663 32.8885 32.6349 33.9132C35.5437 33.7809 38.4525 33.6157 44.1049 33.847C49.7573 34.0784 58.1863 34.7395 65.4914 34.9048C72.7635 35.0701 78.9117 34.7395 83.6054 34.8717C88.2992 35.004 91.5056 35.5659 94.7119 36.1278C94.5466 35.1031 94.3152 34.0454 94.0508 33.0207C93.9186 32.5248 93.7533 32.029 93.588 31.5332Z" fill="#FDC687"/>
<path fill-rule="evenodd" clip-rule="evenodd" d="M94.5463 47.2341C87.737 47.1019 80.8947 46.9697 72.5318 46.9366C64.202 46.8705 54.3517 46.8705 47.344 46.54C40.3364 46.2094 36.1715 45.5483 32.0066 44.9203C32.1388 45.9119 32.3041 46.9036 32.5024 47.8952C44.336 47.5977 56.1697 47.3002 66.4497 47.4325C76.7298 47.5647 85.4893 48.0936 94.2158 48.6224C94.348 48.1597 94.4472 47.6969 94.5463 47.2341Z" fill="#FDC687"/>
<path fill-rule="evenodd" clip-rule="evenodd" d="M90.1489 58.2415C90.0828 58.3076 90.0166 58.3737 86.4137 58.3407C82.7446 58.3076 75.4725 58.1754 68.1674 58.1424C60.8623 58.1093 53.4911 58.2085 48.1692 58.0763C42.8143 57.944 39.5089 57.6135 36.2034 57.2499C36.7322 58.1424 37.2942 59.0348 37.9222 59.8612C47.8387 59.3984 57.7551 58.9357 66.1841 59.101C74.58 59.2662 81.4555 60.0265 88.3309 60.8198C88.9589 59.9934 89.5539 59.134 90.1489 58.2415C90.1158 58.2415 90.1158 58.2415 90.1489 58.2415Z" fill="#FDC687"/>
<path fill-rule="evenodd" clip-rule="evenodd" d="M312.313 128.318C314.098 128.318 315.553 126.863 315.553 125.079C315.553 123.294 314.098 121.872 312.313 121.872C310.528 121.872 309.074 123.327 309.074 125.079C309.074 126.863 310.528 128.318 312.313 128.318Z" fill="#F5A99A"/>
<path fill-rule="evenodd" clip-rule="evenodd" d="M312.31 126.665C313.17 126.665 313.897 125.971 313.897 125.078C313.897 124.219 313.203 123.492 312.31 123.492C311.418 123.492 310.724 124.219 310.724 125.078C310.724 125.971 311.418 126.665 312.31 126.665Z" fill="#E97F74"/>
<path fill-rule="evenodd" clip-rule="evenodd" d="M334.095 165.802C335.88 165.802 337.335 164.348 337.335 162.563C337.335 160.778 335.88 159.323 334.095 159.323C332.31 159.323 330.856 160.778 330.856 162.563C330.856 164.348 332.31 165.802 334.095 165.802Z" fill="#F5A99A"/>
<path fill-rule="evenodd" clip-rule="evenodd" d="M334.095 164.149C334.954 164.149 335.681 163.455 335.681 162.562C335.681 161.67 334.987 160.976 334.095 160.976C333.202 160.976 332.508 161.67 332.508 162.562C332.508 163.455 333.202 164.149 334.095 164.149Z" fill="#E97F74"/>
<path fill-rule="evenodd" clip-rule="evenodd" d="M293.141 162.298C294.926 162.298 296.381 160.844 296.381 159.059C296.381 157.274 294.926 155.852 293.141 155.852C291.356 155.852 289.902 157.307 289.902 159.059C289.935 160.844 291.389 162.298 293.141 162.298Z" fill="#F5A99A"/>
<path fill-rule="evenodd" clip-rule="evenodd" d="M293.14 160.645C294 160.645 294.727 159.951 294.727 159.059C294.727 158.199 294.033 157.472 293.14 157.472C292.281 157.472 291.554 158.199 291.554 159.059C291.587 159.951 292.281 160.645 293.14 160.645Z" fill="#E97F74"/>
<path fill-rule="evenodd" clip-rule="evenodd" d="M170.672 95.6926C170.672 91.726 167.466 88.5197 163.499 88.5197C159.533 88.5197 156.326 91.726 156.326 95.6926C156.326 99.6261 159.533 102.866 163.499 102.866C167.433 102.832 170.672 99.6261 170.672 95.6926ZM163.466 89.5444C166.871 89.5444 169.614 92.288 169.614 95.6926C169.614 99.0973 166.871 101.841 163.466 101.841C160.061 101.841 157.318 99.0973 157.318 95.6926C157.318 92.288 160.095 89.5444 163.466 89.5444Z" fill="white"/>
<path fill-rule="evenodd" clip-rule="evenodd" d="M175.332 138.267C174.473 137.937 171.002 138.168 168.788 138.366C166.54 138.531 165.548 138.631 165.019 138.928C164.457 139.226 164.325 139.721 165.68 140.052C167.036 140.35 169.878 140.449 172.159 140.019C174.44 139.589 176.192 138.631 175.332 138.267Z" fill="#FCD7CC"/>
<path d="M314.693 192.477C290.96 192.477 271.656 173.206 271.656 149.506C271.656 125.806 290.96 106.535 314.693 106.535C338.426 106.535 357.73 125.806 357.73 149.506C357.73 173.206 338.426 192.477 314.693 192.477ZM314.693 107.824C291.687 107.824 272.978 126.5 272.978 149.473C272.978 172.446 291.687 191.122 314.693 191.122C337.699 191.122 356.408 172.446 356.408 149.473C356.408 126.533 337.699 107.824 314.693 107.824Z" fill="white"/>
<path d="M63.4756 82.1401C40.866 82.1401 22.4875 63.7616 22.4875 41.1852C22.4875 18.6087 40.866 0.230225 63.4756 0.230225C86.0851 0.230225 104.464 18.6087 104.464 41.1852C104.43 63.7616 86.052 82.1401 63.4756 82.1401ZM63.4756 1.58547C41.5932 1.58547 23.8097 19.369 23.8097 41.2182C23.8097 63.0675 41.5932 80.851 63.4756 80.851C85.3248 80.851 103.141 63.0675 103.141 41.2182C103.141 19.369 85.3248 1.58547 63.4756 1.58547Z" fill="white"/>
<path d="M79.7038 224.739C47.6076 224.739 21.4943 198.658 21.4943 166.628C21.4943 134.565 47.6076 108.485 79.7038 108.485C111.8 108.485 137.88 134.565 137.88 166.628C137.88 198.691 111.8 224.739 79.7038 224.739ZM79.7038 109.807C48.3348 109.807 22.8165 135.292 22.8165 166.628C22.8165 197.931 48.3348 223.416 79.7038 223.416C111.073 223.416 136.558 197.931 136.558 166.628C136.558 135.292 111.073 109.807 79.7038 109.807Z" fill="white"/>
<path d="M48.1419 46L47.0499 43.466H41.8979L40.8059 46H39.6299L43.9699 36.13H44.9639L49.3039 46H48.1419ZM42.3039 42.514H46.6439L44.4739 37.46L42.3039 42.514ZM54.4638 39.994L53.7218 40.064C53.0218 40.1293 52.5131 40.3487 52.1958 40.722C51.8878 41.0953 51.7338 41.5573 51.7338 42.108V46H50.5998V39.182H51.7058V40.372C52.0885 39.5787 52.8398 39.1353 53.9598 39.042L54.3658 39.014L54.4638 39.994ZM59.3994 39.994L58.6574 40.064C57.9574 40.1293 57.4487 40.3487 57.1314 40.722C56.8234 41.0953 56.6694 41.5573 56.6694 42.108V46H55.5354V39.182H56.6414V40.372C57.024 39.5787 57.7754 39.1353 58.8954 39.042L59.3014 39.014L59.3994 39.994ZM66.2109 39.182V46H65.1049V44.838C64.8902 45.2487 64.5869 45.5613 64.1949 45.776C63.8122 45.9907 63.3782 46.098 62.8929 46.098C62.0809 46.098 61.4696 45.874 61.0589 45.426C60.6482 44.9687 60.4429 44.2967 60.4429 43.41V39.182H61.5769V43.382C61.5769 43.9887 61.6982 44.4367 61.9409 44.726C62.1836 45.006 62.5662 45.146 63.0889 45.146C63.6862 45.146 64.1669 44.9547 64.5309 44.572C64.8949 44.18 65.0769 43.6667 65.0769 43.032V39.182H66.2109ZM74.4226 39.182V45.538C74.4226 46.5553 74.1612 47.3207 73.6386 47.834C73.1159 48.3567 72.3412 48.618 71.3146 48.618C70.1199 48.618 69.1166 48.31 68.3046 47.694L68.6826 46.854C69.1399 47.1527 69.5692 47.3673 69.9706 47.498C70.3719 47.6287 70.8199 47.694 71.3146 47.694C71.9679 47.694 72.4626 47.5167 72.7986 47.162C73.1346 46.8167 73.3026 46.308 73.3026 45.636V44.432C73.1066 44.8707 72.8032 45.2067 72.3926 45.44C71.9912 45.6733 71.5152 45.79 70.9646 45.79C70.3672 45.79 69.8352 45.65 69.3686 45.37C68.9112 45.09 68.5519 44.6933 68.2906 44.18C68.0386 43.6667 67.9126 43.074 67.9126 42.402C67.9126 41.73 68.0386 41.1373 68.2906 40.624C68.5519 40.1107 68.9112 39.714 69.3686 39.434C69.8352 39.154 70.3672 39.014 70.9646 39.014C71.5059 39.014 71.9772 39.1307 72.3786 39.364C72.7799 39.5973 73.0832 39.9287 73.2886 40.358V39.182H74.4226ZM71.1886 44.852C71.8419 44.852 72.3552 44.6373 72.7286 44.208C73.1019 43.7693 73.2886 43.1673 73.2886 42.402C73.2886 41.646 73.1019 41.0533 72.7286 40.624C72.3646 40.1853 71.8512 39.966 71.1886 39.966C70.5259 39.966 70.0032 40.1853 69.6206 40.624C69.2472 41.0533 69.0606 41.646 69.0606 42.402C69.0606 43.1673 69.2472 43.7693 69.6206 44.208C70.0032 44.6373 70.5259 44.852 71.1886 44.852ZM79.2937 39.014C80.1617 39.014 80.8057 39.238 81.2257 39.686C81.655 40.1247 81.8697 40.7967 81.8697 41.702V46H80.7637V44.838C80.5863 45.2393 80.3157 45.552 79.9517 45.776C79.5877 45.9907 79.1677 46.098 78.6917 46.098C78.253 46.098 77.847 46.0093 77.4737 45.832C77.1097 45.6547 76.8203 45.4073 76.6057 45.09C76.391 44.7727 76.2837 44.4227 76.2837 44.04C76.2837 43.5267 76.4143 43.13 76.6757 42.85C76.937 42.5607 77.3663 42.3553 77.9637 42.234C78.561 42.1033 79.3917 42.038 80.4557 42.038H80.7637V41.576C80.7637 41.0067 80.647 40.596 80.4137 40.344C80.1803 40.0827 79.8023 39.952 79.2797 39.952C78.4957 39.952 77.7163 40.1947 76.9417 40.68L76.5637 39.854C76.9183 39.602 77.343 39.4013 77.8377 39.252C78.3417 39.0933 78.827 39.014 79.2937 39.014ZM78.8457 45.202C79.4057 45.202 79.863 45.0153 80.2177 44.642C80.5817 44.2593 80.7637 43.7693 80.7637 43.172V42.766H80.5117C79.6903 42.766 79.065 42.8033 78.6357 42.878C78.2063 42.9433 77.8983 43.06 77.7117 43.228C77.5343 43.3867 77.4457 43.6247 77.4457 43.942C77.4457 44.306 77.5763 44.6093 77.8377 44.852C78.1083 45.0853 78.4443 45.202 78.8457 45.202ZM86.2555 46.098C85.1075 46.098 84.1975 45.804 83.5255 45.216L83.9035 44.376C84.2675 44.6653 84.6362 44.8753 85.0095 45.006C85.3922 45.1273 85.8215 45.188 86.2975 45.188C86.8015 45.188 87.1842 45.104 87.4455 44.936C87.7162 44.7587 87.8515 44.5067 87.8515 44.18C87.8515 43.9093 87.7628 43.6947 87.5855 43.536C87.4082 43.3773 87.1142 43.2513 86.7035 43.158L85.5555 42.892C84.9768 42.7613 84.5335 42.5373 84.2255 42.22C83.9175 41.9027 83.7635 41.5107 83.7635 41.044C83.7635 40.4373 84.0015 39.9473 84.4775 39.574C84.9535 39.2007 85.5882 39.014 86.3815 39.014C86.8575 39.014 87.3102 39.0933 87.7395 39.252C88.1688 39.4013 88.5282 39.6207 88.8175 39.91L88.4395 40.736C87.8142 40.204 87.1282 39.938 86.3815 39.938C85.9055 39.938 85.5322 40.0313 85.2615 40.218C85.0002 40.3953 84.8695 40.6473 84.8695 40.974C84.8695 41.2447 84.9488 41.464 85.1075 41.632C85.2755 41.7907 85.5415 41.912 85.9055 41.996L87.0675 42.276C87.7022 42.4253 88.1735 42.654 88.4815 42.962C88.7895 43.2607 88.9435 43.6527 88.9435 44.138C88.9435 44.7353 88.7008 45.2113 88.2155 45.566C87.7395 45.9207 87.0862 46.098 86.2555 46.098Z" fill="black"/>
<path d="M287.645 155V145.13H293.889V146.082H288.779V149.512H293.609V150.464H288.779V154.048H293.889V155H287.645ZM297.935 155.098C296.787 155.098 295.877 154.804 295.205 154.216L295.583 153.376C295.947 153.665 296.316 153.875 296.689 154.006C297.072 154.127 297.501 154.188 297.977 154.188C298.481 154.188 298.864 154.104 299.125 153.936C299.396 153.759 299.531 153.507 299.531 153.18C299.531 152.909 299.443 152.695 299.265 152.536C299.088 152.377 298.794 152.251 298.383 152.158L297.235 151.892C296.657 151.761 296.213 151.537 295.905 151.22C295.597 150.903 295.443 150.511 295.443 150.044C295.443 149.437 295.681 148.947 296.157 148.574C296.633 148.201 297.268 148.014 298.061 148.014C298.537 148.014 298.99 148.093 299.419 148.252C299.849 148.401 300.208 148.621 300.497 148.91L300.119 149.736C299.494 149.204 298.808 148.938 298.061 148.938C297.585 148.938 297.212 149.031 296.941 149.218C296.68 149.395 296.549 149.647 296.549 149.974C296.549 150.245 296.629 150.464 296.787 150.632C296.955 150.791 297.221 150.912 297.585 150.996L298.747 151.276C299.382 151.425 299.853 151.654 300.161 151.962C300.469 152.261 300.623 152.653 300.623 153.138C300.623 153.735 300.381 154.211 299.895 154.566C299.419 154.921 298.766 155.098 297.935 155.098ZM305.782 148.014C306.379 148.014 306.906 148.163 307.364 148.462C307.821 148.761 308.176 149.181 308.428 149.722C308.68 150.254 308.806 150.875 308.806 151.584C308.806 152.293 308.68 152.914 308.428 153.446C308.176 153.969 307.821 154.375 307.364 154.664C306.916 154.953 306.388 155.098 305.782 155.098C305.25 155.098 304.783 154.981 304.382 154.748C303.99 154.515 303.691 154.183 303.486 153.754V157.52H302.352V148.182H303.486V149.358C303.691 148.929 303.99 148.597 304.382 148.364C304.783 148.131 305.25 148.014 305.782 148.014ZM305.558 154.16C306.22 154.16 306.734 153.936 307.098 153.488C307.462 153.04 307.644 152.405 307.644 151.584C307.644 150.763 307.462 150.123 307.098 149.666C306.734 149.199 306.22 148.966 305.558 148.966C304.895 148.966 304.382 149.19 304.018 149.638C303.663 150.086 303.486 150.725 303.486 151.556C303.486 152.387 303.663 153.031 304.018 153.488C304.382 153.936 304.895 154.16 305.558 154.16ZM310.5 155V148.182H311.634V155H310.5ZM310.388 145.228H311.76V146.502H310.388V145.228ZM317.184 148.014C318.817 148.014 319.634 148.915 319.634 150.716V155H318.5V150.786C318.5 150.151 318.374 149.689 318.122 149.4C317.879 149.111 317.487 148.966 316.946 148.966C316.321 148.966 315.821 149.157 315.448 149.54C315.075 149.923 314.888 150.441 314.888 151.094V155H313.754V148.182H314.874V149.302C315.098 148.882 315.411 148.565 315.812 148.35C316.213 148.126 316.671 148.014 317.184 148.014ZM321.711 155V148.182H322.845V155H321.711ZM321.599 145.228H322.971V146.502H321.599V145.228ZM324.965 155V145.13H326.099V155H324.965ZM328.219 155V145.13H329.353V155H328.219ZM334.245 148.014C335.113 148.014 335.757 148.238 336.177 148.686C336.606 149.125 336.821 149.797 336.821 150.702V155H335.715V153.838C335.538 154.239 335.267 154.552 334.903 154.776C334.539 154.991 334.119 155.098 333.643 155.098C333.204 155.098 332.798 155.009 332.425 154.832C332.061 154.655 331.772 154.407 331.557 154.09C331.342 153.773 331.235 153.423 331.235 153.04C331.235 152.527 331.366 152.13 331.627 151.85C331.888 151.561 332.318 151.355 332.915 151.234C333.512 151.103 334.343 151.038 335.407 151.038H335.715V150.576C335.715 150.007 335.598 149.596 335.365 149.344C335.132 149.083 334.754 148.952 334.231 148.952C333.447 148.952 332.668 149.195 331.893 149.68L331.515 148.854C331.87 148.602 332.294 148.401 332.789 148.252C333.293 148.093 333.778 148.014 334.245 148.014ZM333.797 154.202C334.357 154.202 334.814 154.015 335.169 153.642C335.533 153.259 335.715 152.769 335.715 152.172V151.766H335.463C334.642 151.766 334.016 151.803 333.587 151.878C333.158 151.943 332.85 152.06 332.663 152.228C332.486 152.387 332.397 152.625 332.397 152.942C332.397 153.306 332.528 153.609 332.789 153.852C333.06 154.085 333.396 154.202 333.797 154.202ZM341.207 155.098C340.059 155.098 339.149 154.804 338.477 154.216L338.855 153.376C339.219 153.665 339.587 153.875 339.961 154.006C340.343 154.127 340.773 154.188 341.249 154.188C341.753 154.188 342.135 154.104 342.397 153.936C342.667 153.759 342.803 153.507 342.803 153.18C342.803 152.909 342.714 152.695 342.537 152.536C342.359 152.377 342.065 152.251 341.655 152.158L340.507 151.892C339.928 151.761 339.485 151.537 339.177 151.22C338.869 150.903 338.715 150.511 338.715 150.044C338.715 149.437 338.953 148.947 339.429 148.574C339.905 148.201 340.539 148.014 341.333 148.014C341.809 148.014 342.261 148.093 342.691 148.252C343.12 148.401 343.479 148.621 343.769 148.91L343.391 149.736C342.765 149.204 342.079 148.938 341.333 148.938C340.857 148.938 340.483 149.031 340.213 149.218C339.951 149.395 339.821 149.647 339.821 149.974C339.821 150.245 339.9 150.464 340.059 150.632C340.227 150.791 340.493 150.912 340.857 150.996L342.019 151.276C342.653 151.425 343.125 151.654 343.433 151.962C343.741 152.261 343.895 152.653 343.895 153.138C343.895 153.735 343.652 154.211 343.167 154.566C342.691 154.921 342.037 155.098 341.207 155.098Z" fill="black"/>
<path d="M66.4146 173L64.5426 168.656H55.7106L53.8386 173H51.8226L59.2626 156.08H60.9666L68.4066 173H66.4146ZM56.4066 167.024H63.8466L60.1266 158.36L56.4066 167.024ZM75.5721 173.168C74.4201 173.168 73.4201 172.92 72.5721 172.424C71.7241 171.928 71.0681 171.232 70.6041 170.336C70.1561 169.424 69.9321 168.36 69.9321 167.144C69.9321 165.928 70.1641 164.864 70.6281 163.952C71.1081 163.024 71.7721 162.304 72.6201 161.792C73.4841 161.28 74.4921 161.024 75.6441 161.024C76.4281 161.024 77.1961 161.168 77.9481 161.456C78.7001 161.728 79.3081 162.096 79.7721 162.56L79.1241 164C78.0201 163.104 76.9001 162.656 75.7641 162.656C74.5641 162.656 73.6281 163.048 72.9561 163.832C72.2841 164.616 71.9481 165.72 71.9481 167.144C71.9481 168.552 72.2841 169.64 72.9561 170.408C73.6281 171.176 74.5641 171.56 75.7641 171.56C76.9001 171.56 78.0201 171.112 79.1241 170.216L79.7721 171.656C79.2761 172.12 78.6521 172.488 77.9001 172.76C77.1481 173.032 76.3721 173.168 75.5721 173.168ZM87.9925 161.024C90.7925 161.024 92.1925 162.568 92.1925 165.656V173H90.2485V165.776C90.2485 164.688 90.0325 163.896 89.6005 163.4C89.1845 162.904 88.5125 162.656 87.5845 162.656C86.5125 162.656 85.6565 162.984 85.0165 163.64C84.3765 164.296 84.0565 165.184 84.0565 166.304V173H82.1125V161.312H84.0325V163.232C84.4165 162.512 84.9525 161.968 85.6405 161.6C86.3285 161.216 87.1125 161.024 87.9925 161.024ZM105.545 167.456H97.0011C97.0651 168.816 97.4331 169.848 98.1051 170.552C98.7771 171.24 99.7291 171.584 100.961 171.584C102.321 171.584 103.569 171.12 104.705 170.192L105.353 171.608C104.841 172.088 104.185 172.472 103.385 172.76C102.585 173.032 101.769 173.168 100.937 173.168C99.1131 173.168 97.6731 172.632 96.6171 171.56C95.5771 170.488 95.0571 169.008 95.0571 167.12C95.0571 165.92 95.2891 164.864 95.7531 163.952C96.2171 163.024 96.8651 162.304 97.6971 161.792C98.5451 161.28 99.5051 161.024 100.577 161.024C102.129 161.024 103.345 161.536 104.225 162.56C105.105 163.568 105.545 164.96 105.545 166.736V167.456ZM100.601 162.536C99.5771 162.536 98.7531 162.856 98.1291 163.496C97.5211 164.136 97.1611 165.04 97.0491 166.208H103.841C103.809 165.024 103.513 164.12 102.953 163.496C102.393 162.856 101.609 162.536 100.601 162.536ZM101.249 159.776H99.9051L102.281 154.928H104.513L101.249 159.776Z" fill="black"/>
</g>
</g>
<defs>
<clipPath id="clip0">
<rect width="468" height="234" rx="9.25842" fill="white"/>
</clipPath>
<clipPath id="clip1">
<rect width="472" height="264.274" fill="white" transform="translate(0 -8)"/>
</clipPath>
</defs>
</svg>
