<svg width="468" height="234" viewBox="0 0 468 234" fill="none" xmlns="http://www.w3.org/2000/svg">
<g clip-path="url(#clip0)">
<rect width="468" height="234" rx="9.25842" fill="#FBF4F6"/>
<g clip-path="url(#clip1)">
<path d="M433.196 -7.50455H273.871V256.604H433.196V-7.50455Z" fill="#C0A696"/>
<path d="M471.998 -7.83522H0V256.273H471.998V-7.83522Z" fill="#845A46"/>
<path d="M168.557 -15.4873H0V263.925H168.557V-15.4873Z" fill="#C28E76"/>
<path fill-rule="evenodd" clip-rule="evenodd" d="M180.257 -7.83527C197.974 7.23773 215.725 22.3107 226.666 33.1858C237.64 44.0939 241.805 50.804 246.135 59.3322C250.465 67.8934 254.895 78.2726 259.357 88.6849C260.316 89.7757 260.778 89.5443 261.605 88.5196C262.993 86.8007 265.439 82.8011 266.695 80.322C267.951 77.8429 268.051 76.9173 267.786 68.0917C267.489 59.2991 266.861 42.6064 266.53 33.7147C266.199 24.8229 266.199 23.699 262.167 18.0467C261.572 17.1872 260.845 16.2617 260.084 15.237C255.688 9.3863 248.78 0.758986 241.871 -7.90138H180.257V-7.83527Z" fill="#FEE9DD"/>
<path fill-rule="evenodd" clip-rule="evenodd" d="M226.667 33.1858C215.726 22.3108 197.975 7.23779 180.258 -7.83522H149.781C157.417 -3.20754 165.053 1.45319 172.655 6.31225C180.092 11.0722 187.497 16.0304 194.868 21.4183C209.71 32.2934 224.254 44.8873 238.798 57.4481C240.12 59.3653 241.409 61.2494 242.566 63.2657L256.185 84.1564C257.705 86.4702 258.664 87.9247 259.358 88.718C254.929 78.3057 250.466 67.9265 246.136 59.3653C241.839 50.8041 237.641 44.0939 226.667 33.1858Z" fill="#F3D0B6"/>
<path fill-rule="evenodd" clip-rule="evenodd" d="M138.378 13.2207C142.312 6.18003 146.047 -0.827592 149.815 -7.83522H119.273C116.761 -0.199551 114.248 7.43612 112.992 11.9646C111.736 16.4931 111.736 17.8814 113.885 24.5255C116.033 31.1695 120.364 43.1023 124.661 55.0351C124.528 51.5313 124.595 48.0275 124.991 44.722C126.346 34.1444 131.371 25.6493 136.131 17.2534C136.858 15.9312 137.618 14.576 138.378 13.2207Z" fill="#FEE9DD"/>
<path fill-rule="evenodd" clip-rule="evenodd" d="M241.837 -7.83522C248.746 0.792094 255.654 9.45246 260.05 15.3032C260.315 10.6755 260.612 6.04781 260.745 3.50259C260.877 0.957368 260.877 0.494601 259.951 -1.05898C258.993 -2.61255 257.142 -5.22389 255.257 -7.83522H241.837Z" fill="#F3D0B6"/>
<path fill-rule="evenodd" clip-rule="evenodd" d="M187.695 172.248C187.332 174.462 186.704 176.71 185.448 179.024C183.828 182.032 181.151 185.238 176.292 188.676C175.002 189.601 173.581 190.527 171.994 191.452C164.293 195.981 152.624 200.906 143.501 205.104C134.378 209.302 127.734 212.74 123.073 217.764C118.413 222.788 115.702 229.399 114.479 236.109C113.256 242.787 113.553 249.53 113.818 256.273H194.141H261.242H277.638V218.723V192.742C271.159 190.395 264.68 188.081 259.028 184.841C253.375 181.635 248.516 177.47 246.07 173.537C243.624 169.57 243.624 165.769 243.624 162.001C243.657 156.943 243.756 151.952 243.955 146.994C244.616 129.838 246.368 113.344 248.12 96.8495C247.591 96.8495 247.029 96.8825 246.467 96.8825C245.608 105.278 244.616 113.641 242.864 120.12C241.145 126.599 238.699 131.16 230.733 138.664C222.767 146.167 209.214 156.613 199.265 162.728C195.034 165.306 191.464 167.091 188.257 168.116C188.092 169.471 187.96 170.859 187.695 172.248Z" fill="#FED3A4"/>
<path fill-rule="evenodd" clip-rule="evenodd" d="M149.814 -7.83522C145.319 0.527656 140.856 8.85747 136.096 17.2865C131.337 25.6824 126.312 34.1775 124.957 44.755C123.602 55.3326 125.949 68.0256 127.139 76.2893C128.329 84.553 128.428 88.4866 128.262 92.6845C128.064 96.8825 127.601 101.345 132.229 110.865C136.857 120.384 146.542 134.896 154.772 146.002C162.97 157.108 169.713 164.744 176.258 167.686C182.836 170.628 189.282 168.843 199.264 162.761C209.247 156.646 222.766 146.2 230.732 138.697C238.699 131.193 241.112 126.632 242.864 120.153C244.582 113.674 245.607 105.311 246.467 96.9156C247.293 88.5196 247.954 80.1568 246.665 73.5788C245.343 67.0009 242.103 62.2741 238.831 57.5142C224.287 44.9534 209.743 32.3595 194.901 21.4844C180.059 10.6094 164.92 1.35403 149.814 -7.83522Z" fill="#FED3A4"/>
<path fill-rule="evenodd" clip-rule="evenodd" d="M177.681 76.2563C177.615 76.058 178.276 75.0994 179.532 74.9341C180.788 74.8019 182.672 75.496 185.746 76.0249C188.82 76.5538 193.084 76.9505 197.679 75.9588C202.274 74.9672 207.166 72.6533 210.636 70.3064C214.074 67.9595 216.09 65.5796 217.247 64.4888C218.404 63.398 218.702 63.5632 219.594 63.7285C220.454 63.8607 221.908 63.9599 223.131 63.6624C224.354 63.3649 225.445 62.6708 226.106 62.0758C226.767 61.4808 227.032 61.018 226.668 61.5138C226.271 62.0097 225.28 63.4641 223.957 64.4557C222.635 65.4804 221.049 66.1085 219.859 66.439C218.669 66.7696 217.942 66.8026 217.942 66.9018C217.975 67.0009 218.768 67.1332 219.594 67.1993C220.421 67.2654 221.247 67.2654 222.106 66.9679C222.966 66.6704 223.792 66.0424 223.991 66.0754C224.156 66.1085 223.66 66.7365 222.801 67.4637C221.908 68.1579 220.619 68.9181 218.999 69.6123C217.38 70.3064 215.429 70.9675 214.471 71.3642C213.545 71.7608 213.611 71.8931 214.206 71.9261C214.801 71.9592 215.925 71.86 216.024 71.9922C216.123 72.1244 215.165 72.5211 212.917 73.3805C210.636 74.24 207.033 75.5952 203.265 76.6199C199.464 77.6446 195.53 78.3388 191.993 78.3388C188.49 78.3388 185.416 77.6446 183.366 77.0166C181.35 76.3885 180.358 75.8266 179.466 75.8596C178.54 75.8266 177.747 76.4216 177.681 76.2563Z" fill="#554745"/>
<path fill-rule="evenodd" clip-rule="evenodd" d="M156.657 80.1568C156.921 80.1237 156.227 79.5618 155.467 79.2643C154.707 78.9668 153.847 78.9007 152.789 79.5948C151.732 80.2559 150.443 81.6442 147.765 82.735C145.088 83.8258 141.088 84.6522 138.311 84.9167C135.535 85.1811 134.047 84.9167 132.857 84.52C131.634 84.1564 130.709 83.6936 130.048 83.3961C129.387 83.0986 129.023 82.9664 128.659 82.8011C127.932 83.3961 127.172 84.0242 126.346 84.3878C125.552 84.7514 124.66 84.8836 123.139 84.7844C121.619 84.6853 119.503 84.3878 117.322 84.0903C118.115 84.6192 118.875 85.148 120.065 85.5447C121.255 85.9414 122.842 86.2389 123.999 86.2719C125.156 86.305 125.916 86.0736 126.676 85.8752C125.817 86.2388 124.99 86.6024 124.263 86.8669C123.536 87.1313 122.941 87.2635 122.346 87.3958C123.569 87.6602 124.792 87.8916 125.949 87.9246C127.139 87.9246 128.23 87.6933 129.354 87.4619C128.99 87.7924 128.626 88.123 128.031 88.3874C127.403 88.6519 126.544 88.9163 125.651 89.1477C127.502 89.2138 129.387 89.313 132.593 88.9163C135.832 88.5196 140.394 87.6272 144.03 86.2388C147.666 84.8836 150.376 83.0325 151.831 81.7764C153.285 80.5204 153.55 79.8923 154.277 79.8262C155.136 79.694 156.392 80.1898 156.657 80.1568Z" fill="#554745"/>
<path fill-rule="evenodd" clip-rule="evenodd" d="M176.391 62.4063C178.01 61.7452 180.754 60.6544 184.522 58.4067C188.29 56.159 193.149 52.7874 197.248 50.8041C201.347 48.8538 204.719 48.325 208.454 49.0191C212.189 49.7133 216.288 51.6304 216.618 51.5974C216.949 51.5643 213.511 49.548 210.04 48.2588C206.603 46.9697 203.132 46.3417 199.694 46.8044C196.256 47.2672 192.786 48.8208 188.654 50.738C184.489 52.6551 179.663 55.002 176.886 56.2912C174.143 57.5803 173.482 57.8117 173.283 58.8695C173.085 59.9272 173.383 61.7783 173.779 62.5716C174.209 63.3649 174.738 63.0674 176.391 62.4063Z" fill="#794D1C"/>
<path fill-rule="evenodd" clip-rule="evenodd" d="M149.979 67.7942C148.359 67.6289 145.351 67.3314 142.31 66.3398C139.269 65.3151 136.228 63.5301 133.815 62.3071C131.369 61.0841 129.584 60.423 128.361 60.1255C127.105 59.828 126.444 59.8941 126.047 60.5882C125.65 61.3154 125.518 62.6376 125.518 63.7946C125.518 64.9515 125.65 65.9431 125.551 66.1415C125.452 66.3398 125.154 65.7448 124.89 64.4887C124.626 63.2326 124.427 61.2824 124.824 59.9932C125.221 58.6711 126.179 58.01 128.592 58.1091C131.005 58.2083 134.873 59.1008 138.641 59.828C142.409 60.5552 146.111 61.1502 148.194 62.0096C150.276 62.869 150.706 63.9929 151.069 65.0176C151.433 66.0753 151.697 67.0339 151.73 67.4967C151.797 68.0256 151.565 67.9595 149.979 67.7942Z" fill="#6B4520"/>
<path fill-rule="evenodd" clip-rule="evenodd" d="M138.346 84.8837C141.122 84.6192 145.122 83.7929 147.799 82.7021C150.444 81.6113 151.733 80.223 152.824 79.5619C153.881 78.9008 154.741 78.9338 155.501 79.2313C155.766 79.3305 156.03 79.4627 156.228 79.5949C154.741 77.7438 153.286 75.8928 150.411 74.1409C147.568 72.389 143.304 70.7362 139.602 70.2735C135.9 69.8107 132.726 70.5048 131.074 70.9015C129.421 71.2982 129.289 71.3973 129.256 72.6203C129.223 73.8434 129.322 76.1572 129.256 78.0413C129.19 79.9255 128.925 81.3468 128.628 82.2062C128.429 82.7351 128.231 83.0326 128.033 83.264V83.2971C128.264 83.1318 128.495 82.9665 128.694 82.7682C129.057 82.9004 129.421 83.0326 130.082 83.3632C130.743 83.6607 131.669 84.1234 132.892 84.487C134.082 84.8837 135.569 85.1481 138.346 84.8837Z" fill="#FDC687"/>
<path fill-rule="evenodd" clip-rule="evenodd" d="M181.977 66.7696C179.763 69.6454 178.738 72.8187 177.746 75.9919C177.945 75.6283 178.573 75.0334 179.531 74.9342C180.787 74.802 182.672 75.4961 185.746 76.025C188.82 76.5539 193.084 76.9505 197.678 75.9589C202.273 74.9672 207.165 72.6534 210.636 70.3065C214.074 67.9596 216.09 65.5797 217.247 64.4889C213.479 62.2081 209.71 59.9273 205.38 58.9687C201.05 57.9771 196.158 58.3076 191.96 59.7951C187.762 61.2164 184.258 63.8608 181.977 66.7696Z" fill="#FDC687"/>
<path fill-rule="evenodd" clip-rule="evenodd" d="M156.722 112.319C156.953 112.98 159.267 112.683 161.449 113.245C163.631 113.774 165.878 113.906 168.126 113.807C170.374 113.674 172.621 113.311 174.803 112.154C175.663 111.691 176.489 111.162 177.249 110.633L179.728 109.212C180.918 105.212 168.39 96.0562 165.614 96.2546C161.779 96.5851 155.268 108.32 156.722 112.319Z" fill="#FECD98"/>
<path fill-rule="evenodd" clip-rule="evenodd" d="M168.128 113.807C165.88 113.939 163.632 113.807 161.451 113.245C159.269 112.716 157.154 111.79 156.724 112.319C156.327 112.881 157.583 114.93 159.963 116.517C162.343 118.137 165.814 119.294 169.02 118.798C172.193 118.302 175.102 116.153 177.152 113.939C179.168 111.691 180.292 109.377 179.763 109.179L177.284 110.6C176.524 111.129 175.697 111.658 174.838 112.121C172.59 113.311 170.342 113.674 168.128 113.807Z" fill="#FAAD72"/>
<path fill-rule="evenodd" clip-rule="evenodd" d="M163.034 135.061C163.365 134.962 163.662 134.863 163.926 134.764C165.05 134.4 165.778 134.235 167.034 134.169C167.562 134.136 168.191 134.102 168.852 134.102C168.686 134.102 168.488 134.136 168.323 134.136C167.43 134.202 166.439 134.301 165.183 134.532C164.521 134.697 163.794 134.863 163.034 135.061ZM179.727 132.681C178.801 132.78 177.942 132.846 177.181 132.946C175.859 133.111 174.835 133.309 173.942 133.474C174.967 133.309 176.091 133.144 177.38 132.946C178.074 132.879 178.867 132.78 179.727 132.681ZM173.116 127.26C171.661 127.525 170.141 128.12 168.554 128.219C167.001 128.285 165.381 127.855 164.158 127.987C162.935 128.12 162.042 128.88 160.952 130.103C159.828 131.326 158.505 133.012 157.282 133.871C156.754 134.235 156.225 134.466 155.828 134.598C155.464 134.433 155.167 134.268 154.869 134.202C154.076 133.937 153.746 134.202 153.911 134.466C154.043 134.697 154.473 134.929 154.969 135.193C155.101 135.259 155.2 135.325 155.332 135.392C155.398 135.425 155.464 135.458 155.497 135.491C156.225 135.854 156.952 136.284 157.944 136.416C158.935 136.582 160.125 136.482 161.613 136.086C163.1 135.689 164.852 134.962 166.339 134.863C167.86 134.764 169.116 135.325 169.909 135.491C170.703 135.689 170.967 135.491 171.727 135.061C172.455 134.631 173.645 134.003 175.826 133.706C178.008 133.408 181.181 133.474 184.619 132.912C186.734 132.549 188.982 131.921 190.8 131.326C191.924 130.962 192.883 130.599 193.577 130.301C195.461 129.508 195.56 129.177 195.428 128.913C195.296 128.648 194.998 128.45 194.734 128.483C194.469 128.483 194.238 128.681 193.973 128.88C193.907 128.748 193.345 128.781 192.387 128.88C190.866 129.078 188.387 129.475 185.71 129.243C183.032 129.012 180.156 128.153 178.041 127.657C175.925 127.161 174.57 127.029 173.116 127.26Z" fill="#E97F74"/>
<path fill-rule="evenodd" clip-rule="evenodd" d="M175.827 133.673C173.646 133.97 172.456 134.598 171.728 135.028C171.001 135.458 170.704 135.623 169.91 135.458C169.117 135.292 167.861 134.73 166.34 134.83C164.82 134.929 163.101 135.656 161.614 136.053C161.316 136.119 161.019 136.218 160.721 136.251C159.829 136.449 158.87 136.515 157.945 136.383C158.54 137.871 159.135 139.358 159.829 140.647C160.523 141.936 161.349 143.027 163.002 143.655C164.688 144.316 167.266 144.581 170.175 144.382C173.051 144.217 176.257 143.655 178.769 142.994C181.248 142.333 183.033 141.573 184.388 140.68C185.744 139.755 186.702 138.697 187.463 137.474C188.223 136.251 188.818 134.83 189.314 133.772C189.842 132.714 190.305 132.02 190.801 131.293C190.371 131.425 189.942 131.557 189.545 131.689C188.024 132.152 186.306 132.582 184.653 132.879C181.182 133.441 178.009 133.375 175.827 133.673Z" fill="#F5A99A"/>
<path fill-rule="evenodd" clip-rule="evenodd" d="M193.944 128.88C194.209 128.681 194.473 128.483 194.738 128.45C195.002 128.45 195.333 128.615 195.432 128.88C195.531 129.144 195.432 129.475 193.581 130.268C191.697 131.061 188.027 132.317 184.59 132.879C181.152 133.474 177.979 133.408 175.797 133.673C173.616 133.97 172.426 134.598 171.698 135.028C170.971 135.458 170.674 135.623 169.88 135.458C169.087 135.292 167.831 134.73 166.31 134.83C164.79 134.929 163.071 135.656 161.584 136.053C160.096 136.449 158.873 136.548 157.915 136.383C156.923 136.218 156.196 135.821 155.468 135.458C154.741 135.094 154.047 134.73 153.882 134.433C153.717 134.135 154.08 133.904 154.84 134.168C155.634 134.433 156.857 135.193 157.948 135.524C159.038 135.854 159.964 135.755 161.187 135.425C162.41 135.094 163.931 134.499 165.187 134.235C166.443 133.97 167.434 134.036 168.327 134.069C169.219 134.069 170.046 134.036 170.938 133.937C171.831 133.838 172.822 133.673 173.88 133.507C174.938 133.342 176.029 133.177 177.318 132.978C178.607 132.813 180.094 132.648 181.681 132.45C183.268 132.251 184.92 131.987 186.342 131.722C187.763 131.425 188.92 131.094 190.011 130.731C191.102 130.367 192.093 129.937 192.754 129.607C193.415 129.309 193.68 129.078 193.944 128.88Z" fill="#92232C"/>
<path fill-rule="evenodd" clip-rule="evenodd" d="M164.625 111.228C167.467 111.228 169.814 110.237 169.814 108.981C169.814 107.758 167.5 106.733 164.625 106.733C161.782 106.733 159.435 107.725 159.435 108.981C159.435 110.237 161.782 111.228 164.625 111.228Z" fill="#FFE3C2"/>
<path fill-rule="evenodd" clip-rule="evenodd" d="M246.632 73.5457C247.955 80.1237 247.293 88.5196 246.434 96.8825L248.087 96.8494C250.103 96.7833 251.987 96.7172 253.21 96.5189C254.764 96.2875 255.293 95.8578 256.119 94.5356C256.978 93.2134 258.135 90.9656 259.325 88.7179C258.631 87.9246 257.673 86.4702 256.152 84.1563L242.6 63.2657C244.352 66.3067 245.839 69.5792 246.632 73.5457Z" fill="#FAAD72"/>
<path fill-rule="evenodd" clip-rule="evenodd" d="M226.601 61.5799C226.634 61.5469 226.634 61.5138 226.667 61.5138C226.931 61.1502 226.865 61.2824 226.601 61.5799ZM234.93 87.2635C232.947 92.7506 227.625 98.7005 225.08 103.692C222.568 108.683 222.832 112.683 222.799 118.467C222.766 124.252 222.37 131.788 217.643 139.391C212.883 146.994 203.727 154.629 196.124 159.356C188.488 164.083 182.373 165.868 178.341 166.132C174.275 166.397 172.258 165.075 170.275 163.455C168.292 161.835 166.342 159.951 164.391 158.034C168.556 162.695 172.457 165.967 176.258 167.686C180.059 169.372 183.828 169.504 188.257 168.116C191.496 167.124 195.066 165.306 199.264 162.728C209.247 156.613 222.766 146.167 230.732 138.664C238.699 131.16 241.112 126.599 242.864 120.12C244.582 113.641 245.607 105.278 246.467 96.8825C247.293 88.4866 247.954 80.1237 246.665 73.5458C245.872 69.6122 244.384 66.3068 242.599 63.2988L238.831 57.4811C224.287 44.9203 209.743 32.3264 194.901 21.4513C187.563 16.0634 180.159 11.0721 172.688 6.34528C170.705 5.0892 168.755 3.83312 164.92 3.60173C161.086 3.33729 155.434 4.0645 150.707 5.84946C145.98 7.63442 142.179 10.4441 138.377 13.2868C137.617 14.642 136.857 15.9973 136.096 17.3525C131.337 25.7485 126.312 34.2436 124.957 44.8211C124.527 48.1266 124.461 51.6304 124.626 55.1342C124.957 50.5065 125.254 45.8789 127.172 39.5985C129.089 33.285 132.593 25.3518 136.791 19.435C140.989 13.5182 145.848 9.71688 151.599 8.26247C157.351 6.80805 163.929 7.70053 172.787 11.4357C181.646 15.1709 192.719 21.7158 202.14 29.3845C211.561 37.0202 219.329 45.7467 221.047 52.3246C222.403 57.5142 219.99 61.3816 218.403 63.7946C218.8 63.6624 219.13 63.7615 219.626 63.8277C220.485 63.9599 221.94 64.059 223.163 63.7615C224.386 63.4641 225.477 62.7699 226.138 62.1749C226.336 61.9766 226.501 61.8113 226.634 61.6791C226.237 62.241 225.245 63.5963 223.989 64.5549C222.667 65.5796 221.08 66.2076 219.89 66.5381C218.7 66.8687 217.973 66.9017 217.973 67.0009C218.006 67.1001 218.8 67.2323 219.626 67.2984C220.452 67.3645 221.279 67.3645 222.138 67.067C222.998 66.7695 223.824 66.1415 224.022 66.1745C224.188 66.2076 223.692 66.8356 222.832 67.5628C221.94 68.257 220.651 69.0173 219.031 69.7114C217.411 70.4056 215.461 71.0667 214.503 71.4633C213.577 71.86 213.643 71.9922 214.238 72.0252C214.833 72.0583 215.957 71.9591 216.056 72.0914C216.155 72.2236 215.197 72.6202 212.949 73.4797C210.668 74.3391 207.065 75.6943 203.297 76.719C199.496 77.7437 195.562 78.4379 192.025 78.4379C188.521 78.4379 185.447 77.7437 183.398 77.1157C181.382 76.4877 180.39 75.9257 179.497 75.9588C178.638 75.9588 177.845 76.5538 177.746 76.4215C177.712 76.4877 177.679 76.6199 177.613 76.9174C177.481 77.4132 177.25 78.4048 178.208 78.5371C179.134 78.6693 181.282 77.909 185.414 78.2396C189.579 78.5701 195.727 79.9584 202.008 78.5701C208.288 77.1818 214.635 72.9838 220.056 71.3972C225.477 69.8106 229.939 70.8353 232.815 73.8433C235.625 76.719 236.914 81.7434 234.93 87.2635Z" fill="#FDC687"/>
<path fill-rule="evenodd" clip-rule="evenodd" d="M151.93 81.7103C150.476 82.9664 147.765 84.8175 144.129 86.1727C140.493 87.561 135.898 88.4205 132.692 88.8502C131.634 88.9824 130.742 89.0485 129.949 89.1146C133.254 89.1807 136.559 89.2468 139.865 88.7841C143.17 88.3213 146.41 87.3627 148.625 85.9083C150.839 84.4539 151.963 82.5698 153.285 81.8426C154.607 81.1484 156.062 81.6442 156.657 81.5781C157.252 81.512 156.987 80.8179 156.723 80.1237C156.459 80.1568 155.169 79.6609 154.442 79.7271C153.616 79.8262 153.384 80.4873 151.93 81.7103Z" fill="#FDC687"/>
<path fill-rule="evenodd" clip-rule="evenodd" d="M150.708 5.78338C155.435 3.99842 161.087 3.27121 164.922 3.53565C168.756 3.80009 170.706 5.02312 172.69 6.2792C165.054 1.45319 157.451 -3.20754 149.816 -7.83522C146.047 -0.827591 142.312 6.18004 138.379 13.2207C142.18 10.378 145.948 7.56834 150.708 5.78338Z" fill="#6B4520"/>
<path fill-rule="evenodd" clip-rule="evenodd" d="M187.993 170.198C194.306 167.851 200.587 165.537 205.512 164.414C210.437 163.29 213.974 163.389 217.94 166.992C221.907 170.595 226.27 177.669 229.443 185.668C232.617 193.667 234.567 202.625 236.319 200.047C238.038 197.468 239.525 183.42 240.847 166.959C242.17 150.531 243.293 131.689 244.384 112.881C243.921 115.492 243.426 117.938 242.831 120.153C241.112 126.632 238.666 131.193 230.7 138.697C222.766 146.167 209.214 156.613 199.264 162.728C195.033 165.306 191.463 167.091 188.257 168.116C188.158 168.777 188.092 169.471 187.993 170.198Z" fill="#FAAD72"/>
<path fill-rule="evenodd" clip-rule="evenodd" d="M240.551 191.618C239.13 197.105 236.32 200.047 236.32 200.047C236.32 200.047 232.618 193.667 229.445 185.668C226.272 177.636 221.908 170.562 217.942 166.992C213.975 163.389 210.438 163.323 205.513 164.414C202.902 165.009 199.894 165.967 196.688 167.058C195.068 178.164 193.481 189.271 188.358 197.733C183.267 206.162 174.673 211.947 166.674 214.921C158.675 217.896 151.204 218.062 143.734 218.227C154.576 223.152 165.385 228.11 173.252 233.928C181.152 239.746 186.077 246.456 189.052 250.356C192.027 254.224 193.085 255.281 194.076 256.339H261.178H277.639V234.424C281.738 239.58 285.836 244.704 288.745 248.34C291.621 252.009 293.307 254.158 294.993 256.306H336.047C311.586 218.822 312.115 200.873 287.654 195.221C284.382 194.46 281.044 193.601 277.672 192.775V196.444C274.631 195.717 271.689 194.791 267.028 192.775C243.427 182.528 242.006 186.098 240.551 191.618Z" fill="#FDC687"/>
<path fill-rule="evenodd" clip-rule="evenodd" d="M174.54 146.465C173.316 146.399 171.829 146.63 170.771 147.06C169.714 147.457 169.019 148.052 168.424 148.713C167.829 149.341 167.3 150.035 169.152 150.101C171.003 150.167 175.267 149.572 177.118 149.01C178.969 148.415 178.374 147.82 177.581 147.357C176.754 146.862 175.763 146.531 174.54 146.465Z" fill="#FDC687"/>
<path fill-rule="evenodd" clip-rule="evenodd" d="M122.943 37.7805C122.876 35.9294 122.81 30.0457 124 23.9966C125.223 17.9476 127.735 11.7002 127.405 11.2705C127.074 10.8408 123.901 16.2618 122.05 20.6581C120.199 25.0875 119.604 28.5252 118.778 29.9465C117.918 31.3348 116.794 30.7068 115.704 28.6574C114.613 26.608 113.522 23.2033 112.464 19.7987C112.729 21.0548 113.191 22.5753 113.819 24.5255C115.968 31.1695 120.298 43.1023 124.595 55.0351C124.463 51.5313 124.529 48.0275 124.926 44.722C126.281 34.1445 131.305 25.6494 136.065 17.2535C136.826 15.8982 137.586 14.543 138.346 13.1877C142.28 6.14703 146.015 -0.86059 149.783 -7.86822H140.329C134.545 6.51064 128.76 20.9225 125.851 29.1863C123.009 37.5161 123.009 39.6316 122.943 37.7805Z" fill="#F3D0B6"/>
<path fill-rule="evenodd" clip-rule="evenodd" d="M258.795 77.7107C257.175 79.0659 255.886 78.3057 254.597 77.5785C256.183 81.2475 257.77 84.9828 259.39 88.7179C260.348 89.8088 260.811 89.5774 261.637 88.5527C263.026 86.8338 265.472 82.8342 266.728 80.3551C267.984 77.876 268.083 76.9504 267.819 68.1248C267.521 59.3322 266.893 42.6395 266.563 33.7477C266.232 24.856 266.232 23.7321 262.199 18.0798C261.869 17.65 261.538 17.1542 261.142 16.6584C262.728 19.5672 264.348 22.5091 265.24 25.3518C266.133 28.1945 266.364 30.9711 265.703 33.2189C265.075 35.4666 263.588 37.2185 261.935 37.0202C260.282 36.8218 258.398 34.6733 258.563 35.2352C258.696 35.7971 260.844 39.0696 261.935 42.1767C262.993 45.2839 262.993 48.2919 262.728 48.953C262.431 49.6141 261.869 47.9283 256.316 41.0529C250.762 34.2105 240.218 22.1786 232.318 15.0718C224.385 7.93192 219.063 5.71724 219.162 5.98168C219.261 6.24612 224.748 9.05578 231.921 15.9973C239.127 22.9388 247.986 34.0122 253.671 43.5981C259.357 53.184 261.869 61.3155 262.166 67.067C262.365 72.9177 260.414 76.3554 258.795 77.7107Z" fill="#F3D0B6"/>
<path fill-rule="evenodd" clip-rule="evenodd" d="M141.749 120.616C140.724 118.864 139.236 117.178 137.65 115.459C136.195 113.84 134.675 112.187 133.419 110.468C130.907 106.865 129.584 102.865 128.262 98.8657C128.626 101.841 129.617 105.576 132.163 110.865C136.79 120.384 146.475 134.895 154.706 146.002C151.235 141.044 147.765 136.085 145.88 131.821C144.029 127.557 143.765 123.987 141.749 120.616Z" fill="#FECD98"/>
<path fill-rule="evenodd" clip-rule="evenodd" d="M79.7028 221.433C109.915 221.433 134.541 196.807 134.541 166.628C134.541 136.449 109.915 111.823 79.7028 111.823C49.4907 111.823 24.8318 136.449 24.8318 166.628C24.8318 196.807 49.4907 221.433 79.7028 221.433Z" fill="#FED3A4"/>
<path fill-rule="evenodd" clip-rule="evenodd" d="M79.7063 213.599C105.621 213.599 126.743 192.51 126.743 166.628C126.743 140.746 105.621 119.657 79.7063 119.657C53.7913 119.657 32.6693 140.746 32.6693 166.628C32.6693 192.51 53.7913 213.599 79.7063 213.599Z" fill="#FED3A4"/>
<path fill-rule="evenodd" clip-rule="evenodd" d="M79.7028 119.657C105.684 119.657 126.707 140.68 126.707 166.628C126.707 192.576 105.651 213.599 79.7028 213.599C53.7217 213.599 32.6658 192.576 32.6658 166.628C32.6658 140.68 53.7217 119.657 79.7028 119.657ZM134.541 166.628C134.541 136.383 109.981 111.823 79.7028 111.823C49.4246 111.823 24.8318 136.35 24.8318 166.628C24.8318 196.873 49.3915 221.433 79.7028 221.433C110.014 221.433 134.541 196.873 134.541 166.628Z" fill="white"/>
<path d="M121.089 130.665L120.229 129.673L120.659 129.276C132.856 118.633 145.054 107.989 157.251 97.3123L158.11 98.3039C145.913 108.948 133.716 119.624 121.519 130.268L121.089 130.665Z" fill="white"/>
<path fill-rule="evenodd" clip-rule="evenodd" d="M277.638 196.444C284.017 198.196 290.364 199.948 296.777 204.741C303.189 209.534 309.602 217.368 315.618 226.458C321.601 235.548 327.154 245.927 332.674 256.306H336.046C311.585 218.822 312.114 200.873 287.653 195.221C284.381 194.461 281.042 193.601 277.671 192.775V196.444H277.638Z" fill="#FED3A4"/>
<path fill-rule="evenodd" clip-rule="evenodd" d="M281.801 158.299C276.941 140.151 287.717 121.508 305.898 116.649C324.078 111.79 342.721 122.566 347.613 140.713C352.472 158.86 341.696 177.503 323.516 182.362C305.336 187.222 286.66 176.446 281.801 158.299Z" fill="#FED3A4"/>
<path fill-rule="evenodd" clip-rule="evenodd" d="M281.801 158.298C276.942 140.151 287.718 121.508 305.898 116.649C324.078 111.79 342.721 122.566 347.613 140.713C352.472 158.86 341.696 177.503 323.516 182.362C305.336 187.221 286.66 176.446 281.801 158.298ZM304.41 111.162C283.222 116.848 270.628 138.598 276.314 159.753C281.999 180.908 303.782 193.469 324.97 187.816C346.159 182.131 358.752 160.381 353.067 139.226C347.382 118.071 325.598 105.51 304.41 111.162Z" fill="white"/>
<path fill-rule="evenodd" clip-rule="evenodd" d="M206.834 111.261C203 112.286 200.752 116.22 201.744 120.021C202.769 123.822 206.702 126.103 210.536 125.078C214.371 124.054 216.618 120.12 215.594 116.286C214.569 112.484 210.636 110.237 206.834 111.261ZM202.735 119.756C201.876 116.484 203.793 113.112 207.099 112.22C210.371 111.327 213.743 113.278 214.635 116.55C215.528 119.823 213.577 123.194 210.272 124.087C206.966 124.979 203.595 123.062 202.735 119.756Z" fill="white"/>
<path d="M275.621 141.738C265.704 138.168 255.788 134.565 245.871 130.995C235.756 127.326 225.609 123.69 215.494 120.021L215.957 118.765C226.071 122.434 236.186 126.07 246.334 129.739C256.25 133.309 266.167 136.912 276.083 140.482L275.621 141.738Z" fill="white"/>
<path fill-rule="evenodd" clip-rule="evenodd" d="M96.101 32.4588C100.927 50.4737 90.2172 68.9844 72.2023 73.7773C54.1874 78.6364 35.6767 67.9266 30.8177 49.9448C25.9917 31.9299 36.7014 13.4523 54.7163 8.62626C72.7643 3.7672 91.275 14.4439 96.101 32.4588Z" fill="#FED3A4"/>
<path fill-rule="evenodd" clip-rule="evenodd" d="M94.0508 33.0207C98.5793 49.8787 88.5637 67.2325 71.6727 71.728C54.7817 76.2565 37.4279 66.2409 32.8994 49.3829C28.3708 32.5249 38.3865 15.1711 55.2775 10.6757C72.1685 6.14715 89.5223 16.1628 94.0508 33.0207ZM73.0279 76.8184C92.7286 71.5627 104.43 51.3331 99.1413 31.6655C93.8525 11.9979 73.6229 0.329502 53.9222 5.58522C34.2215 10.8409 22.5201 31.0705 27.8089 50.7381C33.0977 70.4058 53.3272 82.0741 73.0279 76.8184Z" fill="white"/>
<path fill-rule="evenodd" clip-rule="evenodd" d="M155.533 48.358C159.367 47.3333 161.648 43.3998 160.623 39.5654C159.599 35.7641 155.665 33.4833 151.831 34.508C147.996 35.5327 145.749 39.4663 146.74 43.2676C147.798 47.1019 151.731 49.3827 155.533 48.358ZM159.632 39.8299C160.491 43.1023 158.574 46.4739 155.268 47.3664C151.963 48.2588 148.591 46.3086 147.732 43.0362C146.872 39.7637 148.79 36.3922 152.095 35.4997C155.401 34.6072 158.772 36.5574 159.632 39.8299Z" fill="white"/>
<path d="M147.692 42.3548L100.216 43.78L100.256 45.1015L147.732 43.6763L147.692 42.3548Z" fill="white"/>
<path fill-rule="evenodd" clip-rule="evenodd" d="M68.2685 139.027C69.1279 139.027 69.8551 138.3 69.8551 137.441C69.8551 136.581 69.1279 135.854 68.2685 135.854C67.409 135.854 66.6818 136.581 66.6818 137.441C66.6818 138.3 67.409 139.027 68.2685 139.027Z" fill="#3F3D3D"/>
<path fill-rule="evenodd" clip-rule="evenodd" d="M85.9529 150.531C86.8123 150.531 87.5395 149.803 87.5395 148.944C87.5395 148.085 86.8123 147.357 85.9529 147.357C85.0935 147.357 84.3663 148.052 84.3663 148.944C84.3663 149.836 85.0604 150.531 85.9529 150.531Z" fill="#3F3D3D"/>
<path fill-rule="evenodd" clip-rule="evenodd" d="M90.6791 135.689C91.5385 135.689 92.2657 134.995 92.2657 134.102C92.2657 133.243 91.5385 132.516 90.6791 132.516C89.8197 132.516 89.0925 133.243 89.0925 134.102C89.0925 134.995 89.7866 135.689 90.6791 135.689Z" fill="#3F3D3D"/>
<path fill-rule="evenodd" clip-rule="evenodd" d="M108.331 153.175C109.19 153.175 109.917 152.481 109.917 151.588C109.917 150.729 109.223 150.002 108.331 150.002C107.471 150.002 106.744 150.696 106.744 151.588C106.744 152.448 107.471 153.175 108.331 153.175Z" fill="#3F3D3D"/>
<path fill-rule="evenodd" clip-rule="evenodd" d="M97.8181 175.652C98.6776 175.652 99.4048 174.925 99.4048 174.066C99.4048 173.206 98.7106 172.479 97.8181 172.479C96.9587 172.479 96.2315 173.173 96.2315 174.066C96.2646 174.925 96.9587 175.652 97.8181 175.652Z" fill="#3F3D3D"/>
<path fill-rule="evenodd" clip-rule="evenodd" d="M116.497 174.727C117.356 174.727 118.083 174.033 118.083 173.14C118.083 172.248 117.356 171.553 116.497 171.553C115.637 171.553 114.91 172.248 114.91 173.14C114.91 174.033 115.604 174.727 116.497 174.727Z" fill="#3F3D3D"/>
<path fill-rule="evenodd" clip-rule="evenodd" d="M103.604 195.783C104.463 195.783 105.19 195.088 105.19 194.196C105.19 193.336 104.463 192.609 103.604 192.609C102.744 192.609 102.017 193.303 102.017 194.196C102.05 195.088 102.744 195.783 103.604 195.783Z" fill="#3F3D3D"/>
<path fill-rule="evenodd" clip-rule="evenodd" d="M75.8035 182.528C76.663 182.528 77.3902 181.801 77.3902 180.941C77.3902 180.082 76.696 179.355 75.8035 179.355C74.9441 179.355 74.2169 180.082 74.2169 180.941C74.2169 181.801 74.9441 182.528 75.8035 182.528Z" fill="#3F3D3D"/>
<path fill-rule="evenodd" clip-rule="evenodd" d="M44.3043 149.473C45.1637 149.473 45.8909 148.779 45.8909 147.886C45.8909 147.027 45.1968 146.3 44.3043 146.3C43.4118 146.3 42.7177 147.027 42.7177 147.886C42.7507 148.779 43.4449 149.473 44.3043 149.473Z" fill="#3F3D3D"/>
<path fill-rule="evenodd" clip-rule="evenodd" d="M42.0227 180.412C42.8821 180.412 43.6093 179.685 43.6093 178.826C43.6093 177.966 42.9151 177.239 42.0227 177.239C41.1302 177.239 40.436 177.933 40.436 178.826C40.4691 179.718 41.1632 180.412 42.0227 180.412Z" fill="#3F3D3D"/>
<path fill-rule="evenodd" clip-rule="evenodd" d="M59.3448 197.369C60.2042 197.369 60.9314 196.675 60.9314 195.783C60.9314 194.923 60.2042 194.196 59.3448 194.196C58.4854 194.196 57.7582 194.89 57.7582 195.783C57.7912 196.675 58.4854 197.369 59.3448 197.369Z" fill="#3F3D3D"/>
<path fill-rule="evenodd" clip-rule="evenodd" d="M82.9777 207.682C83.8371 207.682 84.5643 206.955 84.5643 206.096C84.5643 205.236 83.8371 204.509 82.9777 204.509C82.1183 204.509 81.3911 205.236 81.3911 206.096C81.3911 206.955 82.0852 207.682 82.9777 207.682Z" fill="#3F3D3D"/>
<path fill-rule="evenodd" clip-rule="evenodd" d="M74.9775 20.4267C69.1929 20.5589 60.5656 20.5589 54.3183 20.3606C48.104 20.1623 44.3027 19.7987 40.4683 19.4351C39.6419 20.3276 38.8486 21.2531 38.1214 22.2447C49.4262 21.9803 60.7309 21.7159 69.3582 21.9803C77.9855 22.2447 83.9354 23.005 89.8853 23.7983C88.9267 22.3439 87.8689 21.0217 86.712 19.7656C83.7371 20.0301 80.7952 20.2945 74.9775 20.4267Z" fill="#FDC687"/>
<path fill-rule="evenodd" clip-rule="evenodd" d="M93.588 31.5332C89.4892 32.3596 85.3904 33.186 78.0192 33.5165C70.648 33.8801 59.9713 33.7479 52.0051 33.219C44.0388 32.6901 38.7831 31.7646 33.5274 30.8391C33.1968 31.8307 32.8663 32.8885 32.6349 33.9132C35.5437 33.7809 38.4526 33.6157 44.1049 33.847C49.7573 34.0784 58.1863 34.7395 65.4914 34.9048C72.7635 35.0701 78.9117 34.7395 83.6055 34.8717C88.2993 35.004 91.5056 35.5659 94.7119 36.1278C94.5466 35.1031 94.3152 34.0454 94.0508 33.0207C93.9186 32.5249 93.7533 32.029 93.588 31.5332Z" fill="#FDC687"/>
<path fill-rule="evenodd" clip-rule="evenodd" d="M94.5463 47.2341C87.737 47.1019 80.8947 46.9697 72.5318 46.9366C64.202 46.8705 54.3517 46.8705 47.344 46.54C40.3364 46.2094 36.1715 45.5483 32.0066 44.9203C32.1388 45.9119 32.3041 46.9036 32.5024 47.8952C44.336 47.5977 56.1697 47.3002 66.4497 47.4324C76.7298 47.5647 85.4893 48.0935 94.2158 48.6224C94.348 48.1596 94.4472 47.6969 94.5463 47.2341Z" fill="#FDC687"/>
<path fill-rule="evenodd" clip-rule="evenodd" d="M90.1489 58.2415C90.0828 58.3077 90.0167 58.3738 86.4137 58.3407C82.7446 58.3077 75.4726 58.1754 68.1674 58.1424C60.8623 58.1093 53.4911 58.2085 48.1693 58.0763C42.8144 57.944 39.5089 57.6135 36.2034 57.2499C36.7323 58.1424 37.2942 59.0349 37.9223 59.8612C47.8387 59.3985 57.7552 58.9357 66.1841 59.101C74.5801 59.2662 81.4555 60.0265 88.3309 60.8198C88.9589 59.9935 89.5539 59.134 90.1489 58.2415C90.1158 58.2415 90.1158 58.2415 90.1489 58.2415Z" fill="#FDC687"/>
<path fill-rule="evenodd" clip-rule="evenodd" d="M312.313 128.318C314.098 128.318 315.553 126.863 315.553 125.078C315.553 123.294 314.098 121.872 312.313 121.872C310.528 121.872 309.074 123.327 309.074 125.078C309.074 126.863 310.528 128.318 312.313 128.318Z" fill="#F5A99A"/>
<path fill-rule="evenodd" clip-rule="evenodd" d="M312.31 126.665C313.17 126.665 313.897 125.971 313.897 125.078C313.897 124.219 313.203 123.492 312.31 123.492C311.418 123.492 310.724 124.219 310.724 125.078C310.724 125.971 311.418 126.665 312.31 126.665Z" fill="#E97F74"/>
<path fill-rule="evenodd" clip-rule="evenodd" d="M334.095 165.802C335.88 165.802 337.335 164.348 337.335 162.563C337.335 160.778 335.88 159.323 334.095 159.323C332.31 159.323 330.856 160.778 330.856 162.563C330.856 164.348 332.31 165.802 334.095 165.802Z" fill="#F5A99A"/>
<path fill-rule="evenodd" clip-rule="evenodd" d="M334.095 164.149C334.954 164.149 335.681 163.455 335.681 162.562C335.681 161.67 334.987 160.976 334.095 160.976C333.202 160.976 332.508 161.67 332.508 162.562C332.508 163.455 333.202 164.149 334.095 164.149Z" fill="#E97F74"/>
<path fill-rule="evenodd" clip-rule="evenodd" d="M293.141 162.298C294.926 162.298 296.381 160.844 296.381 159.059C296.381 157.274 294.926 155.852 293.141 155.852C291.356 155.852 289.902 157.307 289.902 159.059C289.935 160.844 291.389 162.298 293.141 162.298Z" fill="#F5A99A"/>
<path fill-rule="evenodd" clip-rule="evenodd" d="M293.14 160.645C294 160.645 294.727 159.951 294.727 159.059C294.727 158.199 294.033 157.472 293.14 157.472C292.281 157.472 291.554 158.199 291.554 159.059C291.587 159.951 292.281 160.645 293.14 160.645Z" fill="#E97F74"/>
<path fill-rule="evenodd" clip-rule="evenodd" d="M170.672 95.6926C170.672 91.7261 167.466 88.5197 163.499 88.5197C159.533 88.5197 156.326 91.7261 156.326 95.6926C156.326 99.6262 159.533 102.866 163.499 102.866C167.433 102.832 170.672 99.6262 170.672 95.6926ZM163.466 89.5444C166.871 89.5444 169.614 92.288 169.614 95.6926C169.614 99.0973 166.871 101.841 163.466 101.841C160.062 101.841 157.318 99.0973 157.318 95.6926C157.318 92.288 160.095 89.5444 163.466 89.5444Z" fill="white"/>
<path fill-rule="evenodd" clip-rule="evenodd" d="M175.332 138.267C174.473 137.937 171.002 138.168 168.788 138.366C166.54 138.531 165.548 138.631 165.019 138.928C164.457 139.226 164.325 139.721 165.68 140.052C167.036 140.35 169.878 140.449 172.159 140.019C174.44 139.589 176.192 138.631 175.332 138.267Z" fill="#FCD7CC"/>
<path d="M314.693 192.477C290.96 192.477 271.656 173.206 271.656 149.506C271.656 125.806 290.96 106.535 314.693 106.535C338.426 106.535 357.73 125.806 357.73 149.506C357.73 173.206 338.426 192.477 314.693 192.477ZM314.693 107.824C291.687 107.824 272.978 126.5 272.978 149.473C272.978 172.446 291.687 191.122 314.693 191.122C337.699 191.122 356.408 172.446 356.408 149.473C356.408 126.533 337.699 107.824 314.693 107.824Z" fill="white"/>
<path d="M63.4756 82.1401C40.8661 82.1401 22.4876 63.7616 22.4876 41.1851C22.4876 18.6087 40.8661 0.230196 63.4756 0.230196C86.0851 0.230196 104.464 18.6087 104.464 41.1851C104.431 63.7616 86.052 82.1401 63.4756 82.1401ZM63.4756 1.58544C41.5933 1.58544 23.8098 19.3689 23.8098 41.2182C23.8098 63.0674 41.5933 80.8509 63.4756 80.8509C85.3248 80.8509 103.141 63.0674 103.141 41.2182C103.141 19.3689 85.3248 1.58544 63.4756 1.58544Z" fill="white"/>
<path d="M79.7038 224.739C47.6075 224.739 21.4942 198.658 21.4942 166.628C21.4942 134.565 47.6075 108.485 79.7038 108.485C111.8 108.485 137.88 134.565 137.88 166.628C137.88 198.691 111.8 224.739 79.7038 224.739ZM79.7038 109.807C48.3347 109.807 22.8164 135.292 22.8164 166.628C22.8164 197.931 48.3347 223.416 79.7038 223.416C111.073 223.416 136.558 197.931 136.558 166.628C136.558 135.292 111.073 109.807 79.7038 109.807Z" fill="white"/>
<path d="M41.0271 45L38.4421 38.114H38.3981C38.4201 38.3413 38.4385 38.6493 38.4531 39.038C38.4678 39.4193 38.4751 39.819 38.4751 40.237V45H37.5621V37.146H39.0251L41.4451 43.581H41.4891L43.9531 37.146H45.4051V45H44.4261V40.171C44.4261 39.7897 44.4335 39.412 44.4481 39.038C44.4701 38.664 44.4885 38.3597 44.5031 38.125H44.4591L41.8411 45H41.0271ZM52.5356 42.041C52.5356 43.0163 52.2863 43.7717 51.7876 44.307C51.2963 44.8423 50.6289 45.11 49.7856 45.11C49.2649 45.11 48.7993 44.9927 48.3886 44.758C47.9853 44.516 47.6663 44.1677 47.4316 43.713C47.1969 43.251 47.0796 42.6937 47.0796 42.041C47.0796 41.0657 47.3253 40.314 47.8166 39.786C48.3079 39.258 48.9753 38.994 49.8186 38.994C50.3539 38.994 50.8233 39.115 51.2266 39.357C51.6373 39.5917 51.9563 39.9363 52.1836 40.391C52.4183 40.8383 52.5356 41.3883 52.5356 42.041ZM48.0806 42.041C48.0806 42.7377 48.2163 43.2913 48.4876 43.702C48.7663 44.1053 49.2063 44.307 49.8076 44.307C50.4016 44.307 50.8379 44.1053 51.1166 43.702C51.3953 43.2913 51.5346 42.7377 51.5346 42.041C51.5346 41.3443 51.3953 40.798 51.1166 40.402C50.8379 40.006 50.3979 39.808 49.7966 39.808C49.1953 39.808 48.7589 40.006 48.4876 40.402C48.2163 40.798 48.0806 41.3443 48.0806 42.041ZM56.8748 38.994C57.6008 38.994 58.1838 39.247 58.6238 39.753C59.0711 40.259 59.2948 41.0217 59.2948 42.041C59.2948 43.0457 59.0711 43.8083 58.6238 44.329C58.1838 44.8497 57.5971 45.11 56.8638 45.11C56.4091 45.11 56.0314 45.0257 55.7308 44.857C55.4374 44.681 55.2064 44.4793 55.0378 44.252H54.9718C54.9864 44.3767 55.0011 44.5343 55.0158 44.725C55.0304 44.9157 55.0378 45.0807 55.0378 45.22V47.64H54.0698V39.104H54.8618L54.9938 39.907H55.0378C55.2138 39.6503 55.4448 39.434 55.7308 39.258C56.0168 39.082 56.3981 38.994 56.8748 38.994ZM56.6988 39.808C56.0974 39.808 55.6721 39.9767 55.4228 40.314C55.1808 40.6513 55.0524 41.1647 55.0378 41.854V42.041C55.0378 42.767 55.1551 43.328 55.3898 43.724C55.6318 44.1127 56.0754 44.307 56.7208 44.307C57.0801 44.307 57.3734 44.208 57.6008 44.01C57.8354 43.812 58.0078 43.5443 58.1178 43.207C58.2351 42.8623 58.2938 42.47 58.2938 42.03C58.2938 41.3553 58.1618 40.8163 57.8978 40.413C57.6411 40.0097 57.2414 39.808 56.6988 39.808ZM68.8233 39.104V44.197H69.6813V47.035H68.7133V45H60.8373V39.104H61.8053V44.186H64.3463V39.104H65.3143V44.186H67.8663V39.104H68.8233ZM71.7191 39.104V42.701C71.7191 42.789 71.7154 42.921 71.7081 43.097C71.7008 43.273 71.6898 43.449 71.6751 43.625C71.6678 43.801 71.6604 43.9403 71.6531 44.043L74.8101 39.104H75.9981V45H75.0961V41.524C75.0961 41.4067 75.0961 41.2527 75.0961 41.062C75.1034 40.8713 75.1108 40.6843 75.1181 40.501C75.1254 40.3103 75.1328 40.1673 75.1401 40.072L72.0051 45H70.8061V39.104H71.7191ZM78.8425 39.104V41.557H82.0435V39.104H83.0115V45H82.0435V42.371H78.8425V45H77.8745V39.104H78.8425ZM84.8784 45V39.104H85.8464V41.524H87.3754C88.138 41.524 88.7027 41.6633 89.0694 41.942C89.436 42.2207 89.6194 42.6387 89.6194 43.196C89.6194 43.746 89.4397 44.186 89.0804 44.516C88.721 44.8387 88.138 45 87.3314 45H84.8784ZM90.5984 45V39.104H91.5664V45H90.5984ZM85.8464 44.219H87.2434C87.6614 44.219 88.0024 44.1493 88.2664 44.01C88.5304 43.8633 88.6624 43.6103 88.6624 43.251C88.6624 42.8917 88.5414 42.6497 88.2994 42.525C88.0574 42.393 87.709 42.327 87.2544 42.327H85.8464V44.219Z" fill="black"/>
<path d="M304.302 142.006L299.514 152.737C299.066 153.731 298.611 154.564 298.149 155.236C297.701 155.894 297.169 156.391 296.553 156.727C295.937 157.049 295.153 157.21 294.201 157.21C293.809 157.21 293.438 157.182 293.088 157.126C292.752 157.07 292.444 156.993 292.164 156.895V155.026C292.444 155.152 292.745 155.257 293.067 155.341C293.389 155.411 293.725 155.446 294.075 155.446C294.859 155.446 295.475 155.278 295.923 154.942C296.385 154.606 296.812 154.011 297.204 153.157L291.429 142.006H293.508L297.687 150.259C297.757 150.399 297.841 150.581 297.939 150.805C298.037 151.015 298.121 151.218 298.191 151.414H298.275C298.331 151.26 298.401 151.078 298.485 150.868C298.569 150.644 298.639 150.462 298.695 150.322L302.307 142.006H304.302ZM312.955 145.744V147.298H307.936V157H306.088V145.744H312.955ZM320.528 145.534C321.914 145.534 323.027 146.017 323.867 146.983C324.721 147.949 325.148 149.405 325.148 151.351C325.148 153.269 324.721 154.725 323.867 155.719C323.027 156.713 321.907 157.21 320.507 157.21C319.639 157.21 318.918 157.049 318.344 156.727C317.784 156.391 317.343 156.006 317.021 155.572H316.895C316.923 155.81 316.951 156.111 316.979 156.475C317.007 156.839 317.021 157.154 317.021 157.42V162.04H315.173V145.744H316.685L316.937 147.277H317.021C317.357 146.787 317.798 146.374 318.344 146.038C318.89 145.702 319.618 145.534 320.528 145.534ZM320.192 147.088C319.044 147.088 318.232 147.41 317.756 148.054C317.294 148.698 317.049 149.678 317.021 150.994V151.351C317.021 152.737 317.245 153.808 317.693 154.564C318.155 155.306 319.002 155.677 320.234 155.677C320.92 155.677 321.48 155.488 321.914 155.11C322.362 154.732 322.691 154.221 322.901 153.577C323.125 152.919 323.237 152.17 323.237 151.33C323.237 150.042 322.985 149.013 322.481 148.243C321.991 147.473 321.228 147.088 320.192 147.088ZM329.836 145.744V152.611C329.836 152.779 329.829 153.031 329.815 153.367C329.801 153.703 329.78 154.039 329.752 154.375C329.738 154.711 329.724 154.977 329.71 155.173L335.737 145.744H338.005V157H336.283V150.364C336.283 150.14 336.283 149.846 336.283 149.482C336.297 149.118 336.311 148.761 336.325 148.411C336.339 148.047 336.353 147.774 336.367 147.592L330.382 157H328.093V145.744H329.836Z" fill="black"/>
<path d="M57.1368 157.52C55.2968 157.52 53.8488 158.136 52.7928 159.368C51.7368 160.6 51.2088 162.288 51.2088 164.432C51.2088 166.56 51.6968 168.248 52.6728 169.496C53.6648 170.728 55.1448 171.344 57.1128 171.344C57.8648 171.344 58.5768 171.28 59.2488 171.152C59.9208 171.024 60.5768 170.864 61.2168 170.672V172.544C60.5768 172.784 59.9128 172.96 59.2248 173.072C58.5528 173.184 57.7448 173.24 56.8008 173.24C55.0568 173.24 53.6008 172.88 52.4328 172.16C51.2648 171.44 50.3848 170.416 49.7928 169.088C49.2168 167.76 48.9288 166.2 48.9288 164.408C48.9288 162.68 49.2408 161.16 49.8648 159.848C50.5048 158.52 51.4408 157.488 52.6728 156.752C53.9048 156 55.4008 155.624 57.1608 155.624C58.9688 155.624 60.5448 155.96 61.8888 156.632L61.0248 158.456C60.4968 158.216 59.9048 158 59.2488 157.808C58.6088 157.616 57.9048 157.52 57.1368 157.52ZM64.6689 173V160.136H66.7809V165.416H70.1169C71.7809 165.416 73.0129 165.72 73.8129 166.328C74.6129 166.936 75.0129 167.848 75.0129 169.064C75.0129 170.264 74.6209 171.224 73.8369 171.944C73.0529 172.648 71.7809 173 70.0209 173H64.6689ZM77.1489 173V160.136H79.2609V173H77.1489ZM66.7809 171.296H69.8289C70.7409 171.296 71.4849 171.144 72.0609 170.84C72.6369 170.52 72.9249 169.968 72.9249 169.184C72.9249 168.4 72.6609 167.872 72.1329 167.6C71.6049 167.312 70.8449 167.168 69.8529 167.168H66.7809V171.296ZM94.2206 160.136V173H92.1086V161.936H85.4606V173H83.3486V160.136H94.2206ZM100.437 165.416H104.253C107.597 165.416 109.269 166.632 109.269 169.064C109.269 170.264 108.861 171.224 108.045 171.944C107.229 172.648 105.933 173 104.157 173H98.3252V160.136H100.437V165.416ZM107.157 169.184C107.157 168.4 106.877 167.872 106.317 167.6C105.773 167.312 105.005 167.168 104.013 167.168H100.437V171.296H104.061C104.957 171.296 105.693 171.136 106.269 170.816C106.861 170.496 107.157 169.952 107.157 169.184Z" fill="black"/>
</g>
</g>
<defs>
<clipPath id="clip0">
<rect width="468" height="234" rx="9.25842" fill="white"/>
</clipPath>
<clipPath id="clip1">
<rect width="472" height="264.274" fill="white" transform="translate(0 -8)"/>
</clipPath>
</defs>
</svg>
