<svg width="36" height="36" viewBox="0 0 36 36" fill="none" xmlns="http://www.w3.org/2000/svg"><g clip-path="url(#clip0)"><path d="M20.32 14.56c-5.035-.494-8.658 4.893-8.658 4.893S5.828 19.1 7.428 26.84c.235 1.105 1.247 3.458-1.6 6.234 0 0 12.35 3.905 23.125.117 0 0-1.858-3.458-1.93-7.245-.07-4.164.542-2.4.518-3.529-.117-6.728-5.48-7.693-7.222-7.857z" fill="#1A1A1A"/><path d="M25.283 22.888c.683 4.822-2.776 8.586-7.598 9.245-4.823.682-9.175-2-9.833-6.822-.66-4.776 2.822-8.352 7.622-9.01 4.822-.682 9.15 1.788 9.81 6.587z" fill="#FCE9C8"/><path d="M14.767 29.828l3.199.14s.023-1.458-1.482-1.599c-1.647-.118-1.717 1.459-1.717 1.459z" fill="#FF9580"/><path d="M20.861 24.934c-.047.447-.447.753-.87.777-.4.023-.659-.283-.8-.612-.094-.235-.447-.023-.353.188.518 1.177 2.305.965 2.423-.376.024-.235-.376-.235-.4.023zM12.58 25.452c-.188.94-1.412.894-1.694.023-.07-.235-.447-.14-.376.095.164.564.564.917 1.176.964.588.047 1.153-.424 1.27-.988.07-.212-.306-.33-.376-.094z" fill="#000"/><path d="M17.52 19.453s-5.363 3.858-11.503 6.399c0 0 .14-2.494.682-4.987.87-4.047 6.116-8.587 11.456-6.517 0 0 8.728 5.058 8.987 8.846 0 0 .07 1.2-2.212 3.434 0 0 2.4-5.787-7.41-7.175z" fill="#1A1A1A"/><path d="M24.177 23.076c-.353.4.023 1.106.211 1.623.118.33-.047.494.47.33.307-.095 1.554-1.06 1.224-2.165-.094-.447-.917-.94-1.905.212z" fill="#FCE9C8"/><path d="M28.554 11.172L5.1 11.078l.047-9.316 23.454.094-.047 9.316zM6.84 9.714l20.35.07.023-6.563-20.349-.07-.024 6.563z" fill="#1A1A1A"/><path d="M31 4.562h-3.458v3.787H31V4.562z" fill="#1A1A1A"/><path d="M9.64 8.326c0 .611-.587 1.129-1.199 1.129-.635 0-1.2-.494-1.2-1.13v-3.74c0-.611.588-1.129 1.2-1.129.635 0 1.2.494 1.2 1.13v3.74zM12.416 8.326c0 .611-.588 1.129-1.2 1.129-.635 0-1.2-.494-1.2-1.13v-3.74c0-.611.589-1.129 1.2-1.129.636 0 1.2.494 1.2 1.13v3.74zM15.167 8.326c0 .611-.588 1.129-1.2 1.129-.635 0-1.2-.494-1.2-1.13v-3.74c0-.611.589-1.129 1.2-1.129.635 0 1.2.494 1.2 1.13v3.74z" fill="#C45543"/></g><defs><clipPath id="clip0"><path fill="#fff" d="M5.1 1.762h25.901v33.076H5.1z"/></clipPath></defs></svg>