<svg width="30" height="30" viewBox="0 0 30 30" fill="none" xmlns="http://www.w3.org/2000/svg"><g clip-path="url(#clip0)"><path d="M.011 5.01A4.75 4.75 0 014.748-.063h20.503A4.75 4.75 0 0129.99 5.01l-1.392 20.505a4.75 4.75 0 01-4.737 4.43H6.14a4.75 4.75 0 01-4.737-4.43L.01 5.01z" fill="#CBF5A9"/><path d="M25.252-.063h-1.993a4.75 4.75 0 014.737 5.073l-1.391 20.505a4.75 4.75 0 01-4.737 4.43h1.992a4.75 4.75 0 004.737-4.43L29.99 5.01A4.75 4.75 0 0025.25-.063z" fill="#B2E38A"/><path d="M8.177 10.02a6.823 6.823 0 0113.645 0H8.177z" fill="#F4F4FF"/><path d="M4.103 5.13a1.147 1.147 0 100-2.295 1.147 1.147 0 000 2.294zM25.899 5.13a1.147 1.147 0 100-2.295 1.147 1.147 0 000 2.294zM5.49 26.804a1.147 1.147 0 100-2.294 1.147 1.147 0 000 2.294zM24.51 26.804a1.147 1.147 0 100-2.294 1.147 1.147 0 000 2.294zM13.518 5.201a.454.454 0 00.438-.57L13.6 3.34c-.298.062-.59.144-.872.244l.353 1.28a.453.453 0 00.437.336zM11.081 6.66a.452.452 0 00.32-.773l-.951-.951a6.854 6.854 0 00-.634.647l.945.944a.451.451 0 00.32.133zM18.518 6.403a.451.451 0 00.64 0l.93-.928a6.874 6.874 0 00-.648-.634l-.922.922a.453.453 0 000 .64zM16.24 5.14a.454.454 0 00.554-.32l.345-1.28a6.77 6.77 0 00-.877-.226l-.343 1.272a.453.453 0 00.32.554zM13.372 6.055a.453.453 0 00-.79.443l1.98 3.522H15.6l-2.228-3.965z" fill="#5E6478"/></g><defs><clipPath id="clip0"><path fill="#fff" d="M0 0h30v30H0z"/></clipPath></defs></svg>