<svg width="36" height="36" viewBox="0 0 36 36" fill="none" xmlns="http://www.w3.org/2000/svg"><g clip-path="url(#clip0)"><path d="M38.356 32.521a.765.765 0 00-.348-.025l.154-.274s-6.633-9.92-28.725-8.212c0 0-.15.435-.41 1.255l-2.96-3.12C4.457 28.163-.307 31.263-2 35.995h40.702c-.16-2.18-.346-3.475-.346-3.475z" fill="#36556B"/><path d="M15.16 26.927l-2.08 5.193 2.287-3.444.503 4.298 4.002-6.074-.715-2.896-3.996 2.923z" fill="#000"/><path d="M17.255 34.84l3.722-5.128.472 1.7c4.354-2.989 8.807-4.682 8.807-4.682a11.862 11.862 0 00-1.62-.706c.294-3.37-.116-8.964-.116-8.964s-9.34 2.769-9.147 5.155c.13 1.598.003 3.254-.178 4.586a3.54 3.54 0 00-.947 1.02c-2.076 3.51-2.082 4.176-3.241 8.179h1.2c.332-.395.687-.78 1.057-1.154l-.01-.006z" fill="url(#paint0_linear)"/><path d="M28.14 16.148c.046.928 1.036 1.936-1.748 5.979-1.101 1.597-3.482 2.306-5.298 2.467-.355.03-.69.021-1.002-.025 2.183-.743 6.5-5.483 8.048-8.421z" fill="#BD6B45"/><path d="M29.39 23.798s-5.332 3.953-8.743 4.878l-3.392 6.165 3.722-5.129 1.375 4.965c2.38-2.029 7.09-6.183 7.907-7.953l-.87-2.926z" fill="#000"/><path d="M12.295 8.404l1.542.55c.086 1.094-1.878 4.615-1.878 4.615-1.714-2.294.336-5.165.336-5.165z" fill="#301610"/><path d="M15.685 4.235s-1.508-.376-2.076-.194c-.567.182-2.753 2.248-2.67 3.373.083 1.126 1.909 1.746 1.733 2.427-.176.682-.706 1.709-.842 2.211-.136.506-.154 1.684 1.015 2.652 1.165.969 2.044 1.468 2.044 1.468l.796-11.937z" fill="#301610"/><path d="M26.317 6.588s-1.477-3.441-6.682-2.195c-2.498.595-4.648 1.708-5.884 3.466-1.338 1.909-1.215 4.946-.04 8.184 2.575 7.093 5.42 8.668 5.42 8.668s8.67-1.77 9.604-8.754c.003-.003-.663-7.614-2.418-9.369z" fill="#FEAC71"/><path d="M16.909 1.204c3.67-1.934 5.334.028 6.679.188 2.165.26 3.429-.126 4.74 2.014.336.546.431 2.078.934 2.365 1.18.678 2.273 1.983 2.143 3.429-.148 1.628-.99 2.893-.598 4.632.379 1.693-.839 2.818-2.205 4.027.096-.086-1.218-4.101-1.385-4.592-.148-.93-.234-2.022-.832-2.793-.96-1.24-3.115-2.35-3.02-4.253-.338.148-.74.28-1.214.352-1.761.265-2.489.203-3.065.123 0 0-2.403 2.449-3.568 2.822 0 0-1.437-1.095-1.69-1.613-.9-1.841.601-5.397 3.08-6.701zM14.538 12.299l.416 1.113s-1.178.185-1.835.879l-.28-.95c.496-.46 1.045-.928 1.699-1.042z" fill="#301610"/><path d="M13.35 14.803c.213.484 1.234 1.545 2.44.145.147-.309-1.314-.916-2.418-.487-.059.021-.099.17-.022.342z" fill="#874C31"/><path d="M15.79 14.948s-1.277-.685-2.409-.158c-.163.074.34 2.967 2.409.158z" fill="#F5F5F5"/><path d="M14.442 14.593c.743.03 1.347.354 1.347.354-1.107 1.508-1.767 1.376-2.115.916.04-.546.357-1.091.768-1.27z" fill="#52707D"/><path d="M14.423 16.148a.191.191 0 01-.03-.05c-.39-.86.72-1.443 1.291-1.014-.518.672-.934.98-1.26 1.064z" fill="#000"/><path d="M14.075 15.537c.04.114.17.16.29.108.12-.053.185-.188.141-.3-.04-.114-.17-.163-.29-.107a.244.244 0 00-.141.299z" fill="#F5F5F5"/><path d="M27.646 15.312l-.17-2.48s-.45-1.89 1.262-1.89 1.878 4.703.003 5.011c-2.322.383-1.095-.641-1.095-.641z" fill="#FEAC71"/><path d="M27.86 12.595l.172 1.157s.311-1.872 1.144-2.122c-.718-.496-1.295.062-1.317.965z" fill="#DE7240"/><path d="M15.799 16.04l.616 1.77 1.881-.102c-.592.309-2.143.494-2.569.29l.072-1.958z" fill="#BF6237"/><path d="M19.857 7.791c.462-.876-.771-1.095-.771-1.095l1.597-.977c1.555.808.318 1.902-.265 2.306-.29.2-.077.5-.077.5-.333.108-.947.142-.484-.734z" fill="#301610"/><path d="M15.46 7.609s-1.776-2.643.302-3.682c2.082-1.04 3.744.666 4.549 1.375.804.71 1.039 1.339.82 1.792-.216.453-1.147.592-1.277 1.064 0 0 .55-1.006.413-1.394-.44-1.268-4.345-3.503-4.807.845z" fill="url(#paint1_linear)"/><path d="M24.56 4.698s2.325-3.294 2.895 1.55c0 0 1.52-1.874-.305-3.906-1.826-2.032-2.59 2.356-2.59 2.356z" fill="url(#paint2_linear)"/><path d="M30.64 8.173s-.863-2.3-2.39-1.196c-1.523 1.1-1.128 3.931-1.128 3.931s.404-2.075 1.394-3.102c.993-1.027 2.125.367 2.125.367z" fill="#4E2D23"/><path d="M14.59 7.405s-.993.003-1.36-1.008c-.37-1.015-.688-1.36-1.496.252 0 0 .262-1.495 1.175-1.526.916-.034.528.928.67 1.166.141.23.314.706 1.01 1.116z" fill="#553328"/><path d="M18.873 14.143s1.961-1.458 5.076-1.326c0 0-2.38-2.393-5.076 1.326z" fill="#000"/><path d="M19.379 9.059l-.253 1.619s2.75.647 4.761-.244c.639.099-3.561-.752-4.508-1.375z" fill="#492018"/><path d="M16.31 19.12c3.297-.385 6.877-3.126 6.819-3.151-.303-.133-.51-.327-.51-.327.707-.46 1.734.426 1.734.426a1.015 1.015 0 01-.58.23c-.345 1.068-.774 4.626-5.458 5.348-.262-1.511-2.005-2.526-2.005-2.526z" fill="#C76E44"/><path d="M23.129 18.278c0 .003 0 .003 0 0-.713 1.65-2.082 2.51-3.183 2.948.395-1.822 2.291-2.686 3.183-2.948z" fill="#D5581B"/><path d="M18.888 20.373c-.685.262-1.11-.549-1.573-1.264 2.168-.438 4.441-1.922 5.591-2.625-.203.444-1.313 2.227-1.856 2.711.684-.33 2.282-1.468 2.223-1.301-.897 2.636-3.432 3.469-4.49 3.688-.142-.657-.179-1.089-.092-1.712l.197.503z" fill="#fff"/><path d="M18.889 22.145l1.449.303-1.129.697-.32-1z" fill="#C76E44"/><path d="M5.894 23.12c-1.462 9.367 2.038 7.822 2.038 7.822L8.898 36l1.868-7.802-4.872-5.079z" fill="url(#paint3_linear)"/><path d="M6.443 19.832l-.552.238.006 3.05-.252 2.516c.37 2.494.934 4.422 2.29 4.486 0 0 3.18.45 4.127-2.914.943-3.364-5.619-7.376-5.619-7.376z" fill="#E37B48"/><path d="M7.47 28.164s.527.928 1.52 1.135c.993.207 1.872-1.135 1.872-1.135H7.47z" fill="#FAB181"/><path d="M11.997 21.945s-1.268-.858-1.006-2.236c.26-1.378.818-2.424.192-3.482-.626-1.057-1.345-1.22-2.128-.48 0 0 .709 2.494-.783 3.311-1.5.817.459 4.913 3.725 2.887z" fill="#E37B48"/><path d="M6.07 21.414s-.703.154-.176 1.705c0 0 6.926.407 7.642 1.462 0 0 .746-.41.687-1.193-.061-.787-.687-1.752-8.153-1.974z" fill="#FAB181"/><path d="M5.894 23.12s-.9 1.504.694 2.515l5.893.617s1.35-.132 1.054-1.671c0 0-1.705-1.462-7.641-1.462zM12.481 26.253s.512 1.538-1.807 1.911H7.279s-1.252-1.076-.69-2.528l5.892.617z" fill="#FAB181"/><path d="M10.674 28.165c2.32-.374 1.807-1.912 1.807-1.912s1.35-.133 1.055-1.672c0 0-.32-.274-1.166-.586.583.17 1.015.364 1.166.586 0 0 .746-.41.688-1.193-.047-.59-.41-1.28-3.747-1.684 0 0-.867 3.232-.487 6.46h.684z" fill="#F29D6C"/><path d="M6.07 21.414s-.064-2.504 1.993-2.572c2.053-.068 2.096 2.446 1.088 3.102-1.011.657-2.19-.53-2.19-.53h-.89z" fill="#FAB181"/><path d="M7.47 28.164l1.458.274-.132.497.814-.77h1.255H7.47zM9.765 20.18c-.087.64-.28 1.666-1.339 1.521-1.6-.219-1.705-2.266-1.705-2.266-.681.758-.65 1.98-.65 1.98h.888s1.178 1.187 2.19.53c.492-.318.733-1.076.616-1.764zM5.749 23.45s6.51.076 7.827 1.236c0 0 .696-.595.644-1.299 0 0-.743.53-1.215.46-.472-.074-5.063-1.052-7.111-.725l-.145.327zM13.572 24.858c-.034.262-.212.731-1.045.777-1.101.06-5.563-.037-6.64-.672.146.235.37.463.698.672l5.893.617c.003 0 1.187-.117 1.094-1.394zM8.79 27.77c-1.758.092-2.144-.491-2.22-.67.234.654.709 1.064.709 1.064h3.395c2.319-.373 1.807-1.912 1.807-1.912-.454 1.536-1.62 1.41-3.691 1.517z" fill="#E37B48"/><path d="M7.76 19.434s-.33.95.172 2.125c0 0-1.03-.228-1.363-1.067-.333-.836.691-1.193 1.19-1.058z" fill="#F29D6C"/></g><defs><linearGradient id="paint0_linear" x1="22.633" y1="23.474" x2="22.633" y2="33.418" gradientUnits="userSpaceOnUse"><stop stop-color="#FEAC71"/><stop offset="1" stop-color="#DE7240"/></linearGradient><linearGradient id="paint1_linear" x1="16.635" y1=".588" x2="18.474" y2="8.309" gradientUnits="userSpaceOnUse"><stop stop-color="#633E31"/><stop offset=".263" stop-color="#5E3A2E"/><stop offset=".573" stop-color="#502F25"/><stop offset=".905" stop-color="#381C15"/><stop offset="1" stop-color="#301610"/></linearGradient><linearGradient id="paint2_linear" x1="29.306" y1="8.181" x2="25.479" y2="2.994" gradientUnits="userSpaceOnUse"><stop stop-color="#633E31"/><stop offset=".263" stop-color="#5E3A2E"/><stop offset=".573" stop-color="#502F25"/><stop offset=".905" stop-color="#381C15"/><stop offset="1" stop-color="#301610"/></linearGradient><linearGradient id="paint3_linear" x1="5.537" y1="29.558" x2="10.764" y2="29.558" gradientUnits="userSpaceOnUse"><stop/><stop offset=".99" stop-color="#36556B"/></linearGradient><clipPath id="clip0"><path fill="#fff" d="M0 0h36v36H0z"/></clipPath></defs></svg>