<svg width="30" height="30" viewBox="0 0 30 30" fill="none" xmlns="http://www.w3.org/2000/svg"><g clip-path="url(#clip0)"><path d="M8.366 13.737a3.549 3.549 0 01-2.393-3.355V6.38a3.547 3.547 0 013.548-3.548h10.958a3.547 3.547 0 013.547 3.548v4c0 1.488-1.095 2.84-2.392 3.367l2.05 2.292c1.93-.844 3.317-3.143 3.317-5.382V6.105A6.076 6.076 0 0020.925.029H9.075a6.076 6.076 0 00-6.076 6.076v4.553a6.074 6.074 0 003.136 5.318l.2.064 2.03-2.303z" fill="#EB93B2" stroke="#8C93A9" stroke-width=".066" stroke-miterlimit="10"/><path d="M23.043 15.014a10.832 10.832 0 012.83 7.316C25.872 28.334 21.003 30 15 30c-6.005 0-10.873-1.666-10.873-7.67S8.995 11.458 15 11.458a10.825 10.825 0 016.634 2.258" fill="#EB93B2"/><path d="M23.043 15.014l-1.41-1.298-.12-.092a10.825 10.825 0 00-7.507-2.12 10.816 10.816 0 015.638 2.212l1.41 1.299a10.832 10.832 0 012.829 7.315c0 5.669-4.34 7.47-9.878 7.654.328.01.66.016.995.016 6.005 0 10.873-1.666 10.873-7.67 0-2.817-1.072-5.384-2.83-7.315z" fill="#D96F94"/><path d="M25.834 21.416c-12.142 5.08-21.63-.01-21.63-.01l-.039.016c-.025.3-.038.602-.038.908 0 .439.027.854.077 1.248 0 0 9.466 5.077 21.588.026.053-.401.08-.825.08-1.274 0-.308-.013-.613-.038-.914z" fill="#F9E6E6"/><path d="M25.834 21.416c-.445.186-1.47.555-1.909.714 0 .302-.083 2.207-.301 2.292a36.26 36.26 0 002.168-.818c.053-.401.08-.825.08-1.274 0-.308-.013-.613-.038-.914z" fill="#E4D3D3"/><path d="M14.484 15.97a.452.452 0 00-.64-.016l-1.498 1.428v-1.13a.452.452 0 10-.905 0v3.798a.452.452 0 10.905 0v-1.07l1.498 1.428a.45.45 0 00.64-.016.452.452 0 00-.015-.639l-1.65-1.572 1.65-1.572a.452.452 0 00.015-.64zM18.046 17.82h-.784a.452.452 0 100 .904h.331v.18a.724.724 0 01-1.447 0v-1.447a.724.724 0 011.384-.296.452.452 0 10.825-.372 1.63 1.63 0 00-3.114.668v1.448c0 .897.73 1.628 1.628 1.628a1.63 1.63 0 001.629-1.628v-.634a.452.452 0 00-.453-.452z" fill="#F9E6E6"/></g><defs><clipPath id="clip0"><path fill="#fff" d="M0 0h30v30H0z"/></clipPath></defs></svg>