<svg width="36" height="36" viewBox="0 0 36 36" fill="none" xmlns="http://www.w3.org/2000/svg"><g clip-path="url(#clip0)"><path d="M20.222 12.812c-.63-.731 1.986-3.305 1.986-3.305s8.34 6.493 11.329 10.64c2.988 4.145 2.019 5.792-.057 7.537-2.377 2.001-10.905 3.85-10.905 3.85l-5.055-8.13 9.681-.702s-2.33-4.48-6.98-9.89z" fill="#FFD1A3"/><path d="M30.88 26.552c3.117.779 4.435-.587 4.504-2.651.26 1.643-.606 2.693-1.9 3.782-2.378 2.001-10.905 3.85-10.905 3.85l-5.295-8.28c.147.23.69-.187.788-.262a.596.596 0 01.76.05c.018-.16.233-.2.397-.19.203.009.409.015.612.024l1.533.06c.844.032 1.691-.051 2.532-.159.403-.05.826-.2 1.232-.197.072 0 .14.01.212 0 .065-.009.128-.03.19-.044a.824.824 0 01.603.104c.042-.158.227-.247.39-.236.457.03.574.555.77.901.242.424.514.832.815 1.217.7.898 1.62 1.745 2.762 2.031z" fill="#6D7DB3"/><path opacity=".07" d="M25.287 12.512s5.932 5.146 7.809 8.054c1.876 2.908-2.637 3.818-3.884 2.314-1.247-1.503-4.656-7.623-5.763-9.097-1.106-1.476-.062-2.983 1.838-1.27z" fill="#FFD1A3"/><path d="M12.625 16.832c1.601-.027 2.765.775 2.783 1.918l.572 5.195c.018 1.146-1.598 1.322-3.2 1.349-1.602.027-2.911-.164-2.93-1.307V19.07c-.017-1.143 1.173-2.207 2.775-2.237z" fill="#FFD1A3"/><path d="M7.34 23.418l-.698 7.373C5.428 33.178 2.755 39.86 2.69 44.222c-.087 5.945-2.243 5.873-.298 16.343l-4.597-1.521c-.576-3.77-1.634-9.691-1.31-15.275 1.2-20.628 10.652-19.954 10.855-20.351z" fill="#FE9A78"/><path opacity=".7" d="M7.34 23.418l-.698 7.373C5.428 33.178 2.755 39.86 2.69 44.222c-.003.302-.015.585-.027.856-.93-.838-2.282-1.252-3.496-1.002-1.31.269-2.222 1.08-2.738 2.178-.006-.832.009-1.662.057-2.488C-2.315 23.141 7.137 23.815 7.34 23.418z" fill="#F78769"/><path d="M7.34 23.418l-.698 7.373C5.612 32.816 3.534 37.93 2.887 42.1a27.589 27.589 0 00-3.174-.471 35.953 35.953 0 00-3.054-.123C-1.608 23.182 7.146 23.8 7.339 23.418z" fill="#6D7DB3"/><path d="M18.755 23.863v3.904H7.149v-4.295c3.48-1.03 8.238-1.017 11.606.39z" fill="#FFD1A3"/><path d="M7.737 23.254c.337 2.001 2.854 2.455 5.613 2.5 2.488.041 3.618-.499 4.06-2.408.826.143 2.929.812 4.095 1.56v33.628c-1.85.414-4.555.829-7.863.787-3.552-.045-6.189-.54-7.823-.963V23.803c.301-.12.626-.218.984-.293.301-.086.614-.17.934-.256z" fill="#DFE5EA"/><path d="M16.628 23.191c1.494 0 4.47 1.214 5.384 2.106 1.95 1.906 1.971 6.583 2.16 13.378.199 7.293.199 6.583 1.142 20.65 0 0-4.096.966-9.137 1.24.695-10.09-1.399-32.261-1.557-33.899.105-.522 1.677-2.028 2.008-3.475zM2.54 29.591c0-.656-.119-5.172 4.26-6.082.301-.086 1.688-.45 2.01-.533.29 1.718.988 1.375 3.04 3.648.2 1.998 1.79 18.382 1.434 34.313-6.12-.131-11.173-2.222-11.173-2.222.671-7.845.448-22.252.43-29.124z" fill="#6D7DB3"/><path opacity=".08" d="M17.424 23.277s.758 3.403.003 4.886c0 0-.194-2.133-1.13-1.76-.624.248-1.232 1.13-1.578 1.685a71.536 71.536 0 00-.099-1.422c.102-.505 1.578-1.936 1.972-3.338.48-.075.832-.05.832-.05z" fill="#002A3D"/><path d="M16.524 24.646c.015.117 1.604 11.77 2.06 21.61.305 6.535.207 11.496.105 14.115-.244.023-.492.047-.745.068.1-2.57.205-7.552-.102-14.15-.426-9.166-1.837-19.916-2.034-21.377.042-.063.083-.125.122-.188l.594-.078zM9.621 24.977l.448-.05c.098.083.205.17.319.268.194 1.838 1.202 11.779 1.223 21.15.015 6.786-.26 11.806-.45 14.467-.248-.024-.496-.048-.737-.078.19-2.648.462-7.641.447-14.388-.02-10.282-1.238-21.258-1.25-21.368z" fill="#7588BC"/><path opacity=".08" d="M8.291 23.277s.239-.015.588.018c.325 1.363 1.061 1.205 2.976 3.328.024.23.126.958.173 1.832-.629-.66-2.082-1.843-2.607-2.052-.936-.37-1.13 1.763-1.13 1.763-.758-1.486 0-4.89 0-4.89z" fill="#002A3D"/><path d="M22.763 30.033l.376.779-6.46-1.086.118-.73 5.966 1.037zM15.73 21.724s.77.286 1.79 1.676.092 4.268.092 4.268-.155-.68-.495-1.816c-.501-1.674-2.5.814-2.5.814s.18-.981.585-1.897c.62-1.393.528-3.045.528-3.045z" fill="#7588BC"/><path d="M15.57 29.213c-.274 0-.496-.198-.496-.442 0-.243.222-.44.495-.44.274 0 .495.197.495.44 0 .244-.221.442-.495.442zM16.064 34.185c-.273 0-.495-.198-.495-.442s.222-.441.495-.441c.274 0 .496.197.496.441s-.222.442-.496.442z" fill="#B0B5C1"/><path d="M10.313 28.852l.15.724-5.994 1.238-.15-.725 5.994-1.237zM9.854 21.962s-.054.596.564 1.986c.405.916 1.297 1.575 1.44 2.747 0 0-2.762-2.514-3.26-.844-.34 1.137-.495 1.817-.495 1.817s-.927-2.875.093-4.268c1.02-1.39 1.658-1.438 1.658-1.438z" fill="#7588BC"/><path opacity=".12" d="M15.73 21.724s.194.074.516.319c.74.704.62 2.123.29 3.233-.773-.033-1.918 1.387-1.918 1.387s.178-.981.584-1.897c.62-1.39.528-3.042.528-3.042zM9.854 21.962s-.054.596.564 1.986c.405.916 1.297 1.575 1.44 2.747 0 0-1.598-1.455-2.583-1.413-.182-1.16-.194-2.333.564-3.317.009-.003.015-.003.015-.003z" fill="#fff"/><path d="M19.232 22.845c.203.009.405.015.605.024.167.006.332.012.498.02 1.104 1.378 2.906 5.363 3.553 8.674.158 2.002.206 4.388.28 7.111.012.483.027.928.036 1.348-.892-11.623-4.325-16.291-5.062-17.162.03-.006.06-.012.09-.015zM6.803 23.51c.027-.01.065-.019.11-.03-.635.557-2.511 3.433-3.442 18.021l-.746-.048c.713-11.206 1.996-15.775 3.013-17.619a5.802 5.802 0 011.065-.325z" fill="#7588BC"/><path d="M4.208 37.958c.131.874-.11 2.458-.465 4.414-.305 1.682-1.164 2.022-1.164 2.022-1.923-1.83-6.052-1.345-6.052-1.345-.456-.143-.581-.665-.581-.665-.084-1.181.581-6.01.581-6.01.958-1.468 7.484.274 7.68 1.584z" fill="#B6BDCE"/><path d="M23.178 39.3c.033.43-.179.845-.549 1.068l-1.061.65a.913.913 0 01-.96-.008l-1.382-.877a1.115 1.115 0 01-.516-.86l-.33-4.348h4.48l.318 4.376zM4.82 35.426h4.828v4.316c0 .411-.2.8-.536 1.038l-.904.638c-.483.34-1.137.32-1.593-.057L5.288 40.28a1.593 1.593 0 01-.585-1.289l.116-3.564z" fill="#7588BC"/><path d="M20.127 12.937c.748.241 1.091 1.33.763 2.433-.328 1.104-1.199 1.799-1.948 1.557-.748-.241-1.091-1.33-.763-2.434.328-1.1 1.199-1.798 1.948-1.556z" fill="#EEBB89"/><path d="M16.15 2.801s0-.012.003-.032c0 .02-.003.032-.003.032z" fill="#381911"/><path d="M7.047 14.285c-.024-2.679.349-6.067.883-8.062.405-2.595 7.716-3.863 9.89-.314.695 1.647 1.832 4.722 2.22 7.782v-.053s2.037 8.13-5.205 8.676c-7.242.55-8.072-3.266-7.788-8.03z" fill="#FFD1A3"/><g opacity=".4" fill="#EEBB89"><path opacity=".4" d="M17.463 12.628c1.438-.027 2.628 1.17 2.657 2.676.03 1.503-1.112 2.744-2.55 2.77-1.437.028-2.627-1.168-2.657-2.675-.03-1.503 1.112-2.744 2.55-2.77z"/><path opacity=".4" d="M17.463 12.646c1.429-.027 2.61 1.163 2.64 2.655.03 1.494-1.104 2.726-2.532 2.753-1.43.027-2.61-1.164-2.64-2.655-.03-1.491 1.104-2.726 2.532-2.753z"/><path opacity=".4" d="M17.463 12.668c1.416-.026 2.592 1.155 2.621 2.637.03 1.483-1.097 2.709-2.514 2.735-1.42.027-2.592-1.154-2.622-2.636-.03-1.486 1.098-2.712 2.515-2.736z"/><path opacity=".4" d="M14.968 15.433c-.047-1.472 1.056-2.701 2.464-2.746 1.408-.045 2.587 1.112 2.634 2.584.046 1.472-1.057 2.702-2.465 2.747-1.407.044-2.586-1.113-2.633-2.585z"/><path opacity=".4" d="M14.986 15.433c-.047-1.463 1.049-2.684 2.446-2.728 1.398-.045 2.57 1.104 2.616 2.567.046 1.462-1.05 2.683-2.447 2.728-1.398.044-2.569-1.105-2.615-2.567z"/><path opacity=".4" d="M15.003 15.433c-.046-1.452 1.042-2.665 2.43-2.71 1.388-.044 2.55 1.098 2.597 2.55.046 1.452-1.042 2.665-2.43 2.71-1.388.043-2.55-1.098-2.597-2.55z"/><path opacity=".4" d="M17.466 12.743c1.378-.027 2.52 1.121 2.547 2.565.03 1.443-1.065 2.634-2.446 2.657-1.378.027-2.52-1.121-2.547-2.565-.03-1.443 1.065-2.633 2.446-2.657z"/><path opacity=".4" d="M15.039 15.431c-.046-1.43 1.027-2.626 2.395-2.67 1.368-.043 2.514 1.082 2.56 2.513.045 1.43-1.027 2.626-2.395 2.67-1.369.043-2.514-1.082-2.56-2.513z"/><path opacity=".4" d="M17.467 12.778c1.36-.027 2.484 1.106 2.511 2.526.027 1.423-1.05 2.595-2.41 2.619-1.36.027-2.485-1.107-2.512-2.526-.03-1.42 1.05-2.592 2.41-2.62z"/><path opacity=".4" d="M15.075 15.43c-.044-1.412 1.012-2.59 2.36-2.633 1.35-.043 2.479 1.066 2.524 2.477.045 1.411-1.012 2.59-2.36 2.633-1.35.043-2.479-1.066-2.524-2.477z"/><path opacity=".4" d="M15.093 15.43c-.044-1.402 1.005-2.572 2.343-2.614 1.339-.043 2.46 1.058 2.505 2.46.044 1.4-1.005 2.571-2.343 2.614-1.339.042-2.46-1.06-2.505-2.46z"/><path opacity=".4" d="M15.111 15.429c-.044-1.39.997-2.55 2.326-2.593 1.329-.042 2.442 1.05 2.486 2.44.044 1.39-.997 2.55-2.326 2.593-1.329.042-2.442-1.05-2.486-2.44z"/><path opacity=".4" d="M15.129 15.429c-.044-1.38.99-2.532 2.309-2.574 1.318-.042 2.423 1.042 2.467 2.422.044 1.38-.99 2.532-2.309 2.574-1.318.042-2.423-1.042-2.467-2.422z"/><path opacity=".4" d="M15.147 15.428c-.044-1.37.982-2.514 2.291-2.556 1.309-.041 2.405 1.036 2.449 2.405.043 1.37-.982 2.515-2.291 2.556-1.31.042-2.406-1.035-2.45-2.405z"/><path opacity=".4" d="M15.165 15.427c-.044-1.36.974-2.496 2.273-2.537 1.3-.041 2.388 1.028 2.43 2.388.044 1.36-.974 2.496-2.273 2.537-1.299.041-2.387-1.028-2.43-2.388z"/><path opacity=".4" d="M15.182 15.427c-.043-1.349.968-2.475 2.257-2.516 1.29-.041 2.37 1.019 2.412 2.367.043 1.349-.967 2.475-2.257 2.516-1.289.041-2.369-1.019-2.412-2.367z"/><path opacity=".4" d="M15.2 15.426c-.042-1.339.96-2.457 2.24-2.498 1.279-.04 2.35 1.012 2.393 2.35.043 1.339-.96 2.457-2.24 2.498-1.279.04-2.35-1.012-2.393-2.35z"/><path opacity=".4" d="M15.218 15.426c-.042-1.329.953-2.439 2.222-2.479 1.27-.04 2.333 1.004 2.375 2.333.042 1.328-.953 2.438-2.222 2.479-1.27.04-2.333-1.004-2.375-2.333z"/><path opacity=".4" d="M15.236 15.425c-.042-1.319.945-2.42 2.204-2.46 1.26-.04 2.315.996 2.357 2.315.042 1.319-.945 2.42-2.205 2.46-1.26.04-2.314-.996-2.356-2.315z"/><path opacity=".4" d="M15.254 15.424c-.042-1.307.937-2.399 2.187-2.439 1.25-.04 2.297.988 2.338 2.295.042 1.308-.938 2.4-2.187 2.44-1.25.04-2.297-.988-2.338-2.296z"/><path opacity=".4" d="M15.271 15.424c-.04-1.298.93-2.382 2.17-2.421 1.24-.04 2.279.98 2.32 2.278.041 1.297-.93 2.38-2.17 2.42-1.24.04-2.278-.98-2.32-2.277z"/><path opacity=".4" d="M15.29 15.424c-.042-1.288.922-2.363 2.152-2.402 1.23-.04 2.26.972 2.301 2.26.041 1.288-.923 2.363-2.153 2.402-1.23.04-2.26-.973-2.3-2.26z"/><path opacity=".4" d="M15.305 15.423c-.04-1.278.917-2.345 2.138-2.384 1.222-.039 2.245.966 2.286 2.243.04 1.278-.917 2.345-2.138 2.384-1.222.039-2.245-.965-2.286-2.243z"/><path opacity=".4" d="M15.323 15.422c-.04-1.266.91-2.324 2.121-2.362 1.212-.039 2.227.957 2.267 2.223.04 1.266-.91 2.324-2.121 2.362-1.212.039-2.227-.957-2.267-2.223z"/><path opacity=".4" d="M15.34 15.421c-.04-1.256.903-2.305 2.105-2.343 1.201-.039 2.208.949 2.248 2.205.04 1.256-.902 2.306-2.104 2.344-1.202.038-2.208-.95-2.248-2.205z"/><path opacity=".4" d="M15.358 15.422c-.04-1.247.895-2.288 2.087-2.326 1.192-.038 2.19.942 2.23 2.188.04 1.247-.894 2.288-2.086 2.326-1.192.038-2.19-.942-2.23-2.188z"/><path opacity=".4" d="M15.376 15.42c-.04-1.236.887-2.269 2.07-2.306 1.182-.038 2.172.934 2.211 2.17.04 1.237-.887 2.27-2.069 2.308-1.182.037-2.172-.935-2.212-2.171z"/><path opacity=".4" d="M15.394 15.42c-.039-1.225.88-2.248 2.052-2.286 1.172-.037 2.154.926 2.193 2.15.04 1.226-.88 2.25-2.052 2.286-1.172.038-2.154-.925-2.193-2.15z"/><path opacity=".4" d="M15.412 15.42c-.039-1.216.872-2.231 2.035-2.268 1.162-.037 2.136.918 2.174 2.133.04 1.215-.872 2.23-2.034 2.267-1.163.037-2.136-.918-2.175-2.133z"/><path opacity=".4" d="M15.43 15.42c-.039-1.206.864-2.213 2.017-2.25 1.153-.036 2.118.911 2.156 2.117.039 1.205-.865 2.211-2.017 2.248-1.153.037-2.118-.91-2.156-2.116z"/><path opacity=".4" d="M15.447 15.418c-.038-1.195.858-2.193 2-2.23 1.143-.036 2.1.903 2.138 2.099.038 1.195-.857 2.194-2 2.23-1.142.036-2.1-.903-2.138-2.098z"/><path opacity=".4" d="M15.465 15.418c-.037-1.184.85-2.173 1.983-2.21 1.133-.035 2.082.895 2.12 2.08.037 1.183-.85 2.172-1.983 2.208-1.133.036-2.082-.894-2.12-2.078z"/><path opacity=".4" d="M15.483 15.417c-.037-1.174.843-2.155 1.966-2.19 1.122-.036 2.063.886 2.1 2.06.038 1.174-.842 2.155-1.965 2.19-1.123.037-2.063-.886-2.1-2.06z"/><path opacity=".4" d="M15.5 15.417c-.036-1.164.836-2.136 1.95-2.172 1.112-.035 2.044.88 2.082 2.044.037 1.164-.836 2.136-1.949 2.172-1.113.035-2.045-.88-2.082-2.044z"/><path opacity=".4" d="M15.52 15.416c-.037-1.154.827-2.118 1.93-2.153 1.104-.035 2.028.872 2.065 2.026.036 1.154-.828 2.118-1.931 2.153-1.104.036-2.028-.872-2.064-2.026z"/><path opacity=".4" d="M15.537 15.415c-.036-1.142.82-2.097 1.914-2.131 1.093-.035 2.01.863 2.046 2.005.036 1.143-.82 2.098-1.914 2.132-1.093.035-2.01-.863-2.045-2.005z"/><path opacity=".4" d="M15.555 15.416c-.036-1.133.813-2.08 1.897-2.114 1.083-.034 1.99.856 2.027 1.989.036 1.133-.813 2.079-1.897 2.113-1.083.035-1.99-.856-2.027-1.988z"/><path opacity=".4" d="M15.573 15.414c-.036-1.123.806-2.061 1.88-2.095 1.073-.034 1.972.848 2.008 1.971.035 1.123-.806 2.061-1.88 2.095-1.073.034-1.972-.848-2.008-1.971z"/><path opacity=".4" d="M15.591 15.414c-.035-1.111.798-2.04 1.862-2.074 1.063-.034 1.954.84 1.99 1.951.035 1.112-.798 2.04-1.862 2.074-1.064.034-1.955-.84-1.99-1.951z"/><path opacity=".4" d="M15.609 15.413c-.035-1.101.79-2.021 1.844-2.055 1.054-.034 1.937.832 1.972 1.934.035 1.101-.791 2.021-1.845 2.055-1.053.034-1.936-.832-1.971-1.934z"/><path opacity=".4" d="M15.627 15.413c-.035-1.091.783-2.003 1.827-2.036 1.044-.034 1.918.824 1.953 1.916.035 1.092-.784 2.004-1.827 2.037-1.044.033-1.919-.825-1.953-1.917z"/><path opacity=".4" d="M15.644 15.412c-.034-1.082.776-1.986 1.81-2.019 1.034-.033 1.9.818 1.935 1.9.034 1.081-.776 1.985-1.81 2.018-1.034.032-1.9-.818-1.935-1.9z"/><path opacity=".4" d="M15.662 15.412c-.034-1.07.769-1.965 1.793-1.997 1.024-.033 1.882.808 1.916 1.879.034 1.07-.769 1.964-1.793 1.997-1.024.032-1.882-.809-1.916-1.88z"/><path opacity=".4" d="M15.68 15.41c-.034-1.06.761-1.945 1.775-1.978 1.015-.032 1.864.802 1.898 1.862.034 1.06-.761 1.946-1.775 1.978-1.015.033-1.864-.8-1.898-1.861z"/><path opacity=".4" d="M15.698 15.41c-.034-1.05.753-1.928 1.758-1.96 1.004-.032 1.845.794 1.879 1.844.033 1.05-.754 1.928-1.758 1.96-1.004.032-1.846-.793-1.88-1.844z"/><path opacity=".4" d="M15.716 15.41c-.034-1.04.746-1.91 1.74-1.941.995-.032 1.828.786 1.861 1.827.033 1.04-.746 1.91-1.74 1.941-.995.032-1.828-.786-1.861-1.827z"/><path opacity=".4" d="M15.733 15.41c-.032-1.03.74-1.89 1.724-1.92.985-.032 1.81.777 1.842 1.806.033 1.029-.739 1.889-1.723 1.92-.985.031-1.81-.777-1.843-1.807z"/><path opacity=".4" d="M15.751 15.409c-.032-1.02.732-1.87 1.706-1.902.975-.031 1.792.77 1.824 1.79.033 1.018-.731 1.87-1.706 1.9-.975.032-1.791-.77-1.824-1.788z"/><path opacity=".4" d="M15.77 15.408c-.032-1.01.724-1.853 1.689-1.883.965-.031 1.773.762 1.805 1.771.032 1.01-.724 1.853-1.689 1.884-.965.03-1.773-.763-1.805-1.772z"/><path opacity=".4" d="M15.788 15.408c-.032-1 .716-1.834 1.671-1.865.955-.03 1.755.755 1.787 1.755.032 1-.716 1.834-1.671 1.865-.955.03-1.755-.756-1.787-1.755z"/><path opacity=".4" d="M15.806 15.406c-.032-.988.709-1.813 1.654-1.843.945-.03 1.737.746 1.768 1.734.032.988-.709 1.813-1.654 1.843-.945.03-1.737-.746-1.768-1.734z"/><path opacity=".4" d="M15.823 15.406c-.03-.978.702-1.795 1.637-1.824.936-.03 1.72.738 1.75 1.716.031.978-.701 1.795-1.637 1.825-.935.03-1.718-.739-1.75-1.717z"/><path opacity=".4" d="M15.841 15.407c-.03-.969.694-1.777 1.62-1.807.925-.03 1.7.732 1.731 1.7.031.968-.694 1.777-1.62 1.806-.925.03-1.7-.731-1.73-1.7z"/><path opacity=".4" d="M15.86 15.406c-.031-.959.686-1.759 1.601-1.788.916-.03 1.683.724 1.713 1.682.03.958-.687 1.759-1.602 1.788-.915.03-1.682-.724-1.713-1.682z"/><path opacity=".4" d="M15.877 15.404c-.03-.947.68-1.738 1.585-1.767.905-.028 1.664.716 1.694 1.662.03.947-.68 1.738-1.585 1.767-.905.029-1.664-.715-1.694-1.662z"/><path opacity=".4" d="M15.895 15.404c-.03-.937.672-1.72 1.567-1.748.896-.028 1.646.708 1.676 1.645.03.937-.672 1.72-1.567 1.748-.896.028-1.646-.708-1.676-1.645z"/><path opacity=".4" d="M15.912 15.403c-.029-.927.665-1.701 1.551-1.73.886-.027 1.628.701 1.657 1.628.03.927-.664 1.701-1.55 1.73-.886.028-1.628-.7-1.658-1.628z"/><path opacity=".4" d="M15.93 15.403c-.029-.917.657-1.683 1.533-1.71.876-.029 1.61.692 1.64 1.61.029.916-.658 1.682-1.534 1.71-.876.028-1.61-.692-1.639-1.61z"/><path opacity=".4" d="M15.948 15.403c-.029-.906.65-1.662 1.516-1.69.866-.028 1.592.684 1.62 1.59.03.905-.65 1.662-1.515 1.69-.866.027-1.592-.685-1.62-1.59z"/><path opacity=".4" d="M17.484 13.73c.856-.015 1.566.698 1.584 1.592.018.895-.662 1.635-1.518 1.653-.856.015-1.566-.698-1.584-1.593-.018-.898.662-1.637 1.518-1.652z"/><path opacity=".4" d="M17.485 13.747c.847-.015 1.547.69 1.565 1.575.018.886-.653 1.617-1.5 1.632-.847.015-1.548-.69-1.566-1.575-.018-.883.653-1.614 1.5-1.632z"/><path opacity=".4" d="M16.003 15.401c-.028-.876.627-1.607 1.463-1.634.837-.027 1.538.662 1.566 1.538.027.875-.628 1.607-1.464 1.634-.837.026-1.538-.662-1.565-1.538z"/><path opacity=".4" d="M17.484 13.786c.826-.014 1.512.675 1.53 1.54.018.864-.638 1.58-1.467 1.595-.826.015-1.512-.674-1.53-1.539-.015-.868.64-1.58 1.467-1.596z"/><path opacity=".4" d="M16.038 15.4c-.027-.855.613-1.569 1.43-1.595.816-.026 1.5.646 1.528 1.5.027.855-.613 1.569-1.43 1.595-.816.026-1.5-.646-1.528-1.5z"/><path opacity=".4" d="M17.487 13.822c.808-.014 1.476.657 1.491 1.504.018.844-.623 1.542-1.432 1.557-.808.015-1.476-.656-1.49-1.503-.019-.845.622-1.543 1.43-1.558z"/><path opacity=".4" d="M17.487 13.84c.797-.015 1.459.65 1.474 1.482.018.836-.618 1.525-1.414 1.54-.797.015-1.459-.65-1.474-1.483-.018-.835.615-1.521 1.414-1.539z"/><path opacity=".4" d="M17.487 13.862c.788-.015 1.441.64 1.456 1.464.018.823-.609 1.503-1.396 1.518-.787.015-1.44-.641-1.456-1.464-.017-.823.609-1.504 1.396-1.518z"/><path opacity=".4" d="M17.487 13.878c.778-.015 1.423.633 1.438 1.447.014.814-.603 1.485-1.378 1.5-.779.015-1.423-.632-1.438-1.446-.018-.815.6-1.486 1.378-1.5z"/><path opacity=".4" d="M17.487 13.897c.77-.015 1.405.626 1.42 1.428.015.803-.594 1.468-1.363 1.483-.77.015-1.405-.627-1.42-1.429-.015-.805.597-1.467 1.363-1.482z"/><path opacity=".4" d="M17.488 13.917c.757-.015 1.387.618 1.401 1.411.015.794-.587 1.447-1.345 1.462-.757.015-1.387-.618-1.402-1.411-.015-.794.588-1.45 1.346-1.462z"/><path opacity=".4" d="M17.487 13.936c.748-.015 1.369.608 1.384 1.393.015.781-.579 1.428-1.327 1.443-.75.015-1.37-.608-1.384-1.393-.015-.784.581-1.431 1.327-1.443z"/><path opacity=".4" d="M17.49 13.953c.74-.014 1.351.603 1.366 1.375.015.773-.57 1.411-1.31 1.423-.739.015-1.35-.602-1.365-1.375-.018-.772.57-1.408 1.31-1.423z"/><path opacity=".4" d="M17.49 13.972c.728-.015 1.334.594 1.349 1.354.015.764-.564 1.39-1.292 1.405-.728.015-1.333-.594-1.348-1.354-.018-.76.56-1.39 1.291-1.405z"/><path opacity=".4" d="M17.49 13.992c.719-.015 1.315.585 1.33 1.337.015.751-.555 1.372-1.274 1.387-.718.015-1.315-.585-1.33-1.337-.018-.754.555-1.375 1.274-1.386z"/></g><g opacity=".4" fill="#EEBB89"><path opacity=".4" d="M7.636 15.5c-.008-1.503 1.255-2.73 2.821-2.738 1.567-.009 2.844 1.203 2.852 2.707.008 1.504-1.255 2.73-2.821 2.74-1.567.008-2.844-1.204-2.852-2.708z"/><path opacity=".4" d="M7.657 15.5c-.008-1.493 1.246-2.712 2.801-2.72 1.555-.009 2.822 1.195 2.83 2.69.009 1.494-1.245 2.712-2.8 2.72-1.555.01-2.822-1.195-2.83-2.69z"/><path opacity=".4" d="M7.675 15.5c-.009-1.483 1.237-2.694 2.782-2.702 1.546-.009 2.805 1.188 2.813 2.672.008 1.484-1.237 2.694-2.783 2.703-1.545.008-2.804-1.188-2.812-2.672z"/><path opacity=".4" d="M7.696 15.501c-.008-1.473 1.229-2.673 2.762-2.682 1.534-.009 2.784 1.178 2.792 2.651.008 1.473-1.229 2.674-2.762 2.682-1.534.009-2.784-1.178-2.792-2.651z"/><path opacity=".4" d="M7.713 15.501c-.008-1.463 1.22-2.655 2.745-2.664 1.523-.008 2.765 1.17 2.773 2.633.008 1.463-1.22 2.656-2.744 2.664-1.524.009-2.766-1.17-2.774-2.633z"/><path opacity=".4" d="M7.735 15.501c-.008-1.453 1.21-2.637 2.723-2.646 1.512-.008 2.745 1.163 2.753 2.616.008 1.453-1.211 2.637-2.724 2.646-1.512.008-2.744-1.163-2.752-2.616z"/><path opacity=".4" d="M7.752 15.5c-.008-1.443 1.203-2.62 2.706-2.628 1.502-.008 2.726 1.155 2.735 2.598.008 1.443-1.204 2.62-2.706 2.628-1.503.009-2.727-1.155-2.735-2.598z"/><path opacity=".4" d="M7.773 15.5c-.008-1.431 1.195-2.598 2.685-2.607 1.491-.008 2.706 1.146 2.714 2.577.008 1.432-1.194 2.6-2.685 2.607-1.49.009-2.706-1.145-2.714-2.577z"/><path opacity=".4" d="M7.79 15.5c-.007-1.421 1.187-2.58 2.668-2.588 1.48-.009 2.688 1.137 2.696 2.559.008 1.421-1.187 2.58-2.668 2.589-1.48.008-2.687-1.138-2.695-2.56z"/><path opacity=".4" d="M7.812 15.5c-.008-1.411 1.177-2.562 2.646-2.57 1.47-.008 2.667 1.13 2.675 2.541.008 1.412-1.177 2.563-2.646 2.571-1.47.008-2.667-1.13-2.675-2.541z"/><path opacity=".4" d="M7.83 15.5c-.008-1.402 1.168-2.545 2.628-2.553 1.46-.008 2.649 1.122 2.657 2.524.008 1.401-1.17 2.544-2.629 2.552-1.46.009-2.649-1.121-2.657-2.523z"/><path opacity=".4" d="M7.85 15.5c-.007-1.39 1.16-2.524 2.609-2.532 1.447-.008 2.628 1.113 2.635 2.503.008 1.39-1.16 2.524-2.607 2.532-1.448.008-2.629-1.113-2.636-2.503z"/><path opacity=".4" d="M7.869 15.5c-.008-1.38 1.152-2.506 2.59-2.514 1.438-.008 2.61 1.105 2.618 2.485.008 1.38-1.152 2.506-2.59 2.514-1.438.008-2.61-1.104-2.618-2.485z"/><path opacity=".4" d="M7.89 15.5c-.008-1.37 1.142-2.488 2.569-2.496 1.426-.008 2.589 1.097 2.597 2.468.007 1.37-1.143 2.488-2.57 2.496-1.426.007-2.589-1.097-2.597-2.468z"/><path opacity=".4" d="M7.908 15.5c-.008-1.361 1.134-2.47 2.551-2.479 1.417-.008 2.572 1.09 2.579 2.45.008 1.36-1.135 2.47-2.551 2.478-1.417.008-2.572-1.089-2.58-2.45z"/><path opacity=".4" d="M7.928 15.5c-.007-1.35 1.126-2.45 2.53-2.457 1.406-.008 2.551 1.08 2.559 2.428.007 1.35-1.126 2.45-2.531 2.457-1.405.008-2.55-1.08-2.558-2.428z"/><path opacity=".4" d="M7.946 15.5c-.007-1.34 1.118-2.432 2.513-2.44 1.396-.007 2.533 1.072 2.54 2.412.008 1.339-1.117 2.43-2.513 2.438-1.395.008-2.532-1.071-2.54-2.41z"/><path opacity=".4" d="M7.967 15.5c-.008-1.33 1.108-2.414 2.492-2.421 1.384-.008 2.511 1.063 2.519 2.393.007 1.33-1.108 2.413-2.492 2.42-1.384.009-2.512-1.063-2.52-2.392z"/><path opacity=".4" d="M7.985 15.5c-.007-1.32 1.1-2.396 2.474-2.403 1.374-.008 2.494 1.056 2.501 2.375.008 1.32-1.1 2.396-2.474 2.403-1.374.008-2.494-1.056-2.5-2.375z"/><path opacity=".4" d="M8.006 15.499c-.008-1.308 1.09-2.374 2.453-2.382 1.362-.008 2.473 1.047 2.48 2.355.007 1.307-1.091 2.374-2.454 2.382-1.362.007-2.472-1.047-2.48-2.355z"/><path opacity=".4" d="M8.024 15.5c-.007-1.299 1.083-2.357 2.436-2.365 1.352-.007 2.454 1.039 2.461 2.337.008 1.298-1.083 2.356-2.435 2.364-1.353.007-2.455-1.039-2.462-2.337z"/><path opacity=".4" d="M8.044 15.5c-.007-1.289 1.074-2.34 2.415-2.347 1.341-.007 2.434 1.031 2.441 2.32.007 1.287-1.074 2.338-2.415 2.345-1.34.008-2.434-1.03-2.44-2.319z"/><path opacity=".4" d="M8.063 15.498c-.008-1.278 1.066-2.32 2.397-2.328 1.33-.007 2.415 1.023 2.423 2.302.007 1.278-1.066 2.32-2.397 2.327-1.332.008-2.416-1.022-2.423-2.3z"/><path opacity=".4" d="M8.083 15.498c-.007-1.266 1.057-2.3 2.376-2.306 1.32-.008 2.395 1.013 2.402 2.28.007 1.267-1.057 2.3-2.376 2.307-1.32.007-2.395-1.014-2.402-2.28z"/><path opacity=".4" d="M8.101 15.499c-.007-1.257 1.05-2.282 2.359-2.29 1.31-.007 2.377 1.006 2.384 2.263.007 1.257-1.05 2.282-2.359 2.29-1.31.006-2.377-1.006-2.384-2.263z"/><path opacity=".4" d="M8.122 15.499c-.007-1.247 1.04-2.264 2.338-2.271 1.298-.008 2.355.998 2.362 2.245.007 1.247-1.04 2.263-2.337 2.27-1.299.008-2.356-.997-2.363-2.244z"/><path opacity=".4" d="M8.14 15.499c-.007-1.237 1.032-2.246 2.32-2.253 1.288-.007 2.338.99 2.345 2.227.007 1.237-1.032 2.246-2.32 2.253-1.288.007-2.338-.99-2.345-2.227z"/><path opacity=".4" d="M8.161 15.498c-.007-1.225 1.023-2.225 2.3-2.232 1.276-.007 2.317.98 2.323 2.206.007 1.226-1.022 2.225-2.299 2.232-1.276.007-2.317-.98-2.324-2.206z"/><path opacity=".4" d="M8.179 15.498c-.007-1.216 1.014-2.207 2.281-2.214 1.267-.007 2.3.973 2.306 2.189.007 1.215-1.015 2.207-2.281 2.214-1.267.007-2.3-.973-2.306-2.189z"/><path opacity=".4" d="M8.2 15.498c-.007-1.206 1.005-2.189 2.26-2.196 1.256-.007 2.279.965 2.286 2.17.006 1.207-1.006 2.19-2.261 2.197-1.255.007-2.278-.965-2.285-2.17z"/><path opacity=".4" d="M8.217 15.498c-.006-1.196.998-2.17 2.243-2.178 1.245-.007 2.26.957 2.267 2.153.007 1.196-.997 2.171-2.243 2.178-1.245.007-2.26-.957-2.267-2.153z"/><path opacity=".4" d="M8.239 15.498c-.007-1.184.988-2.15 2.222-2.156 1.234-.007 2.24.947 2.246 2.132.006 1.184-.989 2.15-2.222 2.157-1.234.006-2.24-.948-2.246-2.133z"/><path opacity=".4" d="M8.256 15.498c-.007-1.175.98-2.133 2.204-2.14 1.224-.006 2.222.94 2.228 2.115.007 1.175-.98 2.132-2.204 2.139-1.224.007-2.221-.94-2.228-2.114z"/><path opacity=".4" d="M8.277 15.498c-.006-1.165.971-2.114 2.184-2.121 1.212-.007 2.2.932 2.207 2.096.006 1.165-.971 2.114-2.184 2.121-1.212.007-2.2-.932-2.207-2.096z"/><path opacity=".4" d="M8.295 15.498c-.007-1.155.963-2.096 2.165-2.103 1.203-.007 2.183.924 2.19 2.079.006 1.154-.964 2.096-2.166 2.103-1.203.006-2.183-.924-2.19-2.08z"/><path opacity=".4" d="M8.316 15.497c-.006-1.143.954-2.075 2.145-2.082 1.191-.007 2.162.915 2.168 2.058.007 1.143-.954 2.075-2.145 2.082-1.19.007-2.162-.915-2.168-2.058z"/><path opacity=".4" d="M8.334 15.497c-.006-1.133.946-2.057 2.127-2.064 1.182-.006 2.144.907 2.15 2.04.007 1.134-.945 2.058-2.127 2.064-1.18.007-2.143-.906-2.15-2.04z"/><path opacity=".4" d="M8.355 15.497c-.007-1.123.937-2.04 2.106-2.046 1.17-.006 2.123.9 2.13 2.023.006 1.123-.938 2.04-2.107 2.046-1.17.006-2.123-.9-2.13-2.023z"/><path opacity=".4" d="M8.376 15.497c-.006-1.112.928-2.018 2.086-2.025 1.158-.006 2.102.89 2.108 2.002.006 1.112-.928 2.018-2.086 2.025-1.158.006-2.102-.89-2.108-2.002z"/><path opacity=".4" d="M8.393 15.497c-.006-1.102.92-2 2.068-2.007 1.149-.006 2.084.882 2.09 1.984.006 1.102-.92 2-2.068 2.007-1.148.007-2.083-.882-2.09-1.984z"/><path opacity=".4" d="M8.415 15.497c-.006-1.093.91-1.983 2.047-1.99 1.136-.006 2.063.875 2.069 1.967.006 1.092-.91 1.982-2.047 1.989-1.137.006-2.063-.874-2.07-1.966z"/><path opacity=".4" d="M8.432 15.497c-.006-1.082.903-1.965 2.03-1.971 1.126-.007 2.044.866 2.05 1.948.006 1.082-.902 1.965-2.029 1.971-1.127.006-2.045-.866-2.05-1.948z"/><path opacity=".4" d="M8.453 15.497c-.005-1.07.894-1.944 2.009-1.95 1.115-.006 2.024.857 2.03 1.927.006 1.071-.893 1.944-2.008 1.95-1.116.007-2.025-.856-2.03-1.927z"/><path opacity=".4" d="M8.47 15.497c-.005-1.06.886-1.926 1.991-1.932 1.106-.006 2.007.849 2.013 1.91.006 1.06-.886 1.926-1.991 1.932-1.105.006-2.006-.85-2.012-1.91z"/><path opacity=".4" d="M8.492 15.497c-.006-1.05.876-1.908 1.97-1.914 1.094-.006 1.985.841 1.991 1.892.006 1.05-.876 1.908-1.97 1.914-1.093.006-1.985-.841-1.99-1.892z"/><path opacity=".4" d="M8.51 15.496c-.006-1.04.868-1.89 1.952-1.896 1.084-.006 1.967.833 1.973 1.874.006 1.041-.868 1.89-1.952 1.896-1.084.006-1.968-.833-1.973-1.874z"/><path opacity=".4" d="M8.53 15.496c-.005-1.03.86-1.869 1.932-1.875 1.073-.006 1.947.824 1.952 1.854.006 1.03-.858 1.869-1.931 1.875-1.072.006-1.946-.824-1.952-1.854z"/><path opacity=".4" d="M8.548 15.496c-.005-1.02.851-1.85 1.914-1.857 1.062-.005 1.928.816 1.934 1.836.006 1.02-.851 1.851-1.914 1.857-1.062.006-1.928-.816-1.934-1.836z"/><path opacity=".4" d="M8.57 15.496c-.006-1.01.841-1.834 1.892-1.84 1.051-.005 1.908.808 1.914 1.818.005 1.01-.842 1.834-1.893 1.84-1.051.005-1.908-.809-1.913-1.818z"/><path opacity=".4" d="M8.587 15.496c-.006-1 .834-1.816 1.875-1.821 1.041-.006 1.89.8 1.895 1.8.006 1-.834 1.815-1.875 1.82-1.041.006-1.89-.8-1.895-1.8z"/><path opacity=".4" d="M8.608 15.496c-.005-.989.825-1.795 1.854-1.8 1.03-.006 1.87.79 1.875 1.779.005.988-.825 1.794-1.854 1.8-1.03.006-1.87-.79-1.875-1.78z"/><path opacity=".4" d="M8.627 15.496c-.006-.979.816-1.776 1.836-1.782 1.02-.006 1.85.783 1.856 1.761.006.979-.817 1.777-1.836 1.782-1.02.006-1.851-.783-1.856-1.761z"/><path opacity=".4" d="M8.647 15.496c-.005-.969.807-1.758 1.816-1.764 1.008-.006 1.83.775 1.835 1.744.005.968-.808 1.758-1.816 1.764-1.008.005-1.83-.775-1.835-1.744z"/><path opacity=".4" d="M8.665 15.495c-.005-.959.8-1.74 1.798-1.746.998-.005 1.812.767 1.817 1.726.006.959-.8 1.74-1.797 1.746-.999.006-1.812-.767-1.818-1.726z"/><path opacity=".4" d="M8.686 15.495c-.006-.947.79-1.72 1.777-1.725.987-.005 1.79.758 1.796 1.705.005.948-.79 1.72-1.777 1.725-.987.006-1.791-.758-1.796-1.705z"/><path opacity=".4" d="M8.704 15.495c-.005-.937.782-1.701 1.76-1.707.976-.005 1.772.75 1.777 1.688.006.937-.782 1.701-1.759 1.707-.977.005-1.773-.75-1.778-1.688z"/><path opacity=".4" d="M8.724 15.496c-.005-.928.773-1.684 1.739-1.69.965-.005 1.752.743 1.757 1.67.005.927-.773 1.684-1.738 1.69-.966.005-1.752-.743-1.758-1.67z"/><path opacity=".4" d="M8.743 15.496c-.005-.918.765-1.666 1.72-1.671.956-.006 1.735.734 1.74 1.651.005.918-.766 1.666-1.721 1.671-.956.006-1.734-.734-1.74-1.651z"/><path opacity=".4" d="M8.763 15.495c-.005-.906.756-1.645 1.7-1.65.944-.006 1.713.725 1.718 1.63.005.907-.756 1.646-1.7 1.65-.944.006-1.713-.724-1.718-1.63z"/><path opacity=".4" d="M8.781 15.495c-.005-.896.748-1.627 1.682-1.632.934-.005 1.696.717 1.7 1.613.006.896-.747 1.627-1.681 1.632-.934.005-1.696-.717-1.7-1.613z"/><path opacity=".4" d="M8.802 15.495c-.005-.886.739-1.609 1.661-1.614.923-.005 1.674.71 1.68 1.595.004.887-.74 1.61-1.662 1.614-.922.006-1.674-.709-1.68-1.595z"/><path opacity=".4" d="M8.82 15.494c-.005-.876.731-1.59 1.644-1.596.912-.005 1.656.701 1.66 1.578.006.876-.73 1.59-1.643 1.596-.912.005-1.656-.701-1.661-1.578z"/><path opacity=".4" d="M8.841 15.495c-.004-.864.722-1.57 1.623-1.575.901-.005 1.636.692 1.64 1.557.005.865-.721 1.57-1.622 1.575-.901.005-1.636-.692-1.64-1.557z"/><path opacity=".4" d="M8.859 15.494c-.005-.854.714-1.552 1.605-1.557.891-.005 1.617.684 1.622 1.54.005.854-.714 1.552-1.605 1.556-.891.005-1.617-.684-1.622-1.539z"/><path opacity=".4" d="M8.88 15.495c-.005-.845.705-1.535 1.584-1.54.88-.004 1.597.677 1.602 1.522.004.845-.705 1.534-1.585 1.539-.88.005-1.596-.676-1.6-1.521z"/><path opacity=".4" d="M8.897 15.495c-.004-.835.697-1.516 1.567-1.521.87-.005 1.579.668 1.583 1.503.005.835-.696 1.516-1.566 1.521-.87.005-1.579-.668-1.584-1.503z"/><path opacity=".4" d="M8.919 15.495c-.005-.824.687-1.495 1.545-1.5.859-.005 1.558.659 1.563 1.482.004.824-.688 1.496-1.546 1.5-.858.005-1.558-.659-1.562-1.482z"/><path opacity=".4" d="M8.936 15.494c-.004-.814.68-1.477 1.528-1.482.848-.005 1.54.651 1.544 1.465.005.814-.68 1.477-1.527 1.482-.849.005-1.54-.651-1.545-1.465z"/><path opacity=".4" d="M8.957 15.493c-.004-.804.67-1.46 1.507-1.464.837-.005 1.52.643 1.524 1.447.004.804-.67 1.46-1.507 1.464-.837.005-1.519-.643-1.524-1.447z"/><path opacity=".4" d="M8.975 15.494c-.005-.794.662-1.441 1.49-1.446.826-.005 1.5.635 1.505 1.43.004.793-.663 1.44-1.49 1.445-.827.005-1.5-.635-1.505-1.429z"/><path opacity=".4" d="M8.996 15.494c-.004-.782.653-1.42 1.469-1.425.815-.004 1.48.626 1.484 1.409.005.782-.653 1.42-1.468 1.425-.816.004-1.48-.626-1.485-1.409z"/><path opacity=".4" d="M9.013 15.493c-.004-.772.646-1.402 1.451-1.407.806-.004 1.462.618 1.467 1.391.004.773-.645 1.403-1.451 1.407-.806.005-1.462-.618-1.467-1.39z"/><path opacity=".4" d="M9.035 15.493c-.004-.762.636-1.384 1.43-1.389.794-.004 1.44.61 1.445 1.373.005.763-.636 1.385-1.43 1.39-.794.004-1.44-.61-1.445-1.374z"/><path opacity=".4" d="M9.055 15.494c-.004-.753.627-1.367 1.41-1.371.782-.005 1.42.602 1.424 1.355.004.752-.627 1.366-1.41 1.37-.782.005-1.42-.601-1.424-1.354z"/></g><path d="M4.795 15.386c-.346-1.097-.02-2.177.73-2.414.749-.236 1.637.46 1.983 1.557.346 1.097.02 2.177-.73 2.414-.75.236-1.637-.46-1.983-1.557z" fill="#FFD1A3"/><path d="M5.419 15.56c.722.454 1.485.302 2.037-.154-.009.918.2 2.66 1.53 4.426 1.068 1.42 3.356 1.873 5.056 1.802 4.05-.18 5.106-1.423 5.927-3.1-.558 1.838-1.948 3.544-5.134 3.786-5.9.444-7.543-2.005-7.796-5.504a.89.89 0 01-.218.114c-.74.271-1.638-.394-2.007-1.483a2.878 2.878 0 01-.156-.829c.135.37.382.701.761.943z" fill="#F5C493"/><path d="M6.723 14.955l-.677.101c0-1.067-.797-1.42-.797-1.42 1.283-.47 1.474 1.319 1.474 1.319z" fill="#EEBB89"/><path d="M13.01 2.55c7.507.456 6.463 8.778 6.463 8.778-.46-2.47-2.022-5.53-3.206-5.583 0 0-1.02.844-2.56.885-1.375.036-3.287-.954-3.287-.954-1.372-.024-2.917 4.23-3.08 7.65-.034.785-.72-.113-.72-.113S5.654 2.106 13.01 2.55z" fill="#4F372D"/><path d="M9.094 3.221C11.292-.176 18.528.767 18.528.767c.722 3.838-1.96 4.718-1.96 4.718s-6.266-1.08-7.209-.405c-.942.674-2.762 6.057-2.762 6.057S4.966 5.54 6.135 3.47c.856-1.521 2.959-.248 2.959-.248z" fill="#4F372D"/><path d="M15.727 0c-.023.51-.459 1.029-.459 1.029S7.716 6.222 9.094 3.221C10.469.221 15.727 0 15.727 0z" fill="#4F372D"/><path d="M7.859 2.199c.426.062.528.265.528.265-.31-.558-.102-1.324-.102-1.324.835.47.758 1.139.758 1.139.402-.859 1.658-1.13 1.658-1.13-.036.706-.787 1.431-.826 1.455l-.647 1-1.354-.206.13-.606C7.782 2.476 7.86 2.2 7.86 2.2z" fill="#4F372D"/><path d="M18.343 3.69c2.21.659 1.62 9.446 1.62 9.446-.46-2.47-2.512-7.335-3.693-7.391-.003.003 1.089-.657 2.073-2.056z" fill="#422E26"/><path opacity=".11" d="M6.985 2.78c.272.042.555.108.85.173.704.155 1.44.26 2.16.158.835-.116 1.566-.495 2.305-.874.373-.19.746-.384 1.13-.554.824-.358 1.8-.713 2.71-.686.45.011.894.146 1.308.316a2.76 2.76 0 011.194.915 4.553 4.553 0 01-.105.827c-.03-.024-.056-.048-.09-.072-.148-.11-.34-.22-.56-.316a2.462 2.462 0 00-.749-.185c-1.085-.078-2.09.364-3.066.772-.4.168-.805.364-1.238.543-.43.185-.877.361-1.345.507-.787.245-1.754.326-2.56.105-.107-.03-.217-.054-.321-.087a7.167 7.167 0 01-1.092-.456c-.313-.161-.585-.304-.82-.415a3.405 3.405 0 00-.445-.176c.21-.265.463-.42.734-.495z" fill="#E4902F"/><path d="M14.82 14.404s1.06-.784 1.45.57c.39 1.354-2.311 2.186-3.066.772-.758-1.414 1.16-4.077 1.16-4.077s-.37 1.634.457 2.735z" fill="#EEBB89"/><path opacity=".2" d="M14.82 14.404s1.03-.74 1.42.477a9.755 9.755 0 01-1.688.271c-.331-.775-.447-1.613-.492-2.523.074 0 .149 0 .22-.003.01.549.117 1.214.54 1.778z" fill="#fff"/><path d="M7.352 13.207c.379 3.773 4.206 4.25 4.241 4.191-.924.922-.214 2.455.964 1.942.396-.173.796-.576 1.655-.597.892-.02 1.378.373 1.614.504.963.537 2.13-.366.963-2.085 0 0 1.304-.277 1.703-.498.758-.42 1.13-1.28 1.316-2.088.074-.334.122-.674.146-1.014.009-.125.045-.301.015-.426.927 3.68 1.587 9.64-6.165 9.56-7.753-.081-6.843-5.984-6.843-5.984.358-1.31-.34-3.499-.34-3.499l.73-.006z" fill="#4F372D"/><path d="M12.183 18.099c.43-.31 1.167-.826 2.157-.815.999.015 1.807.576 2.183.91.164.143.17.394.015.546l-.033.03a.372.372 0 01-.483.033c-.322-.239-.937-.606-1.706-.618-.764-.015-1.37.31-1.691.531a.377.377 0 01-.486-.048l-.012-.012a.373.373 0 01.056-.557z" fill="#FFD1A3"/><path d="M14.57 15.74s.886-.382 2.222.39c1.023.594 1.411 1.886 1.411 1.886s-1.417.295-3.794-.537c-2.368 1.13-4.235.632-4.235.632s.874-2.84 4.396-2.371z" fill="#4F372D"/><path d="M16.3 15.355c-.15 1.116-2.416 1.67-3.096.394a1.242 1.242 0 01-.099-.244c1.065.217 2.178.143 3.195-.15z" fill="#DCA782"/><path opacity=".16" d="M13.295 19.794c-.002-.3.405-.546.91-.548.503-.003.913.238.915.537.002.3-.406.545-.91.548-.504.003-.914-.238-.915-.537z" fill="#000"/><path opacity=".53" d="M13.463 9.184c.18-.042.615 1.14.588 1.715 0 0 .218-1.155.358-1.122.14.03-.054 1.551-.313 1.668-.26.113-.811-2.22-.633-2.261z" fill="#FFD1A3"/><path opacity=".7" d="M18.337 11.486c.42.934.317 1.629.317 1.629s-.97.862-1.37.895c-.381.032-1.637-.364-1.637-.364-.972-1.662-.662-2.885-.662-2.885.874-.277 3.352.725 3.352.725z" fill="#EEBB89"/><path opacity=".7" d="M11.888 11.254l.51-.948c.716 1.628-.286 3.257-.286 3.257H8.915s-.603-.767-.015-1.694c.492-.77 2.988-.615 2.988-.615z" fill="#F3C291"/><path d="M17.749 11.215c.462.173.606.472.606.472-1.808.352-2.93.152-3.252-.248-.378-.468.051-1.3.051-1.3.808.772 1.655.725 2.595 1.076zM9.523 11.358c.937-.351 2.07-.277 2.876-1.05 0 0 .43.833.05 1.301-.325.403-1.739.614-3.55.262.004-.002.162-.34.624-.513z" fill="#422E26"/><path d="M17.395 3.421s0-.012.003-.032c0 .02-.003.032-.003.032z" fill="#381911"/><path opacity=".2" d="M10.472 6.416s-.087-.02-.069-.298c.015-.274 2.535-.82 2.535-.82l5.93 3.418c.412 1.259.808 2.705 1.053 4.179.069.006.137.02.206.042.56.182.892.835.889 1.616-2.091-1.81-4.397-2.708-5.39-4.104-.448-.632-4.009.128-4.746-.15-.736-.274-.695-1.124-.695-1.124s-.396-.54-.486-.736c-.09-.197-.012-.516-.012-.516s-.45-.394-.376-.615c.14-.432 1.16-.892 1.16-.892z" fill="#4F0000"/><path d="M9.851 6.977c.284-.227 1.068-.59 1.068-.59s-.352-.433-.17-.681c.182-.25 2.905-1.181 3.403-1.202.499-.024 3.565.364 3.973.567.41.203 4.534 4.951 4.534 4.951l-2.049 3.117s-.17-.02-.4-.343c-.23-.322-.862-.215-1.918-.85-1.055-.635-1.941-2.043-2.565-2.237-.623-.194-3.722.328-4.563 0-.841-.328-.477-.85-.477-.85-.194-.033-.66-.284-.669-.579-.012-.295.227-.42.227-.42-.507-.114-.677-.657-.394-.883z" fill="#FFD1A3"/><path d="M9.85 6.977c.284-.226 1.069-.59 1.069-.59s-.352-.433-.17-.68c.181-.25 2.905-1.181 3.403-1.202.411-.018 2.574.241 3.546.447l-3.492-.373c-1.832.227-2.89.922-3.177 1.104-.286.182-.06.438.045.453.107.015 2.451-1.029 2.604-1.059.152-.03 3.042.168 3.042.168l-.09.181s-2.678-.122-2.875-.107c-.197.015-3.534 1.423-3.722 1.724-.188.301.06.498.256.546.197.045 3.314-1.24 3.57-1.3.257-.06 2.408 0 2.408 0l-.03.3s-2.103-.014-2.24 0c-.137.016-3.556 1.104-3.738 1.438-.182.334.138.606.364.62.227.016 2.604-.831 2.935-.861.334-.03 2.905-.108 2.905-.108l.087.242s-5.396.802-5.518.898c-.122.095-.152.22 0 .447s5.267-.665 5.267-.665c.65 1.318 2.163 3.245 2.825 3.773a6.088 6.088 0 01-.826-.43c-1.056-.635-1.942-2.042-2.565-2.236-.624-.194-3.723.328-4.564 0-.841-.328-.477-.85-.477-.85-.194-.033-.66-.284-.668-.58-.012-.294.226-.42.226-.42-.513-.11-.683-.653-.4-.88z" fill="#EEBB89"/><path d="M17.234 13.775c1.064-.075 1.42-.782 1.42-.782s.077 1.372-1.283 1.432c-1.685.071-2.022-1.387-2.022-1.387s.778.811 1.885.737zM10.784 13.879c1.33-.212 1.674-1.1 1.674-1.1s.122 1.55-1.483 1.735c-1.571.182-2.132-1.091-2.132-1.091s.963.614 1.941.456z" fill="#381911"/><path d="M27.47 23.143c1.11 2.255 2.902 3.61 4.63 3.595 2.848-.027 3.546-2.276 2.839-4.25-.218-.612-1.259-2.14-1.259-2.14s.788.356 1.745 1.886c.632 1.008 1.351 3.922-1.482 5.318-3.064 1.51-5.345-.704-6.595-2.8-.904-1.52-.618-2.894-.618-2.894s.367.525.74 1.285z" fill="#B6BDCE"/></g><defs><clipPath id="clip0"><path fill="#fff" d="M0 0h36v36H0z"/></clipPath></defs></svg>