<svg width="30" height="30" viewBox="0 0 30 30" fill="none" xmlns="http://www.w3.org/2000/svg"><path d="M13.466 21.624c.091-.058.182-.118.273-.181 2.356-1.622 4.609-4.799 5.276-6.868a5.951 5.951 0 00-3.85-7.49 5.95 5.95 0 00-4.002.122 5.94 5.94 0 00-3.178-2.43C4.849 3.767 1.49 5.486.48 8.614c-1.01 3.129-.557 10.422 2.579 11.43 1.362.438 2.954-.22 4.19-.704.675 1.043 1.515 2.394 2.74 2.92" fill="#D3FDB1"/><path d="M15.166 7.085a5.949 5.949 0 00-2.828-.203 5.95 5.95 0 014.686 7.693c-.668 2.07-2.92 5.247-5.276 6.868l-.003.002c-.97.542-2.256.543-2.256.543.16.105.326.198.501.273-.008.264 2.631.391 3.476-.636.069-.084.183-.119.274-.182 2.356-1.621 4.608-4.798 5.276-6.868a5.95 5.95 0 00-3.85-7.49z" fill="#CBF5A9"/><path d="M11.801 4.89s5.04 1.787 6.727-3.44l.004.007c-5.24-1.685-6.727 3.44-6.727 3.44" fill="#618742"/><path d="M15.881 1.16c.41.05.848.145 1.316.295a.15.15 0 00.002-.006l.004.007-.006-.001c-.872 2.697-2.638 3.524-4.14 3.694 1.605.169 4.316-.131 5.468-3.694-1.017-.327-1.893-.395-2.644-.295zM18.527 1.449c0 .002 0 .004-.002.006.003 0 .005 0 .007.002l-.005-.008z" fill="#547539"/><path d="M11.257 7.625a.453.453 0 01-.432-.589c.013-.04 1.242-4.063-1.004-6.26a.453.453 0 11.633-.647c1.105 1.08 1.667 2.672 1.625 4.602a10.114 10.114 0 01-.39 2.578.453.453 0 01-.432.316zM7.07 11.394l.916 2.09a.774.774 0 11-1.463.126l.546-2.216zM12.462 12.933l-1.885 1.29a.773.773 0 00-.01 1.27.776.776 0 001.185-.39l.71-2.17z" fill="#B06F3D"/><path d="M27.218 5.465s-3.886 18.73-21.301 17.06c-4.196-.403-5.416 3.124.41 5.898 9.663 4.601 27.991-.249 22.747-22.797l.813-4.285c.17-.895-.471-1.244-1.381-1.327-.964-.087-1.77.221-1.682 1.182l.394 4.269z" fill="#FDDB33"/><path d="M6.636 22.582a23.59 23.59 0 01-.72-.057c-.651-.063-1.231-.03-1.724.08.848.04 1.662.03 2.444-.023zM29.074 5.626l.812-4.285c.17-.895-.47-1.244-1.38-1.327-.705-.064-1.326.084-1.574.544.132.196.18.452.117.783l-.143.753.312 3.37s-.167.805-.587 2.066c2.777 15.285-5.852 21.774-14.362 22.416 9.61.726 21.094-5.875 16.805-24.32z" fill="#F9C032"/><path d="M7.408 22.619a22.948 22.948 0 01-1.49-.094 6.05 6.05 0 00-1.277.004c.963.09 1.885.118 2.767.09z" fill="#F9C032"/><path d="M13.536 27.2c-1.695 0-2.83-.251-2.883-.263a.453.453 0 11.198-.883c.03.006 1.394.302 3.312.228 1.765-.068 4.377-.473 6.797-2.017 3.093-1.973 5.173-5.314 6.182-9.929a.453.453 0 11.885.194c-1.064 4.863-3.28 8.398-6.59 10.504-2.599 1.656-5.39 2.085-7.272 2.155-.217.007-.427.01-.629.01z" fill="#F4B21E"/></svg>