<svg width="36" height="36" viewBox="0 0 36 36" fill="none" xmlns="http://www.w3.org/2000/svg"><g clip-path="url(#clip0)"><path d="M23.218 4.097c-.164.045-5.618-5.588-10.744.21-6.425 7.261-5.693 17.646-5.379 23.668 0 0 14.689 2.331 19.59-4.766 4.9-7.113 1.18-20.591-3.467-19.112z" fill="#2D0D06"/><path d="M18.466 29.32c-.956-.045-1.703-.957-1.643-2.033l.224-4.527c.045-1.076.881-1.913 1.838-1.853.956.045 1.703.956 1.643 2.032l-.224 4.528c-.06 1.06-.881 1.897-1.838 1.853z" fill="#FBA386"/><path d="M20.393 25.465l.12-2.51c.045-1.076-.688-1.988-1.644-2.033-.956-.045-1.778.792-1.838 1.853l-.15 2.944c.569.358 2.571.328 3.512-.254z" fill="#EF8E73"/><path d="M18.421 23.926A7.3 7.3 0 0115 23.223c-4.976-2.3-6.141-9.339-4.079-13.956.015-.03.015-.045.03-.075.239-.523.523-1.03.852-1.509 1.135-1.659 2.674-2.974 4.602-3.631a8.243 8.243 0 012.69-.433c5.454.03 8.442 5.842 8.188 10.698-.254 4.737-4.199 9.43-8.86 9.609z" fill="#FBA386"/><path d="M20.872 7.683c.971 4.527 4.602 6.022 6.29 7.74.06-.358.105-.717.12-1.076.255-4.856-2.734-10.684-8.188-10.699-.912 0-1.823.135-2.69.434-1.927.642-3.466 1.972-4.602 3.63a9.34 9.34 0 00-.852 1.51c-.015.03-.015.045-.03.075-1.285 2.869-1.315 6.65.015 9.668 4.872-9.414 7.845-8.548 9.937-11.282z" fill="#EF8E73"/><path d="M23.218 4.097c-.164.045-5.618-5.588-10.744.21-6.425 7.261-5.693 17.646-5.379 23.668 0 0 1.674-12.76 8.383-17.96 1.957-1.51 4.184-1.928 5.887-4.184-.314 1.583.314 2.839 1.27 4.109 1.898 3.153 5.05 5.05 5.693 8.846.03.269.03.523.03.792 2.062-7.247-1.21-16.721-5.14-15.48z" fill="#3D1208"/><path opacity=".15" d="M23.068 10.612c1.285-.12 2.54-.464 3.736-1.136.433-.24.852-.523 1.24-.837-.194-.568-.403-1.12-.657-1.614-1.779.703-3.81.912-5.693.792-.075 0-.15-.015-.21-.015.224.748.643 1.435 1.166 2.137.12.24.269.448.418.673z" fill="#fff"/><path opacity=".07" d="M10.516 16.588c.418-.851.867-1.688 1.375-2.48-1.33-.404-2.6-.956-3.766-1.689a26.53 26.53 0 00-.612 2.615 22.91 22.91 0 003.003 1.554z" fill="#fff"/><path opacity=".27" d="M15.582 9.954c1.285-.971 2.675-1.494 3.96-2.376a15.446 15.446 0 01-3.616-1.15 9.196 9.196 0 01-2.406-1.584 4.338 4.338 0 01-.732-.867c-.105.105-.21.21-.314.329a19.748 19.748 0 00-2.211 3.078c1.33 1.345 3.302 2.107 5.32 2.57z" fill="#fff"/><path d="M28.433 16.604c-.389 1.195-1.39 1.927-2.241 1.643-.837-.284-1.21-1.464-.807-2.66.388-1.195 1.39-1.927 2.241-1.643.837.284 1.195 1.464.807 2.66z" fill="#FBA386"/><path d="M25.997 16.738c-1.375 3.198-4.094 8.129-12.103 5.858.343.239.702.448 1.105.627a7.337 7.337 0 003.422.702c3.332-.134 6.306-2.57 7.815-5.678.837.24 1.808-.493 2.197-1.658.03-.09.06-.18.074-.284-.134.179-.986 2.002-2.51.433z" fill="#EF8E73"/><path d="M23.92 27.287c-.434-.299-.882-.508-1.3-.523-.18-.015-.284-.15-.284-.284-.105 0-.21-.015-.329-.03-3.168-.194-6.306-.03-7.68.075-.015.03-.03.045-.045.075a120.32 120.32 0 01-3.676 3.631 18.85 18.85 0 01-1.166 1.016c1.928 2.017 5.126 3.347 8.742 3.347 3.72 0 6.978-1.39 8.89-3.496a267.516 267.516 0 01-3.152-3.81z" fill="#FBA386"/><path d="M23.89 26.6c-.27-.03-.553-.045-.822-.074h-.015c-.314-.03-.628-.045-.926-.06-.927 3.855-6.261 3.72-7.307.03-.777.045-1.24.09-1.24.09L8.843 30.56c1.808 2.406 5.32 4.05 9.354 4.05 4.034 0 7.53-1.63 9.354-4.05-1.076-2.092-3.616-4.02-3.661-3.96z" fill="#4EB395"/><path opacity=".09" d="M25.31 27.75c-.18 3.527-4.005 6.321-7.65 6.844.178 0 .358.015.537.015 4.035 0 7.531-1.629 9.354-4.05-.553-1.06-1.464-2.076-2.241-2.809z" fill="#000"/><path d="M26.161 16.096s.27-1.928 1.733-1.45c0 0-.896.403-.866 1.554l-.867-.104z" fill="#EF8E73"/><path opacity=".33" d="M17.913 16.32c.329-.598.254-1.39-.03-1.958h-.239s.344.703-.15 1.345c0 0-2.166-.583-1.478 1.674.074-.479 1.075-1.36 1.897-1.061z" fill="#fff"/><path d="M18.929 15.841c0-.014-.015-.044-.015-.06-.15.718-.687 1.405-1.27 1.764a2.735 2.735 0 01-1.061.373c.628.24 1.464.09 1.972-.403.075.015.195.03.389.045.657 0-.015-1.718-.015-1.718z" fill="#EF8E73"/><path d="M14.91 26.376s1.09 2.973 3.615 2.78c2.526-.195 3.512-2.78 3.512-2.78l1.45.09s-1.151 3.616-4.932 3.78c-3.795.165-4.647-3.676-4.647-3.676l1.001-.194z" fill="#64D8B1"/><path d="M14.491 18.098s3.422 3.123 7.352-.852c0 0 1.18 4.094-3.123 4.752-4.288.642-4.229-3.9-4.229-3.9z" fill="#8C4B3B"/><path d="M18.317 20.384c2.047-.314 3.317-2.092 3.317-2.092l-.224-.627c-2.764 2.435-5.2 1.524-6.306.866-.06.165-.164.493-.164.673-.03.239 1.33 1.509 3.377 1.18z" fill="#fff"/><path opacity=".35" d="M21.006 18.98c.403-.389.627-.688.627-.688l-.224-.627a7.245 7.245 0 01-1.733 1.15c.448.015.896.075 1.33.165zM15.193 19.547c.344-.12.717-.194 1.016-.269.165-.044.329-.09.478-.12a5.127 5.127 0 01-1.584-.627c-.06.165-.164.493-.164.673-.015.06.075.194.254.343z" fill="#C9BDA6"/><path d="M12.758 14.048l-.164-.553.358-.418.15.359s.687-1.21 1.599-.628c.911.583 1.09 2.032 1.09 2.032s-.717-1.09-1.539-1.21c-.851-.12-1.494.418-1.494.418zM20.363 14.84s.195-1.838 1.853-1.972c1.24-.105 1.57 1.33 1.57 1.33l.447-.254.254.582-.627.27s-.882-1.121-1.868-1.002c-.971.105-1.629 1.046-1.629 1.046zM13.714 10.746s1.48-.15 2.152.941l.448-.328s-1.076-1.076-2.346-.912l-.254.3zM22.784 11.165s-1.345-.613-2.346.194l-.329-.583s1.39-.553 2.54.03l.135.359z" fill="#3D1208"/></g><defs><clipPath id="clip0"><path fill="#fff" d="M6.9 1.691H29v32.918H6.9z"/></clipPath></defs></svg>