<svg width="30" height="30" viewBox="0 0 30 30" fill="none" xmlns="http://www.w3.org/2000/svg"><g clip-path="url(#clip0)"><path d="M8.512 25.19a5.842 5.842 0 01.818-5.396c1.04-1.396 2.675-2.29 4.398-2.482a6.655 6.655 0 013.382.515c-.707-1.848-.434-3.94.628-5.596.485-.755 1.128-1.269 1.838-1.792.765-.563 1.764-.89 2.696-1.02 1.827-.252 3.737.226 5.21 1.338 1.496 1.129 2.427 2.867 2.61 4.726.186 1.869-.362 3.7-1.336 5.286-.122.199-.25.394-.383.585 0 0-1.585 1.854-2.196 2.388-5.757 5.026-13.81 6.746-21.411 6.143-.302-.06-.543-.121-.785-.302-.18-.181-.362-.483-.482-.724-.06-.12-.12-.241-.242-.422-1.085-1.63-1.568-3.318-1.93-5.188-.241-.965-.302-1.93-.362-2.896-.06-1.146 0-2.232.12-3.378a69.09 69.09 0 01.604-3.318c.332-1.598 1.014-3.296 1.014-3.296.434-1.349 1.158-2.616 1.58-3.943-.06-.905-.06-1.87.302-2.775.12-.301.18-.603.362-.905l.18-.18C5.913 1.17 7.36.385 8.868.143c1.026-.12 1.991-.18 2.957-.12.543.06 1.025.362 1.387.784.664.905.845 1.93 1.146 2.956.06.241.06.482-.06.663-.06.121-.12.302-.181.423-.543.784-1.508.965-2.292 1.387-.664.302-1.388-.12-1.63-.784l-.18-.181-.204.01s-.288.983-2.397 1.825l.044.34c3.081 6.61 1.662 12.736 1.662 12.736" fill="#F9CFBF"/><path d="M8.506 24.938s.18-3.982.663-5.007c.664-3.56.227-8.326-1.712-12.485l-.044-.339c.007-.026-1.501.155-2.172 0l.044.339c2.678 5.004 3.157 17.578 3.22 17.492zM13.728 17.313c-.121.013-.241.03-.36.05.54.09 1.068.245 1.57.464a5.881 5.881 0 01-.178-.546 6.586 6.586 0 00-1.032.032zM11.04.808c.663.904.844 1.93 1.146 2.956.06.24.06.482-.06.663-.06.12-.121.302-.181.422-.37.533-.934.788-1.504 1.029.336.398.877.589 1.383.359.784-.422 1.75-.603 2.292-1.388.06-.12.12-.301.181-.422.12-.18.12-.422.06-.663-.301-1.026-.482-2.052-1.146-2.956-.361-.423-.844-.724-1.387-.785A14.319 14.319 0 009.82.051c.474.098.895.379 1.219.757zM30.093 15.483c-.184-1.86-1.114-3.597-2.61-4.726-1.474-1.112-3.384-1.59-5.211-1.337l-.116.017a7.02 7.02 0 013.155 1.32c1.496 1.129 2.426 2.867 2.61 4.726.185 1.869-.363 3.7-1.336 5.286-.122.199-.25.394-.384.585 0 0-1.585 1.854-2.196 2.388-4.758 4.154-11.085 6.05-17.429 6.242 7.05.211 14.3-1.613 19.601-6.242.611-.534 2.196-2.388 2.196-2.388.134-.191.262-.386.383-.585.974-1.587 1.522-3.417 1.337-5.286z" fill="#F6B99C"/><path d="M10.316.023c.543.06 1.025.362 1.387.785.664.904.845 1.93 1.147 2.955.06.242.06.483-.06.664-.061.12-.121.302-.182.422a2.068 2.068 0 01-.422.447c-.449.355-1.014.541-1.54.78.329.256.765.348 1.178.16.784-.422 1.75-.602 2.292-1.387.06-.12.12-.301.181-.422.12-.181.12-.422.06-.664-.301-1.025-.482-2.05-1.146-2.956-.361-.422-.844-.723-1.387-.784a13.54 13.54 0 00-1.551-.002l.043.002zM17.072 17.699S12.29 15.875 9.17 19.93c-.603.784-1.447 2.895-.663 5.308 0 0 .142-3.383 3.137-5.73 2.232-1.75 5.43-1.81 5.43-1.81z" fill="#F6B99C"/><path d="M11.462 3.582s-.724-.663-1.448-.12-.724 1.146-.181 1.87c.543.724 1.025 1.025 1.387 1.025.362 0 1.071-.14 1.69-.603.482-.362-.182-.965-.182-.965s-1.234 1.25-2.05-.302c-.604-1.146.784-.905.784-.905z" fill="#F6B99C"/></g><defs><clipPath id="clip0"><path fill="#fff" d="M0 0h30v30H0z"/></clipPath></defs></svg>