<svg width="36" height="36" viewBox="0 0 36 36" fill="none" xmlns="http://www.w3.org/2000/svg"><g clip-path="url(#clip0)"><path d="M19.015 29.858L16 29.638l-3.015.22L0 32.498C0 49 32 50.5 32 32.498l-12.985-2.64z" fill="#4DA2E7"/><path d="M19.919 23.074l-3.922 3.683-3.922-3.683c.022.25-.493 4.498-1.15 6.918a2.93 2.93 0 00.471 2.543c.94 1.24 2.359 1.972 4.6 1.972 2.243 0 3.661-.732 4.602-1.972a2.93 2.93 0 00.47-2.543c-.657-2.42-1.171-6.667-1.15-6.918z" fill="#FFD1A3"/><path d="M11.688 26.908s3.002 4.328 6.537 2.653c2.3-.81 2.078-2.653 2.078-2.653s-2.948-2.395-3.683-2.41c-.734-.016-2.003-.595-2.815 0-.812.593-2.117 2.41-2.117 2.41z" fill="#EEBB89"/><path d="M10.601 2.9C11.374.412 17.263-.646 21.91 1.841c4.645 2.487 5.557 10.693 3.343 11.82-1.296.661-2.801-.426-4.125-1.656-4.542-5.118-8.273-6.831-8.39-6.737-.116.095-3.098 2.184-3.098 2.184l-2.56 9.43s-1.243-2.529-.984-7.177c.259-4.648 2.089-6.901 4.506-6.807z" fill="#C98528"/><path d="M7.555 21.217c.898-.268 1.336-1.46.978-2.663-.358-1.203-1.377-1.961-2.275-1.694-.898.268-1.336 1.46-.978 2.663.359 1.203 1.377 1.961 2.275 1.694z" fill="#FFD1A3"/><path d="M5.519 18.259c.417-.882.912-.751 1.185-.565.272.19-.106 1.069-.295 1.185.417-.27.781.354.648.693.297-.74-.08-.982-.203-1.007.203-.79.136-1.107-.379-1.13-.511-.022-.809.296-.956.824z" fill="#EEBB89"/><path d="M26.715 19.52c.358-1.202-.08-2.394-.978-2.661-.898-.268-1.917.49-2.275 1.693-.358 1.203.08 2.395.978 2.663.898.267 1.916-.491 2.274-1.694z" fill="#FFD1A3"/><path d="M26.478 18.259c-.417-.882-.912-.751-1.185-.565-.273.19.106 1.069.295 1.185-.417-.27-.782.354-.648.693-.298-.74.08-.982.203-1.007-.203-.79-.137-1.107.378-1.13.512-.022.807.296.957.824z" fill="#EEBB89"/><path d="M23.944 9.4c-.434-1.94-1.908-2.44-2.409-3.035-.5-.596-5.538-1.096-5.538-1.096s-5.035.5-5.538 1.096c-.5.595-1.975 1.095-2.41 3.034-.433 1.94-.97 6.103-.97 6.103.403 3.472.899 5.539 1.408 6.946.926 2.565 4.417 5.791 5.354 6.195 1.291.556 2.699.695 4.317 0 .938-.404 4.429-3.658 5.355-6.195.512-1.405 1.004-3.474 1.405-6.946-.003 0-.537-4.161-.974-6.103z" fill="#FFD1A3"/><path d="M12.242 8.32c-.798.039-2.211 3.45-2.172 4.167-.309-.367-.328-2.32-.328-2.32s-1.739 3.775-1.903 4.926c.156-1.56.445-4.214.679-4.506.233-.292.714-1.032 1.28-1.647.564-.614.914-1.185 1.59-1.22.679-.037.854.6.854.6z" fill="#B87A25"/><path d="M12.242 8.32c.676.02 2.209.465 3.786 2.5 1.58 2.037 2.957 2.482 4.08 2.501-.394-.283-.506-1.184-.428-1.165.078.022.554 2.745 3.463 2.517-1.118-.692-.77-1.352-.77-1.352s2.334 1.183 1.98 3.16c.365-.464.267-2.712.267-2.829 0-.116-1.123-2.383-2.364-2.965-1.24-.581-2.631-1.647-3.33-1.92-.7-.272-3.432-1.454-3.763-1.473-.328-.02-2.498.406-2.498.406l-.423.62z" fill="#C98528"/><path d="M12.242 8.32c-2.985-.297-5.321 8.479-4.64 10.718-.225-.868-.523-2.156-.523-2.156l-.306-4.056 1.884-6.242c.041-.141 1.777-1.524 4.053-1.855 2.275-.328 3.707-.798 6.194-.28 2.487.516 3.803.772 4.13 1.501.33.729 2.616 6.618 2.616 6.618l-1.26 6.47-.181-4.913c-2.098-.509-6.17-2.356-7.98-4.233-1.809-1.878-3.539-2.417-3.987-1.572z" fill="#C98528"/><path d="M14.604 20.799s1.154.534 2.798 0c-.576.645-1.388.934-1.388.934s-1.124-.264-1.41-.934z" fill="#EEBB89"/><path d="M10.57 3.05s.298 3.488 1.644 4.976c-.8-1.802-1.644-4.976-1.644-4.976zM9.354 3.883c-1.557.849-2.698 4.529-2.65 5.728.047 1.196.141.445.634-.328.492-.774-.481 3.12.086 3.098.57-.022 1.744-5.702 2.729-5.702.984 0 .28-2.09-.985-.82-1.268 1.262.595-2.198.186-1.976z" fill="#B87A25"/><path d="M11.046 29.483c-.492.554.403 4.245 4.868 4.245 4.464 0 5.034-4.245 5.034-4.245s.71.83.226 2.123c-.484 1.293-1.466 3.046-5.263 3.046-3.797 0-4.968-2.064-5.218-3.363-.248-1.3.353-1.806.353-1.806z" fill="#fff"/><path d="M12.242 8.32c.52-.523 2.576.543 4.145 2.403 1.569 1.861 3.43 2.345 3.43 2.345s-2.109-.561-2.276-2.965c-.167-2.403-2.13-4.139-3.271-4.075-1.14.064-2.028-.323-2.028.412v1.88zM10.6 2.899c.265-1.758 4.276-4.29 10.41-1.964C19.73.557 19.114.78 19.114.78s5.18.565 6.838 5.333c-.93-1.455-1.366-1.424-1.366-1.424s2.848 3.7 1.702 7.165c-4.554-3.822-6.398-6.298-8.745-7.633C15.196 2.885 10.6 2.9 10.6 2.9z" fill="#C98528"/><path d="M25.466 13.524s-.91.482-1.577.465c.144.64.503 5.049.503 5.049l1.074-5.514z" fill="#D6A665"/><path d="M16.796 9.327c.873 1.803 2.553 4.356 6.353 5.344-.873-.523-.684-1.149-.684-1.149s2.122.467 2.005 2.662c.523-1.563.387-3.446.273-3.719-.117-.273-1.26-2.79-2.81-3.332-1.549-.543-3.468-1.124-3.933-.988-.464.136-1.204 1.182-1.204 1.182z" fill="#C98528"/><path d="M6.058 10.821c.242.946 1.641 3.213 2.025 3.388-.317.974-.723 3.711-.464 4.93-.854-2.504-1.772-6.56-1.56-8.318z" fill="#D6A665"/><path d="M6.059 10.821s.066 1.875.486 2.587c-.158-1.249.078-1.293.078-1.293s.437 1.889.615 2.194c-.111-.553.25-.436.25-.436l.348 1.22.359-1.295c.011-.042-.331-.724-.534-.84-.203-.117-1.104-1.09-1.118-1.177-.009-.09-.484-.96-.484-.96zM12.57 7.158c.93-.68 3.16 2.325 4.749 4.03-.504-1.182-3.336-5.477-4.749-4.03z" fill="#C98528"/><path d="M18.929 2.546c2.595.175 5.307 3.16 5.986 5.349.02-1.63-2.028-5.06-5.986-5.35z" fill="#B87A25"/><path d="M25.566 6.313c.862 1.235 2.03 4.05.59 7.212.075-1.847-.796.612-.796 1.018.106-1.018-.328-1.007-.511-1.802-.184-.796-.574-.946-.476-1.705.097-.762 1.193-4.723 1.193-4.723zM12.242 8.32c-1.243 0-2.211 2.866-2.289 3.837-.348-1.16-.562-2.687 0-3.502.562-.818 2.29-.334 2.29-.334z" fill="#C98528"/><path d="M14.153 13.622c-.234-.02-3.419.492-3.925.681-.506.192-1.66 1.374-1.66 1.374s1.015-.417 2.038-.595c1.024-.178 3.714-.437 3.714-.437l-.167-1.023zM14.262 13.608l.153 1.015-.053-1.04-.1.025zM17.845 13.622c.233-.02 3.418.492 3.925.681.506.192 1.66 1.374 1.66 1.374s-1.015-.417-2.039-.595c-1.023-.178-3.713-.437-3.713-.437l.167-1.023zM17.733 13.608l-.15 1.015.053-1.04.097.025z" fill="#B87A25"/><path d="M25.758 11.42l-2.061 1.488 1.138.528-.293.629-2.191-1.021.05-.106 2.058-1.488-1.018-.476c.111-.239.18-.39.292-.628l2.078.968-.053.105zM29.054 5.628l-.117 2.54 1.121-.562c.117.236.192.384.31.617l-2.162 1.082-.053-.105.114-2.537-1.004.503c-.117-.236-.192-.383-.309-.617l2.05-1.027.05.106zM28.623.577l-.849 1.613.899-.022.014.495-1.733.045-.003-.084.846-1.613-.807.022-.014-.495 1.641-.042.006.08z" fill="#4DA2E7"/><path d="M10.256 17.31s1.663 1.386 3.808.204c-1.39 1.399-3.135 1.399-3.808-.203zM21.742 17.31s-1.664 1.386-3.808.204c1.388 1.399 3.134 1.399 3.808-.203z" fill="#6D5A33"/><path d="M16.212 24.977c.581-.434.436-1.686-1.166-1.744-.94-.034-2.083.77-1.535 1.401.545.632 2.158.746 2.7.343z" fill="#fff"/><path d="M13.507 24.635c.548.631 2.162.745 2.704.342.331-.245.426-.757.153-1.163-1.296.295-2.223-.005-2.598-.17-.367.282-.545.66-.259.99z" fill="#D96854"/><path d="M14.779 24.529c-.562-.245-1.166.203-1.169.206.774.65 2.181.595 2.665.192a.776.776 0 00.173-.209c-.242-.423-1.238-.33-1.67-.19z" fill="#F5755F"/></g><defs><clipPath id="clip0"><path fill="#fff" d="M0 0h36v36H0z"/></clipPath></defs></svg>