<svg width="36" height="36" viewBox="0 0 36 36" fill="none" xmlns="http://www.w3.org/2000/svg"><g clip-path="url(#clip0)"><path d="M27.725 25.601c0 1.27-.968 2.308-2.169 2.308H3.139c-1.2 0-2.168-1.037-2.168-2.308V12.917c0-1.282.967-2.308 2.168-2.308h22.407c1.2 0 2.168 1.037 2.168 2.308v12.684h.012z" fill="#F37580"/><path d="M23.726 25.706c0 2.576-3.79 6.027-9.502 6.027-5.549 0-9.268-3.253-9.268-5.77v-7.334h18.536l.233 3.754v3.323z" fill="#51150C"/><path d="M25.626 36c-.327-1.399-2.099-2.751-3.882-2.938-1.982-.21-2.402-.7-3.23-1.166-3.1-1.725-2.04-4.43-2.04-4.43H12.22s1.06 2.705-2.04 4.43c-.828.455-1.248.956-3.23 1.166-1.783.187-3.555 1.539-3.882 2.938h22.559z" fill="#FAB699"/><path d="M20.485 22.302c0-3.428-2.565-5.211-2.903-7.87-2.821 2.717-5.887 1.213-7.391 2.495-2.413 2.052-1.294 4.15-1.294 7.497 0 .536.023 1.037.07 1.503 1.597 2.239 3.742 3.603 5.327 3.603h.082c1.749 0 4.15-1.632 5.77-4.267.21-.921.339-1.924.339-2.961z" fill="#FAB699"/><path d="M12.406 25.962s.233.268 1.947.268 1.935-.268 1.935-.268-.606 1.142-1.935 1.142c-1.34 0-1.947-1.142-1.947-1.142z" fill="#fff"/><path d="M15.704 26.009c-.186-.093-.5-.233-1.364.151-.862-.384-1.177-.244-1.364-.151-.28.128-.57-.035-.57-.035s.07.384 1.946.384c1.866 0 1.935-.384 1.935-.384s-.303.163-.582.035z" fill="#EF3A4D"/><path d="M14.342 26.918c-1.282 0-1.947-.956-1.947-.956s.362.746.875 1.05c.361.209.583.267 1.05.267h.022c.467 0 .7-.07 1.05-.268.524-.303.874-1.05.874-1.05s-.63.957-1.924.957z" fill="#C52E3F"/><path d="M14.762 24.89s.035-.117.163-.187c.128-.07.35-.046.35.024.011.081-.094.07-.268.081a.357.357 0 00-.245.082zM13.968 24.89s-.035-.117-.163-.187c-.128-.07-.35-.046-.35.024-.012.081.093.07.268.081.163 0 .245.082.245.082z" fill="#5C0008"/><path d="M15.578 19.072c.245-.256.548-.454.863-.63.163-.08.326-.15.49-.209.174-.058.35-.093.524-.117a4.15 4.15 0 01.548-.046c.186 0 .373.046.548.116.35.14.606.397.851.642l-.023.023c-.14-.093-.292-.198-.432-.291a1.54 1.54 0 00-.454-.199c-.315-.093-.653-.046-.968.035-.163.047-.315.105-.478.163-.152.059-.315.117-.478.175-.315.117-.641.245-.98.35l-.01-.012zM13.093 19.094c-.338-.105-.664-.233-.979-.35-.163-.058-.315-.116-.478-.174-.151-.059-.315-.128-.478-.163-.326-.082-.653-.129-.967-.035a1.993 1.993 0 00-.455.198 5.572 5.572 0 00-.431.291l-.024-.023c.257-.233.502-.49.851-.641.175-.07.362-.105.548-.117.187 0 .362.012.548.047.175.035.361.07.525.116a3.1 3.1 0 01.49.21c.314.163.617.361.862.63l-.012.011zM18.922 20.926a1.614 1.614 0 01-.665.583 2.043 2.043 0 01-.874.198c-.303 0-.606-.046-.886-.175-.035-.011-.07-.035-.105-.046-.023-.012-.058-.024-.082-.035a.874.874 0 00-.186-.047.81.81 0 00-.396.082.603.603 0 01.396-.21.865.865 0 01.245 0c.035 0 .081.023.116.035.035.012.07.023.094.035.256.07.536.093.804.093s.536-.046.804-.128a2.47 2.47 0 00.735-.385z" fill="#51150C"/><path d="M18.84 21.031s.337.082.524 0c0 0-.222.164-.455.152 0 0 .14.14.408.081 0 0-.245.187-.595.035 0 0 .059.175.339.187 0 0-.21.081-.513-.047 0 0 .023.14.443.187 0 0-.397.14-.863-.175.012.012.618-.163.711-.42zM9.758 20.926c.233.175.478.303.746.385.256.082.524.128.804.128a3.1 3.1 0 00.805-.093c.035-.012.058-.023.093-.035.035-.012.082-.023.117-.035a.865.865 0 01.244 0 .692.692 0 01.397.21.81.81 0 00-.397-.082c-.07 0-.128.024-.186.047a.555.555 0 00-.082.035c-.035.011-.058.035-.105.046a2.11 2.11 0 01-.886.175c-.303 0-.606-.07-.874-.198a1.567 1.567 0 01-.676-.583z" fill="#51150C"/><path d="M9.853 21.031s-.338.082-.525 0c0 0 .222.164.455.152 0 0-.14.14-.408.081 0 0 .245.187.594.035 0 0-.058.175-.338.187 0 0 .21.081.513-.047 0 0-.023.14-.443.187 0 0 .397.14.863-.175-.012.012-.618-.163-.711-.42zM18.995 10.376s3.625 1.503 3.788 4.231c.059.91.42 1.75.677 4.034.57 5.153.454 11.273-5.013 11.273 0 0 2.04-3.544 2.04-7.6 0-4.058-3.602-5.806-2.821-9.432l1.329-2.506z" fill="#51150C"/><path d="M18.992 10.376s-1.515-1.772-5.642-1.772c-4.127 0-8.43 4.5-8.43 10.911 0 6.412.607 8.534 4.944 10.4 0 0-.956-2.122-.956-5.48 0-3.357-1.108-5.456 1.294-7.496 1.504-1.282 4.582.233 7.403-2.507l1.387-4.056z" fill="#51150C"/><path d="M19.831 3.742h3.73v1.201l-2.028 2.74h2.157v1.399h-3.999v-1.33l1.912-2.61h-1.772v-1.4zM24.448 1.819h3.731v1.2l-2.028 2.74h2.156v1.4H24.31v-1.33l1.923-2.611H24.46v-1.4h-.012zM29.18 0h3.731v1.2l-2.028 2.74h2.145v1.4h-3.999V4.01L30.953 1.4H29.18V0z" fill="#76CFE7"/></g><defs><clipPath id="clip0"><path fill="#fff" d="M0 0h36v36H0z"/></clipPath></defs></svg>