<svg width="30" height="30" viewBox="0 0 30 30" fill="none" xmlns="http://www.w3.org/2000/svg"><g clip-path="url(#clip0)"><path d="M28.846 29.492c2.402-9.88-1.874-11.152-3.69-17.103C23.338 6.438 26.326.486 26.326.486H3.673S6.66 6.438 4.845 12.39c-1.817 5.951-6.093 7.223-3.691 17.103" fill="#F9CFBF"/><path d="M25.155 12.389C23.34 6.438 26.327.486 26.327.486h-1.934s-2.988 5.952-1.172 11.903c1.817 5.951 6.093 7.223 3.692 17.103h1.933c2.402-9.88-1.875-11.152-3.69-17.103z" fill="#F6B99C"/><path d="M27.526 6.602a.44.44 0 00-.852-.213c-.038.152-.906 3.754 1.066 6.488a.439.439 0 10.713-.514c-1.729-2.396-.936-5.723-.927-5.761zM2.705 6.07a.44.44 0 00-.32.532c.008.033.81 3.354-.926 5.761a.44.44 0 10.713.514c1.971-2.734 1.104-6.336 1.066-6.488a.44.44 0 00-.533-.32zM1.287 7.807a.439.439 0 00-.853.211c.003.013.308 1.31-.35 2.225a.44.44 0 10.712.514c.9-1.25.508-2.881.49-2.95zM29.917 10.243c-.656-.91-.356-2.2-.35-2.225a.44.44 0 00-.853-.212c-.017.07-.41 1.701.49 2.95a.439.439 0 10.713-.513z" fill="#FF7373"/><path d="M14.854 10.536a.44.44 0 00-.44.44v1.502a.44.44 0 10.879 0v-1.502a.44.44 0 00-.44-.44zM14.56 29.492v-3.207a.44.44 0 01.88 0v3.207c.029.03-.85.03-.88 0z" fill="#F6B99C"/><path d="M28.36 18.914s-4.605-.152-11.287 6.53c-.541.541-1.302.812-2.073.812-.77 0-1.573-.232-2.073-.812-5.398-6.266-11.228-6.53-11.228-6.53l2.637-5.039s4.352 1.605 10.693 1.605c6.341 0 10.694-1.605 10.694-1.605l2.636 5.04z" fill="#6BB7ED"/><path d="M25.723 13.875s-.713.263-1.983.576l.953 1.822a2.284 2.284 0 01-1.254 3.21c-1.999.715-5.018 2.328-8.65 5.961-.273.272-.6.476-.957.611.367.14.772.201 1.169.201.77 0 1.531-.27 2.073-.812 6.681-6.682 11.286-6.53 11.286-6.53l-2.637-5.039z" fill="#4EA6E6"/></g><defs><clipPath id="clip0"><path fill="#fff" d="M0 0h30v30H0z"/></clipPath></defs></svg>