<?xml version="1.0" encoding="UTF-8" standalone="no"?>
<!DOCTYPE svg PUBLIC "-//W3C//DTD SVG 1.1//EN" "http://www.w3.org/Graphics/SVG/1.1/DTD/svg11.dtd">
<svg width="100%" height="100%" viewBox="0 0 36 36" version="1.1" xmlns="http://www.w3.org/2000/svg" xmlns:xlink="http://www.w3.org/1999/xlink" xml:space="preserve" xmlns:serif="http://www.serif.com/" style="fill-rule:evenodd;clip-rule:evenodd;stroke-linejoin:round;stroke-miterlimit:2;">
    <g transform="matrix(1,0,0,1,-1,0)">
        <path d="M35.827,15.572C35.846,14.995 35.873,14.42 35.913,13.848C35.953,13.28 35.998,12.713 35.989,12.143C35.96,10.155 33.838,8.579 31.051,7.996C27.47,7.245 24.063,8.15 20.45,7.809C17.125,7.494 13.624,7.822 10.686,8.885C7.748,9.948 5.424,11.771 4.599,13.894C4.214,14.886 3.871,15.609 3.034,16.477C2.389,17.146 2.076,17.733 2.023,18.248C2.017,18.249 2.014,18.249 2.014,18.249C1.993,18.251 2.037,20.652 2.044,22.043C2.045,22.512 2.021,24.448 2.01,24.558C1.822,26.353 4.396,27.043 5.97,27.362C8.273,27.83 10.756,27.949 13.107,27.728C15.924,27.468 18.223,28.233 20.896,28.742C23.894,29.314 27.155,28.789 29.762,27.747C30.519,27.444 31.189,27.066 31.881,26.706C32.907,26.174 34.33,25.609 34.996,24.874C35.791,23.993 35.896,21.352 35.858,20.357C35.797,18.776 35.775,17.168 35.827,15.572Z" style="fill:rgb(112,65,56);fill-rule:nonzero;"/>
    </g>
    <g transform="matrix(1,0,0,1,-1,0)">
        <path d="M35.989,12.141C35.985,11.873 35.943,11.611 35.866,11.36C35.375,9.746 33.462,8.498 31.05,7.993C27.469,7.244 24.062,8.148 20.45,7.807C17.125,7.492 13.624,7.82 10.686,8.883C7.747,9.947 5.423,11.769 4.599,13.892C4.214,14.883 3.871,15.607 3.034,16.475C2.434,17.097 2.121,17.648 2.038,18.136C2.032,18.174 2.027,18.211 2.022,18.247C2.016,18.248 2.014,18.248 2.014,18.248C2.002,18.248 2.01,18.987 2.02,19.883C2.02,19.897 2.02,19.911 2.021,19.924C2.053,21.561 4.48,22.207 5.991,22.513C8.294,22.981 10.777,23.099 13.127,22.879C15.945,22.618 18.243,23.384 20.917,23.893C23.914,24.465 27.177,23.94 29.783,22.898C30.539,22.596 31.21,22.218 31.901,21.858C32.927,21.325 34.35,20.76 35.017,20.026C35.487,19.504 35.709,18.919 35.803,18.322C35.792,17.502 35.796,16.679 35.818,15.859C35.82,15.763 35.823,15.666 35.826,15.57C35.845,14.994 35.873,14.418 35.913,13.847C35.952,13.278 35.997,12.71 35.989,12.141Z" style="fill:rgb(188,125,83);fill-rule:nonzero;"/>
    </g>
    <g transform="matrix(1,0,0,1,-1,0)">
        <path d="M35.989,12.141C35.985,11.873 35.943,11.611 35.866,11.36C35.375,9.746 33.462,8.498 31.05,7.993C27.469,7.244 24.062,8.148 20.45,7.807C17.125,7.492 13.624,7.82 10.686,8.883C7.747,9.947 5.423,11.769 4.599,13.892C4.214,14.883 3.871,15.607 3.034,16.475C2.434,17.097 2.121,17.648 2.038,18.136C2.032,18.174 2.027,18.211 2.022,18.247C2.016,18.248 2.014,18.248 2.014,18.248C2.002,18.248 2.01,18.987 2.02,19.883C2.02,19.897 2.02,19.911 2.021,19.924C2.053,21.561 4.48,22.207 5.991,22.513C8.294,22.981 10.777,23.099 13.127,22.879C15.945,22.618 18.243,23.384 20.917,23.893C23.914,24.465 27.177,23.94 29.783,22.898C30.539,22.596 31.21,22.218 31.901,21.858C32.927,21.325 34.35,20.76 35.017,20.026C35.487,19.504 35.709,18.919 35.803,18.322C35.921,17.574 35.78,16.732 35.815,15.972C35.847,15.264 35.865,14.559 35.913,13.847C35.952,13.278 35.997,12.71 35.989,12.141Z" style="fill:rgb(188,125,83);fill-rule:nonzero;"/>
    </g>
    <g transform="matrix(1,0,0,1,-1,0)">
        <path d="M35.913,13.846C35.952,13.278 35.998,12.711 35.988,12.141C35.959,10.153 33.838,8.577 31.05,7.993C29.334,7.633 27.658,7.655 25.981,7.736C26.597,7.781 27.218,7.862 27.844,7.993C30.632,8.577 32.753,10.153 32.782,12.141C32.791,12.711 32.745,13.278 32.707,13.846C32.667,14.418 32.639,14.994 32.62,15.57C32.568,17.166 32.59,18.774 32.651,20.357C32.689,21.352 32.584,23.993 31.789,24.874C31.123,25.609 29.699,26.174 28.673,26.706C27.981,27.066 27.312,27.444 26.555,27.746C25.144,28.31 23.543,28.722 21.895,28.891C24.603,29.191 27.44,28.673 29.76,27.746C30.517,27.444 31.187,27.066 31.878,26.706C32.904,26.174 34.328,25.609 34.994,24.874C35.789,23.993 35.895,21.351 35.856,20.357C35.795,18.775 35.774,17.166 35.825,15.57C35.845,14.994 35.873,14.418 35.913,13.846Z" style="fill:rgb(99,48,41);fill-rule:nonzero;"/>
    </g>
    <g transform="matrix(1,0,0,1,-1,0)">
        <path d="M35.985,12.141C35.964,11.77 35.9,11.406 35.756,11.062C35.345,10.076 34.566,9.447 33.657,8.938C33.116,8.636 32.534,8.398 31.939,8.22C31.184,7.994 30.486,7.867 29.696,7.783C28.826,7.69 27.948,7.672 27.082,7.696C26.788,7.702 26.495,7.714 26.201,7.727L25.981,7.738C26.597,7.782 27.218,7.863 27.844,7.994C30.632,8.578 32.752,10.155 32.782,12.143C32.799,13.282 32.657,14.432 32.62,15.571C32.568,17.167 32.59,18.775 32.651,20.358C32.661,20.634 32.661,21.037 32.638,21.494C33.527,21.065 34.499,20.598 35.015,20.027C35.486,19.505 35.708,18.921 35.802,18.324C35.862,17.942 35.765,17.534 35.795,17.141C35.835,16.619 35.808,16.096 35.825,15.572C35.863,14.438 36.049,13.265 35.985,12.141Z" style="fill:rgb(175,102,62);fill-rule:nonzero;"/>
    </g>
    <g transform="matrix(1,0,0,1,-1,0)">
        <path d="M7.69,22.793C7.273,22.741 6.86,22.678 6.451,22.603L2.961,16.542C2.982,16.52 3.003,16.498 3.025,16.475C3.264,16.227 3.465,15.988 3.636,15.753L7.69,22.793Z" style="fill:rgb(112,65,56);fill-rule:nonzero;"/>
    </g>
    <g transform="matrix(1,0,0,1,-1,0)">
        <path d="M13.212,22.956L6.476,11.303C6.219,11.534 5.979,11.774 5.762,12.022L12.059,22.956L13.212,22.956Z" style="fill:rgb(112,65,56);fill-rule:nonzero;"/>
    </g>
    <g transform="matrix(1,0,0,1,-1,0)">
        <path d="M18.974,23.565C18.544,23.47 18.058,23.287 17.631,23.203L17.63,23.203L9.627,9.307C9.924,9.174 10.229,9.049 10.542,8.934L18.974,23.565Z" style="fill:rgb(112,65,56);fill-rule:nonzero;"/>
    </g>
    <g transform="matrix(1,0,0,1,-1,0)">
        <path d="M24.87,24.124C24.506,24.155 24.139,24.174 23.773,24.179L14.408,7.958C14.756,7.905 15.107,7.861 15.46,7.824L24.87,24.124Z" style="fill:rgb(112,65,56);fill-rule:nonzero;"/>
    </g>
    <g transform="matrix(1,0,0,1,-1,0)">
        <path d="M29.525,23.108C29.218,23.223 28.903,23.331 28.581,23.43L19.508,7.736C19.821,7.754 20.133,7.778 20.443,7.807C20.525,7.814 20.608,7.822 20.69,7.829L20.69,7.829L29.525,23.108Z" style="fill:rgb(112,65,56);fill-rule:nonzero;"/>
    </g>
    <g transform="matrix(1,0,0,1,-1,0)">
        <path d="M33.685,20.966C33.402,21.119 33.103,21.266 32.81,21.408L24.967,7.79C25.332,7.77 25.698,7.75 26.063,7.732L33.685,20.966Z" style="fill:rgb(112,65,56);fill-rule:nonzero;"/>
    </g>
    <g transform="matrix(1,0,0,1,-1,0)">
        <path d="M35.826,15.368C35.824,15.435 35.821,15.503 35.819,15.57C35.816,15.667 35.813,15.763 35.811,15.859C35.798,16.328 35.791,16.797 35.79,17.265L30.381,7.873C30.601,7.907 30.821,7.947 31.043,7.993C31.255,8.037 31.462,8.087 31.666,8.143L35.826,15.368Z" style="fill:rgb(112,65,56);fill-rule:nonzero;"/>
    </g>
</svg>
