<?xml version="1.0" encoding="UTF-8" standalone="no"?>
<!DOCTYPE svg PUBLIC "-//W3C//DTD SVG 1.1//EN" "http://www.w3.org/Graphics/SVG/1.1/DTD/svg11.dtd">
<svg width="100%" height="100%" viewBox="0 0 36 36" version="1.1" xmlns="http://www.w3.org/2000/svg" xmlns:xlink="http://www.w3.org/1999/xlink" xml:space="preserve" xmlns:serif="http://www.serif.com/" style="fill-rule:evenodd;clip-rule:evenodd;stroke-linejoin:round;stroke-miterlimit:2;">
    <g>
        <path d="M33.709,32.271L17.875,31.662L2.041,32.271L4.721,35.486C4.952,35.764 5.295,35.925 5.657,35.925L30.094,35.925C30.456,35.925 30.798,35.764 31.029,35.486L33.709,32.271Z" style="fill:rgb(127,140,141);fill-rule:nonzero;"/>
        <path d="M1.042,29.834C0.283,29.164 0.016,28.095 0.374,27.148C0.731,26.201 1.637,25.573 2.649,25.571C2.728,25.571 2.814,25.578 2.893,25.584L2.899,25.584C4.695,25.766 7.128,27.888 5.694,29.834L1.042,29.834Z" style="fill:rgb(242,156,31);fill-rule:nonzero;"/>
        <path d="M28.227,29.835C30.237,23.628 35.535,25.29 35.535,28.008C35.535,28.708 35.233,29.374 34.706,29.835L28.227,29.835Z" style="fill:rgb(242,156,31);fill-rule:nonzero;"/>
        <path d="M33.709,22.039C33.709,29.835 29.446,29.835 27.62,29.835L17.875,30.443L7.601,29.834C4.928,29.694 2.041,26.99 2.041,20.09C2.041,12.295 8.131,10.346 14.221,10.346C15.799,10.357 17.372,10.49 18.929,10.742C19.538,10.833 20.166,10.948 20.798,11.089L29.599,14.658C30.173,15.073 30.711,15.538 31.206,16.046C32.814,17.625 33.717,19.786 33.709,22.039Z" style="fill:rgb(203,130,82);fill-rule:nonzero;"/>
        <path d="M31.206,16.047C30.989,16.513 30.728,16.957 30.427,17.375C30.268,17.6 30.109,17.807 29.945,18.008C27.945,20.458 24.382,20.923 21.821,19.067L20.779,18.319C18.366,16.604 17.578,13.377 18.927,10.743C19.537,10.835 20.165,10.95 20.797,11.09L29.598,14.659C30.173,15.074 30.711,15.539 31.206,16.047Z" style="fill:rgb(165,106,67);fill-rule:nonzero;"/>
        <path d="M35.536,29.834L0.213,29.834L0.213,31.052C0.213,31.725 0.758,32.271 1.431,32.271L34.318,32.271C34.991,32.271 35.536,31.725 35.536,31.052L35.536,29.834Z" style="fill:rgb(149,165,165);fill-rule:nonzero;"/>
        <path d="M23.687,20.608C23.687,20.608 25.879,20.683 28.367,17.22C29.835,15.303 30.239,12.778 29.445,10.497L28.226,9.128L26.476,8.366C24.062,8.342 21.798,9.534 20.451,11.538C17.965,15.001 18.739,17.055 18.739,17.055L23.687,20.608Z" style="fill:rgb(203,130,82);fill-rule:nonzero;"/>
        <path d="M35.025,3.294C34.649,2.903 34.119,2.699 33.578,2.738C33.037,2.777 32.54,3.054 32.225,3.495C32.759,2.75 32.659,1.724 31.989,1.098C31.32,0.471 30.29,0.436 29.581,1.018C28.872,1.599 28.705,2.617 29.188,3.396C29.427,3.805 29.398,4.317 29.114,4.695L26.479,8.366L29.446,10.498L32.082,6.826C32.35,6.436 32.826,6.244 33.29,6.339C34.078,6.525 34.895,6.169 35.297,5.466C35.696,4.762 35.587,3.879 35.025,3.294Z" style="fill:rgb(236,240,241);fill-rule:nonzero;"/>
        <path d="M19.891,29.834C21.236,28.945 21.839,27.279 21.374,25.734C20.91,24.189 19.488,23.133 17.875,23.133C16.263,23.133 14.841,24.19 14.376,25.734C13.912,27.278 14.514,28.945 15.859,29.834L19.891,29.834Z" style="fill:rgb(242,156,31);fill-rule:nonzero;"/>
        <path d="M28.509,29.834C28.515,29.827 28.519,29.819 28.521,29.81C28.728,29.446 28.837,29.034 28.837,28.616C28.839,27.59 28.199,26.674 27.235,26.323C26.272,25.972 25.192,26.261 24.534,27.047C23.875,27.833 23.78,28.947 24.293,29.834L28.509,29.834Z" style="fill:rgb(240,196,25);fill-rule:nonzero;"/>
        <path d="M8.13,24.962C7.919,24.962 7.723,24.853 7.612,24.673C7.501,24.494 7.492,24.269 7.585,24.081C7.848,23.55 7.959,22.955 7.905,22.365C7.891,21.904 7.644,21.482 7.248,21.244C6.641,20.959 6.228,20.376 6.163,19.708C6.067,18.82 6.478,17.342 8.964,15.352C11.006,13.719 13.504,13.233 14.648,13.718C15.006,13.842 15.265,14.159 15.315,14.535C15.309,15.043 15.016,15.504 14.558,15.724C13.467,16.451 13.104,18.127 13.022,19.074C14.806,19.86 14.829,21.247 14.829,21.309C14.832,21.644 14.563,21.921 14.227,21.924C13.891,21.928 13.615,21.659 13.611,21.323C13.606,21.266 13.526,20.501 12.201,20.059C11.952,19.976 11.785,19.743 11.785,19.481C11.785,19.345 11.808,16.166 13.814,14.759C12.315,14.788 10.872,15.333 9.729,16.303C7.418,18.151 7.343,19.279 7.375,19.58C7.398,19.834 7.559,20.055 7.794,20.155C9.334,20.925 9.451,23.078 8.676,24.626C8.572,24.831 8.361,24.962 8.13,24.962Z" style="fill:rgb(165,106,67);fill-rule:nonzero;"/>
        <path d="M14.221,7.301C13.885,7.301 13.612,7.029 13.612,6.692C13.543,6.141 13.357,5.611 13.067,5.137C12.683,4.499 12.453,3.78 12.395,3.038C12.395,1.608 13.648,0.314 13.792,0.171C14.03,-0.06 14.41,-0.056 14.645,0.178C14.88,0.413 14.884,0.792 14.653,1.031C14.099,1.57 13.733,2.274 13.613,3.037C13.683,3.588 13.869,4.119 14.161,4.592C14.544,5.231 14.774,5.949 14.831,6.691C14.83,7.029 14.557,7.301 14.221,7.301Z" style="fill:rgb(149,165,165);fill-rule:nonzero;"/>
        <path d="M8.739,7.301C8.403,7.301 8.129,7.029 8.129,6.692C8.061,6.141 7.875,5.611 7.585,5.137C7.2,4.499 6.97,3.78 6.912,3.038C6.912,1.608 8.166,0.314 8.308,0.171C8.547,-0.06 8.927,-0.056 9.162,0.178C9.396,0.413 9.4,0.792 9.169,1.031C8.614,1.57 8.249,2.274 8.129,3.037C8.199,3.588 8.386,4.119 8.677,4.592C9.06,5.231 9.289,5.949 9.347,6.691C9.348,7.029 9.075,7.301 8.739,7.301Z" style="fill:rgb(149,165,165);fill-rule:nonzero;"/>
        <path d="M19.703,7.301C19.366,7.301 19.093,7.029 19.093,6.692C19.025,6.141 18.839,5.611 18.548,5.137C18.163,4.499 17.933,3.78 17.875,3.038C17.875,1.608 19.129,0.314 19.272,0.171C19.511,-0.06 19.891,-0.056 20.125,0.178C20.36,0.413 20.364,0.792 20.134,1.031C19.579,1.57 19.214,2.274 19.093,3.037C19.164,3.588 19.351,4.119 19.642,4.592C20.024,5.231 20.254,5.949 20.312,6.691C20.311,7.029 20.038,7.301 19.703,7.301Z" style="fill:rgb(149,165,165);fill-rule:nonzero;"/>
        <path d="M11.29,29.834C11.615,29.281 11.786,28.649 11.783,28.008C11.783,25.989 10.147,24.354 8.129,24.354C6.11,24.354 4.475,25.989 4.475,28.008C4.474,28.051 4.476,28.093 4.481,28.136C4.493,28.533 4.57,28.927 4.713,29.299C4.779,29.486 4.865,29.666 4.968,29.835L11.29,29.835L11.29,29.834Z" style="fill:rgb(240,196,25);fill-rule:nonzero;"/>
    </g>
</svg>
