<?xml version="1.0" encoding="UTF-8" standalone="no"?>
<!DOCTYPE svg PUBLIC "-//W3C//DTD SVG 1.1//EN" "http://www.w3.org/Graphics/SVG/1.1/DTD/svg11.dtd">
<svg width="100%" height="100%" viewBox="0 0 36 36" version="1.1" xmlns="http://www.w3.org/2000/svg" xmlns:xlink="http://www.w3.org/1999/xlink" xml:space="preserve" xmlns:serif="http://www.serif.com/" style="fill-rule:evenodd;clip-rule:evenodd;stroke-linejoin:round;stroke-miterlimit:2;">
    <g transform="matrix(1,0,0,1,1,1)">
        <path d="M31.909,15.591C30.761,12.027 28.108,8.86 24.536,7.634C23.32,7.217 22.31,6.783 21.227,6.094C20.148,5.407 19.397,4.274 18.583,3.306C17.46,1.972 16.473,0.966 14.764,0.414C13.607,0.039 12.367,-0.067 11.158,0.034C10.22,0.113 9.286,0.239 8.352,0.352C8.378,0.349 8.403,0.347 8.43,0.344C8.23,0.366 8.026,0.398 7.816,0.442C5.685,0.896 4.412,2.059 3.828,3.748C3.624,4.339 3.504,4.993 3.462,5.704C3.382,7.022 3.583,8.35 3.366,9.662C3.108,11.226 2.528,12.717 1.939,14.181C0.887,16.801 0.138,19.615 0.404,22.424C0.795,26.563 3.489,30.348 7.151,32.314C8.922,33.265 10.888,33.702 12.88,33.858C14.081,33.951 15.286,34.016 16.492,33.996C17.999,33.971 19.509,33.833 20.986,33.527C21.727,33.374 22.46,33.178 23.174,32.927C24.434,32.482 25.607,31.819 26.686,31.036C30.205,28.48 32.411,24.907 32.574,20.48C32.635,18.83 32.416,17.164 31.909,15.591Z" style="fill:rgb(211,55,55);fill-rule:nonzero;"/>
        <path d="M31.91,15.591C30.762,12.027 28.109,8.86 24.537,7.634C23.322,7.216 22.311,6.783 21.229,6.095C20.15,5.408 19.398,4.275 18.584,3.307C17.462,1.973 16.475,0.966 14.766,0.414C13.608,0.039 12.369,-0.067 11.16,0.034C10.986,0.049 10.812,0.065 10.639,0.083C11.138,0.151 11.629,0.259 12.108,0.414C13.655,0.914 14.959,1.984 15.871,3.292C16.918,4.791 18.324,6.039 19.942,6.888C21.219,7.559 22.533,8.136 23.847,8.726C25.192,9.33 26.116,10.213 27.133,11.242C29.746,13.886 30.88,17.819 30.323,21.468C29.753,25.209 27.045,28.844 24.027,31.036C22.949,31.819 21.776,32.482 20.516,32.927C19.803,33.178 19.07,33.374 18.328,33.527C17.128,33.775 15.905,33.913 14.682,33.969C15.285,33.994 15.889,34.005 16.493,33.995C18,33.969 19.511,33.832 20.987,33.526C21.728,33.373 22.461,33.177 23.175,32.926C24.435,32.481 25.608,31.818 26.686,31.035C30.205,28.479 32.412,24.906 32.575,20.479C32.636,18.83 32.417,17.164 31.91,15.591Z" style="fill:rgb(196,38,38);fill-rule:nonzero;"/>
        <path d="M3.828,3.749C3.624,4.339 3.504,4.993 3.462,5.705C3.382,7.023 3.583,8.35 3.366,9.662C3.108,11.227 2.528,12.717 1.939,14.182C0.887,16.801 0.138,19.615 0.404,22.424C0.795,26.563 3.49,30.348 7.151,32.314C10.812,34.28 15.321,34.465 19.234,33.068C21.478,32.267 23.572,30.876 25.265,29.209C27.455,27.054 28.571,24.002 28.682,20.965C28.74,19.374 28.529,17.768 28.04,16.252C27.13,13.426 25.739,11.438 23.107,9.961C21.799,9.228 20.389,8.7 19.063,8.006C15.192,5.979 13.165,-0.698 7.816,0.443C5.685,0.896 4.412,2.06 3.828,3.749Z" style="fill:rgb(229,118,112);fill-rule:nonzero;"/>
        <path d="M28.682,20.965C28.57,24.002 27.454,27.054 25.265,29.208C23.572,30.876 21.478,32.266 19.235,33.068C19.098,33.116 18.96,33.163 18.822,33.209C20.445,32.401 21.95,31.301 23.227,30.045C25.416,27.891 26.533,24.838 26.644,21.801C26.702,20.21 26.491,18.604 26.002,17.087C25.092,14.262 23.7,12.274 21.069,10.797C19.762,10.063 18.351,9.536 17.024,8.841C13.152,6.814 11.125,0.138 5.776,1.278C5.747,1.284 5.717,1.291 5.688,1.298C6.271,0.91 6.977,0.621 7.816,0.443C13.165,-0.698 15.191,5.979 19.063,8.005C20.39,8.7 21.8,9.228 23.107,9.96C25.738,11.438 27.131,13.425 28.04,16.251C28.528,17.767 28.74,19.374 28.682,20.965Z" style="fill:rgb(224,92,86);fill-rule:nonzero;"/>
        <path d="M5.924,6.141C5.864,7.478 6.114,8.957 6.057,9.935C5.92,12.247 4.761,14.133 4.02,16.261C3.109,18.878 2.455,21.539 3.516,24.189C4.446,26.515 6.228,28.492 8.433,29.676C11.458,31.3 15.182,31.453 18.416,30.299C20.269,29.637 21.999,28.488 23.398,27.111C25.259,25.279 26.089,22.298 25.937,19.731C25.818,17.733 25.188,15.72 23.985,14.107C21.774,11.14 17.585,10.7 15.3,7.92C14.832,7.35 14.436,6.725 14.019,6.117C13.227,4.96 12.358,3.84 11.043,3.251C9.655,2.629 8.145,2.795 7.018,3.852C6.376,4.452 5.964,5.256 5.924,6.141Z" style="fill:rgb(255,193,184);fill-rule:nonzero;"/>
        <path d="M16.348,8.954C15.466,9.456 14.434,9.701 13.517,9.322C12.152,8.757 11.301,7.585 9.76,7.433C9.14,7.372 8.508,7.372 7.912,7.19C7.022,6.918 6.687,6.246 6.254,5.499C6.201,5.406 6.152,5.312 6.107,5.215C6.292,4.7 6.608,4.235 7.016,3.853C8.144,2.795 9.652,2.628 11.041,3.251C12.356,3.841 13.225,4.961 14.017,6.118C14.433,6.726 14.829,7.351 15.298,7.921C15.614,8.305 15.968,8.645 16.348,8.954Z" style="fill:rgb(211,55,55);fill-rule:nonzero;"/>
        <path d="M7.318,12.791C7.181,13.464 6.932,14.095 6.473,14.711C6.105,15.205 5.637,15.938 5.56,16.566C5.47,17.304 6.19,17.682 6.836,17.81C7.337,17.91 7.851,17.885 8.353,17.97C9.155,18.107 9.971,18.536 10.698,18.88C11.577,19.296 12.56,19.465 13.528,19.343C14.376,19.237 15.573,18.945 16.052,18.163C17.367,16.017 15.09,14.903 13.906,13.593C13.068,12.667 12.786,11.356 11.879,10.467C11.005,9.608 9.284,8.472 8.066,9.334C7.514,9.724 7.503,10.406 7.486,11.022C7.469,11.65 7.432,12.234 7.318,12.791Z" style="fill:rgb(211,55,55);fill-rule:nonzero;"/>
        <path d="M12.638,24.394C14.693,24.417 16.729,23.915 18.695,23.343C19.603,23.079 20.577,22.756 21.116,21.979C21.783,21.018 21.495,19.322 20.371,18.79C19.089,18.184 17.671,19.557 16.614,20.072C15.48,20.624 14.313,20.937 13.041,20.798C12.463,20.735 11.799,20.806 11.386,21.271C10.892,21.827 10.762,22.97 11.001,23.653C11.21,24.248 11.933,24.386 12.638,24.394Z" style="fill:rgb(211,55,55);fill-rule:nonzero;"/>
        <path d="M13.941,31.049C12.024,31.03 10.12,30.581 8.433,29.676C6.227,28.492 4.446,26.515 3.516,24.189C3.193,23.385 3.029,22.578 2.982,21.772C3.068,20.726 3.543,19.76 4.582,19.368C5.033,19.198 5.539,19.11 6.04,19.119C7.077,19.137 8.097,19.575 8.571,20.574C9.131,21.754 8.379,23.051 8.678,24.26C8.968,25.429 10.044,25.757 11.107,25.907C12.523,26.107 14.068,25.932 14.512,27.591C14.813,28.716 14.535,30.043 13.941,31.049Z" style="fill:rgb(211,55,55);fill-rule:nonzero;"/>
        <path d="M24.43,25.827C24.381,25.863 24.33,25.897 24.278,25.929C23.504,26.4 21.848,26.257 21.775,25.115C21.734,24.476 22.458,23.849 22.698,23.3C23.435,21.611 23.487,19.618 22.792,17.907C22.388,16.912 20.384,12.976 22.919,12.975L22.925,12.975C23.311,13.31 23.668,13.683 23.984,14.106C25.188,15.721 25.818,17.733 25.937,19.731C26.057,21.762 25.563,24.052 24.43,25.827Z" style="fill:rgb(211,55,55);fill-rule:nonzero;"/>
        <path d="M18.921,25.065C18.498,25.089 18.087,25.186 17.808,25.3C16.914,25.663 16.386,26.543 16.351,27.489C16.312,28.561 16.617,29.204 17.763,28.913C18.448,28.74 19.254,28.354 19.756,27.843C20.276,27.315 20.886,26.439 20.521,25.681C20.272,25.163 19.583,25.026 18.921,25.065Z" style="fill:rgb(211,55,55);fill-rule:nonzero;"/>
        <path d="M18.836,12.543C19.229,12.868 19.604,13.219 19.929,13.644C20.487,14.375 20.752,15.97 20.067,16.701C19.569,17.232 18.531,17.23 18.264,16.478C18.05,15.875 18.149,15.388 17.766,14.83C17.437,14.351 16.984,13.972 16.576,13.564C16.035,13.023 14.492,11.572 15.916,10.952C16.486,10.703 17.03,11.069 17.458,11.438C17.907,11.825 18.383,12.167 18.836,12.543Z" style="fill:rgb(211,55,55);fill-rule:nonzero;"/>
        <path d="M13.868,19.812C13.868,21.649 12.379,23.138 10.542,23.138C8.706,23.138 7.217,21.649 7.217,19.812C7.217,17.975 8.706,16.485 10.542,16.485C12.378,16.485 13.868,17.975 13.868,19.812Z" style="fill:rgb(255,193,184);fill-rule:nonzero;"/>
        <path d="M13.868,19.812C13.868,21.65 12.379,23.139 10.542,23.139C9.727,23.139 8.978,22.844 8.4,22.356C8.646,22.414 8.903,22.445 9.167,22.445C11.003,22.445 12.492,20.956 12.492,19.118C12.492,18.098 12.033,17.185 11.309,16.575C12.777,16.921 13.868,18.239 13.868,19.812Z" style="fill:rgb(255,179,168);fill-rule:nonzero;"/>
    </g>
</svg>
