<?xml version="1.0" encoding="UTF-8" standalone="no"?>
<!DOCTYPE svg PUBLIC "-//W3C//DTD SVG 1.1//EN" "http://www.w3.org/Graphics/SVG/1.1/DTD/svg11.dtd">
<svg width="100%" height="100%" viewBox="0 0 31 30" version="1.1" xmlns="http://www.w3.org/2000/svg" xmlns:xlink="http://www.w3.org/1999/xlink" xml:space="preserve" xmlns:serif="http://www.serif.com/" style="fill-rule:evenodd;clip-rule:evenodd;stroke-linejoin:round;stroke-miterlimit:2;">
    <g>
        <path d="M30.43,11.162C30.415,11.023 30.397,10.838 30.377,10.701C30.357,10.565 30.323,10.386 30.298,10.252C30.275,10.129 30.237,9.966 30.201,9.845C30.139,9.631 30.049,9.347 29.974,9.138C29.871,8.854 29.658,8.402 29.542,8.201C29.32,7.814 29.32,7.814 29.194,7.628C29.136,7.541 28.999,7.337 28.784,7.073C28.381,6.578 28.003,6.247 27.98,6.227C27.787,6.057 27.52,5.842 27.314,5.688C27.176,5.584 26.983,5.456 26.835,5.366C26.689,5.278 26.495,5.157 26.341,5.081C26.039,4.932 25.628,4.744 25.315,4.616C25.137,4.544 24.894,4.466 24.71,4.411C24.528,4.356 24.283,4.29 24.098,4.249C23.78,4.179 23.352,4.093 23.028,4.066C22.821,4.048 22.545,4.017 22.336,4.01C22.021,4.001 21.599,3.991 21.285,4.014C21.064,4.03 20.77,4.049 20.551,4.079C20.239,4.122 19.825,4.192 19.517,4.256C19.061,4.35 18.469,4.539 18.03,4.691C17.724,4.797 17.322,4.962 17.035,5.111C16.807,5.229 16.499,5.379 16.277,5.508C16.109,5.605 15.798,5.786 15.43,6.041C15.2,6.2 14.904,6.429 14.685,6.603C14.563,6.699 14.409,6.835 14.294,6.938C14.193,7.03 14.059,7.155 13.961,7.251C13.852,7.358 13.711,7.506 13.605,7.617C13.497,7.727 13.362,7.881 13.265,8C13.096,8.207 12.879,8.489 12.721,8.704C12.63,8.828 12.517,8.999 12.436,9.13C12.353,9.263 12.246,9.441 12.169,9.577C12.104,9.691 12.025,9.846 11.963,9.962C11.888,10.105 11.799,10.3 11.736,10.448C11.635,10.684 11.515,11.004 11.431,11.247C11.375,11.409 11.313,11.628 11.27,11.794C11.224,11.977 11.167,12.221 11.135,12.407C11.107,12.576 11.079,12.785 11.055,12.98C11.046,13.042 11.039,13.106 11.033,13.17C11.016,13.25 10.972,13.364 10.947,13.419C10.884,13.561 10.847,13.625 10.779,13.741C10.765,13.764 10.697,13.873 10.612,13.987C10.539,14.083 10.539,14.083 10.404,14.238C10.403,14.239 10.301,14.355 10.16,14.484C10.066,14.57 10.066,14.57 9.882,14.716C9.836,14.752 9.772,14.799 9.723,14.83C9.634,14.889 9.514,14.963 9.422,15.018C9.332,15.071 9.216,15.147 9.131,15.207C9.076,15.245 9.009,15.303 8.959,15.345C8.952,15.351 8.795,15.483 8.636,15.675C8.342,16.033 8.206,16.368 8.13,16.589C8.096,16.686 8.063,16.82 8.039,16.92C8.024,16.984 8.011,17.071 8,17.136C7.994,17.176 7.964,17.392 7.967,17.658C7.971,17.935 8.007,18.154 8.009,18.163C8.052,18.422 8.069,18.507 8.16,18.801C8.179,18.862 8.207,18.943 8.231,19.003C8.278,19.12 8.342,19.276 8.398,19.389C8.425,19.446 8.463,19.52 8.494,19.575C8.526,19.63 8.566,19.703 8.599,19.757C8.632,19.811 8.678,19.881 8.712,19.933C8.772,20.027 8.786,20.046 8.964,20.275C9.003,20.325 9.06,20.388 9.102,20.436C9.201,20.552 9.354,20.696 9.411,20.749C9.576,20.904 9.806,21.067 9.808,21.069C9.863,21.108 9.938,21.159 9.996,21.194C10.087,21.249 10.21,21.321 10.305,21.367C10.429,21.427 10.595,21.504 10.726,21.544C10.791,21.565 10.877,21.595 10.943,21.612C11.067,21.641 11.235,21.676 11.361,21.696C11.471,21.713 11.62,21.725 11.731,21.723C11.797,21.722 11.885,21.723 11.952,21.717C12.055,21.709 12.192,21.695 12.293,21.676C12.359,21.664 12.446,21.647 12.509,21.629C12.597,21.605 12.713,21.568 12.798,21.538C12.925,21.492 13.084,21.41 13.203,21.349C14.278,20.745 15.268,20.792 15.649,20.902C15.814,20.974 16.017,21.059 16.175,21.119C16.338,21.18 16.556,21.256 16.723,21.304C16.973,21.378 17.312,21.462 17.567,21.519C17.725,21.554 17.94,21.587 18.1,21.613C18.35,21.655 18.852,21.703 19.063,21.709C19.218,21.714 19.425,21.726 19.58,21.723C19.849,21.719 20.208,21.705 20.476,21.687C20.63,21.677 20.834,21.653 20.986,21.634C21.138,21.614 21.341,21.586 21.492,21.556C21.762,21.503 22.12,21.424 22.388,21.359C22.538,21.323 22.735,21.263 22.883,21.217C23.031,21.171 23.228,21.107 23.373,21.052C23.637,20.951 23.985,20.808 24.243,20.696C24.387,20.634 24.575,20.539 24.715,20.467C24.843,20.402 25.011,20.31 25.136,20.241C25.422,20.08 25.788,19.844 26.059,19.66C26.255,19.527 26.5,19.329 26.689,19.188C26.948,18.994 27.259,18.697 27.492,18.475C27.733,18.246 28.036,17.92 28.243,17.661C28.514,17.323 28.856,16.855 29.086,16.488C29.267,16.199 29.484,15.799 29.624,15.489C29.706,15.307 29.812,15.062 29.883,14.876C29.953,14.69 30.041,14.441 30.096,14.251C30.197,13.901 30.311,13.427 30.363,13.067C30.397,12.827 30.428,12.506 30.445,12.265C30.453,12.143 30.453,11.989 30.454,11.852C30.455,11.811 30.456,11.771 30.456,11.73C30.454,11.56 30.448,11.332 30.43,11.162Z" style="fill:rgb(241,135,0);fill-rule:nonzero;"/>
        <path d="M26.952,16.235C24.767,17.47 22.022,18.158 19.412,18.257C17.366,18.335 15.427,18.814 13.984,19.631C13.994,20.476 13.695,21.072 13.205,21.349C14.281,20.745 15.27,20.792 15.651,20.902C15.817,20.975 16.019,21.059 16.177,21.119C16.34,21.18 16.558,21.256 16.725,21.304C16.975,21.378 17.314,21.462 17.569,21.519C17.727,21.554 17.942,21.587 18.103,21.613C18.352,21.655 18.854,21.703 19.065,21.709C19.22,21.714 19.427,21.726 19.583,21.723C19.851,21.719 20.21,21.705 20.478,21.687C20.632,21.677 20.836,21.653 20.988,21.634C21.14,21.614 21.343,21.586 21.494,21.556C21.764,21.503 22.123,21.424 22.39,21.359C22.54,21.323 22.738,21.263 22.885,21.217C23.033,21.171 23.23,21.107 23.375,21.052C23.639,20.951 23.987,20.808 24.245,20.696C24.389,20.634 24.577,20.539 24.717,20.467C24.845,20.402 25.013,20.31 25.138,20.241C25.424,20.081 25.79,19.844 26.062,19.66C26.257,19.527 26.502,19.329 26.691,19.188C26.95,18.994 27.261,18.697 27.494,18.475C27.735,18.246 28.038,17.92 28.245,17.661C28.517,17.323 28.859,16.855 29.088,16.488C29.269,16.199 29.486,15.799 29.626,15.49C29.708,15.307 29.815,15.063 29.885,14.876C29.955,14.69 30.043,14.441 30.098,14.251C30.199,13.901 30.313,13.427 30.365,13.067C30.399,12.827 30.43,12.506 30.447,12.265C30.455,12.143 30.455,11.989 30.456,11.852C30.412,13.347 29.221,14.952 26.952,16.235ZM15.592,20.876C15.605,20.882 15.618,20.888 15.632,20.894C15.624,20.89 15.612,20.885 15.592,20.876Z" style="fill:rgb(241,135,0);fill-rule:nonzero;"/>
        <path d="M30.457,11.852C30.458,11.812 30.459,11.771 30.459,11.731C30.458,11.769 30.458,11.81 30.457,11.852Z" style="fill:rgb(241,135,0);fill-rule:nonzero;"/>
        <path d="M11.277,15.173C10.552,14.781 9.899,14.75 9.424,15.018C9.334,15.071 9.218,15.147 9.133,15.207C9.078,15.245 9.011,15.302 8.961,15.345C8.954,15.35 8.796,15.483 8.638,15.675C8.344,16.033 8.208,16.368 8.132,16.589C8.098,16.686 8.065,16.82 8.041,16.92C8.026,16.984 8.012,17.071 8.002,17.136C7.996,17.176 7.965,17.392 7.969,17.658C7.973,17.935 8.009,18.153 8.011,18.163C8.054,18.422 8.071,18.507 8.162,18.8C8.181,18.862 8.209,18.943 8.233,19.003C8.28,19.12 8.344,19.275 8.4,19.389C8.427,19.446 8.465,19.52 8.496,19.575C8.528,19.63 8.568,19.703 8.601,19.757C8.633,19.811 8.68,19.881 8.714,19.933C8.774,20.027 8.788,20.046 8.966,20.275C9.005,20.325 9.062,20.388 9.104,20.436C9.203,20.552 9.356,20.695 9.413,20.749C9.578,20.904 9.808,21.067 9.81,21.069C9.865,21.107 9.94,21.159 9.998,21.194C10.089,21.249 10.212,21.321 10.307,21.367C10.431,21.427 10.597,21.504 10.728,21.544C10.793,21.565 10.878,21.595 10.945,21.611C11.069,21.641 11.237,21.676 11.363,21.696C11.473,21.713 11.621,21.725 11.733,21.723C11.799,21.721 11.887,21.723 11.954,21.717C12.057,21.709 12.194,21.695 12.295,21.676C12.361,21.664 12.448,21.647 12.511,21.629C12.599,21.604 12.715,21.568 12.8,21.537C12.927,21.492 13.086,21.41 13.205,21.349C13.695,21.072 13.994,20.476 13.984,19.631C13.963,17.968 12.751,15.973 11.277,15.173ZM9.691,20.26C9.127,19.954 8.664,19.192 8.656,18.555C8.648,17.92 9.099,17.653 9.662,17.958C10.226,18.264 10.689,19.027 10.697,19.663C10.705,20.298 10.254,20.565 9.691,20.26Z" style="fill:rgb(255,153,17);fill-rule:nonzero;"/>
        <path d="M30.43,11.162C30.415,11.023 30.397,10.838 30.377,10.701C30.357,10.565 30.323,10.386 30.298,10.252C30.274,10.129 30.236,9.966 30.201,9.845C30.139,9.631 30.049,9.347 29.973,9.138C29.871,8.854 29.658,8.402 29.542,8.201C29.32,7.814 29.32,7.814 29.194,7.628C29.136,7.541 28.998,7.337 28.784,7.073C28.381,6.578 28.003,6.247 27.98,6.227C27.787,6.057 27.52,5.842 27.314,5.688C27.176,5.584 26.983,5.456 26.835,5.366C26.689,5.278 26.495,5.157 26.341,5.081C26.038,4.932 25.628,4.744 25.315,4.616C25.137,4.544 24.893,4.466 24.709,4.411C24.528,4.356 24.283,4.29 24.098,4.249C23.78,4.179 23.352,4.093 23.027,4.066C22.82,4.048 22.544,4.017 22.336,4.01C22.021,4.001 21.599,3.991 21.284,4.014C21.064,4.03 20.77,4.049 20.551,4.079C20.239,4.122 19.825,4.192 19.517,4.256C19.061,4.35 18.469,4.539 18.03,4.691C17.724,4.797 17.322,4.962 17.035,5.111C16.807,5.229 16.499,5.379 16.277,5.508C16.109,5.605 15.798,5.786 15.43,6.041C15.2,6.2 14.904,6.429 14.685,6.603C14.563,6.699 14.409,6.835 14.294,6.938C14.193,7.03 14.059,7.155 13.961,7.251C13.852,7.358 13.711,7.506 13.604,7.617C13.497,7.727 13.362,7.881 13.265,8C13.096,8.207 12.879,8.489 12.721,8.704C12.63,8.828 12.517,8.999 12.435,9.13C12.353,9.263 12.246,9.441 12.168,9.577C12.104,9.691 12.025,9.846 11.963,9.962C11.887,10.105 11.798,10.3 11.735,10.448C11.635,10.684 11.515,11.004 11.431,11.247C11.375,11.409 11.312,11.628 11.27,11.794C11.224,11.977 11.167,12.221 11.135,12.407C11.107,12.576 11.079,12.785 11.055,12.98C11.046,13.042 11.039,13.106 11.033,13.17C11.016,13.25 10.972,13.364 10.947,13.419C10.884,13.561 10.847,13.625 10.779,13.741C10.765,13.764 10.697,13.873 10.612,13.987C10.539,14.083 10.539,14.083 10.404,14.238C10.403,14.239 10.301,14.355 10.16,14.484C10.066,14.57 10.066,14.57 9.882,14.716C9.836,14.752 9.772,14.799 9.723,14.83C9.634,14.889 9.513,14.964 9.422,15.018C9.896,14.75 10.55,14.78 11.275,15.174C12.749,15.973 13.961,17.968 13.982,19.63C15.426,18.814 17.364,18.334 19.41,18.257C22.02,18.158 24.766,17.47 26.95,16.234C29.28,14.917 30.475,13.259 30.455,11.73C30.454,11.56 30.448,11.332 30.43,11.162ZM11.033,13.181C11.031,13.199 11.029,13.216 11.027,13.234C11.03,13.206 11.031,13.192 11.033,13.181Z" style="fill:rgb(255,153,17);fill-rule:nonzero;"/>
        <path d="M9.747,18C9.483,17.852 9.242,17.838 9.069,17.935L2.452,21.689C2.452,21.688 2.453,21.688 2.453,21.688C2.282,21.785 2.174,21.991 2.174,22.283C2.172,22.872 2.597,23.589 3.124,23.884C3.405,24.042 3.658,24.047 3.833,23.927C3.823,23.934 3.813,23.942 3.802,23.948L10.42,20.195C10.591,20.098 10.697,19.892 10.697,19.6C10.699,19.013 10.274,18.296 9.747,18Z" style="fill:rgb(254,195,119);fill-rule:nonzero;"/>
        <path d="M2.453,21.689L9.071,17.935C9.244,17.838 9.484,17.852 9.749,18L3.132,21.753C2.867,21.605 2.627,21.591 2.453,21.689Z" style="fill:rgb(254,218,170);fill-rule:nonzero;"/>
        <path d="M10.421,20.197L3.803,23.949C3.974,23.852 4.08,23.646 4.081,23.354C4.083,22.766 3.657,22.049 3.131,21.753L9.749,18C10.275,18.296 10.7,19.013 10.698,19.601C10.698,19.894 10.592,20.099 10.421,20.197Z" style="fill:rgb(254,195,119);fill-rule:nonzero;"/>
        <path d="M3.13,21.753C3.657,22.049 4.082,22.766 4.08,23.354C4.079,23.943 3.65,24.18 3.124,23.884C2.597,23.589 2.172,22.872 2.174,22.284C2.176,21.695 2.604,21.458 3.13,21.753Z" style="fill:rgb(254,218,170);fill-rule:nonzero;"/>
        <path d="M1.887,24.202C2.929,24.202 3.774,23.38 3.774,22.367C3.774,21.353 2.929,20.531 1.887,20.531C0.845,20.531 0,21.353 0,22.367C0,23.38 0.845,24.202 1.887,24.202Z" style="fill:rgb(254,195,119);fill-rule:nonzero;"/>
        <path d="M0.288,22.563C0.288,21.549 1.133,20.727 2.175,20.727C2.514,20.727 2.832,20.815 3.107,20.967C2.778,20.696 2.352,20.531 1.887,20.531C0.845,20.532 0,21.354 0,22.367C0,23.051 0.385,23.647 0.955,23.963C0.547,23.626 0.288,23.124 0.288,22.563Z" style="fill:rgb(254,218,170);fill-rule:nonzero;"/>
        <path d="M4.213,25.5C5.255,25.5 6.1,24.678 6.1,23.665C6.1,22.651 5.255,21.829 4.213,21.829C3.171,21.829 2.326,22.651 2.326,23.665C2.326,24.678 3.171,25.5 4.213,25.5Z" style="fill:rgb(254,195,119);fill-rule:nonzero;"/>
        <path d="M2.548,23.801C2.548,22.787 3.393,21.965 4.435,21.965C4.76,21.965 5.065,22.045 5.332,22.186C5.019,21.961 4.632,21.828 4.213,21.828C3.171,21.828 2.326,22.65 2.326,23.664C2.326,24.361 2.727,24.968 3.316,25.279C2.85,24.945 2.548,24.407 2.548,23.801Z" style="fill:rgb(254,218,170);fill-rule:nonzero;"/>
        <path d="M20.882,9.51C23.091,9.06 24.658,7.657 24.383,6.379C24.107,5.1 22.092,4.428 19.883,4.879C17.674,5.33 16.106,6.732 16.382,8.011C16.658,9.29 18.673,9.961 20.882,9.51Z" style="fill:rgb(255,168,52);fill-rule:nonzero;"/>
    </g>
</svg>
