<?xml version="1.0" encoding="UTF-8" standalone="no"?>
<!DOCTYPE svg PUBLIC "-//W3C//DTD SVG 1.1//EN" "http://www.w3.org/Graphics/SVG/1.1/DTD/svg11.dtd">
<svg width="100%" height="100%" viewBox="0 0 36 36" version="1.1" xmlns="http://www.w3.org/2000/svg" xmlns:xlink="http://www.w3.org/1999/xlink" xml:space="preserve" xmlns:serif="http://www.serif.com/" style="fill-rule:evenodd;clip-rule:evenodd;stroke-linejoin:round;stroke-miterlimit:2;">
    <path d="M30.307,26.559L9.148,5.399C8.225,4.476 6.729,4.476 5.807,5.399L4.692,6.513C3.769,7.436 3.769,8.932 4.692,9.853L25.852,31.013C26.775,31.936 28.271,31.936 29.192,31.013L30.306,29.899C31.23,28.978 31.23,27.482 30.307,26.559Z" style="fill:rgb(244,67,54);fill-rule:nonzero;"/>
    <path d="M25.852,5.4L4.692,26.56C3.769,27.482 3.769,28.979 4.692,29.9L5.806,31.014C6.729,31.936 8.225,31.936 9.146,31.014L30.307,9.855C31.23,8.933 31.23,7.436 30.307,6.515L29.194,5.402C28.271,4.477 26.775,4.477 25.852,5.4Z" style="fill:rgb(244,67,54);fill-rule:nonzero;"/>
</svg>
