<?xml version="1.0" encoding="UTF-8" standalone="no"?>
<!DOCTYPE svg PUBLIC "-//W3C//DTD SVG 1.1//EN" "http://www.w3.org/Graphics/SVG/1.1/DTD/svg11.dtd">
<svg width="100%" height="100%" viewBox="0 0 36 36" version="1.1" xmlns="http://www.w3.org/2000/svg" xmlns:xlink="http://www.w3.org/1999/xlink" xml:space="preserve" xmlns:serif="http://www.serif.com/" style="fill-rule:evenodd;clip-rule:evenodd;stroke-linejoin:round;stroke-miterlimit:2;">
    <path d="M17.999,0C11.308,0 5.889,7.06 5.889,15.769C5.889,16.382 5.913,16.994 5.968,17.589L30.031,17.589C30.085,16.994 30.11,16.382 30.11,15.769C30.11,7.06 24.69,0 17.999,0Z" style="fill:rgb(201,201,199);fill-rule:nonzero;"/>
    <path d="M30.111,15.769C30.111,8.42 26.252,2.244 21.027,0.496C22.567,3.103 23.401,6.068 23.45,9.097C23.414,12.093 22.578,15.025 21.027,17.588L30.032,17.588C30.086,16.994 30.111,16.381 30.111,15.769Z" style="fill:rgb(168,168,166);fill-rule:nonzero;"/>
    <path d="M17.999,3.639C11.311,3.639 5.889,10.699 5.889,19.408C5.889,27.313 10.356,33.859 16.183,35C16.174,33.462 15.803,31.947 15.102,30.579C14.606,29.555 14.354,28.43 14.366,27.292C14.366,24.277 15.993,21.834 17.999,21.834C20.006,21.834 21.633,24.277 21.633,27.292C21.645,28.43 21.394,29.555 20.897,30.579C20.195,31.947 19.825,33.462 19.816,35C25.642,33.859 30.109,27.313 30.109,19.408C30.11,10.699 24.688,3.639 17.999,3.639Z" style="fill:rgb(224,67,67);fill-rule:nonzero;"/>
    <path d="M12.551,19.105C12.554,16.929 14.315,15.166 16.487,15.163L19.515,15.163C21.545,15.171 23.235,16.724 23.419,18.748C23.602,20.773 22.218,22.606 20.223,22.979C20.501,23.308 20.736,23.671 20.924,24.058C23.386,23.348 24.952,20.933 24.598,18.392C24.244,15.851 22.077,13.958 19.516,13.949L16.487,13.949C13.926,13.958 11.759,15.851 11.405,18.392C11.051,20.933 12.617,23.348 15.079,24.058C15.266,23.67 15.502,23.308 15.78,22.979C13.911,22.636 12.554,21.007 12.551,19.105Z" style="fill:rgb(242,102,102);fill-rule:nonzero;"/>
    <path d="M10.128,19.105C10.133,15.589 12.977,12.741 16.486,12.737L19.515,12.737C22.664,12.74 25.337,15.052 25.798,18.173C26.259,21.294 24.37,24.281 21.356,25.199C21.462,25.59 21.537,25.989 21.58,26.392C25.214,25.361 27.532,21.803 27.011,18.057C26.491,14.31 23.291,11.522 19.514,11.523L16.486,11.523C12.71,11.521 9.51,14.31 8.989,18.057C8.468,21.804 10.786,25.361 14.42,26.392C14.463,25.989 14.538,25.59 14.644,25.199C11.965,24.383 10.132,21.91 10.128,19.105Z" style="fill:rgb(242,102,102);fill-rule:nonzero;"/>
    <path d="M7.706,19.105C7.711,14.25 11.639,10.316 16.485,10.31L19.514,10.31C23.953,10.307 27.695,13.625 28.23,18.039C28.765,22.453 25.925,26.572 21.614,27.634C21.598,28.065 21.548,28.495 21.461,28.918C26.497,27.909 29.949,23.243 29.446,18.124C28.943,13.005 24.648,9.102 19.513,9.097L16.485,9.097C11.35,9.103 7.055,13.006 6.553,18.125C6.049,23.243 9.502,27.909 14.537,28.918C14.452,28.495 14.4,28.065 14.384,27.634C10.467,26.664 7.712,23.147 7.706,19.105Z" style="fill:rgb(242,102,102);fill-rule:nonzero;"/>
    <path d="M14.943,30.203C11.246,29.683 8.05,27.355 6.418,23.992C6.742,25.396 7.233,26.757 7.879,28.043C9.944,30.044 12.641,31.262 15.505,31.488C15.384,31.18 15.252,30.876 15.102,30.578C15.042,30.462 14.995,30.331 14.943,30.203Z" style="fill:rgb(242,102,102);fill-rule:nonzero;"/>
    <path d="M21.058,30.203C21.005,30.328 20.958,30.459 20.899,30.577C20.749,30.873 20.616,31.178 20.496,31.486C23.361,31.261 26.057,30.043 28.122,28.041C28.768,26.754 29.259,25.394 29.583,23.99C27.951,27.354 24.755,29.683 21.058,30.203Z" style="fill:rgb(242,102,102);fill-rule:nonzero;"/>
    <path d="M16.486,7.884L19.514,7.884C23.548,7.888 27.268,10.064 29.253,13.582C28.827,12.169 28.223,10.818 27.454,9.56C25.229,7.692 22.417,6.67 19.513,6.672L16.486,6.672C13.583,6.67 10.771,7.692 8.545,9.56C7.777,10.818 7.172,12.169 6.746,13.582C8.732,10.065 12.452,7.889 16.486,7.884Z" style="fill:rgb(242,102,102);fill-rule:nonzero;"/>
    <path d="M18,3.639C17.797,3.639 17.595,3.646 17.395,3.659L17.395,21.915C17.791,21.805 18.209,21.805 18.606,21.915L18.606,3.658C18.405,3.646 18.203,3.639 18,3.639Z" style="fill:rgb(242,102,102);fill-rule:nonzero;"/>
    <path d="M20.422,19.341C20.422,17.964 19.338,16.847 18,16.847C16.663,16.847 15.578,17.964 15.578,19.341C15.578,20.718 16.663,21.835 18,21.835C19.338,21.835 20.422,20.718 20.422,19.341Z" style="fill:rgb(242,102,102);fill-rule:nonzero;"/>
</svg>
