<?xml version="1.0" encoding="UTF-8" standalone="no"?>
<!DOCTYPE svg PUBLIC "-//W3C//DTD SVG 1.1//EN" "http://www.w3.org/Graphics/SVG/1.1/DTD/svg11.dtd">
<svg width="100%" height="100%" viewBox="0 0 36 36" version="1.1" xmlns="http://www.w3.org/2000/svg" xmlns:xlink="http://www.w3.org/1999/xlink" xml:space="preserve" xmlns:serif="http://www.serif.com/" style="fill-rule:evenodd;clip-rule:evenodd;stroke-linejoin:round;stroke-miterlimit:2;">
    <g transform="matrix(1,0,0,1,2,0)">
        <path d="M21.163,4.879C20.492,4.879 19.836,5.036 19.203,5.327L17.025,34.449C22.828,37.062 30.975,34.083 30.975,25.65C30.975,25.42 31,25.192 31,24.966C30.999,15.041 26.596,4.879 21.163,4.879Z" style="fill:rgb(201,157,113);fill-rule:nonzero;"/>
    </g>
    <g transform="matrix(1,0,0,1,2,0)">
        <path d="M12.093,0C5.695,0 0.51,11.787 0.51,23.302C0.51,39.246 23.648,39.282 23.648,24.094C23.648,23.826 23.678,23.563 23.678,23.302C23.678,11.787 18.491,0 12.093,0Z" style="fill:rgb(251,206,157);fill-rule:nonzero;"/>
    </g>
    <g transform="matrix(1,0,0,1,2,0)">
        <path d="M11.485,32.325C11.475,32.325 11.466,32.325 11.455,32.324C8.952,32.205 6.619,30.815 4.89,28.412C4.694,28.139 4.756,27.757 5.029,27.561C5.302,27.363 5.683,27.425 5.88,27.7C7.388,29.796 9.387,31.006 11.512,31.106C11.85,31.122 12.109,31.408 12.093,31.745C12.077,32.071 11.807,32.325 11.485,32.325Z" style="fill:rgb(201,157,113);fill-rule:nonzero;"/>
    </g>
    <g transform="matrix(1,0,0,1,2,0)">
        <path d="M4.165,26.225C4.008,26.225 3.853,26.166 3.734,26.047C2.945,25.258 2.945,24.247 2.945,23.176C2.945,22.839 3.218,22.566 3.555,22.566C3.891,22.566 4.165,22.839 4.165,23.176C4.165,24.213 4.183,24.773 4.596,25.184C4.835,25.423 4.835,25.808 4.596,26.047C4.476,26.166 4.322,26.225 4.165,26.225Z" style="fill:rgb(201,157,113);fill-rule:nonzero;"/>
    </g>
</svg>
