<?xml version="1.0" encoding="UTF-8" standalone="no"?>
<!DOCTYPE svg PUBLIC "-//W3C//DTD SVG 1.1//EN" "http://www.w3.org/Graphics/SVG/1.1/DTD/svg11.dtd">
<svg width="100%" height="100%" viewBox="0 0 36 36" version="1.1" xmlns="http://www.w3.org/2000/svg" xmlns:xlink="http://www.w3.org/1999/xlink" xml:space="preserve" xmlns:serif="http://www.serif.com/" style="fill-rule:evenodd;clip-rule:evenodd;stroke-linejoin:round;stroke-miterlimit:2;">
    <g transform="matrix(1,0,0,1,1,0)">
        <path d="M20.952,19.604C12.216,25.409 2.595,21.707 0,11.545C8.735,5.742 18.357,9.442 20.952,19.604Z" style="fill:rgb(95,149,72);fill-rule:nonzero;"/>
    </g>
    <g transform="matrix(1,0,0,1,1,0)">
        <path d="M20.603,18.864L13.848,16.266L11.522,11.031L10.488,11.49L12.355,15.692L10.569,15.004L8.646,10.679L7.612,11.138L9.076,14.431L7.29,13.744L5.973,10.779L4.939,11.239L5.796,13.17L3.136,12.146L2.73,13.202L5.391,14.225L3.461,15.083L3.92,16.117L6.884,14.799L8.67,15.486L5.378,16.949L5.838,17.984L10.163,16.061L11.95,16.748L7.749,18.615L8.209,19.648L13.442,17.322L20.197,19.92L20.603,18.864Z" style="fill:rgb(104,163,79);fill-rule:nonzero;"/>
    </g>
    <g transform="matrix(1,0,0,1,1,0)">
        <path d="M19.749,22.516C9.469,20.443 5.282,11.021 10.632,2C20.911,4.074 25.098,13.496 19.749,22.516Z" style="fill:rgb(126,180,87);fill-rule:nonzero;"/>
    </g>
    <g transform="matrix(1,0,0,1,1,0)">
        <path d="M17.087,15.133L19.143,9.786L18.088,9.38L16.437,13.67L15.66,11.921L17.359,7.502L16.303,7.096L15.01,10.459L14.234,8.711L15.398,5.684L14.343,5.277L13.584,7.249L12.427,4.644L11.393,5.103L12.551,7.708L10.579,6.951L10.174,8.006L13.202,9.171L13.979,10.919L10.615,9.625L10.209,10.681L14.628,12.382L15.405,14.13L11.115,12.48L10.708,13.536L16.054,15.592L18.993,22.206L20.027,21.747L17.087,15.133Z" style="fill:rgb(136,194,94);fill-rule:nonzero;"/>
    </g>
    <g transform="matrix(1,0,0,1,1,0)">
        <path d="M24.174,2.396L23.779,2.001L23.383,2.394C22.477,3.273 21.415,3.976 20.252,4.466C16.693,6.034 14.168,9.901 14.168,14.44C14.168,20.373 18.471,25.184 23.779,25.184C29.087,25.184 33.39,20.374 33.39,14.44C33.39,9.901 30.866,6.034 27.302,4.466C26.14,3.976 25.079,3.274 24.174,2.396Z" style="fill:rgb(149,87,58);fill-rule:nonzero;"/>
    </g>
    <g transform="matrix(1,0,0,1,1,0)">
        <path d="M31.003,7.378C27.895,15.717 21.063,19.529 16.328,21.221C18.03,23.665 20.803,25.14 23.78,25.183C29.089,25.183 33.391,20.373 33.391,14.44C33.409,11.885 32.568,9.398 31.003,7.378Z" style="fill:rgb(143,77,46);fill-rule:nonzero;"/>
    </g>
    <g transform="matrix(1,0,0,1,1,0)">
        <path d="M15.863,16.136C15.344,16.136 14.825,16.171 14.31,16.239C15.08,21.314 19.02,25.183 23.779,25.183C24.719,25.181 25.654,25.027 26.545,24.726C25.974,19.898 21.412,16.136 15.863,16.136Z" style="fill:rgb(143,77,46);fill-rule:nonzero;"/>
    </g>
    <g transform="matrix(1,0,0,1,1,0)">
        <rect x="23.213" y="4.827" width="1.13" height="7.916" style="fill:rgb(122,59,29);fill-rule:nonzero;"/>
    </g>
    <g transform="matrix(1,0,0,1,1,0)">
        <rect x="23.213" y="13.874" width="1.13" height="2.262" style="fill:rgb(122,59,29);fill-rule:nonzero;"/>
    </g>
    <g transform="matrix(1,0,0,1,1,0)">
        <rect x="23.213" y="17.267" width="1.13" height="5.654" style="fill:rgb(122,59,29);fill-rule:nonzero;"/>
    </g>
    <g transform="matrix(1,0,0,1,1,0)">
        <path d="M20.972,5.809C19.447,11.461 19.447,17.418 20.972,23.072L22.062,22.772C20.59,17.315 20.59,11.566 22.062,6.109L20.972,5.809Z" style="fill:rgb(122,59,29);fill-rule:nonzero;"/>
    </g>
    <g transform="matrix(1,0,0,1,1,0)">
        <path d="M16.406,14.427L17.537,14.451C17.593,11.787 18.385,9.573 19.142,8.559L18.238,7.881C17.178,9.294 16.46,11.863 16.406,14.427Z" style="fill:rgb(122,59,29);fill-rule:nonzero;"/>
    </g>
    <g transform="matrix(1,0,0,1,1,0)">
        <path d="M25.494,6.108C26.966,11.565 26.966,17.314 25.494,22.771L26.585,23.071C28.11,17.418 28.11,11.461 26.585,5.808L25.494,6.108Z" style="fill:rgb(122,59,29);fill-rule:nonzero;"/>
    </g>
    <g transform="matrix(1,0,0,1,1,0)">
        <path d="M30.768,11.479L29.67,11.747C30.364,14.686 29.9,17.779 28.373,20.384L29.359,20.936C31.028,18.082 31.532,14.695 30.768,11.479Z" style="fill:rgb(122,59,29);fill-rule:nonzero;"/>
    </g>
    <g transform="matrix(1,0,0,1,1,0)">
        <path d="M30.42,10.297C30.137,9.482 29.782,8.695 29.359,7.943L28.373,8.495C28.763,9.189 29.09,9.914 29.351,10.666L30.42,10.297Z" style="fill:rgb(122,59,29);fill-rule:nonzero;"/>
    </g>
    <g transform="matrix(1,0,0,1,1,0)">
        <path d="M0.429,24.79L0.033,25.183L0.426,25.579C1.305,26.484 2.008,27.547 2.498,28.709C4.066,32.27 7.931,34.795 12.471,34.795C18.403,34.795 23.213,30.492 23.213,25.183C23.213,19.873 18.403,15.57 12.471,15.57C7.931,15.57 4.065,18.095 2.498,21.658C2.008,22.822 1.307,23.884 0.429,24.79Z" style="fill:rgb(163,101,72);fill-rule:nonzero;"/>
    </g>
    <g transform="matrix(1,0,0,1,1,0)">
        <path d="M21.216,19.614C17.423,26.452 8.76,28.92 3.125,29.88C5.193,33.012 8.72,34.867 12.471,34.795C18.404,34.795 23.213,30.492 23.213,25.183C23.203,23.154 22.498,21.189 21.216,19.614Z" style="fill:rgb(149,87,58);fill-rule:nonzero;"/>
    </g>
    <g transform="matrix(1,0,0,1,1,0)">
        <path d="M18.692,25.183C19.322,25.183 19.909,24.863 20.253,24.335C20.597,23.807 20.651,23.14 20.396,22.564C19.177,19.801 16.084,17.833 12.472,17.833C8.992,17.833 5.816,19.737 4.569,22.57L4.557,22.6L4.546,22.625C4.309,23.198 4.376,23.852 4.723,24.367C5.069,24.881 5.65,25.188 6.27,25.184L18.692,25.184L18.692,25.183Z" style="fill:rgb(255,181,49);fill-rule:nonzero;"/>
    </g>
    <g transform="matrix(1,0,0,1,1,0)">
        <path d="M18.855,25.182C19.486,25.184 20.072,25.504 20.415,26.031C20.758,26.56 20.812,27.226 20.557,27.802C19.34,30.566 16.249,32.533 12.636,32.533C9.155,32.533 5.979,30.63 4.733,27.797L4.719,27.766L4.709,27.741C4.472,27.168 4.538,26.513 4.885,25.998C5.233,25.484 5.814,25.177 6.435,25.182L18.855,25.182L18.855,25.182Z" style="fill:rgb(255,169,18);fill-rule:nonzero;"/>
    </g>
    <g transform="matrix(1,0,0,1,1,0)">
        <path d="M18.415,23.002L17.002,22.154C16.431,21.814 15.774,21.654 15.111,21.694C15.101,21.694 15.092,21.687 15.082,21.686L14.403,21.648C13.929,21.643 13.499,21.372 13.288,20.948C13.092,20.584 13.121,20.14 13.364,19.804C13.731,19.299 14.203,19.082 15.526,19.47C15.823,19.55 16.129,19.379 16.216,19.084C16.302,18.79 16.138,18.479 15.845,18.386C14.743,18.061 13.509,17.889 12.596,18.955C12.446,18.71 12.241,18.501 11.999,18.345C11.325,17.991 10.532,17.937 9.815,18.196C9.521,18.302 9.369,18.626 9.474,18.919C9.58,19.214 9.903,19.366 10.198,19.261C10.59,19.118 11.024,19.134 11.405,19.307C11.703,19.546 11.876,19.908 11.874,20.291C11.921,20.54 11.883,20.798 11.765,21.022C11.465,21.482 10.747,21.554 10.055,21.625C9.857,21.645 9.666,21.664 9.49,21.691C8.943,21.715 8.411,21.874 7.942,22.154L6.528,23.002C6.261,23.163 6.174,23.51 6.334,23.778C6.495,24.047 6.842,24.133 7.111,23.972L8.524,23.124C9.214,22.709 10.078,22.709 10.769,23.124C11.818,23.754 13.129,23.754 14.178,23.124C14.869,22.709 15.732,22.709 16.422,23.124L17.836,23.972C18.104,24.133 18.451,24.047 18.612,23.778C18.772,23.511 18.686,23.163 18.419,23.002L18.415,23.002ZM11.857,22.375C12.116,22.251 12.347,22.075 12.535,21.856C12.691,22.056 12.876,22.23 13.085,22.373C12.685,22.491 12.259,22.492 11.859,22.375L11.857,22.375Z" style="fill:rgb(247,153,0);fill-rule:nonzero;"/>
    </g>
    <g transform="matrix(1,0,0,1,1,0)">
        <path d="M18.772,26.588C18.695,26.459 18.57,26.366 18.424,26.33C18.279,26.294 18.125,26.317 17.996,26.395L16.582,27.243C15.892,27.658 15.029,27.658 14.338,27.243C13.289,26.613 11.978,26.613 10.929,27.243C10.238,27.658 9.375,27.658 8.684,27.243L7.271,26.395C7.003,26.233 6.656,26.32 6.495,26.588C6.334,26.855 6.421,27.203 6.688,27.364L8.102,28.212C8.572,28.492 9.105,28.651 9.652,28.674C9.83,28.702 10.02,28.721 10.217,28.741C10.91,28.812 11.631,28.884 11.926,29.344C12.044,29.569 12.083,29.826 12.036,30.075C12.037,30.458 11.865,30.82 11.566,31.06C11.186,31.232 10.755,31.249 10.362,31.107C10.069,31 9.744,31.152 9.638,31.446C9.532,31.739 9.683,32.063 9.977,32.17C10.298,32.28 10.636,32.338 10.976,32.339C11.393,32.347 11.803,32.238 12.161,32.023C12.404,31.867 12.608,31.658 12.758,31.411C13.202,31.948 13.868,32.251 14.564,32.231C15.054,32.217 15.54,32.133 16.006,31.982C16.205,31.929 16.357,31.772 16.408,31.573C16.457,31.374 16.396,31.164 16.246,31.023C16.096,30.883 15.882,30.835 15.687,30.897C14.365,31.285 13.892,31.067 13.525,30.564C13.283,30.229 13.253,29.784 13.45,29.42C13.668,28.988 14.111,28.716 14.595,28.719L15.243,28.682C15.253,28.682 15.262,28.675 15.273,28.674C15.935,28.715 16.593,28.554 17.162,28.214L18.577,27.366C18.707,27.289 18.8,27.164 18.837,27.017C18.873,26.872 18.85,26.717 18.772,26.588ZM12.022,27.99C12.424,27.871 12.852,27.871 13.253,27.99C13.043,28.132 12.857,28.306 12.702,28.506C12.513,28.289 12.281,28.114 12.022,27.99Z" style="fill:rgb(245,148,22);fill-rule:nonzero;"/>
    </g>
    <g transform="matrix(1,0,0,1,1,0)">
        <path d="M18.853,25.748L5.686,25.748C5.374,25.748 5.121,25.494 5.121,25.183C5.121,24.871 5.374,24.617 5.686,24.617L18.853,24.617C19.165,24.617 19.418,24.871 19.418,25.183C19.419,25.494 19.165,25.748 18.853,25.748Z" style="fill:rgb(247,153,0);fill-rule:nonzero;"/>
    </g>
</svg>
