<?xml version="1.0" encoding="UTF-8" standalone="no"?>
<!DOCTYPE svg PUBLIC "-//W3C//DTD SVG 1.1//EN" "http://www.w3.org/Graphics/SVG/1.1/DTD/svg11.dtd">
<svg width="100%" height="100%" viewBox="0 0 36 36" version="1.1" xmlns="http://www.w3.org/2000/svg" xmlns:xlink="http://www.w3.org/1999/xlink" xml:space="preserve" xmlns:serif="http://www.serif.com/" style="fill-rule:evenodd;clip-rule:evenodd;stroke-linejoin:round;stroke-miterlimit:2;">
    <g>
        <path d="M0.642,16.047C0.799,15.86 1.046,15.692 1.279,15.619C1.452,15.564 1.631,15.487 1.806,15.416C2.077,15.308 2.559,15.081 2.843,15.232C3.269,15.459 3.058,16.163 2.904,16.49C2.754,16.808 2.621,17.186 2.362,17.44C2.203,17.595 2.038,17.718 1.814,17.717C1.697,17.716 1.602,17.725 1.502,17.679C1.399,17.631 1.308,17.568 1.215,17.504C0.935,17.315 0.642,17.034 0.469,16.739C0.289,16.433 0.45,16.274 0.642,16.047Z" style="fill:rgb(31,125,189);fill-rule:nonzero;"/>
        <path d="M35.522,16.223C35.53,16.083 35.509,16.028 35.439,15.913C35.238,15.586 34.821,15.494 34.47,15.443C34.312,15.421 34.028,15.389 33.878,15.435C33.729,15.48 33.7,15.645 33.689,15.782C33.66,16.153 33.747,16.378 33.914,16.705C34.05,16.974 34.357,17.175 34.663,17.169C35.175,17.155 35.5,16.697 35.522,16.223Z" style="fill:rgb(31,125,189);fill-rule:nonzero;"/>
        <path d="M35.999,16.044C35.847,15.702 35.265,15.483 34.951,15.363C34.228,15.085 33.419,14.964 32.648,14.944C32.392,14.936 31.852,15.315 32.351,15.328C33.021,15.346 33.726,15.466 34.356,15.7C34.576,15.782 35.286,15.961 35.388,16.191C35.494,16.428 36.056,16.324 35.966,16.123L35.999,16.044Z" style="fill:rgb(24,109,168);fill-rule:nonzero;"/>
        <path d="M0.73,16.283C1.118,15.868 2.517,15.481 3.027,15.389C3.933,15.225 4.881,15.079 5.803,15.105C6.082,15.113 6.592,14.701 6.09,14.686C4.879,14.651 3.596,14.834 2.422,15.129C1.765,15.294 0.749,15.665 0.27,16.176C0.355,16.673 0.401,16.597 0.73,16.283Z" style="fill:rgb(24,109,168);fill-rule:nonzero;"/>
        <path d="M34.946,16.746C34.849,16.276 34.568,15.791 34.002,15.871C33.914,14.814 34.519,14.437 33.517,13.927C33.24,13.786 32.961,14.097 32.698,13.795C32.345,13.39 32.836,12.692 32.588,12.308C32.261,11.803 31.752,12.25 31.294,11.969C30.596,11.538 31.359,10.266 30.434,10.074C30.081,10.001 29.437,10.309 29.149,10.079C28.811,9.809 29.084,9.136 28.808,8.807C28.443,8.37 28.376,8.631 27.852,8.692C27.542,8.729 26.939,8.985 26.606,8.811C26.107,8.549 26.226,7.896 25.659,7.608C25.125,7.336 24.704,7.492 24.295,7C24.12,6.789 23.927,6.522 23.634,6.457C23.335,6.39 22.94,6.515 22.674,6.357C22.414,6.202 22.554,5.929 22.472,5.695C22.381,5.437 22.173,5.333 21.909,5.271C20.7,4.987 20.818,5.929 20.089,6.208C19.291,6.515 18.791,5.501 18.266,5.271C17.737,5.041 17.1,4.907 16.542,5.077C15.88,5.278 15.594,5.934 14.777,5.652C14.455,5.542 14.414,5.177 14.043,5.102C12.671,4.819 12.949,6.61 11.939,6.992C11.368,7.207 10.718,6.805 10.19,7.157C9.63,7.531 9.717,8.155 9.063,8.426C8.472,8.671 7.946,8.354 7.412,8.809C6.92,9.231 7.015,9.709 6.745,10.198C6.09,11.379 4.411,11.132 4.817,12.733C4.932,13.189 5.439,13.464 5.104,13.968C4.661,14.632 3.725,13.948 3.139,14.19C2.749,14.35 2.654,14.615 2.658,15.008C2.663,15.464 2.718,15.755 2.603,16.198C2.319,16.372 1.907,16.218 1.625,16.401C1.245,16.65 1.234,17.245 1.234,17.638L7.978,22.132L21.015,20.666L28.747,19.965L34.946,16.746Z" style="fill:rgb(247,247,247);fill-rule:nonzero;"/>
        <path d="M33.513,18.86C32.294,19.802 30.807,20.099 29.332,20.397C28.715,20.523 28.14,20.7 27.541,20.885C26.871,21.093 26.183,21.065 25.506,21.22C24.641,21.419 23.786,21.445 22.896,21.506C18.565,21.805 14.238,21.632 9.893,21.498C8.798,21.464 7.554,21.015 6.502,20.695C5.302,20.33 4.135,19.855 3.032,19.257C2.563,19.003 2.002,18.702 1.584,18.4C1.218,18.136 0.945,17.358 1.487,17.21C1.889,17.102 2.431,17.607 2.773,17.778C3.327,18.057 4.018,18.401 4.645,18.541C5.332,18.694 6.28,18.424 6.945,18.687C7.308,18.831 7.375,19.034 7.866,19.008C8.277,18.987 8.618,18.831 9.017,18.817C9.623,18.795 9.825,19.233 10.348,19.403C10.597,19.484 10.902,19.415 11.173,19.439C11.563,19.472 11.559,19.619 11.845,19.726C12.38,19.927 12.775,19.457 13.331,19.486C13.88,19.515 14.314,19.815 14.827,19.956C15.466,20.133 16.018,19.93 16.637,19.773C17.384,19.584 17.965,19.989 18.699,19.869C19.326,19.766 19.844,19.43 20.567,19.532C21.199,19.621 21.837,19.784 22.476,19.651C22.891,19.566 23.235,19.157 23.683,19.2C24.382,19.266 24.699,19.703 25.388,19.302C25.828,19.047 26.016,18.991 26.503,18.979C26.911,18.97 27.149,18.839 27.24,18.422C27.356,17.887 27.452,17.921 27.978,17.861C28.558,17.796 28.317,17.558 28.506,17.125C28.568,16.982 28.689,16.863 28.778,16.741C29.064,16.353 29.395,16.277 29.843,16.206C30.076,16.17 30.429,16.04 30.328,15.721C30.244,15.456 29.847,15.493 29.842,15.162C29.835,14.757 30.233,14.912 30.432,14.699C30.694,14.42 30.432,14.222 30.238,14.029C30.025,13.819 29.857,13.628 29.912,13.268C29.982,12.803 30.481,12.666 30.172,12.165C30.102,12.052 29.89,11.819 29.774,11.755C29.595,11.655 29.373,11.716 29.209,11.575C29.013,11.408 29.194,11.068 29.17,10.864C29.134,10.554 28.899,10.457 28.751,10.183C28.573,9.851 28.716,9.559 28.592,9.253C28.436,8.868 27.991,8.813 27.656,8.675C27.98,8.499 28.704,8.563 28.902,8.93C29.066,9.234 28.894,9.622 29.115,9.919C29.475,10.4 30.198,9.932 30.658,10.279C31.007,10.541 30.874,10.796 30.93,11.199C30.976,11.517 31.189,11.825 31.494,11.936C31.785,12.042 32.192,11.973 32.429,12.216C32.663,12.457 32.618,12.881 32.618,13.197C32.617,13.635 32.754,13.781 33.182,13.84C33.695,13.91 34.007,14.075 34.095,14.669C34.161,15.11 33.921,15.403 33.96,15.821C34.15,15.9 34.44,15.942 34.606,16.062C34.774,16.182 34.891,16.382 34.968,16.57C35.12,16.943 35.15,17.439 34.911,17.783C34.584,18.256 33.958,18.517 33.513,18.86Z" style="fill:rgb(227,227,227);fill-rule:nonzero;"/>
        <path d="M34.415,22.449C35.176,20.674 36.038,18.237 35.675,16.281C34.259,17.097 33.063,17.914 31.496,18.426C29.386,19.114 27.226,19.557 25.054,19.995C24.621,20.082 24.156,20.022 23.715,20.089C22.458,20.281 21.165,20.339 19.893,20.473C19.045,20.563 18.213,20.515 17.363,20.506C16.696,20.499 16.045,20.367 15.377,20.362C14.9,20.358 14.406,20.398 13.925,20.41C12.8,20.441 11.673,20.488 10.551,20.377C9.352,20.259 8.168,20.028 6.987,19.793C5.98,19.592 4.935,19.314 4.005,18.885C3.481,18.644 2.934,18.383 2.395,18.18C1.891,17.992 1.455,17.778 1.082,17.375C0.995,17.281 0.36,16.636 0.365,16.548C0.274,18.128 0.723,20.058 1.32,21.512C1.45,21.828 1.548,22.096 1.622,22.423C1.98,23.997 2.898,25.271 3.89,26.532C4.471,27.272 4.896,28.017 5.635,28.637C6.639,29.48 7.829,30.176 8.954,30.847C9.769,31.332 10.54,31.552 11.399,31.882C11.863,32.061 12.325,32.123 12.821,32.257C13.758,32.511 14.75,32.511 15.711,32.606C17.453,32.778 19.111,32.675 20.84,32.508C21.613,32.434 22.441,32.26 23.19,32.064C23.829,31.896 24.531,31.839 25.116,31.506C25.992,31.009 26.955,30.692 27.851,30.236C29.356,29.471 30.624,28.279 31.677,26.978C32.789,25.601 33.718,24.072 34.415,22.449Z" style="fill:rgb(54,153,221);fill-rule:nonzero;"/>
        <path d="M11.507,30.76C12.298,30.892 13.1,30.993 13.857,30.993C18.291,30.994 22.62,30.084 26.179,27.267C27.943,25.867 29.769,23.805 30.666,21.75C31.208,20.509 31.747,18.782 32.019,18.19C33.21,18.19 34.95,16.761 35.866,16.116C35.793,16.168 35.648,17.496 35.623,17.672C35.543,18.248 35.418,18.818 35.324,19.391C35.156,20.398 34.891,21.221 34.452,22.148C33.758,23.611 33.144,24.922 32.282,26.291C31.454,27.604 30.271,28.474 29.067,29.403C28.57,29.787 28.154,30.135 27.6,30.423C25.566,31.478 23.146,31.955 20.954,32.395C20.324,32.522 19.757,32.588 19.099,32.588C17.294,32.588 15.431,32.843 13.653,32.411C12.17,32.049 10.86,31.862 9.448,31.247C8.506,30.838 6.716,29.912 6.328,28.898C7.451,30.068 9.964,30.502 11.507,30.76Z" style="fill:rgb(31,125,189);fill-rule:nonzero;"/>
        <path d="M13.793,28.544C15.756,28.373 17.647,27.699 19.33,26.583C20.47,25.827 21.717,24.725 21.72,23.217C21.721,21.708 20.223,22.157 19.23,22.181C17.264,22.23 15.297,22.405 13.331,22.256C11.645,22.129 9.967,21.903 8.307,21.579C6.948,21.315 5.591,20.915 4.273,20.494C3.827,20.352 2.905,20.122 2.594,20.585C2.181,21.201 2.668,22.615 3.013,23.167C3.642,24.172 4.609,25.135 5.473,25.943C6.786,27.17 8.5,27.907 10.239,28.3C11.429,28.568 12.623,28.645 13.793,28.544Z" style="fill:rgb(94,190,255);fill-rule:nonzero;"/>
        <path d="M12.841,11.358C13.121,11.163 13.252,10.901 13.579,10.793C14.276,10.564 15.23,11.356 14.53,11.98C14.078,12.383 13.765,12.388 13.629,13.079C13.514,13.663 13.583,14.13 12.899,14.274C12.28,14.403 12.045,13.978 11.521,13.832C10.916,13.663 10.717,14.273 10.079,14.169C9.776,13.388 8.225,14.519 7.589,14.217C7.318,14.087 6.925,13.386 7.052,13.078C7.186,12.749 7.641,12.916 7.893,12.883C8.311,12.828 8.477,12.681 8.743,12.358C9.018,12.025 9.27,11.85 9.736,11.883C10.065,11.905 10.45,12.206 10.78,12.112C11.109,12.019 11.345,11.734 11.67,11.622C12.057,11.491 12.489,11.603 12.841,11.358Z" style="fill:white;fill-rule:nonzero;"/>
        <path d="M20.036,7.465C20.544,7.442 20.493,7.775 20.879,8.028C21.356,8.342 21.382,8.015 21.789,7.826C22.283,7.596 22.396,8.024 22.698,8.28C23.009,8.543 23.303,8.508 23.717,8.506C24.182,8.505 24.395,8.587 24.723,8.926C24.918,9.127 25.339,9.621 25.062,9.907C24.484,10.502 23.395,9.415 22.766,9.519C22.56,9.815 22.333,10.427 21.799,10.275C21.278,10.128 21.344,9.545 20.649,9.511C20.381,9.498 20.079,9.479 19.833,9.57C19.602,9.657 19.448,9.884 19.213,9.942C18.671,10.074 18.109,9.627 18.164,9.089C18.182,8.912 19.085,8.88 19.24,8.708C19.638,8.267 19.081,7.509 20.036,7.465Z" style="fill:white;fill-rule:nonzero;"/>
        <path d="M22.093,15.264L22.159,15.264C22.765,15.265 22.879,15.069 23.15,14.587C23.496,13.972 23.995,14.122 24.403,14.605C24.784,15.055 24.817,15.029 25.456,15.073C25.93,15.106 25.964,15.522 26.258,15.789C26.523,16.032 27.112,16.069 26.989,16.555C26.867,17.04 25.788,16.986 25.416,16.95C24.773,16.888 24.326,16.242 23.815,16.927C23.442,17.427 23.228,17.541 22.633,17.313C21.941,17.048 21.836,17.403 21.142,17.464C20.633,17.509 20.076,17.455 20.183,16.795C20.249,16.385 20.581,16.441 20.836,16.208C21.42,15.673 21.178,15.28 22.093,15.264Z" style="fill:white;fill-rule:nonzero;"/>
        <path d="M35.643,16.275C35.608,16.264 35.699,16.211 36.001,16.045C35.969,16.943 35.497,19.933 34.981,21.47C33.859,24.464 31.54,29.111 26.382,31.298C21.384,33.355 14.854,33.784 9.067,31.264C3.371,28.41 0.299,21.761 0.267,16.26C0.249,16.249 0.393,16.159 0.482,16.81C0.542,18.555 1.041,20.867 2.139,23.519C4.154,27.261 8.761,32.422 15.293,32.256C21.407,32.925 28.308,31.101 31.548,26.727C34.97,22.565 35.774,18.119 35.643,16.275Z" style="fill:rgb(24,109,168);fill-rule:nonzero;"/>
        <path d="M1.246,17.526C1.239,17.53 1.23,17.532 1.22,17.532C1.129,17.534 1.156,17.332 1.166,17.269C1.196,17.089 1.22,16.902 1.301,16.737C1.426,16.483 1.675,16.315 1.95,16.274C2.056,16.257 2.163,16.265 2.269,16.251C2.406,16.232 2.503,16.169 2.573,16.049C2.746,15.756 2.61,15.344 2.635,15.019C2.651,14.785 2.708,14.536 2.86,14.351C3.04,14.133 3.319,14.071 3.591,14.096C3.985,14.113 4.414,14.284 4.779,14.133C5.167,13.959 5.209,13.487 4.888,13.127C4.625,12.705 4.548,12.118 4.846,11.631C5.185,11.169 5.716,10.993 6.103,10.674C6.534,10.366 6.716,9.947 6.849,9.362C6.994,8.756 7.713,8.272 8.337,8.329C8.947,8.32 9.298,8.118 9.576,7.523C9.847,6.832 10.867,6.667 11.401,6.799C11.995,6.867 12.278,6.452 12.543,5.823C12.598,5.695 12.625,5.571 12.705,5.452C12.791,5.32 12.901,5.204 13.025,5.105C13.282,4.899 13.612,4.769 13.945,4.804C14.13,4.823 14.318,4.887 14.463,5.002C14.604,5.114 14.694,5.268 14.86,5.355C15.183,5.524 15.523,5.329 15.791,5.143C15.836,5.111 15.88,5.078 15.925,5.045C16.602,4.556 17.513,4.656 18.196,4.912C18.524,5.035 18.798,5.252 19.056,5.484C19.232,5.645 19.427,5.87 19.667,5.93C19.807,5.965 19.932,5.977 20.052,5.894C20.126,5.844 20.187,5.775 20.244,5.709C20.4,5.53 20.546,5.341 20.732,5.191C20.993,4.981 21.31,4.88 21.646,4.913C22.029,4.919 22.602,5.103 22.792,5.676C22.821,5.764 22.794,5.871 22.825,5.962C22.869,6.094 22.975,6.083 23.088,6.121C23.365,6.053 24.005,6.172 24.296,6.527C24.513,6.79 24.791,7.121 25.165,7.091C25.512,7.062 25.871,7.391 26.088,7.624C26.224,7.77 26.346,7.929 26.459,8.093C26.519,8.181 26.576,8.282 26.623,8.377C26.759,8.65 27.07,8.573 27.312,8.517C27.655,8.439 27.994,8.355 28.347,8.35C28.529,8.347 28.705,8.35 28.846,8.481C28.984,8.609 29.085,8.788 29.146,8.963C29.238,9.229 29.207,9.497 29.255,9.767C29.293,9.982 29.466,9.963 29.639,9.9C29.933,9.894 30.413,9.698 30.854,10.017C31.265,10.423 31.135,10.881 31.17,11.195C31.193,11.402 31.168,11.597 31.333,11.75C31.445,11.854 31.621,11.859 31.764,11.876C31.952,11.899 32.145,11.9 32.325,11.963C32.702,12.093 32.805,12.456 32.795,12.821C32.793,12.841 32.793,12.86 32.792,12.88C32.784,13.034 32.757,13.186 32.743,13.339C32.733,13.445 32.721,13.571 32.778,13.668C32.838,13.772 32.963,13.8 33.076,13.807C33.335,13.754 33.603,13.801 33.811,13.97C34.017,14.139 34.139,14.397 34.175,14.657C34.194,14.788 34.192,14.922 34.165,15.051C34.131,15.217 34.065,15.356 34.058,15.531C34.056,15.617 34.035,15.695 34.088,15.775C34.137,15.848 34.22,15.876 34.303,15.885C34.488,15.908 34.634,15.998 34.755,16.138C34.829,16.224 35.141,16.648 34.938,16.75C34.924,16.757 34.913,16.572 34.753,16.297C34.684,16.153 34.546,16.021 34.394,15.969C34.273,15.926 34.117,15.964 34.006,15.895C33.909,15.834 33.951,15.612 33.96,15.518C33.977,15.295 34.067,15.092 34.061,14.865C34.054,14.63 33.989,14.382 33.829,14.204C33.633,13.985 33.335,13.94 33.057,13.989C31.82,13.796 33.316,11.726 31.711,12.172C30.986,12.26 30.766,11.347 30.821,10.857C30.858,10.202 30.333,10.108 29.688,10.287C28.669,10.551 28.838,9.127 28.674,8.907C28.445,8.475 27.583,9.083 26.927,9.055C25.888,8.952 26.023,7.775 25.408,7.737C24.777,7.769 23.929,6.948 23.622,6.706C23.533,6.654 23.421,6.663 23.323,6.669C23.189,6.677 23.057,6.687 22.924,6.668C22.725,6.64 22.533,6.568 22.414,6.397C22.314,6.251 22.269,6.071 22.239,5.899C22.215,5.765 22.204,5.656 22.064,5.596C21.84,5.5 21.592,5.434 21.352,5.511C21.035,5.613 20.799,5.905 20.595,6.153C20.533,6.228 20.493,6.293 20.41,6.349C20.33,6.404 20.242,6.446 20.151,6.475C19.972,6.533 19.776,6.545 19.591,6.503C19.295,6.437 19.034,6.262 18.802,6.073C18.696,5.986 18.596,5.894 18.496,5.801C18.426,5.737 18.351,5.646 18.268,5.599C17.732,5.298 16.935,5.178 16.41,5.455C16.271,5.624 16.058,5.737 15.859,5.822C15.365,6.031 14.655,6.131 14.257,5.685C14.207,5.629 14.185,5.556 14.13,5.509C14.07,5.457 13.989,5.42 13.912,5.404C13.765,5.372 13.617,5.417 13.493,5.497C13.232,5.665 13.038,5.977 12.977,6.278C12.81,7.099 11.536,7.599 10.918,7.34C10.234,7.269 10.192,7.716 9.579,8.457C8.803,9.1 7.929,8.685 7.637,9.047C7.22,9.292 7.317,10.127 6.746,10.72C6.247,11.287 5.532,11.474 5.243,11.822C4.974,12.148 5.035,12.67 5.335,13.118C5.913,13.806 4.889,14.804 4.301,14.519C3.71,14.434 3.315,14.283 3.048,14.525C2.866,14.663 2.883,14.977 2.882,15.178C2.882,15.452 2.895,15.733 2.827,16.003C2.778,16.202 2.719,16.419 2.479,16.436C2.333,16.446 2.189,16.463 2.042,16.472C1.828,16.484 1.656,16.542 1.532,16.727C1.411,16.905 1.362,17.108 1.319,17.314C1.305,17.368 1.308,17.497 1.246,17.526Z" style="fill:rgb(204,204,204);fill-rule:nonzero;"/>
        <path d="M15.439,13.711C15.385,13.614 15.393,13.428 15.407,13.339C15.435,13.153 15.563,12.926 15.736,12.836C15.799,12.804 15.897,12.776 15.968,12.763C16.081,12.742 16.183,12.71 16.298,12.71C16.434,12.71 16.611,12.693 16.714,12.599C16.896,12.432 16.887,12.185 16.967,11.967C17.058,11.722 17.228,11.531 17.469,11.426C17.746,11.304 18.102,11.218 18.391,11.345C18.539,11.41 18.662,11.537 18.777,11.645C18.845,11.71 18.914,11.782 19.008,11.806C19.267,11.967 19.946,11.372 20.736,11.885C20.807,11.93 20.87,12.08 20.91,12.153C20.953,12.231 20.99,12.311 21.021,12.394C21.067,12.516 21.096,12.644 21.122,12.771C21.169,12.996 21.25,13.161 21.47,13.261C21.76,13.393 21.916,13.755 21.958,14.053C21.998,14.346 21.948,14.641 21.897,14.929C21.889,14.935 21.884,14.803 21.884,14.792C21.881,14.66 21.869,14.529 21.844,14.4C21.806,14.211 21.722,14.055 21.659,13.877C21.603,13.723 21.498,13.674 21.36,13.591C21.245,13.523 21.133,13.447 21.03,13.362C20.802,13.174 20.601,12.92 20.602,12.612C20.48,12.098 20.084,12.203 19.478,12.365C19.179,12.467 18.713,12.425 18.403,12.129C18.285,11.969 18.095,11.849 17.886,11.854C17.758,11.857 17.688,11.932 17.603,12.015C17.488,12.126 17.455,12.255 17.389,12.397C17.304,12.581 17.193,12.751 17.066,12.91C16.792,13.062 16.494,13.143 16.18,13.127C16.084,13.121 15.977,13.095 15.882,13.108C15.738,13.127 15.613,13.264 15.557,13.389C15.501,13.512 15.487,13.621 15.477,13.756C15.461,13.745 15.449,13.729 15.439,13.711Z" style="fill:rgb(204,204,204);fill-rule:nonzero;"/>
        <path d="M7.111,15.883C7.084,15.73 7.043,15.619 7.104,15.466C7.156,15.335 7.256,15.228 7.379,15.16C7.834,14.907 8.151,15.448 8.383,15.741C8.463,15.839 8.551,15.943 8.667,16C8.718,16.026 8.773,16.04 8.831,16.039C8.984,16.038 9.126,15.986 9.264,15.923C9.371,15.873 9.475,15.817 9.584,15.773C9.719,15.72 9.861,15.684 10.006,15.677C10.2,15.668 10.404,15.697 10.571,15.802C10.66,15.857 10.714,15.931 10.78,16.008C10.853,16.092 10.931,16.167 10.996,16.26C11.103,16.411 11.229,16.552 11.44,16.49C11.609,16.441 12.197,16.554 12.316,16.901C12.469,17.184 12.498,17.369 12.605,17.587C12.76,18.029 13.103,18.25 13.568,18.381C13.603,18.322 13.014,18.541 12.468,17.939C12.299,17.79 12.202,17.572 12.094,17.381C12.01,17.232 11.918,16.995 11.709,17.02C11.254,17.076 10.581,16.938 10.414,16.453C10.176,16.076 10.006,16.295 9.391,16.486C8.87,16.717 7.972,16.441 7.862,15.81C7.828,15.617 7.661,15.411 7.449,15.447C7.23,15.483 7.177,15.702 7.111,15.883Z" style="fill:rgb(204,204,204);fill-rule:nonzero;"/>
        <path d="M24.336,11.891C24.346,11.973 24.505,12.043 24.572,12.066C24.667,12.097 24.77,12.099 24.867,12.074C25.4,11.936 25.736,11.431 26.273,11.301C26.424,11.264 26.581,11.259 26.735,11.284C26.824,11.298 26.913,11.321 26.998,11.352C27.225,11.431 27.36,11.55 27.457,11.771C27.511,11.894 27.51,12.042 27.565,12.159C27.625,12.284 27.786,12.359 27.906,12.409C28.145,12.452 28.381,12.593 28.575,12.73C28.721,12.834 28.86,12.954 28.961,13.103C29.012,13.179 29.052,13.262 29.072,13.351C29.094,13.444 29.089,13.521 29.152,13.603C29.208,13.675 29.294,13.691 29.378,13.716C29.496,13.751 29.609,13.763 29.722,13.819C29.883,13.896 30.104,14.043 30.089,14.248C30.189,14.858 30.014,15.204 30.633,15.258C30.759,15.25 29.85,15.46 29.853,14.556C29.828,14.455 29.798,14.335 29.717,14.263C29.645,14.2 29.543,14.185 29.453,14.171C29.38,14.159 29.307,14.149 29.234,14.137C29.155,14.124 29.089,14.092 29.012,14.073C28.84,14.029 28.76,13.898 28.662,13.757C28.595,13.661 28.541,13.557 28.485,13.455C28.391,13.283 28.272,13.132 28.064,13.103C27.711,13.055 26.826,12.598 26.866,11.955C26.915,11.685 26.527,11.758 26.176,11.859C25.565,12.172 24.429,12.593 24.336,11.891Z" style="fill:rgb(204,204,204);fill-rule:nonzero;"/>
        <path d="M10.283,10.371C10.279,10.352 10.549,10.466 10.948,10.399C11.385,10.309 11.494,9.792 12.003,9.175C12.571,8.608 13.722,8.706 14.239,8.781C14.493,8.787 14.723,8.534 15.144,8.328C15.648,8.067 16.009,8.513 16.285,8.627C16.3,8.701 15.868,8.446 15.434,8.532C15.426,8.534 15.411,8.554 15.405,8.561C15.113,8.835 14.791,9.091 14.418,9.244C14.197,9.334 13.957,9.384 13.719,9.353C13.601,9.338 13.512,9.276 13.393,9.279C13.263,9.282 13.134,9.316 13.009,9.345C12.851,9.384 12.699,9.446 12.56,9.53C12.269,9.707 12.024,9.976 11.829,10.252C11.279,11.025 10.311,10.592 10.283,10.371Z" style="fill:rgb(204,204,204);fill-rule:nonzero;"/>
        <path d="M23.063,18.196C23.088,18.217 23.301,18.168 23.335,18.164C23.445,18.15 23.556,18.132 23.666,18.112C23.827,18.081 23.976,18.081 24.117,17.991C24.198,17.938 24.268,17.866 24.333,17.794C24.497,17.617 24.648,17.428 24.843,17.284C24.989,17.177 25.156,17.1 25.332,17.056C25.533,17.006 25.707,16.988 25.897,17.074C26.041,17.139 26.213,17.174 26.366,17.212C26.602,17.27 26.839,17.298 27.082,17.27C27.253,17.251 27.42,17.212 27.586,17.169C27.693,17.141 27.8,17.112 27.906,17.082C27.968,17.065 28.03,17.047 28.091,17.03C28.181,17.005 28.276,16.983 28.371,16.991C28.461,16.999 28.511,17.045 28.589,17.084C28.729,17.155 28.855,17.244 28.969,17.353C29.123,17.501 29.248,17.675 29.487,17.641C29.733,17.606 29.982,17.585 30.229,17.549C30.314,17.535 30.392,17.511 30.474,17.488C30.564,17.462 30.644,17.413 30.734,17.384C30.732,17.385 30.688,17.459 30.679,17.467C30.644,17.499 30.602,17.519 30.565,17.547C30.489,17.603 30.418,17.641 30.332,17.68C30.121,17.775 29.909,17.87 29.687,17.934C29.639,17.949 29.592,17.967 29.541,17.975C29.422,17.996 29.3,17.986 29.184,17.962C28.94,17.909 28.694,17.788 28.528,17.599C28.228,17.298 27.989,17.647 27.414,17.805C26.112,18.243 25.444,16.998 24.922,17.862C24.251,18.618 23.224,18.329 23.063,18.196Z" style="fill:rgb(204,204,204);fill-rule:nonzero;"/>
        <path d="M0.272,16.177C1.379,17.83 4.669,20.072 12.119,20.13C15.863,20.24 20.106,20.3 24.329,19.743C26.449,19.498 28.531,19.041 30.578,18.531C32.481,17.924 34.403,17.159 35.82,15.885C36.828,16.939 28.816,20.331 19.996,20.7C15.575,20.867 11,20.896 7.177,20.12C5.328,19.661 3.833,19.217 2.578,18.594C1.264,18.132 0.145,16.943 0.272,16.177Z" style="fill:rgb(24,109,168);fill-rule:nonzero;"/>
    </g>
</svg>
