<?xml version="1.0" encoding="UTF-8" standalone="no"?>
<!DOCTYPE svg PUBLIC "-//W3C//DTD SVG 1.1//EN" "http://www.w3.org/Graphics/SVG/1.1/DTD/svg11.dtd">
<svg width="100%" height="100%" viewBox="0 0 36 36" version="1.1" xmlns="http://www.w3.org/2000/svg" xmlns:xlink="http://www.w3.org/1999/xlink" xml:space="preserve" xmlns:serif="http://www.serif.com/" style="fill-rule:evenodd;clip-rule:evenodd;stroke-linejoin:round;stroke-miterlimit:2;">
    <g transform="matrix(1,0,0,1,1,0)">
        <path d="M21.002,22.494C21.002,28.296 16.301,33 10.501,33C4.702,33 0,28.296 0,22.494C0,16.692 4.702,3 10.501,3C16.301,3 21.002,16.692 21.002,22.494Z" style="fill:rgb(78,144,30);fill-rule:nonzero;"/>
    </g>
    <g transform="matrix(1,0,0,1,1,0)">
        <path d="M12.614,9.449C10.627,13.784 9.293,19.027 9.293,22.494C9.293,26.467 11.057,30.035 13.841,32.457C18.003,31.061 21.002,27.128 21.002,22.494C21.002,18.226 18.458,9.691 14.805,5.474C14.036,6.617 13.303,7.943 12.614,9.449Z" style="fill:rgb(71,130,28);fill-rule:nonzero;"/>
    </g>
    <g transform="matrix(1,0,0,1,1,0)">
        <path d="M10.502,30.306C6.197,30.306 2.693,26.802 2.693,22.494C2.693,20.198 3.666,15.75 5.524,11.693C7.413,7.571 9.428,5.693 10.502,5.693C11.575,5.693 13.591,7.571 15.479,11.693C17.337,15.75 18.31,20.197 18.31,22.494C18.31,26.801 14.807,30.306 10.502,30.306Z" style="fill:rgb(164,226,118);fill-rule:nonzero;"/>
    </g>
    <g transform="matrix(1,0,0,1,1,0)">
        <path d="M13.339,7.962C13.092,8.437 12.85,8.932 12.614,9.449C10.627,13.785 9.293,19.027 9.293,22.494C9.293,25.369 10.216,28.03 11.781,30.2C15.48,29.587 18.308,26.365 18.308,22.494C18.308,20.198 17.336,15.751 15.477,11.694C14.764,10.136 14.032,8.899 13.339,7.962Z" style="fill:rgb(145,220,90);fill-rule:nonzero;"/>
    </g>
    <g transform="matrix(1,0,0,1,1,0)">
        <path d="M13.949,12.396C12.626,9.509 11.416,8.154 10.777,7.631C10.531,7.452 10.341,7.538 10.211,7.644C9.568,8.177 8.366,9.533 7.055,12.395C5.316,16.192 4.377,20.433 4.377,22.495C4.377,25.874 7.125,28.622 10.502,28.622C13.879,28.622 16.627,25.873 16.627,22.495C16.627,20.433 15.689,16.192 13.949,12.396Z" style="fill:rgb(255,218,170);fill-rule:nonzero;"/>
    </g>
    <g transform="matrix(1,0,0,1,1,0)">
        <path d="M9.293,22.494C9.293,24.702 9.838,26.784 10.8,28.614C14.039,28.458 16.625,25.772 16.625,22.494C16.625,20.432 15.687,16.192 13.948,12.394C13.439,11.284 12.947,10.402 12.498,9.705C10.576,13.99 9.293,19.094 9.293,22.494Z" style="fill:rgb(255,196,119);fill-rule:nonzero;"/>
    </g>
    <g transform="matrix(1,0,0,1,1,0)">
        <path d="M10.501,26.56C12.778,26.56 14.624,24.713 14.624,22.435C14.624,20.157 12.778,18.31 10.501,18.31C8.223,18.31 6.377,20.157 6.377,22.435C6.377,24.713 8.223,26.56 10.501,26.56Z" style="fill:rgb(204,116,0);fill-rule:nonzero;"/>
    </g>
    <g transform="matrix(1,0,0,1,1,0)">
        <path d="M10.5,18.311C10.241,18.311 9.988,18.336 9.742,18.382C9.452,19.89 9.293,21.298 9.293,22.494C9.293,23.897 9.514,25.25 9.922,26.52C10.111,26.547 10.304,26.561 10.5,26.561C12.777,26.561 14.624,24.715 14.624,22.436C14.624,20.157 12.778,18.311 10.5,18.311Z" style="fill:rgb(170,97,0);fill-rule:nonzero;"/>
    </g>
    <g transform="matrix(1,0,0,1,1,0)">
        <path d="M32.988,22.494C32.988,28.296 28.287,33 22.487,33C16.688,33 11.986,28.296 11.986,22.494C11.986,16.692 16.688,3 22.487,3C28.287,3 32.988,16.692 32.988,22.494Z" style="fill:rgb(94,172,36);fill-rule:nonzero;"/>
    </g>
    <g transform="matrix(1,0,0,1,1,0)">
        <path d="M17.64,22.521C17.64,17.692 20.897,7.399 25.332,4.081C24.427,3.396 23.473,3 22.487,3C16.688,3 11.986,16.692 11.986,22.494C11.986,28.296 16.688,33 22.487,33C23.449,33 24.38,32.87 25.265,32.627C20.864,31.377 17.64,27.326 17.64,22.521Z" style="fill:rgb(78,144,30);fill-rule:nonzero;"/>
    </g>
    <g transform="matrix(1,0,0,1,1,0)">
        <path d="M22.489,23.997C23.114,23.997 23.62,23.49 23.62,22.865C23.62,22.24 23.114,21.733 22.489,21.733C21.864,21.733 21.357,22.24 21.357,22.865C21.357,23.49 21.864,23.997 22.489,23.997Z" style="fill:rgb(78,144,30);fill-rule:nonzero;"/>
    </g>
    <g transform="matrix(1,0,0,1,1,0)">
        <path d="M28.876,21.584C29.5,21.584 30.007,21.077 30.007,20.452C30.007,19.827 29.5,19.32 28.876,19.32C28.251,19.32 27.744,19.827 27.744,20.452C27.744,21.077 28.251,21.584 28.876,21.584Z" style="fill:rgb(78,144,30);fill-rule:nonzero;"/>
    </g>
    <g transform="matrix(1,0,0,1,1,0)">
        <path d="M23.62,15.798C24.245,15.798 24.751,15.291 24.751,14.666C24.751,14.041 24.245,13.534 23.62,13.534C22.995,13.534 22.488,14.041 22.488,14.666C22.488,15.291 22.995,15.798 23.62,15.798Z" style="fill:rgb(78,144,30);fill-rule:nonzero;"/>
    </g>
    <g transform="matrix(1,0,0,1,1,0)">
        <path d="M25.255,20.331C25.122,20.331 24.992,20.277 24.898,20.183C24.804,20.089 24.75,19.959 24.75,19.826C24.75,19.693 24.804,19.562 24.898,19.469C24.992,19.375 25.122,19.32 25.255,19.32C25.389,19.32 25.519,19.375 25.613,19.469C25.706,19.563 25.76,19.693 25.76,19.826C25.76,19.959 25.706,20.089 25.613,20.183C25.518,20.277 25.388,20.331 25.255,20.331Z" style="fill:rgb(78,144,30);fill-rule:nonzero;"/>
    </g>
    <g transform="matrix(1,0,0,1,1,0)">
        <path d="M26.855,24.503C26.722,24.503 26.592,24.449 26.498,24.355C26.404,24.261 26.35,24.131 26.35,23.998C26.35,23.865 26.404,23.734 26.498,23.64C26.592,23.546 26.722,23.492 26.855,23.492C26.988,23.492 27.118,23.546 27.212,23.64C27.306,23.735 27.36,23.865 27.36,23.998C27.36,24.131 27.306,24.261 27.212,24.355C27.118,24.449 26.988,24.503 26.855,24.503Z" style="fill:rgb(78,144,30);fill-rule:nonzero;"/>
    </g>
    <g transform="matrix(1,0,0,1,1,0)">
        <path d="M20.433,19.826C20.3,19.826 20.17,19.772 20.076,19.679C19.982,19.584 19.928,19.454 19.928,19.321C19.928,19.188 19.982,19.057 20.076,18.964C20.17,18.87 20.3,18.815 20.433,18.815C20.566,18.815 20.696,18.87 20.791,18.964C20.884,19.058 20.938,19.188 20.938,19.321C20.938,19.454 20.884,19.584 20.791,19.679C20.696,19.773 20.566,19.826 20.433,19.826Z" style="fill:rgb(78,144,30);fill-rule:nonzero;"/>
    </g>
    <g transform="matrix(1,0,0,1,1,0)">
        <path d="M27.865,15.677C27.732,15.677 27.602,15.623 27.508,15.529C27.414,15.435 27.359,15.305 27.359,15.171C27.359,15.039 27.414,14.908 27.508,14.814C27.602,14.72 27.732,14.666 27.865,14.666C27.998,14.666 28.128,14.72 28.222,14.814C28.316,14.908 28.37,15.039 28.37,15.171C28.37,15.305 28.316,15.435 28.222,15.529C28.128,15.623 27.998,15.677 27.865,15.677Z" style="fill:rgb(78,144,30);fill-rule:nonzero;"/>
    </g>
    <g transform="matrix(1,0,0,1,1,0)">
        <path d="M24.874,10.188C24.742,10.188 24.611,10.133 24.517,10.04C24.423,9.946 24.369,9.816 24.369,9.682C24.369,9.549 24.423,9.418 24.517,9.325C24.611,9.231 24.742,9.177 24.874,9.177C25.008,9.177 25.138,9.231 25.232,9.325C25.325,9.419 25.379,9.549 25.379,9.682C25.379,9.816 25.325,9.946 25.232,10.04C25.137,10.133 25.007,10.188 24.874,10.188Z" style="fill:rgb(78,144,30);fill-rule:nonzero;"/>
    </g>
    <g transform="matrix(1,0,0,1,1,0)">
        <path d="M24.124,26.692C23.992,26.692 23.861,26.638 23.767,26.545C23.673,26.451 23.619,26.32 23.619,26.187C23.619,26.054 23.673,25.923 23.767,25.83C23.861,25.736 23.992,25.682 24.124,25.682C24.258,25.682 24.388,25.736 24.482,25.83C24.575,25.924 24.629,26.054 24.629,26.187C24.629,26.32 24.575,26.451 24.482,26.545C24.387,26.638 24.257,26.692 24.124,26.692Z" style="fill:rgb(78,144,30);fill-rule:nonzero;"/>
    </g>
    <g transform="matrix(1,0,0,1,1,0)">
        <path d="M29.5,27.29C29.247,27.173 29.184,26.835 29.328,26.596C29.47,26.36 29.601,26.114 29.718,25.865C29.836,25.612 30.136,25.503 30.389,25.621C30.642,25.739 30.75,26.04 30.633,26.293C30.501,26.574 30.353,26.851 30.193,27.117C30.098,27.275 29.841,27.446 29.5,27.29Z" style="fill:rgb(78,144,30);fill-rule:nonzero;"/>
    </g>
    <g transform="matrix(1,0,0,1,1,0)">
        <path d="M25.215,30.546C25.144,30.276 25.233,29.993 25.491,29.887C26.645,29.416 27.69,28.667 28.512,27.719C28.695,27.508 29.013,27.486 29.224,27.669C29.434,27.852 29.457,28.171 29.274,28.381C28.349,29.447 27.172,30.292 25.872,30.823C25.811,30.849 25.333,30.999 25.215,30.546Z" style="fill:rgb(78,144,30);fill-rule:nonzero;"/>
    </g>
</svg>
