<?xml version="1.0" encoding="UTF-8" standalone="no"?>
<!DOCTYPE svg PUBLIC "-//W3C//DTD SVG 1.1//EN" "http://www.w3.org/Graphics/SVG/1.1/DTD/svg11.dtd">
<svg width="100%" height="100%" viewBox="0 0 36 36" version="1.1" xmlns="http://www.w3.org/2000/svg" xmlns:xlink="http://www.w3.org/1999/xlink" xml:space="preserve" xmlns:serif="http://www.serif.com/" style="fill-rule:evenodd;clip-rule:evenodd;stroke-linejoin:round;stroke-miterlimit:2;">
    <g>
        <path d="M27.204,9.56L26.736,9.832L26.737,9.29L17.942,4.206L9.203,9.289L9.201,9.827L8.738,9.56L0,14.644L0,21.358L8.796,26.442L9.263,26.17L9.263,26.712L18.058,31.795L26.798,26.712L26.798,26.174L27.262,26.441L36,21.358L36,14.643L27.204,9.56Z" style="fill:rgb(254,195,119);fill-rule:nonzero;"/>
        <path d="M26.738,9.29L26.719,16.004L17.981,21.088L18,14.373L26.738,9.29Z" style="fill:rgb(255,168,52);fill-rule:nonzero;"/>
        <path d="M17.999,14.373L17.98,21.088L9.184,16.004L9.203,9.289L17.999,14.373Z" style="fill:rgb(255,182,87);fill-rule:nonzero;"/>
        <path d="M26.738,9.29L17.999,14.373L9.203,9.289L17.942,4.206L26.738,9.29Z" style="fill:rgb(254,195,119);fill-rule:nonzero;"/>
        <path d="M17.535,14.643L17.516,21.358L8.797,26.442L8.797,19.727L17.535,14.643Z" style="fill:rgb(255,168,52);fill-rule:nonzero;"/>
        <path d="M8.796,19.727L8.796,26.442L0,21.358L0,14.644L8.796,19.727Z" style="fill:rgb(255,182,87);fill-rule:nonzero;"/>
        <path d="M17.535,14.643L8.796,19.727L0,14.644L8.738,9.56L17.535,14.643Z" style="fill:rgb(254,195,119);fill-rule:nonzero;"/>
        <path d="M36,14.643L36,21.358L27.262,26.441L27.262,19.727L36,14.643Z" style="fill:rgb(255,168,52);fill-rule:nonzero;"/>
        <path d="M27.262,19.727L27.262,26.441L18.447,21.358L18.466,14.643L27.262,19.727Z" style="fill:rgb(255,182,87);fill-rule:nonzero;"/>
        <path d="M35.999,14.643L27.261,19.727L18.465,14.643L27.203,9.56L35.999,14.643Z" style="fill:rgb(254,195,119);fill-rule:nonzero;"/>
        <path d="M26.798,19.996L26.798,26.711L18.059,31.794L18.059,25.08L26.798,19.996Z" style="fill:rgb(255,168,52);fill-rule:nonzero;"/>
        <path d="M18.059,25.08L18.059,31.795L9.264,26.711L9.264,19.997L18.059,25.08Z" style="fill:rgb(255,182,87);fill-rule:nonzero;"/>
        <path d="M26.798,19.996L18.059,25.081L9.264,19.997L18.002,14.913L26.798,19.996Z" style="fill:rgb(254,195,119);fill-rule:nonzero;"/>
        <path d="M24.267,23.097C24.084,23.203 23.938,23.458 23.938,23.669C23.938,23.879 24.087,23.964 24.269,23.858C24.452,23.753 24.6,23.497 24.599,23.287C24.598,23.076 24.45,22.992 24.267,23.097Z" style="fill:rgb(255,153,17);fill-rule:nonzero;"/>
        <path d="M25.279,23.713C25.139,23.794 25.027,23.989 25.027,24.15C25.028,24.31 25.141,24.375 25.281,24.295C25.421,24.214 25.534,24.018 25.534,23.858C25.532,23.696 25.418,23.632 25.279,23.713Z" style="fill:rgb(255,153,17);fill-rule:nonzero;"/>
        <path d="M25.734,22.561C25.623,22.625 25.533,22.78 25.533,22.909C25.534,23.037 25.624,23.088 25.735,23.024C25.846,22.96 25.936,22.804 25.935,22.676C25.935,22.548 25.845,22.497 25.734,22.561Z" style="fill:rgb(255,153,17);fill-rule:nonzero;"/>
        <path d="M28.06,24.22C27.877,24.326 27.731,24.581 27.731,24.792C27.731,25.001 27.88,25.087 28.062,24.981C28.245,24.875 28.393,24.62 28.392,24.41C28.391,24.2 28.243,24.115 28.06,24.22Z" style="fill:rgb(255,153,17);fill-rule:nonzero;"/>
        <path d="M28.545,22.614C28.405,22.695 28.292,22.891 28.293,23.051C28.294,23.211 28.407,23.276 28.547,23.196C28.687,23.115 28.799,22.919 28.799,22.759C28.799,22.598 28.685,22.533 28.545,22.614Z" style="fill:rgb(255,153,17);fill-rule:nonzero;"/>
        <path d="M29.603,23.258C29.492,23.322 29.402,23.478 29.402,23.606C29.403,23.734 29.493,23.785 29.604,23.721C29.715,23.657 29.805,23.502 29.805,23.374C29.804,23.245 29.714,23.194 29.603,23.258Z" style="fill:rgb(255,153,17);fill-rule:nonzero;"/>
        <path d="M10.529,22.375C10.346,22.269 10.199,22.014 10.199,21.803C10.2,21.593 10.348,21.508 10.531,21.614C10.714,21.719 10.862,21.975 10.861,22.185C10.86,22.396 10.712,22.48 10.529,22.375Z" style="fill:rgb(255,168,52);fill-rule:nonzero;"/>
        <path d="M11.015,23.981C10.876,23.9 10.763,23.704 10.764,23.544C10.764,23.383 10.878,23.318 11.018,23.399C11.157,23.48 11.27,23.675 11.27,23.836C11.269,23.996 11.155,24.061 11.015,23.981Z" style="fill:rgb(255,168,52);fill-rule:nonzero;"/>
        <path d="M12.073,23.336C11.962,23.272 11.872,23.117 11.873,22.989C11.874,22.861 11.964,22.809 12.075,22.873C12.186,22.937 12.276,23.093 12.275,23.221C12.275,23.349 12.185,23.4 12.073,23.336Z" style="fill:rgb(255,168,52);fill-rule:nonzero;"/>
        <path d="M7.265,24.914C7.082,24.808 6.936,24.553 6.936,24.342C6.936,24.132 7.085,24.047 7.267,24.153C7.45,24.258 7.598,24.514 7.597,24.724C7.596,24.935 7.447,25.019 7.265,24.914Z" style="fill:rgb(255,168,52);fill-rule:nonzero;"/>
        <path d="M5.703,23.287C5.563,23.206 5.45,23.011 5.451,22.85C5.452,22.69 5.565,22.625 5.705,22.705C5.845,22.786 5.957,22.982 5.957,23.142C5.956,23.304 5.843,23.368 5.703,23.287Z" style="fill:rgb(255,168,52);fill-rule:nonzero;"/>
        <path d="M7.265,23.425C7.154,23.361 7.064,23.206 7.064,23.078C7.065,22.949 7.155,22.898 7.266,22.962C7.377,23.026 7.467,23.182 7.467,23.31C7.467,23.438 7.376,23.489 7.265,23.425Z" style="fill:rgb(255,168,52);fill-rule:nonzero;"/>
    </g>
</svg>
