<?xml version="1.0" encoding="UTF-8" standalone="no"?>
<!DOCTYPE svg PUBLIC "-//W3C//DTD SVG 1.1//EN" "http://www.w3.org/Graphics/SVG/1.1/DTD/svg11.dtd">
<svg width="100%" height="100%" viewBox="0 0 36 36" version="1.1" xmlns="http://www.w3.org/2000/svg" xmlns:xlink="http://www.w3.org/1999/xlink" xml:space="preserve" xmlns:serif="http://www.serif.com/" style="fill-rule:evenodd;clip-rule:evenodd;stroke-linejoin:round;stroke-miterlimit:2;">
    <g transform="matrix(1,0,0,1,4,0)">
        <path d="M18.646,34.408L8.519,34.408C7.114,34.408 5.975,33.268 5.975,31.863L21.19,31.863C21.19,33.269 20.051,34.408 18.646,34.408Z" style="fill:rgb(224,224,224);fill-rule:nonzero;"/>
    </g>
    <g transform="matrix(1,0,0,1,4,0)">
        <path d="M19.96,31.863C19.96,33.268 18.822,34.408 17.416,34.408L18.646,34.408C20.051,34.408 21.191,33.268 21.191,31.863L19.96,31.863Z" style="fill:rgb(204,204,204);fill-rule:nonzero;"/>
    </g>
    <g transform="matrix(1,0,0,1,4,0)">
        <path d="M25.937,6.301C25.921,6.301 25.904,6.3 25.888,6.299C12.638,5.025 2.964,1.031 2.868,0.991C2.607,0.882 2.483,0.581 2.593,0.321C2.702,0.06 3.002,-0.064 3.263,0.046C3.358,0.086 12.899,4.022 25.985,5.279C26.267,5.306 26.474,5.556 26.446,5.838C26.421,6.103 26.198,6.301 25.937,6.301Z" style="fill:rgb(25,178,219);fill-rule:nonzero;"/>
    </g>
    <g transform="matrix(1,0,0,1,4,0)">
        <path d="M25.936,7.397L1.228,7.397C0.641,7.397 0.164,6.921 0.164,6.333C0.164,5.745 0.641,5.269 1.228,5.269L25.936,5.269C26.523,5.269 27,5.745 27,6.333C27,6.921 26.523,7.397 25.936,7.397Z" style="fill:rgb(224,224,224);fill-rule:nonzero;"/>
    </g>
    <g transform="matrix(1,0,0,1,4,0)">
        <path d="M25.935,5.27L24.705,5.27C25.293,5.27 25.769,5.746 25.769,6.334C25.769,6.922 25.292,7.398 24.705,7.398L25.935,7.398C26.523,7.398 27,6.922 27,6.334C27,5.745 26.523,5.27 25.935,5.27Z" style="fill:rgb(204,204,204);fill-rule:nonzero;"/>
    </g>
    <g transform="matrix(1,0,0,1,4,0)">
        <path d="M21.547,31.864L5.616,31.864C4.915,31.864 4.327,31.333 4.256,30.634L1.92,7.397L25.244,7.397L22.907,30.635C22.837,31.333 22.25,31.864 21.547,31.864Z" style="fill:rgb(115,205,255);fill-rule:nonzero;"/>
    </g>
    <g transform="matrix(1,0,0,1,4,0)">
        <path d="M24.014,7.397L21.678,30.635C21.608,31.333 21.021,31.865 20.318,31.865L21.548,31.865C22.25,31.865 22.838,31.333 22.908,30.635L25.245,7.397L24.014,7.397Z" style="fill:rgb(64,197,255);fill-rule:nonzero;"/>
    </g>
    <g transform="matrix(1,0,0,1,4,0)">
        <path d="M24.461,15.184L18.056,15.184C17.105,13.082 15.456,11.691 13.582,11.691C11.708,11.691 10.059,13.082 9.108,15.184L2.703,15.184L3.543,23.542L9.108,23.542C10.059,25.645 11.708,27.036 13.582,27.036C15.456,27.036 17.105,25.645 18.056,23.542L23.621,23.542L24.461,15.184Z" style="fill:rgb(255,236,161);fill-rule:nonzero;"/>
    </g>
    <g transform="matrix(1,0,0,1,4,0)">
        <path d="M23.231,15.184L22.391,23.542L23.621,23.542L24.461,15.184L23.231,15.184Z" style="fill:rgb(255,223,133);fill-rule:nonzero;"/>
    </g>
</svg>
