<?xml version="1.0" encoding="UTF-8" standalone="no"?>
<!DOCTYPE svg PUBLIC "-//W3C//DTD SVG 1.1//EN" "http://www.w3.org/Graphics/SVG/1.1/DTD/svg11.dtd">
<svg width="100%" height="100%" viewBox="0 0 36 36" version="1.1" xmlns="http://www.w3.org/2000/svg" xmlns:xlink="http://www.w3.org/1999/xlink" xml:space="preserve" xmlns:serif="http://www.serif.com/" style="fill-rule:evenodd;clip-rule:evenodd;stroke-linejoin:round;stroke-miterlimit:2;">
    <path d="M23.4,2.4L17.4,9.6L17.4,34.8L3,34.8L3,9.6L9,2.4L23.4,2.4Z" style="fill:rgb(125,209,242);fill-rule:nonzero;"/>
    <path d="M29.4,9.6L29.4,34.8L17.4,34.8L17.4,9.6L23.4,2.4L29.4,9.6Z" style="fill:rgb(82,157,223);fill-rule:nonzero;"/>
    <path d="M23.4,7.8L23.4,34.8L29.4,34.8L29.4,9.6L23.4,7.8Z" style="fill:rgb(67,132,195);fill-rule:nonzero;"/>
    <path d="M23.4,2.4L17.4,9.6L3,9.6L9,2.4L23.4,2.4Z" style="fill:rgb(98,198,242);fill-rule:nonzero;"/>
    <rect x="9" y="0" width="14.4" height="2.4" style="fill:rgb(125,209,242);fill-rule:nonzero;"/>
    <path d="M29.4,9.6L23.4,7.8L17.4,9.6L23.4,2.4L29.4,9.6Z" style="fill:rgb(38,118,177);fill-rule:nonzero;"/>
    <path d="M11.4,7.2C12.394,7.2 13.2,6.663 13.2,6C13.2,5.337 12.394,4.8 11.4,4.8C10.406,4.8 9.6,5.337 9.6,6C9.6,6.663 10.406,7.2 11.4,7.2Z" style="fill:rgb(104,115,127);fill-rule:nonzero;"/>
    <path d="M17.4,29.364L17.4,34.8L3,34.8L3,29.364C3.955,28.409 5.25,27.873 6.6,27.873C7.95,27.873 9.245,28.409 10.2,29.364C11.155,30.319 12.45,30.855 13.8,30.855C15.15,30.855 16.445,30.319 17.4,29.364Z" style="fill:rgb(212,228,240);fill-rule:nonzero;"/>
    <path d="M29.4,30.712L29.4,34.8L17.4,34.8L17.4,29.364C18.355,28.409 19.65,27.873 21,27.873C22.351,27.873 23.646,28.409 24.6,29.364C25.218,29.982 25.983,30.43 26.824,30.667C27.665,30.903 28.552,30.919 29.4,30.712Z" style="fill:rgb(193,215,230);fill-rule:nonzero;"/>
    <path d="M9,25.801L9,25.922C9,26.145 9.062,26.363 9.179,26.553C9.296,26.743 9.464,26.896 9.663,26.995L11.4,27.864L11.4,25.801C11.4,25.533 11.311,25.273 11.146,25.062C10.981,24.851 10.751,24.701 10.491,24.636C10.314,24.592 10.13,24.589 9.951,24.627C9.773,24.665 9.605,24.743 9.462,24.855C9.318,24.967 9.202,25.11 9.122,25.274C9.042,25.438 9,25.618 9,25.801Z" style="fill:rgb(212,228,240);fill-rule:nonzero;"/>
    <path d="M15.599,27.001L15.599,27.122C15.599,27.345 15.537,27.564 15.42,27.753C15.303,27.943 15.135,28.096 14.936,28.196L13.199,29.064L13.199,27.001C13.199,26.733 13.289,26.473 13.453,26.262C13.618,26.051 13.849,25.901 14.108,25.837C14.285,25.792 14.47,25.789 14.648,25.827C14.826,25.865 14.994,25.943 15.138,26.055C15.282,26.167 15.398,26.311 15.478,26.475C15.558,26.639 15.599,26.818 15.599,27.001Z" style="fill:rgb(212,228,240);fill-rule:nonzero;"/>
    <rect x="6.6" y="16.8" width="7.2" height="1.2" style="fill:rgb(104,115,127);fill-rule:nonzero;"/>
    <path d="M10.201,22.8C9.003,22.801 7.839,22.403 6.892,21.67C5.946,20.936 5.269,19.909 4.971,18.749L6.133,18.45C6.366,19.352 6.892,20.15 7.628,20.72C8.365,21.29 9.269,21.6 10.201,21.6C11.132,21.6 12.037,21.29 12.773,20.72C13.509,20.15 14.035,19.352 14.268,18.45L15.43,18.749C15.132,19.909 14.456,20.936 13.509,21.67C12.562,22.403 11.398,22.801 10.201,22.8Z" style="fill:rgb(212,228,240);fill-rule:nonzero;"/>
    <path d="M14.268,16.35C14.035,15.448 13.509,14.65 12.773,14.079C12.037,13.509 11.132,13.2 10.201,13.2C9.269,13.2 8.365,13.509 7.628,14.079C6.892,14.65 6.366,15.448 6.133,16.35L4.971,16.05C5.27,14.891 5.946,13.864 6.893,13.131C7.84,12.398 9.003,12 10.201,12C11.398,12 12.561,12.398 13.508,13.131C14.455,13.864 15.131,14.891 15.43,16.05L14.268,16.35Z" style="fill:rgb(212,228,240);fill-rule:nonzero;"/>
    <path d="M33,18L32.574,21.973L31.2,34.8L22.8,34.8L21.352,21.285L21,18L33,18Z" style="fill:rgb(125,209,242);fill-rule:nonzero;"/>
    <path d="M32.574,21.973L31.2,34.8L22.8,34.8L21.352,21.285C22.167,20.634 23.194,20.306 24.236,20.364C25.278,20.422 26.262,20.862 27,21.6C27.726,22.327 28.692,22.765 29.717,22.834C30.742,22.902 31.757,22.596 32.574,21.973Z" style="fill:rgb(212,228,240);fill-rule:nonzero;"/>
    <rect x="24.6" y="31.8" width="4.8" height="1.2" style="fill:rgb(193,215,230);fill-rule:nonzero;"/>
</svg>
