<?xml version="1.0" encoding="UTF-8" standalone="no"?>
<!DOCTYPE svg PUBLIC "-//W3C//DTD SVG 1.1//EN" "http://www.w3.org/Graphics/SVG/1.1/DTD/svg11.dtd">
<svg width="100%" height="100%" viewBox="0 0 36 36" version="1.1" xmlns="http://www.w3.org/2000/svg" xmlns:xlink="http://www.w3.org/1999/xlink" xml:space="preserve" xmlns:serif="http://www.serif.com/" style="fill-rule:evenodd;clip-rule:evenodd;stroke-linejoin:round;stroke-miterlimit:2;">
    <g>
        <path d="M-0.741,26.151C-0.88,26.63 -0.9,27.248 -0.9,27.666C-0.9,28.085 1.671,27.348 1.671,27.348C1.671,27.348 0.714,26.391 -0.741,26.151Z" style="fill:rgb(179,101,29);"/>
        <path d="M35.84,26.151C35.98,26.63 35.98,27.248 35.98,27.666C35.98,28.085 33.408,27.348 33.408,27.348C33.408,27.348 34.385,26.391 35.84,26.151Z" style="fill:rgb(179,101,29);"/>
        <path d="M-0.183,26.989L35.282,26.989C35.681,26.989 36,27.308 36,27.707L36,28.963C36,29.362 35.681,29.68 35.282,29.68L-0.183,29.68C-0.581,29.68 -0.9,29.362 -0.9,28.963L-0.9,27.707C-0.9,27.308 -0.581,26.989 -0.183,26.989Z" style="fill:rgb(122,60,1);"/>
        <path d="M30.477,14.529L27.786,14.529L25.932,14.529L4.621,14.529L-0.741,26.151C-0.881,26.471 -0.402,26.989 0.136,26.989L34.963,26.989C35.501,26.989 35.999,26.471 35.84,26.151L30.477,14.529Z" style="fill:rgb(158,78,3);"/>
        <path d="M6.157,7.432C2.629,9.944 3.645,15.087 7.074,16.921C10.782,18.895 16.065,18.715 18.916,16.602C21.846,14.429 22.205,9.246 17.999,7.033C13.792,4.801 9.427,5.12 6.157,7.432Z" style="fill:rgb(230,230,230);"/>
        <path d="M6.814,12.057C6.216,7.432 15.107,7.472 17.22,8.708C15.127,4.621 3.286,6.475 6.814,12.057Z" style="fill:rgb(242,242,242);"/>
        <path d="M19.156,9.585C19.355,9.585 19.614,9.904 19.754,10.303C19.893,10.701 19.833,11.02 19.634,11.02C19.435,11.02 19.176,10.701 19.036,10.303C18.916,9.904 18.956,9.585 19.156,9.585Z" style="fill:rgb(242,242,242);"/>
        <path d="M18.597,10.064C18.796,10.064 18.996,10.382 19.055,10.781C19.115,11.18 18.996,11.499 18.796,11.499C18.597,11.499 18.398,11.18 18.338,10.781C18.278,10.382 18.398,10.064 18.597,10.064Z" style="fill:rgb(242,242,242);"/>
        <path d="M12.039,10.023C11.042,15.605 13.733,16.821 16.903,16.303C17.541,9.864 12.278,12.256 12.039,10.023Z" style="fill:rgb(106,148,102);"/>
        <path d="M16.386,16.124C14.751,15.127 12.538,12.157 12.458,11.22C12.279,12.256 14.332,15.267 16.386,16.124ZM15.987,15.566C16.186,15.167 16.286,14.21 16.126,13.712C16.485,14.21 16.445,15.167 15.987,15.566ZM14.97,14.429C15.09,14.19 15.329,13.512 15.189,12.974C15.688,13.472 15.369,14.17 14.97,14.429ZM14.073,13.134C14.252,12.815 14.312,12.615 14.153,12.157C14.551,12.595 14.452,12.815 14.073,13.134ZM12.458,13.492C12.658,13.771 13.176,13.831 13.455,13.811C13.196,14.11 12.658,13.951 12.458,13.492ZM12.996,14.728C13.355,15.067 13.973,15.007 14.472,14.928C14.013,15.247 13.375,15.267 12.996,14.728ZM14.093,15.725C14.472,16.024 15.189,15.905 15.448,15.885C15.269,16.203 14.512,16.184 14.093,15.725Z" style="fill:rgb(68,116,64);"/>
        <path d="M19.215,14.689C15.666,17.2 16.683,22.364 20.112,24.178C23.82,26.151 29.102,25.972 31.953,23.859C34.884,21.686 35.242,16.503 31.036,14.29C26.83,12.077 22.464,12.376 19.215,14.689Z" style="fill:rgb(242,242,242);"/>
        <path d="M19.853,19.314C19.255,14.689 28.146,14.728 30.26,15.964C28.166,11.878 16.325,13.732 19.853,19.314Z" style="fill:white;"/>
        <path d="M32.756,18.249C32.927,18.175 32.932,17.803 32.765,17.419C32.599,17.036 32.324,16.785 32.153,16.859C31.981,16.934 31.977,17.305 32.143,17.689C32.31,18.073 32.584,18.324 32.756,18.249Z" style="fill:white;fill-rule:nonzero;"/>
        <path d="M31.634,17.32C31.833,17.32 32.033,17.639 32.093,18.038C32.152,18.437 32.013,18.756 31.833,18.756C31.634,18.756 31.435,18.437 31.375,18.038C31.315,17.639 31.435,17.32 31.634,17.32Z" style="fill:white;"/>
        <path d="M19.215,14.689C15.666,17.2 16.683,22.364 20.112,24.178C23.82,26.151 29.102,25.972 31.953,23.859C34.884,21.686 35.242,16.503 31.036,14.29C26.83,12.077 22.464,12.376 19.215,14.689Z" style="fill:rgb(230,230,230);"/>
        <path d="M19.853,19.314C19.255,14.689 28.146,14.728 30.26,15.964C28.166,11.878 16.325,13.732 19.853,19.314Z" style="fill:rgb(242,242,242);"/>
        <path d="M32.213,16.842C32.413,16.842 32.672,17.161 32.811,17.56C32.951,17.958 32.891,18.277 32.692,18.277C32.492,18.277 32.233,17.958 32.094,17.56C31.954,17.161 32.014,16.842 32.213,16.842Z" style="fill:rgb(242,242,242);"/>
        <path d="M31.634,17.32C31.833,17.32 32.033,17.639 32.093,18.038C32.152,18.437 32.013,18.756 31.833,18.756C31.634,18.756 31.435,18.437 31.375,18.038C31.315,17.639 31.435,17.32 31.634,17.32Z" style="fill:rgb(242,242,242);"/>
        <path d="M14.77,23.958C19.853,21.426 19.215,18.555 16.903,16.303C11.361,19.632 16.424,22.423 14.77,23.958Z" style="fill:rgb(106,148,102);"/>
        <path d="M17.063,16.821C17.242,18.735 16.185,22.284 15.468,22.901C16.425,22.443 17.621,18.974 17.063,16.821ZM16.883,17.479C16.445,17.559 15.607,18.037 15.308,18.476C15.468,17.878 16.265,17.36 16.883,17.479ZM16.544,18.974C16.285,19.014 15.587,19.233 15.249,19.672C15.368,18.954 16.106,18.815 16.544,18.974ZM16.066,20.469C15.707,20.509 15.508,20.589 15.229,20.988C15.328,20.39 15.567,20.35 16.066,20.469ZM17.302,21.546C17.401,21.227 17.142,20.769 16.983,20.549C17.362,20.589 17.541,21.107 17.302,21.546ZM17.98,20.39C18.039,19.891 17.621,19.433 17.262,19.074C17.78,19.253 18.179,19.732 17.98,20.39ZM18.119,18.895C18.139,18.416 17.601,17.898 17.441,17.698C17.8,17.679 18.259,18.297 18.119,18.895Z" style="fill:rgb(68,116,64);"/>
        <path d="M24.538,14.091C19.713,11.101 17.6,13.154 16.902,16.284C22.644,19.274 22.365,13.493 24.538,14.091Z" style="fill:rgb(106,148,102);"/>
        <path d="M17.262,15.885C18.797,14.728 22.365,13.772 23.282,14.031C22.385,13.492 18.817,14.29 17.262,15.885ZM17.92,15.705C18.219,16.044 19.076,16.483 19.594,16.523C18.996,16.682 18.139,16.283 17.92,15.705ZM19.355,15.207C19.534,15.406 20.073,15.885 20.631,15.964C19.973,16.204 19.455,15.665 19.355,15.207ZM20.89,14.828C21.109,15.107 21.289,15.247 21.767,15.267C21.209,15.486 21.049,15.307 20.89,14.828ZM21.169,13.193C20.85,13.273 20.591,13.732 20.491,13.991C20.312,13.672 20.651,13.213 21.169,13.193ZM19.813,13.253C19.355,13.453 19.195,14.07 19.076,14.549C18.936,14.011 19.156,13.393 19.813,13.253ZM18.478,13.891C18.059,14.13 17.9,14.848 17.82,15.107C17.601,14.808 17.88,14.11 18.478,13.891Z" style="fill:rgb(68,116,64);"/>
        <path d="M21.946,17.419C20.112,14.21 18.278,14.728 16.902,16.303C19.255,19.771 20.889,16.382 21.946,17.419Z" style="fill:rgb(134,186,130);"/>
        <path d="M17.24,16.183C18.476,16.004 20.809,16.562 21.247,17.001C20.908,16.403 18.616,15.745 17.24,16.183ZM17.659,16.283C17.719,16.562 18.078,17.08 18.357,17.26C17.978,17.18 17.599,16.682 17.659,16.283ZM18.656,16.442C18.696,16.622 18.855,17.06 19.154,17.26C18.676,17.2 18.556,16.722 18.656,16.442ZM19.633,16.702C19.672,16.921 19.732,17.06 19.991,17.22C19.613,17.18 19.573,17.02 19.633,16.702ZM20.29,15.844C20.091,15.785 19.792,15.984 19.652,16.084C19.672,15.844 19.991,15.705 20.29,15.844ZM19.513,15.466C19.194,15.446 18.915,15.745 18.696,15.984C18.775,15.625 19.094,15.346 19.513,15.466ZM18.556,15.406C18.257,15.406 17.938,15.785 17.798,15.884C17.759,15.665 18.137,15.346 18.556,15.406Z" style="fill:rgb(100,150,96);"/>
    </g>
</svg>
