<?xml version="1.0" encoding="UTF-8" standalone="no"?>
<!DOCTYPE svg PUBLIC "-//W3C//DTD SVG 1.1//EN" "http://www.w3.org/Graphics/SVG/1.1/DTD/svg11.dtd">
<svg width="100%" height="100%" viewBox="0 0 36 36" version="1.1" xmlns="http://www.w3.org/2000/svg" xmlns:xlink="http://www.w3.org/1999/xlink" xml:space="preserve" xmlns:serif="http://www.serif.com/" style="fill-rule:evenodd;clip-rule:evenodd;stroke-linejoin:round;stroke-miterlimit:2;">
    <g>
        <path d="M12.725,19.624L12.67,19.005C12.382,16.947 13.039,14.867 14.46,13.352C17.594,10.216 23.647,11.194 27.985,15.542C32.323,19.89 33.298,25.958 30.169,29.1C28.58,30.583 26.392,31.238 24.252,30.869L12.725,19.624Z" style="fill:rgb(76,128,86);fill-rule:nonzero;"/>
        <path d="M25.213,27.596C25.207,28.756 24.873,29.891 24.25,30.868C22.522,33.676 18.629,35.637 14.107,35.637C7.973,35.637 3,32.038 3,27.596C3,23.495 7.245,20.112 12.724,19.623C13.183,19.575 13.645,19.552 14.106,19.555C20.24,19.555 25.213,23.155 25.213,27.596Z" style="fill:rgb(113,194,133);fill-rule:nonzero;"/>
        <path d="M29.176,22.647C28.906,22.647 28.667,22.471 28.587,22.211C28.028,20.516 27.072,18.979 25.801,17.729C25.561,17.487 25.561,17.097 25.802,16.855C26.042,16.614 26.431,16.613 26.673,16.853C28.087,18.246 29.147,19.958 29.766,21.846C29.824,22.033 29.79,22.237 29.673,22.396C29.557,22.554 29.373,22.647 29.176,22.647Z" style="fill:rgb(113,194,133);fill-rule:nonzero;"/>
        <path d="M29.349,26.359C29.156,26.359 28.973,26.267 28.857,26.112C28.74,25.956 28.703,25.755 28.757,25.568C28.857,25.214 28.913,24.849 28.923,24.481C28.927,24.316 28.996,24.16 29.117,24.048C29.237,23.936 29.397,23.877 29.561,23.885C29.725,23.89 29.879,23.961 29.991,24.081C30.103,24.201 30.162,24.36 30.156,24.524C30.142,24.994 30.069,25.46 29.941,25.912C29.865,26.177 29.623,26.359 29.349,26.359Z" style="fill:rgb(113,194,133);fill-rule:nonzero;"/>
        <path d="M22.233,26.36C22.012,26.36 21.806,26.241 21.696,26.047C21.588,25.858 21.466,25.677 21.33,25.507C21.193,25.334 21.158,25.101 21.238,24.895C21.318,24.69 21.503,24.543 21.72,24.51C21.938,24.477 22.157,24.563 22.295,24.736C22.471,24.957 22.63,25.19 22.769,25.435C22.878,25.626 22.877,25.861 22.767,26.051C22.656,26.242 22.453,26.36 22.233,26.36Z" style="fill:rgb(76,128,86);fill-rule:nonzero;"/>
        <path d="M19.043,23.679C18.954,23.679 18.867,23.66 18.786,23.623C17.314,22.968 15.719,22.636 14.107,22.649C13.766,22.649 13.49,22.372 13.49,22.03C13.49,21.688 13.766,21.411 14.107,21.411C15.895,21.4 17.666,21.77 19.299,22.498C19.564,22.619 19.708,22.908 19.645,23.193C19.585,23.476 19.334,23.679 19.043,23.679Z" style="fill:rgb(76,128,86);fill-rule:nonzero;"/>
        <path d="M7.937,30.69C9.3,30.69 10.405,29.305 10.405,27.597C10.405,25.889 9.3,24.504 7.937,24.504C6.574,24.504 5.469,25.889 5.469,27.597C5.469,29.305 6.574,30.69 7.937,30.69Z" style="fill:rgb(76,128,86);fill-rule:nonzero;"/>
        <path d="M14.106,13.989C13.969,13.989 13.835,13.944 13.727,13.859L8.173,9.53C7.999,9.394 7.909,9.176 7.939,8.956C7.969,8.737 8.114,8.551 8.319,8.467C8.524,8.384 8.757,8.417 8.931,8.553L14.485,12.883C14.694,13.045 14.776,13.322 14.69,13.572C14.604,13.822 14.369,13.989 14.106,13.989Z" style="fill:rgb(127,91,83);fill-rule:nonzero;"/>
        <path d="M19.084,-0.235C19.238,-0.249 19.391,-0.195 19.501,-0.087C19.611,0.021 19.67,0.172 19.659,0.326C19.165,2.615 18.082,4.733 16.518,6.471C14.234,8.704 12.449,8.822 11.423,7.818C10.397,6.814 11.415,4.19 13.7,1.957C15.415,0.279 17.937,-0.134 19.084,-0.235Z" style="fill:rgb(79,186,111);fill-rule:nonzero;"/>
        <path d="M9.595,10.471C9.346,10.471 9.121,10.32 9.026,10.089C8.93,9.858 8.983,9.593 9.159,9.415L13.054,5.511C13.296,5.274 13.683,5.275 13.923,5.515C14.162,5.756 14.164,6.144 13.927,6.386L10.032,10.29C9.915,10.406 9.759,10.471 9.595,10.471Z" style="fill:rgb(127,91,83);fill-rule:nonzero;"/>
    </g>
</svg>
