<?xml version="1.0" encoding="UTF-8" standalone="no"?>
<!DOCTYPE svg PUBLIC "-//W3C//DTD SVG 1.1//EN" "http://www.w3.org/Graphics/SVG/1.1/DTD/svg11.dtd">
<svg width="100%" height="100%" viewBox="0 0 36 36" version="1.1" xmlns="http://www.w3.org/2000/svg" xmlns:xlink="http://www.w3.org/1999/xlink" xml:space="preserve" xmlns:serif="http://www.serif.com/" style="fill-rule:evenodd;clip-rule:evenodd;stroke-linejoin:round;stroke-miterlimit:2;">
    <g>
        <path d="M31.209,27.765L19.979,27.844C19.179,27.85 18.41,27.554 17.824,27.014C17.236,26.474 16.466,26.174 15.664,26.18L14.161,26.191L14.077,13.632L19.642,8.317C20.076,7.903 20.457,7.445 20.782,6.953C21.622,5.68 22.084,4.181 22.091,2.637C22.093,2.257 22.208,1.903 22.404,1.606C22.738,1.1 23.309,0.764 23.956,0.759C24.828,0.752 25.579,1.357 25.762,2.211L26.089,3.733C26.461,5.475 26.442,7.283 26.029,9.025L25.627,10.727L33.091,10.683C34.284,10.674 35.243,11.656 35.204,12.862C35.168,14.024 34.186,14.943 33.028,14.951C33.015,14.951 33.007,14.961 33.005,14.971C33.004,14.983 33.01,14.995 33.024,14.998C33.281,15.053 33.521,15.155 33.733,15.296C34.072,15.52 34.342,15.84 34.505,16.218C34.618,16.478 34.679,16.766 34.678,17.07C34.675,17.655 34.438,18.187 34.057,18.575C33.456,19.186 32.713,19.215 32.569,19.218C32.544,19.219 32.524,19.239 32.524,19.265C32.524,19.265 32.524,19.266 32.525,19.267C32.525,19.29 32.545,19.309 32.568,19.309C32.732,19.368 32.886,19.446 33.03,19.541C33.381,19.773 33.663,20.104 33.833,20.491C33.948,20.753 34.012,21.042 34.01,21.343C34.005,22.521 33.05,23.483 31.877,23.491C31.848,23.492 31.818,23.492 31.79,23.492C31.772,23.494 31.759,23.506 31.758,23.521C31.757,23.524 31.758,23.529 31.76,23.532C31.764,23.545 31.778,23.555 31.796,23.554C32.416,23.713 32.914,24.155 33.165,24.738C33.281,25.005 33.344,25.302 33.342,25.615C33.337,26.795 32.382,27.757 31.209,27.765Z" style="fill:rgb(253,215,189);fill-rule:nonzero;"/>
        <path d="M0.249,11.74L8.386,11.586L13.218,11.552C13.774,11.548 14.223,11.998 14.221,12.558L14.158,26.872C14.155,27.433 13.702,27.889 13.144,27.893L8.407,27.926L1.398,27.936C-1.752,23.208 -2.293,17.043 0.246,11.746C0.247,11.744 0.248,11.742 0.249,11.74Z" style="fill:rgb(135,219,255);fill-rule:nonzero;"/>
        <path d="M13.144,27.892L8.407,27.926L8.386,11.586L13.218,11.551C13.774,11.547 14.224,11.998 14.221,12.558L14.158,26.872C14.155,27.432 13.702,27.888 13.144,27.892Z" style="fill:rgb(111,199,255);fill-rule:nonzero;"/>
        <path d="M34.506,16.218L30.989,15.911C30.49,15.867 30.103,15.463 30.08,14.961L33.005,14.971C33.004,14.983 33.01,14.995 33.024,14.998C33.281,15.053 33.521,15.156 33.733,15.296C34.072,15.52 34.343,15.84 34.506,16.218Z" style="fill:rgb(250,197,170);fill-rule:nonzero;"/>
        <path d="M33.833,20.49L30.393,20.189C29.894,20.145 29.507,19.741 29.484,19.239L32.409,19.25L32.525,19.266C32.525,19.289 32.545,19.309 32.568,19.309C32.732,19.367 32.887,19.446 33.03,19.54C33.381,19.772 33.663,20.103 33.833,20.49Z" style="fill:rgb(250,197,170);fill-rule:nonzero;"/>
        <path d="M33.164,24.738L30.135,24.473C29.637,24.429 29.249,24.025 29.225,23.523L31.76,23.532C31.764,23.545 31.778,23.555 31.796,23.553C32.416,23.713 32.913,24.155 33.164,24.738Z" style="fill:rgb(250,197,170);fill-rule:nonzero;"/>
    </g>
</svg>
