<svg width="60" height="60" viewBox="0 0 60 60" fill="none" xmlns="http://www.w3.org/2000/svg"><path d="M40.108 53.815h7.812a4.883 4.883 0 014.883 4.882v.977H40.108v-5.86z" fill="#1C578A"/><path d="M40.108 53.814H27.413V49.83l-22.46-.898A27.307 27.307 0 003 59.072v.601h41.99v-.976a4.883 4.883 0 00-4.882-4.883z" fill="#2A70AB"/><path d="M8.859 53.814h18.554v-1.953H8.859a.977.977 0 000 1.953z" fill="#1C578A"/><path d="M29.366 37.213l9.38 7.817-3.52 3.901h-11.23l5.37-11.718z" fill="#47A2D4"/><path d="M31.32 19.637a28.748 28.748 0 01-1.457 17.12l-5.3 12.96-19.61-.785L3 28.425V23.78a10.003 10.003 0 0110.002-10.002h9.528l8.79 5.86z" fill="#4DB7E5"/><path d="M43.037 7.953a2.894 2.894 0 01-2.893 2.894h-.21c-.267 0-.533-.036-.79-.11l-.99 7.923-1.952-.977-1.953 3.906-2.93-1.953h-6.836l-1.953-5.859 1.85-2.986 4.274-6.895a3.906 3.906 0 014.751-1.636l7.777 2.992a2.893 2.893 0 011.855 2.701z" fill="#FFDAD2"/><path d="M43.037 7.953a2.894 2.894 0 01-2.892 2.894h-.212a2.899 2.899 0 01-1.49-.413L34.25 7.919 32.296 12.8 30.63 8.64l-.993 1.283a3.913 3.913 0 01-5.257.868l4.273-6.895a3.906 3.906 0 014.751-1.636l7.777 2.992a2.893 2.893 0 011.855 2.701z" fill="#6B402A"/><path d="M14.718 44.049a.977.977 0 01-.976-.977v-16.6a.977.977 0 011.953 0v16.6a.976.976 0 01-.977.977z" fill="#47A2D4"/><path d="M35.225 42.097h2.93l5.859-1.953 6.836 5.859-1.953 1.953-4.883-2.93-5.86 3.906h-2.929v-6.835z" fill="#FF9F9B"/><path d="M48.897 49.908H34.249a1.953 1.953 0 000 3.906h14.648a1.953 1.953 0 100-3.906zM56.086 33.055l-5.588 15.157a2.02 2.02 0 00.992 2.505l.238.119a2.02 2.02 0 002.809-1.14l5.35-15.274a2.02 2.02 0 00-3.801-1.367z" fill="#4DB7E5"/><path d="M24.394 23.407a26.843 26.843 0 01-4.419 12.758 26.846 26.846 0 00-4.399 17.322l.12 1.304 5.858 3.906 1.953-3.906-.296-1.48a26.846 26.846 0 011.73-16.026l1.198-2.739a26.846 26.846 0 002.25-10.76v-.244l-3.995-.135z" fill="#348FD9"/><path d="M24.483 19.637v1.637c0 .714-.033 1.425-.09 2.134l3.997.135v-3.906h-3.907z" fill="#2D7DBF"/><path d="M18.624 13.777l2.93 6.836 2.93-.976-1.954-5.86h-3.906z" fill="#47A2D4"/><path d="M13.742 26.472v15.624l15.624.977v6.836l-24.413-.977L3 28.425V23.78a10.003 10.003 0 0110.002-10.002h.74v12.695z" fill="#4DB7E5"/><path d="M31.322 19.638l-.002-.002-2.93-1.953V15.73a.976.976 0 10-1.954 0v2.476a.978.978 0 00.435.813l.927.618h3.521l.003.001z" fill="#FF9F9B"/><path d="M29.366 43.072h2.93l5.859-1.953 6.836 5.86-1.953 1.952-4.883-2.93-5.86 3.907h-2.929v-6.836z" fill="#FFDAD2"/></svg>