<svg width="60" height="60" viewBox="0 0 60 60" fill="none" xmlns="http://www.w3.org/2000/svg"><g clip-path="url(#clip0)"><path d="M28.04 41.855l-5.679 24.483-9.322 18.27 4.447 3.268L29.97 68.749l4.34-9.59-6.269-17.304z" fill="#1E1E1C"/><path d="M33.182 15.066s1.393-.214 2.84 4.072l1.929 2.036c.75.803 1.071 1.928.803 3-.428 1.715-.964 4.179-.91 4.34.053.214.374 7.125.374 7.125h-11.09s-5.572-17.626 1.93-20.144l4.124-.429z" fill="#FFAC76"/><path d="M35.168 1.994S40.097.922 38.65 5.048c-1.554 4.393-4.929 1.178-4.929 1.178l1.447-4.232z" fill="#723D23"/><path d="M31.792 15.87c-1.285 0-2.732-.429-2.732-.429V6.28h4.607v9.75c.054 1.072-.803-.16-1.875-.16z" fill="#FFC9A6"/><path d="M37.149 6.28a5.03 5.03 0 01-5.036 5.036 5.03 5.03 0 01-5.036-5.036 5.03 5.03 0 015.036-5.036 5.03 5.03 0 015.036 5.036z" fill="#FFC9A6"/><path d="M33.883 12.923a2.4 2.4 0 01-2.41-2.41v-3.43l5.678-.803V9.6c0 1.822-1.446 3.322-3.268 3.322z" fill="#FFC9A6"/><path d="M36.988 7.405l1.072 1.608c.16.267-.054.589-.375.589l-1.286.214.59-2.41z" fill="#FFC9A6"/><path d="M32.381 7.941s5.411-3.375 3.75-5.893c-3-4.608-7.768 0-7.768 0l4.018 5.893z" fill="#834B2D"/><path d="M29.65 1.244s-4.554.964-3.75 4.125c.642 2.626.267 2.09-1.126 3.269-1.339 1.178-2.143 2.732-1.821 5.036h8.09s3.321-1.715.375-5.036c0 0-.161-2.626 1.768-2.947L29.65 1.244z" fill="#834B2D"/><path d="M32.385 7.94c0 .75-.643 1.394-1.393 1.394s-1.393-.643-1.393-1.393.643-1.393 1.393-1.393c.803 0 1.393.643 1.393 1.393zM32.38 14.049s1.554 1.714 2.84 5.036c0 0-2.357-2.572-6.107-3.697l3.268-1.34z" fill="#FFC9A6"/><path d="M38.166 35.586l3.697 55.665H36.29l-7.93-42.807s-3.696-6-1.232-12.858h11.037z" fill="#363332"/><path d="M29.27 41.372l-.053.108-.053.053c0-.053.053.16-.483.16-.75-.91-.214-.32-.375-.588v-.161l.054-.161.16-.321.269-.697.535-1.34.965-2.732a61.922 61.922 0 001.553-5.625 34.34 34.34 0 00.804-5.733c.054-.964 0-1.928-.107-2.84a10.942 10.942 0 00-.697-2.678c-.16-.375-.428-.59-.857-.803a2.442 2.442 0 00-1.178-.322c-.804 0-1.5.536-2.036 1.286a8.53 8.53 0 00-.697 1.178c-.214.43-.482.911-.75 1.34-.536.857-1.178 1.607-1.821 2.357-1.34 1.5-2.786 2.84-4.286 4.072-.75.643-1.554 1.232-2.304 1.822-.375.32-.804.589-1.179.857l-.59.428c-.213.161-.374.268-.696.322l-.268-.429c.108-.268.322-.375.536-.536l.59-.428c.375-.268.803-.59 1.178-.857.75-.59 1.554-1.18 2.25-1.822a37.028 37.028 0 004.18-4.018c.642-.697 1.232-1.5 1.714-2.25.268-.375.482-.804.696-1.232.214-.483.482-.911.804-1.34a5.597 5.597 0 011.125-1.125c.482-.321 1.018-.536 1.607-.536.59 0 1.125.161 1.608.429.214.107.482.268.696.482.214.214.375.429.536.697.857 1.928 1.018 3.964.964 5.946-.053 1.983-.375 3.965-.804 5.894-.428 1.928-.964 3.803-1.553 5.679-.322.91-.643 1.875-.965 2.786l-.535 1.392-.268.697-.107.322-.054.16-.107.107c0-.053-.054-.053 0 0v-.053c-.16-.215.375.375-.375-.59-.536 0-.482.268-.482.161l.857.482z" fill="#FF8383"/><path d="M48.613 42.604a3.182 3.182 0 011.929 4.072 3.182 3.182 0 01-4.072 1.929 3.182 3.182 0 01-1.929-4.072 3.182 3.182 0 014.072-1.929z" fill="#FFC9A6"/><path d="M48.023 43.3l-5.519-4.821-2.25 2.572 4.554 4.178 3.215-1.928z" fill="#FFC9A6"/><path d="M42.504 44.051L30.61 32.532a2.517 2.517 0 01-.803-1.339l-2.411-10.019c-.375-1.446.536-2.893 1.982-3.268 1.447-.375 2.893.536 3.268 1.983l2.25 9.215 11.305 10.929-3.697 4.018z" fill="#FFAC76"/><path d="M14.646 30.014s-10.662 8.572.428 16.501c11.09 7.983 15.377-5.41 15.377-5.41l-15.805-11.09z" fill="#FF8383"/><path d="M14.644 30.014l15.805 11.09s-5.519 7.608-14.037 2.143c-8.519-5.464-1.768-13.233-1.768-13.233z" fill="#F86E6D"/></g><defs><clipPath id="clip0"><path fill="#fff" d="M0 0h60v60H0z"/></clipPath></defs></svg>