<svg width="60" height="60" viewBox="0 0 60 60" fill="none" xmlns="http://www.w3.org/2000/svg"><g clip-path="url(#clip0)"><path d="M48.262 45.883l-7.695-5.431 2.099-2.552 6.789 6.502-1.193 1.48z" fill="#FBC5A2"/><path d="M50.978 47.98c-.083.083-.206.165-.288.247.658.37 1.193.947 1.48 1.646l.289.7c.082.205.329.329.535.205a.321.321 0 00.164-.164l-.74-1.111c-.617-.864-.988-.905-1.44-1.523z" fill="#E5A27C"/><path d="M51.636 46.17l-2.222-1.728-1.193 1.44c0 .124.082.247.123.37 0 0-.37.906.988 2.182.247.205.411.493.535.781l.535 1.194c.082.205.37.329.576.247a.44.44 0 00.246-.618l-.74-1.728s.041-.041.123-.082c.083-.083.206-.165.288-.247.494.617.823.658 1.44 1.563l.741 1.112.206.288c.082.123.206.164.329.123.206-.041.288-.247.206-.411l-1.07-2.84c-.165-.658-.576-1.234-1.111-1.646z" fill="#FBC5A2"/><path d="M32.667 21.565c-.494-1.564.37-3.25 1.934-3.745 1.564-.493 3.25.37 3.744 1.934l3.745 11.892-5.679 1.769-3.744-11.85z" fill="#F77A6D"/><path d="M36.407 33.484l5.69-1.79-.357-1.139-5.692 1.79.359 1.139z" fill="#CE4C3E"/><path d="M37.234 33.21l4.033-1.234 1.399 5.925-3.168.987-2.264-5.678z" fill="#FBC5A2"/><path d="M37.234 33.21l4.033-1.234.123.452-3.785 1.728-.37-.946z" fill="#F4876E"/><path d="M39.498 38.888c.247.576.576 1.11 1.029 1.564l2.098-2.552-3.127.988z" fill="#FBC5A2"/><path d="M37.11 14.611l.371.412.946 3.374-1.316-1.358v-2.428z" fill="#CE4C3E"/><path d="M32.461 13.83l1.687.74c3.374 1.481 5.555 4.855 5.555 8.558-.617 7.53-.658 15.06-.082 22.59l.082 1.07H25.178l.576-3.663.33-16.582c-.165-5.472 1.399-10.492 6.377-12.714z" fill="#EB6B56"/><path d="M31.474 14.323l6.418 4.073-.781-3.785-4.403-2.057-1.234 1.769z" fill="#F77A6D"/><path d="M27.153 46.788l11.275 5.143L28.1 69.995l-6.707-3.045 5.76-20.162z" fill="#28324E"/><path d="M19.007 45.802l-1.317-9.3 3.25-.205-.04 9.381-1.893.124z" fill="#FBC5A2"/><path d="M17.238 50.657l.535-1.235c.123-.288.164-.617.164-.946.041-1.934.947-2.263.947-2.263-.124.33-.124.7 0 1.029l.04.04a7.31 7.31 0 01.37 4.198l-.205.946c-.123.123-.288.206-.452.123-.206-.082-.288-.329-.206-.493l.288-.659c.288-.658.37-1.399.165-2.098l-.741 1.77c-.124.246-.37.37-.617.246-.288-.165-.412-.453-.288-.658z" fill="#C68E6D"/><path d="M20.9 45.679l.329 2.839c.04.7-.083 1.399-.37 2.016L19.5 53.332c-.082.164-.288.247-.452.123-.124-.082-.165-.205-.124-.329l.37-1.687c.33-1.399.165-2.88-.37-4.197l-.082-.04a1.334 1.334 0 01.165-1.4l1.892-.123z" fill="#FBC5A2"/><path d="M27.73 18.398a2.977 2.977 0 014.156-.74 2.977 2.977 0 01.741 4.155l-7.118 10.204-4.897-3.374 7.119-10.245z" fill="#F77A6D"/><path d="M20.607 28.616l4.902 3.4.68-.981-4.903-3.4-.68.981z" fill="#CE4C3E"/><path d="M21.352 29.138l3.456 2.386-3.868 4.773-2.674-1.893 3.086-5.266z" fill="#FBC5A2"/><path d="M21.352 29.138l3.456 2.386-.329.412-3.662-1.934.535-.864z" fill="#F4876E"/><path d="M18.266 34.404a3.285 3.285 0 00-.576 1.852v.247l3.292-.206-2.716-1.893z" fill="#FBC5A2"/><path d="M25.178 46.788h14.525v.247c0 3.991-3.25 7.242-7.242 7.242-3.99 0-7.241-3.25-7.241-7.242v-.247h-.041z" fill="#313E5B"/><path d="M27.73 50.574l11.808-3.786 4.485 20.326-6.994 2.222-9.3-18.762z" fill="#313E5B"/><path d="M37.111 14.611l.823-1.851 2.263.617c.124.041.247-.041.247-.165l.247-1.234.288-.37a.314.314 0 00.082-.206v-.411l.33-.124c.082-.041.164-.082.164-.206l.082-.329.74-.206s-.657-1.11-.863-1.728v-.123c.041-.37.082-.7.164-1.07.083-.288.083-.617.083-.905 0-2.716-2.47-4.938-5.514-4.938-3.004.041-5.472 2.222-5.472 4.938 0 1.687.946 3.168 2.427 4.073l-.288 2.263 4.197 1.975z" fill="#FBC5A2"/><path d="M41.472 1.692s.042 0 .165-.042l-.165.042z" fill="#1ABC9C"/><path d="M43.859 1.115s-.617.535-2.387.576c0 0 1.605-.534 1.893-1.522 0 0-.864.535-3.086.535s-9.875-3.744-9.505 4.32c0 0-1.81 2.963 2.346 5.967 0 0 1.44-1.358 2.839-1.81a1.053 1.053 0 01-.33-.783c0-.576.412-1.028.947-1.028.535 0 .946.452.946 1.028 0 .247-.082.453-.205.659.247-.041.452-.247.452-.494V7.534c0-.205.124-.411.288-.535l.124-.082c.247-.123.411-.411.411-.7V4.655s2.099-.33 3.086.494c0 .04 3.745-.659 2.181-4.033z" fill="#28324E"/><path d="M30.775 5.066s-1.81 2.962 2.345 5.966c0 0 1.44-1.358 2.839-1.81a1.054 1.054 0 01-.33-.782c0-.576.412-1.029.947-1.029.535 0 .947.453.947 1.029 0 .247-.083.452-.206.658.247-.041.452-.247.452-.494V7.576c0-.206.124-.412.288-.535l.124-.083c.247-.123.411-.411.411-.7V4.696s-4.896-2.798-7.817.37z" fill="#313D59"/><path d="M41.39 10.908c.082-.041.164-.082.164-.206l-1.07.124.577.164.329-.082z" fill="#E87967"/><path d="M41.06 10.99l-.575-.164.493.782a.315.315 0 00.083-.206v-.411zM40.773 6.917c-.206 0-.411.33-.411.782 0 .411.164.782.411.782.206 0 .412-.33.412-.782 0-.453-.206-.782-.412-.782z" fill="#F4876E"/><path d="M41.102 7.657c0 .37-.164.659-.33.659-.205 0-.328-.288-.328-.659 0-.37.164-.658.329-.658.164 0 .33.288.33.658z" fill="#343433"/><path d="M40.855 7.658c0 .082-.041.164-.082.164s-.082-.082-.082-.164c0-.083.04-.165.082-.165.041 0 .082.082.082.165z" fill="#fff"/><path d="M41.102 7.452s-.288-.412-.7 0c0 0 .083-.453.33-.494.288 0 .37.494.37.494zM42.378 10.168h-.74l.04.206.7-.206z" fill="#F4876E"/><path d="M41.184 6.711h-1.357s1.358-.864 1.358 0z" fill="#28324E"/><path d="M41.472 1.691s.33 1.893-2.88 3.004c0 0 2.099-.329 3.086.494 0 0 3.744-.7 2.18-4.032 0-.042-.616.493-2.386.534z" fill="#DDC872"/><path d="M37.193 8.316a.475.475 0 00-.493-.494.475.475 0 00-.494.494c0 .206.123.37.288.453V50.12c0 .411-.33.74-.74.74h-.042c-.617 0-1.152.535-1.152 1.152v.741h.411v-.74c0-.412.33-.741.741-.741a1.15 1.15 0 001.152-1.152V8.769c.206-.083.33-.247.33-.453z" fill="#fff"/><path d="M36.7 8.563a.247.247 0 100-.494.247.247 0 000 .494z" fill="#0F0"/><path d="M39.043 50.392l-4.99 2.143.308.719 4.99-2.143-.308-.718z" fill="#28324E"/></g><defs><clipPath id="clip0"><path fill="#fff" d="M0 0h60v60H0z"/></clipPath></defs></svg>