<svg width="60" height="60" viewBox="0 0 60 60" fill="none" xmlns="http://www.w3.org/2000/svg"><g clip-path="url(#clip0)"><path d="M47.498 43.752s-.387 4.335-.387 5.313c-.203.977.387 2.158-.203 3.339-.59 1.18-3.339-1.568-3.339-1.568s-.793-2.159-.978-3.155c-.203-.978-.793-8.264-.793-8.264l4.723-.59.977 4.925zM36.466 11.283s-.203 2.362-.977 3.155l-.59 2.564 2.748 2.564-5.7 4.52-6.107-2.767-1.365-4.52s2.361-.59 2.749-.977c.203-.388.387-1.181.387-1.771 0-.794.203-1.181.203-1.181s-.203-2.361-.203-3.542c0-.978.978-5.313.978-5.313l5.903-.793 2.565 3.542v3.542l-.59.977z" fill="#FFD15C"/><path d="M36.466 11.283s-.203 2.362-.977 3.155l-.59 2.564 2.748 2.564-5.7 4.52-6.107-2.767-1.365-4.52s2.361-.59 2.749-.977c.203-.388.387-1.181.387-1.771 0-.794.203-1.181.203-1.181s-.203-2.361-.203-3.542c0-.978.978-5.313.978-5.313l5.903-.793 2.565 3.542v3.542l-.59.977z" fill="#FFD15C"/><path d="M31.947 19.364c-.794 0-2.362-.388-.388-1.18 2.361-1.181 3.93-3.746 3.93-3.746s-1.384 1.18-2.159 1.568c-.387.203-1.383.388-2.749-.203-1.383-.59-2.748-2.748-2.748-2.748s0 .387-.203 1.18c0 .794-.203 1.384-.388 1.771-.184.388-2.748.978-2.748.978l1.383 4.52 1.974.977c2.712-.756 4.889-3.117 4.096-3.117z" fill="#F5B54C"/><path d="M27.814 5.381l-.203.59s-.203.794 0 1.569c.203.59.203 1.568.203 1.568s.203-3.34 1.568-4.336l1.384-1.18-2.952 1.79zM36.669 6.562c0 .203-.203 3.339-.203 3.339h.203s.203-1.18.387-1.568c.203-.388.203-1.568 0-2.362-.184-.977-.387.59-.387.59z" fill="#425A6B"/><path d="M37.462 7.152s.203-2.362-.202-3.542c-.203-1.18-.59-2.362-2.362-3.155-1.77-.793-3.339-.387-4.52 0-1.383.59-1.567 1.18-1.77 1.568-.203.59-.794 3.155-.978 3.745v.203c.203-.203 2.158-1.771 3.339-1.771 1.18-.203 1.568-.203 2.564.203.978.387 3.542 2.749 3.542 2.749h.387z" fill="#48B9A5"/><path d="M27.611 5.971c0 .203 0 .978.388.794.387-.203.977-1.181 2.158-1.771 1.18-.59 1.384-.794 2.749-.59 1.383.387 3.339 2.158 3.745 2.564.405.405.793 0 .793 0s-.388-.978-1.771-1.771c-1.384-.978-2.952-2.159-5.516-1.181a8.864 8.864 0 00-2.546 1.955z" fill="#67C5B8"/><path d="M28.017 8.923c0 .978-.203 1.771-.387 1.771-.387 0-.59-.793-.793-1.77 0-.978.203-1.772.387-1.772.203 0 .793.794.793 1.771zM36.281 10.104c-.203.978 0 1.77.203 1.974.388 0 .794-.794.978-1.771.185-.978 0-1.771-.203-1.974-.387-.185-.793.59-.978 1.77z" fill="#FFD15C"/><path d="M25.065 16.8s4.133 3.745 6.697 4.925c0 0 2.564-.59 3.154-2.361.388-1.384-.203-2.361-.203-2.361s1.771.977 2.565 1.383c.793.406 3.929 2.362 4.722 3.155.59.793 1.974 4.723 2.361 5.903.388 1.18 2.565 10.829 2.75 12.397.202 1.568-.204 4.52-.204 4.52l-4.335.793-12.784-11.807-10.423 9.649s.203-1.974-.388-3.745c-.59-1.568-1.18-5.313-1.18-5.313l.977-1.974s-5.312-2.159-6.29-3.34c0 0 1.383-3.154 1.974-4.131.387-.978 1.974-4.133 3.154-4.723.978-.793 2.952-1.18 4.336-2.159 1.346-.608 3.117-.811 3.117-.811z" fill="#F3F3F3"/><path d="M45.136 42.571c.203 0 .59.388.59.388s-.59.59-.59.793c0 .203.203 0 .203 0s-.203.59.203.977c0 0 .59-.59.59-.977v.793c0 .203.203 0 .203 0s-.203.387 0 .59c.203.388.978.203.978-.59 0 0 .59.59.59.387 0 0 .794.388.794.203 0 0 .59.388.793.388 0 0 0-.59-.203-.794h.203s-.388-.387-.203-.59c0-.203-.978-.387-.978-.387s.59-.203.794-.203c0 0-.59-.793-1.384-.793l.203-.203s-.59-.203-1.974.203l-.812-.185z" fill="#48B9A5"/><path d="M27.427 15.62v2.563c0 .794.59 8.468.59 8.468l9.058.387s-1.974-7.287-2.159-7.877c-.202-.59-.202-1.77-.202-1.77s.387.977.793 1.567c.387.59 1.383 2.952 1.77 4.133.204 1.18.978 4.335.978 4.335l1.384 8.467s.59 18.337.978 22.47c-3.542 1.402-3.542 1.402-7.472 1.586-3.929.185-3.745-.203-8.264 0-4.723.203-6.66-1.033-8.652-1.383 0-2.159 1.383-8.69 1.974-11.05.793-2.362.977-4.133.977-4.133s4.723-5.7 5.516-8.062c.794-2.158 1.771-6.106 1.384-8.855-.424-2.785-.627-8.689-.24-9.87.406-.184 1.384-.59 1.587-.977z" fill="#344A5E"/><path d="M44.343 48.88l-1.568 7.085c-.203.59-2.361.977-4.925.793-2.565-.203-4.723-.978-4.723-1.568l-.59-7.471c0-.794 2.748-1.181 5.903-.978 3.34.369 5.903 1.346 5.903 2.14z" fill="#F26F5A"/><path d="M44.934 47.7l-.203 1.771c0 .794-2.952 1.384-6.494.978-3.542-.387-6.29-1.384-6.106-2.158l.203-1.771c0-.794 2.951-1.384 6.493-.978 3.358.387 6.107 1.365 6.107 2.158z" fill="#F05640"/><path d="M44.902 47.687c.08-.863-2.66-1.821-6.12-2.142-3.458-.32-6.327.12-6.407.982-.08.862 2.66 1.82 6.119 2.14 3.459.321 6.328-.118 6.408-.98z" fill="#F26F5A"/><path d="M44.131 47.616c.06-.65-2.35-1.403-5.383-1.684-3.033-.281-5.54.018-5.601.667-.06.65 2.35 1.403 5.383 1.684 3.033.28 5.541-.018 5.601-.667z" fill="#F05640"/><path d="M36.08 42.184c.202 0 .59.203.59.203s-.388.59-.388.793c0 .203.203 0 .203 0s0 .59.388.978c0 0 .59-.59.387-.978 0 0 .203.59.203.794 0 .202.203 0 .203 0s-.203.387 0 .59c.203.387.978 0 .793-.59 0 0 .59.387.793.387l.794.203s.59.203.977.203c0 0 0-.59-.387-.794h.203s-.387-.387-.387-.59c0-.203-.978-.203-.978-.203s.59-.203.793-.203c0 0-.793-.59-1.568-.59l.203-.203s-.59-.203-1.771.388l-1.052-.388zM32.15 34.509s-.59.387-.793.387c-.203 0-.203-.59-.203-.59l-.793 1.18.203-.793-1.569.794s.388-.794.978-.794l-.387-.203s1.18-.203 1.568-.203c.387 0 .59-.203 1.384 0 .977.203 1.18.59 1.18.59s-1.384-.756-1.568-.368z" fill="#48B9A5"/><path d="M34.308 33.92s.59-.204.793-.388c.203-.203-.387-.388-.387-.388h1.383l-.793-.387 1.568-.793s-.793-.203-1.383.203v-.388s-.794.794-1.181.978c-.203.387-.59.387-.978 1.18 0 .204-.203.204-.203.388 0 .203.203.203.203.203.388-.406.59-.609.978-.609z" fill="#48B9A5"/><path d="M34.308 33.532s1.18-1.18.977-1.974c-.203-.59-.59.978-.793 1.18 0 0 .388-1.18-.59-1.77 0 0-.203.59-.203 1.18 0 0-.59-.387-.59.203l.202.59s-.387-.977-.793-1.18c0 0-.387.203-.203.59 0-.203-.387-.387-.977-.387 0 0 .202.387.387.59l-.59.203c0 .203.387.388.387.388s-.59.202-1.18.202c0 0 0 .59 1.18.59 1.015.185 1.808.185 2.786-.405z" fill="#F26F5A"/><path d="M33.035 34.437a.59.59 0 100-1.181.59.59 0 000 1.18z" fill="#48B9A5"/><path d="M38.237 49.471h.59c-.203-1.18-.387-2.951-1.18-5.903-1.568-5.903-4.133-9.833-4.133-9.833l-.387.203s2.564 3.745 4.132 9.648c.59 2.934.794 4.89.978 5.885z" fill="#48B9A5"/><path d="M35.876 39.232c-.203 0-.59.203-.59.203s.59.59.59.793c0 .203-.203 0-.203 0s.203.59-.203.978c0 0-.59-.59-.59-.978v.794c0 .203-.203 0-.203 0s.203.387 0 .793c-.203.388-.978.203-.978-.59 0 0-.59.59-.59.387 0 0-.793.387-.793.203 0 0-.59.388-.794.388 0 0 0-.59.203-.794h-.166s.388-.387.388-.59c0-.203.977-.388.977-.388s-.59-.203-.793-.203c0 0 .59-.793 1.384-.793l-.203-.203s.59-.203 1.974.203l.59-.203zM37.647 43.752c-.203 0-.59.203-.59.203s.59.59.59.793c0 .203-.203 0-.203 0s0 .59-.203.978c0 0-.59-.59-.59-.978v.793c0 .203-.203 0-.203 0s.203.388 0 .794c-.203.387-.978 0-.978-.59l-.59.387-.794.203s-.59.203-.793.203c0 0 0-.59.203-.794h-.203s.388-.387.388-.59c0-.203.977-.387.977-.387s-.59-.203-.793-.203c0 0 .793-.59 1.384-.59l-.203-.203s.59-.203 1.974.202l.627-.221zM35.286 38.053c0-.388.59-1.181.59-1.181l-.59-.59c0-.203.203-.203.203-.203s-.203-.59 0-.978c0 0 .59.387.59.793v-.59c0-.203.203 0 .203 0s-.203-.203 0-.59c.203-.388.978-.203.793.387l.59-.387.794-.203s.59-.203.977-.203c0 0 0 .387-.387.59h.203s-.387.387-.387.59c0 .203-.794.388-.794.388s.59 0 .794.203c0 0-.59.59-.978.793l.203.203s-.388.387-1.384 0c-1.014 0-1.42.59-1.42.977zM37.26 43.162c0-.387.59-1.18.59-1.18l-.59-.591c0-.203.203-.203.203-.203s-.203-.59 0-.978c0 0 .59.388.59.794v-.59c0-.204.203 0 .203 0s-.203-.204 0-.591c.203-.388.978-.203.793.387l.59-.387.794-.203s.59-.203.978-.203c0 0 0 .387-.388.59h.203s-.387.388-.387.59c0 .204-.794.388-.794.388s.59 0 .794.203c0 0-.59.59-.978.793l.203.203s-.388.388-1.384 0c-1.033 0-1.217.59-1.42.978z" fill="#48B9A5"/><path d="M34.695 36.484c0-.387.59-1.18.59-1.18l-.59-.59c0-.204.203-.204.203-.204s-.203-.59 0-.977c0 0 .59.387.59.793v-.59c0-.203.204 0 .204 0s-.203-.203 0-.59c.203-.388.977-.204.793.386l.59-.387.793-.203s.59-.203.978-.203c0 0 0 .388-.387.59h.203s-.388.388-.388.59c0 .204-.793.388-.793.388s.59 0 .793.203c0 0-.59.59-.977.794l.203.202s-.388.388-1.384 0c-1.015-.018-1.42.572-1.42.978zM42.37 36.08l.387.387s-.793.387-.793.59c0 .203.203.203.203.203s-.203.59 0 .977c0 0 .793-.387.793-.793 0 0 0 .59-.203.793 0 .203.203.203.203.203s-.387.203-.203.59c.203.388.978.388.978-.387 0 0 .387.59.59.59 0 0 .59.388.793.388 0 0 .388.387.794.59 0 0 .203-.59 0-.793h.203s-.203-.387-.203-.59c0-.203-.794-.59-.794-.59h.794s-.59-.794-1.181-.978l.203-.203s-.59-.388-1.974-.203l-.59-.775z" fill="#48B9A5"/><path d="M53.198 37.664l.388.59c.203 0 .387-.387.387-.387l.203 1.384.203-.794.978 1.384s0-.793-.388-1.18h.388s-.978-.794-1.18-.979c-.388-.203-.388-.387-1.385-.59-.977-.203-1.18 0-1.18 0s1.586.166 1.586.572z" fill="#67C5B8"/><path d="M51.63 36.078l-.59-.59c0-.203.59-.203.59-.203l-1.18-.59h.793l-.978-1.385s.793.203.978.794l.203-.388s.387.978.59 1.384c.203.387.203.387.203 1.384v.387c0 .184-.203.203-.203 0-.019-.387-.221-.793-.406-.793z" fill="#67C5B8"/><path d="M51.815 35.69s-.388-1.568 0-2.158c.387-.387 0 1.18.203 1.384 0 0 .203-1.384 1.383-1.181 0 0 0 .59-.387 1.18 0 0 .793 0 .387.388l-.387.387s.793-.793 1.383-.793c0 0 .388.388 0 .59 0 0 .59.203.978.203 0 0-.387.388-.793.388 0 0 .387.387.387.59 0 .203-.59.203-.59.203s.387.387.978.793c0 0-.388.59-1.384 0-.775-.59-1.568-.996-2.158-1.974z" fill="#F26F5A"/><path d="M52.81 37.074a.59.59 0 100-1.18.59.59 0 000 1.18z" fill="#67C5B8"/><path d="M40.211 49.268l-.387-.203s.387-1.384 4.52-5.904c4.132-4.52 8.264-6.696 8.264-6.696l.203.387s-4.132 2.159-8.062 6.697c-4.15 4.335-4.538 5.719-4.538 5.719z" fill="#67C5B8"/><path d="M47.885 40.026c0 .203.388.59.388.59s-.793.204-.978.388c0 .203.203.203.203.203s-.387.59-.387.978c0 0 .793-.203.977-.59 0 0-.203.59-.387.59-.203.203.203.203.203.203s-.388.203-.388.59c0 .387.794.59.978 0 0 0 .203.793.388.793 0 0 .387.59.59.59 0 0 .387.59.59.59 0 0 .388-.59.203-.792h.203s-.203-.59 0-.794c.203-.203-.59-.793-.59-.793s.59.203.793.203c0 0-.203-.978-.793-1.18l.203-.203s-.388-.59-1.771-.794l-.425-.572zM43.956 43.162c0 .203.388.388.388.388l-.794.387c0 .203.203.203.203.203s-.387.59-.203.978c0 0 .794-.203.978-.59 0 0-.203.59-.203.793 0 .202.203.202.203.202s-.387.203-.387.59c0 .388.793.591.977-.202 0 0 .203.793.388.793l.59.59s.388.59.59.59c0 0 .388-.59.203-.792h.203s-.203-.388 0-.794c.203-.203-.793-.793-.793-.793s.59.203.793.203c0 0-.387-.978-.977-1.18l.203-.204s-.388-.387-1.771-.59l-.59-.572z" fill="#67C5B8"/><path d="M41.189 48.088s-.203.59 0 .977c0 0 .793-.387.793-.793 0 .203 0 .59-.203.59 0 .203.203.203.203.203s-.203.203-.203.388h2.952v-.203c0-.203-.794-.59-.794-.59h.794s-.59-.794-1.181-.978l.203-.203s-.59-.387-1.974-.203l-.59-.387.387.387s-.793.387-.793.59c.221.222.406.222.406.222z" fill="#48B9A5"/><path d="M48.863 39.232c.203-.387 0-1.18 0-1.18s.793-.203.978-.203c0-.203-.203-.203-.203-.203s.387-.388.387-.794c0 0-.793.203-.978.388 0 0 .388-.388.388-.59.203-.203 0-.203 0-.203s.387-.204.387-.388c0-.387-.793-.59-.978 0 0 0-.203-.59-.387-.59l-.59-.59s-.388-.388-.793-.59c0 0-.203.386 0 .59h-.203s.203.387 0 .59c0 .203.59.793.59.793s-.59-.203-.793-.203c0 0 .203.793.59 1.18 0 0-.203 0-.203.204 0 0 .203.387 1.18.793.628.018.628.609.628.996zM44.73 42.774c.203-.387 0-1.18 0-1.18s.794-.203.978-.203c0-.203-.203-.203-.203-.203s.388-.388.388-.794c0 0-.794.203-.978.388 0 0 .387-.388.387-.59.203-.203 0-.203 0-.203s.388-.203.388-.388c0-.387-.793-.59-.978 0 0 0-.203-.59-.387-.59l-.59-.59s-.388-.388-.794-.59c0 0-.203.386 0 .59h-.203s.203.387 0 .59c0 .203.59.793.59.793s-.59-.203-.793-.203c0 0 .203.793.59 1.18 0 0-.202 0-.202.204 0 0 .203.387 1.18.793.627.018.627.793.627.996 0 0 0 .203 0 0zM49.454 33.531l.59.388c.203 0 .203-.59.203-.59l.793 1.18v-.793l1.568.793s-.387-.793-.978-.978l.388-.203s-1.18-.387-1.568-.387c-.388 0-.59-.203-1.384 0-.793.203-1.18.387-1.18.387s1.383-.203 1.568.203zM47.295 32.738s-.59-.203-.793-.387c0-.203.387-.388.387-.388h-1.384l.794-.387-1.568-.978s.793-.203 1.18.387v-.387s.794.793.978 1.18c.184.388.387.388.793 1.181 0 .203 0 .203.203.388 0 .203-.203.203-.203 0 .203-.406 0-.812-.387-.609z" fill="#67C5B8"/><path d="M47.295 32.148s-.978-1.383-.793-1.974c.203-.59.387.978.59 1.384 0 0-.387-1.18.793-1.77 0 0 .203.59 0 1.18 0 0 .59-.203.59.387 0 .59-.202.59-.202.59s.387-.977.977-1.18c0 0 .388.203.203.59 0 0 .59-.203.978-.203 0 0-.203.388-.59.59 0 0 .59.203.59.388 0 .203-.59.387-.59.387s.59.203 1.18.388c0 0-.203.59-1.18.387-.775-.166-1.568-.35-2.546-1.144z" fill="#FFD15C"/><path d="M48.512 33.33a.59.59 0 100-1.182.59.59 0 000 1.181z" fill="#67C5B8"/><path d="M41.188 49.268s-.203-1.383 1.974-7.287c2.159-5.7 5.11-9.445 5.11-9.445l.388.387s-2.952 3.542-4.926 9.243c-1.974 5.516-1.974 7.084-1.974 7.084l-.572.018z" fill="#67C5B8"/><path d="M43.753 35.69l.59.204c.203 0 0-.388 0-.388l.978.794-.203-.794 1.383.388s-.387-.59-.977-.59l.203-.388h-1.384c-.406 0-.59 0-1.18.387-.794.388-.794.59-.794.59s1.18-.405 1.384-.202z" fill="#48B9A5"/><path d="M41.982 35.488s-.59 0-.59-.203l.203-.387-1.181.387.59-.59-1.383-.388s.59-.387 1.18 0l-.387-.203s.793.388 1.18.59c.388.204.388.204.978.794 0 .203.203.203.203.203s0 .203-.203.203c-.203-.203-.387-.406-.59-.406z" fill="#48B9A5"/><path d="M41.78 35.303s-1.181-.793-1.181-1.384c0-.59.59.59.977.794 0 0-.59-.978.203-1.569 0 0 .203.388.388.978 0 0 .387-.387.387.203v.59s.203-.977.387-1.18c0 0 .388 0 .388.387 0 0 .387-.203.793-.387 0 0 0 .387-.203.59 0 0 .59 0 .59.203.203.203-.387.388-.387.388h.978s0 .59-.794.59c-.94-.019-1.53-.019-2.527-.203z" fill="#F26F5A"/><path d="M41.595 49.47c-.203-.793-.203-2.36-.203-5.11.203-5.11 1.568-8.651 1.568-8.854l-.388-.203s-1.383 3.745-1.568 9.058c0 2.748 0 4.335.203 5.313h.388v-.203z" fill="#67C5B8"/><path d="M40.008 49.066c0-.794 0-2.362.387-4.926.793-4.925 2.564-8.467 2.564-8.467l-.387-.203s-1.771 3.542-2.564 8.652c-.388 2.564-.388 4.132-.388 4.925l.388.019z" fill="#48B9A5"/><path d="M43.157 35.817c.168-.133.141-.448-.06-.704-.202-.256-.502-.356-.67-.224-.168.133-.141.447.06.704.202.256.502.356.67.224zM41.594 40.21c.203 0 .59.204.59.204s-.387.59-.387.793c0 .203.203 0 .203 0s0 .59.388.793c0 0 .387-.59.387-.977 0 0 .203.387.203.59 0 .203.203 0 .203 0s-.203.387 0 .59c.203.203.793 0 .59-.59 0 0 .59.387.59.203 0 0 .59.203.794 0 0 0 .59.203.793.203 0 0 0-.59-.387-.59 0 0-.388-.204-.388-.388 0-.203-.793-.203-.793-.203s.59-.203.59-.387c0 0-.59-.388-1.18-.388v-.203s-.59 0-1.568.388l-.628-.037z" fill="#48B9A5"/><path d="M40.802 44.546c.203 0 .59.203.59.203l-.387.59c0 .203.203 0 .203 0s0 .59.387.793c0 0 .387-.59.203-.977 0 0 .203.387.203.59 0 .203.203 0 .203 0s-.203.387.203.59c.203.203.793-.203.59-.59l.59.203s.59.203.793 0c0 0 .59.203.794 0 0 0 0-.59-.388-.59 0 0-.387-.203-.387-.388 0-.184-.793 0-.793 0s.387-.203.59-.387c0 0-.793-.388-1.18-.203v-.203s-.591 0-1.569.59l-.645-.221zM41.982 39.233c-.203-.387-.59-.793-.59-.793l.387-.59c0-.203-.203 0-.203 0s0-.59-.202-.794c0 0-.388.388-.388.794v-.59c0-.204-.203 0-.203 0s.203-.204 0-.591c-.203-.203-.793 0-.59.387l-.59-.203h-.59-.794s.203.388.387.388c0 0 .388.203.388.387 0 .203.793.203.793.203s-.387.203-.59.203c0 0 .59.387.977.387 0 0 0 .203-.203.203 0 0 .388.203 1.181-.203.037.019.627.61.83.812-.203 0-.203 0 0 0zM41.19 43.753c-.204-.388-.591-.794-.591-.794l.387-.59c0-.203-.203 0-.203 0s0-.59-.203-.793c0 0-.387.387-.387.793v-.59c0-.203-.203 0-.203 0s.203-.203 0-.59c-.203-.204-.793 0-.59.387l-.59-.203h-.591-.793s.203.387.387.387c0 0 .388.203.388.388 0 .203.793.203.793.203s-.388.203-.59.203c0 0 .59.387.977.387 0 0 0 .203-.203.203 0 0 .388.203 1.181-.203.24.221.646.627.83.812zM42.96 32.536s.59.388.793.203c.203 0 0-.59 0-.59l.978.978-.203-.794 1.771.59s-.59-.793-1.18-.793l.387-.387h-1.568c-.388 0-.59-.203-1.384.203-.793.387-1.18.59-1.18.59s1.402-.387 1.586 0z" fill="#67C5B8"/><path d="M40.802 32.149s-.59-.203-.793-.203c0-.203.387-.388.387-.388l-1.384.203.59-.59-1.77-.59s.793-.203 1.383 0v-.388s.978.59 1.181.978c.387.203.59.203.978.978 0 .203.203.203.203.387 0 .185-.203.203-.203.203.018-.387-.37-.59-.572-.59z" fill="#67C5B8"/><path d="M40.801 31.76s-1.18-1.18-1.18-1.77c0-.59.59.978.977 1.18 0 0-.59-1.18.388-1.77 0 0 .203.59.203 1.18 0 0 .59-.387.59.203v.59s.203-.977.59-1.383c0 0 .388 0 .388.59 0 0 .59-.203.978-.387 0 0 0 .387-.388.793 0 0 .59 0 .793.203.203.203-.387.59-.387.59s.59.203 1.18 0c0 0 0 .59-1.18.793-1.18-.424-1.974-.22-2.952-.811z" fill="#FFD15C"/><path d="M41.983 32.554a.59.59 0 100-1.181.59.59 0 000 1.18z" fill="#67C5B8"/><path d="M38.644 49.47c0-.387-.203-2.158.387-7.286.793-6.106 2.952-10.036 2.952-10.036l-.388-.203s-2.158 4.133-3.154 10.239c-.794 4.722-.59 6.696-.388 7.287h.59z" fill="#67C5B8"/><path d="M39.824 37.46c.203 0 .59.204.59.204l-.59.793c0 .203.203 0 .203 0s0 .59.203.978c0 0 .59-.59.59-.978v.793c0 .203.203 0 .203 0s-.203.388 0 .794c.203.387.978 0 .794-.59 0 0 .59.387.793.387l.793.203s.59.203.793.203c0 0 0-.59-.203-.794h.203s-.387-.387-.387-.59c0-.203-.978-.203-.978-.203s.59-.203.793-.203c0 0-.793-.59-1.383-.59l.203-.203s-.59-.203-1.974.387l-.646-.59zM38.44 42.387c.204 0 .591.203.591.203s-.59.793-.387.793c0 .203.203 0 .203 0s0 .59.387.978c0 0 .59-.59.387-1.18 0 0 .203.59.203.792 0 .203.203 0 .203 0s-.203.388 0 .794c.203.387.978 0 .793-.794 0 0 .59.388.794.388 0 0 .793.203.793 0 0 0 .59.203.793.203 0 0 0-.59-.387-.794h.203s-.388-.387-.388-.59c0-.203-.977-.203-.977-.203s.59-.203.793-.387c0 0-.793-.59-1.384-.388l.203-.203s-.59-.202-1.77.388H38.44zM40.414 36.28c-.203-.387-.59-.977-.59-.977s.59-.59.59-.794c0-.203-.203 0-.203 0s.203-.59 0-.977c0 0-.59.59-.59.977v-.793c0-.203-.203 0-.203 0s.203-.387 0-.59c-.203-.203-.978 0-.793.387l-.59-.387s-.794-.203-.794 0c0 0-.59-.203-.978-.203 0 0 .203.387.388.59h-.203s.387.203.387.388c0 .184.794.202.794.202s-.59.203-.794.203c0 0 .59.59 1.181.59l-.203.204s.387.203 1.384 0c.627.387 1.014.977 1.217 1.18 0 0-.203.203 0 0zM38.828 41.594c-.203-.388-.59-.978-.59-.978s.59-.59.59-.793c0-.203-.203 0-.203 0s.203-.59 0-.978c0 0-.59.59-.59.978v-.793c0-.203-.203 0-.203 0s.203-.388 0-.59c-.203-.204-.978 0-.794.387l-.59-.388s-.793-.203-.793 0c0 0-.59-.203-.978-.203 0 0 .203.388.387.59h-.203s.388.204.388.388c0 .203.793.203.793.203s-.59.203-.793.203c0 0 .59.59 1.18.59l-.202.203s.387.203 1.383 0c.627.388 1.033.978 1.218 1.18 0 0 0 .204 0 0z" fill="#67C5B8"/><path d="M38.643 37.258s.59.387.793.203c.203 0 0-.59 0-.59l1.18.977-.387-.793 1.771.59s-.59-.793-1.18-.793l.387-.387H39.64c-.387 0-.59 0-1.384.203-.793.387-.977.59-.977.59s.959-.387 1.365 0z" fill="#48B9A5"/><path d="M36.282 36.871s-.59-.202-.793-.202c-.203-.203.203-.388.203-.388l-1.181.203.59-.59-1.77-.59s.792-.204 1.383 0l-.203-.388s.978.59 1.383.793c.388.203.59.203 1.181.978 0 .203.203.203.203.387 0 .203 0 .203-.203.203-.203-.203-.609-.608-.793-.406z" fill="#67C5B8"/><path d="M36.282 36.483s-1.384-.977-1.384-1.77c0-.59.793.793.978 1.18 0 0-.793-1.18.203-1.77 0 0 .387.59.387 1.18 0 0 .59-.388.59.203v.59s.203-.978.59-1.384c0 0 .388 0 .388.59 0 0 .388-.202.793-.387 0 0 0 .388-.203.59 0 0 .59 0 .794.204.203.202-.388.59-.388.59s.59.203 1.181 0c0 0 0 .59-.978.59-1.18-.018-1.77-.018-2.951-.406z" fill="#FFD15C"/><path d="M37.85 36.281c.203.388.203.59 0 .793-.203.203-.59 0-.794-.203-.203-.387-.203-.59 0-.793.203-.203.59 0 .794.203z" fill="#67C5B8"/><path d="M35.876 49.47v-2.748c.203-5.903 1.771-9.833 1.771-9.833l-.387-.203s-1.568 4.133-1.771 10.036v2.749h.387z" fill="#48B9A5"/><path d="M36.281 41.004c-.203-.387-.793-.978-.793-.978s.59-.59.59-.793c0-.203-.203 0-.203 0s0-.59-.202-.978c0 0-.388.388-.388.794v-.59c0-.204-.203 0-.203 0s.203-.204 0-.591c-.203-.203-.977 0-.793.387 0 0-.59-.387-.793-.387 0 0-.794-.203-.794 0 0 0-.59-.203-.977-.203 0 0 .203.387.387.59 0 0 .387.203.387.388 0 .203.978.203.978.203l-.59.203s.793.59 1.18.59c0 0 0 .203-.202.203 0 0 .59.203 1.383 0 .443.184.83.775 1.033 1.162zM35.488 46.114c-.203-.387-.793-.977-.793-.977s.59-.59.59-.794c0-.203-.203 0-.203 0s0-.59-.203-.977c0 0-.387.387-.387.793v-.59c0-.203-.203 0-.203 0s.203-.203 0-.59c-.203-.204-.978 0-.793.387 0 0-.59-.388-.794-.388 0 0-.793-.203-.793 0 0 0-.59-.203-.977-.203 0 0 .202.388.387.59 0 0 .387.204.387.388 0 .203.978.203.978.203l-.59.203s.793.59 1.18.59c0 0 0 .203-.203.203 0 0 .59.203 1.384 0 .443.388.83.978 1.033 1.162z" fill="#67C5B8"/><path d="M42.775 51.242s-1.18.203-.793 1.18c.387.979 1.18.979 1.18.979s-.793.59-1.567.59c-.794-.203-3.542-.793-3.93-.793-.387 0-1.18.59-.59 1.18 0 0-.59-.387-1.18 0-.591.59.387.978.792.978.388.203 1.569.793 1.569.793s-2.159-.387-2.362.388c-.203.793.59.793 1.384 1.18.793.388 1.568.59 2.158.794.59 0 .978-.388 1.974-.388.978 0 1.771-.793 2.749-1.568.977-.793 1.568-1.18 2.361-1.568.59-.387 1.18-1.77 1.18-2.361 0 0-2.564-2.564-3.541-2.159-.388.203-.59.388-.794.59 0-.018-.202-.018-.59.185z" fill="#425A6B"/><path d="M44.934 47.7l-.203 1.771c0 .793-2.952 1.384-6.494.978-3.542-.387-6.29-1.384-6.106-2.158l.203-1.771h.793c0 .59 2.361 1.383 5.516 1.568 3.155.184 5.516 0 5.7-.59l.59.202z" fill="#F05640"/><path d="M44.934 47.7c-.203.793-2.952 1.384-6.494.978-3.542-.387-6.29-1.384-6.106-2.158h.793c0 .59 2.361 1.383 5.516 1.568 3.154.184 5.516 0 5.7-.59l.59.202z" fill="#F26F5A"/><path d="M35.691 47.11c-.202 0-.59.202-.59.202s0-.793-.203-.977c-.203 0-.203.203-.203.203s-.387-.388-.793-.59c0 0 0 .792.387.977 0 0-.387-.387-.59-.387-.203-.203-.203 0-.203 0s0-.388-.59-.388c-.387 0-.793.59-.203.978 0 0-.793 0-.793.203 0 0-.794.203-.794.387 0 0-.59.203-.793.388 0 0 .388.387.793.387v.203s.59 0 .794.203c.203.203.978-.388.978-.388s-.388.59-.388.794c0 0 .978 0 1.568-.388v.203s.59-.203 1.18-1.383l.444-.628z" fill="#48B9A5"/><path d="M35.691 47.294v.59s.793-.387.978-.203c.203 0 0 .203 0 .203s.59.203.793.59c0 0-.793.388-1.18.204 0 0 .59.203.793.387.203 0 0 .203 0 .203s.387-.203.59.203c.203.387-.203.978-.793.59l.203.793s0 .794-.203.794v.977s-.59-.203-.59-.59h-.203s-.203-.387-.388-.59c-.203 0 0-.978 0-.978s-.387.59-.59.59c0 0-.388-.977-.203-1.568h-.388s0-.793.978-1.77l.203-.425z" fill="#48B9A5"/><path d="M38.237 46.906c0 .203.388.388.388.388l-.794.387c0 .203.203.203.203.203s-.387.59-.203.978c0 0 .794-.203.978-.59 0 0-.203.59-.203.793-.387.203-.203.203-.203.203s-.387.203-.387.59c0 .387.793.59.978-.203 0 0 .203.793.387.793l.59.59s.388.59.59.59c0 0 .388-.59.204-.792h.203s-.203-.388 0-.794c.202-.203-.59-.793-.59-.793s.59.203.792.203c0 0-.387-.978-.977-1.18l.203-.203s-.388-.388-1.771-.59l-.388-.573z" fill="#67C5B8"/><path d="M19.347 55.171s.59-.793.793-.203c0 0 .59-.387.793.388.203.793-.203 2.361-.203 2.361s-.977 1.771-1.383 1.568c0 0-.388.794-1.568.388-1.181-.388-2.362-1.569-2.362-1.569l.203-1.77c.185.22 3.542-1.55 3.727-1.163z" fill="#425A6B"/><path d="M16.598 47.294c0 .978 1.77 3.542 1.77 3.542l-3.338.793s-1.384-1.973-1.974-2.564c-.59-.793-2.952-5.903-2.952-5.903s-1.18-2.361-.793-4.132c.387-1.771.978-4.133 1.384-5.11l1.974-5.11c1.18.977 6.29 3.339 6.29 3.339s-.793 2.748-3.154 4.722c0 0-1.181 1.384-.978 2.749 0 1.384 1.77 6.697 1.77 7.674z" fill="#FFD15C"/><path d="M14.237 52.016s.59-.793 1.568-1.383c1.18-.59 1.974-1.181 2.564-.59l1.18 4.925-.202 2.158c0 .59-.388.978-.794 1.181-.387.203-.793.387-.977-.203-.388-1.18-.203-1.974-.203-1.974l-1.384 1.384-.387.793s-.388 0-.388-.59c0 0-.203-.388-.203-.978s.203-.978 0-1.384c-.184-.572-.774-3.339-.774-3.339z" fill="#425A6B"/><path d="M19.55 54.968V57.144c0 .203 0 .388-.203.59 0 .204-.203.388-.388.591l-.203.203s-.203.203-.387.203h-.387c-.185 0-.203-.203-.203-.203v-.406-.59-.996.203c0 .203 0 .387.203.793 0 .203 0 .387.202.59v.406s0 .203.203.203h.203s.203 0 .203-.203l.203-.203c.203-.203.203-.387.388-.387 0-.203.202-.388.202-.59v-.59-.591c0-.388.203-.59.203-.793-.24-.203-.24-.406-.24-.406z" fill="#344A5E"/></g><defs><clipPath id="clip0"><path fill="#fff" d="M0 0h60v60H0z"/></clipPath></defs></svg>