<svg width="60" height="60" viewBox="0 0 60 60" fill="none" xmlns="http://www.w3.org/2000/svg"><path d="M11.004 24.481c-2.597 0-7.622-1.011-7.622-3.608a4.704 4.704 0 014.703-4.704l8.483 1.997a32.788 32.788 0 0015.017 0l8.483-1.997a4.704 4.704 0 014.703 4.704c0 2.597-5.973 3.608-8.571 3.608" fill="#4A3B1C"/><path d="M31.6 38.745l-3.763 7.525V58.5h14.11l-1.88-16.932-4.704-1.881-3.763-2.822v1.881z" fill="#1A326E"/><path d="M33.716 51.17c1.786-3.185 2.991-7.835 3.616-10.697l-1.97-.787-3.762-2.822v1.881l-3.763 7.525v1.882l4.492 3.317a.945.945 0 001.387-.3z" fill="#162A5C"/><path d="M16.55 38.745l3.762 7.525V58.5H6.202l1.882-16.932 4.703-1.881 3.763-2.822v1.881z" fill="#1A326E"/><path d="M16.551 38.745l3.763 7.525-4.703 2.05c-1.882-2.822-2.822-8.55-2.822-8.55l3.762-2.906v1.881zM31.6 38.745l-3.763 7.525 4.704 2.05c1.881-2.822 2.822-8.55 2.822-8.55L31.6 36.864v1.881z" fill="#1A326E"/><path d="M31.583 18.165a32.788 32.788 0 01-15.016 0l-2.84-.667v6.197c0 4.385 2.733 8.124 6.585 9.631a10.31 10.31 0 003.763.716c1.33 0 2.595-.26 3.763-.716 3.852-1.506 6.584-5.245 6.584-9.631v-6.197l-2.839.667z" fill="#FCE0B9"/><path d="M36.304 13.168l-1.311-3.158-1.98-4.77A2.822 2.822 0 0030.252 3h-12.35a2.821 2.821 0 00-2.762 2.243l-3.293 7.888-3.763 3.038 1.534.361 4.11.967 2.84.668a32.787 32.787 0 0015.016 0l2.839-.668 3.184-.748 2.46-.58-3.763-3.001z" fill="#806631"/><path d="M45.71 31.22H42.798a3.762 3.762 0 00-3.741 4.163l.553 5.16 1.553 14.493a2.822 2.822 0 002.806 2.521h.573a2.822 2.822 0 002.806-2.52l2.106-19.654a3.764 3.764 0 00-3.742-4.163z" fill="#FCA947"/><path d="M42.43 43.365l-.552-5.16a3.763 3.763 0 013.74-4.163H48.533c.285 0 .56.032.825.09-.386-1.649-1.847-2.912-3.646-2.912H42.797a3.762 3.762 0 00-3.741 4.163l.553 5.16 1.553 14.493a2.822 2.822 0 002.79 2.52L42.43 43.365z" fill="#F98600"/><path d="M20.312 47.21h7.525V58.5h-7.525V47.21z" fill="#D0382A"/><path d="M27.84 33.326a10.31 10.31 0 01-3.762.716c-1.33 0-2.596-.26-3.763-.716v3.538h-3.763v1.881l3.763 7.526v.94h7.525v-.94l3.763-7.526v-1.881H27.84v-3.538z" fill="#FCE0B9"/><path d="M16.567 18.165l-2.84-.667v4.953c2.97.785 6.523 1.244 10.348 1.244 3.825 0 7.378-.46 10.347-1.244v-4.953l-2.839.667a32.788 32.788 0 01-15.016 0z" fill="#FAD3AC"/><path d="M16.021 4.836h12.35c1.335 0 2.486.935 2.762 2.24l1.98 4.77 1.31 3.158 2.414 1.925.77-.181 2.46-.579-3.763-3.001-1.31-3.158-1.98-4.77A2.822 2.822 0 0030.251 3h-12.35a2.814 2.814 0 00-2.676 1.96c.254-.075.52-.124.795-.124z" fill="#5E4B24"/><path d="M19.37 26.517c.52 0 .942-.632.942-1.411 0-.78-.422-1.411-.941-1.411-.52 0-.94.631-.94 1.41 0 .78.42 1.412.94 1.412zM28.778 26.517c.52 0 .94-.632.94-1.411 0-.78-.42-1.411-.94-1.411s-.94.631-.94 1.41c0 .78.42 1.412.94 1.412z" fill="#5E4C2D"/><path d="M19.844 25.576a.47.47 0 100-.94.47.47 0 000 .94zM29.25 25.576a.47.47 0 100-.94.47.47 0 000 .94z" fill="#fff"/><path d="M24.075 32.16a2.822 2.822 0 002.822-2.822h-5.644a2.822 2.822 0 002.822 2.822z" fill="#FF9575"/><path d="M26.724 30.279c.105-.295.173-.609.173-.94h-5.644c0 .331.068.645.173.94h5.298z" fill="#fff"/><path d="M25.016 19.932a16.03 16.03 0 001.473-.995 32.786 32.786 0 01-9.922-.772l-2.838-.668-1.19-.28-2.92-.687c-.127 1.82.073 3.686.632 5.503l2.504 8.138h-4.67a2.822 2.822 0 00-2.822 2.822c0 .018.004.035.005.054 0 .018-.005.035-.005.054 0 1.303.888 2.39 2.088 2.714h-.207A5.641 5.641 0 006.69 47.08s1.394 5.775 5.156 5.775h1.882c3.762.108 6.584-1.882 6.584-5.752 0-3.118-3.467-5.644-6.584-5.644l-.941.108v-1.882l3.762-2.822h3.763v-3.537c-3.852-1.506-6.584-5.245-6.584-9.632v-1.013c2.764-.171 7.96-.753 11.287-2.75zM37.691 17.662l-.086-.914-3.183.75-2.84.667c-.365.087-.734.152-1.102.226.417 1.181 1.058 2.42 2.06 3.422.758.758 1.376.963 1.882.872v1.01c0 1.328-.255 2.596-.712 3.762h.006a11.454 11.454 0 003.975-9.795z" fill="#2B2210"/><path d="M8.572 47.08a5.64 5.64 0 01.453-11.265h.207A2.815 2.815 0 017.144 33.1c0-.019.005-.036.006-.054 0-.02-.006-.036-.006-.055a2.822 2.822 0 012.822-2.822H8.085a2.822 2.822 0 00-2.822 2.822c0 .019.004.036.005.055 0 .018-.005.035-.005.054 0 1.303.888 2.39 2.088 2.714h-.207A5.64 5.64 0 006.69 47.08s1.394 5.775 5.156 5.775h1.882c-3.763 0-5.157-5.776-5.157-5.776z" fill="#3D3017"/><path d="M27.837 33.326a10.31 10.31 0 01-3.762.716c-1.33 0-2.595-.26-3.763-.716v2.01c1.19.373 2.45.587 3.763.587a12.53 12.53 0 003.762-.588v-2.009z" fill="#FAD3AC"/><path d="M27.837 58.499h-7.525V47.21l.715 3.573a10.252 10.252 0 006.81 7.715z" fill="#B02F24"/><path d="M36.304 13.168l-1.14-2.748-6.938 1.225c-2.74.483-5.512.45-8.238-.094l-6.904-1.381-1.237 2.961-.624.505 8.026 1.605a25.962 25.962 0 009.632.11l8.32-1.468-.897-.715z" fill="#B89246"/><path d="M34.422 52.855h1.881v5.644h-1.881v-5.644zM11.846 52.855h1.881v5.644h-1.88v-5.644z" fill="#162A5C"/><path d="M56.987 20.726c-.098-.62-.574-1.071-1.415-1.342-1.957-.634-4.153.168-5.34 1.945l-4.048 6.074c.268-2.078.635-4.73 1.058-7.32l.143-.504c1.163-1.453 6.906-8.863 5.802-12.173-.242-.726-.8-1.19-1.494-1.24-1.299-.078-2.649 1.235-4.002 3.94-.726 1.45-1.48 4.615-2.307 9.675-.898 5.502-1.543 11.278-1.549 11.336a.94.94 0 001.719.624l3.58-5.37c2.736-.9 8.264-3.052 7.853-5.645z" fill="#7FB556"/><path d="M42.89 37.805h-.941a.941.941 0 010-1.882h.94a.941.941 0 010 1.882zM46.651 41.567H44.77a.941.941 0 010-1.881h1.881a.941.941 0 010 1.881zM43.83 47.211H41.95a.941.941 0 010-1.88h1.881a.941.941 0 010 1.88zM44.77 50.974a.941.941 0 110-1.882.941.941 0 010 1.882z" fill="#F98600"/><path d="M32.7 10.855l.412.991 1.067 2.57 3.021-.534-.896-.714-1.14-2.747-2.463.434z" fill="#99793A"/><path d="M50.234 21.33l-3.793 5.69a283.53 283.53 0 00-.256 1.923l4.049-6.074c1.187-1.778 3.382-2.58 5.34-1.945.611.197 1.024.492 1.244.875.156-.348.228-.706.17-1.075-.097-.619-.573-1.07-1.414-1.34-1.959-.634-4.154.168-5.34 1.945z" fill="#618A41"/><path d="M45.384 21.32c.827-5.06 1.581-8.225 2.306-9.676 1.353-2.704 2.704-4.017 4.003-3.938.693.05 1.252.512 1.494 1.239.026.079.03.17.05.254.113-.67.12-1.284-.05-1.795-.242-.726-.801-1.19-1.494-1.239-1.3-.079-2.65 1.234-4.003 3.939-.725 1.45-1.48 4.615-2.306 9.675-.899 5.502-1.544 11.278-1.55 11.336a.93.93 0 00.115.548c.224-1.889.757-6.192 1.435-10.343z" fill="#8FCC61"/></svg>