<svg width="60" height="60" viewBox="0 0 60 60" fill="none" xmlns="http://www.w3.org/2000/svg"><path d="M26.703 50.981a3.09 3.09 0 01-.882-2.158V33.454c-3.78.715-7.26 2.627-10.03 5.563-3.135 3.32-5.039 7.594-5.473 12.206.369-.155.77-.242 1.2-.242h15.184zM32.245 48.828c0 .833-.335 1.594-.881 2.158h15.488c.425 0 .83.087 1.2.242-.435-4.612-2.338-8.887-5.468-12.206-2.846-3.014-6.438-4.953-10.334-5.618v15.424h-.005z" fill="#00A99D"/><path d="M46.853 51.751H30.184a3.23 3.23 0 01-1.152.21 3.23 3.23 0 01-1.152-.21H11.514c-1.231 0-2.234.979-2.234 2.18 0 1.203 1.003 2.181 2.234 2.181h35.334c1.232 0 2.235-.979 2.235-2.18.005-1.202-.998-2.181-2.23-2.181z" fill="#FDE7C6"/><path d="M48.881 51.75c-.336-5.007-2.337-9.664-5.724-13.252a19.678 19.678 0 00-6.28-4.484 18.668 18.668 0 00-4.637-1.398v-.068c2.09-.796 3.844-2.358 4.82-4.411 1.926-2.245 2.99-5.18 2.99-8.268 0-3.737-.728-6.519-2.22-8.49a8.128 8.128 0 00-2.081-1.926c.079-.41.125-.837.125-1.27.005-3.687-3.07-6.683-6.843-6.683-3.774 0-6.844 2.996-6.844 6.679 0 .432.042.86.126 1.27a8.048 8.048 0 00-2.08 1.925c-1.494 1.976-2.221 4.753-2.221 8.49 0 3.087 1.063 6.02 2.99 8.268.975 2.053 2.724 3.615 4.82 4.412v.123a18.92 18.92 0 00-4.335 1.343c-2.351 1.051-4.464 2.563-6.28 4.484-3.386 3.587-5.387 8.245-5.723 13.252a2.922 2.922 0 00-.99 2.18c0 .934.448 1.767 1.144 2.31.158 1.183.415 2.353.765 3.49a.394.394 0 00.378.274h36.808c.172 0 .326-.11.378-.273a21.7 21.7 0 00.765-3.492 2.925 2.925 0 001.143-2.308c0-.86-.383-1.639-.994-2.176zm-6.303-12.728c3.135 3.319 5.039 7.594 5.468 12.205a3.075 3.075 0 00-1.199-.241H31.359a3.09 3.09 0 00.881-2.158V33.4c3.9.669 7.493 2.604 10.338 5.622zM29.031 51.19c-1.34 0-2.426-1.06-2.426-2.367V32.808c.779.218 1.59.332 2.426.332.83 0 1.646-.114 2.426-.332v16.02c0 1.302-1.087 2.363-2.426 2.363zm0-48.922c.406 0 .802.041 1.185.114 2.776.542 4.87 2.937 4.87 5.796 0 .286-.023.573-.065.85-.196-.1-.401-.195-.607-.286-1.483-.633-3.298-.951-5.383-.951-1.787 0-3.368.236-4.721.696a9.581 9.581 0 00-.668.255c-.21.087-.41.182-.606.287a5.67 5.67 0 01-.065-.851c.004-3.256 2.72-5.91 6.06-5.91zM18.8 19.865c0-3.57.677-6.196 2.067-8.035.788-1.043 1.828-1.844 3.097-2.381 1.148-.487 2.52-.774 4.087-.86.322-.019.649-.028.984-.028 1.978 0 3.686.3 5.071.888 1.27.537 2.31 1.338 3.098 2.38 1.39 1.84 2.067 4.467 2.067 8.036 0 2.08-.513 4.088-1.465 5.832v-.018c.014-.092.023-.178.033-.27 0-.017.004-.035.004-.054.01-.073.014-.145.019-.214 0-.027.005-.059.005-.086.004-.064.009-.132.009-.196 0-.027.005-.055.005-.082.004-.091.004-.182.004-.273a8.46 8.46 0 00-1.614-4.976.4.4 0 00-.397-.155c-.965.178-2.043.01-3.032-.473-1.105-.537-1.96-1.407-2.346-2.386a.4.4 0 00-.378-.246.39.39 0 00-.364.264c-.453 1.357-1.722 2.645-3.396 3.447-1.643.787-3.439.992-4.806.541a.398.398 0 00-.48.196 8.383 8.383 0 00-.882 4.139c.005.063.005.131.01.195 0 .027.004.06.004.087.005.073.01.14.019.214 0 .018.005.04.005.059.009.09.018.177.032.268v.019c-.952-1.744-1.46-3.747-1.46-5.832zm2.892 7.899a7.648 7.648 0 01-.723-3.26c0-.637.075-1.257.229-1.862.107-.442.256-.87.448-1.288 1.507.377 3.368.132 5.061-.683l.145-.069c.093-.045.187-.095.28-.145.093-.05.182-.105.275-.155 1.213-.72 2.184-1.684 2.753-2.736.532.833 1.348 1.548 2.332 2.026 1.055.514 2.207.715 3.27.582a7.935 7.935 0 01.906 1.794c.284.81.429 1.666.429 2.54 0 .215-.01.424-.023.638a7.605 7.605 0 01-.7 2.627c-1.306 2.795-4.19 4.607-7.339 4.607-3.153-.01-6.032-1.817-7.343-4.617zm-5.906 11.258c2.771-2.936 6.252-4.853 10.03-5.563v15.374c0 .833.336 1.593.882 2.157H11.513c-.425 0-.83.087-1.199.242.439-4.621 2.342-8.896 5.472-12.21zM47.29 59.235H11.075a21.092 21.092 0 01-.574-2.526c.317.109.657.172 1.012.172h35.334c.355 0 .695-.059 1.012-.172a20.224 20.224 0 01-.569 2.526zm-.438-3.123H11.513c-1.232 0-2.235-.979-2.235-2.18 0-1.202 1.003-2.181 2.235-2.181h16.365c.36.136.747.21 1.153.21a3.23 3.23 0 001.152-.21h16.669c1.231 0 2.234.979 2.234 2.18 0 1.202-1.003 2.181-2.234 2.181z" fill="#352581"/><path d="M29.031 33.14c-.83 0-1.647-.113-2.426-.332v16.02c0 1.307 1.087 2.368 2.426 2.368 1.339 0 2.426-1.061 2.426-2.367v-16.02a9.14 9.14 0 01-2.426.331z" fill="#FDE7C6"/><path d="M23.649 8.743c.214-.09.438-.173.667-.255.084-3.223 2.654-5.84 5.906-6.109a6.333 6.333 0 00-1.185-.114c-3.34 0-6.055 2.65-6.055 5.91 0 .286.023.573.065.85.191-.095.392-.19.602-.282z" fill="#EFCA70"/><path d="M24.315 8.493c1.348-.465 2.934-.697 4.72-.697 2.09 0 3.9.319 5.384.952.21.086.41.182.607.286a5.67 5.67 0 00.065-.85c0-2.864-2.095-5.26-4.87-5.796-3.257.26-5.823 2.881-5.906 6.105z" fill="#FFF2A4"/><path d="M26.167 21.895c2.1-.878 3.587-2.276 4.124-3.673.466 1.028 1.488 1.99 2.911 2.595 1.078.455 2.207.637 3.233.564a7.95 7.95 0 00-.672-1.21c-1.063.136-2.216-.07-3.27-.584-.985-.478-1.8-1.197-2.333-2.026-.569 1.048-1.54 2.013-2.752 2.737a8.316 8.316 0 01-.555.3c-.047.023-.094.046-.145.068-1.693.815-3.555 1.061-5.062.683a8.13 8.13 0 00-.448 1.289c1.48.204 3.261-.028 4.969-.743z" fill="#FAC271"/><path d="M36.37 27.763a7.607 7.607 0 00.723-3.264 7.65 7.65 0 00-.662-3.123 7.16 7.16 0 01-3.233-.564c-1.423-.606-2.445-1.566-2.911-2.595-.532 1.397-2.025 2.795-4.124 3.674-1.708.714-3.49.947-4.969.746a7.742 7.742 0 00-.228 1.862c0 1.138.242 2.236.723 3.26 1.306 2.795 4.189 4.607 7.338 4.607 3.154.005 6.037-1.803 7.343-4.603zm-4.721-3.856c0-.305.252-.55.564-.55.313 0 .565.245.565.55v1.175c0 .305-.252.55-.565.55a.557.557 0 01-.564-.55v-1.175zm-5.235 1.18c0 .305-.251.55-.564.55a.557.557 0 01-.565-.55v-1.175c0-.305.252-.55.565-.55.313 0 .564.245.564.55v1.175z" fill="#FDE7C6"/><path d="M20.23 25.414c0-.018-.004-.04-.004-.059a3.357 3.357 0 01-.019-.214c0-.027-.004-.059-.004-.086a2.606 2.606 0 01-.01-.196c0-.027-.004-.055-.004-.082-.005-.091-.005-.182-.005-.273 0-1.325.299-2.6.89-3.783.015-.032.038-.06.062-.087-.014-.255-.024-.51-.024-.765 0-5.39 1.516-9.924 6.937-11.276-1.562.082-2.934.373-4.086.86-1.27.537-2.31 1.339-3.098 2.381-1.39 1.84-2.067 4.466-2.067 8.035 0 2.08.514 4.089 1.465 5.832v-.018a5.218 5.218 0 00-.033-.269z" fill="#EFCA70"/><path d="M21.11 19.865c0 .26.01.514.023.765a.398.398 0 01.42-.11c1.367.447 3.163.246 4.805-.541 1.675-.806 2.944-2.094 3.396-3.447a.39.39 0 01.364-.264.395.395 0 01.378.246c.387.98 1.241 1.849 2.347 2.386.989.482 2.062.65 3.032.473a.4.4 0 01.397.155 8.459 8.459 0 011.614 4.976c0 .091 0 .182-.005.273 0 .027 0 .055-.005.082-.004.064-.004.132-.009.196 0 .027-.005.059-.005.086-.004.073-.014.146-.018.214 0 .018-.005.037-.005.055-.01.091-.018.177-.032.268v.019c.956-1.744 1.464-3.752 1.464-5.832 0-3.57-.676-6.196-2.066-8.035-.789-1.043-1.829-1.844-3.098-2.381-1.386-.588-3.093-.888-5.071-.888-.336 0-.667.01-.984.027-5.426 1.357-6.942 5.891-6.942 11.277z" fill="#FFF2A4"/><path d="M32.212 25.633a.557.557 0 00.565-.55v-1.175a.557.557 0 00-.565-.551.557.557 0 00-.564.55v1.175c0 .305.252.551.564.551zM25.85 23.361a.557.557 0 00-.564.551v1.175c0 .305.252.55.564.55a.557.557 0 00.565-.55v-1.175a.557.557 0 00-.565-.55z" fill="#352581"/><path d="M6.094 58.443c0 .647.542 1.175 1.204 1.175h44.81c.662 0 1.203-.528 1.203-1.175H6.094z" fill="#AFA8A1"/><path d="M52.107 57.269H7.298c-.662 0-1.204.528-1.204 1.174h47.217c0-.646-.541-1.174-1.204-1.174z" fill="#E9E0D6"/><path d="M52.106 56.886H7.296c-.881 0-1.595.697-1.595 1.557S6.415 60 7.297 60h44.809c.881 0 1.595-.696 1.595-1.557 0-.86-.718-1.557-1.595-1.557zm0 2.732H7.296c-.662 0-1.203-.528-1.203-1.175 0-.646.541-1.174 1.204-1.174h44.809c.662 0 1.203.528 1.203 1.174 0 .651-.54 1.175-1.203 1.175z" fill="#352581"/><path d="M17.07 55.343c-1.708 0-3.107-1.366-3.107-3.032V36.368c0-.273.037-.537.107-.792a2.64 2.64 0 00-1.404 2.317v15.943c0 1.461 1.217 2.645 2.71 2.645h27.609c.947 0 1.782-.478 2.267-1.193a2.983 2.983 0 01-.574.055H17.07z" fill="#CCC"/><path d="M42.99 35.248H15.38c-.471 0-.92.118-1.306.328-.07.25-.108.519-.108.792v15.943c0 1.666 1.4 3.032 3.107 3.032h27.609c.196 0 .387-.018.574-.055.28-.419.448-.915.448-1.452V37.898c-.005-1.462-1.218-2.65-2.715-2.65zM29.184 48.2c-1.32 0-2.393-1.047-2.393-2.336 0-1.288 1.073-2.335 2.393-2.335 1.32 0 2.393 1.047 2.393 2.335-.004 1.294-1.072 2.336-2.393 2.336z" fill="#F2F2F2"/><path d="M42.989 34.478H15.38c-1.931 0-3.503 1.535-3.503 3.42V53.84c0 1.885 1.572 3.42 3.503 3.42H42.99c1.931 0 3.503-1.535 3.503-3.42V37.897c-.005-1.884-1.572-3.419-3.503-3.419zm2.71 19.358c0 .537-.163 1.033-.448 1.452a2.728 2.728 0 01-2.267 1.193H15.38c-1.497 0-2.71-1.188-2.71-2.645V37.898c0-.998.569-1.867 1.404-2.318.387-.21.835-.328 1.306-.328H42.99c1.497 0 2.71 1.189 2.71 2.645v15.939z" fill="#352581"/><path d="M29.685 48.152c1.293-.268 2.119-1.508 1.844-2.77-.274-1.261-1.545-2.067-2.838-1.799-1.293.268-2.118 1.508-1.844 2.77.274 1.261 1.545 2.067 2.838 1.8z" fill="#CCC"/></svg>