<svg width="61" height="60" viewBox="0 0 61 60" fill="none" xmlns="http://www.w3.org/2000/svg"><g clip-path="url(#clip0)"><path d="M16.504 55.915H6.147l2.071-33.142h6.215l2.071 33.142z" fill="#FCBC04"/><path d="M16.204 51.026a8.284 8.284 0 01-4.878-7.54V29.297c.284-.418.513-.87.683-1.346a7.25 7.25 0 002.941 3.107l-.517-8.285H8.218l-2.07 33.142h10.356l-.3-4.889z" fill="#E59730"/><path d="M20.904 14.881a10.874 10.874 0 10-18.476 2.92 6.214 6.214 0 109.58 7.043 7.25 7.25 0 108.896-9.921v-.042z" fill="#A1D51C"/><path d="M21.163 20.702a15.244 15.244 0 004.433-.663 7.25 7.25 0 00-4.692-5.178A10.854 10.854 0 007.016.682a14.986 14.986 0 0014.147 20.02z" fill="#C4F236"/><path d="M18.573 11.38v4.144l41.428 13.464v-4.143L18.573 11.38z" fill="#4891D3"/><path d="M18.573 11.38v2.072l41.428 13.464v-2.071L18.573 11.38z" fill="#57B7EB"/><path d="M55.859 27.641l-33.142-10.77v39.045h33.142V27.64zM14.431 41.415h8.286v14.5H14.43v-14.5z" fill="#FCBC04"/><path d="M14.431 41.415h5.179v5.178a5.179 5.179 0 01-5.179 5.179V41.415z" fill="#F9E109"/><path d="M32.286 24.12l23.573 7.664v-4.143l-33.142-10.77v39.045h33.142v-5.179h-8.286A20.714 20.714 0 0126.86 30.023v-1.957a4.143 4.143 0 015.427-3.946z" fill="#E59730"/><path d="M29.966 31.059h16.57V35.2h-16.57V31.06z" fill="#F9E109"/><path d="M32.038 35.201h12.428V47.63H32.038V35.201z" fill="#57B7EB"/><path d="M44.466 47.63H32.038V35.2h6.214l6.214 12.428z" fill="#4891D3"/><path d="M32.038 43.693v3.936h4.66a20.715 20.715 0 01-4.66-3.936z" fill="#2D72BC"/><path d="M26.858 27.951a1.035 1.035 0 01-1.035-1.035v-4.143a1.036 1.036 0 112.071 0v4.143a1.036 1.036 0 01-1.036 1.035z" fill="#F9E109"/><path d="M26.858 44.522a1.036 1.036 0 01-1.035-1.036v-4.143a1.035 1.035 0 112.071 0v4.143a1.036 1.036 0 01-1.036 1.036zM25.823 55.914v-7.25a1.036 1.036 0 112.071 0v7.25h-2.071zM31.002 55.915v-4.143a1.036 1.036 0 112.072 0v4.143h-2.072zM38.252 55.915v-4.143a1.035 1.035 0 112.071 0v4.143h-2.071z" fill="#FCBC04"/><path d="M48.608 55.914v-9.32a1.036 1.036 0 012.07 0v9.32h-2.07zM49.643 41.415a1.036 1.036 0 01-1.035-1.035v-4.143a1.036 1.036 0 012.07 0v4.142a1.035 1.035 0 01-1.035 1.036zM37.217 35.201h2.072V47.63h-2.072V35.201zM17.539 55.914v-3.107a1.035 1.035 0 112.071 0v3.107H17.54zM34.11 24.844a1.036 1.036 0 002.071 0V21.25l-2.071-.673V24.844zM43.431 27.951a1.036 1.036 0 001.036-1.035v-2.973l-2.072-.683v3.656a1.036 1.036 0 001.036 1.035zM51.715 31.058a1.036 1.036 0 001.035-1.035v-3.387l-2.07-.673v4.06a1.036 1.036 0 001.035 1.035z" fill="#F9E109"/><path d="M26.858 21.737a1.036 1.036 0 00-1.035 1.036v4.143a1.035 1.035 0 001.035 1.035 4.143 4.143 0 011.036-2.63v-2.548a1.036 1.036 0 00-1.036-1.036zM48.608 50.736h2.07v5.179h-2.07v-5.179zM36.181 24.844V21.25l-1.885-.621-.186-.052v4.132l1.926.632c.09-.15.14-.322.145-.497zM42.571 27.465l1.254.404a1.036 1.036 0 00.642-.953v-2.973l-2.072-.683v3.656c.006.196.067.386.176.549zM52.751 26.636l-2.071-.673v4.06a.25.25 0 000 .082l1.791.58c.17-.18.27-.415.28-.662v-3.387z" fill="#FCBC04"/><path d="M16.503 49.7a1.036 1.036 0 100-2.071 1.036 1.036 0 000 2.071z" fill="#A1D51C"/></g><defs><clipPath id="clip0"><path fill="#fff" d="M.002.001h60v60h-60z"/></clipPath></defs></svg>