<?xml version="1.0" encoding="UTF-8" standalone="no"?>
<!DOCTYPE svg PUBLIC "-//W3C//DTD SVG 1.1//EN" "http://www.w3.org/Graphics/SVG/1.1/DTD/svg11.dtd">
<svg width="100%" height="100%" viewBox="0 0 36 36" version="1.1" xmlns="http://www.w3.org/2000/svg" xmlns:xlink="http://www.w3.org/1999/xlink" xml:space="preserve" xmlns:serif="http://www.serif.com/" style="fill-rule:evenodd;clip-rule:evenodd;stroke-linejoin:round;stroke-miterlimit:2;">
    <path d="M24.058,33.698C25.599,33.697 26.959,32.696 27.413,31.228L29.561,24.279C30.515,21.193 31,17.982 31,14.752C31,12.36 29.053,10.422 26.652,10.422L25.565,10.422C23.163,10.422 21.217,12.36 21.217,14.752L21.217,30.868C21.217,32.431 22.489,33.698 24.058,33.698Z" style="fill:rgb(212,61,61);fill-rule:nonzero;"/>
    <path d="M20.538,3.903C20.02,5.293 19.812,6.778 19.926,8.256L20.674,8.256C21.874,8.256 22.848,9.226 22.848,10.422L22.848,11.504L14.695,11.504L14.695,10.422C14.695,9.226 15.669,8.256 16.869,8.256C16.814,6.243 17.48,4.276 18.748,2.708L20.538,3.903Z" style="fill:rgb(95,149,72);fill-rule:nonzero;"/>
    <path d="M12.942,33.698C11.401,33.697 10.04,32.696 9.587,31.228L7.439,24.279C6.485,21.193 6,17.982 6,14.752C6,12.36 7.946,10.422 10.348,10.422L11.435,10.422C13.836,10.422 15.783,12.36 15.783,14.752L15.783,30.868C15.783,32.431 14.511,33.698 12.942,33.698Z" style="fill:rgb(212,61,61);fill-rule:nonzero;"/>
    <path d="M12.522,13.67L12.522,15.644C12.522,18.294 12.725,20.939 13.129,23.557L14.066,30.876C14.31,32.461 15.679,33.63 17.289,33.63L19.3,33.63C20.91,33.63 22.278,32.46 22.524,30.876L23.868,23.557C24.273,20.939 24.477,18.293 24.478,15.644L24.478,13.67C24.478,11.876 23.018,10.422 21.217,10.422L15.782,10.422C13.981,10.422 12.522,11.876 12.522,13.67Z" style="fill:rgb(233,79,79);fill-rule:nonzero;"/>
    <path d="M13.846,29.151L14.067,30.877C14.311,32.462 15.68,33.632 17.29,33.631L19.301,33.631C20.911,33.631 22.279,32.461 22.525,30.877L23.869,23.559C24.274,20.941 24.478,18.298 24.479,15.649C22.82,21.35 19.01,26.189 13.846,29.151Z" style="fill:rgb(224,70,70);fill-rule:nonzero;"/>
    <rect x="14.152" y="15.294" width="1.087" height="1.15" style="fill:rgb(242,102,102);fill-rule:nonzero;"/>
    <path d="M14.805,23.862L14.5,21.742C14.286,20.36 14.169,18.965 14.152,17.567L15.239,17.555C15.255,18.904 15.366,20.25 15.572,21.585L15.877,23.71L14.805,23.862Z" style="fill:rgb(242,102,102);fill-rule:nonzero;"/>
    <path d="M20.674,3.385C20.674,3.983 20.188,4.467 19.587,4.467C18.986,4.467 18.5,3.983 18.5,3.385C18.5,2.787 18.986,2.302 19.587,2.302C20.188,2.302 20.674,2.787 20.674,3.385Z" style="fill:rgb(119,173,80);fill-rule:nonzero;"/>
</svg>
