<?xml version="1.0" encoding="UTF-8" standalone="no"?>
<!DOCTYPE svg PUBLIC "-//W3C//DTD SVG 1.1//EN" "http://www.w3.org/Graphics/SVG/1.1/DTD/svg11.dtd">
<svg width="100%" height="100%" viewBox="0 0 36 36" version="1.1" xmlns="http://www.w3.org/2000/svg" xmlns:xlink="http://www.w3.org/1999/xlink" xml:space="preserve" xmlns:serif="http://www.serif.com/" style="fill-rule:evenodd;clip-rule:evenodd;stroke-linejoin:round;stroke-miterlimit:2;">
    <path d="M17.5,21.456C17.5,21.456 32.231,21.461 31.997,15.329C31.728,8.317 23.627,3 17.5,3C11.373,3 3.271,8.317 3.003,15.329C2.768,21.46 17.5,21.456 17.5,21.456Z" style="fill:rgb(255,170,92);fill-rule:nonzero;"/>
    <path d="M31.955,14.74C31.078,20.166 17.5,20.162 17.5,20.162C17.5,20.162 3.922,20.166 3.044,14.74C3.025,14.935 3.01,15.131 3.003,15.328C2.768,21.46 17.5,21.456 17.5,21.456C17.5,21.456 32.231,21.461 31.997,15.329C31.989,15.131 31.975,14.935 31.955,14.74Z" style="fill:rgb(255,152,56);fill-rule:nonzero;"/>
    <path d="M17.501,21.456C17.501,21.456 15.495,21.457 12.976,21.149C12.198,23.226 11.081,26.51 11.08,28.236C11.079,31.385 15.621,32 17.501,32C19.381,32 23.922,31.385 23.922,28.236C23.921,26.509 22.804,23.226 22.025,21.149C19.507,21.456 17.501,21.456 17.501,21.456Z" style="fill:rgb(244,233,211);fill-rule:nonzero;"/>
    <path d="M12.57,22.261C15.276,22.62 17.5,22.619 17.5,22.619C17.5,22.619 19.724,22.62 22.43,22.261C22.29,21.866 22.153,21.491 22.025,21.149C19.505,21.457 17.5,21.456 17.5,21.456C17.5,21.456 15.495,21.457 12.976,21.149C12.848,21.491 12.711,21.865 12.57,22.261Z" style="fill:rgb(229,214,190);fill-rule:nonzero;"/>
</svg>
