<?xml version="1.0" encoding="UTF-8" standalone="no"?>
<!DOCTYPE svg PUBLIC "-//W3C//DTD SVG 1.1//EN" "http://www.w3.org/Graphics/SVG/1.1/DTD/svg11.dtd">
<svg width="100%" height="100%" viewBox="0 0 36 36" version="1.1" xmlns="http://www.w3.org/2000/svg" xmlns:xlink="http://www.w3.org/1999/xlink" xml:space="preserve" xmlns:serif="http://www.serif.com/" style="fill-rule:evenodd;clip-rule:evenodd;stroke-linejoin:round;stroke-miterlimit:2;">
    <g>
        <path d="M21.025,4.618C20.803,4.618 20.596,4.482 20.515,4.264C20.41,3.982 20.553,3.669 20.835,3.564C21.389,3.358 21.806,3.144 22.119,2.942C21.411,2.672 20.936,2.275 20.748,1.785C20.617,1.445 20.566,0.909 21.058,0.283C21.427,-0.184 21.974,-0.401 22.562,-0.312C23.24,-0.209 23.841,0.28 24.093,0.935C24.253,1.351 24.258,1.799 24.116,2.231C25.211,2.289 26.393,2.105 27.351,1.71C27.629,1.596 27.947,1.729 28.06,2.006C28.175,2.284 28.042,2.602 27.764,2.716C26.467,3.25 24.879,3.449 23.457,3.263C22.948,3.776 22.195,4.219 21.215,4.585C21.151,4.606 21.087,4.618 21.025,4.618ZM22.307,0.756C22.149,0.756 22.016,0.823 21.911,0.956C21.769,1.135 21.719,1.283 21.762,1.394C21.847,1.617 22.261,1.898 23.004,2.076C23.142,1.816 23.168,1.56 23.078,1.325C22.967,1.038 22.688,0.807 22.398,0.763C22.367,0.758 22.336,0.756 22.307,0.756Z" style="fill:rgb(74,160,50);fill-rule:nonzero;"/>
        <path d="M28.576,3.986C28.612,3.997 28.648,4.008 28.684,4.019C32.051,5.056 33.858,8.73 32.596,12.022C29.236,20.786 23.177,28.502 15.096,33.95C10.557,37.009 4.353,34.797 2.744,29.561C2.727,29.503 2.709,29.445 2.691,29.389C1.474,25.428 3.42,21.203 7.197,19.506C12.979,16.908 18.063,12.508 21.555,6.673C22.996,4.265 25.897,3.161 28.576,3.986Z" style="fill:rgb(112,214,91);fill-rule:nonzero;"/>
        <path d="M5.945,33.914C4.482,32.918 3.319,31.433 2.744,29.561C2.726,29.503 2.709,29.447 2.691,29.389C1.474,25.427 3.42,21.203 7.197,19.506C12.979,16.908 18.064,12.508 21.556,6.672C22.997,4.266 25.897,3.161 28.576,3.987C28.612,3.997 28.648,4.008 28.684,4.02C30.202,4.487 31.402,5.489 32.147,6.751C31.743,6.513 31.304,6.317 30.834,6.172C30.798,6.161 30.762,6.15 30.726,6.139C28.048,5.314 25.146,6.418 23.706,8.825C20.215,14.661 15.13,19.06 9.348,21.659C5.571,23.356 3.626,27.58 4.842,31.541C4.86,31.599 4.877,31.656 4.895,31.713C5.143,32.521 5.501,33.257 5.945,33.914Z" style="fill:rgb(88,183,65);fill-rule:nonzero;"/>
    </g>
</svg>
