<?xml version="1.0" encoding="UTF-8" standalone="no"?>
<!DOCTYPE svg PUBLIC "-//W3C//DTD SVG 1.1//EN" "http://www.w3.org/Graphics/SVG/1.1/DTD/svg11.dtd">
<svg width="100%" height="100%" viewBox="0 0 36 36" version="1.1" xmlns="http://www.w3.org/2000/svg" xmlns:xlink="http://www.w3.org/1999/xlink" xml:space="preserve" xmlns:serif="http://www.serif.com/" style="fill-rule:evenodd;clip-rule:evenodd;stroke-linejoin:round;stroke-miterlimit:2;">
    <path d="M17.395,4.183C13.994,4.158 11.041,6.088 9.595,8.915C8.349,11.351 6.858,13.657 5.035,15.698C3.508,17.407 2.064,19.937 2.004,23.425C2.001,23.501 2,23.576 2,23.652C2,28.34 5.804,32.141 10.495,32.141L10.522,32.141C10.586,32.141 10.651,32.14 10.714,32.139C19.182,32.022 26.009,25.128 26.009,16.64L26.009,12.966C26.009,8.183 22.181,4.218 17.395,4.183Z" style="fill:rgb(240,166,95);fill-rule:nonzero;"/>
    <path d="M26.009,16.64L26.009,12.966C26.009,10.039 24.575,7.419 22.366,5.818C23.427,7.278 24.053,9.078 24.053,11.011L24.053,11.904C24.053,13.477 22.919,14.818 21.369,15.089C20.559,15.231 19.766,15.323 18.979,15.368C16.428,15.512 14.11,16.523 12.275,18.293C12.226,18.339 12.178,18.386 12.13,18.435C10.645,19.918 9.827,21.89 9.827,23.988C9.827,25.218 10.177,26.331 10.614,27.243C11.264,28.599 10.3,30.18 8.796,30.185L8.759,30.185C6.455,30.185 4.984,29.598 3.59,28.598C5.132,30.744 7.65,32.142 10.495,32.142C18.949,32.1 26.009,25.117 26.009,16.64Z" style="fill:rgb(226,133,64);fill-rule:nonzero;"/>
    <path d="M21.512,16.824C21.312,16.824 21.125,16.7 21.053,16.501C21.036,16.454 20.672,15.505 19.53,15.107C19.276,15.018 19.142,14.74 19.23,14.486C19.319,14.232 19.597,14.098 19.852,14.187C21.453,14.745 21.952,16.117 21.972,16.175C22.061,16.429 21.927,16.707 21.673,16.797C21.62,16.815 21.566,16.824 21.512,16.824Z" style="fill:rgb(226,133,64);fill-rule:nonzero;"/>
    <path d="M32.095,17.122C30.251,15.252 27.585,14.694 25.25,15.449C23.239,16.1 21.165,16.545 19.054,16.665C17.286,16.766 15.115,17.359 13.176,19.23C13.134,19.27 13.092,19.311 13.05,19.353C10.488,21.913 10.488,26.063 13.05,28.623C13.055,28.628 13.06,28.633 13.065,28.638C13.1,28.673 13.136,28.707 13.171,28.741C17.858,33.297 25.353,33.258 29.991,28.623L31.999,26.617C34.613,24.005 34.689,19.752 32.095,17.122Z" style="fill:rgb(240,166,95);fill-rule:nonzero;"/>
    <path d="M32.095,17.122C31.813,16.837 31.513,16.582 31.198,16.358C33.065,18.99 32.773,22.68 30.416,25.035L28.409,27.041C24.037,31.41 17.128,31.694 12.424,27.898C12.612,28.192 13.137,28.707 13.172,28.742C17.859,33.297 25.354,33.258 29.992,28.623L32,26.617C34.613,24.006 34.688,19.752 32.095,17.122Z" style="fill:rgb(226,133,64);fill-rule:nonzero;"/>
    <path d="M11.595,6.879C11.606,6.878 12.654,6.808 13.673,7.173C13.727,7.192 13.782,7.201 13.837,7.201C14.037,7.201 14.225,7.077 14.296,6.878C14.387,6.625 14.255,6.346 14.002,6.255C13.308,6.007 12.614,5.927 12.138,5.905C11.805,6.154 11.491,6.425 11.197,6.717C11.294,6.826 11.438,6.891 11.595,6.879Z" style="fill:rgb(226,133,64);fill-rule:nonzero;"/>
    <path d="M14.49,15.004C14.336,15.004 14.185,14.931 14.089,14.795C13.407,13.815 11.898,13.769 11.882,13.769C11.613,13.766 11.397,13.545 11.4,13.275C11.404,13.008 11.621,12.794 11.888,12.794L11.894,12.794C11.976,12.795 13.912,12.835 14.89,14.238C15.044,14.458 14.989,14.762 14.768,14.916C14.684,14.975 14.587,15.004 14.49,15.004Z" style="fill:rgb(226,133,64);fill-rule:nonzero;"/>
    <path d="M21.187,10.455C20.968,10.455 20.768,10.305 20.713,10.082C20.446,8.978 19.19,8.701 19.138,8.689C18.875,8.634 18.706,8.376 18.76,8.114C18.815,7.851 19.07,7.681 19.334,7.735C19.412,7.751 21.247,8.141 21.662,9.853C21.725,10.114 21.564,10.378 21.303,10.441C21.264,10.45 21.225,10.455 21.187,10.455Z" style="fill:rgb(226,133,64);fill-rule:nonzero;"/>
    <path d="M8.569,20.723C8.353,20.723 8.157,20.58 8.098,20.362C7.735,19.016 5.987,18.772 5.97,18.769C5.704,18.734 5.515,18.49 5.549,18.223C5.583,17.957 5.826,17.769 6.093,17.802C6.191,17.814 8.505,18.125 9.04,20.108C9.11,20.368 8.956,20.636 8.696,20.706C8.654,20.718 8.611,20.723 8.569,20.723Z" style="fill:rgb(226,133,64);fill-rule:nonzero;"/>
    <path d="M26.906,15.138C26.463,15.165 26.023,15.236 25.592,15.35C25.629,15.496 25.731,15.623 25.881,15.683C25.897,15.69 27.423,16.323 27.596,17.698C27.628,17.944 27.837,18.124 28.08,18.124C28.1,18.124 28.121,18.123 28.142,18.121C28.409,18.087 28.598,17.843 28.565,17.576C28.408,16.334 27.535,15.55 26.906,15.138Z" style="fill:rgb(226,133,64);fill-rule:nonzero;"/>
    <path d="M23.398,21.633C23.147,21.633 22.934,21.44 22.913,21.185C22.809,19.938 21.328,19.257 21.314,19.25C21.068,19.14 20.958,18.851 21.068,18.606C21.178,18.361 21.465,18.251 21.711,18.359C21.794,18.396 23.733,19.277 23.886,21.104C23.908,21.372 23.708,21.608 23.44,21.63C23.425,21.633 23.412,21.633 23.398,21.633Z" style="fill:rgb(226,133,64);fill-rule:nonzero;"/>
    <path d="M28.473,23.063C28.228,23.063 28.017,22.88 27.989,22.631C27.89,21.78 27.076,21.317 27.068,21.313C26.833,21.183 26.747,20.887 26.876,20.652C27.005,20.417 27.299,20.329 27.535,20.457C27.587,20.486 28.801,21.157 28.958,22.52C28.989,22.787 28.797,23.029 28.53,23.06C28.51,23.062 28.491,23.063 28.473,23.063Z" style="fill:rgb(226,133,64);fill-rule:nonzero;"/>
    <path d="M14.618,21.438C14.36,21.438 14.144,21.236 14.131,20.975C14.086,20.065 12.967,19.833 12.955,19.83C12.691,19.778 12.519,19.522 12.572,19.258C12.625,18.994 12.881,18.822 13.146,18.875C13.794,19.003 15.04,19.598 15.106,20.926C15.119,21.195 14.912,21.424 14.643,21.437C14.635,21.437 14.627,21.438 14.618,21.438Z" style="fill:rgb(226,133,64);fill-rule:nonzero;"/>
    <path d="M23.022,28.935C22.945,28.677 22.674,28.53 22.416,28.607C22.158,28.683 22.011,28.955 22.087,29.213C22.513,30.642 21.692,31.71 21.653,31.759C21.567,31.868 21.535,32.001 21.551,32.128C21.905,32.127 22.259,32.11 22.611,32.078C22.924,31.557 23.453,30.385 23.022,28.935Z" style="fill:rgb(226,133,64);fill-rule:nonzero;"/>
</svg>
