<?xml version="1.0" encoding="UTF-8" standalone="no"?>
<!DOCTYPE svg PUBLIC "-//W3C//DTD SVG 1.1//EN" "http://www.w3.org/Graphics/SVG/1.1/DTD/svg11.dtd">
<svg width="100%" height="100%" viewBox="0 0 36 36" version="1.1" xmlns="http://www.w3.org/2000/svg" xmlns:xlink="http://www.w3.org/1999/xlink" xml:space="preserve" xmlns:serif="http://www.serif.com/" style="fill-rule:evenodd;clip-rule:evenodd;stroke-linejoin:round;stroke-miterlimit:2;">
    <path d="M6.651,11.528C3.637,12.929 2.861,17.642 4.917,22.057C6.58,25.627 9.587,27.908 12.271,27.909C13.506,27.91 14.624,28.64 15.145,29.759C14.624,28.64 14.783,27.317 15.579,26.372C17.306,24.322 17.496,20.556 15.833,16.986C13.776,12.572 9.666,10.128 6.651,11.528Z" style="fill:rgb(150,205,130);fill-rule:nonzero;"/>
    <path d="M13.923,26.646C13.908,26.618 13.901,26.587 13.886,26.559C11.115,26.642 7.867,24.617 5.765,21.199C4.633,19.36 4.018,17.405 3.891,15.614C3.564,17.528 3.88,19.833 4.917,22.057C6.579,25.627 9.586,27.909 12.27,27.91C13.505,27.911 14.623,28.641 15.144,29.76C14.975,29.396 14.882,29.011 14.856,28.625C14.556,27.96 14.268,27.289 13.923,26.646Z" style="fill:rgb(125,190,129);fill-rule:nonzero;"/>
    <path d="M29.501,6.835C25.889,5.193 21.008,8.151 18.597,13.44C16.648,17.718 16.911,22.21 18.994,24.64C19.953,25.759 20.156,27.338 19.546,28.679C20.157,27.338 21.483,26.455 22.958,26.441C26.161,26.413 29.726,23.661 31.675,19.383C34.086,14.094 33.112,8.475 29.501,6.835Z" style="fill:rgb(150,205,130);fill-rule:nonzero;"/>
    <path d="M17.299,18.555C17.184,20.58 17.575,22.435 18.425,23.837C18.456,23.889 18.488,23.941 18.52,23.991C18.667,24.219 18.822,24.439 18.995,24.64C18.997,24.643 19.18,24.88 19.26,25.002C19.334,25.116 19.402,25.234 19.464,25.354C19.993,26.376 20.037,27.603 19.547,28.679C19.627,28.502 19.724,28.336 19.828,28.177L23.096,20.738L17.299,18.555Z" style="fill:rgb(125,190,129);fill-rule:nonzero;"/>
    <path d="M23.436,20.656C23.219,20.656 23.016,20.525 22.935,20.311C22.831,20.035 22.97,19.727 23.246,19.622L29.682,17.196C29.959,17.091 30.267,17.231 30.371,17.507C30.476,17.783 30.336,18.091 30.06,18.195L23.624,20.622C23.563,20.645 23.498,20.656 23.436,20.656Z" style="fill:rgb(180,230,160);fill-rule:nonzero;"/>
    <path d="M17.027,34.821C16.953,34.821 16.879,34.806 16.807,34.774C16.538,34.652 16.418,34.336 16.54,34.067L27.156,10.607C27.278,10.338 27.594,10.219 27.863,10.34C28.132,10.462 28.252,10.778 28.13,11.046L17.514,34.507C17.426,34.704 17.23,34.821 17.027,34.821Z" style="fill:rgb(205,245,160);fill-rule:nonzero;"/>
    <path d="M17.029,34.821C16.825,34.821 16.63,34.703 16.54,34.506L9.778,19.476C9.657,19.207 9.777,18.891 10.046,18.77C10.317,18.648 10.632,18.769 10.753,19.038L17.516,34.068C17.637,34.337 17.517,34.653 17.247,34.774C17.175,34.806 17.102,34.821 17.029,34.821Z" style="fill:rgb(180,230,160);fill-rule:nonzero;"/>
    <path d="M11.69,23.025C11.624,23.025 11.559,23.013 11.495,22.988L7.386,21.39C7.111,21.284 6.974,20.974 7.082,20.699C7.188,20.424 7.497,20.288 7.774,20.395L11.884,21.993C12.159,22.1 12.295,22.41 12.188,22.685C12.106,22.895 11.904,23.025 11.69,23.025Z" style="fill:rgb(180,230,160);fill-rule:nonzero;"/>
    <path d="M17.027,27.974C17.027,26.33 17.966,24.82 19.458,24.125C22.7,22.617 25.048,18.174 25.048,12.927C25.048,6.439 21.457,1.179 17.027,1.179C12.597,1.179 9.006,6.439 9.006,12.927C9.006,18.174 11.354,22.617 14.596,24.125C16.088,24.82 17.027,26.33 17.027,27.974Z" style="fill:rgb(150,205,130);fill-rule:nonzero;"/>
    <path d="M17.081,23.673C14.144,22.125 11.675,18.302 10.905,13.543C10.232,9.387 11.019,5.494 12.76,2.981C10.509,5.061 9.008,8.741 9.008,12.927C9.008,18.174 11.356,22.617 14.598,24.125C16.09,24.82 17.029,26.33 17.029,27.974C17.029,27.758 17.051,27.545 17.082,27.334L17.082,23.673L17.081,23.673Z" style="fill:rgb(125,190,129);fill-rule:nonzero;"/>
    <path d="M17.027,22.005C16.89,22.005 16.754,21.953 16.649,21.849L10.259,15.467C10.049,15.258 10.049,14.921 10.259,14.712C10.467,14.503 10.806,14.503 11.015,14.712L17.405,21.094C17.614,21.303 17.614,21.641 17.405,21.849C17.301,21.953 17.164,22.005 17.027,22.005Z" style="fill:rgb(180,230,160);fill-rule:nonzero;"/>
    <path d="M17.028,17.733C16.891,17.733 16.754,17.681 16.649,17.577C16.44,17.369 16.44,17.03 16.649,16.822L21.997,11.482C22.206,11.273 22.544,11.273 22.753,11.482C22.962,11.691 22.962,12.029 22.753,12.237L17.405,17.577C17.301,17.681 17.164,17.733 17.028,17.733Z" style="fill:rgb(180,230,160);fill-rule:nonzero;"/>
    <path d="M17.026,13.995C16.889,13.995 16.752,13.943 16.648,13.839L12.905,10.101C12.696,9.892 12.696,9.554 12.905,9.346C13.114,9.137 13.452,9.137 13.661,9.346L17.404,13.084C17.613,13.293 17.613,13.63 17.404,13.839C17.3,13.943 17.163,13.995 17.026,13.995Z" style="fill:rgb(180,230,160);fill-rule:nonzero;"/>
    <path d="M17.027,34.821C16.732,34.821 16.492,34.582 16.492,34.287L16.492,5.985C16.492,5.69 16.732,5.451 17.027,5.451C17.323,5.451 17.561,5.69 17.561,5.985L17.561,34.287C17.561,34.582 17.323,34.821 17.027,34.821Z" style="fill:rgb(205,245,160);fill-rule:nonzero;"/>
</svg>
