<?xml version="1.0" encoding="UTF-8" standalone="no"?>
<!DOCTYPE svg PUBLIC "-//W3C//DTD SVG 1.1//EN" "http://www.w3.org/Graphics/SVG/1.1/DTD/svg11.dtd">
<svg width="100%" height="100%" viewBox="0 0 36 36" version="1.1" xmlns="http://www.w3.org/2000/svg" xmlns:xlink="http://www.w3.org/1999/xlink" xml:space="preserve" xmlns:serif="http://www.serif.com/" style="fill-rule:evenodd;clip-rule:evenodd;stroke-linejoin:round;stroke-miterlimit:2;">
    <path d="M26.806,15.459C25.382,15.459 24.228,16.613 24.228,18.037C23.435,18.036 22.712,18.491 22.368,19.205C22.024,19.92 22.121,20.769 22.616,21.389C23.112,22.008 23.919,22.288 24.692,22.109C25.466,21.929 26.066,21.323 26.239,20.549C26.425,20.592 26.615,20.615 26.806,20.616C28.23,20.616 29.384,19.462 29.384,18.038C29.384,16.613 28.23,15.459 26.806,15.459Z" style="fill:rgb(122,185,45);fill-rule:nonzero;"/>
    <path d="M9.793,14.428L10.144,15.217C12.624,20.798 13.741,26.89 13.402,32.988L22.682,32.988C22.343,26.89 23.46,20.798 25.94,15.217L26.291,14.428L9.793,14.428Z" style="fill:rgb(225,255,133);fill-rule:nonzero;"/>
    <path d="M12.742,14.428L9.793,14.428C12.175,19.784 13.405,25.58 13.402,31.441L13.402,32.988L22.682,32.988C22.646,32.302 22.625,31.612 22.625,30.926L20.048,30.632C17.514,30.326 15.55,28.27 15.361,25.724C15.254,24.441 15.082,23.164 14.846,21.898C14.885,21.729 14.906,21.556 14.907,21.383C14.907,20.896 14.752,20.424 14.464,20.032C14.412,19.8 14.351,19.573 14.294,19.341C14.997,19.004 15.45,18.301 15.464,17.521C15.463,17.397 15.45,17.272 15.428,17.15C17.168,17.779 19.098,17.589 20.682,16.634L20.682,16.722C20.126,17.009 19.731,17.532 19.607,18.146C19.482,18.759 19.644,19.394 20.043,19.875C20.444,20.355 21.041,20.627 21.666,20.616C22.291,20.604 22.877,20.31 23.26,19.815C23.552,19.93 23.857,20.007 24.167,20.047C24.646,18.398 25.237,16.782 25.935,15.211L26.291,14.428L12.742,14.428Z" style="fill:rgb(196,242,54);fill-rule:nonzero;"/>
    <path d="M13.236,14.701C14.64,17.862 15.612,21.199 16.124,24.621C16.175,24.985 16.487,25.256 16.856,25.255C17.021,25.255 17.151,25.116 17.139,24.951C16.91,21.505 16.435,18.08 15.721,14.701L13.236,14.701Z" style="fill:rgb(196,242,54);fill-rule:nonzero;"/>
    <path d="M20.362,14.701C19.69,17.87 19.231,21.081 18.991,24.311C18.973,24.555 19.058,24.796 19.226,24.976C19.394,25.154 19.627,25.256 19.872,25.255C20.354,21.612 21.355,18.058 22.847,14.701L20.362,14.701Z" style="fill:rgb(196,242,54);fill-rule:nonzero;"/>
    <path d="M19.872,25.77L19.799,25.77C19.517,25.733 19.319,25.475 19.356,25.193C19.667,22.877 20.184,20.595 20.903,18.372C21.002,18.12 21.281,17.988 21.539,18.071C21.798,18.154 21.948,18.423 21.882,18.686C21.187,20.851 20.686,23.073 20.387,25.327C20.351,25.583 20.13,25.773 19.872,25.77Z" style="fill:rgb(161,213,28);fill-rule:nonzero;"/>
    <path d="M15.695,25.255C15.434,25.257 15.213,25.065 15.179,24.806C14.91,22.834 14.488,20.886 13.916,18.98C13.908,18.932 13.908,18.884 13.916,18.836L13.916,18.769C13.916,18.485 14.147,18.253 14.432,18.253C14.716,18.253 14.947,18.485 14.947,18.769C15.517,20.705 15.94,22.682 16.21,24.683C16.244,24.963 16.046,25.217 15.767,25.255L15.695,25.255Z" style="fill:rgb(161,213,28);fill-rule:nonzero;"/>
    <path d="M28.867,9.788C28.868,8.233 28.091,6.781 26.796,5.921C25.501,5.06 23.861,4.905 22.428,5.509C20.349,2.805 16.476,2.293 13.767,4.364C13.318,4.202 12.845,4.119 12.369,4.116C10.489,4.118 8.849,5.39 8.379,7.21L8.245,7.21C5.798,7.211 3.688,8.932 3.196,11.328C2.703,13.726 3.965,16.139 6.214,17.104C6.193,17.242 6.183,17.382 6.183,17.521C6.183,18.342 6.508,19.128 7.088,19.709C7.669,20.289 8.455,20.615 9.276,20.615C9.716,20.616 10.151,20.521 10.549,20.336C10.861,20.981 11.454,21.445 12.156,21.594C12.857,21.742 13.588,21.557 14.133,21.092C14.68,20.628 14.98,19.937 14.946,19.221C14.913,18.505 14.549,17.845 13.962,17.434C14.847,17.183 15.458,16.378 15.463,15.459C15.461,15.334 15.449,15.21 15.427,15.088C17.167,15.717 19.097,15.527 20.68,14.572L20.68,14.66C20.124,14.947 19.729,15.47 19.605,16.084C19.481,16.696 19.642,17.332 20.042,17.812C20.442,18.293 21.039,18.565 21.664,18.554C22.29,18.542 22.876,18.248 23.258,17.753C24.42,18.209 25.727,18.107 26.805,17.48C27.915,18.124 29.263,18.215 30.449,17.725C31.636,17.235 32.526,16.22 32.859,14.98C33.191,13.74 32.928,12.416 32.145,11.399C31.363,10.381 30.151,9.785 28.867,9.788Z" style="fill:rgb(161,213,28);fill-rule:nonzero;"/>
    <path d="M14.174,20.099C13.294,20.091 12.493,19.584 12.112,18.79C11.708,18.977 11.268,19.071 10.823,19.068C9.115,19.068 7.73,17.683 7.73,15.975C7.73,15.835 7.74,15.695 7.761,15.557C6.367,14.959 5.307,13.778 4.862,12.328C4.418,10.877 4.635,9.306 5.456,8.03C3.853,9.062 2.95,10.895 3.108,12.794C3.267,14.694 4.461,16.352 6.213,17.104C6.193,17.242 6.183,17.382 6.183,17.521C6.183,19.23 7.568,20.615 9.276,20.615C9.716,20.616 10.151,20.521 10.55,20.336C10.962,21.196 11.862,21.715 12.813,21.638C13.764,21.562 14.57,20.907 14.839,19.991C14.624,20.059 14.4,20.095 14.174,20.099Z" style="fill:rgb(122,185,45);fill-rule:nonzero;"/>
    <path d="M30.415,16.49C29.69,16.488 28.979,16.297 28.352,15.933C27.276,16.561 25.972,16.664 24.81,16.212C24.266,16.896 23.35,17.162 22.524,16.877C21.698,16.592 21.141,15.817 21.134,14.944C21.135,14.68 21.188,14.419 21.289,14.175C21.096,14.327 20.892,14.467 20.681,14.593L20.681,14.675C20.125,14.962 19.729,15.486 19.606,16.099C19.481,16.712 19.643,17.348 20.042,17.828C20.443,18.308 21.04,18.582 21.665,18.57C22.29,18.558 22.876,18.264 23.258,17.769C24.423,18.219 25.73,18.113 26.805,17.48C27.761,18.036 28.899,18.185 29.965,17.894C31.031,17.604 31.936,16.897 32.477,15.933C31.851,16.299 31.139,16.491 30.415,16.49Z" style="fill:rgb(122,185,45);fill-rule:nonzero;"/>
    <path d="M17.526,15.975C15.748,15.98 14.043,15.274 12.788,14.015C12.613,13.811 12.625,13.506 12.816,13.316C13.005,13.126 13.31,13.114 13.515,13.288C14.579,14.353 16.021,14.95 17.526,14.95C19.031,14.95 20.473,14.352 21.537,13.288C21.631,13.179 21.766,13.114 21.908,13.109C22.052,13.103 22.191,13.158 22.293,13.259C22.395,13.361 22.45,13.501 22.444,13.644C22.438,13.788 22.373,13.923 22.264,14.015C21.01,15.274 19.304,15.98 17.526,15.975Z" style="fill:rgb(122,185,45);fill-rule:nonzero;"/>
    <path d="M9.276,16.49C7.245,16.494 5.368,15.412 4.352,13.654C4.21,13.407 4.295,13.091 4.543,12.948C4.79,12.805 5.107,12.891 5.249,13.139C5.864,14.207 6.88,14.985 8.071,15.303C9.261,15.621 10.53,15.453 11.596,14.835C11.714,14.767 11.856,14.748 11.989,14.784C12.121,14.819 12.234,14.907 12.302,15.026C12.371,15.144 12.389,15.286 12.353,15.418C12.317,15.551 12.23,15.663 12.111,15.732C11.249,16.229 10.271,16.491 9.276,16.49Z" style="fill:rgb(122,185,45);fill-rule:nonzero;"/>
    <path d="M7.988,14.17C6.564,14.17 5.41,13.016 5.41,11.592C5.41,11.308 5.641,11.077 5.926,11.077C6.21,11.077 6.441,11.308 6.441,11.592C6.441,12.446 7.134,13.139 7.988,13.139C8.842,13.139 9.535,12.446 9.535,11.592C9.535,11.308 9.766,11.077 10.05,11.077C10.335,11.077 10.566,11.308 10.566,11.592C10.566,13.016 9.412,14.17 7.988,14.17Z" style="fill:rgb(122,185,45);fill-rule:nonzero;"/>
    <path d="M32.993,13.912C32.993,11.634 31.147,9.788 28.869,9.788C28.87,8.233 28.092,6.781 26.797,5.921C25.502,5.06 23.863,4.905 22.429,5.509C20.351,2.805 16.477,2.293 13.768,4.364C13.319,4.202 12.847,4.119 12.371,4.116C10.658,4.119 9.125,5.18 8.52,6.782C9.283,6.064 10.291,5.664 11.34,5.663C11.816,5.666 12.288,5.749 12.737,5.911C15.446,3.84 19.32,4.352 21.398,7.055C22.832,6.452 24.471,6.608 25.766,7.468C27.061,8.328 27.839,9.78 27.838,11.334C29.191,11.335 30.458,12 31.228,13.113C31.997,14.227 32.171,15.646 31.694,16.913C32.523,16.134 32.992,15.049 32.993,13.912Z" style="fill:rgb(196,242,54);fill-rule:nonzero;"/>
    <path d="M16.494,12.366C15.376,12.361 14.346,11.755 13.802,10.778C13.67,10.804 13.535,10.818 13.4,10.819C12.262,10.819 11.338,9.895 11.338,8.757C11.338,8.472 11.569,8.241 11.854,8.241C12.138,8.241 12.369,8.472 12.369,8.757C12.371,9.111 12.555,9.439 12.855,9.626C13.155,9.814 13.53,9.833 13.849,9.68C13.981,9.615 14.133,9.61 14.269,9.665C14.405,9.72 14.51,9.831 14.56,9.968C14.853,10.785 15.626,11.331 16.494,11.335C17.227,11.332 17.905,10.939 18.272,10.304C18.344,10.181 18.464,10.093 18.602,10.061C18.743,10.029 18.891,10.057 19.01,10.139C19.327,10.353 19.738,10.374 20.076,10.192C20.414,10.01 20.622,9.656 20.618,9.272C20.618,8.988 20.849,8.757 21.134,8.757C21.418,8.757 21.649,8.988 21.649,9.272C21.649,10.411 20.725,11.335 19.587,11.335C19.349,11.336 19.113,11.293 18.891,11.211C18.307,11.938 17.426,12.361 16.494,12.366Z" style="fill:rgb(122,185,45);fill-rule:nonzero;"/>
    <path d="M28.353,14.943C27.235,14.939 26.206,14.332 25.662,13.355C25.529,13.382 25.394,13.396 25.26,13.397C24.121,13.397 23.197,12.473 23.197,11.334C23.197,11.05 23.428,10.819 23.713,10.819C23.997,10.819 24.228,11.05 24.228,11.334C24.23,11.688 24.414,12.017 24.714,12.204C25.015,12.391 25.389,12.411 25.708,12.257C25.84,12.193 25.993,12.188 26.128,12.243C26.264,12.298 26.37,12.409 26.42,12.546C26.713,13.362 27.485,13.909 28.353,13.912C29.087,13.91 29.765,13.517 30.132,12.881C30.28,12.648 30.585,12.573 30.825,12.711C31.064,12.849 31.152,13.152 31.023,13.397C30.473,14.351 29.455,14.94 28.353,14.943Z" style="fill:rgb(122,185,45);fill-rule:nonzero;"/>
</svg>
