<?xml version="1.0" encoding="UTF-8" standalone="no"?>
<!DOCTYPE svg PUBLIC "-//W3C//DTD SVG 1.1//EN" "http://www.w3.org/Graphics/SVG/1.1/DTD/svg11.dtd">
<svg width="100%" height="100%" viewBox="0 0 36 36" version="1.1" xmlns="http://www.w3.org/2000/svg" xmlns:xlink="http://www.w3.org/1999/xlink" xml:space="preserve" xmlns:serif="http://www.serif.com/" style="fill-rule:evenodd;clip-rule:evenodd;stroke-linejoin:round;stroke-miterlimit:2;">
    <path d="M14.102,12.964L13.394,7.149L12.141,9.827L7.918,7.944L9.794,12.182L7.125,13.439L12.92,14.15" style="fill:rgb(64,178,64);fill-rule:nonzero;"/>
    <path d="M33.01,17.488C32.953,26.692 25.525,34.052 16.352,33.999C13.724,33.984 11.241,33.355 9.038,32.247C8.373,31.913 7.735,31.535 7.125,31.118C5.892,30.273 4.907,29.105 4.312,27.731C4.309,27.723 4.305,27.714 4.302,27.707C0.651,19.225 5.218,15.417 10.681,13.586C12.031,13.134 13.09,12.071 13.541,10.716C14.999,6.337 17.715,2.532 23.06,3.047C24.694,3.205 26.241,3.878 27.467,4.974C27.472,4.979 27.478,4.984 27.483,4.989C30.9,8.054 33.041,12.52 33.01,17.488Z" style="fill:rgb(228,40,0);fill-rule:nonzero;"/>
    <path d="M33.005,16.944C33.252,26.506 25.339,34.349 15.812,33.987C13.39,33.896 11.101,33.281 9.053,32.255C9.043,32.25 9.033,32.244 9.023,32.238C8.956,32.194 8.89,32.149 8.825,32.103C7.612,31.261 6.619,30.276 5.857,29.158C5.488,28.616 5.174,28.043 4.915,27.441C3.896,25.076 3.494,22.969 3.719,21.179C3.912,19.642 4.579,18.291 5.703,17.164C6.897,15.965 8.643,14.975 10.893,14.222C11.072,14.161 11.246,14.091 11.418,14.013C11.975,13.755 12.487,13.398 12.921,12.964C13.337,12.546 13.68,12.058 13.933,11.526C14.026,11.333 14.107,11.133 14.175,10.929C14.926,8.672 15.912,6.92 17.107,5.721C18.231,4.593 19.577,3.924 21.109,3.731C22.798,3.517 24.771,3.868 26.979,4.773C27.102,4.823 27.225,4.876 27.351,4.93C27.382,4.943 27.414,4.957 27.445,4.971C27.471,4.983 27.494,4.998 27.515,5.017C30.788,7.969 32.883,12.21 33.005,16.944Z" style="fill:rgb(244,61,47);fill-rule:nonzero;"/>
    <path d="M33.01,17.382C33.01,26.56 25.596,34 16.449,34C13.784,34 11.268,33.369 9.038,32.248C8.966,32.2 8.895,32.152 8.825,32.103C7.612,31.262 6.619,30.276 5.857,29.158C5.927,29.193 5.995,29.229 6.065,29.264C8.295,30.385 10.812,31.016 13.476,31.016C22.623,31.016 30.038,23.577 30.038,14.399C30.038,10.811 28.905,7.49 26.978,4.774C27.101,4.824 27.225,4.876 27.35,4.93C27.395,4.95 27.439,4.969 27.483,4.989C30.875,8.033 33.01,12.457 33.01,17.382Z" style="fill:rgb(219,52,44);fill-rule:nonzero;"/>
    <path d="M25.68,27.474C25.68,27.574 25.66,27.676 25.618,27.773C25.382,28.323 25.04,28.825 24.601,29.265C23.695,30.174 22.368,30.847 20.762,31.214C19.055,31.604 17.174,31.622 15.322,31.267C14.937,31.193 14.56,31.104 14.193,31.001C12.892,30.635 11.697,30.087 10.693,29.391C9.407,28.498 8.478,27.402 7.932,26.134C7.161,24.342 6.832,22.771 6.98,21.591C7.081,20.787 7.423,20.101 8.027,19.495C8.275,19.247 8.809,18.922 9.445,18.584C10.949,17.784 12.828,18.466 13.44,20.06C13.739,20.839 14.21,21.58 14.849,22.222C15.878,23.254 17.164,23.848 18.448,23.992C20.777,24.252 22.991,25.097 24.86,26.468C25.046,26.605 25.23,26.747 25.409,26.895C25.585,27.04 25.68,27.255 25.68,27.474Z" style="fill:rgb(228,40,0);fill-rule:nonzero;"/>
    <path d="M31.11,20.833C30.744,22.444 30.072,23.776 29.167,24.684C28.948,24.904 28.713,25.101 28.464,25.27C28.215,25.441 27.954,25.587 27.68,25.706C27.374,25.839 27.016,25.753 26.805,25.494C26.641,25.293 26.483,25.087 26.331,24.876C24.993,23.016 24.168,20.819 23.912,18.511C23.77,17.222 23.176,15.932 22.148,14.9C21.508,14.258 20.769,13.785 19.993,13.485C18.406,12.87 17.725,10.986 18.522,9.476C18.859,8.839 19.183,8.303 19.43,8.054C20.034,7.449 20.717,7.105 21.519,7.003C22.696,6.855 24.261,7.185 26.047,7.958C27.312,8.506 28.404,9.439 29.293,10.73C29.47,10.985 29.636,11.254 29.793,11.532C30.427,12.664 30.895,13.974 31.163,15.374C31.517,17.233 31.498,19.12 31.11,20.833Z" style="fill:rgb(228,40,0);fill-rule:nonzero;"/>
    <path d="M21.48,10.005C21.281,10.204 20.971,10.256 20.718,10.135C20.474,10.017 20.322,9.753 20.342,9.482C20.364,9.191 20.577,8.944 20.859,8.879C21.12,8.818 21.4,8.927 21.553,9.146C21.738,9.409 21.707,9.777 21.48,10.005Z" style="fill:rgb(249,104,98);fill-rule:nonzero;"/>
    <path d="M25.68,27.474C25.68,27.574 25.661,27.676 25.619,27.773C25.382,28.323 25.041,28.825 24.601,29.265C23.696,30.173 22.369,30.847 20.762,31.214C19.056,31.604 17.175,31.622 15.322,31.267C14.938,31.193 14.561,31.104 14.193,31.001C18.319,30.824 22.053,29.134 24.859,26.469C25.045,26.606 25.229,26.747 25.409,26.895C25.585,27.04 25.68,27.255 25.68,27.474Z" style="fill:rgb(204,33,5);fill-rule:nonzero;"/>
    <path d="M31.11,20.833C30.745,22.444 30.073,23.776 29.168,24.684C28.948,24.904 28.713,25.101 28.465,25.271C28.216,25.441 27.955,25.587 27.68,25.706C27.375,25.839 27.017,25.753 26.806,25.495C26.641,25.293 26.483,25.087 26.332,24.876C28.65,22.018 30.038,18.371 30.038,14.4C30.038,13.422 29.954,12.465 29.793,11.533C30.428,12.665 30.896,13.975 31.163,15.375C31.517,17.233 31.499,19.12 31.11,20.833Z" style="fill:rgb(204,33,5);fill-rule:nonzero;"/>
    <path d="M28.578,21.809C28.23,21.689 28.045,21.307 28.165,20.958C28.285,20.608 28.665,20.422 29.014,20.542C29.362,20.663 29.547,21.044 29.427,21.394C29.393,21.493 29.338,21.579 29.269,21.649C29.093,21.825 28.828,21.895 28.578,21.809ZM29.173,19.739C28.806,19.703 28.537,19.376 28.573,19.008C28.609,18.64 28.936,18.37 29.303,18.407C29.67,18.443 29.938,18.771 29.902,19.139C29.886,19.298 29.815,19.441 29.71,19.546C29.574,19.683 29.38,19.76 29.173,19.739ZM29.302,17.589C28.935,17.622 28.609,17.352 28.576,16.983C28.542,16.615 28.812,16.288 29.179,16.255C29.546,16.221 29.871,16.491 29.905,16.86L29.904,16.86C29.924,17.066 29.847,17.26 29.711,17.395C29.605,17.502 29.463,17.574 29.302,17.589ZM29.034,15.45C28.679,15.55 28.31,15.341 28.211,14.985C28.112,14.629 28.32,14.26 28.675,14.16C29.03,14.061 29.398,14.269 29.497,14.625C29.564,14.867 29.49,15.114 29.326,15.279C29.248,15.358 29.148,15.419 29.034,15.45ZM28.383,13.397C28.056,13.568 27.653,13.442 27.482,13.114C27.312,12.786 27.437,12.381 27.764,12.21C28.09,12.039 28.494,12.165 28.665,12.492C28.803,12.758 28.747,13.075 28.547,13.276C28.499,13.323 28.445,13.364 28.383,13.397ZM27.301,11.532C27.037,11.79 26.614,11.784 26.357,11.519C26.1,11.253 26.106,10.83 26.37,10.572C26.635,10.314 27.057,10.32 27.314,10.585C27.568,10.848 27.565,11.267 27.308,11.525C27.306,11.528 27.303,11.53 27.301,11.532ZM24.816,10.468C24.476,10.325 24.316,9.933 24.459,9.591C24.601,9.25 24.993,9.09 25.332,9.233C25.672,9.376 25.832,9.769 25.689,10.109C25.655,10.192 25.605,10.265 25.545,10.324C25.36,10.51 25.073,10.576 24.816,10.468ZM22.905,9.856C22.543,9.786 22.306,9.435 22.375,9.072C22.445,8.709 22.795,8.471 23.157,8.541L23.158,8.54C23.519,8.611 23.756,8.962 23.687,9.325C23.66,9.461 23.595,9.58 23.504,9.671C23.352,9.824 23.131,9.9 22.905,9.856Z" style="fill:rgb(249,104,98);fill-rule:nonzero;"/>
    <path d="M28.221,23.516C28.022,23.716 27.713,23.767 27.46,23.646C27.215,23.529 27.064,23.265 27.084,22.994C27.105,22.704 27.319,22.456 27.601,22.391C27.861,22.33 28.142,22.439 28.295,22.658C28.479,22.921 28.448,23.289 28.221,23.516Z" style="fill:rgb(249,104,98);fill-rule:nonzero;"/>
    <path d="M9.972,21.552C9.773,21.751 9.463,21.803 9.21,21.681C8.967,21.564 8.813,21.3 8.834,21.028C8.857,20.738 9.068,20.491 9.351,20.425C9.612,20.365 9.893,20.473 10.046,20.692C10.229,20.956 10.199,21.323 9.972,21.552Z" style="fill:rgb(249,104,98);fill-rule:nonzero;"/>
    <path d="M21.322,29.525C20.974,29.646 20.594,29.461 20.474,29.111C20.353,28.761 20.538,28.38 20.887,28.259C21.235,28.138 21.615,28.325 21.736,28.674C21.822,28.924 21.751,29.19 21.577,29.366C21.507,29.436 21.421,29.491 21.322,29.525ZM19.074,30.003C18.707,30.039 18.381,29.769 18.344,29.402C18.308,29.034 18.576,28.706 18.943,28.67C19.31,28.634 19.636,28.903 19.673,29.272C19.693,29.479 19.617,29.674 19.481,29.811C19.375,29.916 19.234,29.987 19.074,30.003ZM16.803,30.006C16.436,29.971 16.166,29.645 16.2,29.277C16.233,28.909 16.558,28.637 16.926,28.671C17.293,28.705 17.563,29.031 17.529,29.399C17.514,29.562 17.443,29.705 17.337,29.811C17.201,29.947 17.009,30.025 16.803,30.006ZM14.576,29.597C14.221,29.497 14.012,29.128 14.112,28.772C14.211,28.415 14.579,28.207 14.934,28.306C15.289,28.406 15.497,28.775 15.398,29.131C15.367,29.246 15.306,29.346 15.228,29.425C15.063,29.59 14.817,29.664 14.576,29.597ZM12.45,28.761C12.123,28.59 11.998,28.185 12.169,27.858C12.339,27.53 12.743,27.403 13.07,27.575C13.397,27.746 13.522,28.151 13.351,28.478C13.319,28.541 13.279,28.595 13.232,28.642C13.031,28.844 12.715,28.9 12.45,28.761ZM10.549,27.406C10.285,27.148 10.279,26.724 10.537,26.459C10.793,26.193 11.216,26.188 11.48,26.445C11.745,26.703 11.751,27.128 11.493,27.392C11.491,27.394 11.489,27.397 11.487,27.399C11.229,27.658 10.811,27.662 10.549,27.406ZM10.075,25.775C9.735,25.919 9.344,25.759 9.201,25.417C9.058,25.076 9.219,24.683 9.558,24.541C9.898,24.397 10.289,24.558 10.432,24.899C10.54,25.158 10.474,25.446 10.289,25.632C10.229,25.691 10.157,25.741 10.075,25.775ZM9.294,23.766C8.931,23.836 8.581,23.598 8.512,23.235C8.442,22.872 8.68,22.521 9.041,22.451C9.404,22.381 9.754,22.619 9.824,22.982C9.867,23.209 9.791,23.431 9.639,23.583C9.548,23.674 9.43,23.74 9.294,23.766Z" style="fill:rgb(249,104,98);fill-rule:nonzero;"/>
    <path d="M23.438,28.316C23.239,28.516 22.93,28.567 22.677,28.446C22.432,28.329 22.28,28.064 22.301,27.793C22.323,27.503 22.536,27.256 22.818,27.19C23.078,27.13 23.359,27.238 23.512,27.458C23.696,27.721 23.665,28.088 23.438,28.316Z" style="fill:rgb(249,104,98);fill-rule:nonzero;"/>
    <path d="M13.933,11.526L18.349,15.957C19.038,16.649 19.038,17.77 18.349,18.462C17.659,19.154 16.542,19.154 15.852,18.462L11.418,14.013C11.976,13.756 12.487,13.399 12.922,12.964C13.336,12.547 13.68,12.058 13.933,11.526Z" style="fill:rgb(249,104,98);fill-rule:nonzero;"/>
</svg>
