<?xml version="1.0" encoding="UTF-8" standalone="no"?>
<!DOCTYPE svg PUBLIC "-//W3C//DTD SVG 1.1//EN" "http://www.w3.org/Graphics/SVG/1.1/DTD/svg11.dtd">
<svg width="100%" height="100%" viewBox="0 0 36 36" version="1.1" xmlns="http://www.w3.org/2000/svg" xmlns:xlink="http://www.w3.org/1999/xlink" xml:space="preserve" xmlns:serif="http://www.serif.com/" style="fill-rule:evenodd;clip-rule:evenodd;stroke-linejoin:round;stroke-miterlimit:2;">
    <path d="M0.1,23.982C0.18,23.862 0.305,23.77 0.461,23.736C1.963,23.409 5.847,22.928 10.152,25.299C10.152,25.299 12.942,22.902 17,22.902C21.058,22.902 23.848,25.299 23.848,25.299C28.153,22.928 32.037,23.409 33.539,23.736C33.716,23.774 33.853,23.887 33.93,24.032C33.539,23.271 30.142,17.498 17.002,17.49C4.119,17.498 0.601,23.047 0.1,23.982Z" style="fill:rgb(52,128,33);fill-rule:nonzero;"/>
    <path d="M11.974,17.812C12.619,16.643 13.975,14.684 16.333,13.378C19.883,11.412 23.484,12.157 23.484,12.157C26.102,7.997 29.732,6.535 31.205,6.093C31.378,6.041 31.553,6.074 31.69,6.163C30.979,5.687 25.211,2.283 13.712,8.643C4.209,13.914 2.445,19.406 2.135,21.632C3.87,20.18 6.896,18.502 11.974,17.812Z" style="fill:rgb(52,128,33);fill-rule:nonzero;"/>
    <path d="M12.838,16.473C7.578,17.045 4.373,18.653 2.486,20.115C2.296,20.715 2.191,21.227 2.135,21.632C3.87,20.18 6.896,18.502 11.974,17.812C12.184,17.433 12.469,16.97 12.838,16.473Z" style="fill:rgb(46,112,27);fill-rule:nonzero;"/>
    <path d="M17,32.977C29.174,32.977 33.02,26.615 33.948,24.548C34.101,24.209 33.903,23.815 33.539,23.736C32.036,23.409 28.153,22.928 23.848,25.299C23.848,25.299 21.058,22.902 17,22.902C12.942,22.902 10.152,25.299 10.152,25.299C5.847,22.928 1.963,23.409 0.461,23.736C0.097,23.815 -0.101,24.209 0.052,24.548C0.98,26.615 4.826,32.977 17,32.977L17,32.977Z" style="fill:rgb(98,193,54);fill-rule:nonzero;"/>
    <path d="M23.848,25.299C28.153,22.928 32.037,23.409 33.539,23.736C33.716,23.774 33.853,23.887 33.93,24.032C33.816,23.81 33.443,23.157 32.645,22.346C30.785,22.094 27.465,22.073 23.848,24.065C23.848,24.065 21.058,21.669 17,21.669C12.942,21.669 10.152,24.065 10.152,24.065C6.537,22.074 3.22,22.094 1.359,22.345C0.614,23.103 0.239,23.722 0.1,23.982C0.18,23.862 0.305,23.77 0.461,23.736C1.963,23.409 5.847,22.928 10.152,25.299C10.152,25.299 12.942,22.902 17,22.902C21.058,22.902 23.848,25.299 23.848,25.299Z" style="fill:rgb(46,112,27);fill-rule:nonzero;"/>
    <path d="M33.711,23.803C32.446,26.233 28.33,31.743 17,31.743L17,31.743C5.67,31.743 1.554,26.233 0.289,23.803C0.04,23.949 -0.074,24.267 0.052,24.548C0.98,26.614 4.826,32.977 17,32.977L17,32.977C29.174,32.977 33.02,26.614 33.948,24.548C34.074,24.267 33.96,23.949 33.711,23.803Z" style="fill:rgb(92,173,50);fill-rule:nonzero;"/>
    <path d="M17.001,17.49C20.857,17.492 23.873,17.991 26.222,18.714C31.951,13.66 32.108,8.435 31.954,6.606C31.923,6.235 31.559,5.986 31.203,6.093C29.73,6.535 26.1,7.997 23.483,12.156C23.483,12.156 19.881,11.412 16.331,13.378C13.974,14.684 12.618,16.643 11.973,17.812C13.465,17.609 15.134,17.491 17.001,17.49Z" style="fill:rgb(98,193,54);fill-rule:nonzero;"/>
    <path d="M26.222,18.715C26.565,18.412 26.888,18.109 27.192,17.805C24.722,16.911 21.411,16.259 17.001,16.256C15.486,16.257 14.102,16.336 12.836,16.473C12.467,16.97 12.182,17.433 11.973,17.812C13.465,17.609 15.134,17.491 17.001,17.49C20.857,17.493 23.873,17.992 26.222,18.715Z" style="fill:rgb(92,173,50);fill-rule:nonzero;"/>
    <path d="M16.331,13.378C17.769,12.581 19.216,12.23 20.429,12.094C20.379,11.981 20.325,11.87 20.264,11.761C19.134,9.72 16.563,8.982 14.522,10.112C12.481,11.243 11.743,13.813 12.874,15.854C12.934,15.964 13,16.069 13.068,16.17C13.827,15.215 14.893,14.175 16.331,13.378Z" style="fill:rgb(152,219,124);fill-rule:nonzero;"/>
    <path d="M20.266,11.761C20.085,11.434 19.867,11.141 19.62,10.883C18.449,11.035 17.079,11.39 15.716,12.144C14.299,12.929 13.245,13.95 12.488,14.893C12.576,15.221 12.704,15.544 12.876,15.854C12.936,15.964 13.002,16.069 13.07,16.17C13.829,15.215 14.895,14.175 16.333,13.378C17.772,12.582 19.219,12.23 20.431,12.094C20.381,11.981 20.327,11.87 20.266,11.761Z" style="fill:rgb(130,211,97);fill-rule:nonzero;"/>
    <path d="M23.483,12.156C24.682,10.251 26.094,8.912 27.413,7.977C26.111,6.797 24.154,6.514 22.531,7.413C20.833,8.353 20.038,10.289 20.469,12.089C22.228,11.897 23.483,12.156 23.483,12.156Z" style="fill:rgb(152,219,124);fill-rule:nonzero;"/>
    <path d="M27.414,7.978C27.049,7.647 26.632,7.386 26.185,7.203C25.096,8.066 23.976,9.214 22.99,10.732C22.916,10.845 22.784,10.906 22.651,10.886C22.277,10.831 21.445,10.74 20.366,10.811C20.336,11.235 20.369,11.666 20.47,12.089C22.229,11.897 23.485,12.157 23.485,12.157C24.683,10.251 26.095,8.912 27.414,7.978Z" style="fill:rgb(130,211,97);fill-rule:nonzero;"/>
    <path d="M11.974,17.812C12.221,17.364 12.573,16.8 13.045,16.202C11.748,14.882 9.685,14.529 7.987,15.469C6.514,16.285 5.721,17.852 5.819,19.428C7.424,18.744 9.445,18.156 11.974,17.812Z" style="fill:rgb(152,219,124);fill-rule:nonzero;"/>
    <path d="M12.838,16.473C9.964,16.786 7.703,17.407 5.936,18.146C5.833,18.562 5.792,18.995 5.819,19.428C7.424,18.744 9.445,18.156 11.974,17.812C12.184,17.433 12.469,16.97 12.838,16.473Z" style="fill:rgb(130,211,97);fill-rule:nonzero;"/>
    <path d="M17,22.902C18.644,22.902 20.08,23.296 21.207,23.764C21.217,23.641 21.224,23.518 21.224,23.393C21.224,21.06 19.333,19.169 17,19.169C14.667,19.169 12.775,21.06 12.775,23.393C12.775,23.518 12.782,23.641 12.793,23.764C13.919,23.295 15.355,22.902 17,22.902Z" style="fill:rgb(152,219,124);fill-rule:nonzero;"/>
    <path d="M21.207,23.764C21.217,23.642 21.224,23.518 21.224,23.393C21.224,23.086 21.19,22.786 21.128,22.498C20.013,22.044 18.606,21.669 17,21.669C15.393,21.669 13.986,22.044 12.871,22.498C12.809,22.787 12.775,23.086 12.775,23.393C12.775,23.518 12.782,23.642 12.793,23.764C13.919,23.296 15.355,22.902 17,22.902C18.644,22.902 20.08,23.296 21.207,23.764Z" style="fill:rgb(130,211,97);fill-rule:nonzero;"/>
    <path d="M23.849,25.299C25.821,24.213 27.704,23.725 29.311,23.547C28.743,21.884 27.169,20.688 25.314,20.688C23.373,20.688 21.739,21.996 21.244,23.779C22.876,24.463 23.849,25.299 23.849,25.299Z" style="fill:rgb(152,219,124);fill-rule:nonzero;"/>
    <path d="M29.311,23.547C29.168,23.13 28.962,22.741 28.704,22.394C27.294,22.612 25.705,23.076 24.048,23.957C23.928,24.021 23.784,24.01 23.677,23.928C23.374,23.697 22.682,23.208 21.69,22.743C21.498,23.064 21.346,23.411 21.244,23.779C22.876,24.464 23.849,25.299 23.849,25.299C25.821,24.213 27.704,23.725 29.311,23.547Z" style="fill:rgb(130,211,97);fill-rule:nonzero;"/>
    <path d="M10.152,25.299C10.152,25.299 11.125,24.463 12.756,23.779C12.261,21.996 10.628,20.688 8.687,20.688C6.832,20.688 5.257,21.884 4.689,23.547C6.296,23.725 8.18,24.212 10.152,25.299Z" style="fill:rgb(152,219,124);fill-rule:nonzero;"/>
    <path d="M5.296,22.394C5.038,22.741 4.832,23.13 4.689,23.547C6.296,23.725 8.18,24.213 10.152,25.299C10.152,25.299 11.125,24.464 12.756,23.779C12.654,23.411 12.503,23.064 12.311,22.743C11.319,23.207 10.627,23.697 10.324,23.928C10.217,24.01 10.072,24.021 9.953,23.957C8.296,23.076 6.706,22.612 5.296,22.394Z" style="fill:rgb(130,211,97);fill-rule:nonzero;"/>
</svg>
