<?xml version="1.0" encoding="UTF-8" standalone="no"?>
<!DOCTYPE svg PUBLIC "-//W3C//DTD SVG 1.1//EN" "http://www.w3.org/Graphics/SVG/1.1/DTD/svg11.dtd">
<svg width="100%" height="100%" viewBox="0 0 39 149" version="1.1" xmlns="http://www.w3.org/2000/svg" xmlns:xlink="http://www.w3.org/1999/xlink" xml:space="preserve" xmlns:serif="http://www.serif.com/" style="fill-rule:evenodd;clip-rule:evenodd;stroke-miterlimit:10;">
    <path d="M10.688,15.069C10.399,17.142 10.206,19.231 10.094,21.319C10.013,22.669 9.58,25.079 10.592,26.155C10.897,26.476 11.299,26.669 11.716,26.846C14.689,28.099 17.982,28.42 21.212,28.34C24.441,28.26 27.638,27.794 30.867,27.505C31.221,27.473 31.622,27.424 31.863,27.167C32.153,26.846 32.104,26.348 32.04,25.914C31.446,22.363 31.044,18.749 30.289,15.214C29.695,12.451 29.389,9.607 28.441,6.94C28.024,5.767 27.558,4.45 26.899,3.293C26.256,2.152 25.421,1.156 24.28,0.561C23.3,0.047 22.159,-0.065 21.067,0.031C20.521,0.08 19.878,0.144 19.364,0.337C18.978,0.481 18.737,0.706 18.271,0.674C17.934,0.642 17.597,0.545 17.243,0.545C16.713,0.529 16.199,0.754 15.765,1.076C13.275,2.907 12.343,5.43 11.668,8.386C11.17,10.587 10.993,12.836 10.688,15.069Z" style="fill-rule:nonzero;"/>
    <path d="M15.443,15.455C15.813,16.982 16.616,18.331 17.676,19.488C17.741,19.568 17.821,19.649 17.853,19.745C17.885,19.841 17.885,19.954 17.885,20.05C17.853,21.528 18.223,23.231 17.451,24.613C17.13,25.191 16.632,25.673 15.989,25.834C13.66,26.461 11.411,25.561 9.306,26.927C5.273,29.594 4.614,35.522 4.149,39.924C3.811,43.057 3.827,46.222 3.683,49.371C3.586,51.653 3.024,53.886 2.606,56.135C2.188,58.4 2.172,60.441 2.188,62.722C2.205,65.454 2.076,68.185 1.819,70.916C1.546,73.76 1.546,76.62 1.048,79.431C1.016,79.64 0.967,79.865 1.032,80.074C1.224,80.781 2.172,81.841 2.606,82.5C2.976,83.062 3.474,83.544 3.988,83.994C4.325,84.299 5.048,85.183 5.514,85.247C6.382,85.36 4.968,82.227 4.855,81.921C5.08,81.954 5.337,81.97 5.514,81.809C5.771,81.568 5.643,81.15 5.562,80.813C5.337,79.945 5.514,79.029 5.659,78.146C5.852,76.941 5.129,76.507 4.775,75.463C3.972,73.133 4.711,70.595 5.402,68.329C6.173,65.855 6.832,63.461 7.217,60.891C7.571,58.416 7.008,55.83 7.522,53.404C7.828,52.006 8.165,50.624 8.535,49.243C8.872,47.941 9.113,46.544 9.547,45.274C9.82,45.628 10.093,45.981 10.366,46.319C10.736,46.785 10.929,47.267 11.089,47.845C11.443,49.194 11.716,50.576 11.909,51.958C12.053,52.986 12.134,54.046 11.973,55.059C11.7,56.778 10.784,58.288 9.932,59.782C9.515,60.521 9.113,61.276 8.792,62.047C8.47,62.851 8.326,63.67 8.101,64.49C8.085,64.522 8.085,64.554 8.053,64.57C8.037,64.586 8.004,64.586 7.972,64.586C7.828,64.586 7.699,64.698 7.635,64.827C7.571,64.955 7.555,65.1 7.522,65.245C7.201,67.526 6.816,69.775 6.639,72.089C6.398,75.077 6.382,78.114 6.558,81.15C6.767,84.701 7.522,88.171 8.406,91.593C8.984,93.827 9.82,96.044 10.238,98.325C11.362,104.527 10.286,110.744 10.254,116.962C10.238,120.191 11.105,123.26 11.7,126.425C12.519,130.779 14.142,135.952 13.274,140.386C13.017,141.688 12.134,142.507 11.459,143.6C11.282,143.889 11.105,144.178 11.025,144.499C10.945,144.821 10.993,145.206 11.218,145.447C11.346,145.592 11.523,145.688 11.684,145.785C12.262,146.17 12.68,146.797 13.355,146.974C13.644,147.054 13.949,147.022 14.222,147.134C14.56,147.279 14.881,147.616 15.234,147.504C15.379,147.761 15.556,148.05 15.845,148.13C16.134,148.211 16.439,148.082 16.648,147.873C16.857,147.665 16.969,147.375 17.082,147.102C17.516,146.058 17.853,144.901 17.741,143.76C17.644,142.764 17.628,141.495 17.933,140.531C18.03,140.226 18.174,139.937 18.239,139.615C18.48,138.571 17.805,137.543 17.5,136.579C17.13,135.39 16.873,134.185 16.696,132.948C16.343,130.554 16.295,128.112 16.455,125.702C16.712,121.573 17.917,117.508 17.901,113.363C17.901,112.19 17.676,110.985 17.644,109.796C17.612,108.752 17.805,107.724 18.03,106.696C18.255,105.667 18.174,104.735 18.255,103.691C18.544,100.044 18.528,96.381 18.48,92.718C18.448,90.324 18.656,87.946 18.865,85.568C19.074,83.191 19.074,80.797 19.299,78.435C19.299,78.403 19.299,78.371 19.331,78.355C19.347,78.339 19.379,78.339 19.412,78.339C19.701,78.355 20.327,78.531 20.584,78.387C20.777,79.64 20.793,80.941 20.793,82.227C20.793,83.191 20.745,84.155 20.745,85.119C20.745,86.291 20.729,87.464 20.745,88.637C20.793,91.336 21.034,94.035 21.211,96.735C21.323,98.662 21.163,100.606 21.163,102.534C21.163,104.27 22.014,106.005 21.741,107.708C21.115,111.644 21.613,115.628 22.223,119.532C22.818,123.388 23.107,127.132 22.898,131.036C22.785,133.205 22.753,135.502 21.854,137.495C21.709,137.832 21.532,138.153 21.484,138.507C21.436,138.892 21.516,139.278 21.58,139.664C21.934,141.527 22.078,143.407 22.014,145.303C21.998,145.913 21.95,146.556 22.159,147.134C22.818,148.998 25.035,147.311 26.143,146.652C26.272,146.572 26.4,146.508 26.513,146.427C26.738,146.299 26.947,146.154 27.172,146.026C27.878,145.592 28.585,145.319 28.296,144.291C28.151,143.76 27.782,143.327 27.461,142.877C26.063,140.82 25.886,138.153 26.24,135.695C26.593,133.253 27.268,130.859 27.83,128.449C29.276,122.264 28.794,115.95 28.569,109.668C28.521,108.35 28.473,107.033 28.65,105.732C28.746,105.057 28.891,104.398 28.987,103.723C29.196,102.149 29.083,100.542 29.34,98.968C29.501,97.972 29.79,97.008 30.063,96.028C30.722,93.618 31.011,91.176 31.542,88.75C32.056,86.404 32.554,84.026 32.795,81.632C32.939,80.138 33.036,78.628 33.068,77.118C33.1,75.752 33.245,74.435 33.212,73.069C33.164,71.591 33.036,70.113 32.827,68.651C32.746,68.088 32.586,67.542 32.473,66.98C32.393,66.578 32.297,66.176 32.216,65.775C32.12,65.357 32.152,64.907 31.991,64.522C31.927,64.361 31.766,64.168 31.606,64.216C31.574,64.232 31.542,64.249 31.509,64.232C31.461,64.216 31.445,64.168 31.429,64.136C31.284,63.686 31.124,63.236 30.979,62.786C30.899,62.545 30.786,62.304 30.706,62.08C30.433,61.373 30.144,60.682 29.79,60.007C28.762,58.063 27.75,55.878 27.573,53.661C27.477,52.488 27.573,51.315 27.782,50.158C27.895,49.58 28.023,49.002 28.168,48.423C28.232,48.15 28.377,47.074 28.585,46.945C29.051,46.64 29.212,46.238 29.469,45.772C29.662,45.435 30.16,44.873 30.112,44.455C30.529,47.475 31.525,50.48 31.847,53.484C32.184,56.553 31.558,59.766 32.297,62.77C32.634,64.12 33.245,65.228 33.63,66.562C34.305,68.876 35.831,72.555 34.562,74.868C33.775,76.298 34.209,77.792 33.662,79.254C33.534,79.576 33.357,79.897 33.373,80.251C33.389,80.604 33.743,80.957 34.064,80.813C34.385,80.684 34.45,80.17 34.803,80.122C35.06,80.99 34.691,81.921 34.257,82.709C33.823,83.496 33.277,84.283 33.196,85.183C33.18,85.311 33.18,85.456 33.277,85.552C33.453,85.761 33.807,85.601 34.016,85.408C35.124,84.444 36.153,83.4 37.1,82.259C37.406,81.889 37.711,81.504 37.872,81.038C38.129,80.299 37.952,79.528 37.888,78.772C37.823,77.953 37.936,77.166 37.92,76.362C37.84,72.78 37.711,69.101 37.422,65.518C37.197,62.835 36.924,60.152 36.651,57.469C36.313,54.175 35.767,50.946 35.59,47.668C35.397,44.134 35.173,40.615 34.915,37.08C34.658,33.514 34.048,29.288 30.915,27.023C29.389,25.914 28.136,26.107 26.384,26.139C25.517,26.155 24.553,26.027 23.782,25.625C22.753,25.079 22.818,23.713 22.753,22.669C22.705,21.898 22.769,21.062 22.866,20.307C22.866,20.243 22.882,20.179 22.898,20.131C22.93,20.05 22.994,19.986 23.043,19.922C24.087,18.749 25.051,17.399 25.565,15.905C25.934,14.829 26.015,13.688 26.175,12.563C26.32,11.519 26.304,10.539 26.224,9.479C26.175,8.884 26.031,8.274 26.031,7.679C26.031,6.796 25.79,5.751 25.115,5.109C24.36,4.402 23.332,4 22.303,3.888C20.922,3.727 19.524,4 18.158,4.289C17.5,4.418 16.809,4.578 16.343,5.044C16.054,5.334 15.877,5.735 15.732,6.121C15.459,6.844 15.234,7.583 15.074,8.338C14.977,8.804 14.849,9.27 14.801,9.736C14.752,10.202 14.849,10.716 14.897,11.182C15.009,12.628 15.106,14.074 15.443,15.455Z" style="fill:rgb(226,168,138);fill-rule:nonzero;"/>
    <path d="M34.658,84.105C34.851,83.8 35.944,82.787 35.944,82.498C36.458,81.968 37.068,81.422 37.149,80.683C37.261,79.671 36.297,78.707 36.603,77.727C36.024,78.626 35.446,79.526 34.867,80.426C34.996,81.213 34.658,82.032 34.257,82.739C33.823,83.527 33.277,84.314 33.196,85.213C33.18,85.342 33.18,85.487 33.277,85.583C33.405,85.744 33.646,85.679 33.839,85.567C34.064,85.069 34.369,84.571 34.658,84.105Z" style="fill:rgb(174,106,83);fill-opacity:0.71;fill-rule:nonzero;"/>
    <path d="M16.472,64.762C15.669,63.043 15.315,61.035 14.866,59.203C14.592,58.095 14.866,56.874 15.042,55.765C15.299,54.303 15.83,52.873 15.83,51.363C15.83,50.72 15.749,50.078 15.669,49.435C15.621,49.098 15.572,48.744 15.38,48.471C15.412,49.676 15.187,50.608 14.801,51.7C14.384,52.905 14.271,54.239 13.918,55.476C13.371,57.372 13.275,59.38 13.773,61.292C14.223,63.011 14.689,64.81 13.195,66.176C13.082,66.272 12.954,66.385 12.809,66.417C12.632,66.449 12.44,66.385 12.279,66.305C11.363,65.935 8.375,65.132 8.937,63.605C9.403,62.352 10.142,61.404 10.817,60.248C11.427,59.203 12.424,58.143 12.809,57.018C13.661,54.56 12.665,51.186 12.247,48.728C12.182,48.375 12.134,47.973 12.295,47.668C12.584,47.138 13.307,47.073 13.902,47.089C15.605,47.105 17.324,46.848 18.995,47.009C19.155,47.025 19.316,47.057 19.412,47.17C19.477,47.25 19.493,47.346 19.509,47.443C19.669,48.439 19.83,49.419 19.991,50.415C20.119,49.531 20.264,48.664 20.392,47.78C20.408,47.652 20.441,47.523 20.521,47.443C20.617,47.362 20.746,47.346 20.874,47.33C22.995,47.17 24.923,47.555 26.996,47.925C27.092,47.941 27.188,47.957 27.237,48.037C27.333,48.15 27.269,48.31 27.204,48.439C26.915,49.066 26.626,49.692 26.353,50.319C26.192,50.656 26.032,51.01 26.016,51.395C25.951,52.343 26.53,53.468 26.642,54.432C26.771,55.572 27.14,56.552 27.654,57.581C28.586,59.476 31.076,62.609 30.353,64.891C30.032,65.903 28.667,66.562 28.715,67.654C30,67.172 31.189,66.401 32.137,65.421C32.105,65.116 32.089,64.81 31.976,64.537C31.912,64.377 31.751,64.184 31.59,64.232C31.558,64.248 31.526,64.264 31.494,64.248C31.446,64.232 31.43,64.184 31.414,64.152C31.269,63.702 31.109,63.252 30.964,62.802C30.884,62.561 30.771,62.32 30.691,62.095C30.418,61.388 30.129,60.697 29.775,60.023C28.747,58.079 27.735,55.894 27.558,53.676C27.462,52.504 27.558,51.331 27.767,50.174C27.879,49.596 28.008,49.017 28.152,48.439C28.217,48.166 28.361,47.089 28.57,46.961C29.036,46.656 29.197,46.254 29.454,45.788C29.647,45.451 30.145,44.888 30.096,44.471C30.514,47.491 31.51,50.495 31.831,53.5C32.169,56.568 31.542,59.782 32.281,62.786C32.619,64.136 33.229,65.244 33.615,66.578C34.29,68.891 35.816,72.57 34.547,74.884C33.76,76.314 34.193,77.808 33.647,79.27C33.599,79.415 33.535,79.543 33.486,79.688C33.454,79.929 33.422,80.17 33.39,80.411C33.422,80.539 33.502,80.652 33.599,80.732C35.013,76.603 36.957,72.458 35.719,68.104C35.125,66.064 34.033,64.296 33.76,62.192C33.454,59.75 32.908,57.42 32.828,54.946C32.699,51.074 33.069,47.362 32.137,43.555C31.382,40.438 30.048,37.546 29.084,34.509C28.249,31.826 28.072,28.934 28.57,26.171C27.879,26.107 27.172,26.155 26.337,26.171C25.469,26.187 24.505,26.059 23.734,25.657C23.027,25.287 22.834,24.532 22.77,23.745C22.754,23.745 22.738,23.745 22.738,23.729C22.352,24.259 22.529,25.046 22.979,25.528C23.429,25.994 24.088,26.219 24.73,26.38C25.389,26.541 26.112,26.701 26.497,27.247C26.738,27.585 26.803,28.035 26.851,28.453C26.98,29.754 26.835,31.039 26.867,32.34C26.899,33.337 26.883,34.172 26.626,35.168C26.465,35.779 26.273,36.389 26.305,37.016C26.321,37.337 26.401,37.642 26.385,37.964C26.353,38.703 25.839,39.329 25.325,39.843C24.409,40.743 23.349,41.514 22.208,42.093C21.935,42.237 21.549,42.35 21.372,42.109C21.292,42.012 21.276,41.884 21.276,41.755C21.164,40.213 21.935,38.639 23.22,37.771C22.047,37.787 21.26,39.281 20.087,39.217C19.396,39.185 18.754,38.606 18.143,38.333C17.42,37.996 16.649,37.803 15.846,37.723C17.725,38.317 19.027,40.342 18.77,42.302C18.738,42.559 18.641,42.848 18.4,42.912C18.288,42.944 18.159,42.912 18.047,42.88C16.408,42.446 14.833,41.723 13.564,40.599C12.295,39.49 11.347,37.964 11.106,36.293C10.865,34.718 11.267,33.112 11.395,31.521C11.508,30.172 11.427,28.79 11.829,27.505C11.893,27.312 11.974,27.103 12.134,26.974C12.295,26.846 12.488,26.798 12.697,26.749C13.484,26.573 14.143,26.444 14.93,26.46C15.685,26.476 16.569,26.316 17.227,25.946C18.079,25.448 18.577,24.564 19.155,23.809C19.766,22.99 20.617,22.46 21.228,21.64C21.405,21.399 21.549,21.142 21.662,20.869C21.694,20.805 21.71,20.709 21.662,20.66C21.629,20.612 21.565,20.612 21.501,20.612C20.151,20.612 19.268,20.018 18.384,18.989C17.773,18.283 17.356,17.447 17.002,16.596C16.279,14.86 15.83,12.932 15.99,11.037C16.006,10.764 16.054,10.49 16.215,10.282C16.376,10.073 16.649,9.96 16.906,9.896C18.577,9.414 20.441,9.575 21.983,8.739C22.256,8.595 22.545,8.418 22.834,8.466C22.995,8.498 23.124,8.578 23.268,8.643C23.798,8.884 24.457,8.836 24.939,8.498C25.052,8.418 25.164,8.338 25.293,8.321C25.55,8.305 25.71,8.611 25.807,8.852C25.967,9.301 26.112,9.735 26.273,10.185C26.257,9.96 26.24,9.719 26.224,9.494C26.176,8.9 26.032,8.289 26.032,7.695C26.032,6.811 25.791,5.767 25.116,5.124C24.361,4.417 23.333,4.016 22.304,3.903C20.971,3.743 19.637,4 18.32,4.273C17.822,4.53 17.356,4.803 16.89,5.108C16.376,5.462 15.974,5.895 15.653,6.361C15.412,7.004 15.219,7.663 15.074,8.338C14.978,8.803 14.85,9.269 14.801,9.735C14.753,10.201 14.85,10.715 14.898,11.181C15.042,12.611 15.123,14.041 15.476,15.423C15.846,16.949 16.649,18.299 17.709,19.455C17.773,19.536 17.854,19.616 17.886,19.712C17.918,19.809 17.918,19.921 17.918,20.018C17.886,21.496 18.256,23.199 17.484,24.581C17.163,25.159 16.665,25.641 16.022,25.802C14.062,26.332 12.15,25.769 10.335,26.412C10.351,26.669 10.335,26.942 10.319,27.215C9.933,31.168 7.861,34.959 7.7,38.831C7.62,40.759 7.555,42.639 7.588,44.535C7.652,48.439 6.061,52.198 5.724,56.054C5.467,58.994 5.419,61.838 4.985,64.778C4.744,66.481 4.599,68.249 4.214,69.92C3.908,71.285 2.944,72.795 3.667,74.193C4.503,75.832 5.258,77.358 5.547,79.029C5.595,78.724 5.644,78.419 5.692,78.113C5.884,76.908 5.162,76.475 4.808,75.43C4.005,73.101 4.744,70.562 5.435,68.297C6.206,65.823 6.865,63.429 7.25,60.858C7.604,58.384 7.041,55.797 7.555,53.371C7.861,51.974 8.198,50.592 8.568,49.21C8.905,47.909 9.146,46.511 9.58,45.242C9.853,45.595 10.126,45.949 10.399,46.286C10.769,46.752 10.961,47.234 11.122,47.812C11.476,49.162 11.749,50.544 11.942,51.925C12.086,52.954 12.166,54.014 12.006,55.026C11.733,56.745 10.817,58.255 9.965,59.75C9.548,60.489 9.146,61.244 8.825,62.015C8.503,62.818 8.359,63.638 8.134,64.457C8.118,64.489 8.118,64.521 8.086,64.537C8.069,64.553 8.037,64.553 8.005,64.553C7.861,64.553 7.732,64.666 7.668,64.794C7.604,64.923 7.588,65.067 7.555,65.212C7.234,67.494 6.848,69.743 6.672,72.056C6.399,75.077 6.383,78.113 6.559,81.15C6.768,84.7 7.523,88.171 8.407,91.593C8.985,93.826 9.821,96.043 10.238,98.325C11.363,104.526 10.287,110.744 10.255,116.961C10.238,120.191 11.106,123.259 11.701,126.425C12.52,130.778 14.143,135.952 13.275,140.386C13.018,141.687 12.134,142.507 11.46,143.599C11.283,143.889 11.106,144.178 11.026,144.499C10.945,144.82 10.994,145.206 11.219,145.447C11.315,145.543 11.427,145.624 11.54,145.688C11.508,145.254 11.572,144.82 11.701,144.403C12.022,143.39 12.697,142.539 13.259,141.655C13.661,141.029 14.014,140.37 14.319,139.679C14.544,139.165 14.753,138.635 14.817,138.073C14.882,137.591 14.817,137.093 14.769,136.594C14.303,132.353 13.339,128.192 12.568,123.999C11.861,120.127 10.961,115.724 11.701,111.804C11.958,110.455 12.568,109.121 13.645,108.27C13.998,107.98 14.416,107.756 14.753,107.45C15.428,106.856 15.846,105.972 15.878,105.072C14.817,106.085 12.857,106.245 12.215,104.671C11.974,104.076 11.99,103.418 11.99,102.775C12.006,100.076 11.829,97.361 11.46,94.678C11.106,92.139 10.206,89.681 9.66,87.175C8.857,83.528 8.262,79.832 8.086,76.105C7.989,74.241 7.957,72.522 8.327,70.659C8.407,70.273 8.487,69.871 8.712,69.534C8.937,69.197 9.307,68.939 9.692,68.972C9.965,68.988 10.206,69.132 10.431,69.293C12.472,70.771 13.966,72.892 15.074,75.141C15.653,76.346 16.472,77.663 16.745,78.981C16.906,79.768 17.018,80.588 17.067,81.391C17.211,83.383 17.083,85.407 16.97,87.351C16.713,91.754 16.681,96.156 16.858,100.558C16.922,102.389 17.035,104.269 16.44,106.004C16.279,106.486 16.054,106.952 15.974,107.45C15.797,108.382 16.087,109.33 16.295,110.262C17.404,115.082 16.408,119.982 16.167,124.818C16.054,127.131 16.183,129.477 16.504,131.759C16.52,131.903 16.552,132.048 16.585,132.192C16.328,130.039 16.295,127.854 16.44,125.669C16.697,121.54 17.902,117.476 17.886,113.331C17.886,112.158 17.661,110.953 17.629,109.764C17.597,108.719 17.79,107.691 18.015,106.663C18.239,105.635 18.159,104.703 18.239,103.659C18.529,100.012 18.513,96.349 18.464,92.685C18.432,90.292 18.641,87.914 18.85,85.536C19.059,83.158 19.059,80.764 19.284,78.403C19.284,78.37 19.284,78.338 19.316,78.322C19.332,78.306 19.364,78.306 19.396,78.306C19.685,78.322 20.312,78.499 20.569,78.354C20.762,79.607 20.778,80.909 20.778,82.194C20.778,83.158 20.73,84.122 20.73,85.086C20.73,86.259 20.714,87.432 20.73,88.605C20.778,91.304 21.019,94.003 21.196,96.702C21.308,98.63 21.147,100.574 21.147,102.502C21.147,104.237 21.999,105.972 21.726,107.675C21.099,111.611 21.597,115.596 22.208,119.5C22.802,123.356 23.092,127.099 22.883,131.003C22.77,133.172 22.738,135.47 21.838,137.462C21.694,137.799 21.517,138.121 21.469,138.474C21.421,138.86 21.501,139.245 21.565,139.631C21.919,141.495 22.063,143.374 21.999,145.27C21.983,145.881 21.935,146.523 22.144,147.102C22.24,147.391 22.385,147.584 22.545,147.712C22.385,145.543 21.597,143.278 22.674,141.43C23.14,140.627 23.943,139.984 24.12,139.069C24.216,138.571 24.12,138.073 24.055,137.558C23.831,135.598 24.216,133.606 24.586,131.662C24.923,129.895 25.244,128.095 25.276,126.296C25.309,124.304 25.003,122.344 24.843,120.351C24.602,117.347 23.461,109.539 28.008,108.896C28.233,109.7 28.442,110.503 28.634,111.306C28.618,110.744 28.586,110.165 28.57,109.603C28.522,108.286 28.474,106.968 28.65,105.667C28.747,104.992 28.891,104.333 28.988,103.659C29.197,102.084 29.084,100.478 29.341,98.903C29.502,97.907 29.791,96.943 30.064,95.963C30.402,94.742 30.643,93.505 30.868,92.268C30.916,91.77 30.948,91.272 30.996,90.79C30.337,95.095 28.104,98.775 27.686,103.193C27.622,103.851 27.59,104.542 27.253,105.105C26.915,105.683 26.192,106.085 25.598,105.812C25.019,105.554 24.827,104.831 24.698,104.205C23.75,99.385 23.895,94.26 23.911,89.344C23.927,84.476 22.947,79.382 25.453,74.884C26.385,73.197 27.783,71.735 28.233,69.855C27.108,70.594 25.983,71.333 24.859,72.072C24.618,72.233 24.329,72.41 24.039,72.346C23.477,72.233 23.445,71.414 23.638,70.867C24.505,68.249 27.381,66.465 29.55,64.955C28.843,65.148 28.217,65.598 27.526,65.807C26.819,66.015 25.887,65.839 25.63,65.164C24.891,63.188 25.742,60.842 25.742,58.802C25.742,55.845 24.698,53.227 23.509,50.576C23.284,52.648 24.505,54.624 24.682,56.713C24.939,59.669 23.349,62.192 24.055,65.276C24.088,65.405 24.12,65.533 24.072,65.662C24.023,65.807 23.895,65.919 23.75,65.999C22.995,66.481 21.308,67.285 20.666,66.433C20.023,65.614 20.36,63.172 20.312,62.176C20.135,58.978 19.959,55.781 19.782,52.584C19.83,53.484 19.428,54.592 19.38,55.524C19.187,58.914 19.444,62.352 18.898,65.678C18.882,65.774 18.866,65.871 18.786,65.919C18.705,65.967 18.609,65.951 18.529,65.919C18.288,65.855 18.047,65.79 17.806,65.726C17.436,65.63 17.051,65.517 16.794,65.244C16.649,65.164 16.552,64.955 16.472,64.762Z" style="fill:rgb(174,106,83);fill-opacity:0.71;fill-rule:nonzero;"/>
    <path d="M5.597,80.99C5.581,81.263 5.549,81.537 5.484,81.826C5.484,81.826 5.5,81.826 5.5,81.81C5.725,81.601 5.677,81.279 5.597,80.99Z" style="fill:rgb(174,106,83);fill-opacity:0.71;fill-rule:nonzero;"/>
    <path d="M4.839,81.905C4.968,81.921 5.097,81.937 5.225,81.905C4.679,80.619 4.213,79.318 3.827,77.984C3.297,78.74 3.329,79.752 3.602,80.635C3.875,81.519 4.357,82.306 4.663,83.174C4.872,83.784 5,84.411 5.097,85.037C5.241,85.134 5.37,85.214 5.498,85.23C6.382,85.359 4.952,82.226 4.839,81.905Z" style="fill:rgb(174,106,83);fill-opacity:0.71;fill-rule:nonzero;"/>
    <path d="M32.844,77.47C32.876,76.104 33.021,74.787 32.989,73.421C32.941,71.943 32.812,70.465 32.603,69.003C32.523,68.441 32.362,67.894 32.25,67.332C32.185,67.027 32.121,66.738 32.057,66.433C31.961,66.047 31.864,65.645 31.816,65.26C31.8,65.131 31.784,65.003 31.72,64.874C31.655,64.746 31.543,64.633 31.414,64.553L31.382,64.553C30.531,64.842 29.792,65.549 28.956,65.918C28.04,66.32 27.109,66.641 26.145,66.915C24.249,67.461 22.273,67.766 20.296,67.83C16.874,67.943 13.452,67.557 10.223,66.32C9.403,65.999 8.568,65.613 7.974,64.971C7.941,65.003 7.909,65.083 7.877,65.051C7.861,65.019 7.845,64.987 7.829,64.954C7.749,64.842 7.572,64.922 7.492,65.035C7.427,65.115 7.379,65.228 7.347,65.324C7.331,65.388 7.331,65.452 7.315,65.517C7.283,65.758 7.251,65.983 7.218,66.224C7.17,66.577 7.122,66.931 7.058,67.284C6.817,68.971 6.56,70.642 6.431,72.361C6.19,75.381 6.158,78.418 6.335,81.438C6.544,84.989 7.299,88.459 8.182,91.881C8.761,94.115 9.596,96.332 10.014,98.613C11.139,104.815 10.062,111.032 10.03,117.25C10.014,120.479 10.882,123.548 11.476,126.713C11.572,127.211 11.669,127.725 11.781,128.239C12.97,128.834 14.496,128.593 15.734,128.191C15.878,128.143 16.023,128.095 16.183,128.047C16.2,127.372 16.216,126.681 16.264,126.006C16.521,121.877 17.726,117.812 17.71,113.667C17.71,112.494 17.485,111.289 17.453,110.101C17.421,109.056 17.613,108.028 17.838,107C18.063,105.972 17.983,105.04 18.063,103.995C18.352,100.348 18.336,96.685 18.288,93.022C18.256,90.628 18.465,88.251 18.674,85.873C18.883,83.495 18.883,81.101 19.108,78.739C19.108,78.707 19.108,78.675 19.14,78.659C19.156,78.643 19.188,78.643 19.22,78.643C19.509,78.659 20.136,78.836 20.393,78.691C20.586,79.944 20.602,81.246 20.602,82.531C20.602,83.495 20.553,84.459 20.553,85.423C20.553,86.596 20.537,87.769 20.553,88.941C20.602,91.64 20.843,94.34 21.019,97.039C21.132,98.967 20.971,100.911 20.971,102.839C20.971,104.574 21.823,106.309 21.55,108.012C20.923,111.948 21.421,115.933 22.032,119.837C22.433,122.423 22.69,124.962 22.755,127.516C23.478,128.079 24.538,128.159 25.47,128.111C26.273,128.063 27.06,127.966 27.848,127.806C29.036,121.925 28.603,115.917 28.394,109.956C28.346,108.639 28.297,107.321 28.474,106.02C28.571,105.345 28.715,104.686 28.811,104.011C29.02,102.437 28.908,100.83 29.165,99.256C29.326,98.26 29.615,97.296 29.888,96.316C30.547,93.906 30.836,91.464 31.366,89.038C31.88,86.692 32.378,84.314 32.619,81.92C32.732,80.474 32.812,78.98 32.844,77.47Z" style="fill:rgb(227,67,67);fill-rule:nonzero;stroke:rgb(36,0,0);stroke-width:0.16px;"/>
    <path d="M14.72,9.365C14.833,11.454 14.929,13.414 15.443,15.47C15.813,16.997 16.616,18.346 17.676,19.503C17.741,19.583 17.821,19.664 17.853,19.76C17.885,19.857 17.885,19.969 17.885,20.065C17.853,21.544 18.223,23.247 17.451,24.628C17.13,25.207 16.632,25.689 15.989,25.849C13.66,26.476 11.411,25.576 9.306,26.942C5.273,29.593 4.614,35.521 4.149,39.923C3.811,43.056 3.827,46.221 3.683,49.37C3.586,51.652 3.024,53.885 2.606,56.134C2.188,58.399 2.172,60.44 2.188,62.721C2.205,65.453 2.076,68.184 1.819,70.915C1.546,73.759 1.546,76.619 1.048,79.43C1.016,79.639 0.967,79.864 1.032,80.073C1.224,80.78 2.172,81.84 2.606,82.499C2.976,83.061 3.474,83.543 3.988,83.993C4.325,84.298 5.048,85.182 5.514,85.246C6.382,85.359 4.968,82.226 4.855,81.921C5.08,81.953 5.337,81.969 5.514,81.808C5.771,81.567 5.643,81.149 5.562,80.812C5.337,79.944 5.514,79.028 5.659,78.145C5.852,76.94 5.129,76.506 4.775,75.462C3.972,73.132 4.711,70.594 5.402,68.328C6.173,65.854 6.832,63.46 7.217,60.89C7.571,58.416 7.008,55.829 7.522,53.403C7.828,52.005 8.165,50.623 8.535,49.242C8.872,47.94 9.113,46.543 9.547,45.273C9.82,45.627 10.093,45.98 10.366,46.318C10.736,46.784 10.929,47.266 11.089,47.844C11.443,49.194 11.716,50.575 11.909,51.957C12.053,52.985 12.134,54.045 11.973,55.058C11.7,56.777 10.784,58.287 9.932,59.781C9.515,60.52 9.113,61.275 8.792,62.047C8.47,62.85 8.326,63.669 8.101,64.489C8.085,64.521 8.085,64.553 8.053,64.569C8.037,64.585 8.004,64.585 7.972,64.585C7.828,64.585 7.699,64.697 7.635,64.826C7.571,64.954 7.555,65.099 7.522,65.244C7.201,67.525 6.816,69.774 6.639,72.088C6.398,75.076 6.382,78.113 6.558,81.149C6.767,84.7 7.522,88.17 8.406,91.592C8.984,93.826 9.82,96.043 10.238,98.324C11.362,104.526 10.286,110.743 10.254,116.961C10.238,120.19 11.105,123.259 11.7,126.424C12.519,130.778 14.142,135.951 13.274,140.386C13.017,141.687 12.134,142.506 11.459,143.599C11.282,143.888 11.105,144.177 11.025,144.499C10.945,144.82 10.993,145.205 11.218,145.446C11.346,145.591 11.523,145.687 11.684,145.784C12.262,146.169 12.68,146.796 13.355,146.973C13.644,147.053 13.949,147.021 14.222,147.133C14.56,147.278 14.881,147.615 15.234,147.503C15.379,147.76 15.556,148.049 15.845,148.13C16.134,148.21 16.439,148.081 16.648,147.872C16.857,147.664 16.969,147.374 17.082,147.101C17.516,146.057 17.853,144.9 17.741,143.759C17.644,142.763 17.628,141.494 17.933,140.53C18.03,140.225 18.174,139.936 18.239,139.614C18.48,138.57 17.805,137.542 17.5,136.578C17.13,135.389 16.873,134.184 16.696,132.947C16.343,130.553 16.295,128.111 16.455,125.701C16.712,121.572 17.917,117.507 17.901,113.362C17.901,112.189 17.676,110.984 17.644,109.795C17.612,108.751 17.805,107.723 18.03,106.695C18.255,105.666 18.174,104.735 18.255,103.69C18.544,100.043 18.528,96.38 18.48,92.717C18.448,90.323 18.656,87.945 18.865,85.568C19.074,83.19 19.074,80.796 19.299,78.434C19.299,78.402 19.299,78.37 19.331,78.354C19.347,78.338 19.379,78.338 19.412,78.338C19.701,78.354 20.327,78.531 20.584,78.386C20.777,79.639 20.793,80.94 20.793,82.226C20.793,83.19 20.745,84.154 20.745,85.118C20.745,86.29 20.729,87.463 20.745,88.636C20.793,91.335 21.034,94.034 21.211,96.734C21.323,98.662 21.163,100.606 21.163,102.533C21.163,104.269 22.014,106.004 21.741,107.707C21.115,111.643 21.613,115.627 22.223,119.532C22.818,123.387 23.107,127.131 22.898,131.035C22.785,133.204 22.753,135.501 21.854,137.494C21.709,137.831 21.532,138.152 21.484,138.506C21.436,138.891 21.516,139.277 21.58,139.663C21.934,141.526 22.078,143.406 22.014,145.302C21.998,145.912 21.95,146.555 22.159,147.133C22.818,148.997 25.035,147.31 26.143,146.651C26.272,146.571 26.4,146.507 26.513,146.426C26.738,146.298 26.947,146.153 27.172,146.025C27.878,145.591 28.585,145.318 28.296,144.29C28.151,143.759 27.782,143.326 27.461,142.876C26.063,140.819 25.886,138.152 26.24,135.694C26.593,133.252 27.268,130.858 27.83,128.448C29.276,122.263 28.794,115.949 28.569,109.667C28.521,108.349 28.473,107.032 28.65,105.731C28.746,105.056 28.891,104.397 28.987,103.722C29.196,102.148 29.083,100.541 29.34,98.967C29.501,97.971 29.79,97.007 30.063,96.027C30.722,93.617 31.011,91.175 31.542,88.749C32.056,86.403 32.554,84.025 32.795,81.631C32.939,80.137 33.036,78.627 33.068,77.117C33.1,75.751 33.245,74.434 33.212,73.068C33.164,71.59 33.036,70.112 32.827,68.65C32.746,68.087 32.586,67.541 32.473,66.979C32.393,66.577 32.297,66.176 32.216,65.774C32.12,65.356 32.152,64.906 31.991,64.521C31.927,64.36 31.766,64.167 31.606,64.215C31.574,64.231 31.542,64.248 31.509,64.231C31.461,64.215 31.445,64.167 31.429,64.135C31.284,63.685 31.124,63.235 30.979,62.786C30.899,62.545 30.786,62.304 30.706,62.079C30.433,61.372 30.144,60.681 29.79,60.006C28.762,58.062 27.75,55.877 27.573,53.66C27.477,52.487 27.573,51.314 27.782,50.158C27.895,49.579 28.023,49.001 28.168,48.422C28.232,48.149 28.377,47.073 28.585,46.944C29.051,46.639 29.212,46.237 29.469,45.771C29.662,45.434 30.16,44.872 30.112,44.454C30.529,47.474 31.525,50.479 31.847,53.483C32.184,56.552 31.558,59.765 32.297,62.77C32.634,64.119 33.245,65.228 33.63,66.561C34.305,68.875 35.831,72.554 34.562,74.867C33.775,76.297 34.209,77.791 33.662,79.254C33.534,79.575 33.357,79.896 33.373,80.25C33.389,80.603 33.743,80.957 34.064,80.812C34.385,80.683 34.45,80.169 34.803,80.121C35.06,80.989 34.691,81.921 34.257,82.708C33.823,83.495 33.277,84.282 33.196,85.182C33.18,85.31 33.18,85.455 33.277,85.551C33.453,85.76 33.807,85.6 34.016,85.407C35.124,84.443 36.153,83.399 37.1,82.258C37.406,81.888 37.711,81.503 37.872,81.037C38.129,80.298 37.952,79.527 37.888,78.772C37.823,77.952 37.936,77.165 37.92,76.362C37.84,72.779 37.711,69.1 37.422,65.517C37.197,62.834 36.924,60.151 36.651,57.468C36.313,54.174 35.767,50.945 35.59,47.667C35.397,44.133 35.173,40.614 34.915,37.08C34.658,33.513 34.048,29.287 30.915,27.022C29.389,25.914 28.136,26.106 26.384,26.138C25.517,26.155 24.553,26.026 23.782,25.624C22.753,25.078 22.818,23.712 22.753,22.668C22.705,21.897 22.769,21.062 22.866,20.306C22.866,20.242 22.882,20.178 22.898,20.13C22.93,20.049 22.994,19.985 23.043,19.921C24.087,18.748 25.051,17.398 25.565,15.904C26.272,13.848 26.481,11.727 26.4,9.558" style="fill:none;fill-rule:nonzero;stroke:rgb(31,0,0);stroke-width:0.16px;"/>
    <path d="M24.874,8.385C25.372,8.353 26.85,8.53 26.754,8.128C26.384,6.779 26.127,5.574 25.34,4.353C24.762,3.501 24.055,2.682 23.139,2.168C22.336,1.734 21.291,1.621 20.392,1.525C18.496,1.332 16.536,1.991 15.315,3.501C14.64,4.337 14.222,5.236 14.013,6.297C13.853,7.148 13.756,8.016 13.419,8.819C14.752,9.156 16.134,9.076 17.5,8.98C18.48,8.915 19.46,8.835 20.44,8.707C21.099,8.61 21.693,8.449 22.336,8.337C22.368,8.337 22.4,8.321 22.432,8.305C22.512,8.257 22.529,8.16 22.545,8.08C22.705,7.164 22.898,6.345 22.914,5.413C23.187,6.297 23.316,7.228 23.316,8.16C23.316,8.192 23.316,8.225 23.332,8.257C23.364,8.289 23.412,8.289 23.46,8.289L24.103,8.289C24.119,7.566 24.135,6.843 23.975,6.152C24.28,6.875 24.521,7.646 24.681,8.417C24.698,8.401 24.762,8.385 24.874,8.385Z" style="fill-rule:nonzero;"/>
    <path d="M30.144,38.173C29.935,37.675 29.678,37.193 29.389,36.727C28.441,35.185 28.57,33.289 28.473,31.554C28.457,31.168 28.072,26.14 28.377,26.107C27.943,26.156 27.509,26.172 27.076,26.156C27.011,26.622 27.188,27.216 27.22,27.682C27.252,28.244 27.284,28.807 27.3,29.385C27.349,30.526 27.365,31.65 27.365,32.791C27.365,34.558 27.718,36.679 26.449,38.093C24.842,39.908 22.914,41.499 21.067,43.073C19.123,44.712 17.564,42.367 16.295,41.033C15.154,39.844 13.901,38.752 12.744,37.579C12.455,37.289 12.166,36.984 11.973,36.631C11.604,35.908 11.668,34.831 11.716,34.044C11.893,31.506 12.359,28.823 12.262,26.3C12.246,25.834 10.929,26.509 10.784,26.541C10.865,27.039 10.897,27.505 10.865,28.019C10.72,30.397 10.688,32.775 10.254,35.121C10.061,36.149 9.852,36.792 9.37,37.739C8.856,38.768 8.471,39.86 8.31,40.985C8.165,42.045 8.246,43.154 8.68,44.134C8.921,44.664 9.274,45.13 9.644,45.58C9.917,45.917 10.351,46.769 10.8,46.865C10.977,46.897 11.122,46.817 11.282,46.785C11.507,46.753 11.716,46.785 11.941,46.785C12.423,46.769 12.905,46.704 13.403,46.704C15.829,46.688 18.239,46.656 20.665,46.72C21.902,46.753 23.123,46.801 24.36,46.897C25.051,46.945 25.726,46.913 26.401,46.945C27.027,46.978 27.654,47.01 28.28,47.042C28.377,47.042 28.489,47.058 28.57,47.01C28.859,46.849 29.18,46.383 29.437,46.142C30.53,45.098 31.092,43.571 31.076,42.077C31.092,40.728 30.658,39.378 30.144,38.173Z" style="fill:rgb(175,25,0);fill-rule:nonzero;stroke:rgb(36,0,0);stroke-width:0.16px;"/>
    <path d="M22.447,38.172C22.062,38.429 21.692,38.734 21.387,39.088C21.081,39.441 20.841,39.827 20.664,40.261C20.487,40.678 20.391,41.144 20.375,41.594C20.359,41.819 20.359,42.06 20.375,42.285C20.375,42.526 20.407,42.751 20.423,42.992C20.31,42.542 20.246,42.06 20.246,41.594C20.246,41.112 20.326,40.646 20.519,40.196C20.712,39.762 20.969,39.345 21.307,39.007C21.467,38.831 21.66,38.686 21.837,38.541C22.029,38.397 22.238,38.268 22.447,38.172Z" style="fill:rgb(31,0,0);fill-rule:nonzero;"/>
    <path d="M16.165,37.947C16.679,38.06 17.193,38.237 17.659,38.51C18.125,38.783 18.511,39.184 18.8,39.65C19.089,40.116 19.282,40.63 19.362,41.161C19.459,41.691 19.459,42.237 19.346,42.751C19.362,42.494 19.378,42.221 19.346,41.964C19.33,41.707 19.298,41.434 19.234,41.193C19.121,40.679 18.928,40.181 18.655,39.747C18.382,39.297 18.013,38.927 17.579,38.638C17.145,38.333 16.663,38.124 16.165,37.947Z" style="fill:rgb(31,0,0);fill-rule:nonzero;"/>
    <path d="M19.539,55.445C19.571,56.393 19.587,57.357 19.587,58.305C19.603,59.253 19.587,60.217 19.587,61.165C19.571,62.113 19.571,63.077 19.587,64.025C19.587,64.507 19.603,64.973 19.619,65.455C19.635,65.937 19.651,66.403 19.683,66.885C19.619,66.403 19.587,65.937 19.539,65.455C19.507,64.973 19.474,64.507 19.458,64.025C19.41,63.077 19.41,62.113 19.41,61.149L19.442,58.289C19.474,57.357 19.491,56.393 19.539,55.445Z" style="fill:rgb(31,0,0);fill-rule:nonzero;"/>
    <path d="M23.347,50.078C23.443,50.737 23.347,51.412 23.459,52.054C23.491,52.215 23.54,52.376 23.588,52.536L23.732,53.018C23.829,53.34 23.909,53.661 24.022,53.966C24.134,54.271 24.311,54.545 24.439,54.866C24.504,55.027 24.552,55.187 24.584,55.348C24.632,55.509 24.664,55.669 24.696,55.83C24.825,56.489 24.873,57.147 24.857,57.822C24.841,58.481 24.777,59.156 24.68,59.798C24.584,60.457 24.455,61.1 24.391,61.758C24.311,62.417 24.295,63.076 24.359,63.718C24.391,64.04 24.439,64.377 24.52,64.698C24.6,65.02 24.696,65.325 24.809,65.646C24.536,65.036 24.359,64.393 24.279,63.734C24.198,63.076 24.214,62.401 24.279,61.742C24.327,61.084 24.455,60.425 24.552,59.782C24.648,59.123 24.712,58.481 24.712,57.822C24.728,57.163 24.68,56.505 24.568,55.862C24.536,55.701 24.504,55.541 24.471,55.38C24.439,55.219 24.391,55.059 24.327,54.914C24.198,54.609 24.022,54.336 23.925,54.014C23.829,53.693 23.748,53.372 23.652,53.05L23.523,52.568C23.475,52.408 23.427,52.247 23.411,52.086C23.282,51.396 23.395,50.737 23.347,50.078Z" style="fill:rgb(31,0,0);fill-rule:nonzero;"/>
    <path d="M15.46,49.869C15.524,50.544 15.556,51.235 15.524,51.91C15.508,52.247 15.46,52.584 15.395,52.922C15.331,53.259 15.235,53.58 15.122,53.918C14.929,54.577 14.705,55.219 14.528,55.862C14.431,56.183 14.367,56.521 14.303,56.858C14.287,57.019 14.255,57.195 14.239,57.356C14.223,57.517 14.206,57.693 14.206,57.854C14.174,59.204 14.496,60.537 14.672,61.887C14.753,62.562 14.817,63.252 14.785,63.927C14.737,64.618 14.431,65.261 14.094,65.839C14.399,65.245 14.688,64.602 14.705,63.927C14.721,63.252 14.656,62.578 14.56,61.903C14.351,60.569 14.03,59.22 14.062,57.838C14.062,57.661 14.078,57.501 14.094,57.324C14.11,57.147 14.142,56.987 14.174,56.81C14.239,56.472 14.319,56.135 14.415,55.814C14.592,55.155 14.817,54.512 15.042,53.87C15.154,53.548 15.251,53.227 15.331,52.89C15.411,52.552 15.46,52.231 15.492,51.894C15.508,51.235 15.492,50.56 15.46,49.869Z" style="fill:rgb(31,0,0);fill-rule:nonzero;"/>
    <path d="M3.939,78.627C4.132,78.868 4.261,79.157 4.325,79.462C4.389,79.768 4.421,80.073 4.454,80.378C4.486,80.683 4.534,80.973 4.63,81.246C4.727,81.519 4.887,81.776 5.112,82.001C4.855,81.824 4.646,81.583 4.518,81.294C4.389,81.005 4.325,80.7 4.293,80.394C4.261,80.089 4.245,79.784 4.197,79.495C4.164,79.189 4.084,78.9 3.939,78.627Z" style="fill:rgb(31,0,0);fill-rule:nonzero;"/>
    <path d="M36.232,77.502C36.024,77.743 35.831,77.984 35.718,78.257C35.654,78.402 35.606,78.546 35.574,78.691C35.525,78.836 35.477,78.996 35.397,79.141C35.108,79.719 34.674,80.185 34.208,80.603C34.594,80.105 34.995,79.623 35.252,79.076C35.317,78.932 35.381,78.803 35.429,78.659C35.477,78.514 35.542,78.354 35.606,78.209C35.75,77.92 35.991,77.695 36.232,77.502Z" style="fill:rgb(31,0,0);fill-rule:nonzero;"/>
    <path d="M28.537,105.361C28.199,105.618 27.958,105.972 27.701,106.309C27.573,106.486 27.428,106.647 27.267,106.791C27.107,106.936 26.898,107.048 26.689,107.129C26.48,107.209 26.239,107.225 26.014,107.177C25.789,107.129 25.597,107 25.42,106.888L24.89,106.534C24.713,106.406 24.536,106.293 24.359,106.165C24.552,106.261 24.729,106.373 24.922,106.47L25.484,106.791C25.677,106.904 25.837,107 26.046,107.032C26.239,107.08 26.448,107.048 26.641,106.984C27.026,106.855 27.332,106.566 27.605,106.245C27.749,106.084 27.878,105.924 28.039,105.763C28.167,105.602 28.344,105.458 28.537,105.361Z" style="fill:rgb(31,0,0);fill-rule:nonzero;"/>
    <path d="M15.461,105.73C15.075,105.923 14.721,106.164 14.4,106.421L14.143,106.614C14.063,106.678 13.982,106.743 13.886,106.807C13.709,106.935 13.5,107.032 13.275,107.08C12.842,107.176 12.376,107.096 11.99,106.871C11.797,106.759 11.621,106.63 11.476,106.47C11.332,106.309 11.219,106.116 11.139,105.923C11.251,106.1 11.38,106.277 11.54,106.405C11.701,106.55 11.862,106.662 12.054,106.759C12.424,106.935 12.858,107.016 13.243,106.919C13.34,106.903 13.436,106.871 13.533,106.823C13.629,106.775 13.709,106.743 13.806,106.678C13.982,106.566 14.143,106.421 14.32,106.309C14.496,106.196 14.673,106.068 14.866,105.971C15.059,105.891 15.268,105.795 15.461,105.73Z" style="fill:rgb(31,0,0);fill-rule:nonzero;"/>
    <path d="M17.982,106.053C17.821,106.31 17.677,106.567 17.532,106.824C17.404,107.081 17.291,107.354 17.227,107.643C17.163,107.916 17.195,108.206 17.243,108.495C17.307,108.784 17.404,109.073 17.452,109.362C17.339,109.089 17.211,108.816 17.114,108.527C17.018,108.238 16.986,107.916 17.05,107.611C17.211,107.001 17.564,106.487 17.982,106.053Z" style="fill:rgb(31,0,0);fill-rule:nonzero;"/>
    <path d="M23.074,19.054C23.267,18.7 23.476,18.507 23.733,18.09C23.781,18.025 23.845,17.913 23.99,17.672C24.054,17.559 24.215,17.27 24.215,17.27C24.215,17.27 24.344,17.029 24.424,16.901C24.601,16.579 24.697,16.371 24.745,16.258C24.954,15.824 25.002,15.535 25.179,15.182C24.986,15.535 24.777,15.728 24.52,16.146C24.456,16.242 24.344,16.435 24.151,16.756C24.07,16.885 23.942,17.126 23.942,17.126C23.942,17.126 23.781,17.415 23.733,17.543C23.604,17.784 23.556,17.913 23.524,17.977C23.315,18.411 23.251,18.7 23.074,19.054Z" style="fill:white;fill-opacity:0.1;fill-rule:nonzero;"/>
    <path d="M22.046,40.454C22.11,40.341 22.191,40.293 22.287,40.165C22.335,40.1 22.48,39.908 22.608,39.715C22.737,39.538 22.849,39.361 22.849,39.361C22.849,39.361 22.962,39.185 23.09,39.008C23.219,38.815 23.347,38.606 23.379,38.542C23.46,38.414 23.476,38.317 23.556,38.221C23.476,38.317 23.379,38.349 23.251,38.446C23.187,38.494 22.994,38.671 22.849,38.847C22.705,39.024 22.592,39.201 22.592,39.201C22.592,39.201 22.48,39.378 22.367,39.586C22.255,39.795 22.174,40.02 22.142,40.1C22.094,40.229 22.094,40.325 22.046,40.454Z" style="fill:white;fill-opacity:0.1;fill-rule:nonzero;"/>
    <path d="M16.053,38.205C16.149,38.269 16.197,38.334 16.294,38.43C16.326,38.462 16.374,38.51 16.438,38.559C16.503,38.623 16.583,38.687 16.647,38.751C16.792,38.88 16.936,38.992 16.936,38.992C16.936,38.992 17.065,39.105 17.226,39.233C17.37,39.362 17.547,39.49 17.611,39.523C17.724,39.603 17.804,39.619 17.884,39.699C17.82,39.619 17.804,39.523 17.74,39.41C17.724,39.378 17.675,39.314 17.627,39.249C17.579,39.185 17.499,39.089 17.434,39.025C17.29,38.88 17.145,38.767 17.145,38.767C17.145,38.767 17.001,38.655 16.824,38.542C16.744,38.494 16.647,38.446 16.567,38.398C16.487,38.35 16.422,38.334 16.374,38.318C16.23,38.253 16.149,38.253 16.053,38.205Z" style="fill:white;fill-opacity:0.1;fill-rule:nonzero;"/>
    <path d="M30.993,28.066C31.122,28.179 31.17,28.291 31.298,28.436C31.363,28.516 31.555,28.773 31.732,28.998C31.909,29.223 32.054,29.448 32.054,29.448C32.054,29.448 32.198,29.657 32.343,29.914C32.487,30.155 32.648,30.428 32.712,30.525C32.809,30.701 32.889,30.782 32.953,30.942C32.905,30.782 32.921,30.669 32.873,30.46C32.841,30.348 32.744,30.043 32.616,29.769C32.552,29.641 32.471,29.512 32.423,29.416C32.359,29.32 32.327,29.271 32.327,29.271C32.327,29.271 32.295,29.223 32.23,29.127C32.166,29.046 32.086,28.934 31.973,28.822C31.78,28.597 31.523,28.388 31.427,28.324C31.234,28.195 31.122,28.163 30.993,28.066Z" style="fill:white;fill-opacity:0.1;fill-rule:nonzero;"/>
    <path d="M8.231,28.869C8.199,28.901 8.134,28.901 8.07,28.933C8.054,28.95 8.022,28.965 7.99,28.982C7.958,29.014 7.909,29.03 7.877,29.062C7.797,29.126 7.749,29.191 7.749,29.191C7.749,29.191 7.685,29.255 7.636,29.335C7.604,29.367 7.588,29.415 7.572,29.464C7.556,29.496 7.54,29.544 7.54,29.56C7.524,29.624 7.524,29.689 7.508,29.737C7.54,29.705 7.604,29.705 7.668,29.673C7.685,29.656 7.717,29.64 7.749,29.624C7.781,29.592 7.829,29.576 7.861,29.544C7.942,29.48 7.99,29.415 7.99,29.415C7.99,29.415 8.054,29.351 8.102,29.271C8.134,29.223 8.15,29.191 8.167,29.142C8.183,29.11 8.199,29.062 8.199,29.046C8.199,28.982 8.199,28.917 8.231,28.869Z" style="fill:white;fill-opacity:0.1;fill-rule:nonzero;"/>
    <path d="M23.008,52.648C23.136,53.034 23.185,53.307 23.329,53.757C23.345,53.837 23.393,53.966 23.458,54.223C23.602,54.721 23.827,55.556 23.956,56.279C24.1,57.002 24.165,57.597 24.165,57.597C24.165,57.597 24.181,57.725 24.197,57.934C24.213,58.143 24.229,58.432 24.229,58.754C24.229,59.075 24.229,59.428 24.197,59.782C24.165,60.135 24.116,60.457 24.068,60.73C24.052,60.826 24.036,60.907 24.02,60.971C24.004,61.051 23.988,61.099 23.972,61.164C23.94,61.276 23.924,61.356 23.908,61.421C23.779,61.871 23.699,62.144 23.522,62.497C23.715,62.144 23.859,61.919 24.052,61.453C24.068,61.405 24.1,61.308 24.148,61.196C24.165,61.131 24.197,61.083 24.213,61.003C24.229,60.923 24.261,60.842 24.277,60.762C24.357,60.489 24.422,60.151 24.47,59.798C24.518,59.445 24.534,59.075 24.55,58.737C24.55,58.4 24.534,58.111 24.518,57.902C24.502,57.693 24.486,57.565 24.486,57.565C24.486,57.565 24.422,56.938 24.261,56.215C24.181,55.846 24.068,55.46 23.956,55.091C23.843,54.737 23.731,54.4 23.634,54.159C23.538,53.902 23.49,53.773 23.458,53.693C23.281,53.275 23.152,53.034 23.008,52.648Z" style="fill:white;fill-opacity:0.1;fill-rule:nonzero;"/>
    <path d="M20.439,55.234C20.423,55.636 20.359,55.909 20.327,56.391C20.327,56.472 20.311,56.6 20.311,56.889L20.311,57.612C20.311,57.869 20.327,58.078 20.327,58.078C20.327,58.078 20.343,58.255 20.359,58.48C20.375,58.705 20.407,58.978 20.423,59.171C20.471,59.54 20.503,59.765 20.519,59.878C20.6,60.359 20.696,60.617 20.76,61.018C20.712,60.617 20.76,60.343 20.744,59.862C20.744,59.749 20.728,59.508 20.712,59.155C20.696,58.769 20.648,58.078 20.648,58.078C20.648,58.078 20.6,57.243 20.568,56.889C20.552,56.616 20.536,56.487 20.536,56.407C20.503,55.909 20.439,55.636 20.439,55.234Z" style="fill:white;fill-opacity:0.1;fill-rule:nonzero;"/>
    <path d="M35.254,49.227C35.286,49.628 35.286,49.901 35.318,50.383C35.334,50.544 35.35,50.865 35.382,51.251C35.415,51.797 35.479,52.456 35.527,53.066C35.64,54.304 35.752,55.428 35.752,55.428C35.752,55.428 35.832,56.103 35.913,56.954C36.009,57.806 36.138,58.85 36.25,59.589C36.298,59.959 36.33,60.184 36.346,60.296C36.411,60.778 36.491,61.035 36.523,61.437C36.491,61.035 36.491,60.762 36.459,60.28C36.459,60.168 36.443,59.927 36.411,59.573C36.363,58.834 36.282,57.79 36.202,56.922C36.122,56.071 36.057,55.396 36.057,55.396C36.057,55.396 35.945,54.271 35.8,53.034C35.72,52.424 35.64,51.765 35.559,51.235C35.511,50.849 35.463,50.528 35.431,50.367C35.366,49.901 35.302,49.628 35.254,49.227Z" style="fill:white;fill-opacity:0.1;fill-rule:nonzero;"/>
    <path d="M11.748,60.777C11.7,60.842 11.62,60.858 11.54,60.922C11.523,60.938 11.475,60.97 11.427,61.018C11.379,61.067 11.331,61.131 11.282,61.179C11.186,61.292 11.122,61.42 11.122,61.42C11.122,61.42 11.041,61.533 10.993,61.677C10.961,61.741 10.945,61.822 10.913,61.886C10.897,61.95 10.881,62.014 10.881,62.031C10.865,62.143 10.881,62.207 10.849,62.288C10.881,62.207 10.945,62.175 11.025,62.095C11.041,62.079 11.074,62.031 11.122,61.982C11.154,61.934 11.202,61.87 11.25,61.806C11.331,61.677 11.395,61.565 11.395,61.565C11.395,61.565 11.459,61.452 11.54,61.324C11.572,61.259 11.604,61.195 11.636,61.131C11.668,61.067 11.684,61.018 11.7,60.986C11.7,60.922 11.7,60.858 11.748,60.777Z" style="fill:white;fill-opacity:0.1;fill-rule:nonzero;"/>
    <path d="M31.961,70.756C31.993,71.158 31.993,71.431 32.009,71.913C32.009,71.993 32.009,72.122 32.025,72.395C32.041,72.732 32.041,73.182 32.057,73.664C32.057,74.146 32.073,74.676 32.057,75.142C32.057,75.624 32.041,76.058 32.041,76.379C32.025,76.7 32.025,76.893 32.025,76.893C32.025,76.893 32.009,77.552 31.961,78.403C31.945,78.612 31.929,78.837 31.913,79.062C31.897,79.287 31.881,79.512 31.864,79.737C31.832,80.187 31.784,80.637 31.752,80.99C31.72,81.36 31.688,81.585 31.688,81.697C31.64,82.179 31.623,82.452 31.575,82.854C31.64,82.452 31.736,82.195 31.816,81.713C31.832,81.601 31.881,81.376 31.945,81.006C32.009,80.637 32.073,80.203 32.121,79.753C32.154,79.528 32.17,79.303 32.202,79.062C32.218,78.837 32.25,78.612 32.266,78.403C32.298,77.986 32.33,77.6 32.33,77.327C32.346,77.054 32.346,76.893 32.346,76.893C32.346,76.893 32.346,76.7 32.362,76.379C32.379,76.058 32.379,75.624 32.362,75.142C32.346,74.66 32.33,74.13 32.298,73.648C32.266,73.166 32.218,72.716 32.186,72.379C32.154,72.105 32.138,71.977 32.121,71.897C32.073,71.415 31.993,71.158 31.961,70.756Z" style="fill:white;fill-opacity:0.1;fill-rule:nonzero;"/>
    <path d="M15.249,82.322C15.265,82.724 15.233,82.997 15.233,83.479L15.233,83.977C15.233,84.507 15.249,85.407 15.265,86.178C15.282,86.949 15.298,87.576 15.298,87.576C15.298,87.576 15.314,88.106 15.33,88.781C15.346,89.456 15.378,90.275 15.41,90.854C15.426,91.223 15.442,91.448 15.442,91.56C15.474,92.042 15.507,92.316 15.523,92.717C15.523,92.316 15.571,92.042 15.587,91.56C15.587,91.448 15.603,91.207 15.619,90.837C15.635,90.243 15.651,89.424 15.635,88.749C15.635,88.074 15.619,87.544 15.619,87.544C15.619,87.544 15.603,86.917 15.571,86.146C15.539,85.375 15.474,84.491 15.426,83.945C15.394,83.672 15.394,83.543 15.378,83.463C15.33,82.997 15.265,82.724 15.249,82.322Z" style="fill:white;fill-opacity:0.1;fill-rule:nonzero;"/>
    <path d="M25.693,104.814C25.709,104.863 25.677,104.911 25.693,104.991C25.693,105.007 25.709,105.055 25.725,105.088C25.741,105.136 25.773,105.184 25.806,105.216C25.87,105.296 25.95,105.345 25.95,105.345C25.95,105.345 26.031,105.393 26.127,105.425C26.175,105.441 26.239,105.441 26.288,105.441C26.336,105.441 26.368,105.425 26.384,105.425C26.448,105.409 26.48,105.361 26.529,105.345C26.48,105.345 26.448,105.296 26.4,105.264C26.384,105.248 26.368,105.232 26.336,105.216C26.304,105.2 26.272,105.168 26.239,105.152C26.175,105.12 26.111,105.072 26.111,105.072C26.111,105.072 26.047,105.039 25.998,104.991C25.966,104.975 25.934,104.943 25.902,104.927C25.87,104.911 25.838,104.895 25.838,104.879C25.773,104.879 25.725,104.863 25.693,104.814Z" style="fill:white;fill-opacity:0.1;fill-rule:nonzero;"/>
    <path d="M12.939,104.172C12.939,104.22 12.906,104.268 12.89,104.316C12.874,104.365 12.858,104.413 12.842,104.477C12.842,104.509 12.826,104.59 12.842,104.686C12.858,104.782 12.874,104.879 12.922,104.975C12.955,105.072 13.019,105.152 13.051,105.216C13.099,105.28 13.131,105.313 13.131,105.313C13.131,105.313 13.163,105.345 13.212,105.393C13.26,105.441 13.34,105.505 13.437,105.554C13.533,105.602 13.629,105.65 13.71,105.666C13.79,105.698 13.87,105.682 13.903,105.698C13.967,105.698 14.031,105.682 14.079,105.666C14.127,105.65 14.176,105.634 14.224,105.634C14.176,105.634 14.127,105.618 14.079,105.602C14.015,105.57 13.983,105.554 13.935,105.538C13.903,105.521 13.854,105.505 13.79,105.457C13.758,105.441 13.726,105.425 13.694,105.393C13.662,105.377 13.629,105.345 13.597,105.313C13.533,105.264 13.469,105.2 13.437,105.168C13.388,105.12 13.372,105.104 13.372,105.104C13.372,105.104 13.356,105.072 13.308,105.023C13.276,104.975 13.228,104.911 13.18,104.847C13.147,104.815 13.131,104.782 13.115,104.734C13.099,104.702 13.083,104.654 13.067,104.622C13.035,104.557 13.019,104.493 13.003,104.461C12.987,104.429 12.971,104.381 12.955,104.316C12.939,104.268 12.939,104.22 12.939,104.172Z" style="fill:white;fill-opacity:0.1;fill-rule:nonzero;"/>
    <path d="M27.556,112.527C27.652,112.913 27.652,113.202 27.732,113.668C27.749,113.748 27.765,113.877 27.797,114.15C27.813,114.295 27.845,114.487 27.877,114.712C27.909,114.921 27.925,115.146 27.957,115.371C27.973,115.58 28.006,115.773 28.022,115.917C28.038,116.062 28.038,116.142 28.038,116.142C28.038,116.142 28.038,116.223 28.054,116.335C28.07,116.448 28.07,116.624 28.086,116.801C28.118,117.17 28.15,117.636 28.166,117.958C28.182,118.327 28.198,118.552 28.198,118.665C28.214,119.147 28.263,119.42 28.247,119.821C28.279,119.42 28.343,119.147 28.375,118.665C28.391,118.552 28.407,118.311 28.407,117.942C28.407,117.62 28.407,117.154 28.391,116.769C28.375,116.576 28.375,116.415 28.359,116.287C28.343,116.158 28.343,116.094 28.343,116.094C28.343,116.094 28.327,116.014 28.311,115.869C28.295,115.725 28.279,115.532 28.247,115.323C28.182,114.905 28.086,114.407 28.022,114.118C27.957,113.845 27.925,113.716 27.909,113.636C27.781,113.154 27.652,112.913 27.556,112.527Z" style="fill:white;fill-opacity:0.1;fill-rule:nonzero;"/>
    <path d="M15.217,111.885C15.329,112.27 15.361,112.543 15.458,113.009C15.474,113.09 15.506,113.218 15.57,113.491C15.683,113.989 15.94,115.162 15.94,115.162C15.94,115.162 16.149,116.158 16.245,116.705C16.309,117.058 16.358,117.283 16.39,117.412C16.486,117.877 16.582,118.151 16.631,118.552C16.599,118.151 16.631,117.877 16.582,117.395C16.566,117.283 16.55,117.042 16.518,116.689C16.486,116.415 16.422,116.014 16.374,115.692C16.309,115.371 16.261,115.13 16.261,115.13C16.261,115.13 16.197,114.825 16.116,114.471C16.036,114.118 15.908,113.7 15.827,113.459C15.747,113.202 15.699,113.074 15.667,112.993C15.49,112.495 15.345,112.254 15.217,111.885Z" style="fill:white;fill-opacity:0.1;fill-rule:nonzero;"/>
    <path d="M27.398,32.791C27.398,34.285 27.671,35.923 26.996,37.321C26.273,38.847 23.895,39.33 22.433,39.972C20.843,40.663 19.734,40.759 18.079,40.374C15.959,39.892 14.304,39.137 12.778,37.578C12.488,37.289 12.199,36.984 12.006,36.63C11.637,35.907 11.701,34.831 11.749,34.044C11.926,31.505 12.392,28.822 12.296,26.3C12.28,25.834 10.962,26.509 10.818,26.541C10.898,27.039 10.93,27.505 10.898,28.019C10.753,30.397 10.721,32.775 10.287,35.12C10.095,36.148 9.886,36.791 9.404,37.739C8.89,38.767 8.504,39.86 8.343,40.984C8.199,42.045 8.279,43.153 8.713,44.133C8.954,44.664 9.307,45.129 9.677,45.579C9.95,45.917 10.384,46.768 10.834,46.865C11.01,46.897 11.155,46.816 11.316,46.784C11.541,46.752 11.749,46.784 11.974,46.784C12.456,46.768 12.938,46.704 13.436,46.704C15.862,46.688 18.272,46.656 20.698,46.72C21.935,46.752 23.156,46.8 24.394,46.897C25.084,46.945 25.759,46.913 26.434,46.945C27.061,46.977 27.687,47.009 28.314,47.041C28.41,47.041 28.523,47.057 28.603,47.009C28.892,46.849 29.213,46.383 29.47,46.142C30.563,45.097 31.125,43.571 31.109,42.077C31.093,40.743 30.659,39.378 30.145,38.189C29.936,37.691 29.679,37.209 29.39,36.743C28.442,35.201 28.571,33.305 28.474,31.57C28.458,31.184 28.073,26.155 28.378,26.123C27.944,26.171 27.51,26.187 27.077,26.171C27.012,26.637 27.189,27.232 27.221,27.698C27.253,28.26 27.285,28.822 27.302,29.401C27.366,30.509 27.398,31.65 27.398,32.791Z" style="fill:rgb(227,67,67);fill-rule:nonzero;stroke:rgb(36,0,0);stroke-width:0.16px;"/>
    <path d="M10.287,35.089C10.223,35.426 10.159,35.715 10.078,36.005C10.142,35.892 10.191,35.78 10.239,35.651C10.962,34.077 11.315,32.374 11.669,30.671C11.958,29.273 12.247,27.875 12.167,26.445C12.167,26.333 12.151,26.204 12.118,26.092C11.765,26.044 10.914,26.461 10.801,26.493C10.881,26.991 10.914,27.457 10.881,27.972C10.769,30.365 10.721,32.759 10.287,35.089Z" style="fill-opacity:0.28;fill-rule:nonzero;"/>
    <path d="M29.47,46.126C30.563,45.082 31.125,43.555 31.109,42.061C31.093,40.728 30.659,39.362 30.145,38.173C29.936,37.675 29.679,37.193 29.39,36.727C28.442,35.185 28.571,33.289 28.474,31.554C28.458,31.168 28.073,26.14 28.378,26.107C27.944,26.156 27.51,26.172 27.077,26.156C27.012,26.622 27.189,27.216 27.221,27.682C27.253,28.244 27.285,28.807 27.301,29.385C27.35,30.526 27.366,31.65 27.366,32.791C27.366,33.128 27.382,33.466 27.382,33.819C27.43,34.012 27.494,34.205 27.542,34.414C27.687,34.944 27.848,35.49 28.121,35.972C28.442,36.518 28.892,36.952 29.278,37.45C30.129,38.543 30.627,39.941 30.579,41.322C30.338,48.279 21.855,44.327 17.903,44.921C15.364,45.307 12.761,45.403 10.448,44.037C9.211,43.314 8.424,41.901 8.391,40.471C8.359,40.631 8.327,40.792 8.311,40.969C8.166,42.029 8.247,43.138 8.681,44.118C8.922,44.648 9.275,45.114 9.645,45.564C9.918,45.901 10.352,46.753 10.801,46.849C10.978,46.881 11.123,46.801 11.283,46.769C11.508,46.737 11.717,46.769 11.942,46.769C12.424,46.753 12.906,46.688 13.404,46.688C15.83,46.672 18.24,46.64 20.666,46.704C21.903,46.737 23.124,46.785 24.361,46.881C25.052,46.929 25.727,46.897 26.402,46.929C27.028,46.961 27.655,46.994 28.281,47.026C28.378,47.026 28.49,47.042 28.571,46.994C28.876,46.833 29.213,46.367 29.47,46.126Z" style="fill-opacity:0.28;fill-rule:nonzero;"/>
    <path d="M31.333,89.617C31.413,89.344 31.462,89.087 31.462,88.846C31.413,89.103 31.381,89.36 31.333,89.617Z" style="fill-opacity:0.28;fill-rule:nonzero;"/>
    <path d="M10.061,65.871C9.996,65.839 9.932,65.823 9.868,65.791C9.82,65.775 9.788,65.759 9.739,65.727C9.691,65.694 9.627,65.678 9.579,65.646C9.531,65.63 9.498,65.598 9.45,65.582C9.402,65.55 9.354,65.534 9.306,65.502C9.257,65.469 9.209,65.453 9.177,65.421C9.129,65.389 9.081,65.373 9.049,65.341C9,65.309 8.952,65.293 8.92,65.261C8.872,65.228 8.84,65.196 8.792,65.18C8.743,65.148 8.711,65.116 8.663,65.084C8.615,65.052 8.583,65.02 8.534,64.987C8.502,64.955 8.454,64.923 8.422,64.891C8.165,64.875 7.892,64.875 7.635,64.875C7.603,64.923 7.587,64.987 7.57,65.036C7.554,65.1 7.554,65.164 7.538,65.228C7.506,65.437 7.474,65.63 7.458,65.839C7.169,68.538 6.799,71.205 6.542,73.904C6.414,76.314 6.43,78.74 6.574,81.15C6.783,84.701 7.538,88.171 8.422,91.593C9,93.826 9.836,96.043 10.254,98.325C11.378,104.527 10.302,110.744 10.27,116.962C10.254,120.191 11.121,123.26 11.716,126.425C11.812,126.923 11.908,127.437 12.021,127.951C12.519,128.192 13.065,128.289 13.611,128.305C12.631,124.24 11.957,120.095 11.603,115.918C11.507,114.857 11.442,113.781 11.571,112.704C11.812,110.551 12.792,109.138 14.415,107.788C15.411,106.953 16.423,105.764 16.086,104.51C15.282,105.217 14.19,105.972 13.226,105.491C12.696,105.233 12.39,104.639 12.31,104.061C12.214,103.482 12.31,102.888 12.374,102.293C12.872,97.184 11.153,92.364 10.029,87.464C9.322,84.363 8.261,80.186 9.482,77.101C9.739,76.459 10.141,75.832 10.784,75.591C11.748,75.238 12.76,75.913 13.483,76.635C18.271,81.423 17.194,88.637 17.355,94.839C17.467,98.936 17.548,103.129 16.214,107.017C15.925,107.868 16.214,108.125 16.455,108.848C16.744,109.732 16.776,110.776 16.809,111.692C16.873,113.588 16.68,115.484 16.455,117.38C16.054,120.802 15.491,124.368 16.343,127.758C16.359,127.758 16.375,127.742 16.391,127.742C16.407,127.067 16.423,126.377 16.471,125.702C16.728,121.573 17.933,117.508 17.917,113.363C17.917,112.19 17.692,110.985 17.66,109.796C17.628,108.752 17.821,107.724 18.046,106.695C18.271,105.667 18.19,104.735 18.271,103.691C18.56,100.044 18.544,96.381 18.496,92.718C18.463,90.324 18.672,87.946 18.881,85.568C19.09,83.191 19.09,80.797 19.315,78.435C19.315,78.403 19.315,78.371 19.347,78.355C19.363,78.339 19.395,78.339 19.427,78.339C19.717,78.355 20.343,78.531 20.6,78.387C20.793,79.64 20.809,80.941 20.809,82.227C20.809,83.191 20.761,84.155 20.761,85.119C20.761,86.291 20.745,87.464 20.761,88.637C20.809,91.336 21.05,94.035 21.227,96.734C21.339,98.662 21.179,100.606 21.179,102.534C21.179,104.269 22.03,106.005 21.757,107.708C21.13,111.644 21.628,115.628 22.239,119.532C22.641,122.119 22.898,124.658 22.962,127.212C23.685,127.774 24.745,127.855 25.677,127.807L25.693,127.807C26.288,123.597 24.97,119.227 24.794,115.034C24.761,114.182 24.761,113.315 25.099,112.528C25.388,111.869 25.886,111.323 26.368,110.792C26.802,110.326 27.236,109.844 27.685,109.379C27.83,109.218 28.023,109.041 28.248,109.073C28.392,109.089 28.505,109.202 28.585,109.346C28.537,108.141 28.521,106.92 28.682,105.731C28.778,105.057 28.923,104.398 29.019,103.723C29.228,102.149 29.115,100.542 29.372,98.968C29.533,97.972 29.822,97.007 30.095,96.028C30.497,94.565 30.754,93.103 31.027,91.625C31.14,90.935 31.252,90.244 31.365,89.553C31.075,90.613 30.336,91.882 30.047,92.75C29.597,94.084 29.18,95.433 28.81,96.783C28.473,97.972 28.055,99.177 27.766,100.349C27.444,101.651 27.525,103.193 27.428,104.543C27.412,104.784 27.396,105.025 27.316,105.25C27.091,105.908 26.32,106.326 25.645,106.165C24.536,105.892 24.472,104.43 24.215,103.53C23.862,102.293 23.669,100.992 23.524,99.723C22.817,93.682 22.817,87.561 23.508,81.52C23.926,77.857 24.697,74.001 27.236,71.318C25.982,72.121 24.424,72.844 23.412,73.952C22.592,74.852 21.934,75.961 20.68,76.314C18.319,77.005 15.411,72.667 17.194,70.755C17.339,70.611 17.516,70.434 17.467,70.225C17.403,69.984 17.034,69.888 17.082,69.647C18.512,68.345 20.713,68.313 22.271,67.173C20.199,67.349 17.853,67.542 15.796,67.285C15.588,67.253 15.379,67.221 15.17,67.189C15.089,67.173 15.009,67.156 14.929,67.156C14.832,67.14 14.736,67.124 14.64,67.108C14.543,67.092 14.447,67.076 14.35,67.06C14.254,67.044 14.158,67.028 14.077,67.012C13.981,66.996 13.868,66.964 13.772,66.948C13.692,66.932 13.611,66.915 13.515,66.899C13.37,66.867 13.226,66.835 13.081,66.803C13.017,66.787 12.953,66.771 12.888,66.755C12.728,66.707 12.567,66.674 12.39,66.626C12.326,66.61 12.262,66.594 12.198,66.562C12.069,66.53 11.941,66.482 11.828,66.45C11.764,66.433 11.683,66.401 11.619,66.385C11.491,66.337 11.362,66.305 11.234,66.257C11.169,66.241 11.121,66.209 11.057,66.192C10.864,66.128 10.687,66.064 10.495,65.984C10.398,65.951 10.302,65.903 10.205,65.871C10.125,65.903 10.093,65.887 10.061,65.871Z" style="fill-opacity:0.28;fill-rule:nonzero;"/>
</svg>
