<?xml version="1.0" encoding="UTF-8" standalone="no"?>
<!DOCTYPE svg PUBLIC "-//W3C//DTD SVG 1.1//EN" "http://www.w3.org/Graphics/SVG/1.1/DTD/svg11.dtd">
<svg width="100%" height="100%" viewBox="0 0 36 146" version="1.1" xmlns="http://www.w3.org/2000/svg" xmlns:xlink="http://www.w3.org/1999/xlink" xml:space="preserve" xmlns:serif="http://www.serif.com/" style="fill-rule:evenodd;clip-rule:evenodd;stroke-miterlimit:10;">
    <path d="M9.37,14.831C9.086,16.87 8.896,18.926 8.785,20.981C8.706,22.31 8.279,24.681 9.276,25.741C9.576,26.057 9.971,26.247 10.382,26.421C13.308,27.654 16.549,27.97 19.727,27.891C22.905,27.812 26.052,27.354 29.23,27.069C29.578,27.037 29.973,26.99 30.21,26.737C30.495,26.421 30.448,25.93 30.384,25.504C29.799,22.009 29.404,18.452 28.661,14.973C28.076,12.253 27.775,9.455 26.842,6.83C26.431,5.676 25.973,4.379 25.325,3.241C24.692,2.118 23.87,1.138 22.747,0.553C21.783,0.047 20.66,-0.064 19.585,0.031C19.047,0.078 18.415,0.141 17.909,0.331C17.529,0.474 17.292,0.695 16.834,0.663C16.502,0.632 16.169,0.537 15.822,0.537C15.3,0.521 14.794,0.742 14.367,1.059C11.932,2.861 10.999,5.344 10.351,8.253C9.861,10.419 9.671,12.633 9.37,14.831Z" style="fill-rule:nonzero;"/>
    <path d="M23.837,14.136C24.707,11.621 25.197,8.396 24.074,5.898C23.031,3.573 20.232,2.198 17.75,2.767C12.642,3.921 12.927,9.692 13.892,13.661C14.255,15.179 15.046,16.507 16.089,17.662C16.153,17.741 16.232,17.82 16.263,17.915C16.295,18.009 16.295,18.12 16.295,18.215C16.263,19.686 16.627,21.377 15.868,22.737C15.552,23.306 15.062,23.781 14.429,23.955C12.057,24.603 9.401,23.544 7.251,24.998C5.227,26.374 4.895,28.983 4.373,31.181C3.709,33.869 3.456,36.62 3.155,39.371C2.649,43.814 2.001,48.257 1.764,52.732C1.653,54.756 1.764,56.685 1.59,58.709C1.147,63.642 1.226,68.449 0.483,73.351C0.293,74.505 -0.039,75.912 0.198,77.082C0.404,78.11 0.863,79.074 1.068,80.118C1.116,80.403 1.163,80.687 1.337,80.924C1.479,81.13 1.685,81.256 1.906,81.383C2.95,82.031 3.709,82.537 4.547,83.407C4.594,83.454 4.642,83.502 4.721,83.518C4.863,83.533 4.974,83.375 5.005,83.217C5.116,82.648 4.768,82.094 4.389,81.668C4.009,81.241 3.487,80.687 3.487,80.071C3.772,80.15 4.167,80.181 4.294,79.912C4.404,79.707 4.246,79.454 4.167,79.233C3.74,78.221 4.468,77.066 4.404,75.975C4.31,74.505 3.725,73.098 3.661,71.643C3.598,70.315 3.867,68.844 4.088,67.532C4.563,64.575 5.385,61.697 5.812,58.74C6.239,55.736 5.638,52.637 6.223,49.664C6.839,46.534 7.535,43.419 8.073,40.272C8.262,40.984 8.452,41.711 8.895,42.312C8.974,42.423 9.069,42.533 9.116,42.644C9.164,42.771 9.18,42.913 9.18,43.055C9.29,45.522 9.717,47.925 9.812,50.376C9.859,51.799 9.954,53.238 9.875,54.661C9.717,57.412 8.658,59.942 7.946,62.535C7.583,63.832 7.393,65.16 7.077,66.472C6.903,66.378 6.666,66.488 6.571,66.662C6.476,66.836 6.476,67.042 6.476,67.247C6.539,70.773 6.065,74.299 6.16,77.857C6.333,84.703 8.326,91.186 9.18,97.922C9.243,98.365 9.29,98.823 9.306,99.266C9.433,102.27 9.069,105.338 9.132,108.358C9.227,113.054 9.891,117.718 10.903,122.288C11.457,124.77 11.994,127.253 12.389,129.783C12.642,131.443 13.117,132.992 13.101,134.7C13.101,135.633 12.753,136.281 12.405,137.119C11.82,138.542 10.729,139.633 9.954,140.93C9.78,141.215 9.606,141.499 9.527,141.831C9.448,142.163 9.496,142.527 9.717,142.78C9.844,142.922 10.018,143.017 10.176,143.112C10.745,143.491 11.156,144.124 11.82,144.282C12.105,144.361 12.405,144.329 12.674,144.44C13.006,144.582 13.322,144.914 13.67,144.804C13.812,145.057 13.986,145.341 14.271,145.436C14.556,145.531 14.856,145.389 15.062,145.183C15.267,144.978 15.378,144.693 15.489,144.424C15.915,143.397 16.247,142.242 16.137,141.104C16.042,140.108 16.026,138.859 16.326,137.894C16.421,137.594 16.564,137.293 16.627,136.993C16.801,136.186 16.485,135.443 16.247,134.716C15.947,133.767 15.9,132.913 15.947,131.917C16.153,127.616 16.216,123.284 16.374,119.015C16.469,116.501 16.39,113.971 16.295,111.457C16.247,110.097 16.058,108.737 16.026,107.377C15.994,106.334 16.184,105.322 16.406,104.294C16.627,103.266 16.548,102.349 16.627,101.306C17.291,92.878 16.358,84.435 17.07,76.039C17.497,76.307 18.066,76.307 18.509,76.054C18.872,80.023 18.714,84.008 18.904,87.976C19.062,91.281 19.078,94.586 19.125,97.89C19.141,99.266 19.094,100.642 19.078,102.017C19.062,103.709 19.694,105.227 19.679,106.935C19.631,111.425 19.536,115.932 19.805,120.422C20.106,125.308 20.422,130.289 19.394,135.095C19.331,135.412 19.252,135.744 19.252,136.076C19.252,136.36 19.315,136.629 19.362,136.914C19.584,138.194 19.426,139.428 19.347,140.709C19.299,141.404 19.204,142.258 19.52,142.875C19.853,143.491 20.185,144.171 20.501,144.741C20.833,145.357 21.291,145.563 22.019,145.183C22.145,145.12 22.272,145.025 22.398,144.962C22.525,144.899 22.651,144.851 22.794,144.788C23.331,144.567 23.869,144.314 24.375,144.013C24.501,143.934 24.628,143.855 24.738,143.792C24.96,143.665 25.165,143.523 25.387,143.397C25.972,143.033 26.62,142.543 26.588,141.863C26.588,141.784 26.573,141.705 26.557,141.641C26.541,141.562 26.509,141.499 26.478,141.436C26.146,140.756 25.529,140.376 25.039,139.823C24.438,139.159 24.058,138.305 23.695,137.499C23.537,137.135 23.363,136.771 23.284,136.392C22.477,132.233 23.948,128.17 24.865,124.169C25.64,120.754 26.367,117.165 26.573,113.655C26.699,111.615 26.573,109.559 26.478,107.52C26.399,105.796 25.972,103.994 26.193,102.27C26.414,100.499 26.699,98.665 26.826,96.894C27.031,94.001 27.917,91.076 28.438,88.214C29.213,84.008 29.608,79.723 29.577,75.438C29.561,73.54 29.466,71.69 29.324,69.793C29.276,69.145 29.213,68.496 29.166,67.848C29.15,67.658 29.245,66.552 29.087,66.472C28.992,66.425 28.897,66.536 28.786,66.504C28.691,66.488 28.66,66.362 28.644,66.267C28.264,63.895 27.458,61.65 26.873,59.341C25.624,54.44 25.893,49.253 26.81,44.336C26.889,43.909 26.968,43.482 27.126,43.071C27.6,41.806 27.996,40.494 28.043,39.134C27.996,40.778 28.328,42.518 28.391,44.162C28.47,46.075 28.96,47.941 29.087,49.839C29.276,52.985 29.34,55.989 30.004,59.057C30.525,61.444 31.063,63.832 31.443,66.251C31.648,67.579 31.996,68.939 32.012,70.299C32.043,71.611 31.648,73.003 31.332,74.268C31.079,75.343 31.506,76.26 31.411,77.319C31.332,78.11 31.079,78.9 30.984,79.723C30.952,79.976 30.936,80.26 31.11,80.45C31.269,80.608 31.522,80.624 31.727,80.561C31.933,80.482 32.107,80.324 32.281,80.181C32.186,80.719 32.107,81.351 31.885,81.857C31.648,82.395 31.142,82.79 31,83.391C30.968,83.533 30.968,83.723 31.079,83.834C31.664,84.419 33.957,81.446 34.241,81.098C34.731,80.497 35.301,79.976 35.332,79.169C35.364,78.363 35.222,77.493 35.237,76.655C35.38,71.975 34.368,67.31 34.463,62.63C34.51,60.116 34.526,57.555 34.336,55.056C34.162,52.859 33.561,50.803 33.561,48.621C33.545,45.791 33.34,42.976 33.103,40.146C32.897,37.521 32.407,34.928 32.328,32.287C32.265,29.852 32.391,26.88 30.13,25.267C29.197,24.603 28.09,24.302 26.968,24.239C26.177,24.192 25.355,24.366 24.564,24.382C23.711,24.397 22.762,24.271 22.003,23.876C20.991,23.338 21.054,21.962 20.991,20.935C20.944,20.16 21.007,19.338 21.102,18.579C21.102,18.515 21.117,18.452 21.133,18.405C21.165,18.326 21.228,18.262 21.276,18.199C22.382,16.95 23.331,15.606 23.837,14.136Z" style="fill:rgb(226,168,138);fill-rule:nonzero;"/>
    <path d="M19.568,142.842C19.662,143 19.741,143.174 19.836,143.348C19.741,142.558 19.741,141.72 19.868,141.04C19.947,140.581 20.089,140.139 20.074,139.68C20.058,139.253 19.931,138.858 19.884,138.431C19.757,137.435 20.153,136.36 20.232,135.363C20.5,131.758 20.611,128.122 21.038,124.532C21.418,121.244 21.085,117.781 21.149,114.444C21.18,112.705 21.259,110.982 21.354,109.242C21.433,107.962 21.259,106.586 21.829,105.4C22.382,104.246 23.062,103.171 23.884,102.19C23.979,102.08 24.074,101.969 24.09,101.827C24.121,101.526 23.821,101.305 23.536,101.226C22.825,101.005 21.908,100.578 21.449,99.977C20.785,99.091 20.896,97.779 20.912,96.704C20.943,92.529 20.69,88.371 20.817,84.197C20.912,81.113 21.054,77.967 21.829,74.963C22.54,72.148 24.722,71.041 26.999,69.413C27.632,68.954 28.359,68.306 28.185,67.547C25.529,68.986 23.03,70.646 20.5,72.275C19.441,72.955 18.271,73.666 17.022,73.476C15.978,73.318 15.061,72.528 14.018,72.607C14.271,72.591 15.583,77.682 15.63,78.204C15.978,81.635 15.883,85.066 15.994,88.513C16.136,92.83 16.563,97.273 16.342,101.605C16.247,103.613 15.456,105.527 15.662,107.598C15.773,108.736 16.136,109.701 16.31,110.776C16.231,109.654 16.105,108.531 16.073,107.408C16.041,106.365 16.231,105.353 16.453,104.325C16.674,103.297 16.595,102.38 16.674,101.337C17.338,92.909 16.405,84.465 17.117,76.069C17.544,76.338 18.113,76.338 18.555,76.085C18.919,80.054 18.761,84.039 18.951,88.007C19.109,91.312 19.125,94.617 19.172,97.921C19.188,99.297 19.141,100.672 19.125,102.048C19.109,103.74 19.741,105.258 19.726,106.966C19.678,111.456 19.583,115.962 19.852,120.453C20.153,125.339 20.469,130.319 19.441,135.126C19.378,135.442 19.299,135.775 19.299,136.107C19.299,136.391 19.362,136.66 19.409,136.945C19.631,138.225 19.473,139.459 19.394,140.739C19.346,141.372 19.235,142.242 19.568,142.842Z" style="fill:rgb(174,106,83);fill-opacity:0.71;fill-rule:nonzero;"/>
    <path d="M4.704,83.533C4.847,83.549 4.957,83.391 4.989,83.233C5.1,82.664 4.752,82.11 4.372,81.683C3.993,81.256 3.471,80.703 3.471,80.086C3.756,80.165 4.151,80.197 4.277,79.928C4.388,79.723 4.23,79.47 4.151,79.248C3.724,78.236 4.451,77.082 4.388,75.991C4.293,74.52 3.708,73.113 3.645,71.659C3.582,70.33 3.85,68.86 4.072,67.547C4.546,64.591 5.368,61.713 5.795,58.756C6.222,55.752 5.621,52.653 6.206,49.68C6.823,46.55 7.519,43.435 8.056,40.288C8.246,41 8.436,41.727 8.879,42.328C8.958,42.438 9.053,42.549 9.1,42.66C9.147,42.786 9.163,42.929 9.163,43.071C9.274,45.538 9.701,47.941 9.796,50.392C9.843,51.815 9.938,53.254 9.859,54.677C9.717,57.412 8.657,59.942 7.946,62.535C7.582,63.832 7.392,65.16 7.076,66.472C6.902,66.377 6.665,66.488 6.57,66.662C6.475,66.836 6.475,67.042 6.475,67.247C6.538,70.773 6.064,74.299 6.159,77.857C6.333,84.703 8.325,91.186 9.179,97.922C9.242,98.365 9.29,98.823 9.306,99.266C9.432,102.27 9.068,105.338 9.132,108.358C9.226,113.054 9.891,117.718 10.903,122.288C11.456,124.77 11.993,127.253 12.389,129.782C12.642,131.443 13.116,132.992 13.1,134.7L13.1,134.779C13.749,133.34 13.385,132.202 13.195,130.383C12.879,127.284 12.531,124.201 12.12,121.118C11.788,118.54 11.377,115.963 11.013,113.386C10.792,111.868 10.381,110.271 10.428,108.737C10.476,107.33 11.14,106.017 11.503,104.658C11.693,103.946 11.646,103.013 12.278,102.507C12.468,102.349 12.737,102.317 12.974,102.254C13.764,102.033 14.46,101.147 14.112,100.404C13.385,100.831 12.167,101.479 11.377,100.847C10.871,100.436 10.839,99.44 10.697,98.823C10.223,96.704 10.096,94.522 9.717,92.372C9.226,89.494 8.61,86.632 8.12,83.754C7.361,79.311 7.361,73.667 8.784,69.35C8.847,69.176 8.91,69.002 9.068,68.907C9.211,68.828 9.369,68.86 9.527,68.891C11.092,69.192 12.5,69.998 14.002,70.504C15.899,71.137 17.97,71.279 19.899,70.757C21.828,70.235 23.584,69.018 24.627,67.31C23.663,67.468 19.472,68.275 18.856,67.231C18.239,66.172 18.271,64.243 18.16,63.057C17.939,60.812 17.733,58.566 17.702,56.321C17.765,59.657 17.955,63.215 17.433,66.52C17.322,67.263 17.037,68.148 16.152,68.085C15.235,68.022 9.116,67.864 9.321,66.346C9.859,62.472 11.409,58.867 11.82,54.977C12.231,51.167 11.266,47.641 11.219,43.877C11.219,43.846 11.219,43.798 11.235,43.767C11.266,43.719 11.314,43.703 11.345,43.688C12.073,43.403 12.721,43.166 13.511,43.166C14.128,43.182 16.895,42.549 17.243,43.103C17.322,43.245 17.322,43.419 17.338,43.577C17.37,44.004 17.543,44.415 17.812,44.731C18.081,44.668 18.034,44.288 18.065,44.02C18.113,43.514 18.634,43.197 19.125,43.071C20.548,42.707 22.319,43.292 23.773,43.324C24.39,43.34 25.022,43.261 25.623,43.087C25.86,43.023 26.098,42.944 26.335,42.96C26.619,42.976 26.857,43.118 27.046,43.34C27.078,43.229 27.11,43.134 27.157,43.023C27.631,41.759 28.027,40.446 28.074,39.086C28.027,40.731 28.359,42.47 28.422,44.114C28.501,46.028 28.991,47.894 29.118,49.791C29.307,52.937 29.371,55.942 30.035,59.009C30.557,61.397 31.094,63.784 31.474,66.203C31.679,67.532 32.027,68.891 32.043,70.251C32.074,71.564 31.679,72.955 31.363,74.22C31.11,75.295 31.537,76.212 31.442,77.272C31.363,78.062 31.11,78.853 31.015,79.675C30.983,79.928 30.968,80.213 31.142,80.402C31.3,80.561 31.553,80.576 31.758,80.513C31.964,80.434 32.138,80.276 32.312,80.134C32.217,80.671 32.138,81.304 31.916,81.81C31.679,82.347 31.173,82.743 31.031,83.343C30.999,83.486 30.999,83.675 31.11,83.786C31.221,83.897 31.379,83.881 31.584,83.786C32.059,82.917 32.533,82.031 33.007,81.161C33.245,80.734 33.466,80.292 33.482,79.817C33.498,79.485 33.403,79.153 33.324,78.821C33.086,77.635 33.276,76.402 33.466,75.2C32.976,76.544 32.486,77.873 32.011,79.217C31.932,79.422 31.711,79.675 31.537,79.533C31.458,79.47 31.474,79.343 31.474,79.248C31.6,77.683 31.6,76.054 31.79,74.52C31.964,73.066 32.612,71.722 32.723,70.251C32.928,67.532 32.28,65.033 31.853,62.361C31.521,60.306 31.252,58.187 31.521,56.116C31.742,54.455 32.359,52.795 32.312,51.087C32.312,50.945 32.296,50.787 32.217,50.645C32.09,50.423 31.821,50.329 31.6,50.202C30.936,49.823 30.62,49.048 30.367,48.336C29.75,46.66 29.529,45.142 29.355,43.387C29.102,40.857 28.596,38.375 28.137,35.892C27.489,32.445 27.157,29.046 26.999,25.536C26.983,24.998 27.031,24.587 27.347,24.239C27.236,24.223 27.125,24.223 27.015,24.208C26.224,24.16 25.402,24.334 24.611,24.35C23.757,24.366 22.809,24.239 22.05,23.844C21.433,23.512 21.212,22.879 21.117,22.184C20.911,22.974 21.196,23.955 21.923,24.287C23.109,24.84 24.501,24.571 25.75,24.555C25.781,24.555 25.829,24.555 25.86,24.571C25.892,24.603 25.908,24.65 25.924,24.698C26.414,26.295 26.43,27.844 26.113,29.52C25.797,31.212 25.18,32.841 24.88,34.564C24.674,35.782 24.121,36.809 23.188,37.647C22.73,38.059 22.319,38.549 21.781,38.865C20.816,39.434 20.279,38.707 19.378,38.849C19.109,38.881 18.872,39.023 18.634,39.165C18.065,39.513 17.496,39.908 16.832,39.924C16.389,39.924 15.567,39.482 15.188,39.229C14.128,38.533 13.085,37.869 12.088,37.078C11.614,36.699 11.598,36.193 11.377,35.671C11.124,35.086 10.95,34.485 10.839,33.868C10.618,32.619 10.681,31.323 10.76,30.058C10.823,29.046 10.871,28.05 10.934,27.038C10.966,26.421 10.997,25.82 11.124,25.219C11.156,25.061 11.203,24.887 11.314,24.777C11.44,24.65 11.646,24.603 11.835,24.587C12.594,24.492 13.353,24.508 14.097,24.35C16.563,23.812 16.452,20.602 18.808,19.954C19.725,19.701 20.137,19.132 20.564,18.262C19.14,19.48 17.211,18.057 16.31,16.887C15.33,15.637 14.871,14.056 14.523,12.523C14.413,12.017 13.97,10.53 14.365,10.072C14.413,10.009 14.508,9.977 14.587,9.945C16.057,9.471 17.559,9.25 19.061,8.854C19.599,8.712 20.311,8.665 20.816,8.427C21.307,8.206 21.402,7.779 21.496,7.241C21.56,7.463 21.623,7.7 21.702,7.921C21.828,8.332 22.034,8.143 22.334,8.159C22.904,8.222 23.457,8.491 24.01,8.617C24.169,8.649 24.248,10.167 24.263,10.356C24.311,10.973 24.263,11.447 24.137,12.032C24.01,12.633 23.931,13.25 23.884,13.867C24.69,11.4 25.101,8.332 24.026,5.913C22.983,3.589 20.184,2.213 17.702,2.783C12.594,3.937 12.879,9.708 13.844,13.677C14.207,15.195 14.998,16.523 16.041,17.677C16.105,17.756 16.184,17.835 16.215,17.93C16.247,18.025 16.247,18.136 16.247,18.231C16.215,19.701 16.579,21.393 15.82,22.753C15.504,23.322 15.014,23.796 14.381,23.97C12.879,24.381 11.266,24.113 9.732,24.223C9.811,24.54 9.859,24.856 9.875,25.188C10.096,28.825 8.989,32.588 8.009,36.051C6.712,40.683 5.922,45.474 5.052,50.202C4.989,50.518 4.926,50.85 4.768,51.135C4.609,51.42 4.325,51.657 4.009,51.673C3.724,51.688 3.376,51.546 3.186,51.767C3.091,51.862 3.076,52.005 3.076,52.131C2.981,53.349 3.645,54.218 3.898,55.388C4.546,58.313 4.42,61.333 4.024,64.274C3.819,65.777 3.487,67.247 3.234,68.749C3.06,69.777 2.396,71.247 2.68,72.259C2.886,73.018 3.408,73.588 3.597,74.362C4.04,76.181 3.724,78.015 4.072,79.849C3.866,80.023 3.597,79.754 3.471,79.533C2.807,78.331 2.253,77.066 1.795,75.77C1.969,77.651 1.668,80.181 2.601,81.857C2.617,81.873 2.633,81.905 2.633,81.92C3.297,82.363 3.866,82.806 4.483,83.438C4.578,83.47 4.641,83.517 4.704,83.533Z" style="fill:rgb(174,106,83);fill-opacity:0.71;fill-rule:nonzero;"/>
    <path d="M26.524,141.388C26.24,140.802 25.749,140.439 25.307,139.996C25.528,140.297 25.765,140.613 26.002,140.929C26.208,141.198 26.429,141.467 26.556,141.799C26.587,141.862 26.603,141.925 26.619,142.004C26.619,141.941 26.635,141.894 26.635,141.83C26.635,141.751 26.619,141.672 26.603,141.609C26.572,141.514 26.556,141.451 26.524,141.388Z" style="fill:rgb(174,106,83);fill-opacity:0.71;fill-rule:nonzero;"/>
    <path d="M23.298,129.324C22.982,130.431 22.919,131.664 22.824,132.803C22.65,134.921 23.156,136.566 24.057,138.131C23.947,137.91 23.852,137.688 23.741,137.451C23.583,137.088 23.409,136.724 23.33,136.344C22.571,132.455 23.82,128.628 24.721,124.881C24.01,126.241 23.694,127.917 23.298,129.324Z" style="fill:rgb(174,106,83);fill-opacity:0.71;fill-rule:nonzero;"/>
    <path d="M12.689,144.439C13.021,144.581 13.337,144.913 13.685,144.803C13.828,145.056 14.001,145.34 14.286,145.435C14.571,145.53 14.871,145.388 15.077,145.182C15.282,144.977 15.393,144.692 15.504,144.423C15.931,143.395 16.262,142.241 16.152,141.103C16.057,140.107 16.041,138.857 16.342,137.893C16.437,137.592 16.579,137.292 16.642,136.992C16.816,136.185 16.5,135.442 16.262,134.715C15.962,133.766 15.915,132.912 15.962,131.916C16.168,127.615 16.231,123.283 16.389,119.014C16.468,116.863 16.421,114.713 16.357,112.562C16.278,114.112 16.025,115.662 15.946,117.211C15.804,119.994 15.614,122.761 15.504,125.544C15.409,127.884 15.662,130.335 15.425,132.628C15.377,133.118 15.33,133.608 15.425,134.082C15.598,134.825 16.136,135.569 16.12,136.343C16.089,137.118 15.535,137.672 15.282,138.383C14.808,139.711 15.314,141.198 15.203,142.573C15.029,144.708 13.907,143.87 12.389,143.791C12.009,143.775 11.598,143.838 11.314,143.585C10.966,143.285 10.871,142.605 10.412,142.668C10.286,142.684 10.191,142.763 10.064,142.81C9.985,142.842 9.906,142.858 9.827,142.858C9.938,142.937 10.049,143 10.159,143.079C10.728,143.459 11.14,144.091 11.804,144.249C12.12,144.344 12.42,144.328 12.689,144.439Z" style="fill:rgb(174,106,83);fill-opacity:0.71;fill-rule:nonzero;"/>
    <path d="M26.888,96.829C27.094,93.936 27.979,91.011 28.501,88.149C29.276,83.943 29.671,79.658 29.64,75.373C29.624,73.476 29.529,71.626 29.387,69.728C29.339,69.08 29.276,68.432 29.228,67.783C29.213,67.673 29.26,67.198 29.244,66.835C29.165,66.439 29.039,66.376 28.375,66.566C28.169,66.629 27.948,66.677 27.742,66.74C27.347,66.835 26.967,66.977 26.572,67.072C21.718,68.068 16.959,68.447 12.041,67.688C11.124,67.546 10.223,67.388 9.321,67.151C8.831,67.024 8.373,66.835 7.898,66.677C6.839,66.36 6.728,66.487 6.507,67.356C6.554,70.851 6.096,74.329 6.191,77.824C6.365,84.67 8.357,91.153 9.211,97.889C9.274,98.332 9.321,98.79 9.337,99.233C9.464,102.237 9.1,105.305 9.163,108.325C9.258,113.021 9.922,117.685 10.934,122.255C11.092,122.998 11.266,123.757 11.424,124.5C11.709,124.706 12.041,124.848 12.389,124.959C13.622,125.354 15.014,125.338 16.263,124.959C16.326,122.95 16.374,120.958 16.453,118.982C16.547,116.468 16.468,113.938 16.374,111.424C16.326,110.064 16.136,108.704 16.105,107.344C16.073,106.301 16.263,105.289 16.484,104.261C16.706,103.233 16.626,102.316 16.706,101.273C17.37,92.845 16.437,84.401 17.148,76.005C17.575,76.274 18.144,76.274 18.587,76.021C18.951,79.99 18.793,83.975 18.982,87.943C19.141,91.248 19.156,94.553 19.204,97.857C19.22,99.233 19.172,100.608 19.156,101.984C19.141,103.676 19.773,105.194 19.757,106.902C19.71,111.392 19.615,115.898 19.884,120.389C19.963,121.685 20.042,122.982 20.105,124.294C20.137,124.31 20.168,124.326 20.184,124.342C21.338,124.879 23.267,125.022 24.833,124.658C24.88,124.484 24.912,124.31 24.959,124.121C25.734,120.705 26.461,117.116 26.667,113.606C26.793,111.566 26.667,109.51 26.572,107.471C26.493,105.747 26.066,103.945 26.287,102.221C26.477,100.45 26.762,98.616 26.888,96.829Z" style="fill:rgb(227,67,67);fill-rule:nonzero;stroke:rgb(36,0,0);stroke-width:0.16px;"/>
    <path d="M17.78,65.048C17.685,64.242 17.638,63.435 17.606,62.629C17.574,61.823 17.559,61.016 17.559,60.194C17.574,59.388 17.59,58.581 17.638,57.759C17.669,57.348 17.685,56.953 17.717,56.542C17.748,56.146 17.78,55.735 17.827,55.34L17.748,57.759C17.733,58.565 17.701,59.372 17.701,60.178C17.685,60.985 17.701,61.791 17.701,62.597C17.733,63.435 17.748,64.242 17.78,65.048Z" style="fill:rgb(31,0,0);fill-rule:nonzero;"/>
    <path d="M32.106,51.609C32.027,51.815 31.932,52.02 31.758,52.178C31.679,52.257 31.569,52.321 31.458,52.368C31.395,52.384 31.331,52.384 31.268,52.384C31.205,52.368 31.142,52.352 31.078,52.321C30.857,52.178 30.746,51.973 30.667,51.767C30.588,51.562 30.525,51.34 30.478,51.135C30.588,51.325 30.667,51.53 30.778,51.72C30.825,51.815 30.889,51.91 30.952,51.989C31.015,52.068 31.078,52.147 31.157,52.194C31.189,52.226 31.237,52.226 31.284,52.242C31.331,52.242 31.379,52.242 31.41,52.226C31.505,52.21 31.584,52.147 31.679,52.099C31.837,51.957 31.964,51.783 32.106,51.609Z" style="fill:rgb(31,0,0);fill-rule:nonzero;"/>
    <path d="M5.051,52.193C4.972,52.399 4.878,52.604 4.704,52.762C4.625,52.841 4.514,52.905 4.403,52.952C4.34,52.968 4.277,52.968 4.213,52.968C4.15,52.952 4.087,52.936 4.024,52.905C3.802,52.762 3.692,52.557 3.613,52.351C3.534,52.146 3.47,51.924 3.423,51.719C3.534,51.908 3.613,52.114 3.723,52.304C3.771,52.399 3.834,52.493 3.897,52.573C3.96,52.652 4.024,52.731 4.103,52.778C4.134,52.81 4.182,52.81 4.229,52.826C4.277,52.826 4.324,52.826 4.356,52.81C4.451,52.794 4.53,52.731 4.625,52.683C4.798,52.557 4.925,52.367 5.051,52.193Z" style="fill:rgb(31,0,0);fill-rule:nonzero;"/>
    <path d="M2.175,76.434C2.285,76.576 2.38,76.75 2.459,76.924C2.538,77.098 2.586,77.272 2.633,77.461C2.728,77.825 2.791,78.189 2.855,78.552C2.934,78.916 3.013,79.264 3.155,79.596C3.234,79.754 3.329,79.912 3.456,80.023C3.519,80.07 3.614,80.118 3.693,80.118C3.788,80.118 3.867,80.102 3.962,80.07C3.882,80.118 3.788,80.149 3.693,80.149C3.598,80.149 3.503,80.134 3.408,80.07C3.234,79.96 3.124,79.802 3.029,79.628C2.855,79.296 2.76,78.916 2.681,78.552C2.602,78.189 2.554,77.825 2.491,77.461C2.444,77.129 2.333,76.766 2.175,76.434Z" style="fill:rgb(31,0,0);fill-rule:nonzero;"/>
    <path d="M31.948,80.528C32.28,80.228 32.423,79.817 32.502,79.406C32.549,79.2 32.597,78.979 32.644,78.773C32.691,78.568 32.755,78.362 32.818,78.156C32.944,77.745 33.087,77.334 33.182,76.923C33.292,76.512 33.356,76.085 33.356,75.658C33.387,75.864 33.387,76.085 33.387,76.307C33.371,76.528 33.34,76.733 33.308,76.955C33.229,77.382 33.103,77.793 32.976,78.204C32.85,78.615 32.723,79.026 32.612,79.437C32.549,79.643 32.486,79.848 32.375,80.054C32.264,80.228 32.122,80.402 31.948,80.528Z" style="fill:rgb(31,0,0);fill-rule:nonzero;"/>
    <path d="M23.837,101.1C23.616,101.195 23.363,101.242 23.126,101.211C22.873,101.195 22.636,101.131 22.414,101.021C21.972,100.799 21.608,100.467 21.308,100.088C21.687,100.388 22.051,100.673 22.478,100.878C22.683,100.973 22.905,101.052 23.142,101.084C23.363,101.131 23.6,101.131 23.837,101.1Z" style="fill:rgb(31,0,0);fill-rule:nonzero;"/>
    <path d="M14.443,99.945C14.317,100.182 14.158,100.42 13.969,100.625C13.779,100.831 13.542,100.989 13.289,101.115C13.036,101.226 12.751,101.273 12.482,101.305C12.214,101.321 11.929,101.305 11.66,101.289C12.198,101.226 12.751,101.194 13.226,100.989C13.463,100.894 13.684,100.736 13.89,100.562C14.095,100.356 14.269,100.151 14.443,99.945Z" style="fill:rgb(31,0,0);fill-rule:nonzero;"/>
    <path d="M15.854,134.984C15.932,135.158 16.012,135.332 16.075,135.506C16.138,135.68 16.201,135.87 16.186,136.091C16.186,136.202 16.138,136.313 16.091,136.392C16.027,136.471 15.964,136.55 15.901,136.629C15.759,136.771 15.616,136.882 15.442,136.992C15.569,136.85 15.695,136.708 15.806,136.55C15.917,136.407 16.027,136.249 16.027,136.091C16.043,135.917 15.996,135.743 15.948,135.554C15.932,135.38 15.869,135.19 15.854,134.984Z" style="fill:rgb(31,0,0);fill-rule:nonzero;"/>
    <path d="M19.837,135.221C19.758,135.521 19.695,135.806 19.71,136.106C19.71,136.248 19.742,136.391 19.805,136.533C19.853,136.675 19.932,136.802 20.011,136.928C19.884,136.849 19.758,136.723 19.679,136.581C19.6,136.438 19.552,136.28 19.552,136.122C19.537,135.79 19.647,135.474 19.837,135.221Z" style="fill:rgb(31,0,0);fill-rule:nonzero;"/>
    <path d="M13.18,7.59C13.291,9.677 13.386,11.606 13.892,13.646C14.255,15.164 15.046,16.492 16.089,17.646C16.153,17.725 16.232,17.804 16.263,17.899C16.295,17.994 16.295,18.105 16.295,18.2C16.263,19.67 16.627,21.362 15.868,22.722C15.552,23.291 15.062,23.765 14.429,23.939C12.057,24.587 9.401,23.528 7.251,24.983C5.227,26.358 4.895,28.967 4.373,31.165C3.709,33.853 3.456,36.604 3.155,39.356C2.649,43.799 2.001,48.242 1.764,52.717C1.653,54.74 1.764,56.67 1.59,58.693C1.147,63.627 1.226,68.433 0.483,73.335C0.293,74.505 -0.039,75.912 0.198,77.082C0.404,78.11 0.863,79.075 1.068,80.118C1.116,80.403 1.163,80.688 1.337,80.925C1.479,81.13 1.685,81.257 1.906,81.383C2.95,82.031 3.709,82.537 4.547,83.407C4.594,83.455 4.642,83.502 4.721,83.518C4.863,83.534 4.974,83.376 5.005,83.217C5.116,82.648 4.768,82.095 4.389,81.668C4.009,81.241 3.487,80.688 3.487,80.071C3.772,80.15 4.167,80.182 4.294,79.913C4.404,79.707 4.246,79.454 4.167,79.233C3.74,78.221 4.468,77.067 4.404,75.976C4.31,74.505 3.725,73.098 3.661,71.643C3.598,70.315 3.867,68.845 4.088,67.532C4.563,64.575 5.385,61.698 5.812,58.741C6.239,55.737 5.638,52.638 6.223,49.665C6.839,46.534 7.535,43.419 8.073,40.273C8.262,40.984 8.452,41.712 8.895,42.312C8.974,42.423 9.069,42.534 9.116,42.645C9.164,42.771 9.18,42.913 9.18,43.056C9.29,45.522 9.717,47.926 9.812,50.376C9.859,51.8 9.954,53.238 9.875,54.661C9.717,57.413 8.658,59.943 7.946,62.536C7.583,63.832 7.393,65.16 7.077,66.473C6.903,66.378 6.666,66.489 6.571,66.663C6.476,66.836 6.476,67.042 6.476,67.248C6.539,70.774 6.065,74.3 6.16,77.857C6.333,84.704 8.326,91.187 9.18,97.922C9.243,98.365 9.29,98.824 9.306,99.266C9.433,102.271 9.069,105.338 9.132,108.358C9.227,113.054 9.891,117.719 10.903,122.288C11.457,124.771 11.994,127.253 12.389,129.783C12.642,131.443 13.117,132.993 13.101,134.7C13.101,135.633 12.753,136.282 12.405,137.12C11.82,138.543 10.729,139.634 9.954,140.93C9.78,141.215 9.606,141.499 9.527,141.832C9.448,142.164 9.496,142.527 9.717,142.78C9.844,142.923 10.018,143.017 10.176,143.112C10.745,143.492 11.156,144.124 11.82,144.282C12.105,144.361 12.405,144.33 12.674,144.44C13.006,144.583 13.322,144.915 13.67,144.804C13.812,145.057 13.986,145.342 14.271,145.437C14.556,145.531 14.856,145.389 15.062,145.184C15.267,144.978 15.378,144.693 15.488,144.425C15.915,143.397 16.247,142.243 16.137,141.104C16.042,140.108 16.026,138.859 16.326,137.894C16.421,137.594 16.564,137.294 16.627,136.993C16.801,136.187 16.485,135.444 16.247,134.716C15.947,133.768 15.9,132.914 15.947,131.918C16.153,127.617 16.216,123.284 16.374,119.015C16.469,116.501 16.39,113.971 16.295,111.457C16.247,110.097 16.058,108.738 16.026,107.378C15.994,106.334 16.184,105.322 16.406,104.294C16.627,103.267 16.548,102.35 16.627,101.306C17.291,92.878 16.358,84.435 17.07,76.039C17.497,76.308 18.066,76.308 18.509,76.055C18.872,80.023 18.714,84.008 18.904,87.977C19.062,91.281 19.078,94.586 19.125,97.891C19.141,99.266 19.094,100.642 19.078,102.018C19.062,103.709 19.694,105.227 19.679,106.935C19.631,111.426 19.536,115.932 19.805,120.422C20.106,125.308 20.422,130.289 19.394,135.096C19.331,135.412 19.252,135.744 19.252,136.076C19.252,136.361 19.315,136.629 19.362,136.914C19.584,138.195 19.426,139.428 19.347,140.709C19.299,141.405 19.204,142.258 19.52,142.875C19.853,143.492 20.185,144.172 20.501,144.741C20.833,145.358 21.291,145.563 22.019,145.184C22.145,145.12 22.272,145.025 22.398,144.962C22.525,144.899 22.651,144.852 22.794,144.788C23.331,144.567 23.869,144.314 24.375,144.014C24.501,143.934 24.628,143.855 24.738,143.792C24.96,143.666 25.165,143.523 25.387,143.397C25.972,143.033 26.62,142.543 26.588,141.863C26.588,141.784 26.573,141.705 26.557,141.642C26.541,141.563 26.509,141.499 26.478,141.436C26.146,140.756 25.529,140.377 25.039,139.823C24.438,139.159 24.058,138.305 23.695,137.499C23.537,137.135 23.363,136.772 23.284,136.392C22.477,132.234 23.948,128.17 24.865,124.17C25.64,120.754 26.367,117.165 26.573,113.655C26.699,111.615 26.573,109.56 26.478,107.52C26.399,105.797 25.972,103.994 26.193,102.271C26.414,100.5 26.699,98.665 26.826,96.894C27.031,94.001 27.917,91.076 28.438,88.214C29.213,84.008 29.608,79.723 29.577,75.438C29.561,73.541 29.466,71.691 29.324,69.793C29.276,69.145 29.213,68.497 29.166,67.848C29.15,67.659 29.245,66.552 29.087,66.473C28.992,66.425 28.897,66.536 28.786,66.504C28.691,66.489 28.66,66.362 28.644,66.267C28.264,63.895 27.458,61.65 26.873,59.342C25.624,54.44 25.893,49.254 26.81,44.336C26.889,43.909 26.968,43.483 27.126,43.071C27.6,41.806 27.996,40.494 28.043,39.134C27.996,40.779 28.328,42.518 28.391,44.162C28.47,46.076 28.96,47.941 29.087,49.839C29.276,52.985 29.34,55.99 30.004,59.057C30.525,61.445 31.063,63.832 31.443,66.251C31.648,67.58 31.996,68.939 32.012,70.299C32.043,71.612 31.648,73.003 31.332,74.268C31.079,75.343 31.506,76.26 31.411,77.32C31.332,78.11 31.079,78.901 30.984,79.723C30.952,79.976 30.936,80.261 31.11,80.45C31.269,80.609 31.522,80.624 31.727,80.561C31.933,80.482 32.107,80.324 32.281,80.182C32.186,80.719 32.107,81.352 31.885,81.858C31.648,82.395 31.142,82.79 31,83.391C30.968,83.534 30.968,83.723 31.079,83.834C31.664,84.419 33.957,81.447 34.241,81.099C34.731,80.498 35.301,79.976 35.332,79.17C35.364,78.363 35.222,77.494 35.237,76.656C35.38,71.975 34.368,67.311 34.463,62.631C34.51,60.116 34.526,57.555 34.336,55.057C34.162,52.859 33.561,50.803 33.561,48.621C33.545,45.791 33.34,42.977 33.103,40.146C32.897,37.522 32.407,34.928 32.328,32.288C32.265,29.853 32.391,26.88 30.13,25.267C29.197,24.603 28.09,24.303 26.968,24.24C26.177,24.192 25.355,24.366 24.564,24.382C23.711,24.398 22.762,24.271 22.003,23.876C20.991,23.338 21.054,21.963 20.991,20.935C20.944,20.16 21.007,19.338 21.102,18.579C21.102,18.516 21.117,18.453 21.133,18.405C21.165,18.326 21.228,18.263 21.276,18.2C22.303,17.03 23.252,15.685 23.758,14.215C24.454,12.175 24.659,10.057 24.58,7.906" style="fill:none;fill-rule:nonzero;stroke:rgb(31,0,0);stroke-width:0.16px;"/>
    <path d="M23.33,8.253C23.821,8.221 25.275,8.395 25.18,8C24.817,6.671 24.564,5.486 23.789,4.284C23.22,3.446 22.524,2.639 21.623,2.133C20.832,1.707 19.804,1.596 18.919,1.501C17.053,1.311 15.124,1.96 13.922,3.446C13.258,4.284 12.847,5.169 12.642,6.229C12.484,7.067 12.389,7.921 12.057,8.711C13.369,9.043 14.729,8.964 16.073,8.869C17.037,8.806 18.002,8.727 18.966,8.6C19.615,8.506 20.2,8.347 20.832,8.237C20.864,8.237 20.895,8.221 20.927,8.205C21.006,8.158 21.022,8.063 21.038,7.984C21.196,7.083 21.386,6.276 21.401,5.359C21.67,6.229 21.797,7.146 21.797,8.063C21.797,8.094 21.797,8.126 21.813,8.158C21.844,8.189 21.892,8.189 21.939,8.189L22.571,8.189C22.587,7.478 22.603,6.766 22.445,6.086C22.745,6.798 22.983,7.557 23.141,8.316C23.172,8.268 23.235,8.253 23.33,8.253Z" style="fill-rule:nonzero;"/>
    <path d="M27.363,42.58C27.316,42.675 27.284,42.754 27.253,42.849C26.763,43.133 26.177,43.133 25.624,43.118C24.138,43.086 22.651,43.054 21.165,42.975C20.501,42.944 19.869,42.912 19.205,42.912C18.461,42.912 17.734,42.912 16.991,42.896C15.852,42.865 14.714,43.007 13.56,43.023C12.105,43.054 10.714,43.165 9.259,42.944C8.8,42.074 8.199,41.268 8.057,40.256C7.915,39.26 7.947,38.232 8.136,37.236C8.279,36.493 8.5,35.781 8.69,35.054C9.196,33.172 9.512,31.259 9.765,29.33C9.812,28.982 10.208,24.223 10.239,24.223C10.382,24.223 11.314,24.065 11.314,24.286C11.33,26.784 11.109,29.267 11.093,31.765C11.077,32.919 10.777,34.69 11.583,35.623C12.864,37.141 14.334,38.295 15.868,39.497C16.248,39.797 16.596,40.129 17.038,40.335C18.983,41.22 20.865,39.354 22.098,38.105C22.746,37.441 23.474,36.856 24.075,36.161C24.549,35.623 25.181,35.038 25.419,34.342C25.861,32.982 25.988,31.243 25.988,29.836C25.972,28.84 25.972,27.859 25.94,26.863C25.924,26.389 25.893,25.914 25.83,25.424C25.782,25.013 25.656,24.523 25.719,24.112C25.988,24.017 26.272,23.97 26.557,23.985C26.604,23.985 26.668,24.001 26.699,24.033C26.731,24.065 26.747,24.128 26.763,24.175C27.095,26.104 27.253,28.065 27.332,30.026C27.395,31.306 27.332,32.634 27.521,33.899C27.774,35.575 28.486,37.109 28.486,38.801C28.486,39.513 28.407,40.24 28.217,40.92C28.012,41.552 27.616,42.027 27.363,42.58Z" style="fill:rgb(175,25,0);fill-rule:nonzero;stroke:rgb(36,0,0);stroke-width:0.16px;"/>
    <path d="M25.387,34.342C25.83,32.982 25.956,31.243 25.956,29.836C25.94,28.84 25.941,27.859 25.909,26.863C25.893,26.389 25.861,25.914 25.798,25.424C25.751,25.013 25.624,24.523 25.688,24.112C25.956,24.017 26.241,23.97 26.526,23.985C26.573,23.985 26.636,24.001 26.668,24.033C26.699,24.065 26.715,24.128 26.731,24.175C27.063,26.104 27.221,28.065 27.3,30.026C27.363,31.306 27.3,32.634 27.49,33.899C27.743,35.575 28.455,37.109 28.455,38.801C28.455,39.513 28.376,40.24 28.186,40.92C28.012,41.552 27.601,42.011 27.348,42.564C27.3,42.659 27.269,42.738 27.237,42.833C26.747,43.118 26.162,43.118 25.608,43.102C24.122,43.07 22.636,43.039 21.15,42.96C20.485,42.928 19.853,42.896 19.189,42.896C18.446,42.896 17.718,42.896 16.975,42.88C15.837,42.849 14.698,42.991 13.544,43.007C12.089,43.039 10.698,43.149 9.243,42.928C8.785,42.058 8.184,41.252 8.042,40.24C7.899,39.244 7.931,38.216 8.121,37.22C8.263,36.477 8.484,35.765 8.674,35.038C9.18,33.156 9.496,31.243 9.749,29.314C9.797,28.966 10.192,24.207 10.224,24.207C10.366,24.207 11.299,24.049 11.299,24.27C11.315,26.768 11.093,29.251 11.077,31.749C11.062,32.951 10.903,34.342 11.615,35.402C11.995,35.955 12.564,36.35 13.165,36.635C14.177,37.109 15.283,37.299 16.39,37.41C17.718,37.568 19.062,37.663 20.406,37.615C21.023,37.584 21.719,37.599 22.304,37.41C22.731,37.267 23.331,37.125 23.679,36.84C24.375,36.303 25.102,35.18 25.387,34.342Z" style="fill:rgb(227,67,67);fill-rule:nonzero;stroke:rgb(36,0,0);stroke-width:0.16px;"/>
    <path d="M23.63,11.746C23.551,12.141 23.456,12.394 23.282,12.821C23.267,12.853 23.251,12.9 23.219,12.979C23.203,13.059 23.156,13.137 23.108,13.264C23.061,13.406 22.982,13.58 22.887,13.77C22.792,13.96 22.697,14.165 22.602,14.355C22.508,14.545 22.413,14.703 22.349,14.829C22.286,14.956 22.239,15.019 22.239,15.019C22.239,15.019 22.207,15.082 22.144,15.177C22.081,15.272 22.002,15.414 21.891,15.573C21.796,15.731 21.685,15.905 21.575,16.063C21.464,16.237 21.353,16.395 21.258,16.521C21.053,16.822 20.926,16.996 20.863,17.091C20.594,17.486 20.468,17.723 20.215,18.023C20.468,17.723 20.689,17.549 21.005,17.201C21.084,17.106 21.227,16.948 21.464,16.664C21.559,16.537 21.685,16.379 21.812,16.221C21.938,16.063 22.049,15.889 22.16,15.731C22.27,15.573 22.349,15.43 22.413,15.32C22.476,15.209 22.508,15.146 22.508,15.146C22.508,15.146 22.555,15.067 22.618,14.94C22.697,14.814 22.776,14.64 22.871,14.45C22.966,14.26 23.061,14.039 23.14,13.833C23.219,13.628 23.282,13.438 23.33,13.296C23.377,13.169 23.409,13.074 23.425,12.995C23.44,12.916 23.456,12.869 23.472,12.821C23.567,12.41 23.567,12.126 23.63,11.746Z" style="fill:white;fill-opacity:0.1;fill-rule:nonzero;"/>
    <path d="M6.602,26.057C6.665,26.025 6.728,26.041 6.807,26.025C6.823,26.025 6.87,26.009 6.918,25.993C6.965,25.978 7.028,25.962 7.076,25.93C7.187,25.883 7.281,25.835 7.281,25.835C7.281,25.835 7.376,25.788 7.471,25.725C7.519,25.693 7.566,25.661 7.614,25.63C7.661,25.598 7.693,25.567 7.708,25.551C7.772,25.487 7.803,25.44 7.867,25.408C7.803,25.424 7.74,25.393 7.661,25.393C7.645,25.393 7.598,25.393 7.534,25.408C7.487,25.424 7.424,25.424 7.361,25.456C7.25,25.487 7.139,25.551 7.139,25.551C7.139,25.551 7.044,25.598 6.934,25.677C6.886,25.709 6.839,25.756 6.791,25.788C6.744,25.82 6.728,25.867 6.712,25.883C6.665,25.946 6.649,26.009 6.602,26.057Z" style="fill:white;fill-opacity:0.1;fill-rule:nonzero;"/>
    <path d="M29.229,25.156C29.371,25.283 29.482,25.425 29.576,25.567C29.671,25.71 29.782,25.868 29.924,26.058C29.972,26.121 30.051,26.216 30.209,26.437C30.241,26.484 30.335,26.627 30.335,26.627C30.335,26.627 30.414,26.737 30.446,26.801C30.541,26.943 30.62,27.07 30.683,27.164C30.746,27.259 30.794,27.338 30.826,27.386C30.952,27.575 31.063,27.734 31.158,27.876C31.252,28.018 31.347,28.161 31.426,28.35C31.3,27.987 31.268,27.686 31.063,27.259C31.031,27.212 30.999,27.133 30.936,27.022C30.873,26.911 30.81,26.785 30.699,26.627C30.652,26.564 30.573,26.453 30.573,26.453C30.573,26.453 30.478,26.326 30.43,26.263C30.256,26.042 30.161,25.947 30.114,25.899C29.782,25.552 29.529,25.425 29.229,25.156Z" style="fill:white;fill-opacity:0.1;fill-rule:nonzero;"/>
    <path d="M17.513,53.254C17.481,53.649 17.418,53.918 17.354,54.392C17.339,54.471 17.339,54.598 17.307,54.867C17.275,55.262 17.212,55.942 17.18,56.511C17.149,57.08 17.133,57.555 17.133,57.555C17.133,57.555 17.117,57.95 17.117,58.456C17.117,58.962 17.117,59.579 17.133,60.021C17.149,60.385 17.165,60.606 17.165,60.733C17.196,61.207 17.244,61.476 17.26,61.871C17.26,61.476 17.307,61.207 17.323,60.733C17.323,60.622 17.339,60.385 17.354,60.037C17.386,59.152 17.433,57.571 17.433,57.571C17.433,57.571 17.449,57.096 17.465,56.527C17.481,55.958 17.497,55.278 17.497,54.883L17.497,54.392C17.528,53.918 17.497,53.649 17.513,53.254Z" style="fill:white;fill-opacity:0.1;fill-rule:nonzero;"/>
    <path d="M4.276,35.607C4.213,36.003 4.134,36.256 4.055,36.73C4.039,36.793 4.023,36.888 4.007,36.999C3.976,37.173 3.944,37.363 3.897,37.584C3.802,38.153 3.691,38.817 3.596,39.466C3.407,40.746 3.264,41.916 3.264,41.916C3.264,41.916 3.185,42.612 3.09,43.513C2.995,44.399 2.916,45.49 2.869,46.265C2.853,46.628 2.837,46.85 2.837,46.96C2.821,47.435 2.837,47.703 2.806,48.099C2.837,47.703 2.901,47.435 2.964,46.976C2.98,46.865 3.011,46.644 3.059,46.28C3.264,44.731 3.58,41.948 3.58,41.948C3.58,41.948 3.723,40.778 3.865,39.497C3.944,38.849 4.007,38.185 4.086,37.616C4.134,37.22 4.165,36.904 4.181,36.746C4.213,36.272 4.213,36.003 4.276,35.607Z" style="fill:white;fill-opacity:0.1;fill-rule:nonzero;"/>
    <path d="M0.974,74.394C0.847,74.774 0.689,75.011 0.579,75.47C0.563,75.549 0.515,75.675 0.484,75.96C0.452,76.15 0.452,76.466 0.484,76.735C0.515,77.004 0.563,77.209 0.563,77.209C0.563,77.209 0.594,77.383 0.658,77.604C0.705,77.826 0.784,78.095 0.832,78.284C0.926,78.632 0.99,78.853 1.021,78.964C1.164,79.423 1.29,79.66 1.385,80.055C1.306,79.676 1.306,79.391 1.227,78.917C1.211,78.806 1.164,78.585 1.1,78.221C1.069,78.031 1.005,77.747 0.958,77.525C0.911,77.304 0.863,77.13 0.863,77.13C0.863,77.13 0.816,76.924 0.784,76.671C0.752,76.418 0.737,76.134 0.737,75.96C0.752,75.691 0.768,75.565 0.768,75.486C0.832,75.043 0.863,74.774 0.974,74.394Z" style="fill:white;fill-opacity:0.1;fill-rule:nonzero;"/>
    <path d="M9.054,73.856C9.022,74.251 8.99,74.52 8.943,74.994C8.943,75.057 8.927,75.152 8.927,75.278C8.911,75.547 8.896,75.864 8.864,76.196C8.816,77.239 8.785,78.488 8.816,79.674C8.816,80.259 8.864,80.844 8.88,81.382C8.911,81.92 8.943,82.41 8.975,82.821C9.006,83.232 9.038,83.58 9.069,83.817C9.085,84.054 9.117,84.196 9.117,84.196C9.117,84.196 9.133,84.323 9.164,84.56C9.196,84.797 9.228,85.145 9.291,85.556C9.354,85.967 9.417,86.457 9.512,86.979C9.56,87.248 9.607,87.517 9.654,87.801C9.702,88.086 9.765,88.371 9.828,88.655C9.876,88.94 9.955,89.24 10.018,89.525C10.081,89.81 10.145,90.11 10.224,90.394C10.303,90.679 10.366,90.964 10.429,91.233C10.461,91.375 10.508,91.501 10.54,91.628C10.572,91.754 10.603,91.881 10.651,92.007C10.73,92.308 10.809,92.561 10.84,92.687C10.983,93.146 11.078,93.399 11.188,93.778C11.078,93.399 11.03,93.13 10.919,92.671C10.888,92.545 10.84,92.292 10.761,91.992C10.73,91.865 10.698,91.739 10.682,91.612C10.651,91.486 10.619,91.343 10.587,91.201C10.524,90.932 10.477,90.647 10.413,90.347C10.35,90.063 10.303,89.762 10.24,89.478C10.192,89.177 10.129,88.892 10.081,88.608C10.034,88.323 9.987,88.023 9.939,87.754C9.892,87.469 9.86,87.201 9.813,86.932C9.734,86.41 9.67,85.92 9.607,85.509C9.544,85.098 9.512,84.75 9.481,84.528C9.449,84.291 9.433,84.165 9.433,84.165C9.433,84.165 9.417,84.038 9.386,83.801C9.37,83.564 9.322,83.216 9.291,82.805C9.259,82.394 9.212,81.904 9.18,81.366C9.148,80.828 9.101,80.259 9.085,79.674C9.022,78.488 9.022,77.255 9.022,76.211C9.022,75.864 9.022,75.547 9.038,75.294L9.038,75.01C9.038,74.52 9.038,74.251 9.054,73.856Z" style="fill:white;fill-opacity:0.1;fill-rule:nonzero;"/>
    <path d="M27.395,79.342C27.379,79.737 27.3,80.006 27.253,80.48C27.237,80.559 27.221,80.686 27.189,80.955C27.126,81.54 26.968,82.947 26.968,82.947C26.968,82.947 26.842,84.117 26.778,84.781C26.747,85.145 26.715,85.366 26.715,85.477C26.668,85.951 26.683,86.22 26.62,86.615C26.683,86.22 26.794,85.967 26.889,85.508C26.921,85.398 26.952,85.176 27.031,84.813C27.095,84.481 27.158,84.038 27.205,83.658C27.253,83.279 27.284,82.994 27.284,82.994C27.284,82.994 27.316,82.647 27.363,82.22C27.395,81.793 27.427,81.287 27.427,80.986L27.427,80.496C27.427,80.006 27.379,79.737 27.395,79.342Z" style="fill:white;fill-opacity:0.1;fill-rule:nonzero;"/>
    <path d="M21.845,98.965C21.892,99.076 21.892,99.17 21.94,99.297C21.971,99.376 22.066,99.582 22.177,99.771C22.288,99.945 22.43,100.103 22.43,100.103C22.43,100.103 22.556,100.246 22.714,100.388C22.873,100.53 23.078,100.657 23.141,100.688C23.268,100.752 23.363,100.767 23.458,100.831C23.363,100.752 23.331,100.673 23.236,100.562C23.141,100.435 22.651,99.882 22.651,99.882C22.651,99.882 22.161,99.329 22.066,99.202C21.987,99.107 21.908,99.06 21.845,98.965Z" style="fill:white;fill-opacity:0.1;fill-rule:nonzero;"/>
    <path d="M12.184,100.514C12.247,100.546 12.278,100.593 12.342,100.641C12.358,100.656 12.405,100.672 12.452,100.704C12.5,100.72 12.563,100.751 12.626,100.767C12.753,100.799 12.864,100.799 12.864,100.799C12.864,100.799 12.974,100.799 13.101,100.783C13.164,100.767 13.227,100.751 13.275,100.72C13.322,100.704 13.37,100.672 13.385,100.656C13.464,100.609 13.48,100.546 13.543,100.53C13.48,100.546 13.417,100.514 13.338,100.498C13.322,100.498 13.275,100.498 13.227,100.482L13.069,100.482L12.864,100.482L12.658,100.482L12.389,100.482C12.31,100.514 12.247,100.546 12.184,100.514Z" style="fill:white;fill-opacity:0.1;fill-rule:nonzero;"/>
    <path d="M27.363,42.579C27.616,42.026 28.028,41.551 28.202,40.935C28.391,40.255 28.47,39.528 28.47,38.816C28.47,37.124 27.759,35.59 27.506,33.914C27.316,32.649 27.379,31.321 27.316,30.04C27.221,28.08 27.063,26.119 26.747,24.19C26.731,24.143 26.731,24.079 26.684,24.048C26.652,24.016 26.589,24 26.541,24C26.383,23.985 26.225,24 26.067,24.032C25.972,25.044 26.035,26.072 26.083,27.084C26.178,29.029 26.288,30.989 26.763,32.871C27.205,34.658 28.312,36.175 28.407,38.041C28.47,39.606 27.79,41.125 26.462,42.01C25.276,42.801 23.347,42.484 22.035,42.342C19.9,42.121 17.782,41.52 15.615,41.82C13.228,42.152 9.575,42.864 8.2,40.176C8.089,39.97 8.026,39.733 7.994,39.48C8.01,39.733 8.026,40.002 8.073,40.255C8.231,41.267 8.816,42.073 9.275,42.943C10.73,43.164 12.121,43.069 13.576,43.022C14.73,42.99 15.853,42.864 17.007,42.895C17.75,42.911 18.477,42.927 19.221,42.911C19.885,42.911 20.517,42.943 21.181,42.974C22.667,43.054 24.154,43.085 25.64,43.117C26.193,43.133 26.794,43.133 27.269,42.848C27.285,42.753 27.316,42.658 27.363,42.579Z" style="fill-opacity:0.28;fill-rule:nonzero;"/>
    <path d="M9.75,29.328C9.497,31.257 9.18,33.17 8.674,35.052C8.485,35.78 8.263,36.491 8.121,37.234C8.089,37.376 8.074,37.519 8.042,37.677C8.168,36.997 8.374,36.349 8.532,35.859C9.259,33.724 10.082,31.668 10.319,29.407C10.493,27.668 10.588,25.929 10.572,24.19C10.398,24.205 10.256,24.221 10.208,24.221C10.192,24.221 9.797,28.98 9.75,29.328Z" style="fill-opacity:0.28;fill-rule:nonzero;"/>
    <path d="M20.121,110.492C20.121,112.706 19.884,114.904 19.884,117.117C19.884,118.382 19.979,119.647 20.074,120.912C20.137,121.703 19.726,124.17 20.754,124.438C21.497,120.644 20.959,116.517 21.149,112.643C21.244,110.714 21.149,108.516 21.592,106.65C21.876,105.433 22.525,104.278 23.378,103.425C24.027,102.776 24.612,101.337 23.126,101.243C22.952,101.227 22.778,101.243 22.604,101.195C20.88,100.673 21.007,97.527 20.817,96.088C20.517,93.811 20.438,91.439 20.311,89.21C20.074,84.545 19.995,79.675 21.718,75.248C22.082,74.315 22.793,72.481 23.679,71.943C22.651,72.56 21.608,73.193 20.58,73.809C19.584,74.41 18.24,74.6 17.117,74.157C16.5,73.904 15.947,73.509 15.409,73.129C15.014,72.845 14.635,72.56 14.239,72.275C14.903,72.924 15.488,73.651 16.01,74.41C15.52,74.141 15.046,73.841 14.571,73.54C15.172,74.078 15.741,74.631 16.279,75.248C16.532,75.533 16.801,75.975 17.164,76.134C17.544,76.307 18.224,75.944 18.445,76.102C18.572,76.197 18.619,76.371 18.651,76.529C18.935,77.999 18.841,79.659 18.92,81.162C18.999,82.822 19.094,84.482 19.173,86.126C19.457,91.629 19.109,97.195 19.441,102.681C19.52,103.899 19.979,105.101 20.09,106.334C20.216,107.71 20.185,109.101 20.121,110.492Z" style="fill-opacity:0.28;fill-rule:nonzero;"/>
    <path d="M9.401,67.184C9.369,67.168 9.338,67.168 9.306,67.168C8.816,67.042 8.357,66.852 7.883,66.694C7.567,66.599 6.871,66.314 6.634,66.615C6.602,66.646 6.587,66.678 6.571,66.725C6.555,66.757 6.555,66.789 6.555,66.82C6.381,68.275 6.571,69.856 6.476,71.342C6.365,73.335 6.112,75.343 6.096,77.335C6.081,79.485 6.349,81.636 6.65,83.754C7.061,86.601 7.535,89.431 8.089,92.245C8.5,94.333 8.927,96.42 9.195,98.523C9.322,99.566 9.417,100.626 9.433,101.669C9.448,102.586 9.259,103.503 9.195,104.42C8.99,108.215 9.243,112.01 9.812,115.757C10.097,117.671 10.476,119.568 10.903,121.466C11.235,122.936 11.077,124.486 12.722,125.245C11.631,121.228 10.982,117.117 10.571,112.975C10.429,111.52 10.287,110.271 10.634,108.879C11.03,107.314 11.219,105.733 11.71,104.199C11.836,103.772 11.994,103.329 12.295,102.997C12.627,102.634 13.101,102.444 13.528,102.191C14.081,101.875 14.919,100.973 14.508,100.278C13.971,100.768 13.37,101.274 12.642,101.306C10.982,101.369 10.982,99.629 10.808,98.475C10.571,96.799 10.35,95.107 10.144,93.431C9.733,90.063 9.369,86.68 9.006,83.296C8.721,80.703 8.452,78.094 8.421,75.485C8.405,73.841 8.484,72.196 8.674,70.568C8.689,70.425 8.721,70.267 8.832,70.172C8.958,70.077 9.132,70.125 9.275,70.172C9.907,70.362 10.54,70.536 11.188,70.726C10.54,70.315 9.97,69.793 9.512,69.176C9.733,69.097 9.939,68.955 10.097,68.781C9.907,68.67 9.717,68.544 9.512,68.433C10.492,68.022 10.097,67.627 9.401,67.184Z" style="fill-opacity:0.28;fill-rule:nonzero;"/>
</svg>
