<?xml version="1.0" encoding="UTF-8" standalone="no"?>
<!DOCTYPE svg PUBLIC "-//W3C//DTD SVG 1.1//EN" "http://www.w3.org/Graphics/SVG/1.1/DTD/svg11.dtd">
<svg width="100%" height="100%" viewBox="0 0 39 151" version="1.1" xmlns="http://www.w3.org/2000/svg" xmlns:xlink="http://www.w3.org/1999/xlink" xml:space="preserve" xmlns:serif="http://www.serif.com/" style="fill-rule:evenodd;clip-rule:evenodd;stroke-miterlimit:10;">
    <path d="M10.487,15.27C10.194,17.37 9.999,19.486 9.885,21.602C9.803,22.97 9.364,25.412 10.39,26.503C10.699,26.828 11.106,27.023 11.529,27.203C14.541,28.472 17.878,28.798 21.15,28.717C24.423,28.635 27.662,28.163 30.935,27.87C31.293,27.837 31.7,27.789 31.944,27.528C32.237,27.203 32.188,26.698 32.123,26.258C31.521,22.661 31.114,18.998 30.349,15.416C29.746,12.616 29.437,9.734 28.476,7.032C28.053,5.844 27.581,4.509 26.913,3.337C26.262,2.181 25.416,1.171 24.26,0.569C23.267,0.048 22.111,-0.066 21.004,0.032C20.45,0.081 19.799,0.146 19.278,0.341C18.888,0.488 18.643,0.715 18.171,0.683C17.829,0.65 17.488,0.553 17.129,0.553C16.592,0.536 16.071,0.764 15.632,1.09C13.108,2.946 12.164,5.502 11.48,8.497C10.976,10.727 10.797,13.007 10.487,15.27Z" style="fill-rule:nonzero;"/>
    <path d="M36.795,58.297C36.372,54.113 36.047,49.913 35.607,45.713C35.184,41.789 34.5,38.061 33.523,34.187C33.019,32.217 32.954,29.107 31.374,27.642C30.007,26.389 28.086,26.503 26.393,26.535C25.514,26.552 24.537,26.421 23.755,26.014C22.714,25.461 22.779,24.077 22.714,23.019C22.665,22.237 22.73,21.391 22.828,20.626C22.828,20.561 22.844,20.496 22.86,20.447C22.893,20.365 22.958,20.3 23.007,20.235C24.065,19.047 25.042,17.679 25.563,16.165C25.937,15.074 26.018,13.918 26.181,12.779C26.328,11.721 26.311,10.728 26.23,9.653C26.181,9.051 26.035,8.432 26.035,7.83C26.035,6.934 25.79,5.876 25.107,5.225C24.342,4.509 23.3,4.102 22.258,3.988C20.858,3.825 19.441,4.102 18.058,4.395C17.39,4.525 16.69,4.688 16.218,5.16C15.925,5.453 15.746,5.86 15.599,6.251C15.323,6.983 15.095,7.732 14.932,8.497C14.834,8.969 14.704,9.442 14.655,9.914C14.606,10.386 14.704,10.907 14.753,11.379C14.899,12.828 14.981,14.277 15.339,15.677C15.713,17.223 16.527,18.591 17.602,19.763C17.667,19.844 17.748,19.926 17.781,20.023C17.813,20.121 17.813,20.235 17.813,20.333C17.781,21.83 18.155,23.556 17.374,24.956C17.048,25.542 16.544,26.031 15.892,26.193C13.532,26.828 11.253,25.917 9.12,27.3C6.792,28.814 6.385,30.833 5.815,33.405C5.229,36.043 4.806,38.696 4.431,41.366C3.715,46.543 3.243,51.736 2.299,56.881C1.875,59.176 1.859,61.244 1.875,63.555L1.875,65.265C1.843,67.463 1.713,69.66 1.517,71.858C1.241,74.74 1.241,77.637 0.736,80.486C0.703,80.698 0.654,80.926 0.72,81.138C0.915,81.854 1.875,82.928 2.315,83.596C2.689,84.165 3.194,84.654 3.715,85.11C4.187,85.533 4.545,85.989 5.066,86.379C5.148,86.428 5.213,86.494 5.278,86.559C5.327,86.624 5.376,86.721 5.408,86.803C6.108,88.577 6.824,90.368 7.508,92.159C7.834,93.005 8.127,93.836 8.355,94.699C8.566,95.496 9.006,96.538 9.006,97.368C9.104,97.743 9.169,98.199 9.332,98.54C9.446,98.801 9.625,98.899 9.787,99.11C10.211,99.647 10.162,100.38 10.259,101.015C10.374,101.845 10.439,102.659 10.487,103.49C10.683,106.811 10.439,110.115 10.243,113.436C10.146,115.13 10.064,116.823 10.048,118.516C10.032,121.788 10.911,124.897 11.513,128.104C12.343,132.516 13.988,137.758 13.109,142.252C12.848,143.57 11.953,144.401 11.269,145.508C11.09,145.801 10.911,146.094 10.829,146.419C10.748,146.745 10.797,147.136 11.025,147.38C11.155,147.526 11.334,147.624 11.497,147.722C12.083,148.112 12.506,148.747 13.19,148.926C13.483,149.008 13.792,148.975 14.069,149.089C14.411,149.236 14.737,149.577 15.095,149.464C15.241,149.724 15.42,150.017 15.713,150.098C16.006,150.18 16.316,150.05 16.527,149.838C16.739,149.626 16.853,149.333 16.967,149.057C17.406,147.998 17.748,146.826 17.634,145.67C17.537,144.661 17.52,143.375 17.83,142.398C17.927,142.089 18.074,141.796 18.139,141.47C18.383,140.412 17.699,139.37 17.39,138.393C17.016,137.189 16.755,135.968 16.576,134.714C16.218,132.288 16.169,129.814 16.332,127.372C16.592,123.188 17.813,119.069 17.797,114.869C17.797,113.681 17.569,112.46 17.537,111.255C17.504,110.197 17.699,109.155 17.927,108.113C18.155,107.071 18.074,106.127 18.155,105.069C18.448,101.373 18.432,97.661 18.383,93.95C18.351,91.524 18.562,89.115 18.774,86.705C18.985,84.296 18.985,81.87 19.213,79.477C19.213,79.444 19.213,79.412 19.246,79.396C19.262,79.379 19.295,79.379 19.327,79.379C19.62,79.396 20.255,79.575 20.516,79.428C20.711,80.698 20.727,82.017 20.727,83.319C20.727,84.296 20.679,85.272 20.679,86.249C20.679,87.438 20.662,88.626 20.679,89.815C20.727,92.55 20.972,95.285 21.151,98.019C21.265,99.973 21.102,101.943 21.102,103.897C21.102,105.655 21.965,107.413 21.688,109.139C21.053,113.127 21.558,117.165 22.176,121.12C22.779,125.028 23.072,128.821 22.86,132.777C22.746,134.975 22.714,137.303 21.802,139.321C21.655,139.663 21.476,139.989 21.427,140.347C21.379,140.738 21.46,141.128 21.525,141.519C21.883,143.407 22.03,145.312 21.965,147.233C21.948,147.852 21.9,148.503 22.111,149.089C22.779,150.978 25.025,149.268 26.148,148.601C26.279,148.519 26.409,148.454 26.523,148.373C26.751,148.243 26.962,148.096 27.19,147.966C27.907,147.526 28.623,147.249 28.33,146.208C28.183,145.67 27.809,145.231 27.484,144.775C26.067,142.691 25.888,139.989 26.246,137.498C26.604,135.023 27.288,132.598 27.858,130.156C29.323,123.888 28.835,117.49 28.607,111.125C28.558,109.79 28.509,108.455 28.688,107.136C28.786,106.452 28.932,105.785 29.03,105.101C29.242,103.506 29.128,101.878 29.388,100.282C29.519,99.485 29.73,98.72 29.942,97.954C30.105,97.352 30.153,96.75 30.3,96.147C30.691,94.568 31.26,93.038 31.7,91.475C32.205,89.815 32.595,88.056 33.214,86.445C33.947,86.998 34.728,85.973 35.2,85.533C35.916,84.849 36.6,84.117 37.235,83.352C37.544,82.977 37.854,82.586 38.017,82.114C38.277,81.365 38.098,80.584 38.033,79.819C37.968,78.989 38.082,78.191 38.065,77.377C37.984,73.747 37.854,70.018 37.561,66.388C37.349,63.718 37.072,60.999 36.795,58.297ZM11.334,53.543C11.285,53.706 11.22,53.869 11.155,54.048C10.39,55.806 9.234,57.353 8.371,59.078C7.769,60.299 7.036,61.455 6.906,62.839C7.052,61.276 7.166,59.762 7.118,58.183C7.085,57.222 6.938,56.262 7.02,55.285C7.101,54.357 7.297,53.429 7.525,52.518C7.85,51.183 8.225,49.864 8.599,48.545C8.908,47.438 9.478,46.331 9.625,45.208C9.804,45.908 10.162,46.559 10.65,47.064C10.732,47.145 10.797,47.211 10.862,47.308C10.96,47.455 10.992,47.634 11.008,47.797C11.139,48.725 11.204,49.653 11.301,50.58C11.432,51.72 11.611,52.55 11.334,53.543ZM32.172,57.418C32.156,58.834 32.107,60.267 32.074,61.683C31.912,61.537 31.847,61.309 31.798,61.097C31.619,60.381 31.391,59.681 31.114,59.013C30.886,58.46 30.512,58.036 30.251,57.499C29.632,56.213 28.965,54.943 28.249,53.722C27.581,52.599 27.484,51.834 27.825,50.58C28.053,49.734 28.053,48.985 28.33,48.171C28.428,47.862 28.46,47.536 28.59,47.243C28.705,46.999 28.867,46.804 29.03,46.592C29.584,45.859 29.974,45.013 30.17,44.134C30.088,44.703 30.414,45.599 30.528,46.169C30.642,46.836 30.674,47.471 30.837,48.138C31,48.887 31.163,49.636 31.309,50.385C31.456,51.101 31.586,51.818 31.716,52.534C32.139,53.869 32.188,55.578 32.188,56.962C32.172,57.125 32.172,57.271 32.172,57.418Z" style="fill:rgb(226,168,138);fill-rule:nonzero;"/>
    <path d="M34.777,85.225C34.972,84.916 36.079,83.89 36.079,83.597C36.779,82.881 37.658,82.034 37.186,80.927C37.039,80.601 36.779,80.357 36.633,80.015C36.551,79.82 36.144,78.404 36.274,78.273C35.688,78.843 35.623,79.771 35.151,80.422C35.102,80.488 35.053,80.536 35.037,80.618C35.005,80.732 35.021,80.846 35.037,80.96C35.135,81.953 34.842,82.978 34.37,83.841C33.93,84.639 33.377,85.437 33.295,86.348C33.279,86.478 33.279,86.625 33.377,86.723C33.507,86.885 33.751,86.82 33.946,86.706C34.174,86.202 34.484,85.697 34.777,85.225Z" style="fill:rgb(174,106,83);fill-opacity:0.71;fill-rule:nonzero;"/>
    <path d="M8.403,59.161C7.899,59.991 7.622,60.886 7.166,61.749C6.157,63.67 5.327,65.672 4.659,67.724C3.731,70.573 3.129,73.796 4.415,76.499C4.708,77.117 5.099,77.703 5.229,78.371C5.375,79.12 5.196,79.917 5.31,80.682C5.424,81.366 5.766,82.082 5.489,82.717C5.213,82.669 4.936,82.62 4.659,82.571C4.61,84.492 5.164,86.364 5.913,88.138C6.678,89.929 7.801,91.622 8.387,93.478C9.022,95.497 9.69,97.565 10.064,99.648C11.204,105.932 10.113,112.232 10.08,118.533C10.064,121.805 10.943,124.914 11.545,128.122C12.376,132.533 14.02,137.775 13.141,142.269C12.88,143.587 11.985,144.418 11.301,145.525C11.122,145.818 10.943,146.111 10.862,146.436C10.78,146.762 10.829,147.153 11.057,147.397C11.155,147.494 11.269,147.576 11.383,147.641C11.35,147.201 11.415,146.762 11.545,146.339C11.871,145.313 12.555,144.45 13.125,143.555C13.532,142.92 13.89,142.252 14.199,141.552C14.427,141.031 14.639,140.494 14.704,139.924C14.769,139.436 14.704,138.931 14.655,138.427C14.183,134.129 13.206,129.912 12.425,125.663C11.708,121.74 10.797,117.279 11.545,113.307C11.806,111.939 12.425,110.588 13.515,109.725C13.873,109.432 14.297,109.204 14.639,108.895C15.322,108.293 15.746,107.397 15.778,106.486C14.704,107.511 12.718,107.674 12.066,106.079C11.822,105.476 11.839,104.809 11.839,104.158C11.855,101.423 11.676,98.671 11.301,95.953C10.943,93.381 10.031,90.89 9.478,88.35C8.664,84.655 8.062,80.91 7.882,77.133C7.785,75.245 7.752,73.503 8.127,71.615C8.208,71.224 8.289,70.817 8.517,70.475C8.745,70.133 9.12,69.873 9.51,69.905C9.787,69.922 10.031,70.068 10.259,70.231C12.327,71.729 13.841,73.877 14.964,76.157C15.55,77.378 16.381,78.713 16.657,80.048C16.82,80.845 16.934,81.675 16.983,82.489C17.129,84.508 16.999,86.559 16.885,88.529C16.625,92.99 16.592,97.451 16.771,101.911C16.836,103.767 16.95,105.672 16.348,107.43C16.185,107.918 15.957,108.39 15.876,108.895C15.697,109.839 15.99,110.8 16.201,111.744C17.325,116.628 16.315,121.593 16.071,126.494C15.957,128.838 16.087,131.215 16.413,133.526C16.429,133.673 16.462,133.819 16.495,133.966C16.234,131.784 16.201,129.57 16.348,127.356C16.608,123.172 17.829,119.054 17.813,114.854C17.813,113.665 17.585,112.444 17.553,111.239C17.52,110.181 17.715,109.139 17.943,108.097C18.171,107.056 18.09,106.111 18.171,105.053C18.464,101.358 18.448,97.646 18.399,93.934C18.367,91.508 18.578,89.099 18.79,86.69C19.002,84.28 19.002,81.855 19.23,79.461C19.23,79.429 19.23,79.396 19.262,79.38C19.278,79.364 19.311,79.364 19.343,79.364C19.636,79.38 20.271,79.559 20.532,79.412C20.727,80.682 20.744,82.001 20.744,83.303C20.744,84.28 20.695,85.257 20.695,86.234C20.695,87.422 20.678,88.611 20.695,89.799C20.744,92.534 20.988,95.269 21.167,98.004C21.281,99.958 21.118,101.927 21.118,103.881C21.118,105.639 21.981,107.397 21.704,109.123C21.069,113.112 21.574,117.149 22.192,121.105C22.795,125.012 23.088,128.805 22.876,132.761C22.762,134.959 22.73,137.287 21.818,139.306C21.671,139.648 21.492,139.973 21.444,140.331C21.395,140.722 21.476,141.113 21.541,141.503C21.899,143.392 22.046,145.297 21.981,147.218C21.965,147.836 21.916,148.487 22.127,149.074C22.225,149.367 22.371,149.562 22.534,149.692C22.371,147.494 21.574,145.199 22.665,143.327C23.137,142.513 23.951,141.862 24.13,140.934C24.227,140.429 24.13,139.924 24.065,139.403C23.837,137.417 24.227,135.399 24.602,133.429C24.944,131.638 25.269,129.815 25.302,127.991C25.334,125.973 25.025,123.986 24.862,121.968C24.618,118.923 23.462,111.012 28.069,110.36C28.297,111.174 28.509,111.988 28.704,112.802C28.688,112.232 28.655,111.646 28.639,111.077C28.59,109.742 28.542,108.407 28.721,107.088C28.818,106.404 28.965,105.737 29.062,105.053C29.274,103.458 29.16,101.83 29.421,100.234C29.583,99.225 29.876,98.248 30.153,97.255C30.495,96.018 30.739,94.764 30.967,93.511C31.016,93.006 31.049,92.501 31.097,92.013C30.43,96.376 28.167,100.104 27.744,104.581C27.679,105.248 27.646,105.949 27.304,106.518C26.962,107.104 26.23,107.511 25.627,107.235C25.041,106.974 24.846,106.242 24.716,105.607C23.755,100.723 23.902,95.53 23.918,90.548C23.934,85.615 22.941,80.455 25.481,75.896C26.067,74.838 26.816,73.894 27.434,72.836C27.662,72.445 27.793,71.94 28.053,71.566C28.135,71.452 28.9,70.735 28.9,70.735C28.411,70.377 27.76,70.41 27.174,70.556C26.588,70.703 26.051,70.98 25.465,71.077C25.334,71.094 25.155,71.094 25.106,70.963C25.074,70.882 25.123,70.784 25.155,70.719C26.214,68.766 28.102,67.431 29.925,66.161C29.437,66.193 26.425,66.617 26.539,65.819C26.816,63.898 26.946,61.961 26.914,60.023C26.279,62.677 24.846,65.119 22.827,66.959C22.274,67.463 21.346,67.756 20.597,67.61C20.483,67.594 20.369,67.545 20.288,67.463C20.206,67.382 20.174,67.252 20.157,67.138C19.995,66.438 19.832,65.754 19.669,65.054C19.295,65.819 19.392,66.845 18.757,67.414C18.253,67.887 17.26,67.772 16.625,67.707C15.469,67.594 14.443,66.959 13.45,66.356C13.613,66.633 13.45,67.024 13.19,67.203C12.929,67.382 12.571,67.398 12.262,67.349C11.529,67.219 11.041,66.682 10.373,66.389C9.706,66.096 9.071,65.933 8.664,65.282C8.176,64.5 7.703,63.589 7.785,62.644C7.817,62.221 7.964,61.814 8.11,61.407C8.924,59.307 10.031,57.321 11.252,55.416C11.79,54.586 12.343,53.658 12.587,52.698C12.864,51.639 12.311,50.337 12.132,49.295C12.066,48.937 12.018,48.53 12.18,48.221C12.473,47.683 13.206,47.618 13.808,47.635C15.534,47.651 17.276,47.39 18.969,47.553C19.132,47.569 19.295,47.602 19.392,47.716C19.457,47.797 19.474,47.895 19.49,47.993C19.653,49.002 19.816,49.995 19.978,51.004C20.109,50.109 20.255,49.23 20.385,48.335C20.402,48.204 20.434,48.074 20.516,47.993C20.613,47.911 20.744,47.895 20.874,47.879C23.023,47.716 24.976,48.107 27.076,48.481C27.174,48.497 27.272,48.514 27.321,48.595C27.418,48.709 27.353,48.872 27.288,49.002C27.06,49.507 26.653,49.914 26.523,50.451C26.327,51.2 26.49,52.095 26.572,52.844C26.799,55.205 26.865,57.565 26.767,59.942C27.532,58.754 27.337,57.126 28.135,55.97C28.802,57.093 29.421,58.233 29.974,59.405C30.593,60.707 31.163,62.075 31.293,63.507C31.309,63.784 31.325,64.061 31.228,64.321C31.146,64.565 30.967,64.777 30.804,64.956C30.104,65.705 29.176,66.275 28.737,67.203C28.704,67.268 28.672,67.349 28.688,67.431C28.704,67.512 28.769,67.561 28.834,67.61C29.339,67.968 30.023,68.082 30.609,67.903C31.276,67.691 31.683,67.089 32.156,66.633C32.725,66.079 33.084,65.428 33.084,64.614C33.084,63.621 32.676,62.693 32.221,61.814C31.472,60.365 31.13,58.77 30.316,57.305C29.518,55.856 28.574,54.472 27.972,52.909C27.581,51.9 27.728,50.809 28.004,49.8C28.281,48.774 28.346,47.781 28.753,46.788C29.095,45.99 29.486,45.209 29.665,44.362C29.697,44.183 29.762,43.955 29.958,43.906C30.088,43.874 30.804,48.302 30.869,48.595C31.276,50.435 31.732,52.258 31.944,54.13C32.286,57.24 31.651,60.496 32.4,63.54C32.742,64.907 33.36,66.031 33.751,67.382C34.435,69.726 35.981,73.454 34.695,75.798C33.898,77.247 34.337,78.761 33.783,80.243C33.735,80.389 33.67,80.52 33.621,80.666C33.588,80.91 33.556,81.155 33.523,81.399C33.556,81.529 33.637,81.643 33.735,81.724C35.167,77.54 37.137,73.34 35.884,68.928C35.281,66.861 34.174,65.07 33.898,62.938C33.588,60.463 33.035,58.102 32.953,55.595C32.823,51.672 33.198,47.911 32.253,44.053C31.488,40.895 30.137,37.964 29.16,34.888C28.314,32.169 28.135,29.238 28.639,26.438C27.939,26.373 27.223,26.422 26.376,26.438C25.497,26.455 24.52,26.324 23.739,25.917C23.023,25.543 22.827,24.778 22.762,23.98C22.746,23.98 22.73,23.98 22.73,23.964C22.339,24.501 22.518,25.299 22.974,25.787C23.43,26.259 24.097,26.487 24.748,26.65C25.416,26.813 26.148,26.976 26.539,27.529C26.783,27.871 26.848,28.327 26.897,28.75C27.028,30.069 26.881,31.371 26.914,32.69C26.946,33.699 26.93,34.546 26.669,35.555C26.507,36.174 26.311,36.792 26.344,37.427C26.36,37.753 26.441,38.062 26.425,38.388C26.392,39.137 25.872,39.771 25.351,40.292C24.423,41.204 23.348,41.985 22.192,42.572C21.541,42.913 21.004,42.588 20.678,42.002C20.418,41.53 19.816,40.325 19.897,39.788C19.718,40.862 19.343,42.099 18.676,42.962C18.448,43.255 18.416,43.483 17.943,43.369C16.283,42.93 14.687,42.197 13.401,41.058C12.115,39.934 11.155,38.388 10.911,36.695C10.666,35.099 11.073,33.471 11.204,31.859C11.318,30.492 11.236,29.092 11.643,27.79C11.708,27.594 11.79,27.383 11.952,27.252C12.115,27.122 12.311,27.073 12.522,27.024C13.32,26.845 13.987,26.715 14.785,26.731C15.55,26.748 16.446,26.585 17.113,26.21C17.976,25.706 18.481,24.81 19.067,24.045C19.685,23.215 20.548,22.678 21.167,21.847C21.346,21.603 21.492,21.343 21.606,21.066C21.639,21.001 21.655,20.903 21.606,20.854C21.574,20.805 21.509,20.805 21.444,20.805C20.076,20.805 19.181,20.203 18.285,19.161C17.667,18.445 17.243,17.598 16.885,16.736C16.153,14.977 15.697,13.024 15.86,11.103C15.876,10.826 15.925,10.549 16.087,10.338C16.25,10.126 16.527,10.012 16.788,9.947C18.481,9.459 20.369,9.621 21.932,8.775C22.209,8.628 22.502,8.449 22.795,8.498C22.958,8.531 23.088,8.612 23.234,8.677C23.772,8.921 24.439,8.872 24.927,8.531C25.041,8.449 25.155,8.368 25.286,8.352C25.546,8.335 25.709,8.645 25.807,8.889C25.969,9.345 26.116,9.784 26.279,10.24C26.262,10.012 26.246,9.768 26.23,9.54C26.181,8.938 26.034,8.319 26.034,7.717C26.034,6.821 25.79,5.763 25.106,5.112C24.341,4.396 23.299,3.989 22.258,3.875C20.906,3.712 19.555,3.972 18.22,4.249C17.715,4.509 17.243,4.786 16.771,5.096C16.25,5.454 15.843,5.893 15.518,6.365C15.274,7.017 15.078,7.684 14.932,8.368C14.834,8.84 14.704,9.312 14.655,9.784C14.606,10.256 14.704,10.777 14.753,11.249C14.899,12.698 14.98,14.147 15.339,15.547C15.713,17.094 16.527,18.461 17.602,19.633C17.667,19.715 17.748,19.796 17.781,19.894C17.813,19.991 17.813,20.106 17.813,20.203C17.781,21.701 18.155,23.427 17.374,24.827C17.048,25.413 16.543,25.901 15.892,26.064C13.906,26.601 11.969,26.031 10.129,26.683C10.145,26.943 10.129,27.22 10.113,27.497C9.722,31.501 7.622,35.343 7.459,39.267C7.378,41.22 7.313,43.125 7.345,45.046C7.41,49.002 5.799,52.812 5.457,56.719C5.196,59.698 5.147,62.579 4.708,65.559C4.464,67.284 4.317,69.075 3.927,70.768C3.617,72.152 2.64,73.682 3.373,75.098C4.22,76.759 4.985,78.306 5.278,79.999C5.327,79.689 5.375,79.38 5.424,79.071C5.62,77.85 4.887,77.41 4.529,76.352C3.568,73.552 4.366,70.638 5.066,67.887C5.636,65.672 7.003,63.67 7.101,61.342C7.215,58.9 6.775,56.442 7.296,54.016C7.606,52.6 7.948,51.2 8.322,49.8C8.517,49.035 8.631,48.253 8.99,47.553C9.413,46.739 9.576,45.762 9.657,44.851C10.894,47.016 11.855,49.751 11.513,52.274C11.138,54.863 9.657,57.077 8.403,59.161Z" style="fill:rgb(174,106,83);fill-opacity:0.71;fill-rule:nonzero;"/>
    <path d="M5.327,82.066C5.311,82.343 5.278,82.62 5.213,82.913C5.213,82.913 5.229,82.913 5.229,82.897C5.457,82.685 5.408,82.359 5.327,82.066Z" style="fill:rgb(174,106,83);fill-opacity:0.71;fill-rule:nonzero;"/>
    <path d="M4.562,82.994C4.692,83.01 4.822,83.026 4.952,82.994C4.399,81.691 3.927,80.373 3.536,79.022C2.999,79.787 3.031,80.812 3.308,81.708C3.585,82.603 4.073,83.401 4.383,84.28C4.594,84.899 4.724,85.533 4.822,86.168C4.969,86.266 5.099,86.347 5.229,86.364C6.124,86.494 4.676,83.319 4.562,82.994Z" style="fill:rgb(174,106,83);fill-opacity:0.71;fill-rule:nonzero;"/>
    <path d="M19.132,99.712C19.278,98.524 19.441,97.336 19.506,96.147C19.75,91.752 20.076,87.324 19.718,82.912C19.62,81.723 19.555,80.584 19.067,79.493C19.604,79.721 20.222,79.737 20.76,79.542C20.613,79.949 20.271,80.519 20.271,80.958C19.587,83.53 19.783,86.363 19.75,89.017C19.734,90.107 19.734,91.198 19.718,92.272C19.718,93.054 19.636,93.835 19.653,94.601C19.685,95.903 19.864,97.254 19.962,98.573C20.108,100.575 20.45,102.578 20.548,104.58C20.662,106.761 20.369,108.927 20.369,111.092C20.369,114.364 21.004,117.587 21.606,120.795C21.916,122.439 22.209,124.067 22.42,125.727C22.55,126.802 22.323,128.821 23.495,129.374C24.113,129.667 24.927,129.634 25.578,129.602C26.392,129.553 27.19,129.455 27.988,129.293C28.346,129.228 28.802,125.646 28.851,125.206C29.062,123.334 29.16,121.446 29.241,119.557C29.404,115.878 29.893,112.443 29.469,108.731C29.372,107.803 29.144,106.875 29.193,105.964C29.241,105.02 29.486,104.059 29.648,103.147C30.055,100.998 30.576,98.866 31.211,96.782C31.309,96.473 31.407,96.147 31.504,95.838C31.944,94.438 32.367,93.038 32.774,91.638C33.002,90.872 33.214,90.091 33.409,89.31C33.637,88.431 33.865,87.405 33.897,86.477C32.856,86.542 34.37,83.921 34.549,83.563C34.809,83.058 34.907,82.488 35.037,81.935C35.151,81.512 35.2,80.584 35.477,80.242C35.184,80.6 34.483,81.886 33.881,81.626C33.442,81.43 33.621,80.828 33.735,80.502C34.076,79.493 34.142,78.321 34.19,77.263C34.223,76.611 34.337,76.253 34.76,75.797C36.03,74.446 35.297,71.76 35.07,70.132C34.777,68.081 34.304,66.03 33.409,64.157C33.051,63.392 32.562,62.709 32.188,61.943C32.367,62.513 32.172,63.132 31.879,63.653C31.162,64.955 30.495,65.932 29.095,66.551C28.167,66.958 27.223,67.283 26.246,67.56C24.325,68.113 22.323,68.423 20.32,68.488C16.853,68.602 13.385,68.211 10.113,66.958C9.348,66.665 8.436,66.225 7.882,65.606C7.036,64.646 6.775,63.376 6.922,62.122C6.173,64.89 5.131,67.56 4.61,70.393C4.252,72.281 3.65,74.772 4.464,76.611C4.692,77.132 5.05,77.605 5.212,78.158C5.392,78.793 5.31,79.46 5.326,80.112C5.343,80.632 5.408,81.137 5.538,81.642C5.636,82.033 5.75,82.521 5.408,82.749C5.212,82.879 4.919,82.83 4.724,82.684C4.529,82.537 4.398,82.326 4.285,82.114C4.529,82.798 4.724,83.498 4.903,84.198C5.033,84.735 5.392,85.321 5.343,85.891C5.326,86.151 5.05,86.249 5.033,86.461C5.001,86.803 5.131,87.193 5.18,87.519C5.457,89.228 5.847,90.921 6.287,92.598C7.15,95.903 8.208,99.143 9.136,102.431C9.575,103.978 9.982,105.573 9.885,107.168C9.836,108.194 9.592,109.187 9.461,110.196C8.745,116.383 10.243,122.162 11.366,128.153C11.464,128.658 11.562,129.179 11.676,129.7C12.88,130.302 14.427,130.058 15.68,129.651C15.859,129.586 16.022,129.553 16.185,129.472C16.022,128.69 16.527,127.616 16.69,126.834C16.901,125.874 17.097,124.913 17.26,123.953C17.585,122.016 17.813,120.078 17.927,118.108C18.041,116.187 18.074,114.25 17.992,112.329C17.959,111.369 17.878,110.408 17.813,109.448C17.715,108.031 18.318,106.403 18.464,104.987C18.708,103.245 18.92,101.487 19.132,99.712Z" style="fill:rgb(227,67,67);fill-rule:nonzero;stroke:rgb(36,0,0);stroke-width:0.16px;"/>
    <path d="M14.573,9.49C14.687,11.607 14.785,13.593 15.306,15.677C15.68,17.223 16.494,18.591 17.569,19.763C17.634,19.844 17.715,19.926 17.748,20.023C17.78,20.121 17.78,20.235 17.78,20.333C17.748,21.83 18.122,23.556 17.341,24.956C17.015,25.542 16.511,26.03 15.859,26.193C13.499,26.828 11.22,25.917 9.087,27.3C7.964,28.033 7.166,28.977 6.775,30.263C5.717,33.698 4.952,37.231 4.447,40.78C3.698,46.136 3.259,51.541 2.298,56.881C1.875,59.176 1.859,61.243 1.875,63.555C1.891,66.323 1.761,69.09 1.501,71.858C1.224,74.739 1.224,77.637 0.719,80.486C0.687,80.698 0.638,80.926 0.703,81.137C0.931,82.033 1.81,83.124 2.445,83.791C2.884,84.263 3.308,84.735 3.764,85.191C4.057,85.484 4.708,86.314 5.164,86.314C5.017,86.477 5.343,87.698 5.375,87.91C5.945,92.012 7.068,96.18 8.452,100.087C9.152,102.073 9.852,104.71 9.901,106.827C9.917,107.852 9.722,108.862 9.592,109.871C9.217,112.753 9.575,115.39 9.641,118.255C9.706,121.527 10.878,124.914 11.496,128.137C12.327,132.549 13.971,137.791 13.092,142.284C12.831,143.603 11.936,144.433 11.252,145.54C11.073,145.833 10.894,146.126 10.813,146.452C10.731,146.777 10.78,147.168 11.008,147.412C11.138,147.559 11.317,147.656 11.48,147.754C12.066,148.145 12.49,148.78 13.173,148.959C13.466,149.04 13.776,149.008 14.052,149.122C14.394,149.268 14.72,149.61 15.078,149.496C15.225,149.756 15.404,150.049 15.697,150.131C15.99,150.212 16.299,150.082 16.511,149.87C16.722,149.659 16.836,149.366 16.95,149.089C17.39,148.031 17.732,146.859 17.618,145.703C17.52,144.693 17.504,143.407 17.813,142.431C17.911,142.121 18.057,141.828 18.122,141.503C18.366,140.444 17.683,139.403 17.373,138.426C16.999,137.221 16.738,136 16.56,134.747C16.315,133.167 16.218,131.556 16.218,129.96C16.218,128.446 16.706,126.997 16.983,125.516C17.455,122.944 17.78,120.339 18.008,117.734C18.35,113.925 17.585,110.018 18.106,106.257C18.366,104.352 18.676,102.464 18.969,100.575C19.262,98.736 19.62,96.864 19.669,95.008C19.669,98.15 20.239,101.243 20.434,104.385C20.564,106.713 20.467,109.041 20.385,111.369C20.255,114.918 21.199,118.19 21.769,121.641C22.388,125.337 23.006,129.065 22.811,132.826C22.697,135.023 22.664,137.351 21.753,139.37C21.606,139.712 21.427,140.037 21.378,140.396C21.329,140.786 21.411,141.177 21.476,141.568C21.834,143.456 21.981,145.361 21.916,147.282C21.899,147.901 21.85,148.552 22.062,149.138C22.73,151.026 24.976,149.317 26.099,148.649C26.23,148.568 26.36,148.503 26.474,148.421C26.702,148.291 26.913,148.145 27.141,148.014C27.858,147.575 28.574,147.298 28.281,146.256C28.134,145.719 27.76,145.279 27.434,144.824C26.018,142.74 25.839,140.037 26.197,137.547C26.555,135.072 27.239,132.646 27.809,130.204C28.362,127.828 28.639,125.386 28.834,122.944C29.014,120.681 29.355,118.483 29.453,116.22C29.534,114.429 29.6,112.622 29.6,110.832C29.6,109.236 29.16,107.706 29.225,106.094C29.355,102.643 30.511,99.338 31.52,96.082C32.025,94.438 32.497,92.777 32.921,91.117C33.132,90.287 33.344,89.456 33.539,88.61C33.637,88.203 33.735,87.796 33.816,87.389C33.881,87.079 33.849,86.689 34.06,86.428C34.158,86.314 34.288,86.266 34.418,86.184C34.614,86.07 34.76,85.907 34.923,85.745C35.363,85.419 35.737,84.898 36.128,84.491C36.486,84.117 36.877,83.807 37.202,83.417C37.512,83.042 37.821,82.651 37.984,82.179C38.244,81.43 38.065,80.649 38,79.884C37.935,79.054 38.049,78.256 38.032,77.442C37.951,73.812 37.821,70.083 37.528,66.453C37.3,63.734 37.023,61.016 36.746,58.297C36.405,54.96 35.851,51.687 35.672,48.366C35.444,44.215 34.825,39.803 33.946,35.717C33.442,33.389 32.937,28.896 30.935,27.447C29.388,26.324 28.118,26.519 26.344,26.551C25.465,26.568 24.488,26.437 23.706,26.03C22.664,25.477 22.73,24.093 22.664,23.035C22.616,22.254 22.681,21.407 22.778,20.642C22.778,20.577 22.795,20.512 22.811,20.463C22.843,20.381 22.909,20.316 22.957,20.251C24.016,19.063 24.992,17.695 25.513,16.181C26.23,14.097 26.441,11.948 26.36,9.751" style="fill:none;fill-rule:nonzero;stroke:rgb(31,0,0);stroke-width:0.16px;"/>
    <path d="M24.862,8.496C25.367,8.464 26.865,8.643 26.767,8.236C26.393,6.868 26.132,5.647 25.334,4.41C24.748,3.547 24.032,2.717 23.104,2.196C22.29,1.757 21.232,1.643 20.32,1.545C18.399,1.35 16.413,2.017 15.176,3.547C14.492,4.394 14.069,5.306 13.857,6.38C13.694,7.243 13.597,8.122 13.255,8.936C14.606,9.278 16.006,9.196 17.39,9.099C18.383,9.034 19.376,8.952 20.369,8.822C21.037,8.724 21.639,8.561 22.29,8.448C22.323,8.448 22.355,8.431 22.388,8.415C22.469,8.366 22.485,8.268 22.502,8.187C22.665,7.259 22.86,6.429 22.876,5.485C23.153,6.38 23.283,7.324 23.283,8.268C23.283,8.301 23.283,8.334 23.299,8.366C23.332,8.399 23.381,8.399 23.43,8.399L24.081,8.399C24.097,7.666 24.113,6.933 23.951,6.233C24.26,6.966 24.504,7.747 24.667,8.529C24.683,8.513 24.748,8.496 24.862,8.496Z" style="fill-rule:nonzero;"/>
    <path d="M19.457,56.18C19.49,56.961 19.506,57.743 19.522,58.524C19.539,59.305 19.539,60.087 19.539,60.868C19.539,61.65 19.571,62.431 19.62,63.213C19.652,63.603 19.669,63.994 19.718,64.385C19.75,64.775 19.799,65.166 19.831,65.557C19.766,65.166 19.701,64.775 19.636,64.401C19.587,64.01 19.539,63.62 19.49,63.229C19.408,62.447 19.376,61.666 19.359,60.868C19.376,60.087 19.359,59.305 19.376,58.524C19.392,57.743 19.408,56.961 19.457,56.18Z" style="fill:rgb(31,0,0);fill-rule:nonzero;"/>
    <path d="M26.653,59.762C26.588,60.446 26.523,61.113 26.409,61.78C26.311,62.448 26.165,63.115 25.969,63.783C25.774,64.434 25.53,65.085 25.204,65.688L24.944,66.127C24.846,66.274 24.765,66.42 24.667,66.55L24.358,66.957C24.244,67.088 24.13,67.218 24.016,67.332C24.439,66.795 24.797,66.225 25.09,65.622C25.383,65.02 25.627,64.385 25.806,63.734C26.002,63.083 26.148,62.432 26.279,61.764C26.409,61.097 26.523,60.429 26.653,59.762Z" style="fill:rgb(31,0,0);fill-rule:nonzero;"/>
    <path d="M12.326,64.207C12.538,64.777 12.831,65.314 13.156,65.819C13.482,66.323 13.857,66.812 14.166,67.349C13.759,66.893 13.368,66.421 13.026,65.9C12.863,65.64 12.701,65.363 12.587,65.086C12.456,64.809 12.375,64.516 12.326,64.207Z" style="fill:rgb(31,0,0);fill-rule:nonzero;"/>
    <path d="M3.649,79.672C3.845,79.916 3.975,80.209 4.04,80.518C4.105,80.828 4.138,81.137 4.17,81.446C4.203,81.756 4.252,82.049 4.349,82.326C4.447,82.602 4.61,82.863 4.838,83.091C4.577,82.912 4.366,82.667 4.235,82.374C4.105,82.081 4.04,81.772 4.008,81.463C3.975,81.153 3.959,80.844 3.91,80.551C3.877,80.242 3.796,79.949 3.649,79.672Z" style="fill:rgb(31,0,0);fill-rule:nonzero;"/>
    <path d="M36.373,78.533C36.161,78.777 35.966,79.022 35.852,79.298C35.786,79.445 35.738,79.591 35.705,79.738C35.656,79.884 35.607,80.047 35.526,80.194C35.233,80.78 34.793,81.252 34.321,81.675C34.712,81.171 35.119,80.682 35.38,80.129C35.445,79.982 35.51,79.852 35.559,79.705C35.607,79.559 35.673,79.396 35.738,79.25C35.884,78.957 36.128,78.729 36.373,78.533Z" style="fill:rgb(31,0,0);fill-rule:nonzero;"/>
    <path d="M28.574,106.762C28.232,107.022 27.988,107.38 27.727,107.722C27.597,107.901 27.45,108.064 27.288,108.211C27.125,108.357 26.913,108.471 26.701,108.552C26.49,108.634 26.246,108.65 26.018,108.601C25.79,108.552 25.594,108.422 25.415,108.308L24.878,107.95C24.699,107.82 24.52,107.706 24.341,107.576C24.536,107.673 24.715,107.787 24.911,107.885L25.48,108.211C25.676,108.325 25.839,108.422 26.05,108.455C26.246,108.504 26.457,108.471 26.653,108.406C27.043,108.276 27.353,107.983 27.629,107.657C27.776,107.494 27.906,107.332 28.069,107.169C28.199,107.006 28.378,106.859 28.574,106.762Z" style="fill:rgb(31,0,0);fill-rule:nonzero;"/>
    <path d="M15.323,107.137C14.932,107.332 14.574,107.576 14.248,107.837L13.988,108.032C13.906,108.097 13.825,108.162 13.727,108.227C13.548,108.358 13.336,108.455 13.109,108.504C12.669,108.602 12.197,108.52 11.806,108.293C11.611,108.179 11.432,108.048 11.285,107.886C11.139,107.723 11.025,107.527 10.943,107.332C11.057,107.511 11.188,107.69 11.35,107.82C11.513,107.967 11.676,108.081 11.871,108.179C12.246,108.358 12.685,108.439 13.076,108.341C13.174,108.325 13.271,108.293 13.369,108.244C13.467,108.195 13.548,108.162 13.646,108.097C13.825,107.983 13.988,107.837 14.167,107.723C14.346,107.609 14.525,107.479 14.72,107.381C14.916,107.3 15.127,107.202 15.323,107.137Z" style="fill:rgb(31,0,0);fill-rule:nonzero;"/>
    <path d="M17.879,107.461C17.716,107.721 17.569,107.982 17.423,108.242C17.292,108.503 17.179,108.78 17.113,109.073C17.048,109.349 17.081,109.642 17.13,109.935C17.195,110.228 17.292,110.522 17.341,110.815C17.227,110.538 17.097,110.261 16.999,109.968C16.902,109.675 16.869,109.349 16.934,109.04C17.097,108.421 17.455,107.9 17.879,107.461Z" style="fill:rgb(31,0,0);fill-rule:nonzero;"/>
    <path d="M31.405,90.807C31.487,90.53 31.536,90.27 31.536,90.025C31.487,90.286 31.454,90.546 31.405,90.807Z" style="fill-opacity:0.28;fill-rule:nonzero;"/>
    <path d="M24.047,116.693C23.901,115.586 23.836,114.479 24.177,113.42C24.471,112.541 25.024,111.744 25.692,111.109C26.326,110.506 27.075,109.823 27.873,109.464C28.003,109.399 28.166,109.35 28.28,109.432C28.361,109.481 28.41,109.578 28.443,109.676C28.882,110.864 28.98,112.134 29.078,113.404C29.159,114.56 29.257,115.7 29.338,116.855C29.501,115.537 29.582,114.202 29.615,112.883C29.648,111.63 29.81,110.083 29.485,108.878C28.931,106.811 28.785,104.776 29.648,102.725C30.348,101.064 30.657,99.273 31.08,97.483C32.041,93.543 33.115,89.636 33.897,85.663C32.952,89.245 31.276,92.599 30.234,96.164C29.534,98.573 29.127,101.048 28.427,103.457C27.987,105.004 27.482,108.097 25.252,107.755C24.324,107.609 23.543,106.908 23.087,106.078C22.631,105.248 22.436,104.32 22.24,103.392C21.475,99.566 20.84,95.708 20.824,91.817C20.808,87.926 21.426,83.97 23.087,80.454C23.591,79.396 24.177,78.37 24.845,77.41C25.447,76.547 25.822,75.586 26.294,74.658C26.522,74.203 26.766,73.747 27.01,73.307C27.14,73.063 27.401,72.33 27.629,72.184C25.366,73.454 23.966,75.863 21.866,77.41C21.28,77.849 20.596,78.224 19.88,78.142C18.561,77.996 17.942,76.563 17.259,75.619C16.868,75.082 16.477,74.544 16.103,74.023C15.956,73.812 15.793,73.584 15.793,73.323C15.793,72.933 16.119,72.64 16.38,72.347C16.64,72.054 16.868,71.614 16.624,71.305C16.494,71.142 16.233,70.995 16.314,70.8C16.331,70.751 16.38,70.702 16.428,70.67C16.754,70.409 17.161,70.279 17.552,70.133C19.31,69.514 21.084,68.928 22.859,68.391C20.368,68.7 17.845,68.667 15.354,68.309C15.126,68.277 14.914,68.163 14.686,68.114C14.589,68.098 14.491,68.081 14.393,68.065C14.296,68.049 14.198,68.033 14.1,68.016C14.003,68 13.905,67.984 13.824,67.967C13.726,67.951 13.612,67.919 13.514,67.902C13.433,67.886 13.352,67.87 13.254,67.853C13.107,67.821 12.961,67.788 12.814,67.756C12.749,67.739 12.684,67.723 12.619,67.707C12.456,67.658 12.293,67.626 12.114,67.577C12.049,67.56 11.984,67.544 11.919,67.512C11.789,67.479 11.658,67.43 11.544,67.398C11.479,67.381 11.398,67.349 11.333,67.332C11.203,67.284 11.072,67.251 10.942,67.202C10.877,67.186 10.828,67.153 10.763,67.137C10.568,67.072 10.389,67.007 10.193,66.925C10.096,66.893 9.998,66.844 9.9,66.812C9.868,66.795 9.835,66.779 9.803,66.763C9.737,66.73 9.672,66.714 9.607,66.681C9.558,66.665 9.526,66.649 9.477,66.616C9.428,66.584 9.363,66.567 9.314,66.535C7.833,65.818 6.774,64.288 6.547,62.66C6.677,63.588 5.781,65.298 5.537,66.225C5.065,68.016 4.739,69.791 4.414,71.598C4.088,73.34 3.909,75.244 4.609,76.921C4.902,77.638 5.277,78.126 5.244,78.956C5.212,79.786 5.212,80.568 5.391,81.382C5.472,81.756 5.57,82.131 5.537,82.505C5.521,82.717 5.407,82.961 5.212,82.961C5.114,82.961 5.033,82.912 4.951,82.863C4.707,82.701 4.479,82.538 4.251,82.359C4.463,82.945 4.691,83.531 4.902,84.117C5.049,84.491 5.195,84.882 5.195,85.289C5.212,85.826 5.033,86.298 5.098,86.819C5.244,88.008 5.83,89.131 5.83,90.336C5.83,91.589 6.188,92.81 6.514,94.031C7.54,97.987 9.444,101.764 9.835,105.85C9.9,106.469 9.916,107.104 9.851,107.722C9.786,108.227 9.656,108.716 9.558,109.204C8.858,112.444 9.119,115.797 9.623,119.037C9.851,120.453 9.949,121.837 10.437,123.172C10.975,124.702 11.17,126.509 11.463,128.105C11.561,128.609 11.658,129.13 11.772,129.651C12.277,129.895 12.831,129.993 13.384,130.009C13.14,130.009 12.293,124.963 12.147,124.393C11.642,122.309 10.877,120.323 10.551,118.207C10.21,115.993 10.193,113.713 10.519,111.483C10.568,111.109 10.633,110.734 10.844,110.409C11.431,109.53 12.668,109.595 13.531,109.204C13.921,109.025 14.345,108.927 14.719,108.716C15.159,108.455 15.435,108.016 15.647,107.576C15.777,107.299 15.891,107.022 15.94,106.713C15.956,106.615 15.875,105.932 15.891,105.915C14.459,107.169 12.212,107.674 11.186,105.606C10.747,104.727 10.698,103.718 10.584,102.757C10.372,101.097 9.949,99.485 9.558,97.857C8.956,95.317 8.484,92.761 8.109,90.173C7.605,86.135 7.328,81.87 8.956,78.159C9.33,77.296 9.754,76.677 10.73,76.579C11.789,76.482 12.586,76.954 13.335,77.686C18.187,82.538 17.096,89.847 17.259,96.131C17.373,100.283 17.454,104.532 16.103,108.471C15.81,109.334 16.103,109.595 16.347,110.327C17.308,113.209 16.884,116.497 16.721,119.476C16.526,122.895 15.745,126.265 15.549,129.668C15.696,129.651 15.842,129.668 15.973,129.716C16.51,127.763 16.998,125.712 17.275,123.693C17.584,121.479 17.975,119.297 18.138,117.051C18.235,115.7 18.284,114.397 18.154,113.062C18.008,111.662 17.78,110.246 17.877,108.829C17.926,108.048 18.073,107.267 18.219,106.501C18.887,102.822 19.489,99.078 19.619,95.35C19.798,89.994 19.994,84.719 19.31,79.379C19.88,79.298 20.466,79.331 21.036,79.493C20.156,80.763 19.766,82.31 19.636,83.856C19.505,85.387 19.603,86.95 19.636,88.48C19.668,90.58 19.554,92.696 19.603,94.796C19.652,96.864 20.189,98.85 20.303,100.885C20.563,105.15 20.124,109.432 20.498,113.697C20.58,114.723 20.726,115.732 20.873,116.741C20.97,117.376 21.263,117.93 21.377,118.548C21.508,119.281 21.557,120.046 21.67,120.795C21.882,122.244 22.175,123.774 22.403,125.256C22.501,125.907 22.484,126.64 22.598,127.323C22.68,127.795 22.566,128.447 22.859,128.87C23.282,129.472 24.08,129.261 24.601,129.651C24.764,125.923 24.91,122.163 24.34,118.467C24.226,117.881 24.129,117.295 24.047,116.693Z" style="fill-opacity:0.28;fill-rule:nonzero;"/>
    <g opacity="0.49">
        <path d="M23.038,19.306C23.233,18.948 23.445,18.753 23.706,18.329C23.754,18.264 23.82,18.15 23.966,17.906C24.031,17.792 24.194,17.499 24.194,17.499C24.194,17.499 24.324,17.255 24.406,17.125C24.585,16.799 24.682,16.588 24.731,16.474C24.943,16.034 24.992,15.741 25.171,15.383C24.975,15.741 24.764,15.936 24.503,16.36C24.438,16.457 24.324,16.653 24.129,16.978C24.047,17.109 23.917,17.353 23.917,17.353C23.917,17.353 23.754,17.646 23.706,17.776C23.575,18.02 23.526,18.15 23.494,18.216C23.282,18.655 23.217,18.948 23.038,19.306Z" style="fill:white;fill-opacity:0.06;fill-rule:nonzero;"/>
        <path d="M31.065,28.44C31.196,28.553 31.244,28.667 31.375,28.814C31.44,28.895 31.635,29.156 31.814,29.384C31.993,29.612 32.14,29.84 32.14,29.84C32.14,29.84 32.286,30.051 32.433,30.312C32.579,30.556 32.742,30.833 32.807,30.93C32.905,31.109 32.986,31.191 33.052,31.354C33.003,31.191 33.019,31.077 32.97,30.865C32.938,30.751 32.84,30.442 32.71,30.165C32.645,30.035 32.563,29.905 32.514,29.807C32.449,29.709 32.417,29.66 32.417,29.66C32.417,29.66 32.384,29.612 32.319,29.514C32.254,29.433 32.173,29.319 32.059,29.205C31.863,28.977 31.603,28.765 31.505,28.7C31.31,28.57 31.196,28.537 31.065,28.44Z" style="fill:white;fill-opacity:0.06;fill-rule:nonzero;"/>
        <path d="M7.996,29.254C7.964,29.287 7.899,29.287 7.833,29.319C7.817,29.335 7.785,29.352 7.752,29.368C7.72,29.4 7.671,29.417 7.638,29.449C7.557,29.514 7.508,29.58 7.508,29.58C7.508,29.58 7.443,29.645 7.394,29.726C7.361,29.759 7.345,29.807 7.329,29.856C7.313,29.889 7.296,29.938 7.296,29.954C7.28,30.019 7.28,30.084 7.264,30.133C7.296,30.101 7.361,30.101 7.426,30.068C7.443,30.052 7.475,30.035 7.508,30.019C7.54,29.987 7.589,29.97 7.622,29.938C7.703,29.872 7.752,29.807 7.752,29.807C7.752,29.807 7.817,29.742 7.866,29.661C7.899,29.612 7.915,29.58 7.931,29.531C7.947,29.498 7.964,29.449 7.964,29.433C7.964,29.368 7.964,29.303 7.996,29.254Z" style="fill:white;fill-opacity:0.06;fill-rule:nonzero;"/>
        <path d="M25.546,55.481C25.562,55.676 25.562,55.855 25.562,56.034C25.562,56.213 25.546,56.408 25.546,56.653C25.546,56.734 25.53,56.864 25.53,57.141C25.53,57.255 25.514,57.369 25.514,57.515C25.497,57.646 25.497,57.809 25.481,57.955C25.465,58.118 25.448,58.264 25.432,58.427C25.416,58.59 25.383,58.753 25.367,58.899C25.318,59.209 25.269,59.485 25.22,59.681C25.172,59.876 25.155,60.006 25.155,60.006C25.155,60.006 25.123,60.104 25.09,60.283C25.058,60.446 24.976,60.69 24.911,60.951C24.879,61.081 24.83,61.211 24.781,61.357C24.732,61.504 24.683,61.634 24.634,61.781C24.537,62.057 24.423,62.318 24.341,62.546C24.276,62.725 24.211,62.855 24.162,62.969C24.113,63.083 24.081,63.164 24.065,63.213C23.869,63.653 23.772,63.93 23.576,64.272C23.674,64.092 23.772,63.946 23.869,63.799C23.967,63.653 24.081,63.49 24.195,63.279C24.227,63.23 24.26,63.148 24.325,63.051C24.374,62.937 24.455,62.806 24.537,62.644C24.651,62.432 24.765,62.171 24.879,61.895C24.944,61.764 24.993,61.618 25.041,61.471C25.09,61.325 25.155,61.195 25.188,61.064C25.269,60.804 25.351,60.56 25.383,60.381C25.432,60.202 25.448,60.104 25.448,60.104C25.448,60.104 25.481,59.974 25.514,59.778C25.562,59.567 25.611,59.29 25.644,58.981C25.66,58.818 25.676,58.655 25.693,58.492C25.709,58.329 25.709,58.167 25.725,58.004C25.741,57.841 25.725,57.695 25.725,57.548L25.725,57.174C25.709,56.897 25.709,56.75 25.693,56.669C25.66,56.425 25.644,56.229 25.611,56.05C25.595,55.855 25.562,55.676 25.546,55.481Z" style="fill:white;fill-opacity:0.06;fill-rule:nonzero;"/>
        <path d="M20.369,55.969C20.352,56.376 20.287,56.653 20.255,57.141C20.255,57.222 20.238,57.353 20.238,57.646L20.238,58.378C20.238,58.639 20.255,58.85 20.255,58.85C20.255,58.85 20.271,59.029 20.287,59.257C20.303,59.485 20.336,59.762 20.352,59.957C20.401,60.332 20.434,60.56 20.45,60.674C20.531,61.162 20.629,61.423 20.694,61.83C20.645,61.423 20.694,61.146 20.678,60.657C20.678,60.543 20.662,60.299 20.645,59.941C20.629,59.55 20.58,58.85 20.58,58.85C20.58,58.85 20.531,58.004 20.499,57.646C20.483,57.369 20.466,57.239 20.466,57.157C20.434,56.653 20.369,56.376 20.369,55.969Z" style="fill:white;fill-opacity:0.06;fill-rule:nonzero;"/>
        <path d="M35.379,49.879C35.411,50.286 35.411,50.563 35.444,51.051C35.46,51.214 35.477,51.539 35.509,51.93C35.542,52.484 35.607,53.151 35.656,53.77C35.77,55.023 35.884,56.163 35.884,56.163C35.884,56.163 35.965,56.847 36.046,57.71C36.144,58.572 36.274,59.631 36.388,60.379C36.437,60.754 36.47,60.982 36.486,61.096C36.551,61.584 36.632,61.844 36.665,62.252C36.632,61.844 36.632,61.568 36.6,61.079C36.6,60.965 36.584,60.721 36.551,60.363C36.502,59.614 36.421,58.556 36.339,57.677C36.258,56.814 36.193,56.13 36.193,56.13C36.193,56.13 36.079,54.991 35.932,53.737C35.851,53.119 35.77,52.451 35.688,51.914C35.639,51.523 35.591,51.198 35.558,51.035C35.493,50.563 35.428,50.286 35.379,49.879Z" style="fill:white;fill-opacity:0.06;fill-rule:nonzero;"/>
        <path d="M11.757,58.004C11.529,58.346 11.317,58.525 11.008,58.916C10.959,58.981 10.878,59.095 10.699,59.306C10.617,59.404 10.503,59.567 10.389,59.713C10.292,59.86 10.21,59.974 10.21,59.974C10.21,59.974 10.145,60.071 10.047,60.202C9.966,60.332 9.852,60.495 9.787,60.609C9.592,60.934 9.494,61.146 9.445,61.26C9.233,61.716 9.201,61.992 9.038,62.367C9.201,61.992 9.396,61.781 9.64,61.374C9.706,61.276 9.82,61.081 10.031,60.772C10.178,60.544 10.454,60.137 10.454,60.137C10.454,60.137 10.78,59.648 10.91,59.437C11.057,59.209 11.138,59.078 11.171,59.013C11.464,58.623 11.545,58.346 11.757,58.004Z" style="fill:white;fill-opacity:0.06;fill-rule:nonzero;"/>
        <path d="M32.579,64.678C32.661,64.857 32.726,65.02 32.791,65.199C32.84,65.378 32.905,65.557 32.986,65.785C33.002,65.817 33.019,65.882 33.035,65.948C33.068,66.029 33.1,66.127 33.133,66.257C33.198,66.452 33.279,66.696 33.361,66.99C33.442,67.266 33.523,67.576 33.605,67.836C33.686,68.113 33.751,68.373 33.784,68.552C33.833,68.731 33.865,68.845 33.865,68.845C33.865,68.845 33.882,68.943 33.93,69.106C33.963,69.269 34.012,69.48 34.061,69.741C34.109,69.985 34.158,70.262 34.223,70.538C34.272,70.815 34.321,71.076 34.354,71.287C34.419,71.646 34.451,71.89 34.468,72.004C34.533,72.492 34.614,72.753 34.63,73.159C34.614,72.753 34.647,72.476 34.63,71.987C34.614,71.873 34.614,71.629 34.582,71.255C34.565,71.027 34.533,70.766 34.5,70.49C34.468,70.213 34.419,69.936 34.37,69.676C34.321,69.415 34.272,69.204 34.24,69.041C34.207,68.878 34.175,68.78 34.175,68.78C34.175,68.78 34.142,68.666 34.093,68.471C34.044,68.276 33.979,68.031 33.898,67.755C33.816,67.478 33.719,67.169 33.605,66.892C33.507,66.615 33.393,66.371 33.312,66.176C33.198,65.915 33.133,65.801 33.1,65.72C32.986,65.492 32.888,65.329 32.807,65.166C32.758,65.003 32.661,64.857 32.579,64.678Z" style="fill:white;fill-opacity:0.06;fill-rule:nonzero;"/>
        <path d="M15.11,83.416C15.126,83.823 15.094,84.1 15.094,84.588L15.094,85.093C15.094,85.63 15.11,86.542 15.126,87.323C15.143,88.105 15.159,88.74 15.159,88.74C15.159,88.74 15.175,89.277 15.191,89.961C15.208,90.644 15.24,91.475 15.273,92.061C15.289,92.435 15.305,92.663 15.305,92.777C15.338,93.265 15.371,93.542 15.387,93.949C15.387,93.542 15.436,93.265 15.452,92.777C15.452,92.663 15.468,92.419 15.485,92.044C15.501,91.442 15.517,90.612 15.501,89.928C15.501,89.244 15.485,88.707 15.485,88.707C15.485,88.707 15.468,88.072 15.436,87.291C15.403,86.509 15.338,85.614 15.289,85.06C15.257,84.784 15.257,84.653 15.24,84.572C15.191,84.1 15.126,83.823 15.11,83.416Z" style="fill:white;fill-opacity:0.06;fill-rule:nonzero;"/>
        <path d="M25.692,106.207C25.709,106.256 25.676,106.305 25.692,106.386C25.692,106.402 25.709,106.451 25.725,106.484C25.741,106.533 25.774,106.581 25.806,106.614C25.871,106.695 25.953,106.744 25.953,106.744C25.953,106.744 26.034,106.793 26.132,106.826C26.181,106.842 26.246,106.842 26.295,106.842C26.343,106.842 26.376,106.826 26.392,106.826C26.457,106.809 26.49,106.761 26.539,106.744C26.49,106.744 26.457,106.695 26.409,106.663C26.392,106.647 26.376,106.63 26.343,106.614C26.311,106.598 26.278,106.565 26.246,106.549C26.181,106.516 26.116,106.468 26.116,106.468C26.116,106.468 26.05,106.435 26.002,106.386C25.969,106.37 25.936,106.337 25.904,106.321C25.871,106.305 25.839,106.288 25.839,106.272C25.774,106.272 25.725,106.256 25.692,106.207Z" style="fill:white;fill-opacity:0.06;fill-rule:nonzero;"/>
        <path d="M12.766,105.557C12.766,105.605 12.734,105.654 12.717,105.703C12.701,105.752 12.685,105.801 12.668,105.866C12.668,105.899 12.652,105.98 12.668,106.078C12.685,106.175 12.701,106.273 12.75,106.371C12.782,106.468 12.847,106.55 12.88,106.615C12.929,106.68 12.961,106.713 12.961,106.713C12.961,106.713 12.994,106.745 13.043,106.794C13.092,106.843 13.173,106.908 13.271,106.957C13.368,107.006 13.466,107.054 13.548,107.071C13.629,107.103 13.71,107.087 13.743,107.103C13.808,107.103 13.873,107.087 13.922,107.071C13.971,107.054 14.02,107.038 14.068,107.038C14.02,107.038 13.971,107.022 13.922,107.006C13.857,106.973 13.824,106.957 13.775,106.94C13.743,106.924 13.694,106.908 13.629,106.859C13.596,106.843 13.564,106.826 13.531,106.794C13.499,106.778 13.466,106.745 13.434,106.713C13.368,106.664 13.303,106.599 13.271,106.566C13.222,106.517 13.206,106.501 13.206,106.501C13.206,106.501 13.189,106.468 13.141,106.419C13.108,106.371 13.059,106.306 13.01,106.24C12.978,106.208 12.961,106.175 12.945,106.126C12.929,106.094 12.913,106.045 12.896,106.012C12.864,105.947 12.847,105.882 12.831,105.85C12.815,105.817 12.799,105.768 12.782,105.703C12.766,105.654 12.766,105.605 12.766,105.557Z" style="fill:white;fill-opacity:0.06;fill-rule:nonzero;"/>
        <path d="M27.579,114.021C27.677,114.412 27.677,114.705 27.758,115.177C27.775,115.259 27.791,115.389 27.823,115.666C27.84,115.812 27.872,116.008 27.905,116.236C27.937,116.447 27.953,116.675 27.986,116.903C28.002,117.115 28.035,117.31 28.051,117.457C28.068,117.603 28.068,117.684 28.068,117.684C28.068,117.684 28.068,117.766 28.084,117.88C28.1,117.994 28.1,118.173 28.116,118.352C28.149,118.726 28.182,119.198 28.198,119.524C28.214,119.898 28.23,120.126 28.23,120.24C28.247,120.729 28.295,121.005 28.279,121.412C28.312,121.005 28.377,120.729 28.409,120.24C28.426,120.126 28.442,119.882 28.442,119.508C28.442,119.182 28.442,118.71 28.426,118.319C28.409,118.124 28.409,117.961 28.393,117.831C28.377,117.701 28.377,117.636 28.377,117.636C28.377,117.636 28.36,117.554 28.344,117.408C28.328,117.261 28.312,117.066 28.279,116.854C28.214,116.431 28.116,115.926 28.051,115.633C27.986,115.356 27.953,115.226 27.937,115.145C27.807,114.656 27.677,114.412 27.579,114.021Z" style="fill:white;fill-opacity:0.06;fill-rule:nonzero;"/>
        <path d="M15.078,113.371C15.192,113.762 15.225,114.039 15.322,114.511C15.339,114.592 15.371,114.722 15.436,114.999C15.55,115.504 15.811,116.692 15.811,116.692C15.811,116.692 16.022,117.702 16.12,118.255C16.185,118.613 16.234,118.841 16.267,118.971C16.364,119.443 16.462,119.72 16.511,120.127C16.478,119.72 16.511,119.443 16.462,118.955C16.446,118.841 16.429,118.597 16.397,118.239C16.364,117.962 16.299,117.555 16.25,117.229C16.185,116.904 16.136,116.66 16.136,116.66C16.136,116.66 16.071,116.35 15.99,115.992C15.908,115.634 15.778,115.211 15.697,114.967C15.615,114.706 15.567,114.576 15.534,114.494C15.355,113.99 15.208,113.746 15.078,113.371Z" style="fill:white;fill-opacity:0.06;fill-rule:nonzero;"/>
    </g>
    <path d="M9.169,57.793C10,56.263 11.27,54.326 11.563,52.633C11.791,51.265 11.221,49.23 11.025,47.846C10.993,47.667 10.96,47.504 10.879,47.358C10.814,47.26 10.749,47.195 10.667,47.114C10.163,46.593 9.804,45.942 9.642,45.258C9.495,46.381 8.925,47.504 8.616,48.595C8.242,49.914 7.867,51.233 7.541,52.567C7.314,53.463 7.118,54.407 7.037,55.335C6.955,56.295 7.102,57.256 7.134,58.233C7.183,59.796 7.069,61.326 6.923,62.889C7.086,61.114 8.323,59.47 9.121,57.94C9.121,57.858 9.153,57.826 9.169,57.793Z" style="fill:none;fill-rule:nonzero;stroke:rgb(36,0,0);stroke-width:0.16px;"/>
    <path d="M32.253,62.122C32.058,61.683 32.205,60.625 32.172,60.12C32.123,59.257 32.205,58.394 32.188,57.532C32.156,55.855 32.025,54.178 31.716,52.534C31.586,51.817 31.456,51.101 31.309,50.385C31.163,49.636 31,48.887 30.837,48.138C30.577,46.982 30.316,45.875 29.958,44.752C29.649,45.501 29.339,46.266 28.77,46.836C28.688,46.917 28.59,47.015 28.542,47.129C28.509,47.21 28.493,47.292 28.476,47.373C28.249,48.659 27.842,49.929 27.695,51.215C27.565,52.355 28.004,53.185 28.509,54.178C29.209,55.529 30.056,56.946 30.756,58.362C31.358,59.583 31.667,60.869 32.253,62.122Z" style="fill:none;fill-rule:nonzero;stroke:rgb(36,0,0);stroke-width:0.16px;"/>
    <path d="M27.06,37.54C27.516,36.058 27.646,34.17 27.646,32.623C27.63,31.549 27.63,30.458 27.598,29.384C27.581,28.863 27.549,28.342 27.484,27.821C27.435,27.365 27.305,26.828 27.37,26.388C27.646,26.274 27.939,26.225 28.232,26.258C28.281,26.258 28.346,26.274 28.379,26.307C28.412,26.339 28.428,26.405 28.444,26.47C28.786,28.586 28.949,30.719 29.03,32.851C29.095,34.251 29.03,35.7 29.226,37.084C29.486,38.907 30.218,40.584 30.218,42.424C30.218,43.205 30.137,43.987 29.942,44.736C29.763,45.419 29.339,45.924 29.079,46.542C29.03,46.64 28.998,46.738 28.965,46.836C28.46,47.145 27.858,47.145 27.288,47.129C25.758,47.096 24.228,47.064 22.697,46.982C22.014,46.95 21.362,46.901 20.679,46.917C19.914,46.933 19.165,46.917 18.4,46.901C17.227,46.868 16.055,47.015 14.867,47.047C13.369,47.08 11.936,47.194 10.439,46.95C9.967,45.989 9.348,45.11 9.201,44.019C9.055,42.928 9.087,41.805 9.283,40.731C9.429,39.933 9.657,39.152 9.853,38.354C10.374,36.303 10.699,34.203 10.96,32.102C11.009,31.728 11.416,26.535 11.448,26.535C11.595,26.535 12.555,26.356 12.555,26.6C12.571,29.335 12.343,32.037 12.327,34.756C12.311,36.075 12.148,37.589 12.881,38.728C13.271,39.331 13.857,39.77 14.476,40.063C15.518,40.584 16.658,40.78 17.797,40.91C19.165,41.073 20.548,41.187 21.932,41.121C22.567,41.089 23.283,41.105 23.886,40.893C24.325,40.747 24.944,40.584 25.302,40.275C26.018,39.673 26.767,38.452 27.06,37.54Z" style="fill:rgb(227,67,67);fill-rule:nonzero;stroke:rgb(36,0,0);stroke-width:0.16px;"/>
    <path d="M29.095,46.527C29.356,45.925 29.779,45.404 29.958,44.72C30.153,43.971 30.235,43.19 30.235,42.408C30.235,40.553 29.502,38.892 29.241,37.069C29.046,35.685 29.111,34.236 29.046,32.836C28.949,30.703 28.786,28.571 28.46,26.454C28.444,26.389 28.444,26.34 28.395,26.292C28.362,26.259 28.297,26.243 28.249,26.243C28.086,26.226 27.923,26.243 27.76,26.275C27.662,27.382 27.728,28.506 27.776,29.613C27.874,31.729 27.988,33.862 28.476,35.929C28.932,37.883 30.072,39.527 30.17,41.578C30.235,43.288 29.535,44.932 28.167,45.909C26.946,46.772 24.96,46.413 23.609,46.267C21.411,46.023 19.23,45.371 16.999,45.697C14.541,46.055 10.78,46.837 9.364,43.906C9.25,43.678 9.185,43.418 9.152,43.157C9.169,43.434 9.185,43.727 9.234,44.004C9.397,45.095 9.999,45.974 10.471,46.934C11.969,47.179 13.401,47.065 14.899,47.032C16.087,46.999 17.243,46.853 18.432,46.885C19.197,46.902 19.946,46.918 20.711,46.902C21.395,46.902 22.046,46.934 22.73,46.967C24.26,47.048 25.79,47.081 27.321,47.113C27.89,47.13 28.509,47.13 28.997,46.82C29.014,46.723 29.046,46.625 29.095,46.527Z" style="fill-opacity:0.28;fill-rule:nonzero;"/>
    <path d="M10.959,32.072C10.699,34.172 10.373,36.272 9.852,38.323C9.657,39.104 9.429,39.902 9.283,40.7C9.25,40.863 9.234,41.009 9.201,41.172C9.331,40.423 9.543,39.723 9.706,39.186C10.455,36.858 11.301,34.611 11.546,32.153C11.725,30.265 11.822,28.36 11.806,26.455C11.627,26.471 11.48,26.488 11.432,26.504C11.415,26.504 11.008,31.697 10.959,32.072Z" style="fill-opacity:0.28;fill-rule:nonzero;"/>
</svg>
