<?xml version="1.0" encoding="UTF-8" standalone="no"?>
<!DOCTYPE svg PUBLIC "-//W3C//DTD SVG 1.1//EN" "http://www.w3.org/Graphics/SVG/1.1/DTD/svg11.dtd">
<svg width="100%" height="100%" viewBox="0 0 45 149" version="1.1" xmlns="http://www.w3.org/2000/svg" xmlns:xlink="http://www.w3.org/1999/xlink" xml:space="preserve" xmlns:serif="http://www.serif.com/" style="fill-rule:evenodd;clip-rule:evenodd;stroke-miterlimit:10;">
    <path d="M14.671,15.273C14.378,17.374 14.182,19.49 14.069,21.607C13.987,22.975 13.547,25.418 14.573,26.509C14.883,26.834 15.29,27.03 15.713,27.209C18.726,28.479 22.064,28.805 25.337,28.723C28.61,28.642 31.85,28.17 35.123,27.876C35.481,27.844 35.888,27.795 36.133,27.534C36.426,27.209 36.377,26.704 36.312,26.264C35.709,22.666 35.302,19.002 34.537,15.42C33.934,12.619 33.625,9.737 32.664,7.034C32.241,5.845 31.769,4.51 31.101,3.337C30.45,2.181 29.603,1.172 28.447,0.569C27.453,0.048 26.297,-0.066 25.19,0.032C24.636,0.081 23.985,0.146 23.464,0.341C23.073,0.488 22.829,0.716 22.357,0.683C22.015,0.651 21.673,0.553 21.315,0.553C20.777,0.537 20.256,0.764 19.817,1.09C17.293,2.946 16.348,5.503 15.664,8.499C15.176,10.73 14.98,13.01 14.671,15.273Z" style="fill-rule:nonzero;"/>
    <path d="M18.952,7.229C19.115,9.915 19.261,12.57 19.864,15.207C20.157,16.51 20.629,17.91 21.574,18.887C21.639,18.953 21.72,19.034 21.753,19.132C21.785,19.213 21.769,19.311 21.753,19.409C21.622,20.467 21.72,21.753 21.101,22.665C20.141,24.098 18.512,24.424 16.982,24.88C16.053,25.157 15.06,25.27 14.197,25.661C12.211,26.557 10.599,27.648 9.28,29.374C8.042,31.002 7.098,32.842 6.43,34.78C5.469,37.548 5.339,40.349 4.964,43.215C4.753,44.892 4.802,46.651 4.46,48.295C3.727,51.91 2.213,55.346 1.805,59.059C1.594,60.948 1.952,63.032 2.017,64.953C2.066,66.647 2.131,68.34 2.147,70.034C2.164,71.695 1.333,73.193 1.089,74.821C0.845,76.352 1.17,77.964 1.268,79.494C1.301,79.934 1.301,80.39 1.431,80.813C1.708,81.709 2.457,82.23 3.01,82.93C3.678,83.744 4.101,84.575 4.981,85.194C5.062,85.242 5.144,85.308 5.241,85.291C5.42,85.259 5.453,84.998 5.42,84.819C5.192,83.337 4.834,81.872 4.525,80.406C4.72,80.748 4.981,81.09 5.339,81.204C5.697,81.318 6.218,81.09 6.218,80.699C6.218,80.553 6.153,80.406 6.088,80.276C5.534,79.038 5.909,77.98 5.99,76.677C6.055,75.814 5.99,74.935 5.599,74.17C5.502,73.974 5.388,73.779 5.306,73.584C4.427,71.434 5.811,68.943 6.121,66.81C6.544,63.96 7.651,61.485 8.4,58.749C7.977,60.671 7.57,62.625 7.716,64.595C7.586,64.481 7.374,64.546 7.277,64.676C7.179,64.823 7.163,65.002 7.163,65.165C6.951,71.174 7.114,77.198 7.863,83.174C8.661,89.476 10.24,95.42 12.504,101.33C12.618,101.64 12.732,101.949 12.781,102.275C12.813,102.568 12.781,102.845 12.748,103.138C11.673,113.771 13.969,123.916 16.754,134.093C17.112,135.379 17.047,136.861 17.063,138.196C17.063,138.375 17.063,138.538 16.998,138.701C16.916,138.896 16.754,139.043 16.607,139.189C15.711,140.004 14.914,140.981 14.197,141.958C13.806,142.479 12.894,143.325 12.992,144.009C13.041,144.367 13.35,144.661 13.709,144.693C13.806,144.693 13.904,144.693 13.969,144.758C14.393,145.1 14.165,145.654 14.914,145.752C15.207,145.784 15.516,145.768 15.777,145.931C15.923,146.028 16.037,146.159 16.151,146.289C16.575,146.761 16.851,146.745 17.454,146.761C17.633,147.282 18.073,147.706 18.594,147.852C20.548,148.422 21.297,146.289 21.183,144.84C21.069,143.146 20.906,141.111 21.28,139.45C21.704,137.61 20.906,135.412 20.808,133.523C20.662,130.185 20.987,126.847 21.346,123.525C21.525,121.831 21.72,120.154 21.867,118.461C22.046,116.197 21.688,114.145 21.28,111.996C20.971,110.417 20.694,108.788 20.792,107.176C20.841,106.167 21.232,105.238 21.362,104.245C21.981,99.816 22.306,95.338 22.339,90.876C22.371,86.431 21.948,82.002 21.867,77.573C22.176,77.573 23.055,77.378 23.169,77.785C23.202,77.866 23.186,77.947 23.169,78.029C22.762,81.318 22.453,84.64 22.453,87.962C22.453,90.437 22.534,93.124 23.039,95.534C23.397,97.26 23.397,99.148 23.528,100.94C23.723,103.529 24.505,106.02 24.374,108.642C24.228,111.524 23.642,114.422 23.821,117.321C24,120.268 24.309,123.248 24.553,126.195C24.7,127.986 24.7,129.761 24.733,131.552C24.765,133.197 24.895,135.053 24.277,136.633C23.935,137.496 23.56,138.782 23.625,139.727C23.658,140.183 23.935,140.573 24.114,140.997C24.749,142.479 24.602,144.595 24.391,146.159C24.26,147.119 25.042,147.82 26.019,147.966C26.621,148.048 27.305,147.738 27.484,147.152C28.071,147.233 28.836,147.217 29.08,146.68C29.145,146.549 29.178,146.387 29.292,146.305C29.39,146.24 29.52,146.273 29.634,146.256C29.943,146.224 30.187,145.996 30.399,145.768C30.855,145.296 31.881,144.677 32.158,144.107C32.516,143.358 31.751,142.397 31.278,141.892C30.709,141.274 29.992,140.769 29.373,140.199C29.178,140.02 28.983,139.841 28.852,139.613C27.875,138.05 28.429,135.835 28.803,134.19C29.829,129.729 30.806,125.251 31.686,120.74C32.19,118.167 32.695,115.578 32.939,112.973C33.053,111.736 33.184,110.498 32.939,109.277C32.825,108.723 32.63,108.186 32.532,107.632C32.402,106.818 32.581,105.89 32.646,105.059C32.711,104.31 32.532,103.659 32.532,102.91C32.532,102.584 32.663,102.275 32.777,101.982C35.138,96.169 36.489,89.997 37.238,83.793C37.645,80.471 38.004,77.133 38.166,73.795C38.248,72.199 38.264,70.604 38.378,69.024C38.492,67.64 38.118,66.061 37.922,64.693C37.89,64.514 37.841,64.286 37.661,64.237C37.515,64.188 37.32,64.286 37.206,64.172C37.141,64.106 37.124,64.009 37.124,63.911C37.124,63.113 37.059,62.332 37.043,61.517C36.994,59.791 36.88,58.065 36.701,56.356C36.913,58.131 37.124,59.922 37.645,61.631C38.134,63.211 38.736,64.807 39.143,66.37C39.453,67.526 39.436,68.715 39.681,69.871C39.909,70.864 39.925,71.76 39.648,72.769C39.388,73.714 38.883,74.642 38.899,75.635C38.932,76.938 39.469,78.241 39.16,79.543C39.046,79.999 38.834,80.439 38.899,80.911C38.964,81.53 39.681,81.839 40.202,81.513C39.892,82.035 39.55,82.539 39.339,83.093C39.127,83.663 39.029,84.298 39.241,84.868C39.274,84.966 39.322,85.063 39.404,85.128C39.55,85.259 39.778,85.242 39.958,85.128C40.12,85.031 40.234,84.868 40.348,84.705C41.358,83.24 42.058,81.709 43.133,80.292C44.305,78.729 43.947,77.312 44.142,75.44C44.24,74.365 43.686,73.795 43.426,72.834C43.1,71.613 43.263,70.05 43.263,68.78C43.263,66.37 43.361,63.96 43.458,61.566C43.524,59.791 43.621,57.886 43.198,56.16C42.742,54.32 41.814,52.773 41.407,50.917C40.853,48.328 40.479,45.69 40.202,43.052C39.925,40.382 39.811,37.679 39.29,35.041C38.915,33.184 38.378,31.409 37.499,29.732C36.994,28.755 35.968,27.974 35.105,27.306C34.372,26.736 33.64,26.166 32.858,25.694C32.19,25.287 31.474,24.929 30.757,24.603C29.829,24.18 28.641,23.724 28.364,22.633C28.185,21.932 28.25,21.2 28.217,20.5C28.201,20.223 28.201,19.93 28.25,19.653C28.429,18.822 29.162,18.432 29.536,17.748C29.976,16.933 30.269,16.054 30.513,15.159C30.985,13.498 31.213,11.772 31.425,10.062" style="fill:none;fill-rule:nonzero;stroke:rgb(31,0,0);stroke-width:0.16px;"/>
    <path d="M24.57,3.419C23.576,3.402 22.697,3.744 21.802,4.135C21.183,4.396 20.58,4.477 20.043,4.917C18.105,6.545 18.073,9.167 18.366,11.495C18.675,14.003 18.903,16.576 20.597,18.578C20.678,18.66 20.759,18.758 20.792,18.872C20.808,18.937 20.825,19.018 20.825,19.1C20.89,20.402 20.857,22.324 20.173,23.496C19.603,24.457 17.942,24.603 16.982,24.896C16.053,25.173 15.06,25.287 14.197,25.678C12.211,26.574 10.599,27.665 9.28,29.391C8.042,31.019 7.098,32.859 6.43,34.797C5.469,37.565 5.339,40.366 4.964,43.231C4.753,44.909 4.802,46.667 4.46,48.312C3.727,51.911 2.213,55.346 1.805,59.059C1.594,60.948 1.952,63.032 2.017,64.954C2.066,66.647 2.131,68.341 2.147,70.034C2.164,71.695 1.333,73.193 1.089,74.821C0.845,76.352 1.17,77.964 1.268,79.495C1.301,79.934 1.301,80.39 1.431,80.814C1.708,81.709 2.457,82.23 3.01,82.931C3.678,83.745 4.101,84.575 4.981,85.194C5.062,85.243 5.144,85.308 5.241,85.292C5.42,85.259 5.453,84.999 5.42,84.819C5.192,83.338 4.834,81.872 4.525,80.406C4.72,80.749 4.981,81.09 5.339,81.204C5.697,81.318 6.218,81.09 6.218,80.7C6.218,80.553 6.153,80.406 6.088,80.276C5.534,79.039 5.909,77.98 5.99,76.678C6.055,75.815 5.99,74.935 5.599,74.17C5.502,73.975 5.388,73.779 5.306,73.584C4.427,71.434 5.811,68.943 6.121,66.81C6.544,63.96 7.651,61.485 8.4,58.75C7.977,60.671 7.57,62.625 7.716,64.595C7.586,64.481 7.374,64.546 7.277,64.677C7.179,64.823 7.163,65.002 7.163,65.165C6.951,71.174 7.114,77.199 7.863,83.175C8.661,89.476 10.24,95.42 12.504,101.331C12.618,101.64 12.732,101.95 12.781,102.275C12.813,102.568 12.781,102.845 12.748,103.138C11.673,113.771 13.969,123.916 16.754,134.093C17.112,135.379 17.047,136.861 17.063,138.196C17.063,138.376 17.063,138.538 16.998,138.701C16.916,138.897 16.754,139.043 16.607,139.19C15.711,140.004 14.914,140.981 14.197,141.958C13.806,142.479 12.894,143.326 12.992,144.01C13.041,144.368 13.35,144.661 13.709,144.693C13.806,144.693 13.904,144.693 13.969,144.759C14.393,145.101 14.165,145.654 14.914,145.752C15.207,145.784 15.516,145.768 15.777,145.931C15.923,146.029 16.037,146.159 16.151,146.289C16.575,146.761 16.851,146.745 17.454,146.761C17.633,147.283 18.073,147.706 18.594,147.852C20.548,148.422 21.297,146.289 21.183,144.84C21.069,143.147 20.906,141.111 21.28,139.45C21.704,137.61 20.906,135.412 20.808,133.523C20.662,130.185 20.987,126.847 21.346,123.525C21.525,121.832 21.72,120.154 21.867,118.461C22.046,116.198 21.688,114.146 21.28,111.996C20.971,110.417 20.694,108.789 20.792,107.176C20.841,106.167 21.232,105.239 21.362,104.245C21.981,99.816 22.306,95.338 22.339,90.877C22.371,86.431 21.948,82.002 21.867,77.573C22.176,77.573 23.055,77.378 23.169,77.785C23.202,77.866 23.186,77.948 23.169,78.029C22.762,81.318 22.453,84.64 22.453,87.962C22.453,90.437 22.534,93.124 23.039,95.534C23.397,97.26 23.397,99.149 23.528,100.94C23.723,103.529 24.505,106.02 24.374,108.642C24.228,111.524 23.642,114.423 23.821,117.321C24,120.268 24.309,123.248 24.553,126.196C24.7,127.987 24.7,129.762 24.733,131.553C24.765,133.197 24.895,135.054 24.277,136.633C23.935,137.496 23.56,138.783 23.625,139.727C23.658,140.183 23.935,140.574 24.114,140.997C24.749,142.479 24.602,144.596 24.391,146.159C24.26,147.12 25.042,147.82 26.019,147.966C26.621,148.048 27.305,147.738 27.484,147.152C28.071,147.234 28.836,147.217 29.08,146.68C29.145,146.55 29.178,146.387 29.292,146.306C29.39,146.24 29.52,146.273 29.634,146.257C29.943,146.224 30.187,145.996 30.399,145.768C30.855,145.296 31.881,144.677 32.158,144.107C32.516,143.358 31.751,142.398 31.278,141.893C30.709,141.274 29.992,140.769 29.373,140.199C29.178,140.02 28.983,139.841 28.852,139.613C27.875,138.05 28.429,135.835 28.803,134.191C29.829,129.729 30.806,125.251 31.686,120.741C32.19,118.168 32.695,115.579 32.939,112.973C33.053,111.736 33.184,110.498 32.939,109.277C32.825,108.723 32.63,108.186 32.532,107.632C32.402,106.818 32.581,105.89 32.646,105.06C32.711,104.311 32.532,103.659 32.532,102.91C32.532,102.585 32.663,102.275 32.777,101.982C35.138,96.169 36.489,89.998 37.238,83.794C37.645,80.472 38.004,77.134 38.166,73.796C38.248,72.2 38.264,70.604 38.378,69.024C38.492,67.64 38.118,66.061 37.922,64.693C37.89,64.514 37.841,64.286 37.661,64.237C37.515,64.188 37.32,64.286 37.206,64.172C37.141,64.107 37.124,64.009 37.124,63.911C37.124,63.114 37.059,62.332 37.043,61.518C36.994,59.792 36.88,58.066 36.701,56.356C36.913,58.131 37.124,59.922 37.645,61.632C38.134,63.211 38.736,64.807 39.143,66.37C39.453,67.526 39.436,68.715 39.681,69.871C39.909,70.864 39.925,71.76 39.648,72.77C39.388,73.714 38.883,74.642 38.899,75.635C38.932,76.938 39.469,78.241 39.16,79.544C39.046,80 38.834,80.439 38.899,80.911C38.964,81.53 39.681,81.84 40.202,81.514C39.892,82.035 39.55,82.54 39.339,83.093C39.127,83.663 39.029,84.298 39.241,84.868C39.274,84.966 39.322,85.064 39.404,85.129C39.55,85.259 39.778,85.243 39.958,85.129C40.12,85.031 40.234,84.868 40.348,84.705C41.358,83.24 42.058,81.709 43.133,80.293C44.305,78.729 43.947,77.313 44.142,75.44C44.24,74.365 43.686,73.796 43.426,72.835C43.1,71.614 43.263,70.05 43.263,68.78C43.263,66.37 43.361,63.96 43.458,61.567C43.524,59.792 43.621,57.887 43.198,56.161C42.742,54.321 41.814,52.774 41.407,50.917C40.853,48.328 40.479,45.69 40.202,43.052C39.925,40.382 39.811,37.679 39.29,35.041C38.915,33.185 38.378,31.41 37.499,29.733C36.994,28.756 35.968,27.974 35.105,27.306C34.372,26.736 33.64,26.167 32.858,25.694C31.914,25.108 29.813,24.538 29.438,23.366C29.08,22.193 28.901,20.988 28.901,19.767C28.901,18.806 29.357,18.171 29.911,17.422C30.187,17.048 30.318,16.738 30.448,16.299C30.725,15.436 30.855,14.524 30.92,13.628C31.051,11.788 30.904,9.948 31.067,8.108C31.23,6.219 28.901,4.9 27.403,4.2C26.54,3.744 25.579,3.419 24.57,3.419Z" style="fill:rgb(226,168,138);fill-rule:nonzero;"/>
    <path d="M37.254,83.763C37.661,80.441 38.019,77.103 38.182,73.765C38.263,72.169 38.28,70.573 38.394,68.994C38.508,67.61 38.133,66.03 37.938,64.662C37.905,64.483 37.856,64.255 37.677,64.206C37.531,64.158 37.335,64.255 37.221,64.141C37.156,64.076 37.14,63.978 37.14,63.881C37.14,63.083 37.075,62.301 37.058,61.487C37.01,59.761 36.896,58.035 36.716,56.325C36.928,58.1 37.14,59.891 37.661,61.601C38.149,63.181 38.752,64.776 39.159,66.34C39.468,67.496 39.452,68.684 39.696,69.841C39.924,70.834 39.941,71.729 39.664,72.739C39.403,73.683 38.898,74.612 38.915,75.605C38.931,76.093 39.012,76.566 39.094,77.054C39.159,76.549 39.257,76.045 39.468,75.572C39.892,74.595 40.706,73.814 41.113,72.82C41.406,72.088 41.455,71.29 41.487,70.508C41.634,65.786 40.95,61.21 39.501,56.765C38.589,53.997 37.938,51.131 37.873,48.2C37.824,45.888 38.377,43.461 37.97,41.182C37.742,39.944 37.156,38.804 36.667,37.648C35.202,34.196 34.73,30.549 34.583,26.836C34.03,26.413 33.476,26.006 32.89,25.647C31.945,25.061 29.845,24.491 29.47,23.319C29.112,22.146 28.933,20.941 28.933,19.72C28.933,18.759 29.389,18.124 29.943,17.375C30.219,17.001 30.35,16.691 30.48,16.252C30.61,15.828 30.708,15.389 30.789,14.949C30.545,15.747 30.17,16.512 29.682,17.196C29.324,17.685 28.9,18.076 28.428,18.45C28.168,18.662 27.256,19.46 26.914,19.411C27.337,19.476 27.793,19.59 28.021,19.932C28.151,20.127 28.184,20.355 28.2,20.583C28.298,21.3 28.412,22 28.428,22.716C28.428,22.912 28.444,23.123 28.542,23.286C28.64,23.465 28.803,23.563 28.982,23.677C29.861,24.214 30.805,24.621 31.669,25.175C32.141,25.468 32.597,25.843 32.776,26.364C32.89,26.673 32.89,27.015 32.874,27.341C32.792,29.295 32.043,31.037 31.799,32.926C31.766,33.17 31.766,33.431 31.848,33.659C31.913,33.854 32.043,34.017 32.141,34.196C33.004,35.645 32.011,37.094 31.033,38.202C29.796,39.602 28.51,40.84 26.995,41.914C26.735,42.094 26.474,42.289 26.165,42.338C24.992,42.517 24.129,41.377 24.325,40.319C24.553,39.032 25.399,38.414 26.425,37.762C25.855,37.73 25.318,37.974 24.83,38.267C24.341,38.56 23.885,38.902 23.348,39.097C22.273,39.505 21.768,38.788 20.791,38.609C20.254,38.511 19.717,38.495 19.179,38.397C20.482,38.625 21.54,39.716 21.915,41.003C22.11,41.687 22.094,42.533 21.557,42.973C21.084,43.364 20.368,43.315 19.765,43.168C16.981,42.484 14.88,40.205 13.219,37.844C12.78,37.209 12.34,36.557 12.226,35.792C12.145,35.32 12.194,34.831 12.242,34.359C12.422,32.633 12.601,30.923 12.78,29.197C12.877,28.236 13.024,27.194 13.692,26.494C14.017,26.168 14.424,25.94 14.848,25.745C15.678,25.371 16.541,25.11 17.437,24.963C18.56,24.784 19.765,24.735 20.661,23.938C21.524,23.172 21.915,22 22.354,20.958C22.436,20.779 22.501,20.583 22.631,20.453C23.038,20.03 24.146,19.867 24.699,19.688C23.999,19.411 23.299,19.134 22.599,18.857C21.443,18.401 20.531,17.31 20.319,16.089C20.01,14.314 19.749,12.523 19.879,10.732C19.896,10.601 19.896,10.471 19.961,10.357C20.091,10.146 20.352,10.097 20.596,10.064C23.738,9.576 26.718,8.745 29.91,8.761C30.154,8.761 30.431,8.778 30.643,8.908C30.822,9.006 30.936,9.185 31.001,9.364C31.017,9.071 31.017,8.761 31.05,8.468C31.05,8.436 31.05,8.387 31.033,8.354C31.017,8.224 31.017,8.094 30.936,7.996C30.871,7.915 30.757,7.866 30.643,7.833C30.154,7.67 30.04,7.687 29.78,7.28C29.552,6.921 29.47,6.465 29.259,6.091C28.982,5.619 28.624,5.212 28.249,4.805C28.184,4.723 28.102,4.642 27.988,4.625C27.793,4.577 27.63,4.756 27.5,4.902C26.653,5.944 26.116,6.303 24.813,6.091C23.266,5.83 21.443,6.189 19.896,6.384C19.521,6.433 19.147,6.482 18.772,6.531C18.056,8.029 18.104,9.869 18.3,11.53C18.609,14.037 18.837,16.61 20.531,18.613C20.612,18.694 20.694,18.792 20.726,18.906C20.742,18.971 20.759,19.052 20.759,19.134C20.824,20.437 20.791,22.358 20.107,23.53C19.537,24.491 17.876,24.638 16.916,24.931C15.988,25.208 14.994,25.322 14.131,25.712C12.65,26.38 11.379,27.162 10.272,28.22C10.337,29.392 9.849,30.467 9.653,31.591C9.442,32.845 9.442,34.115 9.263,35.369C9.067,36.72 8.79,37.827 8.79,39.211C8.807,42.403 8.269,45.578 7.878,48.737C7.748,49.796 7.618,50.87 7.374,51.896C7.097,53.02 6.706,54.062 6.771,55.251C6.804,55.967 6.983,56.684 7.015,57.4C7.113,59.354 6.234,61.308 5.778,63.181C5.224,65.395 4.752,67.642 4.361,69.889C4.198,70.834 4.052,71.811 4.264,72.739C4.557,74.074 5.534,75.23 5.566,76.598C5.582,77.494 5.192,78.373 5.322,79.269C5.42,79.92 5.81,80.571 5.827,81.206C6.006,81.109 6.152,80.962 6.152,80.75C6.152,80.604 6.087,80.457 6.022,80.327C5.468,79.09 5.843,78.031 5.924,76.728C5.99,75.865 5.924,74.986 5.534,74.221C5.436,74.025 5.322,73.83 5.241,73.635C4.361,71.485 5.745,68.994 6.055,66.861C6.478,64.011 7.585,61.536 8.334,58.8C7.911,60.722 7.504,62.676 7.65,64.646C7.52,64.532 7.309,64.597 7.211,64.728C7.113,64.858 7.097,65.053 7.097,65.216C6.885,71.225 7.048,77.25 7.797,83.226C8.595,89.527 10.174,95.471 12.438,101.381C12.552,101.691 12.666,102 12.715,102.326C12.747,102.619 12.715,102.896 12.682,103.189C11.607,113.822 13.903,123.967 16.688,134.144C17.046,135.43 16.981,136.912 16.997,138.247C16.997,138.426 16.997,138.589 16.932,138.752C16.851,138.947 16.688,139.094 16.541,139.24C15.646,140.055 14.848,141.032 14.131,142.009C13.741,142.53 12.829,143.376 12.926,144.06C12.959,144.37 13.203,144.63 13.512,144.712C13.741,142.367 15.581,141.178 17.567,140.136C18.332,139.729 18.17,140.103 18.414,139.175C18.577,138.524 18.446,137.824 18.381,137.172C18.218,135.56 17.925,133.965 17.583,132.385C16.737,128.461 15.483,124.65 14.717,120.71C13.968,116.834 13.887,113.366 14.799,109.491C14.913,108.986 15.059,108.481 15.352,108.074C15.646,107.667 16.167,107.357 16.672,107.455C16.916,107.504 17.16,107.634 17.404,107.602C17.583,107.585 17.746,107.488 17.893,107.39C18.463,106.983 18.854,106.332 18.951,105.648C18.935,105.713 16.102,104.15 15.809,103.857C14.962,102.994 14.734,101.593 14.522,100.453C14.148,98.516 13.301,96.855 12.861,94.933C12.291,92.458 11.786,89.951 11.331,87.459C10.663,83.747 10.012,80.034 9.718,76.272C9.523,73.863 8.286,68.684 11.363,67.626C10.272,67.17 9.507,65.998 9.556,64.809C9.604,63.62 10.158,62.545 10.223,61.341C10.321,59.745 10.435,58.149 10.549,56.57C10.63,55.446 10.712,54.29 11.217,53.28C12.063,54.567 12.487,56.146 12.389,57.677C12.356,58.116 12.291,58.572 12.438,58.996C12.715,59.81 13.708,60.233 13.952,61.064C14.066,61.422 14.017,61.797 14.017,62.171C14.05,64.337 15.564,66.144 16.802,67.789C16.444,65.525 16.069,63.262 15.711,60.999C15.662,60.657 15.597,60.298 15.45,59.973C15.287,59.615 14.994,59.305 14.783,58.963C14.082,57.823 14.229,56.39 14.001,55.088C13.789,53.915 13.285,52.841 12.959,51.701C12.682,50.724 12.747,49.633 13.089,48.672C13.154,48.477 13.236,48.281 13.399,48.151C13.578,48.004 13.806,47.956 14.034,47.907C17.16,47.369 20.335,47.483 23.478,47.728C25.057,47.842 26.653,48.004 28.233,48.118C29.193,48.2 31.359,48.07 32.059,48.835C32.336,49.144 32.417,49.584 32.466,49.991C32.597,51.098 32.645,52.206 32.141,53.231C31.831,53.867 31.457,54.485 31.359,55.185C31.131,56.667 31.717,58.1 30.594,59.37C30.301,59.696 29.943,59.973 29.715,60.347C29.275,61.129 29.535,62.09 29.633,62.985C29.943,65.835 27.647,67.74 25.351,69.059C26.572,69.189 27.891,69.303 28.982,68.717C30.854,67.724 30.936,66.128 31.196,64.337C31.522,62.122 33.199,60.298 33.639,58.084C33.753,57.465 33.802,56.83 34.013,56.244C34.225,55.658 34.714,55.104 35.332,55.023C35.528,57.432 35.642,59.859 35.658,62.269C35.691,65.705 32.483,68.603 29.731,70.313C25.465,72.983 19.944,74.205 15.352,72.169C16.069,72.495 16.916,74.84 17.258,75.556C17.86,76.794 18.381,78.064 18.805,79.383C19.7,82.069 19.765,84.74 19.912,87.557C20.091,90.667 20.221,93.793 20.303,96.903C20.384,99.932 20.742,102.635 19.603,105.583C19,107.13 19.651,107.716 20.107,109.116C20.58,110.549 20.791,112.112 20.873,113.61C21.182,119.57 20.189,125.497 19.651,131.424C19.505,133.053 19.407,134.746 19.993,136.261C20.254,136.961 20.661,137.612 20.759,138.345C20.889,139.354 20.4,140.331 20.433,141.341C20.449,142.041 20.694,142.693 21.003,143.328C20.938,142.025 20.921,140.657 21.198,139.468C21.622,137.628 20.824,135.43 20.726,133.541C20.58,130.203 20.905,126.865 21.263,123.543C21.443,121.85 21.638,120.173 21.785,118.479C21.964,116.216 21.605,114.164 21.198,112.015C20.889,110.435 20.612,108.807 20.71,107.195C20.759,106.185 21.149,105.257 21.28,104.264C21.898,99.835 22.224,95.357 22.257,90.895C22.289,86.45 21.866,82.021 21.785,77.591C22.094,77.591 22.973,77.396 23.087,77.803C23.12,77.885 23.103,77.966 23.087,78.047C22.68,81.337 22.371,84.658 22.371,87.98C22.371,90.455 22.452,93.142 22.957,95.552C23.315,97.278 23.315,99.167 23.445,100.958C23.641,103.547 24.422,106.039 24.292,108.66C24.146,111.542 23.559,114.441 23.738,117.339C23.918,120.287 24.227,123.266 24.471,126.214C24.618,128.005 24.618,129.78 24.65,131.571C24.683,133.216 24.813,135.072 24.194,136.651C23.853,137.514 23.478,138.801 23.543,139.745C23.576,140.201 23.853,140.592 24.032,141.015C24.667,142.497 24.52,144.614 24.308,146.177C24.178,147.138 24.96,147.838 25.937,147.985C26.018,148.001 26.1,148.001 26.181,148.001C25.888,147.871 25.627,147.675 25.432,147.415C24.39,145.982 26.083,143.946 25.578,142.237C25.367,141.488 24.732,140.901 24.52,140.152C24.064,138.524 25.465,136.912 25.725,135.365C26.067,133.411 25.855,131.164 25.872,129.177C25.921,125.058 25.839,120.922 25.627,116.802C25.513,114.62 25.383,112.422 25.66,110.24C25.774,109.377 25.953,108.53 26.051,107.683C26.751,108.481 27.663,108.497 28.754,109.002C30.17,109.637 30.333,111.249 30.268,112.65C30.056,117.991 29.747,123.315 29.454,128.64C29.389,129.926 29.307,131.213 29.063,132.483C29.943,128.591 30.789,124.683 31.555,120.759C32.059,118.186 32.564,115.597 32.808,112.992C32.922,111.754 33.053,110.516 32.808,109.295C32.694,108.742 32.499,108.204 32.401,107.651C32.271,106.836 32.45,105.908 32.515,105.078C32.58,104.329 32.401,103.677 32.401,102.928C32.401,102.603 32.532,102.293 32.645,102C35.153,96.138 36.505,89.967 37.254,83.763ZM30.692,101.609C30.464,102.472 30.236,103.368 29.682,104.068C29.128,104.768 28.168,105.224 27.321,104.915C26.914,104.768 26.539,104.443 26.1,104.492C25.888,102.668 25.481,100.828 25.351,99.02C24.862,92.263 24.113,85.114 25.693,78.471C25.937,77.445 26.262,76.403 26.881,75.54C27.451,74.758 28.233,74.188 28.998,73.618C29.845,72.983 30.692,72.364 31.555,71.729C32.206,71.241 33.004,70.736 33.785,70.964C34.388,71.143 34.779,71.729 35.039,72.283C36.244,74.807 36.13,77.738 35.772,80.506C34.893,87.606 32.466,94.673 30.692,101.609Z" style="fill:rgb(174,106,83);fill-opacity:0.71;fill-rule:nonzero;"/>
    <path d="M42.644,79.332C41.976,79.072 41.569,78.372 41.471,77.672C41.374,76.971 41.52,76.255 41.667,75.555C41.097,77.395 40.429,79.202 39.664,80.977C39.582,81.156 39.485,81.352 39.355,81.498C39.615,81.628 39.941,81.645 40.218,81.482C39.908,82.003 39.566,82.508 39.355,83.061C39.143,83.631 39.045,84.266 39.257,84.836C39.289,84.934 39.338,85.032 39.42,85.097C39.566,85.227 39.794,85.211 39.973,85.097C40.136,84.999 40.25,84.836 40.364,84.673C41.374,83.208 42.074,81.677 43.149,80.261C43.214,80.163 43.279,80.065 43.344,79.968C43.523,79.316 43.702,78.388 44.028,77.916L44.028,77.883C43.572,78.372 43.1,78.86 42.644,79.332Z" style="fill:rgb(174,106,83);fill-opacity:0.71;fill-rule:nonzero;"/>
    <path d="M32.158,144.077C32.516,143.328 31.751,142.368 31.279,141.863C31.067,141.619 30.823,141.407 30.578,141.195C30.676,141.358 30.758,141.521 30.839,141.684C31.034,142.107 31.165,142.596 31.051,143.052C30.823,143.915 29.748,144.354 29.52,145.234C29.422,145.592 29.504,145.934 29.699,146.227C29.992,146.178 30.22,145.966 30.416,145.755C30.871,145.282 31.897,144.647 32.158,144.077Z" style="fill:rgb(174,106,83);fill-opacity:0.71;fill-rule:nonzero;"/>
    <path d="M5.03,81.01C4.964,80.863 4.916,80.701 4.883,80.554C4.541,79.105 4.199,77.672 3.857,76.223C3.141,79.186 4.492,82.215 5.03,85.227C5.095,85.26 5.16,85.293 5.241,85.293C5.42,85.26 5.453,84.999 5.42,84.82C5.192,83.339 4.834,81.873 4.525,80.408C4.655,80.619 4.818,80.847 5.03,81.01Z" style="fill:rgb(174,106,83);fill-opacity:0.71;fill-rule:nonzero;"/>
    <path d="M28.967,133.428C28.935,133.574 28.886,133.721 28.837,133.867C28.397,135.251 27.681,136.554 27.583,138.003C27.567,138.199 27.567,138.394 27.665,138.557C27.779,138.785 28.039,138.883 28.267,138.997C28.397,139.062 28.544,139.143 28.674,139.225C27.974,137.694 28.463,135.675 28.821,134.144C28.853,133.9 28.902,133.672 28.967,133.428Z" style="fill:rgb(174,106,83);fill-opacity:0.71;fill-rule:nonzero;"/>
    <path d="M1.335,80.49C1.351,80.604 1.384,80.718 1.416,80.816C1.465,80.995 1.547,81.158 1.628,81.304C1.514,81.028 1.416,80.767 1.335,80.49Z" style="fill:rgb(174,106,83);fill-opacity:0.71;fill-rule:nonzero;"/>
    <path d="M1.806,59.061C1.594,60.95 1.952,63.034 2.017,64.956C2.066,66.649 2.131,68.343 2.148,70.036C2.164,71.697 1.333,73.195 1.089,74.824C1.04,75.149 1.008,75.491 1.008,75.817C1.106,75.198 1.252,74.579 1.464,73.977C1.838,72.935 2.359,71.942 2.62,70.851C3.174,68.424 2.636,65.575 2.604,63.1C2.571,60.934 2.62,58.736 3.19,56.635C4.02,53.574 5.518,51.001 5.502,47.712C5.502,46.165 5.29,44.634 4.997,43.103C4.997,43.136 4.997,43.169 4.981,43.185C4.769,44.862 4.818,46.621 4.476,48.265C3.727,51.913 2.213,55.349 1.806,59.061Z" style="fill:rgb(174,106,83);fill-opacity:0.71;fill-rule:nonzero;"/>
    <path d="M36.571,45.461C36.49,45.624 36.392,45.771 36.278,45.901C36.115,46.129 35.92,46.357 35.887,46.634C35.838,47.073 35.936,47.204 35.562,47.383C35.285,47.513 34.633,47.448 34.324,47.464C33.412,47.513 32.5,47.464 31.588,47.383C30.497,47.285 29.358,47.301 28.25,47.236C25.384,47.057 22.519,46.878 19.653,47.073C16.559,47.285 13.27,47.79 10.192,47.415C10.094,47.399 9.997,47.383 9.931,47.318C9.834,47.236 9.834,47.09 9.817,46.976C9.736,46.406 9.329,45.787 9.117,45.25C8.84,44.549 8.629,43.817 8.498,43.068C8.254,41.602 8.417,40.104 9.068,38.753C9.622,37.645 10.664,36.685 11.071,35.512C11.478,34.323 11.413,32.809 11.478,31.555C11.527,30.66 11.576,29.764 11.641,28.852C11.674,28.282 11.543,27.338 11.82,26.849C12.048,26.442 12.895,26.1 13.286,25.84C13.384,27.501 13.009,29.113 12.96,30.774C12.911,32.581 12.96,34.405 13.139,36.212C13.156,36.391 13.172,36.571 13.253,36.733C13.351,36.961 13.53,37.14 13.709,37.32C15.24,38.801 16.852,40.218 18.497,41.586C19.474,42.4 20.499,43.149 21.558,43.849C22.388,44.419 23.349,45.25 24.31,44.484C25.905,43.198 27.404,41.781 28.885,40.365C29.911,39.388 30.953,38.427 31.898,37.368C32.875,36.261 32.956,35.398 32.858,33.998C32.793,33.151 32.891,32.272 32.891,31.409C32.907,29.618 32.875,27.826 32.777,26.035C32.777,25.954 32.777,25.889 32.81,25.823C32.891,25.709 33.054,25.742 33.184,25.791C33.51,25.889 33.852,26.019 34.063,26.263C34.471,26.735 34.291,27.289 34.291,27.843C34.291,28.641 34.34,29.438 34.356,30.253C34.389,31.686 34.373,33.053 34.536,34.486C34.715,36.066 35.789,37.303 36.457,38.687C37.434,40.625 37.695,43.475 36.571,45.461Z" style="fill:rgb(175,25,0);fill-rule:nonzero;stroke:rgb(36,0,0);stroke-width:0.16px;"/>
    <path d="M8.171,59.662C8.839,57.887 8.839,55.933 8.92,54.044C8.985,52.53 9.506,51.097 9.604,49.582C9.669,48.801 9.702,48.101 9.93,47.352" style="fill:none;fill-rule:nonzero;stroke:rgb(31,0,0);stroke-width:0.16px;"/>
    <path d="M35.626,47.367C35.773,48.019 35.789,48.735 35.87,49.403C35.952,50.152 36.049,50.901 36.228,51.633C36.456,52.578 36.619,53.555 36.717,54.532C36.766,55.037 36.798,55.525 36.798,56.03C36.798,56.437 36.717,56.812 36.815,57.219" style="fill:none;fill-rule:nonzero;stroke:rgb(31,0,0);stroke-width:0.16px;"/>
    <path d="M20.304,38.785C20.418,38.818 20.548,38.85 20.678,38.883C20.792,38.932 20.906,38.981 21.037,39.029C21.15,39.094 21.264,39.16 21.362,39.225C21.46,39.306 21.574,39.371 21.672,39.453C22.062,39.778 22.388,40.186 22.648,40.642C22.909,41.081 23.088,41.57 23.202,42.074C23.316,42.579 23.349,43.1 23.284,43.589L23.284,43.214C23.267,43.084 23.267,42.97 23.251,42.84C23.235,42.71 23.218,42.596 23.186,42.465C23.153,42.351 23.137,42.221 23.105,42.107C22.974,41.619 22.779,41.163 22.535,40.723C22.29,40.283 21.981,39.892 21.623,39.551C21.216,39.225 20.792,38.964 20.304,38.785Z" style="fill:rgb(31,0,0);fill-rule:nonzero;"/>
    <path d="M28.509,18.954C28.851,18.759 29.144,18.514 29.388,18.237C29.649,17.961 29.877,17.651 30.088,17.342C29.974,17.716 29.763,18.058 29.502,18.351C29.372,18.498 29.209,18.628 29.046,18.726C28.883,18.84 28.704,18.921 28.509,18.954Z" style="fill:rgb(31,0,0);fill-rule:nonzero;"/>
    <path d="M20.369,18.285C20.565,18.432 20.727,18.595 20.923,18.741C21.102,18.888 21.297,19.018 21.509,19.148C21.265,19.132 21.02,19.034 20.825,18.871C20.63,18.709 20.467,18.513 20.369,18.285Z" style="fill:rgb(31,0,0);fill-rule:nonzero;"/>
    <path d="M25.075,38.607C24.668,39.031 24.278,39.454 23.968,39.926C23.659,40.399 23.415,40.92 23.187,41.457C23.284,40.887 23.512,40.334 23.838,39.829C24.164,39.34 24.587,38.917 25.075,38.607Z" style="fill:rgb(31,0,0);fill-rule:nonzero;"/>
    <path d="M11.901,51.145C12.015,51.78 12.129,52.415 12.276,53.033C12.357,53.343 12.439,53.652 12.536,53.962C12.634,54.271 12.781,54.548 12.944,54.825C13.106,55.101 13.286,55.378 13.383,55.704C13.432,55.867 13.448,56.03 13.465,56.192C13.481,56.355 13.497,56.518 13.497,56.681C13.53,57.316 13.546,57.967 13.741,58.57C13.839,58.863 13.986,59.14 14.181,59.4C14.376,59.661 14.556,59.938 14.686,60.247C14.816,60.556 14.898,60.882 14.93,61.191C14.979,61.517 14.995,61.843 15.012,62.152C15.06,62.787 15.158,63.422 15.288,64.041C15.419,64.66 15.614,65.278 15.842,65.881C15.581,65.295 15.37,64.676 15.207,64.057C15.044,63.438 14.93,62.804 14.881,62.152C14.816,61.517 14.8,60.866 14.539,60.296C14.409,60.003 14.246,59.742 14.051,59.482C13.855,59.221 13.693,58.928 13.579,58.619C13.367,57.984 13.367,57.332 13.334,56.697C13.318,56.534 13.318,56.371 13.302,56.225C13.286,56.062 13.269,55.916 13.22,55.769C13.139,55.476 12.976,55.199 12.813,54.922C12.732,54.776 12.65,54.646 12.585,54.499C12.52,54.352 12.471,54.19 12.406,54.043C12.309,53.734 12.227,53.424 12.162,53.115C12.064,52.415 11.983,51.78 11.901,51.145Z" style="fill:rgb(31,0,0);fill-rule:nonzero;"/>
    <path d="M33.525,51.193C33.525,51.861 33.508,52.529 33.378,53.18C33.313,53.506 33.215,53.831 33.085,54.141C32.955,54.45 32.825,54.743 32.743,55.069C32.564,55.704 32.483,56.355 32.417,57.023C32.385,57.349 32.352,57.69 32.32,58.016C32.287,58.358 32.19,58.684 32.059,58.993C31.929,59.303 31.734,59.596 31.522,59.856C31.424,59.986 31.31,60.117 31.196,60.231C31.082,60.361 30.968,60.475 30.887,60.605C30.724,60.866 30.789,61.208 30.789,61.533C30.805,61.875 30.789,62.201 30.773,62.527C30.659,63.862 30.317,65.148 30.04,66.435C30.138,65.783 30.284,65.132 30.382,64.481C30.496,63.829 30.594,63.178 30.642,62.51C30.659,62.185 30.659,61.859 30.642,61.517C30.642,61.354 30.626,61.191 30.626,61.012C30.626,60.849 30.659,60.654 30.757,60.508C30.838,60.345 30.968,60.231 31.082,60.1C31.196,59.986 31.294,59.856 31.408,59.726C31.603,59.465 31.782,59.189 31.913,58.895C32.19,58.309 32.19,57.625 32.271,56.974C32.336,56.323 32.417,55.655 32.629,55.004C32.727,54.678 32.873,54.369 33.004,54.076C33.134,53.766 33.248,53.457 33.313,53.147C33.46,52.529 33.476,51.861 33.525,51.193Z" style="fill:rgb(31,0,0);fill-rule:nonzero;"/>
    <path d="M41.537,76.824C41.439,77.248 41.391,77.671 41.342,78.111C41.309,78.534 41.26,78.974 41.163,79.413C41.065,79.853 40.902,80.26 40.707,80.651L40.414,81.237C40.316,81.432 40.234,81.628 40.137,81.823C40.186,81.612 40.267,81.4 40.332,81.205L40.576,80.602C40.739,80.195 40.902,79.804 40.984,79.381C41.081,78.957 41.13,78.534 41.195,78.111C41.228,77.899 41.26,77.687 41.309,77.476C41.391,77.231 41.456,77.02 41.537,76.824Z" style="fill:rgb(31,0,0);fill-rule:nonzero;"/>
    <path d="M32.335,102.438C32.14,102.893 31.928,103.349 31.668,103.789C31.423,104.229 31.13,104.652 30.805,105.027C30.642,105.222 30.463,105.401 30.251,105.564C30.039,105.727 29.828,105.857 29.583,105.938C29.095,106.118 28.606,106.183 28.102,106.264C28.346,106.183 28.59,106.134 28.818,106.052C29.062,105.987 29.29,105.922 29.518,105.808C29.974,105.613 30.332,105.287 30.658,104.896C30.984,104.522 31.277,104.115 31.537,103.691C31.668,103.48 31.798,103.268 31.928,103.056L32.335,102.438Z" style="fill:rgb(31,0,0);fill-rule:nonzero;"/>
    <path d="M16.719,105.612C16.28,105.645 15.824,105.628 15.384,105.531C15.172,105.482 14.944,105.417 14.749,105.27C14.57,105.124 14.456,104.912 14.342,104.717C14.13,104.326 13.951,103.919 13.772,103.512C13.691,103.3 13.609,103.105 13.528,102.893C13.446,102.681 13.381,102.469 13.3,102.258L13.886,103.447C14.081,103.837 14.277,104.228 14.489,104.619C14.586,104.814 14.7,104.993 14.847,105.14C14.993,105.27 15.205,105.352 15.417,105.401C15.628,105.466 15.84,105.498 16.052,105.531C16.28,105.58 16.508,105.596 16.719,105.612Z" style="fill:rgb(31,0,0);fill-rule:nonzero;"/>
    <path d="M1,0C1.081,0.358 1.13,0.733 1.212,1.091L1.423,2.182L1.635,3.257L1.83,4.331C1.765,4.152 1.716,3.973 1.651,3.81L1.505,3.273C1.407,2.915 1.326,2.557 1.261,2.198C1.195,1.84 1.13,1.466 1.098,1.107C1.049,0.733 1.016,0.375 1,0Z" style="fill:rgb(31,0,0);fill-rule:nonzero;"/>
    <path d="M37.678,64.187C37.548,64.138 37.369,64.219 37.255,64.154L37.239,64.154C36.018,64.399 34.992,64.985 33.852,65.473C32.712,65.962 31.54,66.385 30.335,66.613C28.006,67.069 25.645,67.281 23.268,67.281C18.969,67.264 14.621,66.906 10.485,65.701C9.492,65.408 8.564,64.887 7.538,64.692C7.424,64.708 7.57,64.561 7.456,64.561C7.44,64.561 7.408,64.561 7.391,64.578C7.342,64.61 7.294,64.643 7.261,64.692C7.163,64.838 7.147,65.017 7.147,65.18C6.935,71.189 7.098,77.214 7.847,83.19C8.645,89.491 10.225,95.435 12.488,101.346C12.602,101.655 12.716,101.964 12.765,102.29C12.797,102.583 12.765,102.86 12.732,103.153C11.82,112.125 13.335,120.772 15.484,129.386C17.194,130.412 18.985,130.167 20.793,129.858C20.874,127.741 21.102,125.624 21.33,123.524C21.509,121.83 21.704,120.153 21.851,118.459C22.03,116.196 21.672,114.144 21.265,111.995C20.955,110.415 20.679,108.787 20.776,107.175C20.825,106.166 21.216,105.237 21.346,104.244C21.965,99.815 22.291,95.337 22.323,90.875C22.356,86.43 21.932,82.001 21.851,77.572C22.16,77.572 23.04,77.376 23.154,77.784C23.186,77.865 23.17,77.946 23.154,78.028C22.747,81.317 22.437,84.639 22.437,87.961C22.437,90.436 22.519,93.123 23.023,95.532C23.382,97.259 23.382,99.147 23.512,100.939C23.707,103.528 24.489,106.019 24.359,108.641C24.212,111.523 23.626,114.421 23.805,117.32C23.984,120.267 24.293,123.247 24.538,126.194C24.619,127.285 24.668,128.392 24.684,129.483C24.847,129.5 25.01,129.516 25.189,129.549C26.02,129.711 26.85,130.037 27.697,130.004C28.478,129.972 29.211,129.597 29.911,129.223C30.53,126.39 31.133,123.556 31.686,120.723C32.191,118.15 32.696,115.561 32.94,112.956C33.054,111.718 33.184,110.481 32.94,109.259C32.826,108.706 32.63,108.168 32.533,107.615C32.403,106.801 32.582,105.872 32.647,105.042C32.712,104.293 32.533,103.642 32.533,102.893C32.533,102.567 32.663,102.257 32.777,101.964C35.138,96.151 36.49,89.98 37.239,83.776C37.646,80.454 38.004,77.116 38.167,73.778C38.248,72.182 38.265,70.586 38.379,69.007C38.493,67.623 38.118,66.043 37.923,64.675C37.923,64.464 37.858,64.236 37.678,64.187Z" style="fill:rgb(227,67,67);fill-rule:nonzero;stroke:rgb(36,0,0);stroke-width:0.16px;"/>
    <path d="M29.472,8.5C29.977,8.467 31.475,8.646 31.378,8.239C31.003,6.872 30.743,5.65 29.945,4.413C29.358,3.55 28.642,2.719 27.714,2.198C26.9,1.759 25.841,1.645 24.929,1.547C23.008,1.351 21.021,2.019 19.784,3.55C19.1,4.396 18.677,5.308 18.465,6.383C18.302,7.246 18.204,8.125 17.862,8.94C19.214,9.281 20.614,9.2 21.998,9.102C22.992,9.037 23.985,8.956 24.978,8.826C25.646,8.728 26.248,8.565 26.9,8.451C26.932,8.451 26.965,8.435 26.997,8.418C27.079,8.37 27.095,8.272 27.111,8.19C27.274,7.262 27.47,6.432 27.486,5.487C27.763,6.383 27.893,7.327 27.893,8.272C27.893,8.304 27.893,8.337 27.909,8.37C27.942,8.402 27.991,8.402 28.039,8.402L28.691,8.402C28.707,7.669 28.723,6.937 28.561,6.236C28.87,6.969 29.114,7.751 29.277,8.532C29.31,8.516 29.375,8.5 29.472,8.5Z" style="fill-rule:nonzero;"/>
    <path d="M27.663,18.757C27.94,18.464 28.168,18.301 28.494,17.91C28.526,17.878 28.559,17.829 28.608,17.78C28.656,17.715 28.722,17.633 28.803,17.52C28.868,17.438 28.95,17.324 29.015,17.21C29.096,17.096 29.177,16.95 29.243,16.836C29.324,16.705 29.373,16.591 29.422,16.51C29.471,16.429 29.487,16.38 29.487,16.38C29.487,16.38 29.503,16.331 29.552,16.266C29.584,16.184 29.633,16.087 29.682,15.973C29.731,15.859 29.78,15.728 29.829,15.598C29.878,15.468 29.927,15.338 29.959,15.24C30.008,15.061 30.057,14.914 30.089,14.8C30.122,14.686 30.138,14.605 30.154,14.54C30.268,14.051 30.252,13.774 30.317,13.367C30.236,13.774 30.106,14.019 29.943,14.475C29.927,14.523 29.894,14.605 29.845,14.719C29.813,14.833 29.747,14.963 29.682,15.142C29.633,15.24 29.584,15.354 29.536,15.484C29.487,15.598 29.422,15.728 29.373,15.842C29.324,15.956 29.275,16.054 29.243,16.119C29.21,16.184 29.194,16.233 29.194,16.233C29.194,16.233 29.161,16.282 29.129,16.363C29.08,16.445 29.031,16.559 28.966,16.689C28.901,16.819 28.819,16.95 28.754,17.064C28.689,17.194 28.608,17.292 28.559,17.389C28.494,17.503 28.428,17.601 28.396,17.666C28.347,17.731 28.331,17.78 28.298,17.813C28.054,18.187 27.924,18.448 27.663,18.757Z" style="fill:white;fill-opacity:0.1;fill-rule:nonzero;"/>
    <path d="M25.481,39.291C25.563,39.161 25.661,39.112 25.791,38.982C25.856,38.917 26.068,38.705 26.263,38.542C26.459,38.363 26.638,38.217 26.638,38.217C26.638,38.217 26.817,38.07 27.028,37.907C27.24,37.744 27.468,37.582 27.549,37.516C27.696,37.402 27.761,37.321 27.908,37.256C27.761,37.305 27.647,37.305 27.484,37.37C27.387,37.402 27.11,37.516 26.882,37.663C26.638,37.81 26.459,37.972 26.459,37.972C26.459,37.972 26.263,38.135 26.084,38.347C25.905,38.559 25.742,38.803 25.693,38.901C25.563,39.047 25.547,39.161 25.481,39.291Z" style="fill:white;fill-opacity:0.1;fill-rule:nonzero;"/>
    <path d="M18.787,38.834C18.901,38.85 18.966,38.915 19.08,38.964C19.113,38.981 19.178,39.013 19.259,39.046C19.341,39.078 19.422,39.127 19.504,39.16C19.666,39.241 19.829,39.306 19.829,39.306C19.829,39.306 19.976,39.388 20.139,39.469C20.22,39.518 20.302,39.567 20.383,39.599C20.464,39.648 20.513,39.681 20.546,39.697C20.66,39.762 20.741,39.778 20.823,39.844C20.757,39.762 20.725,39.681 20.643,39.567C20.611,39.534 20.578,39.485 20.513,39.42C20.448,39.355 20.367,39.29 20.285,39.225C20.122,39.094 19.959,39.013 19.959,39.013C19.959,39.013 19.797,38.932 19.601,38.867C19.504,38.834 19.406,38.818 19.308,38.801C19.227,38.785 19.145,38.785 19.113,38.785C18.983,38.818 18.901,38.85 18.787,38.834Z" style="fill:white;fill-opacity:0.1;fill-rule:nonzero;"/>
    <path d="M36.504,29.848C36.764,30.157 36.878,30.418 37.09,30.857C37.106,30.89 37.123,30.939 37.155,31.02C37.188,31.085 37.22,31.183 37.269,31.313C37.383,31.622 37.562,32.144 37.676,32.6C37.79,33.056 37.872,33.43 37.872,33.43C37.872,33.43 38.149,34.7 38.311,35.417C38.393,35.775 38.442,36.003 38.474,36.117C38.588,36.589 38.686,36.866 38.735,37.257C38.686,36.85 38.702,36.573 38.637,36.084C38.621,35.97 38.605,35.726 38.539,35.368C38.491,35.01 38.409,34.505 38.328,34.098C38.246,33.691 38.165,33.365 38.165,33.365C38.165,33.365 38.083,32.974 37.953,32.518C37.888,32.29 37.807,32.046 37.725,31.818C37.644,31.59 37.546,31.378 37.465,31.232C37.4,31.102 37.351,31.02 37.318,30.939C37.286,30.874 37.253,30.825 37.22,30.792C36.976,30.352 36.764,30.157 36.504,29.848Z" style="fill:white;fill-opacity:0.1;fill-rule:nonzero;"/>
    <path d="M30.398,55.607C30.48,55.786 30.496,55.966 30.496,56.145C30.496,56.324 30.464,56.503 30.415,56.731C30.415,56.764 30.398,56.812 30.382,56.894C30.366,56.959 30.333,57.057 30.285,57.187C30.252,57.252 30.219,57.35 30.171,57.464C30.122,57.561 30.073,57.675 30.024,57.773C29.926,57.969 29.829,58.131 29.829,58.131C29.829,58.131 29.747,58.262 29.649,58.441C29.552,58.62 29.422,58.832 29.34,58.978C29.161,59.304 29.08,59.532 29.031,59.646C28.852,60.118 28.868,60.411 28.852,60.818C28.868,60.606 28.917,60.444 28.982,60.281C29.047,60.118 29.128,59.939 29.242,59.727C29.291,59.629 29.405,59.418 29.601,59.108C29.698,58.962 29.812,58.75 29.926,58.587C30.024,58.408 30.105,58.278 30.105,58.278C30.105,58.278 30.203,58.115 30.301,57.903C30.35,57.789 30.398,57.675 30.447,57.561C30.48,57.447 30.529,57.35 30.545,57.268C30.578,57.122 30.61,57.024 30.61,56.943C30.627,56.861 30.627,56.812 30.627,56.764C30.643,56.503 30.627,56.308 30.578,56.129C30.561,55.949 30.496,55.786 30.398,55.607Z" style="fill:white;fill-opacity:0.1;fill-rule:nonzero;"/>
    <path d="M28.201,64.074C28.25,64.27 28.201,64.449 28.12,64.612C28.038,64.774 27.941,64.921 27.778,65.067C27.729,65.116 27.631,65.214 27.403,65.361C27.322,65.409 27.175,65.491 27.045,65.572C26.915,65.637 26.817,65.703 26.817,65.703C26.817,65.703 26.459,65.882 26.263,65.996C25.938,66.175 25.742,66.289 25.628,66.354C25.205,66.614 25.01,66.81 24.651,67.005C25.01,66.826 25.303,66.777 25.742,66.566C25.856,66.517 26.068,66.419 26.394,66.256C26.589,66.159 26.964,65.963 26.964,65.963C26.964,65.963 27.078,65.914 27.208,65.833C27.338,65.751 27.485,65.654 27.566,65.589C27.794,65.409 27.892,65.296 27.941,65.23C28.104,65.019 28.169,64.823 28.201,64.644C28.25,64.465 28.234,64.286 28.201,64.074Z" style="fill:white;fill-opacity:0.1;fill-rule:nonzero;"/>
    <path d="M42.09,54.418C42.236,54.809 42.253,55.086 42.367,55.558C42.383,55.59 42.383,55.656 42.399,55.721C42.416,55.802 42.432,55.9 42.464,56.03C42.481,56.128 42.513,56.258 42.53,56.405C42.562,56.551 42.578,56.698 42.611,56.844C42.627,56.991 42.66,57.121 42.66,57.202C42.676,57.3 42.676,57.349 42.676,57.349C42.676,57.349 42.676,57.398 42.692,57.479C42.709,57.561 42.709,57.675 42.725,57.805C42.758,58.049 42.774,58.359 42.79,58.587C42.806,58.766 42.823,58.912 42.823,59.042C42.823,59.156 42.839,59.254 42.839,59.303C42.855,59.792 42.904,60.068 42.872,60.475C42.92,60.068 43.018,59.792 43.051,59.303C43.051,59.238 43.067,59.156 43.067,59.026C43.083,58.912 43.083,58.749 43.083,58.57C43.083,58.342 43.067,58.033 43.051,57.772C43.034,57.642 43.018,57.528 43.018,57.447C43.002,57.365 43.002,57.316 43.002,57.316C43.002,57.316 42.985,57.251 42.985,57.154C42.969,57.056 42.953,56.926 42.92,56.779C42.888,56.633 42.855,56.486 42.823,56.339C42.79,56.193 42.758,56.063 42.725,55.965C42.692,55.835 42.66,55.737 42.627,55.656C42.595,55.574 42.578,55.525 42.578,55.493C42.399,55.037 42.236,54.792 42.09,54.418Z" style="fill:white;fill-opacity:0.1;fill-rule:nonzero;"/>
    <path d="M33.964,78.518C33.915,78.925 33.866,79.202 33.785,79.674C33.752,79.853 33.703,80.227 33.622,80.683C33.508,81.432 33.362,82.312 33.215,83.158C33.068,84.005 32.922,84.803 32.808,85.389C32.694,85.975 32.612,86.366 32.612,86.366C32.612,86.366 32.531,86.741 32.417,87.327C32.287,87.913 32.124,88.711 31.929,89.541C31.733,90.372 31.522,91.251 31.342,91.968C31.261,92.277 31.196,92.538 31.163,92.668C31.049,93.14 30.984,93.417 30.87,93.808C30.984,93.417 31.098,93.156 31.261,92.7C31.31,92.57 31.391,92.326 31.489,92.016C31.717,91.3 31.961,90.437 32.189,89.607C32.417,88.776 32.596,87.978 32.726,87.392C32.857,86.806 32.938,86.415 32.938,86.415C32.938,86.415 33.02,86.04 33.134,85.438C33.248,84.852 33.378,84.038 33.508,83.191C33.638,82.344 33.736,81.449 33.817,80.7C33.834,80.602 33.834,80.52 33.85,80.423C33.85,80.341 33.866,80.26 33.866,80.179C33.866,80.113 33.883,80.032 33.883,79.983C33.899,79.853 33.899,79.755 33.899,79.69C33.931,79.202 33.931,78.908 33.964,78.518Z" style="fill:white;fill-opacity:0.1;fill-rule:nonzero;"/>
    <path d="M11.834,80.455C11.883,80.862 11.867,81.139 11.915,81.628C11.915,81.709 11.932,81.839 11.964,82.116C11.997,82.409 12.046,82.8 12.095,83.223C12.16,83.647 12.225,84.103 12.29,84.526C12.437,85.356 12.567,86.057 12.567,86.057C12.567,86.057 12.681,86.626 12.844,87.359C13.006,88.092 13.251,88.971 13.43,89.59C13.528,89.948 13.609,90.176 13.641,90.29C13.788,90.763 13.902,91.007 14.016,91.397C13.902,91.007 13.869,90.73 13.772,90.241C13.739,90.127 13.69,89.9 13.625,89.541C13.495,88.906 13.3,88.027 13.137,87.294C12.99,86.561 12.86,85.991 12.86,85.991C12.86,85.991 12.73,85.308 12.567,84.477C12.404,83.647 12.225,82.67 12.111,82.083C12.062,81.807 12.029,81.676 12.013,81.595C11.964,81.123 11.899,80.862 11.834,80.455Z" style="fill:white;fill-opacity:0.1;fill-rule:nonzero;"/>
    <path d="M16.297,111.719C16.281,112.126 16.2,112.403 16.167,112.891C16.167,112.973 16.151,113.103 16.134,113.396C16.118,113.64 16.118,114.031 16.118,114.373C16.118,114.715 16.134,114.992 16.134,114.992C16.134,114.992 16.151,115.22 16.151,115.529C16.167,115.822 16.2,116.197 16.216,116.457C16.248,116.832 16.281,117.06 16.297,117.174C16.362,117.662 16.46,117.923 16.493,118.33C16.46,117.923 16.493,117.646 16.493,117.157C16.493,117.043 16.493,116.799 16.476,116.441C16.46,115.92 16.427,114.975 16.427,114.975C16.427,114.975 16.395,113.852 16.362,113.38C16.346,113.103 16.346,112.973 16.346,112.891C16.346,112.403 16.281,112.126 16.297,111.719Z" style="fill:white;fill-opacity:0.1;fill-rule:nonzero;"/>
    <path d="M43.377,72.965C43.247,73.339 43.149,73.649 43.247,74.153C43.263,74.235 43.296,74.382 43.377,74.642C43.377,74.658 43.393,74.707 43.393,74.707C43.393,74.707 43.393,74.724 43.41,74.74C43.41,74.756 43.41,74.756 43.426,74.772C43.524,75.082 43.605,75.326 43.638,75.44C43.703,75.668 43.752,75.847 43.752,76.01C43.768,76.189 43.735,76.352 43.638,76.531C43.735,76.352 43.833,76.205 43.882,76.01C43.931,75.831 43.947,75.619 43.914,75.359C43.898,75.228 43.833,74.951 43.735,74.642C43.735,74.626 43.735,74.626 43.719,74.61C43.719,74.593 43.703,74.577 43.703,74.577C43.703,74.577 43.686,74.528 43.686,74.512C43.638,74.382 43.605,74.284 43.589,74.219C43.572,74.153 43.556,74.088 43.54,74.056C43.475,73.828 43.41,73.649 43.377,73.486C43.328,73.339 43.328,73.16 43.377,72.965Z" style="fill:white;fill-opacity:0.1;fill-rule:nonzero;"/>
    <path d="M31.588,37.743C31.67,37.678 31.735,37.596 31.816,37.531C32.256,37.092 32.63,36.603 32.858,36.001C33.103,35.317 32.94,34.698 32.875,33.998C32.81,33.151 32.907,32.272 32.907,31.409C32.924,29.618 32.891,27.826 32.793,26.035C32.793,25.954 32.793,25.889 32.826,25.823C32.907,25.709 33.07,25.742 33.2,25.791C33.526,25.889 33.868,26.019 34.08,26.263C34.487,26.735 34.308,27.289 34.308,27.843C34.308,28.641 34.356,29.438 34.373,30.253C34.405,31.686 34.389,33.053 34.552,34.486C34.731,36.066 35.806,37.303 36.473,38.687C37.434,40.641 37.695,43.507 36.571,45.478C36.49,45.64 36.392,45.787 36.278,45.917C36.115,46.145 35.92,46.373 35.887,46.65C35.838,47.09 35.936,47.22 35.562,47.399C35.285,47.529 34.633,47.464 34.324,47.48C33.412,47.529 32.5,47.48 31.588,47.399C30.497,47.301 29.358,47.318 28.25,47.252C25.384,47.073 22.519,46.894 19.653,47.09C16.559,47.301 13.27,47.806 10.192,47.432C10.094,47.415 9.997,47.399 9.931,47.334C9.834,47.252 9.834,47.106 9.817,46.992C9.736,46.422 9.329,45.803 9.117,45.266C8.84,44.566 8.629,43.833 8.498,43.084C8.254,41.618 8.417,40.12 9.068,38.769C9.622,37.661 10.664,36.701 11.071,35.528C11.478,34.34 11.413,32.825 11.478,31.572C11.527,30.676 11.576,29.78 11.641,28.868C11.674,28.299 11.543,27.354 11.82,26.866C12.048,26.459 12.895,26.116 13.286,25.856C13.384,27.517 13.009,29.129 12.96,30.79C12.928,31.995 12.928,33.232 13.025,34.421C13.107,35.382 12.993,36.522 13.725,37.287C14.084,37.661 14.588,37.873 15.093,38.052C17.308,38.915 19.555,39.909 21.949,40.12C23.105,40.218 24.277,40.169 25.433,39.99C26.475,39.827 27.632,39.616 28.625,39.29C29.683,38.964 30.742,38.492 31.588,37.743Z" style="fill:rgb(227,67,67);fill-rule:nonzero;stroke:rgb(36,0,0);stroke-width:0.16px;"/>
    <path d="M36.474,38.672C35.806,37.288 34.731,36.05 34.552,34.471C34.389,33.054 34.406,31.67 34.373,30.237C34.357,29.439 34.308,28.641 34.308,27.827C34.308,27.273 34.487,26.72 34.08,26.247C33.852,25.987 33.51,25.873 33.201,25.775C33.07,25.726 32.908,25.71 32.826,25.808C32.777,25.873 32.777,25.954 32.794,26.019C32.891,27.811 32.94,29.602 32.908,31.393C32.891,32.24 32.81,33.135 32.875,33.982C32.973,35.236 32.908,36.066 32.191,37.011C32.615,36.571 32.973,36.083 33.266,35.545C35.35,37.027 37.125,40.056 36.49,42.677C35.252,47.888 28.267,46.227 24.522,45.673C21.493,45.234 18.481,46.699 15.452,46.618C13.172,46.553 10.909,45.788 9.329,44.094C8.792,43.508 8.482,42.824 8.385,42.107C8.401,42.433 8.434,42.743 8.482,43.068C8.596,43.817 8.824,44.55 9.101,45.25C9.313,45.788 9.72,46.406 9.801,46.976C9.818,47.106 9.834,47.237 9.915,47.318C9.981,47.383 10.078,47.4 10.176,47.416C13.254,47.79 16.543,47.286 19.637,47.074C22.503,46.879 25.385,47.058 28.234,47.237C29.342,47.302 30.465,47.302 31.572,47.383C32.484,47.465 33.396,47.514 34.308,47.465C34.617,47.448 35.285,47.514 35.545,47.383C35.92,47.204 35.822,47.074 35.871,46.634C35.904,46.357 36.099,46.129 36.262,45.902C36.36,45.755 36.457,45.608 36.555,45.462C37.695,43.475 37.434,40.626 36.474,38.672Z" style="fill-opacity:0.28;fill-rule:nonzero;"/>
    <path d="M11.004,37.353C11.265,37.223 11.558,37.126 11.704,36.865C11.802,36.702 11.818,36.523 11.835,36.344C11.981,34.83 12.111,33.299 12.258,31.785C12.372,30.498 12.698,29.391 12.926,28.137C13.056,27.404 13.186,26.655 13.219,25.906C12.812,26.151 12.046,26.476 11.818,26.867C11.541,27.356 11.672,28.3 11.639,28.87C11.574,29.765 11.525,30.661 11.476,31.573C11.395,32.827 11.476,34.341 11.069,35.53C10.662,36.702 9.62,37.663 9.066,38.77C8.806,39.291 8.627,39.845 8.513,40.399C8.871,39.112 9.767,37.94 11.004,37.353Z" style="fill-opacity:0.28;fill-rule:nonzero;"/>
    <path d="M7.278,64.676C7.18,64.823 7.164,65.002 7.164,65.165C6.952,71.173 7.115,77.198 7.864,83.174C8.662,89.476 10.241,95.419 12.505,101.33C12.618,101.639 12.733,101.949 12.781,102.274C12.814,102.567 12.781,102.844 12.749,103.137C11.837,112.11 13.351,120.756 15.501,129.37C15.973,129.647 16.429,129.826 16.917,129.956C15.631,124.908 14.752,119.746 14.279,114.552C14.198,113.689 14.133,112.826 14.133,111.947C14.133,110.807 14.312,109.651 15.077,108.771C16.071,107.632 17.536,107.957 18.627,107.127C18.806,106.98 18.985,106.785 18.953,106.557C18.937,106.394 18.839,106.248 18.741,106.134C18.025,105.271 16.917,104.782 16.185,103.935C14.849,102.372 14.442,99.522 13.856,97.601C13.075,95.061 12.407,92.472 11.837,89.883C10.404,84.281 9.541,78.094 9.801,72.345C9.818,72.02 9.834,71.678 9.997,71.401C10.306,70.896 13.107,71.336 13.335,71.727C12.651,70.522 10.99,70.229 10.127,69.154C10.632,69.105 11.12,69.056 11.625,69.007C12.065,68.959 12.13,68.6 12.537,68.486C12.895,68.389 13.856,68.307 14.214,68.437C12.993,68.014 11.593,67.656 10.746,66.63C12.977,67.2 15.24,67.607 17.536,67.884C16.934,68.258 16.299,68.584 15.647,68.845C16.006,69.268 16.315,69.724 16.559,70.229C16.689,70.505 16.803,70.831 16.641,71.092C16.478,71.336 16.136,71.368 15.875,71.515C15.615,71.662 15.484,72.118 15.778,72.199C14.475,71.922 13.188,71.629 11.886,71.352C13.107,71.613 14.524,72.948 15.403,73.762C16.461,74.755 17.357,75.602 17.911,76.986C19.067,79.803 18.871,82.913 19.116,85.877C19.458,89.834 19.783,93.807 20.125,97.764C20.272,99.522 20.369,101.281 20.435,103.056C20.451,103.691 20.565,104.375 20.418,105.01C20.223,105.873 19.572,106.541 19.376,107.404C19.197,108.267 19.523,109.13 19.767,109.976C20.711,113.07 20.337,115.871 20.321,118.997C20.304,122.661 20.223,126.341 20.076,130.005C20.337,129.972 20.581,129.924 20.842,129.875C20.923,127.758 21.151,125.641 21.379,123.541C21.558,121.847 21.754,120.17 21.9,118.476C22.079,116.213 21.721,114.161 21.314,112.012C21.005,110.432 20.728,108.804 20.825,107.192C20.874,106.182 21.265,105.254 21.395,104.261C22.014,99.832 22.34,95.354 22.372,90.892C22.405,86.447 21.982,82.018 21.9,77.589C22.209,77.589 23.089,77.393 23.203,77.8C23.235,77.882 23.219,77.963 23.203,78.045C22.796,81.334 22.486,84.656 22.486,87.978C22.486,90.453 22.568,93.139 23.073,95.549C23.431,97.275 23.431,99.164 23.561,100.955C23.756,103.544 24.538,106.036 24.408,108.657C24.261,111.54 23.675,114.438 23.854,117.337C24.033,120.284 24.343,123.264 24.587,126.211C24.668,127.302 24.717,128.409 24.733,129.5C24.896,129.517 25.059,129.533 25.238,129.565C25.368,129.598 25.515,129.614 25.645,129.663C25.662,127.725 25.385,125.706 25.352,124.566C25.157,119.209 24.717,113.803 25.45,108.462C26.573,108.918 28.332,109.211 29.26,110.025C29.635,110.351 29.846,110.823 30.009,111.295C30.4,112.517 30.449,113.819 30.449,115.106C30.465,119.958 29.895,124.794 29.26,129.614C29.504,129.5 29.732,129.386 29.96,129.256C30.579,126.423 31.182,123.589 31.735,120.756C32.24,118.183 32.745,115.594 32.989,112.989C33.103,111.751 33.233,110.514 32.989,109.293C32.875,108.739 32.68,108.202 32.582,107.648C32.452,106.834 32.631,105.906 32.696,105.075C32.761,104.326 32.582,103.675 32.582,102.926C32.582,102.6 32.712,102.291 32.826,101.998C33.999,99.099 34.927,96.103 35.66,93.058C36.181,88.482 36.767,83.89 37.239,79.315C37.565,76.221 37.825,73.111 37.662,70.017C37.125,72.801 36.588,75.586 36.311,78.403C36.116,80.373 36.067,82.344 35.855,84.314C35.073,91.479 32.224,98.22 29.39,104.847C29.26,105.14 29.13,105.45 28.853,105.612C28.641,105.743 28.365,105.759 28.104,105.743C26.459,105.612 25.873,104.749 25.759,103.333C25.596,101.476 25.303,99.62 25.124,97.748C24.799,94.035 24.701,90.306 24.847,86.577C24.961,83.614 24.815,80.178 26.15,77.491C27.355,75.065 29.016,72.801 31.182,71.141C32.11,70.424 33.201,69.936 34.178,69.3C35.025,68.763 35.904,68.405 36.816,67.982C37.076,67.868 37.402,67.77 37.662,67.64C37.565,67.119 37.467,66.614 37.435,66.093C37.435,65.914 37.418,65.734 37.353,65.572C37.141,65.132 36.523,65.148 36.05,65.213C36.311,64.904 36.571,64.594 36.832,64.285C36.751,64.301 36.669,64.334 36.588,64.367C36.539,64.383 36.474,64.399 36.425,64.415C36.344,64.448 36.262,64.464 36.181,64.497C36.132,64.513 36.083,64.529 36.018,64.562C35.936,64.594 35.855,64.627 35.774,64.66C35.725,64.676 35.676,64.709 35.627,64.725C35.546,64.757 35.464,64.79 35.383,64.823C35.334,64.839 35.285,64.871 35.236,64.888C35.155,64.92 35.057,64.969 34.976,65.002C34.959,65.018 34.927,65.018 34.911,65.034C34.731,65.116 34.569,65.197 34.39,65.278C34.357,65.295 34.324,65.311 34.276,65.327C34.145,65.392 33.999,65.441 33.868,65.506C33.608,65.62 33.331,65.734 33.071,65.832C33.559,66.044 34.129,66.109 34.65,65.979C33.738,66.679 32.81,67.363 31.898,68.063C33.282,67.558 34.683,67.037 36.067,66.532C35.774,66.793 35.497,67.053 35.204,67.33C35.839,67.167 36.506,67.119 37.158,67.216C36.799,67.167 35.757,67.998 35.415,68.177C34.78,68.519 34.145,68.861 33.526,69.203C32.273,69.887 31.035,70.603 29.83,71.368C28.12,72.476 25.482,75.57 23.252,75.293C22.616,75.211 22.063,74.821 21.656,74.332C21.249,73.844 20.956,73.274 20.679,72.704C20.207,71.759 19.751,70.815 19.278,69.854C19.213,69.724 19.148,69.594 19.165,69.463C19.197,69.235 19.425,69.089 19.637,68.975C20.646,68.454 21.623,68.323 22.731,68.079C23.577,67.9 24.457,67.819 25.32,67.688C25.971,67.591 27.078,67.2 27.713,67.33C27.436,67.281 27.16,67.216 26.899,67.167C26.297,67.216 25.694,67.265 25.092,67.298C24.815,67.314 24.538,67.314 24.261,67.33L24.18,67.33C23.887,67.33 23.577,67.346 23.284,67.33C18.985,67.314 14.638,66.956 10.502,65.751C9.508,65.458 8.58,64.936 7.554,64.741C7.44,64.757 7.587,64.611 7.473,64.611C7.457,64.611 7.424,64.611 7.408,64.627C7.359,64.594 7.31,64.627 7.278,64.676Z" style="fill-opacity:0.28;fill-rule:nonzero;"/>
</svg>
