<?xml version="1.0" encoding="UTF-8" standalone="no"?>
<!DOCTYPE svg PUBLIC "-//W3C//DTD SVG 1.1//EN" "http://www.w3.org/Graphics/SVG/1.1/DTD/svg11.dtd">
<svg width="100%" height="100%" viewBox="0 0 44 44" version="1.1" xmlns="http://www.w3.org/2000/svg" xmlns:xlink="http://www.w3.org/1999/xlink" xml:space="preserve" xmlns:serif="http://www.serif.com/" style="fill-rule:evenodd;clip-rule:evenodd;stroke-linejoin:round;stroke-miterlimit:2;">
    <path d="M19.601,11.239C16.926,12.147 14.333,13.426 12.201,15.297C11.775,15.668 11.046,16.184 10.95,16.775C10.874,17.27 11.032,17.882 11.081,18.378C11.184,19.43 11.28,20.489 11.397,21.548C11.624,23.652 11.837,25.77 12.023,27.881C12.112,28.94 12.222,29.993 12.332,31.052C12.36,31.299 12.38,31.547 12.408,31.787C12.435,32.069 12.422,32.392 12.525,32.661C12.724,33.17 13.364,33.624 13.776,33.961C14.828,34.827 16.018,35.515 17.249,36.092C17.937,36.416 18.638,36.697 19.347,36.959C20,37.2 20.639,37.447 21.334,37.475L21.334,10.889C20.736,10.902 20.172,11.047 19.601,11.239Z" style="fill:rgb(220,219,225);fill-rule:nonzero;"/>
    <path d="M31.387,16.24C30.438,15.242 29.235,14.397 28.072,13.661C26.835,12.877 25.528,12.21 24.166,11.66C23.444,11.371 22.688,11.034 21.918,10.931C21.711,10.903 21.512,10.889 21.313,10.896L21.313,37.475L21.601,37.475C22.365,37.434 23.121,37.111 23.829,36.85C24.531,36.588 25.219,36.292 25.892,35.949C27.082,35.35 28.203,34.615 29.193,33.714C29.64,33.301 30.218,32.868 30.197,32.208C30.307,31.692 30.301,31.128 30.356,30.605C30.417,30.069 30.466,29.533 30.514,29.003C30.617,27.965 30.72,26.919 30.823,25.881C31.029,23.77 31.236,21.659 31.442,19.547C31.49,19.025 31.545,18.509 31.593,17.986C31.662,17.367 31.862,16.728 31.387,16.24Z" style="fill:rgb(209,208,214);fill-rule:nonzero;"/>
    <path d="M33.994,16.197C33.98,15.633 33.519,15.276 33.134,14.932C32.728,14.567 32.309,14.21 31.875,13.866C31.016,13.178 30.108,12.546 29.173,11.975C27.192,10.758 25.04,9.747 22.819,9.059C21.643,8.695 20.481,8.853 19.339,9.238C18.198,9.623 17.077,10.056 15.983,10.565C14.051,11.452 12.208,12.546 10.571,13.907C10.186,14.23 9.808,14.567 9.45,14.918C9.079,15.283 8.687,15.633 8.659,16.19C8.652,16.39 8.659,16.589 8.659,16.789C8.666,17.669 9.546,18.322 10.159,18.859C10.901,19.512 11.713,20.096 12.552,20.626C14.484,21.843 16.588,22.765 18.727,23.542C19.91,23.968 21.051,24.346 22.331,24.119C23.506,23.906 24.689,23.404 25.79,22.957C27.784,22.146 29.702,21.121 31.408,19.801C32.185,19.202 32.941,18.556 33.595,17.82C33.966,17.408 34.001,17.002 34.001,16.493C33.994,16.397 33.994,16.293 33.994,16.197Z" style="fill:rgb(231,224,231);fill-rule:nonzero;"/>
    <path d="M33.622,17.072C31.091,19.788 27.502,21.865 22.812,23.288C21.911,23.563 20.817,23.543 19.937,23.247C15.123,21.652 11.369,19.63 9.01,17.023C8.522,16.487 8.542,15.854 9.051,15.325C11.616,12.643 15.213,10.566 19.841,9.074C20.783,8.771 21.932,8.771 22.874,9.081C27.206,10.511 30.693,12.643 33.553,15.318C34.124,15.847 34.138,16.521 33.622,17.072Z" style="fill:rgb(245,246,251);fill-rule:nonzero;"/>
    <path d="M31.668,16.941C31.421,17.209 31.159,17.471 30.884,17.718C28.821,19.63 26.057,21.115 22.57,22.167C21.814,22.394 20.892,22.381 20.15,22.133C16.594,20.95 13.713,19.492 11.719,17.663C11.45,17.416 11.189,17.161 10.955,16.893C10.55,16.439 10.563,15.91 10.99,15.463C13.156,13.207 16.182,11.46 20.067,10.202C20.865,9.947 21.828,9.947 22.625,10.209C26.27,11.412 29.206,13.207 31.606,15.456C32.095,15.903 32.102,16.473 31.668,16.941Z" style="fill:rgb(231,222,227);fill-rule:nonzero;"/>
    <path d="M30.885,17.717C30.817,17.779 30.748,17.848 30.672,17.91C30.37,18.178 30.06,18.44 29.723,18.694C27.825,20.145 25.439,21.3 22.571,22.167C22.489,22.194 22.399,22.215 22.317,22.229C21.616,22.387 20.811,22.352 20.151,22.125C16.595,20.943 13.714,19.485 11.727,17.656C13.817,15.744 16.602,14.231 20.075,13.11C20.873,12.855 21.836,12.855 22.633,13.117C22.846,13.185 23.06,13.261 23.266,13.337C25.515,14.141 27.481,15.173 29.214,16.411C29.723,16.775 30.212,17.154 30.679,17.546C30.748,17.594 30.817,17.656 30.885,17.717Z" style="fill:rgb(224,149,174);fill-rule:nonzero;"/>
    <path d="M30.672,17.91C30.37,18.178 30.06,18.44 29.723,18.694C29.558,18.742 29.393,18.776 29.214,18.797C26.766,19.017 23.864,19.093 22.613,21.589C22.503,21.816 22.406,22.029 22.317,22.235C21.616,22.394 20.811,22.359 20.151,22.132C16.595,20.95 13.714,19.492 11.727,17.662C13.817,15.744 16.602,14.231 20.075,13.11C20.873,12.855 21.836,12.855 22.633,13.117C22.846,13.185 23.06,13.261 23.266,13.337C23.362,13.646 23.41,13.956 23.28,14.279C22.833,15.324 20.405,15.916 19.449,16.301C18.631,16.624 16.417,17.374 16.54,18.605C16.623,19.423 18.177,19.787 18.762,19.526C19.257,19.299 19.497,18.639 20.054,18.529C20.584,18.419 20.549,18.701 20.962,18.88C21.781,19.244 22.31,18.756 23.128,18.763C24.263,18.77 24.435,18.99 25.391,18.158C25.948,17.669 26.642,17.332 27.303,16.961C27.853,16.658 28.554,16.369 29.208,16.411C29.716,16.775 30.205,17.154 30.672,17.546C30.707,17.669 30.707,17.793 30.672,17.91Z" style="fill:rgb(230,161,191);fill-rule:nonzero;"/>
    <path d="M15.22,21.355C14.567,20.887 13.831,20.482 13.116,20.117C12.449,19.78 11.761,19.478 11.266,18.886C11.218,18.831 11.115,18.907 11.163,18.969C11.596,19.553 12.174,19.863 12.806,20.193C13.597,20.599 14.326,21.176 15.158,21.493C15.241,21.52 15.282,21.396 15.22,21.355Z" style="fill:white;fill-rule:nonzero;"/>
    <path d="M19.923,19.108C19.648,19.211 19.38,19.355 19.277,19.658C19.242,19.754 19.393,19.795 19.428,19.699C19.517,19.452 19.792,19.362 19.964,19.183C19.992,19.149 19.964,19.087 19.923,19.108Z" style="fill:white;fill-rule:nonzero;"/>
    <path d="M26.732,17.759C26.512,17.835 26.32,18.041 26.127,18.172C25.948,18.303 25.763,18.42 25.556,18.516C25.515,18.536 25.522,18.612 25.57,18.619C25.783,18.66 26.003,18.475 26.168,18.365C26.382,18.22 26.657,18.069 26.808,17.856C26.849,17.814 26.787,17.739 26.732,17.759Z" style="fill:white;fill-rule:nonzero;"/>
    <path d="M22.667,19.616C22.323,19.74 22.028,19.672 21.684,19.623C21.622,19.616 21.615,19.706 21.67,19.727C22.007,19.83 22.433,19.995 22.736,19.72C22.77,19.678 22.722,19.589 22.667,19.616Z" style="fill:white;fill-rule:nonzero;"/>
    <path d="M17.062,16.39C16.835,16.438 16.601,16.576 16.416,16.713C16.354,16.761 16.409,16.865 16.478,16.817C16.677,16.686 16.918,16.631 17.11,16.5C17.172,16.466 17.131,16.376 17.062,16.39Z" style="fill:white;fill-rule:nonzero;"/>
    <path d="M28.541,13.063C28.747,14.507 28.864,16.164 28.864,16.164C28.864,16.164 24.518,16.969 23.796,17.085L22.943,16.013L27.455,15.277C27.166,14.012 26.753,11.976 26.753,11.976L28.232,11.426C28.706,11.77 29.346,11.948 29.731,12.334L28.541,13.063Z" style="fill:rgb(224,194,204);fill-opacity:0.25;fill-rule:nonzero;"/>
    <path d="M31.718,8.221C30.178,10.071 28.094,11.364 26.409,13.069C26.265,13.213 26.127,13.358 25.99,13.502C25.474,14.073 24.986,14.747 24.621,15.448C24.429,15.834 24.195,16.927 23.803,17.085C23.473,17.209 23.198,17.023 23.019,16.741C22.833,16.452 22.744,16.054 22.792,15.792C22.978,15.428 23.157,15.05 23.342,14.671C24.656,11.989 26.004,9.19 28.301,7.409C29.084,6.804 30.116,6.24 31.244,6.694C31.34,6.735 31.43,6.777 31.512,6.818C32.179,7.182 32.207,7.629 31.718,8.221Z" style="fill:rgb(166,219,199);fill-rule:nonzero;"/>
    <path d="M31.717,8.221C30.053,10.229 27.742,11.577 25.988,13.503C25.473,14.073 24.984,14.747 24.62,15.449C24.427,15.834 24.194,16.927 23.802,17.085C23.472,17.209 23.196,17.023 23.018,16.742C23.148,16.803 23.286,16.831 23.382,16.817C23.712,16.762 23.87,16.308 23.994,16.026C24.785,14.19 25.851,12.382 27.247,11.054C28.272,10.078 29.441,9.273 30.458,8.297C30.837,7.932 31.277,7.637 31.449,7.093C31.476,6.997 31.497,6.915 31.511,6.832C32.178,7.183 32.205,7.63 31.717,8.221Z" style="fill:rgb(143,189,171);fill-rule:nonzero;"/>
    <path d="M26.402,13.069C26.257,13.214 26.12,13.358 25.982,13.503C25.466,14.073 24.978,14.747 24.614,15.449C24.421,15.834 24.187,16.927 23.795,17.085C23.465,17.209 23.19,17.023 23.011,16.741C22.826,16.453 22.736,16.054 22.784,15.793C22.97,15.428 23.149,15.05 23.334,14.672C23.286,14.864 23.252,15.057 23.218,15.249C23.17,15.566 22.943,16.267 23.445,16.405C23.892,16.528 24.187,15.572 24.373,15.291C24.655,14.864 25.047,14.548 25.219,14.046C25.384,13.592 25.645,13.166 26.154,13.076C26.237,13.069 26.319,13.062 26.402,13.069Z" style="fill:rgb(224,194,204);fill-opacity:0.7;fill-rule:nonzero;"/>
    <path d="M25.445,11.089C25.053,11.46 24.668,11.983 24.586,12.574C24.565,12.705 24.757,12.781 24.785,12.657C24.923,12.072 25.459,11.783 25.61,11.206C25.631,11.11 25.5,11.034 25.445,11.089Z" style="fill:white;fill-rule:nonzero;"/>
</svg>
