<?xml version="1.0" encoding="UTF-8" standalone="no"?>
<!DOCTYPE svg PUBLIC "-//W3C//DTD SVG 1.1//EN" "http://www.w3.org/Graphics/SVG/1.1/DTD/svg11.dtd">
<svg width="100%" height="100%" viewBox="0 0 44 44" version="1.1" xmlns="http://www.w3.org/2000/svg" xmlns:xlink="http://www.w3.org/1999/xlink" xml:space="preserve" xmlns:serif="http://www.serif.com/" style="fill-rule:evenodd;clip-rule:evenodd;stroke-linejoin:round;stroke-miterlimit:2;">
    <path d="M34.206,13.143L34.206,8.428L17.691,8.428L17.691,13.143C16.643,14.094 15.982,15.455 15.982,16.941L15.982,28.177C15.982,30.518 17.566,32.551 19.832,33.143C21.523,33.582 23.642,33.963 25.948,33.963C28.272,33.963 30.407,33.576 32.099,33.132C34.348,32.539 35.914,30.501 35.914,28.172L35.914,16.936C35.914,15.455 35.254,14.088 34.206,13.143Z" style="fill:rgb(211,166,81);fill-rule:nonzero;"/>
    <path d="M25.948,19.824C20.447,19.824 15.982,18.588 15.982,17.654L15.982,27.797C15.982,28.731 20.441,29.966 25.948,29.966C31.449,29.966 35.914,28.731 35.914,27.797L35.914,17.654C35.914,18.583 31.449,19.824 25.948,19.824Z" style="fill:rgb(191,77,39);fill-rule:nonzero;"/>
    <path d="M18.091,17.63C18.562,17.63 18.945,17.248 18.945,16.776C18.945,16.304 18.562,15.922 18.091,15.922C17.619,15.922 17.236,16.304 17.236,16.776C17.236,17.248 17.619,17.63 18.091,17.63Z" style="fill:rgb(221,187,124);fill-rule:nonzero;"/>
    <path d="M25.919,12.711C20.566,12.711 18.453,11.845 17.65,11.287C17.389,11.105 17.411,10.712 17.69,10.558C17.69,10.558 17.69,10.553 17.685,10.553C17.696,10.57 18.801,12.142 25.925,12.142C33.049,12.142 34.154,10.57 34.165,10.553L34.16,10.558C34.439,10.712 34.456,11.105 34.199,11.287C33.385,11.845 31.272,12.711 25.919,12.711Z" style="fill:rgb(221,187,124);fill-rule:nonzero;"/>
    <path d="M25.919,11.43C20.566,11.43 18.453,10.564 17.65,10.006C17.389,9.824 17.411,9.431 17.69,9.277C17.69,9.277 17.69,9.271 17.685,9.271C17.696,9.289 18.801,10.86 25.925,10.86C33.049,10.86 34.154,9.289 34.165,9.271L34.16,9.277C34.439,9.431 34.456,9.824 34.199,10.006C33.385,10.564 31.272,11.43 25.919,11.43Z" style="fill:rgb(221,187,124);fill-rule:nonzero;"/>
    <path d="M25.949,14.795C23.511,14.795 21.091,14.539 19.138,14.066C18.454,13.901 17.879,13.725 17.401,13.537C17.002,13.377 16.831,12.904 17.042,12.529C17.213,12.215 17.589,12.079 17.925,12.21C18.34,12.375 18.864,12.534 19.479,12.682C21.324,13.127 23.625,13.371 25.954,13.371C28.283,13.371 30.584,13.127 32.429,12.682C33.044,12.534 33.563,12.375 33.984,12.21C34.314,12.079 34.69,12.215 34.867,12.529C35.072,12.904 34.906,13.377 34.508,13.537C34.024,13.725 33.449,13.901 32.765,14.066C30.806,14.539 28.386,14.795 25.949,14.795Z" style="fill:rgb(221,187,124);fill-rule:nonzero;"/>
    <path d="M25.92,6.719C21.358,6.719 17.662,7.482 17.662,8.427C17.662,9.373 21.358,10.136 25.92,10.136C30.481,10.136 34.177,9.373 34.177,8.427C34.177,7.482 30.481,6.719 25.92,6.719Z" style="fill:rgb(221,187,124);fill-rule:nonzero;"/>
    <path d="M25.919,9.561C29.929,9.561 33.18,9.054 33.18,8.428C33.18,7.802 29.929,7.295 25.919,7.295C21.909,7.295 18.658,7.802 18.658,8.428C18.658,9.054 21.909,9.561 25.919,9.561Z" style="fill:rgb(149,108,41);fill-rule:nonzero;"/>
    <path d="M26.319,5C26.575,5.7 26.29,6.651 25.709,7.295C25.402,7.637 25.015,7.893 24.587,7.978C23.033,8.292 21.826,8.867 21.125,9.271C22.406,9.448 24.081,9.55 25.914,9.55C29.804,9.55 32.976,9.072 33.164,8.474C33.169,8.457 33.175,8.434 33.175,8.417C33.181,7.352 28.995,5 26.319,5Z" style="fill:rgb(198,142,43);fill-rule:nonzero;"/>
    <path d="M4.668,31.548L7.92,33.428C8.632,33.838 11.553,30.962 13.99,26.742C16.428,22.522 17.458,18.553 16.747,18.143L13.495,16.264L4.668,31.548Z" style="fill:rgb(245,129,79);fill-rule:nonzero;"/>
    <path d="M9.445,32.665C9.707,32.431 9.992,32.158 10.294,31.839L6.034,29.379L5.465,30.364L9.445,32.665Z" style="fill:rgb(242,100,39);fill-rule:nonzero;"/>
    <path d="M6.89,27.897L6.32,28.882L10.688,31.404C10.927,31.131 11.178,30.835 11.429,30.516L6.89,27.897Z" style="fill:rgb(242,100,39);fill-rule:nonzero;"/>
    <path d="M12.868,17.545L12.299,18.53L16.559,20.99C16.684,20.569 16.781,20.187 16.849,19.846L12.868,17.545Z" style="fill:rgb(242,100,39);fill-rule:nonzero;"/>
    <path d="M11.161,20.5L10.592,21.485L15.307,24.207C15.472,23.849 15.626,23.501 15.768,23.16L11.161,20.5Z" style="fill:rgb(242,100,39);fill-rule:nonzero;"/>
    <path d="M12.015,19.018L11.445,20.003L15.984,22.622C16.132,22.247 16.263,21.882 16.383,21.535L12.015,19.018Z" style="fill:rgb(242,100,39);fill-rule:nonzero;"/>
    <path d="M14.543,25.745C14.725,25.403 14.896,25.062 15.061,24.731L10.306,21.986L9.736,22.972L14.543,25.745Z" style="fill:rgb(242,100,39);fill-rule:nonzero;"/>
    <path d="M9.452,23.461L8.883,24.446L13.701,27.231C13.797,27.071 13.894,26.906 13.991,26.741C14.088,26.576 14.179,26.411 14.27,26.246L9.452,23.461Z" style="fill:rgb(242,100,39);fill-rule:nonzero;"/>
    <path d="M7.743,26.424L7.174,27.409L11.781,30.069C12.003,29.778 12.231,29.465 12.459,29.146L7.743,26.424Z" style="fill:rgb(242,100,39);fill-rule:nonzero;"/>
    <path d="M13.154,17.049L16.947,19.236C17.01,18.644 16.947,18.251 16.753,18.137L13.502,16.258L13.154,17.049Z" style="fill:rgb(242,100,39);fill-rule:nonzero;"/>
    <path d="M8.597,24.943L8.027,25.929L12.783,28.673C12.993,28.366 13.198,28.047 13.403,27.717L8.597,24.943Z" style="fill:rgb(242,100,39);fill-rule:nonzero;"/>
    <path d="M5.181,30.859L4.668,31.548L7.92,33.428C8.119,33.542 8.489,33.399 8.968,33.046L5.181,30.859Z" style="fill:rgb(242,100,39);fill-rule:nonzero;"/>
    <path d="M4.667,31.548C5.379,31.958 8.101,28.968 10.539,24.748C12.976,20.529 14.206,16.673 13.494,16.263C12.782,15.853 10.214,18.934 7.777,23.154C5.339,27.374 3.955,31.138 4.667,31.548Z" style="fill:rgb(245,129,79);fill-rule:nonzero;"/>
    <path d="M4.667,31.548C5.379,31.958 8.101,28.968 10.539,24.748C12.976,20.529 14.206,16.673 13.494,16.263C12.782,15.853 10.214,18.934 7.777,23.154C5.339,27.374 3.955,31.138 4.667,31.548Z" style="fill:rgb(245,129,79);fill-rule:nonzero;"/>
    <path d="M18.505,23.081C18.43,23.451 18.351,23.821 18.277,24.186C18.601,24.226 18.841,23.821 18.841,23.451C18.841,23.195 18.727,22.961 18.442,22.899C17.918,22.79 17.605,23.03 17.605,23.559C17.605,23.736 17.645,23.77 17.65,23.804C17.428,23.753 17.309,23.639 17.309,23.388C17.309,22.927 17.901,22.631 18.442,22.739C18.972,22.847 19.205,23.212 19.205,23.571C19.205,24.009 18.852,24.436 18.271,24.311C18.265,24.311 18.26,24.311 18.254,24.305C18.186,24.618 18.123,24.932 18.055,25.251C17.901,25.216 17.747,25.182 17.593,25.148C17.741,24.448 17.884,23.747 18.032,23.047C18.186,23.058 18.345,23.069 18.505,23.081Z" style="fill:white;fill-rule:nonzero;"/>
    <path d="M19.809,25.32C20.066,25.365 20.219,25.234 20.385,25.063C20.419,25.069 20.459,25.075 20.493,25.08C20.305,25.371 20.031,25.65 19.599,25.576C19.297,25.525 19.092,25.325 19.092,24.938C19.092,24.539 19.302,23.754 19.969,23.862C20.259,23.907 20.328,24.078 20.328,24.249C20.328,24.648 19.969,24.898 19.581,24.858C19.576,24.904 19.576,24.955 19.576,24.995C19.576,25.223 19.65,25.291 19.809,25.32ZM19.997,24.044C19.832,24.015 19.673,24.357 19.61,24.687C19.861,24.716 20.083,24.482 20.083,24.198C20.077,24.112 20.054,24.055 19.997,24.044Z" style="fill:white;fill-rule:nonzero;"/>
    <path d="M21.944,24.157C21.864,24.539 21.79,24.921 21.71,25.308C21.699,25.353 21.699,25.388 21.699,25.416C21.699,25.513 21.739,25.57 21.83,25.581C21.955,25.598 22.046,25.456 22.092,25.285C22.137,25.291 22.183,25.296 22.229,25.302C22.041,25.849 21.75,25.889 21.574,25.866C21.391,25.843 21.272,25.718 21.255,25.507C21.152,25.655 20.999,25.792 20.771,25.758C20.549,25.729 20.338,25.547 20.338,25.137C20.338,24.67 20.606,23.97 21.175,24.049C21.363,24.072 21.437,24.157 21.437,24.26L21.437,24.283C21.448,24.226 21.46,24.163 21.471,24.106C21.631,24.123 21.784,24.14 21.944,24.157ZM20.816,25.16C20.816,25.427 20.919,25.444 20.981,25.45C21.078,25.462 21.215,25.376 21.249,25.183C21.3,24.926 21.352,24.676 21.403,24.419C21.403,24.38 21.374,24.283 21.272,24.271C20.999,24.237 20.816,24.835 20.816,25.16Z" style="fill:white;fill-rule:nonzero;"/>
    <path d="M22.912,24.55C22.793,24.539 22.707,24.676 22.656,24.846C22.582,25.211 22.508,25.57 22.434,25.934C22.274,25.917 22.121,25.9 21.967,25.883C22.081,25.319 22.195,24.755 22.314,24.191C22.468,24.209 22.627,24.22 22.787,24.237C22.776,24.294 22.764,24.357 22.753,24.414C22.889,24.26 23.032,24.243 23.134,24.254C23.345,24.271 23.499,24.396 23.499,24.67C23.499,24.949 23.339,25.359 23.339,25.552C23.339,25.638 23.373,25.701 23.47,25.706C23.613,25.718 23.675,25.598 23.744,25.422C23.789,25.427 23.835,25.427 23.88,25.427C23.698,25.985 23.447,26.037 23.271,26.025C22.986,26.002 22.884,25.803 22.884,25.604C22.884,25.37 23.032,24.955 23.032,24.732C23.032,24.624 22.992,24.562 22.912,24.55Z" style="fill:white;fill-rule:nonzero;"/>
    <path d="M25.241,24.379C25.162,24.767 25.082,25.16 25.008,25.547C24.997,25.592 24.997,25.627 24.997,25.655C24.997,25.752 25.036,25.786 25.133,25.786C25.259,25.792 25.35,25.661 25.401,25.49L25.538,25.49C25.35,26.048 25.059,26.116 24.883,26.111C24.695,26.105 24.581,25.985 24.558,25.769C24.393,26.048 24.211,26.082 24.074,26.076C23.88,26.065 23.727,25.934 23.727,25.644C23.727,25.575 23.738,25.501 23.755,25.422C23.829,25.057 23.903,24.693 23.977,24.328C24.137,24.34 24.29,24.345 24.45,24.351C24.37,24.738 24.29,25.125 24.216,25.513C24.211,25.547 24.205,25.575 24.205,25.609C24.205,25.689 24.233,25.752 24.302,25.758C24.427,25.763 24.512,25.638 24.564,25.467C24.638,25.103 24.712,24.733 24.786,24.368C24.928,24.368 25.088,24.374 25.241,24.379Z" style="fill:white;fill-rule:nonzero;"/>
    <path d="M25.863,25.564C25.851,25.603 25.846,25.649 25.846,25.683C25.846,25.757 25.874,25.808 25.96,25.808C25.982,25.808 26.017,25.808 26.045,25.797C25.954,26.093 25.812,26.133 25.698,26.133C25.47,26.133 25.373,25.956 25.373,25.74C25.373,25.683 25.379,25.621 25.39,25.558C25.459,25.216 25.533,24.869 25.601,24.527L25.493,24.527C25.504,24.482 25.51,24.436 25.521,24.39L25.629,24.39C25.664,24.231 25.692,24.072 25.726,23.912C25.886,23.889 26.051,23.866 26.21,23.844C26.21,23.844 26.159,24.077 26.096,24.39L26.29,24.39C26.279,24.436 26.273,24.482 26.261,24.527L26.068,24.527C26.005,24.869 25.937,25.216 25.863,25.564Z" style="fill:white;fill-rule:nonzero;"/>
    <path d="M28.242,23.792C28.191,24.048 28.14,24.31 28.088,24.566L28.105,24.566C28.367,24.555 28.578,24.236 28.578,23.98C28.578,23.78 28.459,23.615 28.145,23.632C27.764,23.655 27.325,23.934 27.325,24.504C27.325,24.68 27.365,24.709 27.371,24.737C27.154,24.743 27.023,24.663 27.023,24.43C27.023,23.951 27.593,23.501 28.208,23.467C28.686,23.439 28.903,23.689 28.903,23.974C28.903,24.179 28.789,24.407 28.578,24.543C28.857,24.583 28.965,24.811 28.965,25.073C28.965,25.403 28.795,26.081 28.248,26.115C28.105,26.121 27.923,26.087 27.923,25.876C27.923,25.819 27.935,25.756 27.963,25.671C28.043,25.756 28.105,25.791 28.18,25.785C28.419,25.773 28.504,25.409 28.504,25.141C28.504,24.902 28.43,24.709 28.191,24.72C28.162,24.72 28.1,24.726 28.043,24.737C27.952,25.181 27.866,25.625 27.775,26.075C27.616,26.081 27.462,26.087 27.302,26.092C27.451,25.358 27.599,24.617 27.747,23.877C27.918,23.854 28.083,23.82 28.242,23.792Z" style="fill:white;fill-rule:nonzero;"/>
    <path d="M30.577,24.129C30.497,24.528 30.423,24.932 30.343,25.331C30.332,25.376 30.332,25.41 30.332,25.444C30.332,25.541 30.372,25.57 30.463,25.558C30.588,25.541 30.68,25.405 30.725,25.222C30.771,25.217 30.816,25.211 30.862,25.205C30.674,25.792 30.383,25.9 30.207,25.923C30.019,25.946 29.905,25.837 29.882,25.627C29.717,25.929 29.535,25.985 29.398,25.997C29.205,26.014 29.051,25.9 29.051,25.61C29.051,25.541 29.062,25.467 29.079,25.382C29.153,25.006 29.227,24.63 29.301,24.254C29.461,24.243 29.615,24.226 29.774,24.214C29.694,24.613 29.615,25.012 29.541,25.41C29.535,25.444 29.529,25.479 29.529,25.507C29.529,25.587 29.558,25.644 29.626,25.638C29.751,25.627 29.837,25.484 29.888,25.308C29.962,24.932 30.036,24.556 30.11,24.174C30.264,24.163 30.423,24.146 30.577,24.129Z" style="fill:white;fill-rule:nonzero;"/>
    <path d="M31.529,23.455C31.494,23.643 31.455,23.831 31.421,24.019C31.483,24.008 31.552,24.002 31.614,23.99C31.603,24.036 31.597,24.087 31.586,24.133C31.523,24.144 31.455,24.15 31.392,24.161C31.324,24.514 31.255,24.873 31.181,25.226C31.17,25.272 31.17,25.306 31.17,25.34C31.17,25.437 31.21,25.46 31.301,25.448C31.426,25.431 31.546,25.283 31.591,25.101C31.637,25.095 31.683,25.09 31.728,25.078C31.54,25.67 31.221,25.79 31.045,25.813C30.851,25.836 30.697,25.733 30.697,25.443C30.697,25.374 30.709,25.3 30.726,25.215C30.788,24.885 30.857,24.554 30.919,24.218C30.885,24.224 30.845,24.23 30.811,24.23C30.823,24.184 30.828,24.133 30.84,24.087C30.874,24.081 30.914,24.076 30.948,24.076C30.982,23.911 31.011,23.751 31.045,23.586C31.21,23.546 31.369,23.501 31.529,23.455Z" style="fill:white;fill-rule:nonzero;"/>
    <path d="M32.4,23.326C32.366,23.514 32.326,23.702 32.292,23.89C32.354,23.879 32.423,23.867 32.485,23.856C32.474,23.901 32.468,23.953 32.457,23.998C32.394,24.01 32.326,24.021 32.263,24.032C32.195,24.391 32.127,24.744 32.058,25.103C32.047,25.148 32.047,25.183 32.047,25.217C32.047,25.314 32.087,25.336 32.178,25.325C32.303,25.302 32.423,25.154 32.468,24.972C32.514,24.966 32.559,24.955 32.605,24.949C32.423,25.547 32.098,25.672 31.922,25.701C31.728,25.729 31.574,25.627 31.574,25.336C31.574,25.268 31.586,25.194 31.603,25.109C31.665,24.778 31.734,24.442 31.796,24.106C31.762,24.112 31.722,24.118 31.688,24.123C31.7,24.078 31.705,24.027 31.717,23.981C31.751,23.975 31.791,23.97 31.825,23.964C31.859,23.799 31.887,23.634 31.922,23.474C32.075,23.423 32.235,23.372 32.4,23.326Z" style="fill:white;fill-rule:nonzero;"/>
    <path d="M33.134,25.199C33.39,25.153 33.544,24.965 33.703,24.738C33.737,24.732 33.777,24.721 33.811,24.715C33.629,25.068 33.356,25.45 32.923,25.523C32.621,25.581 32.416,25.455 32.416,25.062C32.416,24.664 32.627,23.798 33.293,23.678C33.583,23.622 33.646,23.77 33.646,23.94C33.646,24.339 33.293,24.715 32.9,24.812C32.894,24.863 32.894,24.909 32.894,24.948C32.9,25.188 32.98,25.227 33.134,25.199ZM33.322,23.855C33.156,23.889 32.997,24.288 32.934,24.641C33.185,24.578 33.401,24.271 33.401,23.98C33.401,23.895 33.384,23.844 33.322,23.855Z" style="fill:white;fill-rule:nonzero;"/>
    <path d="M34.393,23.485C34.381,23.559 34.364,23.633 34.353,23.707C34.467,23.576 34.586,23.439 34.74,23.405C34.882,23.371 34.962,23.479 34.962,23.61C34.962,23.729 34.888,23.878 34.729,23.917C34.546,23.957 34.638,23.712 34.541,23.729C34.444,23.752 34.387,23.815 34.307,23.912C34.222,24.367 34.136,24.823 34.051,25.278C33.897,25.313 33.743,25.341 33.584,25.375C33.698,24.777 33.812,24.179 33.926,23.576C34.079,23.553 34.239,23.519 34.393,23.485Z" style="fill:white;fill-rule:nonzero;"/>
</svg>
