<?xml version="1.0" encoding="UTF-8" standalone="no"?>
<!DOCTYPE svg PUBLIC "-//W3C//DTD SVG 1.1//EN" "http://www.w3.org/Graphics/SVG/1.1/DTD/svg11.dtd">
<svg width="100%" height="100%" viewBox="0 0 44 44" version="1.1" xmlns="http://www.w3.org/2000/svg" xmlns:xlink="http://www.w3.org/1999/xlink" xml:space="preserve" xmlns:serif="http://www.serif.com/" style="fill-rule:evenodd;clip-rule:evenodd;stroke-linejoin:round;stroke-miterlimit:2;">
    <path d="M6.336,19.292C6.801,18.652 8.227,18.972 11.166,16.674C12.766,15.423 14.89,14.608 16.694,13.793C17.538,13.415 18.847,12.862 19.603,12.338C20.535,11.698 23.095,11 23.793,11C24.608,11 25.539,11.815 26.732,12.106C29.059,12.717 31.649,13.677 34.122,14.899C35.751,15.684 38.079,15.684 38.661,17.634C38.661,17.634 38.632,18.681 36.304,20.572C32.871,23.366 26.324,27.439 22.862,27.963C13.988,26.333 6.336,19.292 6.336,19.292Z" style="fill:url(#_Radial1);fill-rule:nonzero;"/>
    <path d="M22.543,34.714C23.358,34.859 24.289,34.364 26.267,33.201C27.082,32.735 28.769,31.629 28.595,30.553C29.06,30.466 29.788,30.029 30.108,29.709C30.777,29.098 30.195,28.865 30.399,28.574C30.69,28.196 31.766,28.574 32.203,28.429C32.726,28.284 33.948,27.527 33.861,27.003C35.141,26.916 35.811,25.985 36.742,25.258C37.207,24.908 38.08,24.472 38.982,23.948C39.098,22.581 38.982,17.635 38.633,17.606C38.4,17.896 37.847,18.246 37.556,18.566C37.178,18.857 36.945,19.409 36.567,19.7C35.665,20.457 34.763,19.468 33.919,20.37C32.785,21.766 30.661,23.89 28.624,23.977C28.769,24.123 28.857,24.443 28.915,24.588C28.304,24.967 27.722,25.054 27.169,25.432C26.645,25.81 26.267,26.189 25.656,26.567C25.133,26.858 24.609,27.178 23.91,27.323C23.445,27.469 22.95,27.469 22.63,27.469L22.543,34.714Z" style="fill:url(#_Radial2);fill-rule:nonzero;"/>
    <path d="M6.133,23.57C6.104,25.49 6.22,27.382 7.18,27.731C7.82,27.963 8.489,28.283 9.13,28.574C9.77,28.865 10.235,29.389 10.788,29.738C11.486,30.204 12.359,30.436 13.116,30.757C13.814,31.018 14.425,31.397 15.065,31.717C15.472,31.92 15.88,32.066 16.229,32.27C16.433,32.357 17.073,32.764 17.247,32.822C17.509,32.881 17.305,32.415 17.538,32.473C18.091,32.56 18.498,34.248 19.691,33.521C20.186,34.161 19.982,33.957 20.855,34.306C21.553,34.597 22.455,35.121 22.601,34.597C22.892,33.695 22.659,30.873 22.688,29.971C22.688,29.331 23.008,27.963 22.601,27.469C21.961,27.876 21.03,26.916 20.477,26.625C19.72,26.218 19.08,25.81 18.207,25.607C17.044,25.345 15.792,24.443 14.832,23.832C13.378,22.988 11.923,22.057 10.352,21.504C9.537,21.213 8.751,21.039 8.082,20.486C7.733,20.195 6.773,19.38 6.278,19.293C6.133,19.293 6.366,19.293 6.278,19.293C6.133,19.904 6.133,22.901 6.133,23.57Z" style="fill:url(#_Radial3);fill-rule:nonzero;"/>
    <path d="M15.095,23.919C13.989,22.755 12.273,22.057 10.818,21.416C9.538,20.893 7.85,19.031 6.366,19.234C6.25,19.263 6.221,19.351 6.279,19.438C7.152,20.544 9.014,21.155 10.294,21.62C11.109,21.94 11.953,22.115 12.738,22.522C13.553,22.929 14.309,23.511 15.095,23.977C15.095,23.977 15.124,23.948 15.095,23.919Z" style="fill:rgb(255,255,218);fill-rule:nonzero;"/>
    <path d="M24.841,26.945C24.288,27.149 23.677,27.294 23.095,27.352C23.008,27.352 22.804,27.323 22.629,27.352C22.571,27.294 21.116,26.945 20.447,26.625C21,27.178 21.378,27.411 22.106,27.731C22.251,27.789 22.455,30.902 22.659,32.531C22.659,31.542 22.717,30.873 22.717,29.215C22.717,28.225 22.775,28.08 22.891,27.818C23.531,27.789 24.404,27.411 24.841,26.974C24.87,26.974 24.841,26.945 24.841,26.945Z" style="fill:rgb(255,255,218);fill-rule:nonzero;"/>
    <path d="M32.29,22.203C32.639,21.941 33.658,22.814 33.861,23.221C34.269,23.919 33.599,24.327 33.163,24.676C32.61,25.083 31.592,27.615 31.592,28.342C31.592,28.342 32.319,28.778 33.396,27.818C34.472,26.858 32.901,25.229 33.454,24.88C33.716,24.734 33.919,24.181 34.094,24.821C34.56,24.56 36.043,22.959 36.16,22.406C35.462,22.145 34.501,21.301 33.745,21.301C33.308,21.301 32.785,21.359 32.29,22.203Z" style="fill:rgb(230,214,165);fill-rule:nonzero;"/>
    <path d="M14.949,31.774C14.949,31.745 14.978,31.716 14.978,31.686C15.007,31.221 14.716,31.017 14.687,30.639C14.658,30.406 14.804,30.261 14.833,30.086C14.92,29.737 14.833,29.795 14.716,29.534C14.687,29.504 14.542,29.388 14.484,29.301C14.455,29.272 14.571,29.126 14.513,29.068C14.396,28.952 14.367,28.806 14.134,29.068C14.134,28.602 14.396,28.195 14.396,27.759C14.396,27.38 14.309,26.973 14.309,26.595C14.28,26.624 14.193,26.711 14.164,26.74C13.756,26.275 13.407,25.955 13.233,25.344C13.087,25.489 12.767,25.489 12.68,25.577C12.68,25.838 12.796,26.275 12.942,26.537C13.116,26.828 13.494,26.799 13.727,27.06C13.873,27.177 14.134,27.817 14.018,27.991C13.902,28.166 13.494,28.108 13.349,28.341C13.087,28.69 12.738,29.708 12.796,30.115C12.796,30.319 12.825,30.523 12.825,30.726C13.262,30.93 13.669,31.192 14.105,31.396C14.367,31.512 14.658,31.657 14.949,31.774Z" style="fill:url(#_Linear4);fill-rule:nonzero;"/>
    <path d="M11.225,22.115C11.225,22.377 11.312,22.639 11.312,22.901C11.312,23.279 11.167,23.366 10.963,23.686C11.428,23.395 11.428,23.919 11.458,24.181C11.545,24.559 11.545,24.792 11.69,25.17C11.836,25.519 11.778,25.723 11.807,26.101C11.836,26.45 12.098,26.741 12.185,27.09C12.01,26.625 11.894,26.072 11.923,25.578C11.952,25.228 11.952,25.054 11.894,24.705C11.749,23.803 12.68,23.599 13.058,22.814C12.825,22.988 12.592,23.075 12.33,22.988C12.185,23.337 12.098,23.774 11.603,23.832C11.574,23.337 11.341,22.639 11.225,22.115Z" style="fill:url(#_Linear5);fill-rule:nonzero;"/>
    <path d="M16.664,23.133C16.839,23.191 16.984,23.221 17.159,23.133C17.654,22.842 18.061,23.104 18.556,23.017C18.759,22.988 19.021,22.93 19.079,22.668C19.167,22.028 19.807,21.94 20.243,21.591C20.272,21.562 20.243,21.504 20.214,21.504C19.865,21.562 19.603,21.766 19.312,21.969C19.167,22.057 18.876,22.435 18.672,22.435C18.41,22.435 17.916,22.435 17.683,22.58C17.334,22.813 17.101,23.104 16.664,23.133C16.635,23.133 16.635,23.133 16.664,23.133Z" style="fill:rgb(230,214,165);fill-rule:nonzero;"/>
    <path d="M19.254,24.356C19.632,24.268 19.952,24.268 20.36,24.385C20.621,24.443 20.767,24.443 20.971,24.297C21.029,24.239 21.174,24.123 21.203,24.036C21.32,23.774 21.611,23.919 21.814,23.948C21.989,23.977 22.134,24.065 22.309,24.036C22.338,24.036 22.367,23.977 22.338,23.948C22.222,23.803 22.018,23.803 21.843,23.745C21.581,23.686 21.291,23.599 21.058,23.57C20.971,23.541 20.854,23.57 20.767,23.628C20.534,23.774 20.563,23.919 20.214,23.977C19.894,24.036 19.545,24.123 19.254,24.356C19.254,24.327 19.254,24.356 19.254,24.356Z" style="fill:rgb(230,214,165);fill-rule:nonzero;"/>
    <path d="M19.807,19.554C19.894,19.641 19.952,19.729 19.952,19.845C19.952,19.932 19.923,19.99 19.923,20.078C19.923,20.31 20.098,20.456 20.301,20.543C20.505,20.631 20.68,20.31 20.505,20.194C20.418,20.136 20.36,20.078 20.272,20.02C20.214,19.961 20.185,19.903 20.127,19.874C20.156,19.903 20.185,19.932 20.185,19.961C20.127,19.758 20.039,19.641 19.807,19.554C19.807,19.525 19.807,19.554 19.807,19.554Z" style="fill:rgb(230,214,165);fill-rule:nonzero;"/>
    <path d="M23.822,20.195C23.851,19.962 24.375,19.758 24.549,19.613C24.607,19.555 24.695,19.467 24.695,19.38C24.695,19.322 24.695,19.322 24.665,19.409L24.811,19.409C25.044,19.322 25.276,19.206 25.48,19.089C25.887,18.886 25.451,18.187 25.044,18.478C24.898,18.595 24.724,18.711 24.578,18.856C24.462,18.973 24.462,19.089 24.404,19.206C24.375,19.293 24.433,19.38 24.52,19.409C24.607,19.438 24.054,19.846 23.996,19.875C23.88,19.962 23.764,20.049 23.734,20.195C23.764,20.224 23.822,20.224 23.822,20.195Z" style="fill:rgb(230,214,165);fill-rule:nonzero;"/>
    <path d="M26.82,20.428C26.703,20.486 26.645,20.515 26.558,20.602C26.471,20.69 26.325,20.748 26.18,20.748C26.092,20.69 25.976,20.661 25.86,20.661C25.714,20.69 25.569,20.777 25.452,20.835C25.307,20.922 25.132,20.981 24.987,21.097C24.754,21.301 24.841,21.65 25.132,21.737C25.452,21.824 26.005,21.533 26.209,21.272C26.296,21.155 26.296,21.068 26.412,20.952C26.471,20.922 26.529,20.893 26.558,20.835C26.703,20.719 26.791,20.602 26.849,20.428C26.878,20.428 26.849,20.428 26.82,20.428Z" style="fill:rgb(230,214,165);fill-rule:nonzero;"/>
    <path d="M23.56,24.297C23.502,24.413 23.502,24.355 23.444,24.471C23.415,24.5 23.444,24.529 23.473,24.529C23.967,24.413 24.375,24.355 24.782,24.675C25.248,25.024 25.422,24.704 25.888,24.529C26.121,24.442 25.975,24.093 25.742,24.151C25.51,24.209 25.335,24.355 25.102,24.238C24.928,24.151 24.811,24.151 24.637,24.18C24.462,24.209 24.288,24.238 24.084,24.297C24.055,24.297 23.473,24.5 23.56,24.297Z" style="fill:rgb(230,214,165);fill-rule:nonzero;"/>
    <path d="M26.674,19.438C26.849,19.235 27.052,19.264 27.285,19.322C27.372,19.351 27.46,19.38 27.576,19.409C27.693,19.438 27.838,19.409 27.954,19.409C28.42,19.409 28.158,18.653 27.809,18.915C27.634,19.06 27.46,19.118 27.256,19.147C27.198,19.147 27.111,19.147 27.052,19.176C26.878,19.235 26.762,19.322 26.674,19.438C26.645,19.438 26.645,19.467 26.674,19.438Z" style="fill:rgb(230,214,165);fill-rule:nonzero;"/>
    <path d="M21.523,16.702C21.523,16.702 22.337,16.528 22.367,16.528C22.541,16.469 22.716,16.44 22.89,16.411C23.24,16.353 23.036,16.498 22.949,16.266C23.007,16.353 23.094,16.411 23.21,16.382C23.56,16.324 24.2,16.789 24.491,16.411C24.723,16.12 24.345,15.626 24.607,15.48C24.694,15.422 24.723,15.247 24.607,15.218C24.345,15.102 25.073,14.695 25.102,14.549C25.102,14.52 25.102,14.462 25.043,14.462C24.578,14.433 23.763,15.247 24.462,15.509C24.462,15.422 24.432,15.306 24.432,15.218C24.287,15.306 24.025,15.451 24.112,15.655C24.141,15.771 24.2,15.887 24.229,16.004C24.316,16.44 23.327,16.004 23.24,15.975C23.269,16.091 23.298,16.237 23.298,16.353C23.327,16.324 23.356,16.295 23.356,16.295C23.56,16.091 23.472,15.771 23.21,15.684C22.745,15.509 22.047,15.829 21.639,16.062C21.523,16.12 21.494,16.266 21.494,16.382C21.494,16.498 21.465,16.586 21.436,16.702C21.465,16.702 21.494,16.731 21.523,16.702Z" style="fill:rgb(230,214,165);fill-rule:nonzero;"/>
    <path d="M14.803,17.402C14.658,17.489 14.425,17.576 14.25,17.634C14.105,17.693 13.959,17.605 13.814,17.576C13.639,17.576 13.494,17.605 13.348,17.634C12.737,17.664 12.854,18.565 13.436,18.449C13.698,18.391 14.134,18.275 14.221,17.984C14.25,17.838 14.425,17.78 14.541,17.693C14.687,17.605 14.745,17.518 14.803,17.402C14.832,17.402 14.832,17.373 14.803,17.402Z" style="fill:rgb(230,214,165);fill-rule:nonzero;"/>
    <path d="M20.681,13.328C20.302,13.037 19.837,13.299 19.43,13.415C19.342,13.444 19.255,13.532 19.226,13.59C19.022,14.026 18.761,13.968 18.44,14.055C18.179,14.113 18.062,14.317 18.033,14.55C18.004,14.812 18.324,14.957 18.528,14.783C18.761,14.608 19.081,14.579 19.342,14.463C19.546,14.346 19.662,14.084 19.721,13.852C19.779,13.561 19.604,13.473 20.012,13.386C20.244,13.328 20.477,13.415 20.71,13.386C20.681,13.357 20.71,13.328 20.681,13.328Z" style="fill:rgb(230,214,165);fill-rule:nonzero;"/>
    <path d="M17.712,25.548C18.177,25.78 18.584,25.984 19.05,26.13C19.166,26.159 19.894,26.566 20.592,26.857C20.679,26.886 19.952,26.042 19.836,25.984C19.603,25.868 19.69,25.606 19.486,25.577C19.079,25.548 18.672,25.46 18.264,25.373C17.799,25.286 16.839,25.024 16.868,25.053C16.897,25.053 17.421,25.402 17.712,25.548Z" style="fill:rgb(230,214,165);fill-rule:nonzero;"/>
    <path d="M20.855,29.884C20.768,30 20.39,30.495 20.39,30.495C20.244,30.466 20.099,30.524 20.04,30.67C19.866,30.99 19.575,31.572 19.866,31.892C20.099,32.153 20.331,32.357 20.506,32.677C20.71,33.026 20.739,33.405 20.855,33.754C20.884,33.841 21.001,33.841 21.03,33.754C21.117,33.463 21.088,33.288 21.001,32.997C20.942,32.764 20.826,32.532 20.71,32.328C20.622,32.153 20.331,31.95 20.39,31.862C20.564,31.572 20.593,31.222 20.622,30.902C20.651,30.582 20.826,30.262 20.942,29.971C20.942,29.884 20.884,29.855 20.855,29.884Z" style="fill:url(#_Linear6);fill-rule:nonzero;"/>
    <path d="M18.759,30.174C18.672,29.97 18.555,29.737 18.497,29.534C18.963,29.01 18.526,28.224 18.09,27.759C18.003,27.672 17.886,27.73 17.857,27.846C17.828,28.05 17.828,28.079 17.886,28.283C18.003,28.457 18.032,28.661 18.032,28.864C18.003,29.155 17.915,29.301 17.915,29.563C17.915,29.737 18.09,29.854 18.235,29.796C18.235,29.796 18.788,30.756 19.428,31.017C19.428,31.017 19.457,31.017 19.457,30.988C19.225,30.668 18.904,30.523 18.759,30.174Z" style="fill:url(#_Linear7);fill-rule:nonzero;"/>
    <path d="M15.355,25.228C15.472,25.519 15.646,25.81 15.792,26.072C15.996,26.45 16.025,26.653 15.996,27.061C15.996,27.264 16.17,27.497 16.199,27.672C16.228,27.934 16.257,28.05 16.461,28.225C16.49,28.254 16.519,28.196 16.49,28.196C16.228,27.876 16.345,27.497 16.461,27.148C16.49,27.061 16.461,26.857 16.374,26.799C16.17,26.624 16.054,26.246 15.937,26.013C15.792,25.693 15.588,25.461 15.355,25.228C15.355,25.199 15.355,25.228 15.355,25.228Z" style="fill:rgb(230,214,165);fill-rule:nonzero;"/>
    <path d="M27.14,25.52C26.849,25.549 26.558,25.752 26.326,25.898C26.122,26.014 25.976,26.072 25.715,26.072C25.54,26.072 25.482,26.16 25.395,26.276C25.336,26.334 25.307,26.451 25.365,26.509C25.482,26.625 25.424,26.48 25.307,26.538C25.191,26.596 25.074,26.654 24.958,26.683C24.754,26.771 24.609,26.887 24.493,27.091C24.463,27.12 24.493,27.178 24.522,27.207C24.842,27.411 25.365,27.353 25.627,27.091C25.773,26.945 26.122,26.567 25.802,26.392C25.482,26.218 26.006,26.451 26.18,26.305C26.326,26.189 26.471,26.101 26.616,26.014C26.82,25.898 27.111,25.781 27.14,25.52C27.169,25.549 27.14,25.52 27.14,25.52Z" style="fill:rgb(230,214,165);fill-rule:nonzero;"/>
    <path d="M31.999,22.842C31.766,22.464 31.242,22.406 30.806,22.551C30.515,22.638 30.428,22.726 30.282,22.435C30.195,22.231 29.991,22.26 29.817,22.318C29.788,22.318 29.788,22.376 29.817,22.376C30.108,22.406 30.108,22.522 30.166,22.755C30.195,22.9 30.282,22.958 30.428,23.017C30.544,23.046 30.719,23.046 30.835,23.017C30.282,23.366 29.875,23.802 29.118,23.977C29.933,24.326 29.002,25.49 29.002,25.984C29.817,25.926 30.515,25.082 31.155,24.675C31.708,24.326 32.406,23.919 32.61,23.22C32.435,23.046 32.231,22.929 31.999,22.842Z" style="fill:rgb(230,214,165);fill-rule:nonzero;"/>
    <path d="M35.372,19.177C35.401,19.467 35.081,19.729 34.761,19.817C34.849,20.195 34.616,20.195 34.412,20.457C34.703,20.457 35.169,20.34 35.343,20.602C35.489,20.195 36.391,20.049 36.711,19.729C36.943,19.438 37.147,18.944 37.525,18.711C37.264,18.915 35.547,19.671 35.372,19.177Z" style="fill:rgb(230,214,165);fill-rule:nonzero;"/>
    <path d="M33.074,16.063C32.957,16.121 32.87,16.238 32.812,16.354C32.812,16.383 32.783,16.412 32.783,16.442C32.754,16.529 32.696,16.558 32.637,16.616C32.579,16.703 32.55,16.82 32.55,16.907C32.608,16.791 32.667,16.703 32.725,16.587C32.579,16.674 32.434,16.762 32.259,16.82C32.026,16.936 31.968,17.082 31.91,17.314C31.881,17.518 32.026,17.693 32.201,17.722C32.667,17.809 33.19,17.343 33.248,16.907C33.248,16.791 33.161,16.645 33.074,16.587C33.016,16.558 32.928,16.529 32.87,16.471C32.899,16.5 32.899,16.529 32.928,16.558C32.957,16.412 32.987,16.267 33.103,16.18C33.219,16.151 33.161,16.034 33.074,16.063Z" style="fill:rgb(230,214,165);fill-rule:nonzero;"/>
    <path d="M16.373,18.041C16.344,18.216 16.489,18.158 16.635,18.216C16.722,18.274 16.926,18.216 17.013,18.303C17.071,18.361 17.1,18.449 17.188,18.478C17.217,18.507 17.246,18.507 17.275,18.478C17.275,18.478 17.304,18.478 17.304,18.449C17.333,18.449 17.333,18.391 17.333,18.361C17.304,18.303 17.246,18.274 17.188,18.216C17.129,18.158 17.1,18.1 17.042,18.07C16.955,18.041 16.868,18.041 16.78,18.041C16.751,18.1 16.431,18.07 16.373,18.041C16.402,18.012 16.373,18.012 16.373,18.041Z" style="fill:rgb(230,214,165);fill-rule:nonzero;"/>
    <path d="M8.81,26.333C8.897,26.246 8.897,25.867 8.926,25.867C9.013,25.722 9.013,25.576 9.042,25.431C9.159,24.965 8.402,24.791 8.315,25.256C8.286,25.46 8.286,25.664 8.402,25.838C8.46,25.926 8.751,26.187 8.751,26.304C8.751,26.333 8.781,26.333 8.81,26.333Z" style="fill:rgb(196,172,106);fill-rule:nonzero;"/>
    <path d="M7.238,21.475C7.209,21.911 7.063,22.58 7.383,22.959C7.471,23.046 7.587,22.959 7.558,22.842C7.383,22.377 7.18,21.969 7.238,21.475C7.267,21.475 7.238,21.475 7.238,21.475Z" style="fill:rgb(196,172,106);fill-rule:nonzero;"/>
    <path d="M29.205,27.06C28.681,27.148 28.245,27.933 28.274,28.428C28.303,28.922 28.361,29.854 27.779,30.115C27.401,30.261 27.11,30.494 26.936,30.843C26.936,30.872 26.936,30.901 26.965,30.872C27.343,30.668 27.692,30.406 28.041,30.203C28.419,29.97 28.478,29.708 28.507,29.301C28.507,28.864 28.972,28.835 29.03,28.428C29.089,27.875 28.74,27.642 29.263,27.177C29.292,27.089 29.263,27.031 29.205,27.06Z" style="fill:rgb(230,214,165);fill-rule:nonzero;"/>
    <path d="M25.335,29.04C25.247,29.157 25.247,29.302 25.131,29.389C24.956,29.506 24.956,29.709 24.869,29.884C24.665,30.291 25.364,30.611 25.48,30.204C25.538,30 25.596,29.855 25.567,29.651C25.567,29.564 25.509,29.477 25.451,29.447C25.335,29.36 25.393,29.273 25.451,29.127C25.451,29.011 25.364,28.953 25.335,29.04Z" style="fill:rgb(230,214,165);fill-rule:nonzero;"/>
    <path d="M22.717,17.721C22.601,17.779 22.514,17.837 22.456,17.953C22.426,17.983 22.397,18.099 22.339,18.099C22.136,18.099 21.757,18.303 21.641,18.477C21.612,18.535 21.583,18.594 21.583,18.652C21.495,18.652 21.408,18.681 21.321,18.71C21.146,18.797 20.914,18.855 20.826,19.03C20.826,19.059 20.826,19.088 20.855,19.088C20.972,19.088 21.408,18.972 21.728,18.855C21.757,18.885 21.786,18.914 21.845,18.914C22.252,19.059 22.572,18.623 22.543,18.244C22.543,18.128 22.426,18.099 22.485,17.983C22.543,17.924 22.63,17.837 22.717,17.721C22.747,17.75 22.747,17.721 22.717,17.721Z" style="fill:rgb(230,214,165);fill-rule:nonzero;"/>
    <defs>
        <radialGradient id="_Radial1" cx="0" cy="0" r="1" gradientUnits="userSpaceOnUse" gradientTransform="matrix(21.0259,0,0,21.0259,22.6341,27.9384)"><stop offset="0" style="stop-color:rgb(255,255,235);stop-opacity:1"/><stop offset="0.23" style="stop-color:rgb(245,246,239);stop-opacity:1"/><stop offset="0.52" style="stop-color:rgb(245,246,237);stop-opacity:1"/><stop offset="0.66" style="stop-color:rgb(245,245,229);stop-opacity:1"/><stop offset="0.76" style="stop-color:rgb(245,244,217);stop-opacity:1"/><stop offset="0.85" style="stop-color:rgb(246,242,198);stop-opacity:1"/><stop offset="0.92" style="stop-color:rgb(246,240,175);stop-opacity:1"/><stop offset="0.99" style="stop-color:rgb(247,237,146);stop-opacity:1"/><stop offset="1" style="stop-color:rgb(247,237,143);stop-opacity:1"/></radialGradient>
        <radialGradient id="_Radial2" cx="0" cy="0" r="1" gradientUnits="userSpaceOnUse" gradientTransform="matrix(17.3947,0,0,17.3947,23.2859,20.4274)"><stop offset="0" style="stop-color:rgb(247,247,222);stop-opacity:1"/><stop offset="0.62" style="stop-color:rgb(235,224,177);stop-opacity:1"/><stop offset="0.75" style="stop-color:rgb(234,222,175);stop-opacity:1"/><stop offset="0.83" style="stop-color:rgb(229,216,166);stop-opacity:1"/><stop offset="0.89" style="stop-color:rgb(221,206,152);stop-opacity:1"/><stop offset="0.95" style="stop-color:rgb(210,191,132);stop-opacity:1"/><stop offset="1" style="stop-color:rgb(196,172,106);stop-opacity:1"/><stop offset="1" style="stop-color:rgb(196,172,106);stop-opacity:1"/></radialGradient>
        <radialGradient id="_Radial3" cx="0" cy="0" r="1" gradientUnits="userSpaceOnUse" gradientTransform="matrix(14.6495,0,0,14.6495,20.2946,21.6934)"><stop offset="0" style="stop-color:rgb(247,247,222);stop-opacity:1"/><stop offset="0.62" style="stop-color:rgb(235,224,177);stop-opacity:1"/><stop offset="0.75" style="stop-color:rgb(234,222,175);stop-opacity:1"/><stop offset="0.83" style="stop-color:rgb(229,216,166);stop-opacity:1"/><stop offset="0.89" style="stop-color:rgb(221,206,152);stop-opacity:1"/><stop offset="0.95" style="stop-color:rgb(210,191,132);stop-opacity:1"/><stop offset="1" style="stop-color:rgb(196,172,106);stop-opacity:1"/><stop offset="1" style="stop-color:rgb(196,172,106);stop-opacity:1"/></radialGradient>
        <linearGradient id="_Linear4" x1="0" y1="0" x2="1" y2="0" gradientUnits="userSpaceOnUse" gradientTransform="matrix(-1.9396,4.8976,-4.8976,-1.9396,15.1756,25.1953)"><stop offset="0" style="stop-color:rgb(235,224,177);stop-opacity:1"/><stop offset="0.31" style="stop-color:rgb(225,210,158);stop-opacity:1"/><stop offset="0.95" style="stop-color:rgb(198,175,110);stop-opacity:1"/><stop offset="1" style="stop-color:rgb(196,172,106);stop-opacity:1"/></linearGradient>
        <linearGradient id="_Linear5" x1="0" y1="0" x2="1" y2="0" gradientUnits="userSpaceOnUse" gradientTransform="matrix(-5.52814,2.5701,-2.5701,-5.52814,15.2717,22.9462)"><stop offset="0" style="stop-color:rgb(235,224,177);stop-opacity:1"/><stop offset="0.31" style="stop-color:rgb(225,210,158);stop-opacity:1"/><stop offset="0.95" style="stop-color:rgb(198,175,110);stop-opacity:1"/><stop offset="1" style="stop-color:rgb(196,172,106);stop-opacity:1"/></linearGradient>
        <linearGradient id="_Linear6" x1="0" y1="0" x2="1" y2="0" gradientUnits="userSpaceOnUse" gradientTransform="matrix(0.4849,5.6253,-5.6253,0.4849,20.2142,29.3358)"><stop offset="0" style="stop-color:rgb(235,224,177);stop-opacity:1"/><stop offset="0.31" style="stop-color:rgb(225,210,158);stop-opacity:1"/><stop offset="0.95" style="stop-color:rgb(198,175,110);stop-opacity:1"/><stop offset="1" style="stop-color:rgb(196,172,106);stop-opacity:1"/></linearGradient>
        <linearGradient id="_Linear7" x1="0" y1="0" x2="1" y2="0" gradientUnits="userSpaceOnUse" gradientTransform="matrix(-0.5335,5.5284,-5.5284,-0.5335,18.8628,27.028)"><stop offset="0" style="stop-color:rgb(235,224,177);stop-opacity:1"/><stop offset="0.31" style="stop-color:rgb(225,210,158);stop-opacity:1"/><stop offset="0.95" style="stop-color:rgb(198,175,110);stop-opacity:1"/><stop offset="1" style="stop-color:rgb(196,172,106);stop-opacity:1"/></linearGradient>
    </defs>
</svg>
