<?xml version="1.0" encoding="UTF-8" standalone="no"?>
<!DOCTYPE svg PUBLIC "-//W3C//DTD SVG 1.1//EN" "http://www.w3.org/Graphics/SVG/1.1/DTD/svg11.dtd">
<svg width="100%" height="100%" viewBox="0 0 44 44" version="1.1" xmlns="http://www.w3.org/2000/svg" xmlns:xlink="http://www.w3.org/1999/xlink" xml:space="preserve" xmlns:serif="http://www.serif.com/" style="fill-rule:evenodd;clip-rule:evenodd;stroke-linejoin:round;stroke-miterlimit:2;">
    <path d="M38.967,23.445C38.94,23.198 38.913,22.924 38.858,22.677C38.831,22.54 38.804,22.43 38.776,22.293C38.749,22.156 38.695,22.046 38.667,21.909C38.504,21.388 38.259,20.894 37.986,20.428C37.85,20.181 37.687,19.962 37.523,19.742C37.442,19.632 37.36,19.523 37.278,19.413C37.196,19.303 37.115,19.221 37.033,19.111C36.842,18.919 36.679,18.727 36.488,18.535C36.297,18.343 36.106,18.179 35.943,17.987C35.752,17.822 35.562,17.658 35.398,17.493C35.207,17.328 35.044,17.191 34.853,17.054C34.663,16.917 34.499,16.78 34.308,16.643C34.227,16.588 34.145,16.533 34.036,16.451C33.954,16.396 33.872,16.341 33.764,16.286C33.6,16.176 33.437,16.067 33.273,15.984C33.11,15.902 32.973,15.82 32.81,15.737C32.538,15.6 32.292,15.491 32.102,15.408C35.098,17.109 37.687,19.358 38.477,22.348C38.695,23.143 38.804,23.994 38.722,24.789C38.695,25.118 38.64,25.42 38.559,25.749C38.395,26.27 38.177,26.819 37.823,27.285L37.796,27.313C37.768,27.423 37.741,27.532 37.714,27.642C37.741,27.615 37.741,27.587 37.768,27.56C37.796,27.532 37.796,27.505 37.823,27.477C37.823,27.45 37.85,27.45 37.85,27.423C37.85,27.395 37.877,27.395 37.877,27.368C37.905,27.34 37.932,27.313 37.959,27.285C37.986,27.258 38.014,27.231 38.041,27.176C38.232,26.901 38.395,26.572 38.559,26.188C38.64,25.996 38.722,25.804 38.804,25.612C38.858,25.502 38.885,25.393 38.913,25.283C38.94,25.173 38.967,25.064 38.967,24.926C38.994,24.46 39.022,23.966 38.967,23.445Z" style="fill:rgb(249,219,180);fill-rule:nonzero;"/>
    <path d="M37.416,28.602C37.416,28.602 37.416,28.547 37.443,28.465C37.443,28.492 37.416,28.52 37.416,28.52L37.416,28.602Z" style="fill:rgb(249,219,180);fill-rule:nonzero;"/>
    <path d="M18.534,15.243C18.453,15.215 18.371,15.16 18.289,15.133C18.398,15.243 18.507,15.325 18.616,15.435C18.589,15.352 18.562,15.297 18.534,15.243Z" style="fill:rgb(221,162,96);fill-rule:nonzero;"/>
    <path d="M18.508,15.381C18.59,15.491 18.699,15.6 18.78,15.683C18.808,15.71 18.862,15.737 18.889,15.792C18.862,15.765 18.835,15.737 18.808,15.71C18.726,15.6 18.617,15.491 18.508,15.381Z" style="fill:rgb(221,162,96);fill-rule:nonzero;"/>
    <path d="M32.592,25.174C32.619,25.174 32.673,25.201 32.701,25.201C32.483,24.735 32.292,24.241 32.02,23.802C31.393,22.678 30.521,21.663 29.54,20.73C27.279,18.618 24.527,16.918 21.721,15.464C20.931,15.052 20.114,14.641 19.269,14.312C19.051,14.23 18.806,14.147 18.588,14.092C18.561,14.092 18.534,14.065 18.506,14.065C18.288,14.01 18.07,13.955 17.852,13.928C17.689,13.955 17.58,14.065 17.553,14.23C17.961,14.394 18.37,14.559 18.779,14.696C19.651,15.162 20.55,15.573 21.449,15.985C23.274,16.835 24.963,17.85 26.489,19.112C26.516,19.112 26.489,19.139 26.462,19.139C24.773,17.987 22.784,17.247 20.931,16.396C20.413,16.15 19.896,15.903 19.351,15.656C19.732,15.875 20.141,16.067 20.522,16.232C21.994,16.863 23.356,17.713 24.773,18.481C26.162,19.249 27.551,20.017 28.805,20.977C29.731,21.69 30.657,22.513 31.175,23.528C31.338,23.748 31.529,23.967 31.693,24.187C31.72,24.214 31.665,24.269 31.638,24.241C30.576,23.336 29.513,22.321 28.151,21.8C26.843,21.279 25.454,21.444 24.173,21.745C24.091,21.773 24.037,21.663 24.091,21.608C24.037,21.636 24.01,21.636 23.955,21.663C23.901,21.69 23.873,21.718 23.846,21.745C24.2,21.828 24.555,21.91 24.909,22.02C26.898,22.568 28.941,23.254 30.766,24.214C31.366,24.543 31.938,24.872 32.51,25.201C32.537,25.174 32.564,25.147 32.592,25.174Z" style="fill:rgb(221,162,96);fill-rule:nonzero;"/>
    <path d="M13.057,13.844C12.921,13.927 12.812,14.036 12.676,14.146C11.695,15.161 11.641,16.971 12.458,18.151C12.867,18.727 13.357,19.358 14.092,19.605C14.556,19.769 15.073,19.879 15.564,19.961C16.817,20.044 18.043,20.126 19.296,20.263C20.168,20.373 21.04,20.455 21.912,20.647C22.048,20.674 22.239,20.702 22.457,20.757L22.566,20.757C21.939,20.62 21.34,20.4 20.795,20.181C19.296,19.632 17.852,18.892 16.327,18.398C16.272,18.37 16.272,18.288 16.354,18.315C17.852,18.617 19.324,19.056 20.795,19.495C21.53,19.714 22.266,19.934 23.002,20.071C23.437,20.153 23.873,20.235 24.282,20.345C23.002,19.989 21.776,19.385 20.604,18.837C18.86,18.041 17.089,17.191 15.128,17.081C15.019,17.081 15.019,16.944 15.128,16.944C16.436,16.944 17.77,17.191 19.051,17.575C18.043,16.807 17.117,15.957 16.163,15.134C16.163,15.134 16.163,15.106 16.19,15.106C17.008,15.627 17.825,16.121 18.642,16.642C18.206,16.231 17.825,15.792 17.607,15.326C17.498,15.106 17.444,14.887 17.335,14.667C17.144,14.311 16.872,14.146 16.49,14.009C16.027,13.872 15.564,13.762 15.101,13.652C14.855,13.652 14.61,13.652 14.392,13.68C13.902,13.68 13.466,13.762 13.057,13.844ZM14.828,14.228C14.365,14.557 13.929,14.969 13.738,15.49C13.793,15.435 13.875,15.408 13.929,15.38C14.937,14.969 16.218,16.011 17.062,16.45C17.117,16.478 17.089,16.56 17.035,16.533C16.654,16.395 16.272,16.286 15.918,16.121C15.509,15.957 15.046,15.737 14.61,15.847C14.174,15.957 13.956,16.368 13.82,16.807C13.847,16.807 13.902,16.807 13.929,16.834C14.283,16.944 14.637,17.109 15.019,17.218C15.4,17.328 15.754,17.383 16.136,17.493C16.817,17.685 17.498,17.959 18.152,18.261C18.234,18.288 18.179,18.398 18.098,18.343C16.872,17.877 15.509,18.014 14.256,17.685C15.073,18.727 16.545,18.837 17.58,19.577C17.634,19.605 17.58,19.687 17.525,19.66C16.626,19.221 15.673,19.303 14.719,19.084C13.847,18.892 13.194,18.315 12.867,17.547C12.213,16.121 13.466,14.612 14.828,14.119C14.828,14.119 14.855,14.201 14.828,14.228Z" style="fill:rgb(206,169,26);fill-rule:nonzero;"/>
    <path d="M24.092,21.58C24.365,21.415 24.692,21.25 24.991,21.141C24.746,21.196 24.528,21.278 24.31,21.388C24.256,21.415 24.229,21.36 24.229,21.333C24.174,21.36 24.119,21.415 24.038,21.442C23.929,21.497 23.847,21.58 23.738,21.634C23.711,21.634 23.711,21.662 23.684,21.662L23.711,21.662C23.738,21.662 23.765,21.689 23.793,21.689C23.82,21.662 23.874,21.634 23.901,21.607C24.011,21.634 24.038,21.607 24.092,21.58Z" style="fill:rgb(206,169,26);fill-rule:nonzero;"/>
    <path d="M17.854,13.926C17.608,13.871 17.363,13.844 17.145,13.789C17.036,13.762 16.927,13.762 16.818,13.734C17.091,13.844 17.309,13.981 17.5,14.201C17.527,14.201 17.527,14.228 17.554,14.228C17.581,14.064 17.69,13.954 17.854,13.926Z" style="fill:rgb(206,169,26);fill-rule:nonzero;"/>
    <path d="M10.852,18.919C10.089,17.575 10.361,16.121 11.478,15.106C11.506,15.079 11.533,15.106 11.533,15.134C10.77,16.094 10.852,17.685 11.615,18.7C12.269,19.578 13.304,19.989 14.339,20.373C14.693,20.4 15.02,20.4 15.374,20.428C16.437,20.51 17.527,20.62 18.589,20.757C18.017,20.647 17.445,20.565 16.873,20.51C16.846,20.51 16.818,20.455 16.873,20.455C18.044,20.483 19.243,20.565 20.415,20.757C21.041,20.867 21.641,21.004 22.267,21.059C22.812,21.086 23.302,20.949 23.82,20.867C23.875,20.867 23.929,20.867 23.956,20.894C24.011,20.867 24.065,20.839 24.12,20.812C23.847,20.812 23.575,20.784 23.33,20.757C22.458,20.62 21.641,20.263 20.851,19.907C20.823,19.907 20.851,19.879 20.851,19.879C21.695,20.126 22.54,20.346 23.412,20.428C24.011,20.455 24.638,20.291 25.237,20.318C24.964,20.236 24.719,20.126 24.474,20.016C22.24,19.413 20.387,18.151 18.589,16.78C18.562,16.78 18.589,16.752 18.616,16.752C19.679,17.328 20.714,17.959 21.804,18.535C21.722,18.48 21.641,18.425 21.559,18.398C20.115,17.465 18.78,16.396 17.935,14.969C17.935,14.942 17.963,14.942 17.963,14.942C17.881,14.777 17.799,14.613 17.69,14.448C17.663,14.393 17.608,14.311 17.554,14.256C17.527,14.229 17.499,14.201 17.472,14.146C17.282,13.927 17.064,13.79 16.791,13.68C16.219,13.598 15.62,13.57 15.047,13.57C15.511,13.68 15.974,13.79 16.437,13.927C16.846,14.064 17.118,14.229 17.282,14.585C17.39,14.805 17.445,15.024 17.554,15.243C17.799,15.737 18.18,16.176 18.589,16.56C17.772,16.039 16.955,15.545 16.137,15.024C16.11,15.024 16.11,15.024 16.11,15.052C17.064,15.874 17.99,16.725 18.998,17.493C17.717,17.109 16.382,16.862 15.075,16.862C14.966,16.862 14.993,16.999 15.075,16.999C17.036,17.081 18.807,17.932 20.551,18.755C21.722,19.303 22.948,19.907 24.229,20.263C23.793,20.181 23.357,20.099 22.948,19.989C22.213,19.824 21.477,19.632 20.741,19.413C19.352,19.056 17.881,18.617 16.355,18.316C16.301,18.316 16.273,18.371 16.328,18.398C17.854,18.892 19.298,19.632 20.796,20.181C21.368,20.373 21.968,20.592 22.567,20.757L22.512,20.757L22.458,20.757C22.24,20.702 22.022,20.675 21.913,20.647C21.041,20.455 20.169,20.373 19.298,20.263C18.044,20.126 16.818,20.044 15.565,19.962C15.075,19.879 14.584,19.77 14.094,19.605C13.358,19.358 12.868,18.727 12.459,18.151C11.642,16.972 11.696,15.161 12.677,14.146C12.786,14.037 12.922,13.927 13.059,13.845C12.432,13.982 11.942,14.174 11.669,14.256C11.533,14.338 11.397,14.448 11.26,14.53C10.498,14.969 9.925,15.628 9.762,16.478C9.544,17.548 9.953,18.672 10.634,19.578C11.015,19.715 11.397,19.852 11.778,19.989C11.397,19.687 11.097,19.331 10.852,18.919Z" style="fill:rgb(188,150,29);fill-rule:nonzero;"/>
    <path d="M18.509,14.063C18.127,13.954 17.637,13.844 17.147,13.789C17.392,13.844 17.637,13.871 17.855,13.926C18.073,13.954 18.291,14.009 18.509,14.063Z" style="fill:rgb(201,142,83);fill-rule:nonzero;"/>
    <path d="M33.818,25.941C33.846,25.969 33.873,25.969 33.9,25.969C34.064,26.051 34.2,26.161 34.363,26.243C34.363,26.243 34.363,26.216 34.336,26.216C34.173,26.106 34.009,26.024 33.818,25.941Z" style="fill:rgb(201,142,83);fill-rule:nonzero;"/>
    <path d="M29.543,20.729C30.523,21.634 31.395,22.649 32.022,23.801C32.267,24.267 32.485,24.734 32.703,25.2C33.166,25.337 33.629,25.529 34.038,25.721C34.065,25.749 34.092,25.749 34.12,25.776C34.065,25.667 34.011,25.557 33.929,25.447C33.629,24.871 33.33,24.295 33.03,23.719C32.403,22.567 31.695,21.552 30.605,20.674C29.461,19.769 28.317,18.836 27.118,17.986C26.982,17.904 26.845,17.794 26.709,17.712C24.284,16.368 21.478,15.106 19.244,14.338C20.089,14.667 20.906,15.079 21.696,15.49C24.53,16.916 27.281,18.617 29.543,20.729Z" style="fill:rgb(201,142,83);fill-rule:nonzero;"/>
    <path d="M33.573,23.252C32.701,21.908 31.475,20.811 30.14,19.823C29.214,19.137 28.015,18.397 26.734,17.684C26.871,17.766 27.007,17.876 27.143,17.958C28.342,18.808 29.486,19.741 30.63,20.646C31.72,21.496 32.429,22.511 33.055,23.691C33.355,24.267 33.655,24.843 33.954,25.419C34.009,25.529 34.09,25.638 34.145,25.748C34.118,25.721 34.09,25.721 34.063,25.693C33.655,25.474 33.191,25.282 32.728,25.172C32.701,25.172 32.646,25.145 32.619,25.145L32.537,25.145C32.973,25.391 33.409,25.638 33.845,25.913C34.036,25.995 34.199,26.077 34.363,26.187C34.363,26.187 34.363,26.214 34.39,26.214C34.526,26.297 34.663,26.379 34.772,26.434C34.608,26.022 34.554,25.556 34.472,25.172C34.254,24.541 33.954,23.883 33.573,23.252Z" style="fill:rgb(173,115,62);fill-rule:nonzero;"/>
    <path d="M35.018,32.332C34.963,32.36 34.936,32.332 34.908,32.278C34.881,32.305 34.854,32.332 34.854,32.332C34.8,32.387 34.772,32.415 34.718,32.469C34.663,32.524 34.582,32.579 34.527,32.634C34.473,32.661 34.445,32.716 34.391,32.744C34.282,32.826 34.173,32.908 34.064,32.991C34.01,33.018 33.982,33.046 33.928,33.073C33.846,33.128 33.764,33.183 33.683,33.238C33.628,33.265 33.574,33.292 33.519,33.32C33.437,33.375 33.356,33.402 33.274,33.457C33.219,33.484 33.165,33.512 33.11,33.539C33.001,33.594 32.92,33.622 32.811,33.676C32.783,33.704 32.729,33.704 32.702,33.731C32.566,33.786 32.429,33.841 32.293,33.896C32.239,33.923 32.184,33.923 32.13,33.951C32.021,33.978 31.939,34.006 31.83,34.033C31.775,34.061 31.721,34.061 31.666,34.088C31.558,34.115 31.449,34.143 31.34,34.17C31.285,34.17 31.258,34.198 31.203,34.198C31.04,34.225 30.904,34.253 30.74,34.28C30.713,34.28 30.658,34.28 30.631,34.307C30.522,34.335 30.386,34.335 30.277,34.362C30.223,34.362 30.168,34.362 30.113,34.39C29.977,34.417 29.868,34.417 29.732,34.417L29.106,34.417L29.569,34.417C31.721,34.39 33.683,33.704 35.072,32.469C35.072,32.387 35.099,32.305 35.127,32.223C35.099,32.278 35.045,32.305 35.018,32.332Z" style="fill:rgb(245,206,149);fill-rule:nonzero;"/>
    <path d="M32.729,32.112C32.62,32.167 32.538,32.194 32.429,32.249C32.32,32.304 32.211,32.331 32.102,32.359C31.993,32.386 31.884,32.441 31.776,32.469C31.694,32.496 31.612,32.496 31.558,32.523C31.449,32.551 31.367,32.578 31.258,32.606C31.176,32.633 31.094,32.633 31.013,32.661C30.904,32.688 30.795,32.688 30.686,32.715C30.604,32.715 30.549,32.743 30.468,32.743C30.359,32.743 30.223,32.77 30.113,32.77L29.378,32.77C28.397,32.853 27.416,32.825 26.436,32.715C28.261,33.209 30.141,33.456 31.966,33.1C32.157,33.072 32.348,33.017 32.511,32.962C32.566,32.935 32.62,32.935 32.675,32.908C32.783,32.88 32.92,32.825 33.029,32.798C33.11,32.77 33.165,32.743 33.247,32.715C33.356,32.688 33.465,32.633 33.546,32.606C33.628,32.578 33.683,32.551 33.764,32.523C33.846,32.469 33.955,32.441 34.037,32.386C34.091,32.359 34.173,32.304 34.228,32.277C34.309,32.222 34.391,32.167 34.5,32.112C34.554,32.057 34.636,32.03 34.691,31.975C34.772,31.92 34.854,31.838 34.936,31.755C34.99,31.701 35.045,31.673 35.072,31.618C35.208,31.509 35.317,31.371 35.426,31.234C35.508,31.042 35.59,30.85 35.699,30.658L35.671,30.686C34.936,31.234 34.037,31.646 33.11,31.92C33.056,31.947 33.002,31.975 32.947,32.002C32.893,32.03 32.811,32.085 32.729,32.112Z" style="fill:rgb(245,206,149);fill-rule:nonzero;"/>
    <path d="M32.92,20.346C33.192,20.538 33.465,20.73 33.71,20.949C33.846,21.059 33.955,21.169 34.064,21.278C33.955,21.169 33.846,21.059 33.71,20.949C33.438,20.73 33.192,20.538 32.92,20.346Z" style="fill:rgb(245,206,149);fill-rule:nonzero;"/>
    <path d="M29.814,30.933C29.868,30.961 29.923,30.961 29.95,30.988C29.977,30.988 29.977,31.015 29.977,31.015C31.721,31.098 33.437,31.043 34.935,30.275C34.963,30.247 34.99,30.302 34.963,30.33C32.674,31.756 29.786,31.591 27.116,30.933C27.089,30.933 27.089,30.878 27.116,30.878C28.015,30.906 28.942,30.988 29.868,31.043C27.988,30.686 26.108,30.275 24.228,29.808C22.376,29.342 20.605,28.684 18.834,27.998C19.324,28.245 19.815,28.547 20.332,28.766C21.831,29.479 23.438,30 25.019,30.494C26.599,31.015 28.233,31.509 29.895,31.646C31.285,31.756 32.81,31.619 34.091,31.098C34.254,31.043 34.391,30.961 34.527,30.878C34.772,30.686 35.017,30.494 35.235,30.247C35.317,30.138 35.426,30.055 35.508,29.946C35.48,29.946 35.48,29.973 35.453,29.973C35.29,30.055 35.099,30.11 34.935,30.165C34.173,30.522 33.383,30.769 32.483,30.906C31.612,30.988 30.713,31.015 29.814,30.933Z" style="fill:rgb(245,206,149);fill-rule:nonzero;"/>
    <path d="M7.883,20.838C7.829,20.811 7.774,20.811 7.72,20.784C7.638,20.756 7.529,20.701 7.447,20.674C7.447,20.701 7.475,20.701 7.475,20.729C7.665,20.838 7.829,20.948 8.019,21.085C7.992,21.03 7.965,20.948 7.938,20.866C7.91,20.838 7.91,20.838 7.883,20.838Z" style="fill:rgb(245,206,149);fill-rule:nonzero;"/>
    <path d="M9.926,20.975C9.926,20.975 9.954,20.975 9.954,21.003C10.144,21.057 10.362,21.14 10.553,21.195C11.643,21.524 12.733,21.798 13.822,22.017C15.838,22.456 17.909,22.813 19.98,23.087C20.034,23.087 20.089,23.087 20.143,23.115C20.307,23.142 20.497,23.169 20.661,23.197L20.661,23.224C20.988,23.279 21.315,23.362 21.641,23.416C23.004,23.746 24.366,24.13 25.701,24.568C27.172,25.09 28.616,25.693 30.06,26.269C30.087,26.269 30.06,26.324 30.033,26.324C28.698,25.885 27.336,25.446 25.973,25.062C25.238,24.843 24.475,24.651 23.739,24.459C22.786,24.322 21.832,24.267 20.851,24.294C21.669,24.568 22.459,24.843 23.249,25.144C24.965,25.803 26.654,26.571 28.425,27.119C30.414,27.75 32.458,28.354 34.528,28.518C34.583,28.518 34.61,28.601 34.528,28.601C32.73,28.71 30.85,28.381 29.052,28.107C28.997,28.107 28.97,28.079 28.916,28.079C27.799,28.052 26.682,27.778 25.565,27.558C24.884,27.421 24.202,27.257 23.521,27.092C22.895,26.955 22.268,26.818 21.641,26.708C22.05,26.872 22.486,27.065 22.895,27.229C24.366,27.86 25.864,28.491 27.363,29.04C28.725,29.533 30.223,29.972 31.667,30.109C31.858,30.137 32.049,30.137 32.24,30.137L32.376,30.137C32.866,30.109 33.411,30.027 33.929,29.89C32.022,30.054 30.087,29.561 28.262,28.957C27.036,28.683 25.837,28.271 24.693,27.75C24.666,27.75 24.693,27.695 24.72,27.695C26.3,28.189 27.908,28.491 29.542,28.683C31.122,28.875 32.757,29.012 34.337,28.957C34.392,28.957 34.392,29.012 34.337,29.012C33.847,29.094 33.357,29.149 32.866,29.204C33.575,29.177 34.256,29.122 34.937,28.985C35.4,28.875 35.836,28.738 36.245,28.546C35.672,28.491 35.046,28.299 34.637,28.134C33.248,27.641 31.913,26.982 30.659,26.242C30.605,26.214 30.632,26.159 30.687,26.159C31.749,26.571 32.866,26.927 33.956,27.257C33.057,26.79 32.212,26.269 31.368,25.72C31.313,25.693 31.368,25.611 31.422,25.638C32.321,26.104 33.275,26.543 34.228,26.9C34.692,27.065 35.127,27.257 35.591,27.394C35.618,27.394 35.672,27.421 35.7,27.421C35.182,27.202 34.692,26.982 34.174,26.708C33.248,26.187 32.321,25.666 31.395,25.172C29.542,24.267 27.526,23.526 25.51,22.95C23.467,22.374 21.369,21.962 19.271,21.661C19.135,21.633 18.999,21.633 18.863,21.606C19.762,21.798 20.661,22.045 21.56,22.292C22.949,22.648 24.339,23.032 25.728,23.471C27.199,23.91 28.643,24.431 29.978,25.199C30.033,25.227 29.978,25.282 29.951,25.254C28.671,24.596 27.281,24.239 25.864,23.91C24.448,23.608 23.058,23.279 21.669,22.95C20.252,22.593 18.835,22.155 17.364,21.99C16.029,21.825 14.694,21.716 13.359,21.387C12.651,21.222 11.97,21.003 11.316,20.756C10.635,20.481 9.872,20.18 9.354,19.658C9.327,19.631 9.327,19.604 9.327,19.604C8.537,19.247 7.72,19 6.82,19.055C6.739,19.055 6.684,19.028 6.657,18.973C6.548,18.973 6.439,19 6.33,19.028C6.82,19.329 7.256,19.686 7.747,19.96C8.401,20.372 9.164,20.701 9.926,20.975ZM35.209,28.518C35.236,28.518 35.236,28.546 35.209,28.546C33.411,28.463 31.613,27.997 29.924,27.366C29.052,27.037 28.235,26.598 27.39,26.214C26.545,25.83 25.701,25.336 24.829,24.98C24.802,24.98 24.829,24.952 24.856,24.952C25.728,25.199 26.6,25.391 27.445,25.666C28.316,25.967 29.188,26.242 30.033,26.571C31.776,27.229 33.466,27.97 35.209,28.518Z" style="fill:rgb(245,206,149);fill-rule:nonzero;"/>
    <path d="M15.485,11.813C17.446,12.005 19.326,12.362 21.179,13.075C23.004,13.761 24.802,14.584 26.546,15.489C26.546,15.489 26.573,15.489 26.573,15.516C28.099,16.312 29.597,17.19 30.987,18.122C31.45,18.424 31.858,18.753 32.294,19.11C33.466,19.768 34.719,20.673 35.209,21.798C35.4,22.209 35.482,22.621 35.536,23.005C35.7,23.608 35.727,24.239 35.782,24.897L35.782,24.925C35.782,25.035 35.809,25.144 35.809,25.227C35.809,25.199 35.809,25.199 35.782,25.172C35.809,25.528 35.891,25.858 35.972,26.214C36.081,26.626 36.327,27.256 36.681,27.558L36.681,27.531C36.517,27.064 36.245,26.626 36.19,26.132L36.19,26.104C36,25.474 36,24.76 35.945,24.129C35.945,24.075 36.027,24.075 36.027,24.129C36.19,24.843 36.299,25.638 36.681,26.296C36.762,26.433 36.844,26.598 36.953,26.735C37.008,25.967 37.035,25.199 37.062,24.431C37.062,24.376 37.171,24.376 37.171,24.431C37.225,25.062 37.307,25.666 37.416,26.296C37.416,26.379 37.444,26.461 37.444,26.571C37.498,26.324 37.553,26.077 37.634,25.858C37.798,25.364 38.016,24.87 38.206,24.376C38.206,24.267 38.234,24.184 38.234,24.075C38.206,21.798 36.844,19.576 35.019,17.958C34.774,17.738 34.501,17.519 34.256,17.327C34.229,17.299 34.201,17.272 34.147,17.245C33.902,17.052 33.629,16.86 33.384,16.696C33.33,16.668 33.302,16.641 33.248,16.614C33.003,16.449 32.73,16.257 32.458,16.092C32.403,16.065 32.376,16.038 32.322,16.01C32.049,15.846 31.777,15.681 31.477,15.516C31.45,15.489 31.423,15.489 31.395,15.461C31.096,15.297 30.823,15.132 30.523,14.995C30.523,14.995 30.496,14.995 30.496,14.968C30.197,14.803 29.897,14.666 29.597,14.529C29.57,14.502 29.515,14.502 29.488,14.474C29.188,14.337 28.889,14.2 28.589,14.063C28.535,14.035 28.507,14.035 28.453,14.008C28.153,13.871 27.853,13.733 27.554,13.624L27.526,13.624C28.18,13.98 28.807,14.392 29.434,14.776C29.488,14.803 29.57,14.858 29.624,14.886C29.788,14.968 29.951,15.078 30.115,15.16C30.197,15.215 30.278,15.242 30.36,15.297C30.523,15.379 30.687,15.489 30.823,15.571C30.905,15.626 30.987,15.681 31.068,15.736C31.205,15.818 31.368,15.928 31.504,16.01C31.586,16.065 31.695,16.147 31.777,16.202C31.913,16.284 32.049,16.394 32.185,16.476C32.294,16.559 32.376,16.614 32.485,16.696C32.594,16.778 32.73,16.86 32.839,16.97C32.948,17.052 33.057,17.135 33.166,17.245C33.275,17.327 33.384,17.409 33.466,17.491C33.602,17.601 33.738,17.711 33.847,17.821C33.929,17.875 34.011,17.958 34.065,18.013C34.256,18.205 34.474,18.369 34.665,18.561C36.136,20.042 37.28,21.798 37.062,23.773L37.062,23.965C37.062,23.992 37.035,23.992 37.035,23.937C37.035,23.883 37.062,23.828 37.062,23.773C36.98,22.072 35.673,20.454 34.256,19.329C33.493,18.726 32.676,18.205 31.858,17.683C30.959,17.107 30.033,16.531 29.107,16.038C27.281,15.023 25.347,14.172 23.358,13.487C21.288,12.773 19.135,12.088 17.01,11.539C15.948,11.265 14.885,11.128 13.795,11.265C13.305,11.32 12.815,11.429 12.324,11.567L12.297,11.594L12.624,11.594C13.632,11.594 14.585,11.731 15.485,11.813ZM29.079,16.202C30.224,16.751 31.341,17.299 32.376,18.013C33.33,18.671 34.283,19.384 35.128,20.18C35.891,20.92 36.463,21.77 36.708,22.731C36.953,23.718 36.926,24.705 36.844,25.693C36.844,25.748 36.762,25.748 36.762,25.693C36.572,24.76 36.435,23.8 36.109,22.868C35.782,21.908 35.264,21.112 34.501,20.372C33.738,19.603 32.894,18.863 32.022,18.205C31.068,17.519 30.115,16.806 29.079,16.202C29.052,16.23 29.052,16.202 29.079,16.202Z" style="fill:rgb(245,206,149);fill-rule:nonzero;"/>
    <path d="M31.258,29.315C31.312,29.342 31.394,29.342 31.449,29.369C32.457,29.589 33.492,29.836 34.5,29.753C34.691,29.699 34.854,29.644 35.045,29.561C33.792,29.644 32.511,29.479 31.258,29.315Z" style="fill:rgb(245,206,149);fill-rule:nonzero;"/>
    <path d="M34.363,21.607C34.5,21.799 34.609,21.991 34.718,22.211C34.609,21.991 34.5,21.799 34.363,21.607Z" style="fill:rgb(245,206,149);fill-rule:nonzero;"/>
    <path d="M37.526,26.71C37.58,26.628 37.635,26.518 37.689,26.436C37.716,26.408 37.716,26.381 37.744,26.326C37.771,26.271 37.798,26.189 37.825,26.134C37.853,26.079 37.853,26.052 37.88,25.997C37.907,25.942 37.934,25.887 37.934,25.805C37.962,25.75 37.962,25.722 37.989,25.667C38.016,25.613 38.016,25.558 38.043,25.475C38.043,25.421 38.071,25.366 38.071,25.338C38.098,25.283 38.098,25.229 38.098,25.174C38.098,25.119 38.125,25.064 38.125,25.009C38.125,24.954 38.152,24.899 38.152,24.845C38.152,24.79 38.18,24.735 38.18,24.68C38.18,24.625 38.207,24.57 38.207,24.515C38.207,24.461 38.234,24.406 38.234,24.351C38.043,24.845 37.825,25.338 37.662,25.832C37.58,26.079 37.526,26.298 37.471,26.545C37.444,26.463 37.444,26.381 37.444,26.271C37.362,25.64 37.28,25.037 37.199,24.406C37.199,24.351 37.09,24.351 37.09,24.406C37.09,25.174 37.035,25.942 36.981,26.71C36.899,26.573 36.817,26.408 36.708,26.271C36.327,25.585 36.218,24.817 36.054,24.104C36.054,24.049 35.973,24.077 35.973,24.104C36.054,24.762 36.027,25.448 36.218,26.079C36.218,26.079 36.191,26.106 36.218,26.106C36.272,26.628 36.545,27.039 36.708,27.505L36.708,27.533L36.844,27.533C36.899,27.533 36.926,27.56 36.981,27.587C36.954,27.587 36.926,27.56 36.926,27.533C36.681,27.203 36.518,26.82 36.409,26.436C36.381,26.353 36.49,26.326 36.518,26.408C36.627,26.71 36.817,26.957 37.062,27.203C37.062,26.765 37.117,26.326 37.117,25.914C37.117,25.887 37.171,25.86 37.199,25.914C37.28,26.298 37.389,26.71 37.417,27.121C37.526,26.874 37.662,26.628 37.771,26.381C37.689,26.463 37.635,26.573 37.553,26.655C37.526,26.765 37.471,26.792 37.526,26.71Z" style="fill:rgb(238,193,126);fill-rule:nonzero;"/>
    <path d="M36.761,28.053C36.652,28.08 36.543,28.108 36.434,28.108C36.597,28.135 36.706,28.108 36.761,28.053Z" style="fill:rgb(238,193,126);fill-rule:nonzero;"/>
    <path d="M38.151,25.941C38.042,26.407 37.933,26.846 37.797,27.313L37.824,27.285C38.178,26.846 38.396,26.298 38.56,25.749C38.642,25.447 38.696,25.118 38.723,24.789C38.587,25.201 38.369,25.584 38.151,25.941Z" style="fill:rgb(238,193,126);fill-rule:nonzero;"/>
    <path d="M35.264,30.768C35.236,30.796 35.182,30.741 35.209,30.714C35.591,30.439 35.945,30.165 36.244,29.808C36.353,29.699 36.435,29.561 36.517,29.424C36.217,29.616 35.89,29.781 35.563,29.918C35.482,30.028 35.4,30.137 35.291,30.22C35.073,30.439 34.828,30.659 34.583,30.851C34.61,30.823 34.637,30.823 34.664,30.796C34.692,30.768 34.719,30.823 34.692,30.851C34.392,31.043 34.092,31.235 33.792,31.399C33.82,31.427 33.82,31.427 33.792,31.454C33.575,31.619 33.356,31.783 33.111,31.92L33.139,31.92C34.065,31.674 34.937,31.262 35.7,30.686L35.727,30.659C35.645,30.851 35.536,31.043 35.454,31.235C35.591,31.098 35.7,30.933 35.781,30.768C35.809,30.714 35.917,30.768 35.89,30.823C35.645,31.372 35.318,31.866 34.91,32.277C34.91,32.304 34.964,32.359 35.018,32.332C35.046,32.304 35.1,32.277 35.127,32.249C35.1,32.332 35.1,32.414 35.073,32.496C35.645,32.003 36.136,31.427 36.517,30.768C36.789,30.302 36.98,29.808 37.116,29.287C36.708,29.973 35.999,30.357 35.264,30.768Z" style="fill:rgb(238,193,126);fill-rule:nonzero;"/>
    <path d="M34.5,27.561C34.309,27.478 34.119,27.369 33.928,27.286C32.811,26.985 31.721,26.601 30.659,26.189C30.604,26.162 30.577,26.244 30.631,26.271C31.912,27.012 33.219,27.643 34.609,28.164C35.018,28.301 35.644,28.493 36.216,28.576C35.808,28.767 35.372,28.905 34.909,29.014C34.255,29.152 33.546,29.234 32.838,29.234C32.32,29.289 31.776,29.316 31.258,29.316C32.511,29.481 33.792,29.645 35.045,29.563C35.644,29.316 36.189,29.014 36.625,28.603C36.407,28.576 36.162,28.493 35.971,28.411C35.426,28.219 34.909,28.054 34.364,27.89C34.282,27.862 34.309,27.753 34.391,27.78C34.8,27.862 35.208,27.945 35.644,28.027C35.236,27.89 34.827,27.725 34.5,27.561Z" style="fill:rgb(238,193,126);fill-rule:nonzero;"/>
    <path d="M10.033,26.354C10.224,26.491 10.415,26.6 10.633,26.738C10.932,26.902 11.232,27.094 11.532,27.231C11.259,27.094 11.014,26.93 10.742,26.765C10.524,26.655 10.278,26.518 10.033,26.354Z" style="fill:rgb(249,218,163);fill-rule:nonzero;"/>
    <path d="M17.118,11.541C19.243,12.089 21.395,12.775 23.466,13.488C25.455,14.174 27.389,15.024 29.214,16.039C30.168,16.56 31.067,17.109 31.966,17.685C32.783,18.206 33.601,18.727 34.364,19.331C35.78,20.455 37.088,22.074 37.17,23.774C37.415,21.799 36.271,20.044 34.772,18.563C34.582,18.371 34.391,18.179 34.173,18.014C34.091,17.959 34.009,17.877 33.955,17.822C33.819,17.712 33.71,17.603 33.573,17.493C33.464,17.411 33.356,17.328 33.274,17.246C33.165,17.164 33.056,17.081 32.947,16.972C32.838,16.89 32.702,16.807 32.593,16.698C32.484,16.615 32.402,16.56 32.293,16.478C32.157,16.396 32.02,16.286 31.884,16.204C31.802,16.149 31.694,16.067 31.612,16.012C31.476,15.929 31.312,15.82 31.176,15.737C31.094,15.683 31.012,15.628 30.931,15.573C30.767,15.491 30.604,15.381 30.468,15.299C30.386,15.244 30.304,15.216 30.222,15.161C30.059,15.052 29.895,14.969 29.732,14.887C29.677,14.86 29.596,14.805 29.541,14.777C30.222,15.216 30.876,15.655 31.53,16.094C33.001,17.109 34.418,18.206 35.317,19.687C35.344,19.715 35.29,19.742 35.263,19.715C34.336,18.426 33.001,17.466 31.612,16.643C31.312,16.478 31.04,16.286 30.74,16.122C28.479,14.997 26.163,13.982 23.82,13.077C22.403,12.528 20.959,12.007 19.488,11.541C18.998,11.376 18.48,11.239 17.962,11.129C17.799,11.102 17.608,11.102 17.445,11.074C16.546,11.02 15.647,11.02 14.775,11.074C14.175,11.102 13.603,11.239 13.004,11.321C12.813,11.403 12.65,11.486 12.459,11.568C12.949,11.431 13.44,11.321 13.93,11.266C14.993,11.157 16.055,11.266 17.118,11.541Z" style="fill:rgb(232,187,128);fill-rule:nonzero;"/>
    <path d="M27.607,13.624C27.907,13.761 28.207,13.871 28.506,14.008C28.561,14.035 28.588,14.035 28.642,14.063C28.942,14.2 29.242,14.337 29.542,14.474C29.569,14.502 29.623,14.502 29.651,14.529C29.95,14.666 30.25,14.831 30.55,14.968C30.55,14.968 30.577,14.968 30.577,14.995C30.877,15.16 31.176,15.297 31.449,15.462C31.476,15.489 31.503,15.489 31.53,15.517C31.803,15.681 32.103,15.846 32.375,16.01C32.429,16.038 32.457,16.065 32.511,16.093C32.784,16.257 33.029,16.422 33.301,16.614C33.356,16.641 33.383,16.669 33.438,16.696C33.71,16.888 33.955,17.053 34.2,17.245C34.228,17.272 34.255,17.299 34.309,17.327C34.582,17.519 34.827,17.738 35.072,17.958C36.898,19.576 38.287,21.798 38.287,24.075C38.287,24.184 38.26,24.267 38.26,24.376C38.26,24.431 38.233,24.486 38.233,24.541C38.233,24.596 38.205,24.651 38.205,24.706C38.205,24.76 38.178,24.815 38.178,24.87C38.178,24.925 38.151,24.98 38.151,25.035C38.151,25.09 38.124,25.144 38.124,25.199C38.124,25.254 38.096,25.309 38.096,25.364C38.096,25.419 38.069,25.474 38.069,25.501C38.042,25.556 38.042,25.611 38.015,25.693C37.987,25.748 37.987,25.775 37.96,25.83C37.933,25.885 37.906,25.94 37.906,26.022C37.878,26.077 37.878,26.105 37.851,26.159C37.824,26.214 37.797,26.297 37.769,26.351C37.742,26.379 37.742,26.406 37.715,26.461C37.66,26.571 37.606,26.653 37.551,26.735C37.524,26.79 37.551,26.763 37.606,26.708C37.688,26.626 37.769,26.516 37.824,26.434C37.933,26.187 38.069,25.94 38.178,25.666C38.178,25.638 38.233,25.666 38.233,25.693C38.205,25.775 38.178,25.858 38.151,25.967C38.396,25.611 38.587,25.227 38.723,24.815C38.805,24.02 38.696,23.197 38.478,22.374C37.688,19.384 35.099,17.135 32.103,15.434C30.495,14.529 28.752,13.761 27.09,13.158C26.708,13.02 26.327,12.883 25.945,12.746C26.49,13.02 27.062,13.322 27.58,13.624L27.607,13.624Z" style="fill:rgb(232,187,128);fill-rule:nonzero;"/>
    <path d="M32.077,16.779C32.077,16.779 32.077,16.807 32.077,16.779C31.613,16.56 31.178,16.34 30.715,16.121C31.014,16.286 31.287,16.45 31.586,16.642C32.976,17.493 34.311,18.453 35.237,19.714C35.264,19.742 35.292,19.714 35.292,19.687C34.393,18.206 32.976,17.109 31.505,16.094C30.851,15.627 30.197,15.188 29.516,14.777C28.889,14.366 28.235,13.981 27.609,13.625C27.064,13.323 26.519,13.021 25.974,12.747C23.958,12.061 21.942,11.54 19.898,11.184C21.179,11.54 22.459,11.979 23.685,12.445C26.655,13.597 29.434,15.051 32.077,16.779Z" style="fill:rgb(225,176,109);fill-rule:nonzero;"/>
    <path d="M17.418,11.1C17.581,11.1 17.772,11.128 17.935,11.155C17.799,11.128 17.663,11.1 17.527,11.073C16.791,10.963 16.083,10.99 15.347,10.99C15.238,10.99 14.393,11.018 14.312,10.963C13.849,11.045 13.413,11.182 13.004,11.347C13.603,11.265 14.175,11.155 14.775,11.1C15.619,11.045 16.518,11.045 17.418,11.1Z" style="fill:rgb(225,176,109);fill-rule:nonzero;"/>
    <path d="M8.617,21.416C9.952,21.91 11.178,22.623 12.54,23.034C13.929,23.473 15.373,23.72 16.817,23.802C19.678,23.967 22.62,23.665 25.345,24.817L25.345,24.845C24.827,24.68 24.31,24.57 23.792,24.488C24.555,24.653 25.29,24.872 26.026,25.091C27.388,25.475 28.723,25.914 30.085,26.353C30.113,26.353 30.14,26.326 30.113,26.298C28.669,25.695 27.225,25.091 25.753,24.598C24.418,24.131 23.056,23.775 21.694,23.446C21.367,23.363 21.04,23.308 20.713,23.254C19.542,23.226 18.37,23.226 17.171,23.116C16.054,23.007 14.937,22.87 13.82,22.65C12.676,22.431 11.559,22.156 10.442,21.8C9.597,21.526 8.753,21.251 7.936,20.867C7.963,20.95 7.99,21.004 8.017,21.087C8.181,21.196 8.371,21.306 8.535,21.443C8.562,21.416 8.589,21.416 8.617,21.416Z" style="fill:rgb(238,193,126);fill-rule:nonzero;"/>
    <path d="M21.395,24.871C24.01,25.612 26.517,26.764 29.078,27.696C29.132,27.724 29.105,27.778 29.05,27.751C26.517,27.01 23.928,26.38 21.34,25.776C20.305,25.529 19.242,25.337 18.207,25.145C18.779,25.337 19.351,25.557 19.951,25.749C21.476,26.27 23.002,26.818 24.555,27.257C24.582,27.257 24.582,27.312 24.528,27.312C24.201,27.23 23.874,27.175 23.547,27.093C24.228,27.257 24.909,27.394 25.59,27.559C26.707,27.806 27.797,28.053 28.941,28.08C28.996,28.08 29.023,28.108 29.078,28.108C30.903,28.382 32.783,28.684 34.608,28.629C34.663,28.629 34.663,28.547 34.608,28.547C32.538,28.382 30.494,27.751 28.505,27.148C26.735,26.599 25.045,25.858 23.329,25.173C22.539,24.871 21.749,24.569 20.932,24.322C20.359,24.322 19.76,24.35 19.188,24.377C19.896,24.487 20.659,24.679 21.395,24.871Z" style="fill:rgb(238,193,126);fill-rule:nonzero;"/>
    <path d="M27.388,29.04C25.89,28.492 24.392,27.861 22.92,27.23C22.512,27.065 22.076,26.873 21.667,26.709C21.013,26.572 20.387,26.434 19.733,26.297C18.697,26.05 17.662,25.831 16.6,25.584C19.052,26.626 21.531,27.641 23.983,28.711C25.917,29.534 27.824,30.357 29.84,30.96C30.74,31.043 31.639,31.015 32.538,30.878C33.437,30.768 34.227,30.494 34.99,30.137C34.281,30.384 33.546,30.521 32.783,30.604C30.849,30.768 28.86,30.275 27.116,29.479C27.089,29.452 27.116,29.424 27.143,29.424C28.805,30.055 30.549,30.275 32.292,30.137C32.102,30.137 31.911,30.11 31.72,30.11C30.222,29.973 28.751,29.534 27.388,29.04Z" style="fill:rgb(238,193,126);fill-rule:nonzero;"/>
    <path d="M19.979,23.115C20.033,23.115 20.087,23.143 20.142,23.143C20.087,23.115 20.033,23.115 19.979,23.115Z" style="fill:rgb(238,193,126);fill-rule:nonzero;"/>
    <path d="M13.277,25.667C13.059,25.585 12.841,25.502 12.623,25.393C12.841,25.502 13.059,25.585 13.277,25.667Z" style="fill:rgb(238,193,126);fill-rule:nonzero;"/>
    <path d="M13.032,26.024C12.923,25.996 12.787,25.969 12.678,25.941C12.814,25.969 12.923,25.996 13.032,26.024Z" style="fill:rgb(238,193,126);fill-rule:nonzero;"/>
    <path d="M12.977,25.612C12.868,25.557 12.759,25.475 12.65,25.42C12.759,25.475 12.868,25.557 12.977,25.612Z" style="fill:rgb(238,193,126);fill-rule:nonzero;"/>
    <path d="M34.092,31.07C32.839,31.591 31.314,31.728 29.897,31.619C28.235,31.509 26.6,30.988 25.02,30.467C23.44,29.945 21.832,29.424 20.334,28.738C19.816,28.492 19.353,28.217 18.836,27.97C18.781,27.943 18.727,27.916 18.672,27.916C17.501,27.449 16.329,26.956 15.158,26.462C14.749,26.38 14.313,26.27 13.904,26.188C14.831,26.736 15.784,27.257 16.738,27.751C20.198,29.479 23.93,30.878 27.717,31.756C29.107,32.085 30.578,32.195 31.967,31.948C32.73,31.756 33.466,31.482 34.092,31.07Z" style="fill:rgb(238,193,126);fill-rule:nonzero;"/>
    <path d="M14.475,26.16C14.72,26.27 14.965,26.352 15.21,26.462C14.938,26.38 14.693,26.27 14.475,26.16Z" style="fill:rgb(238,193,126);fill-rule:nonzero;"/>
    <path d="M13.713,26.051C13.713,26.051 13.686,26.051 13.713,26.051C13.795,26.106 13.85,26.133 13.931,26.188C13.85,26.161 13.768,26.106 13.713,26.051Z" style="fill:rgb(238,193,126);fill-rule:nonzero;"/>
    <path d="M34.119,31.098C33.956,31.235 33.792,31.345 33.602,31.455C33.629,31.427 33.683,31.427 33.711,31.4L33.765,31.4C34.065,31.235 34.364,31.071 34.664,30.851C34.691,30.824 34.664,30.769 34.637,30.797C34.61,30.824 34.582,30.824 34.555,30.851C34.419,30.934 34.255,31.016 34.119,31.098C34.119,31.071 34.119,31.071 34.119,31.098Z" style="fill:rgb(238,193,126);fill-rule:nonzero;"/>
    <path d="M37.17,23.993L37.17,23.801C37.17,23.856 37.143,23.911 37.143,23.965C37.143,23.993 37.17,24.02 37.17,23.993Z" style="fill:rgb(246,206,147);fill-rule:nonzero;"/>
    <path d="M18.207,25.145C19.27,25.31 20.305,25.529 21.34,25.776C23.928,26.379 26.489,27.01 29.05,27.751C29.105,27.751 29.105,27.696 29.078,27.696C26.517,26.791 24.037,25.611 21.395,24.871C20.659,24.651 19.923,24.487 19.161,24.377C19.733,24.35 20.332,24.322 20.904,24.322C21.858,24.322 22.839,24.35 23.792,24.487C24.31,24.569 24.827,24.679 25.345,24.843C25.345,24.843 25.372,24.816 25.345,24.816C22.593,23.664 19.678,23.966 16.79,23.801C15.374,23.719 13.93,23.472 12.54,23.033C11.178,22.622 9.952,21.908 8.617,21.415C8.59,21.415 8.562,21.387 8.535,21.415C9.325,21.936 10.143,22.457 11.042,22.814C11.777,23.088 12.54,23.28 13.276,23.499C13.984,23.719 14.692,23.938 15.401,24.185C16.6,24.432 17.771,24.706 18.97,24.953C19.024,24.98 19.024,25.063 18.97,25.063C18.452,25.008 17.935,24.953 17.417,24.871C17.689,24.98 17.935,25.063 18.207,25.145Z" style="fill:rgb(221,177,118);fill-rule:nonzero;"/>
    <path d="M29.733,34.417C29.842,34.417 29.951,34.417 30.087,34.389C30.141,34.389 30.196,34.389 30.25,34.362C30.387,34.362 30.496,34.335 30.605,34.307C30.632,34.307 30.686,34.307 30.714,34.28C30.877,34.252 31.013,34.225 31.177,34.197C31.231,34.197 31.258,34.17 31.313,34.17C31.422,34.143 31.531,34.115 31.64,34.088C31.694,34.06 31.749,34.06 31.803,34.033C31.912,34.005 31.994,33.978 32.103,33.951C32.157,33.923 32.212,33.923 32.266,33.896C32.403,33.841 32.539,33.786 32.675,33.731C32.702,33.704 32.757,33.704 32.784,33.676C32.893,33.621 33.002,33.594 33.084,33.539C33.138,33.512 33.193,33.484 33.247,33.457C33.329,33.402 33.411,33.374 33.492,33.32C33.547,33.292 33.601,33.265 33.656,33.237C33.738,33.182 33.819,33.128 33.901,33.073C33.956,33.045 33.983,33.018 34.037,32.99C34.146,32.908 34.255,32.826 34.364,32.743C34.419,32.716 34.446,32.661 34.501,32.634C34.555,32.579 34.637,32.524 34.691,32.469C34.746,32.414 34.773,32.387 34.827,32.332C34.855,32.305 34.882,32.277 34.882,32.25C35.291,31.811 35.618,31.345 35.863,30.796C35.89,30.741 35.808,30.686 35.754,30.741C35.645,30.906 35.536,31.07 35.427,31.208C35.318,31.345 35.209,31.454 35.073,31.592C35.018,31.646 34.964,31.674 34.936,31.729C34.855,31.811 34.773,31.866 34.691,31.948C34.637,32.003 34.582,32.03 34.501,32.085C34.419,32.14 34.337,32.195 34.228,32.25C34.174,32.277 34.092,32.332 34.037,32.359C33.956,32.414 33.847,32.469 33.765,32.497C33.683,32.524 33.629,32.551 33.547,32.579C33.438,32.634 33.356,32.661 33.247,32.689C33.193,32.716 33.111,32.743 33.029,32.771C32.92,32.798 32.784,32.853 32.675,32.881C32.621,32.908 32.566,32.908 32.512,32.936C32.321,32.99 32.157,33.018 31.967,33.073C30.169,33.429 28.289,33.182 26.436,32.689C27.417,32.798 28.398,32.826 29.379,32.743L30.114,32.743C30.223,32.743 30.359,32.716 30.468,32.716C30.55,32.716 30.605,32.689 30.686,32.689C30.795,32.689 30.904,32.661 31.013,32.634C31.095,32.634 31.177,32.606 31.258,32.579C31.367,32.551 31.449,32.524 31.558,32.497C31.64,32.469 31.722,32.469 31.776,32.442C31.885,32.414 31.994,32.359 32.103,32.332C32.212,32.305 32.321,32.25 32.43,32.222C32.539,32.167 32.621,32.14 32.73,32.085C32.811,32.058 32.866,32.003 32.948,31.976C33.002,31.948 33.057,31.921 33.111,31.893C33.329,31.756 33.574,31.619 33.792,31.427C33.819,31.4 33.792,31.372 33.792,31.372C33.765,31.372 33.765,31.345 33.738,31.372C33.71,31.4 33.656,31.4 33.629,31.427C32.92,31.866 32.13,32.195 31.313,32.469C30.768,32.634 30.25,32.771 29.651,32.743C29.052,32.716 28.479,32.551 27.907,32.414C25.319,31.756 22.731,30.988 20.306,29.891C22.622,30.906 25.074,31.482 27.553,32.003C28.098,32.113 28.67,32.25 29.215,32.332C29.842,32.442 30.441,32.332 31.04,32.195C31.367,32.113 31.667,32.03 31.967,31.948C30.577,32.195 29.106,32.058 27.717,31.756C23.93,30.878 20.197,29.479 16.764,27.751C15.811,27.258 14.857,26.736 13.931,26.188C13.631,26.133 13.332,26.078 13.059,25.996C12.95,25.968 12.814,25.941 12.705,25.914C12.569,25.886 12.432,25.859 12.296,25.831C11.751,25.749 11.179,25.612 10.662,25.475C11.343,25.831 12.024,26.16 12.705,26.49C13.059,26.654 13.413,26.819 13.767,26.983C14.775,27.34 15.784,27.696 16.737,28.135C17.418,28.41 18.072,28.766 18.671,29.178C18.699,29.205 18.671,29.26 18.617,29.233C18.535,29.178 18.453,29.123 18.345,29.095C18.399,29.123 18.426,29.15 18.481,29.205C18.29,29.095 18.072,28.986 17.881,28.876C17.037,28.492 16.138,28.245 15.239,28.026C14.067,27.724 12.95,27.395 11.86,26.956C11.234,26.709 10.58,26.435 9.98,26.106L10.008,26.133C10.117,26.215 10.226,26.27 10.362,26.352C10.389,26.38 10.444,26.407 10.471,26.435C10.634,26.517 10.798,26.627 10.934,26.709C12.351,27.45 13.904,27.916 15.402,28.437C16.955,28.958 18.453,29.589 19.952,30.247C21.668,30.988 23.385,31.838 25.292,32.113C25.374,32.113 25.374,32.25 25.292,32.25C23.657,32.085 22.132,31.537 20.606,30.988C19.08,30.439 17.554,29.946 16.002,29.424C17.255,30.028 18.508,30.604 19.761,31.18C21.423,31.948 23.058,32.743 24.774,33.429C26.164,33.978 27.635,34.417 29.106,34.472L29.597,34.472C29.651,34.417 29.705,34.417 29.733,34.417Z" style="fill:rgb(221,177,118);fill-rule:nonzero;"/>
    <path d="M18.698,27.916C18.752,27.943 18.807,27.971 18.861,27.971C20.632,28.684 22.403,29.315 24.256,29.781C26.108,30.247 27.988,30.659 29.895,31.015L30.004,31.015C30.004,31.015 30.004,30.988 29.977,30.988C29.923,30.96 29.868,30.96 29.841,30.933C27.825,30.33 25.89,29.507 23.983,28.684C21.531,27.641 19.052,26.599 16.6,25.557C17.635,25.804 18.671,26.023 19.733,26.27C20.387,26.407 21.014,26.544 21.667,26.681C22.294,26.818 22.921,26.956 23.547,27.065C23.874,27.148 24.201,27.202 24.528,27.285C24.583,27.285 24.583,27.23 24.555,27.23C23.002,26.791 21.477,26.215 19.951,25.721C19.379,25.529 18.807,25.337 18.207,25.118C17.935,25.036 17.69,24.926 17.417,24.844C15.156,24.624 12.868,24.377 10.633,23.993C10.143,23.911 9.653,23.801 9.189,23.691C10.225,24.377 11.424,24.761 12.65,25.09C14.257,25.529 15.837,26.023 17.39,26.599C18.97,27.175 20.469,27.861 21.994,28.547C22.049,28.574 22.022,28.629 21.967,28.629C20.278,28.053 18.589,27.449 16.872,26.928C16.328,26.764 15.755,26.626 15.183,26.489C16.355,26.956 17.526,27.449 18.698,27.916Z" style="fill:rgb(221,177,118);fill-rule:nonzero;"/>
    <path d="M15.184,26.462C14.939,26.353 14.694,26.27 14.448,26.161C14.203,26.133 13.931,26.078 13.685,26.051C13.767,26.106 13.822,26.133 13.903,26.188C14.339,26.298 14.775,26.38 15.184,26.462Z" style="fill:rgb(209,165,111);fill-rule:nonzero;"/>
    <path d="M12.977,25.612C13.086,25.639 13.195,25.639 13.277,25.667C13.059,25.585 12.841,25.502 12.623,25.393C12.759,25.475 12.868,25.557 12.977,25.612Z" style="fill:rgb(209,165,111);fill-rule:nonzero;"/>
    <path d="M17.745,14.503C18.018,14.777 18.236,15.106 18.508,15.381C18.617,15.49 18.726,15.6 18.835,15.71C18.862,15.737 18.89,15.765 18.917,15.792C19.135,16.012 19.38,16.204 19.625,16.396C19.87,16.533 20.116,16.67 20.361,16.807C21.505,17.438 22.676,18.096 23.848,18.7C25.02,19.276 26.218,19.797 27.335,20.455C28.398,21.086 29.379,21.827 30.305,22.65C30.332,22.677 30.305,22.677 30.278,22.677C29.869,22.375 29.433,22.074 28.97,21.799C29.188,21.964 29.379,22.128 29.569,22.32C29.161,21.964 28.698,21.635 28.234,21.36C28.207,21.333 28.18,21.333 28.125,21.305C27.117,20.976 25.973,20.922 24.992,21.168C24.693,21.278 24.393,21.443 24.093,21.607C24.011,21.662 24.066,21.772 24.175,21.744C25.455,21.443 26.845,21.278 28.153,21.799C29.515,22.348 30.577,23.335 31.64,24.241C31.667,24.268 31.722,24.241 31.694,24.186C31.531,23.966 31.367,23.747 31.177,23.527C30.659,22.512 29.733,21.69 28.806,20.976C27.58,20.016 26.164,19.248 24.774,18.48C23.385,17.712 22.023,16.862 20.524,16.231C20.116,16.066 19.734,15.874 19.353,15.655C19.87,15.902 20.388,16.149 20.933,16.396C22.813,17.246 24.774,17.987 26.463,19.139C26.491,19.139 26.491,19.139 26.491,19.111C24.965,17.849 23.249,16.834 21.45,15.984C20.551,15.573 19.652,15.134 18.781,14.695C18.372,14.558 17.963,14.393 17.555,14.229C17.527,14.229 17.527,14.201 17.5,14.201C17.527,14.229 17.555,14.256 17.582,14.311C17.636,14.366 17.664,14.448 17.718,14.503C17.718,14.476 17.745,14.476 17.745,14.503ZM18.535,15.243C18.563,15.298 18.617,15.353 18.644,15.408C18.535,15.326 18.426,15.216 18.317,15.106C18.372,15.161 18.454,15.189 18.535,15.243Z" style="fill:rgb(226,172,118);fill-rule:nonzero;"/>
    <path d="M26.899,20.676C26.872,20.676 26.872,20.676 26.845,20.648L26.572,20.648L26.654,20.648C26.763,20.648 26.818,20.648 26.899,20.676Z" style="fill:rgb(226,172,118);fill-rule:nonzero;"/>
    <path d="M21.887,18.014C22.568,18.398 23.277,18.782 23.985,19.166C24.285,19.331 24.612,19.523 24.939,19.715C25.483,19.962 26.028,20.181 26.546,20.4C26.873,20.455 27.2,20.565 27.527,20.702C27.554,20.73 27.527,20.757 27.5,20.757C27.282,20.702 27.064,20.675 26.846,20.647C26.873,20.647 26.873,20.647 26.9,20.675C26.818,20.675 26.737,20.647 26.655,20.647L26.573,20.647C25.756,20.647 24.939,20.922 24.312,21.306C24.285,21.333 24.257,21.333 24.23,21.36C24.23,21.388 24.257,21.443 24.312,21.415C24.53,21.306 24.748,21.251 24.993,21.169C25.974,20.922 27.118,20.977 28.126,21.306C28.153,21.333 28.181,21.333 28.235,21.36C28.698,21.635 29.161,21.964 29.57,22.321C29.379,22.156 29.161,21.964 28.971,21.799C29.407,22.074 29.87,22.375 30.278,22.677C30.306,22.677 30.306,22.677 30.306,22.65C29.379,21.854 28.399,21.114 27.336,20.455C26.219,19.797 25.02,19.276 23.849,18.7C22.677,18.096 21.506,17.465 20.362,16.807C20.116,16.67 19.871,16.533 19.626,16.396C19.381,16.204 19.136,16.012 18.918,15.792C18.89,15.765 18.836,15.737 18.809,15.682C18.7,15.573 18.618,15.491 18.536,15.381C18.291,15.079 18.073,14.777 17.773,14.503C17.746,14.476 17.746,14.476 17.719,14.503C17.828,14.668 17.91,14.832 17.991,14.997C19.054,16.204 20.416,17.164 21.887,18.014Z" style="fill:rgb(234,195,139);fill-rule:nonzero;"/>
    <path d="M23.713,21.688C23.74,21.688 23.74,21.661 23.767,21.661C23.876,21.578 23.958,21.524 24.067,21.469C23.931,21.524 23.822,21.606 23.713,21.688Z" style="fill:rgb(188,150,29);fill-rule:nonzero;"/>
    <path d="M26.245,20.373C26.327,20.373 26.436,20.401 26.545,20.401C26,20.181 25.482,19.934 24.938,19.715C25.346,19.962 25.782,20.181 26.245,20.373Z" style="fill:rgb(188,150,29);fill-rule:nonzero;"/>
    <path d="M15.238,12.719L15.184,12.719C16.001,12.746 16.818,12.856 17.663,13.021C16.846,12.856 16.055,12.746 15.238,12.719Z" style="fill:rgb(156,102,32);fill-rule:nonzero;"/>
    <path d="M13.059,13.844C13.44,13.762 13.876,13.68 14.367,13.652C14.584,13.625 14.83,13.625 15.075,13.625C15.647,13.625 16.246,13.652 16.819,13.735C16.927,13.735 17.036,13.762 17.145,13.79C17.663,13.872 18.126,13.954 18.508,14.064C18.535,14.064 18.562,14.091 18.589,14.091C18.807,14.146 19.025,14.228 19.27,14.311C21.505,15.079 24.311,16.34 26.735,17.685C28.016,18.398 29.215,19.138 30.141,19.824C31.476,20.812 32.702,21.909 33.574,23.253C33.983,23.884 34.282,24.542 34.446,25.228C34.555,25.612 34.582,26.078 34.745,26.49C34.963,26.627 35.209,26.764 35.426,26.901C35.563,26.983 35.699,27.066 35.835,27.175C35.808,27.148 35.808,27.148 35.781,27.121C35.535,26.846 35.318,26.435 35.209,26.106C35.072,25.639 35.018,25.173 34.963,24.707C34.936,24.652 34.936,24.597 34.909,24.542C34.773,24.048 34.691,23.527 34.582,23.033C34.309,22.43 33.874,21.964 33.329,21.47C32.702,20.894 31.994,20.373 31.313,19.824C31.231,19.769 31.176,19.714 31.095,19.66C29.405,18.37 27.471,17.438 25.537,16.505C24.011,15.765 22.485,15.024 20.905,14.42C20.878,14.42 20.851,14.393 20.796,14.393C19.734,14.064 18.644,13.79 17.554,13.625C16.573,13.46 15.565,13.378 14.584,13.433C13.576,13.488 12.677,13.762 11.751,14.091C11.697,14.119 11.642,14.146 11.615,14.201C11.588,14.228 11.615,14.283 11.642,14.256C11.942,14.174 12.432,13.982 13.059,13.844Z" style="fill:rgb(156,102,32);fill-rule:nonzero;"/>
    <path d="M26.572,15.49C26.572,15.49 26.545,15.49 26.545,15.463C26.545,15.49 26.572,15.49 26.572,15.49Z" style="fill:rgb(156,102,32);fill-rule:nonzero;"/>
    <path d="M17.69,13.049C18.262,13.186 18.861,13.323 19.433,13.515C18.834,13.323 18.262,13.159 17.69,13.049Z" style="fill:rgb(156,102,32);fill-rule:nonzero;"/>
    <path d="M21.641,14.339C21.477,14.284 21.314,14.201 21.178,14.147C21.314,14.201 21.477,14.284 21.641,14.339Z" style="fill:rgb(156,102,32);fill-rule:nonzero;"/>
    <path d="M22.186,14.585C22.022,14.502 21.859,14.448 21.695,14.365C21.859,14.448 22.022,14.502 22.186,14.585Z" style="fill:rgb(156,102,32);fill-rule:nonzero;"/>
    <path d="M21.123,14.12C20.96,14.065 20.769,13.983 20.606,13.928C20.769,13.983 20.932,14.065 21.123,14.12Z" style="fill:rgb(156,102,32);fill-rule:nonzero;"/>
    <path d="M29.242,18.15C29.46,18.26 29.651,18.37 29.869,18.507C30.196,18.699 30.523,18.864 30.85,19.056C30.523,18.864 30.196,18.672 29.869,18.507C29.651,18.37 29.433,18.26 29.242,18.15Z" style="fill:rgb(156,102,32);fill-rule:nonzero;"/>
    <path d="M20.523,13.9C20.169,13.762 19.815,13.625 19.434,13.516C19.815,13.653 20.169,13.762 20.523,13.9Z" style="fill:rgb(156,102,32);fill-rule:nonzero;"/>
    <path d="M32.32,19.934C32.511,20.071 32.702,20.208 32.892,20.318C32.729,20.208 32.511,20.071 32.32,19.934Z" style="fill:rgb(156,102,32);fill-rule:nonzero;"/>
    <path d="M22.295,14.613C22.458,14.696 22.622,14.75 22.758,14.833C22.976,14.888 23.167,14.97 23.358,15.052C23.167,14.97 22.949,14.888 22.758,14.833C22.595,14.778 22.431,14.696 22.295,14.613Z" style="fill:rgb(156,102,32);fill-rule:nonzero;"/>
    <path d="M25.102,15.848C25.51,16.067 25.892,16.287 26.273,16.533C26.491,16.643 26.682,16.753 26.9,16.863C26.682,16.753 26.491,16.643 26.273,16.533C25.892,16.314 25.51,16.067 25.102,15.848Z" style="fill:rgb(156,102,32);fill-rule:nonzero;"/>
    <path d="M20.852,14.365C20.879,14.365 20.906,14.393 20.961,14.393L21.015,14.393C20.933,14.393 20.879,14.393 20.852,14.365Z" style="fill:rgb(206,166,118);fill-rule:nonzero;"/>
    <path d="M11.07,12.061C11.098,12.006 11.125,11.979 11.179,11.924C11.125,11.979 11.098,12.006 11.07,12.061Z" style="fill:rgb(206,166,118);fill-rule:nonzero;"/>
    <path d="M11.342,11.732C11.314,11.76 11.314,11.787 11.287,11.787C11.314,11.787 11.342,11.76 11.342,11.732Z" style="fill:rgb(206,166,118);fill-rule:nonzero;"/>
    <path d="M11.477,14.064C11.45,14.064 11.423,14.036 11.423,14.036L11.396,14.009C11.368,13.981 11.368,13.981 11.341,13.954C11.341,13.954 11.314,13.926 11.314,13.899C11.314,13.872 11.287,13.872 11.287,13.844C11.287,13.817 11.287,13.817 11.259,13.789L11.259,13.734L11.259,13.68L11.259,13.625C11.259,13.597 11.259,13.597 11.287,13.57C11.287,13.542 11.314,13.542 11.314,13.515C11.314,13.488 11.341,13.488 11.341,13.488L11.368,13.46C11.314,13.323 11.287,13.158 11.314,13.021C11.368,12.747 11.723,12.665 12.05,12.692C12.567,12.72 13.085,12.774 13.602,12.802C14.147,12.72 14.692,12.692 15.237,12.72C16.027,12.747 16.845,12.857 17.662,13.021C18.234,13.158 18.834,13.296 19.406,13.488L19.433,13.488C19.787,13.597 20.168,13.734 20.523,13.872C20.55,13.872 20.577,13.899 20.577,13.899C20.741,13.954 20.931,14.036 21.095,14.091C21.122,14.091 21.122,14.118 21.149,14.118C21.313,14.173 21.476,14.256 21.612,14.31C21.64,14.31 21.64,14.338 21.667,14.338C21.83,14.42 21.994,14.475 22.157,14.557C22.185,14.585 22.212,14.585 22.266,14.612C22.43,14.695 22.593,14.749 22.729,14.832C22.947,14.887 23.138,14.969 23.329,15.051C23.738,15.216 24.119,15.38 24.5,15.572C24.691,15.655 24.882,15.764 25.045,15.847C25.454,16.066 25.835,16.285 26.217,16.532C26.435,16.642 26.625,16.752 26.843,16.861C27.606,17.273 28.396,17.712 29.159,18.123C29.377,18.233 29.568,18.343 29.786,18.48C30.113,18.672 30.44,18.836 30.767,19.028C31.257,19.303 31.747,19.604 32.238,19.906C32.428,20.043 32.619,20.18 32.81,20.29C33.082,20.482 33.355,20.674 33.6,20.894C33.736,21.003 33.845,21.113 33.954,21.223C34.063,21.333 34.172,21.442 34.254,21.579C34.39,21.771 34.499,21.963 34.608,22.183C34.635,22.265 34.663,22.32 34.69,22.402C34.908,22.978 34.989,23.609 35.126,24.185C35.289,24.789 35.48,25.365 35.67,25.941C35.725,26.078 35.78,26.215 35.834,26.352C35.97,26.627 36.106,26.873 36.243,27.148C36.297,27.285 36.379,27.395 36.433,27.532L36.597,27.532C36.243,27.23 35.998,26.599 35.889,26.188C35.807,25.831 35.725,25.502 35.698,25.145C35.562,24.761 35.507,24.377 35.371,23.993C35.262,23.362 35.18,22.704 34.935,22.101C34.772,21.662 34.417,21.278 34.09,20.921L34.09,20.894C34.09,20.866 34.063,20.839 34.036,20.811C33.981,20.757 33.927,20.702 33.845,20.647C33.818,20.647 33.791,20.619 33.791,20.619C33.709,20.537 33.6,20.455 33.518,20.373C33.355,20.263 33.219,20.153 33.082,20.043C32.401,19.55 31.693,19.083 30.985,18.617C29.568,17.684 28.097,16.834 26.598,16.039C23.601,14.475 20.305,12.966 16.79,12.473C15.782,12.336 14.72,12.253 13.684,12.171C13.058,12.116 11.695,11.842 11.014,12.116C10.987,12.171 10.933,12.226 10.905,12.281C10.878,12.336 10.824,12.418 10.796,12.473C10.742,12.857 10.824,13.323 10.96,13.597C11.069,13.844 11.287,14.036 11.532,14.146C11.559,14.118 11.586,14.118 11.614,14.091C11.586,14.091 11.532,14.091 11.505,14.064C11.505,14.091 11.505,14.064 11.477,14.064Z" style="fill:rgb(206,166,118);fill-rule:nonzero;"/>
    <path d="M35.671,23.966C35.726,24.295 35.753,24.624 35.78,24.926L35.78,24.898C35.726,24.268 35.699,23.637 35.535,23.006C35.59,23.335 35.617,23.637 35.671,23.966Z" style="fill:rgb(206,166,118);fill-rule:nonzero;"/>
    <path d="M14.611,13.405C15.592,13.35 16.6,13.432 17.581,13.597C18.67,13.789 19.76,14.035 20.823,14.365C20.877,14.392 20.932,14.392 20.959,14.419L20.904,14.419C22.485,15.023 23.983,15.764 25.536,16.504C27.47,17.437 29.405,18.369 31.094,19.659C31.175,19.713 31.23,19.768 31.312,19.823C32.347,20.29 33.382,20.756 34.009,21.688C34.281,22.1 34.445,22.566 34.581,23.005C34.717,23.499 34.799,24.02 34.908,24.514C34.935,24.569 34.935,24.623 34.962,24.678C35.099,25.117 35.262,25.556 35.48,25.995C35.725,26.489 36.107,26.927 36.297,27.421L36.297,27.449C36.352,27.476 36.406,27.531 36.461,27.558L36.515,27.558C36.461,27.421 36.379,27.284 36.325,27.174C36.188,26.9 36.052,26.653 35.916,26.379C35.862,26.242 35.807,26.105 35.753,25.968C35.535,25.391 35.344,24.788 35.208,24.212C35.044,23.609 34.962,23.005 34.772,22.429C34.745,22.347 34.717,22.292 34.69,22.21C34.608,21.99 34.472,21.798 34.336,21.606C34.254,21.469 34.145,21.359 34.036,21.25C33.927,21.14 33.818,21.03 33.682,20.92C33.437,20.728 33.164,20.509 32.892,20.317C32.701,20.18 32.51,20.043 32.32,19.933C31.857,19.631 31.339,19.329 30.849,19.055C30.522,18.863 30.195,18.671 29.868,18.507C29.65,18.397 29.459,18.287 29.241,18.15C28.478,17.738 27.688,17.3 26.925,16.888C26.707,16.778 26.517,16.669 26.299,16.559C25.917,16.312 25.536,16.093 25.127,15.873C24.937,15.764 24.746,15.681 24.582,15.599C24.201,15.407 23.82,15.242 23.411,15.078C23.22,14.996 23.002,14.913 22.811,14.858C22.648,14.776 22.485,14.721 22.348,14.639C22.321,14.612 22.294,14.612 22.239,14.584C22.076,14.502 21.912,14.447 21.749,14.365C21.722,14.365 21.722,14.337 21.694,14.337C21.531,14.282 21.368,14.2 21.231,14.145C21.204,14.145 21.204,14.118 21.177,14.118C21.013,14.063 20.823,13.981 20.659,13.926C20.632,13.926 20.605,13.898 20.605,13.898C20.25,13.761 19.896,13.624 19.515,13.514L19.488,13.514C18.916,13.322 18.343,13.158 17.744,13.048C16.927,12.856 16.082,12.746 15.265,12.746C14.72,12.746 14.202,12.746 13.685,12.829C13.167,12.774 12.649,12.719 12.132,12.719C11.723,12.664 11.369,12.746 11.314,13.075C11.287,13.213 11.314,13.377 11.369,13.514L11.342,13.542L11.314,13.569C11.314,13.597 11.287,13.597 11.287,13.624C11.287,13.651 11.287,13.651 11.26,13.679L11.26,13.843C11.26,13.871 11.26,13.871 11.287,13.898C11.287,13.926 11.314,13.926 11.314,13.953C11.314,13.981 11.342,13.981 11.342,14.008C11.342,14.035 11.369,14.035 11.396,14.063L11.423,14.09C11.451,14.118 11.451,14.118 11.478,14.118C11.478,14.118 11.505,14.118 11.505,14.145C11.532,14.145 11.587,14.173 11.614,14.173C11.641,14.173 11.696,14.173 11.723,14.145L11.75,14.145C12.704,13.734 13.603,13.459 14.611,13.405Z" style="fill:rgb(188,150,109);fill-rule:nonzero;"/>
    <path d="M35.508,25.996C35.29,25.585 35.127,25.146 34.99,24.68C35.045,25.146 35.099,25.612 35.235,26.079C35.344,26.435 35.562,26.819 35.808,27.094C35.808,27.121 35.835,27.121 35.862,27.148C36.026,27.258 36.189,27.368 36.353,27.45L36.353,27.423C36.107,26.929 35.753,26.49 35.508,25.996Z" style="fill:rgb(165,131,98);fill-rule:nonzero;"/>
    <path d="M34.037,21.717C33.41,20.784 32.375,20.29 31.34,19.852C32.021,20.373 32.702,20.921 33.356,21.497C33.901,21.991 34.337,22.457 34.609,23.061C34.473,22.567 34.31,22.128 34.037,21.717Z" style="fill:rgb(165,131,98);fill-rule:nonzero;"/>
    <path d="M13.686,12.171C14.721,12.253 15.783,12.335 16.791,12.473C20.279,12.966 23.575,14.475 26.654,16.093C28.152,16.889 29.624,17.739 31.04,18.672C31.749,19.138 32.457,19.604 33.138,20.098C33.274,20.208 33.438,20.318 33.574,20.427C32.975,19.906 32.348,19.412 31.749,18.891C31.694,18.864 31.749,18.781 31.803,18.809C31.939,18.891 32.103,18.973 32.239,19.056C31.83,18.727 31.395,18.37 30.931,18.068C29.542,17.136 28.043,16.258 26.518,15.462C26.518,15.462 26.491,15.462 26.491,15.435C24.747,14.53 22.949,13.707 21.123,13.021C19.325,12.363 17.445,12.006 15.484,11.814C14.585,11.732 13.631,11.595 12.732,11.595L12.405,11.595C12.078,11.595 11.751,11.567 11.479,11.622C11.452,11.65 11.397,11.677 11.37,11.732C11.343,11.759 11.315,11.787 11.288,11.787C11.234,11.842 11.206,11.869 11.179,11.924C11.152,11.979 11.097,12.006 11.07,12.061C11.043,12.089 11.043,12.089 11.016,12.116C11.697,11.842 13.059,12.116 13.686,12.171Z" style="fill:rgb(249,228,173);fill-rule:nonzero;"/>
    <path d="M33.982,20.731C34.037,20.785 34.091,20.84 34.173,20.895C34.119,20.813 34.037,20.758 33.982,20.731Z" style="fill:rgb(249,228,173);fill-rule:nonzero;"/>
    <path d="M35.78,24.927C35.752,24.598 35.698,24.268 35.671,23.967C35.616,23.665 35.589,23.336 35.562,23.007C35.507,22.595 35.426,22.184 35.235,21.8C34.717,20.675 33.464,19.77 32.32,19.112C32.156,19.029 32.02,18.947 31.884,18.865C31.829,18.837 31.775,18.892 31.829,18.947C32.429,19.468 33.028,19.962 33.655,20.483C33.764,20.565 33.845,20.648 33.927,20.73C33.954,20.73 33.981,20.757 33.981,20.757C34.063,20.785 34.118,20.84 34.172,20.922C34.2,20.949 34.2,20.977 34.227,21.004L34.227,21.032C34.554,21.361 34.908,21.772 35.071,22.211C35.289,22.815 35.398,23.473 35.507,24.104C35.643,24.488 35.698,24.872 35.834,25.256C35.834,25.283 35.834,25.283 35.861,25.311C35.807,25.146 35.807,25.037 35.78,24.927Z" style="fill:rgb(249,228,173);fill-rule:nonzero;"/>
    <path d="M27.444,25.696C26.599,25.394 25.727,25.202 24.855,24.982C24.828,24.982 24.828,25.01 24.828,25.01C25.7,25.366 26.517,25.86 27.389,26.244C28.234,26.628 29.051,27.067 29.923,27.396C31.612,28.055 33.383,28.494 35.208,28.576C35.236,28.576 35.236,28.548 35.208,28.548C33.437,28 31.776,27.259 30.059,26.601C29.187,26.272 28.315,25.97 27.444,25.696Z" style="fill:rgb(249,219,180);fill-rule:nonzero;"/>
    <path d="M32.02,18.206C32.92,18.864 33.737,19.604 34.5,20.373C35.235,21.113 35.78,21.909 36.107,22.869C36.407,23.774 36.57,24.734 36.761,25.694C36.761,25.749 36.843,25.749 36.843,25.694C36.924,24.706 36.952,23.719 36.707,22.732C36.461,21.771 35.889,20.921 35.126,20.18C34.282,19.385 33.328,18.672 32.375,18.014C31.339,17.3 30.222,16.752 29.078,16.203C29.051,16.203 29.051,16.231 29.051,16.231C30.113,16.807 31.067,17.52 32.02,18.206Z" style="fill:rgb(249,219,180);fill-rule:nonzero;"/>
    <path d="M27.117,30.879C27.063,30.879 27.063,30.934 27.117,30.934C29.787,31.592 32.675,31.784 34.963,30.33C34.991,30.303 34.963,30.275 34.936,30.275C33.438,31.043 31.721,31.098 29.978,31.016L29.869,31.016C28.942,30.989 28.016,30.906 27.117,30.879Z" style="fill:rgb(249,219,180);fill-rule:nonzero;"/>
    <path d="M24.065,21.442C24.119,21.415 24.174,21.36 24.255,21.332C24.283,21.305 24.31,21.305 24.337,21.277C24.991,20.893 25.781,20.619 26.598,20.619L26.871,20.619C27.089,20.647 27.307,20.674 27.525,20.729C27.552,20.729 27.579,20.701 27.552,20.674C27.225,20.509 26.871,20.427 26.571,20.372C26.462,20.345 26.38,20.345 26.271,20.345C25.808,20.18 25.372,19.933 24.936,19.686C24.61,19.494 24.31,19.302 23.983,19.138C23.302,18.754 22.593,18.37 21.885,17.986C20.414,17.163 19.052,16.175 17.962,14.941C17.935,14.914 17.907,14.941 17.935,14.969C18.779,16.367 20.141,17.465 21.558,18.397C21.64,18.452 21.722,18.507 21.803,18.534C20.714,17.958 19.678,17.328 18.643,16.724C18.616,16.724 18.616,16.724 18.616,16.751C20.414,18.123 22.267,19.385 24.501,19.988C24.746,20.098 25.018,20.208 25.263,20.29C24.664,20.263 24.065,20.455 23.438,20.4C22.566,20.345 21.722,20.098 20.877,19.851C20.85,19.851 20.85,19.878 20.877,19.878C21.667,20.235 22.484,20.592 23.356,20.729C23.629,20.756 23.874,20.784 24.146,20.784C24.092,20.811 24.037,20.839 23.983,20.866C23.956,20.839 23.901,20.839 23.847,20.839C23.329,20.921 22.839,21.058 22.294,21.031C21.667,21.003 21.041,20.839 20.441,20.729C19.27,20.537 18.098,20.455 16.899,20.427C16.872,20.427 16.872,20.482 16.899,20.482C17.472,20.537 18.044,20.647 18.616,20.729L18.643,20.729C20.332,20.948 22.049,21.25 23.71,21.661C23.819,21.607 23.928,21.524 24.065,21.442Z" style="fill:rgb(163,127,26);fill-rule:nonzero;"/>
    <path d="M12.814,17.575C13.141,18.316 13.795,18.892 14.667,19.111C15.62,19.33 16.574,19.248 17.473,19.687C17.527,19.714 17.582,19.632 17.527,19.605C16.465,18.837 15.021,18.727 14.204,17.712C15.457,18.041 16.819,17.904 18.045,18.37C18.127,18.398 18.181,18.316 18.1,18.288C17.446,17.959 16.765,17.685 16.083,17.493C15.702,17.383 15.348,17.328 14.966,17.218C14.585,17.109 14.258,16.944 13.877,16.834C13.849,16.834 13.795,16.807 13.768,16.807C13.904,16.395 14.122,15.957 14.558,15.847C14.994,15.737 15.457,15.957 15.866,16.121C16.247,16.258 16.628,16.368 16.983,16.533C17.037,16.56 17.064,16.478 17.01,16.45C16.192,16.011 14.885,14.969 13.877,15.381C13.822,15.408 13.74,15.435 13.686,15.49C13.877,14.969 14.313,14.558 14.776,14.228C14.83,14.201 14.803,14.119 14.721,14.146C13.386,14.64 12.16,16.148 12.814,17.575Z" style="fill:rgb(224,184,56);fill-rule:nonzero;"/>
    <path d="M11.614,18.698C10.852,17.684 10.77,16.093 11.533,15.133C11.56,15.105 11.505,15.078 11.478,15.105C10.361,16.12 10.089,17.574 10.852,18.918C11.07,19.329 11.396,19.686 11.778,19.988C11.914,20.043 12.078,20.07 12.214,20.125C12.895,20.289 13.631,20.344 14.339,20.372C13.331,19.96 12.268,19.576 11.614,18.698Z" style="fill:rgb(163,127,26);fill-rule:nonzero;"/>
    <path d="M6.821,19.056C7.747,18.974 8.537,19.248 9.327,19.605C9.327,19.633 9.327,19.66 9.354,19.66C9.845,20.181 10.635,20.483 11.316,20.757C11.97,21.004 12.678,21.223 13.359,21.388C14.694,21.69 16.029,21.827 17.364,21.991C18.836,22.156 20.252,22.595 21.669,22.952C23.058,23.308 24.475,23.61 25.865,23.912C27.254,24.213 28.671,24.597 29.951,25.256C30.006,25.283 30.033,25.228 29.979,25.201C28.644,24.433 27.2,23.939 25.728,23.473C24.339,23.061 22.949,22.65 21.56,22.293C20.661,22.074 19.762,21.799 18.863,21.607C18.999,21.635 19.135,21.635 19.271,21.662C21.369,21.964 23.467,22.376 25.51,22.952C27.499,23.528 29.543,24.268 31.395,25.228C32.349,25.722 33.248,26.27 34.174,26.764C34.664,27.039 35.182,27.258 35.7,27.477C35.673,27.477 35.618,27.45 35.591,27.45C35.128,27.313 34.664,27.121 34.229,26.956C33.275,26.572 32.322,26.161 31.422,25.695C31.341,25.64 31.286,25.722 31.341,25.749C32.158,26.298 33.03,26.819 33.929,27.285C34.12,27.395 34.31,27.477 34.501,27.56C34.828,27.697 35.237,27.889 35.645,28.026C35.891,28.081 36.136,28.108 36.381,28.136L36.435,28.136C36.544,28.136 36.653,28.108 36.762,28.081C36.899,27.999 36.953,27.861 36.98,27.669C36.953,27.642 36.899,27.615 36.844,27.615L36.544,27.615L36.49,27.615C36.435,27.587 36.381,27.532 36.326,27.505C36.163,27.395 36,27.313 35.836,27.203C35.7,27.121 35.564,27.039 35.427,26.929C35.209,26.792 34.964,26.655 34.746,26.517C34.61,26.435 34.474,26.353 34.365,26.298C34.201,26.216 34.038,26.106 33.902,26.024C33.874,25.996 33.847,25.996 33.82,25.996C33.384,25.749 32.948,25.475 32.512,25.228C31.94,24.899 31.341,24.57 30.769,24.241C28.943,23.253 26.9,22.568 24.911,22.046C24.557,21.964 24.203,21.854 23.849,21.772C23.821,21.772 23.794,21.745 23.767,21.745L23.74,21.745C22.078,21.333 20.388,21.031 18.672,20.812L18.645,20.812C17.582,20.675 16.493,20.565 15.43,20.483C15.103,20.455 14.749,20.428 14.395,20.428C13.686,20.401 12.951,20.346 12.27,20.181C12.133,20.154 11.97,20.099 11.834,20.044C11.452,19.934 11.071,19.797 10.689,19.633C9.436,19.139 8.183,18.618 6.848,18.755C6.685,18.782 6.63,18.919 6.685,19.029C6.685,19.029 6.739,19.056 6.821,19.056Z" style="fill:rgb(254,226,178);fill-rule:nonzero;"/>
    <path d="M34.12,31.098C34.12,31.07 34.12,31.07 34.12,31.098C34.12,31.07 34.12,31.07 34.12,31.098C34.092,31.07 34.092,31.07 34.12,31.098C33.466,31.509 32.73,31.756 31.967,31.975C31.668,32.058 31.341,32.14 31.041,32.222C30.442,32.359 29.869,32.442 29.216,32.359C28.671,32.277 28.099,32.14 27.554,32.03C25.074,31.482 22.622,30.906 20.307,29.891C22.731,30.988 25.32,31.756 27.908,32.414C28.48,32.551 29.052,32.716 29.651,32.743C30.224,32.771 30.769,32.634 31.313,32.469C32.131,32.222 32.921,31.893 33.629,31.427C33.793,31.344 33.956,31.207 34.12,31.098Z" style="fill:rgb(188,150,109);fill-rule:nonzero;"/>
    <path d="M8.018,22.154C9.054,22.785 10.198,23.087 11.397,23.334C12.732,23.608 14.094,23.883 15.429,24.184C14.721,23.937 14.012,23.718 13.304,23.499C12.568,23.279 11.778,23.087 11.07,22.813C10.198,22.456 9.381,21.935 8.563,21.414C8.4,21.304 8.209,21.194 8.046,21.057C7.855,20.948 7.692,20.81 7.501,20.701C7.501,20.673 7.474,20.673 7.474,20.646C7.555,20.673 7.664,20.728 7.746,20.756C7.801,20.783 7.855,20.783 7.91,20.81C7.692,20.701 7.474,20.591 7.256,20.454C7.065,20.372 7.147,20.07 7.365,20.152C8.236,20.399 9.081,20.728 9.953,21.002C9.953,21.002 9.926,21.002 9.926,20.975C9.19,20.673 8.427,20.372 7.746,19.933C7.256,19.631 6.82,19.274 6.329,19L6.275,19C6.002,19.055 5.921,19.329 6.057,19.521C6.357,19.988 6.547,20.481 6.711,21.002C7.092,21.441 7.528,21.853 8.018,22.154Z" style="fill:rgb(221,177,118);fill-rule:nonzero;"/>
    <path d="M18.616,29.259C18.643,29.287 18.698,29.232 18.671,29.204C18.071,28.766 17.417,28.436 16.736,28.162C17.309,28.436 17.853,28.738 18.371,29.122C18.453,29.15 18.535,29.204 18.616,29.259Z" style="fill:rgb(209,165,111);fill-rule:nonzero;"/>
    <path d="M13.686,26.052C13.223,25.997 12.733,25.914 12.27,25.832C12.406,25.86 12.542,25.887 12.678,25.914C12.787,25.942 12.923,25.969 13.032,25.997C13.332,26.052 13.632,26.106 13.904,26.189C13.85,26.161 13.768,26.106 13.686,26.052Z" style="fill:rgb(209,165,111);fill-rule:nonzero;"/>
    <path d="M8.754,24.57C8.89,24.68 9.026,24.79 9.163,24.9C10.089,25.585 11.179,26.079 12.268,26.463C12.759,26.655 13.249,26.82 13.74,26.984C13.386,26.82 13.031,26.682 12.677,26.49C11.996,26.161 11.288,25.832 10.634,25.476C10.47,25.421 10.307,25.366 10.171,25.311C9.653,25.146 9.19,24.9 8.754,24.57Z" style="fill:rgb(209,165,111);fill-rule:nonzero;"/>
    <path d="M9.108,22.814C9.98,23.116 10.879,23.281 11.751,23.5C12.732,23.72 13.713,23.994 14.694,24.186C14.775,24.213 14.748,24.323 14.666,24.323C13.549,24.104 12.459,23.966 11.342,23.747C10.307,23.555 9.245,23.39 8.264,23.006C7.991,22.897 7.719,22.759 7.474,22.622C7.719,22.924 7.937,23.253 8.237,23.528C8.972,24.268 9.844,24.817 10.879,25.118C11.56,25.338 12.269,25.475 12.95,25.612C12.841,25.557 12.732,25.475 12.623,25.42C12.841,25.502 13.059,25.585 13.277,25.694C14.612,25.941 15.919,26.188 17.173,26.764C17.2,26.792 17.2,26.847 17.145,26.819C16.274,26.49 15.375,26.325 14.448,26.188C14.694,26.298 14.939,26.38 15.184,26.49C15.756,26.627 16.301,26.764 16.873,26.929C18.589,27.45 20.279,28.053 21.968,28.629C22.022,28.657 22.049,28.575 21.995,28.547C20.469,27.861 18.971,27.176 17.391,26.6C15.838,26.024 14.258,25.53 12.65,25.091C11.424,24.762 10.225,24.35 9.19,23.692C9.653,23.829 10.144,23.912 10.634,23.994C12.895,24.378 15.157,24.625 17.418,24.872C17.936,24.926 18.453,24.981 18.971,25.064C19.053,25.064 19.053,24.981 18.971,24.954C17.772,24.707 16.601,24.433 15.402,24.186C14.067,23.912 12.732,23.61 11.37,23.336C10.198,23.089 9.027,22.787 7.991,22.156C7.501,21.854 7.065,21.443 6.684,21.004C6.738,21.141 6.765,21.278 6.793,21.415C6.82,21.443 6.82,21.443 6.847,21.47C7.474,22.129 8.291,22.54 9.108,22.814Z" style="fill:rgb(209,165,111);fill-rule:nonzero;"/>
    <path d="M25.291,32.222C25.372,32.222 25.372,32.112 25.291,32.084C23.411,31.81 21.694,30.96 19.951,30.219C18.452,29.561 16.954,28.93 15.401,28.409C13.875,27.888 12.349,27.421 10.933,26.681C10.769,26.599 10.606,26.516 10.47,26.407C10.442,26.379 10.388,26.352 10.361,26.324C10.252,26.242 10.115,26.187 10.006,26.105C9.979,26.105 9.979,26.077 9.952,26.077L9.979,26.077C10.579,26.407 11.232,26.653 11.859,26.928C12.976,27.394 14.093,27.696 15.237,27.997C16.136,28.244 17.035,28.464 17.88,28.848C15.891,27.833 13.603,27.394 11.505,26.571C10.279,26.105 8.971,25.392 7.99,24.459C8.181,24.733 8.426,25.008 8.699,25.227C9.107,25.639 9.57,25.995 10.061,26.324C10.306,26.461 10.524,26.599 10.769,26.736C11.042,26.9 11.287,27.037 11.559,27.202C12.622,27.751 13.712,28.244 14.801,28.766C15.21,28.958 15.619,29.15 16.027,29.342C17.553,29.863 19.106,30.329 20.632,30.905C22.13,31.509 23.656,32.057 25.291,32.222Z" style="fill:rgb(209,165,111);fill-rule:nonzero;"/>
    <path d="M11.505,26.6C13.602,27.423 15.891,27.862 17.88,28.877C18.098,28.987 18.288,29.096 18.479,29.206C18.425,29.179 18.397,29.151 18.343,29.096C17.825,28.74 17.28,28.411 16.708,28.136C15.755,27.67 14.747,27.314 13.739,26.984C13.248,26.82 12.758,26.655 12.267,26.463C11.178,26.052 10.088,25.585 9.161,24.9C9.025,24.79 8.889,24.68 8.753,24.571C9.189,24.872 9.652,25.147 10.17,25.311C10.333,25.366 10.496,25.421 10.633,25.476C11.178,25.64 11.723,25.75 12.267,25.832C12.73,25.915 13.194,25.969 13.684,26.052C13.929,26.079 14.202,26.134 14.447,26.161C15.346,26.299 16.272,26.463 17.144,26.792C17.171,26.82 17.199,26.737 17.171,26.737C15.918,26.161 14.61,25.942 13.275,25.668C13.166,25.64 13.057,25.64 12.976,25.613C12.267,25.476 11.586,25.339 10.905,25.119C9.87,24.817 8.998,24.269 8.262,23.528C7.99,23.254 7.745,22.925 7.5,22.623C7.745,22.76 8.017,22.897 8.29,23.007C9.27,23.391 10.333,23.583 11.368,23.748C12.485,23.94 13.575,24.104 14.692,24.324C14.774,24.351 14.828,24.214 14.719,24.186C13.739,23.967 12.758,23.72 11.777,23.501C10.878,23.281 9.979,23.117 9.134,22.815C8.29,22.541 7.5,22.102 6.9,21.471C6.873,21.443 6.873,21.443 6.846,21.416C7.036,22.157 7.2,22.897 7.527,23.61C7.554,23.665 7.581,23.72 7.609,23.748C7.718,23.994 7.854,24.241 8.017,24.461C8.944,25.421 10.278,26.107 11.505,26.6Z" style="fill:rgb(188,150,109);fill-rule:nonzero;"/>
    <path d="M38.151,25.94C38.178,25.858 38.206,25.776 38.233,25.666C38.233,25.638 38.178,25.611 38.178,25.638C38.069,25.885 37.933,26.132 37.824,26.406C37.715,26.653 37.579,26.9 37.47,27.147C37.443,26.735 37.334,26.324 37.252,25.94C37.252,25.913 37.17,25.913 37.17,25.94C37.17,26.352 37.089,26.79 37.116,27.229C36.898,26.982 36.68,26.735 36.571,26.434C36.544,26.352 36.435,26.379 36.462,26.461C36.571,26.845 36.707,27.229 36.98,27.558C37.007,27.586 37.007,27.613 37.034,27.613C36.98,27.805 36.952,27.942 36.816,28.025C36.734,28.08 36.653,28.107 36.489,28.08L36.435,28.08C36.19,28.052 35.944,28.025 35.699,27.97C35.29,27.888 34.855,27.805 34.446,27.723C34.364,27.696 34.337,27.805 34.419,27.833C34.964,27.997 35.481,28.162 36.026,28.354C36.244,28.436 36.462,28.519 36.68,28.546C36.244,28.957 35.699,29.259 35.1,29.506C34.936,29.588 34.746,29.643 34.555,29.698C34.718,29.698 34.855,29.671 35.018,29.643C35.045,29.643 35.072,29.698 35.045,29.698C34.691,29.78 34.337,29.835 33.983,29.863C33.465,30 32.947,30.055 32.43,30.109L32.294,30.109C30.55,30.219 28.806,30.027 27.144,29.396C27.117,29.369 27.063,29.424 27.117,29.451C28.888,30.247 30.877,30.74 32.784,30.576C33.547,30.521 34.282,30.356 34.991,30.109C35.181,30.055 35.345,30 35.508,29.917C35.536,29.917 35.536,29.89 35.563,29.89C35.89,29.753 36.217,29.588 36.516,29.396C36.435,29.533 36.353,29.671 36.244,29.78C35.944,30.137 35.59,30.411 35.209,30.685C35.181,30.713 35.236,30.768 35.263,30.74C35.999,30.329 36.68,29.945 37.089,29.259C37.143,29.149 37.198,29.04 37.252,28.93C37.307,28.793 37.361,28.656 37.416,28.519C37.416,28.491 37.443,28.464 37.443,28.464C37.524,28.189 37.633,27.915 37.688,27.641C37.715,27.531 37.742,27.421 37.77,27.312C37.906,26.845 38.015,26.406 38.151,25.94Z" style="fill:rgb(221,177,118);fill-rule:nonzero;"/>
    <path d="M15.32,10.992C16.056,10.992 16.764,10.964 17.5,11.074C17.636,11.101 17.772,11.129 17.909,11.156C18.426,11.266 18.944,11.403 19.434,11.568C20.906,12.007 22.35,12.528 23.794,13.076C26.137,13.982 28.452,14.996 30.714,16.121C31.15,16.34 31.613,16.56 32.048,16.807C32.076,16.807 32.076,16.807 32.048,16.779C29.433,15.051 26.654,13.598 23.685,12.445C22.431,11.979 21.178,11.54 19.898,11.184C19.68,11.129 19.489,11.074 19.271,11.019C19.107,10.992 18.944,10.937 18.781,10.909C18.317,10.882 17.854,10.745 17.391,10.663C17.064,10.58 16.71,10.553 16.383,10.553C16.22,10.608 16.056,10.635 15.865,10.663C15.838,10.69 15.784,10.69 15.729,10.717C15.62,10.745 15.511,10.745 15.375,10.772C15.293,10.772 14.34,10.937 14.285,10.937C14.367,11.019 15.211,10.992 15.32,10.992Z" style="fill:rgb(221,177,118);fill-rule:nonzero;"/>
    <path d="M10.417,21.799C11.534,22.129 12.651,22.43 13.795,22.65C14.912,22.869 16.029,23.006 17.146,23.116C18.318,23.226 19.489,23.226 20.688,23.253L20.688,23.226C20.525,23.198 20.334,23.171 20.17,23.143C20.116,23.143 20.061,23.116 20.007,23.116C17.964,22.842 15.893,22.485 13.85,22.046C12.76,21.799 11.643,21.552 10.58,21.223C10.362,21.169 10.172,21.086 9.981,21.031C9.109,20.757 8.265,20.428 7.393,20.181C7.175,20.126 7.066,20.4 7.257,20.51C7.475,20.647 7.692,20.757 7.91,20.867C7.91,20.867 7.938,20.867 7.938,20.894C8.728,21.251 9.572,21.525 10.417,21.799Z" style="fill:rgb(221,177,118);fill-rule:nonzero;"/>
    <path d="M31.449,29.343C31.368,29.316 31.313,29.316 31.231,29.288C31.776,29.288 32.294,29.261 32.812,29.206C33.302,29.151 33.792,29.096 34.283,29.014C34.337,29.014 34.31,28.959 34.283,28.959C32.703,29.041 31.068,28.904 29.488,28.685C27.853,28.493 26.246,28.164 24.666,27.697C24.638,27.697 24.611,27.725 24.638,27.752C25.783,28.273 26.981,28.685 28.207,28.959C30.033,29.563 31.994,30.056 33.874,29.892C34.228,29.864 34.583,29.809 34.937,29.727C34.964,29.727 34.964,29.672 34.909,29.672C34.746,29.7 34.61,29.727 34.446,29.727C33.493,29.809 32.457,29.563 31.449,29.343Z" style="fill:rgb(249,219,180);fill-rule:nonzero;"/>
</svg>
