<svg viewBox="0 0 44 44" xmlns="http://www.w3.org/2000/svg" fill-rule="evenodd" clip-rule="evenodd"><path d="M27.052 15.424c-.645.28-2.13.28-2.494-.56-1.765.644-2.494 0-3.615-.841-1.569.897-2.802.56-3.614-.224-.252.504-.364 1.149-.196 1.793 2.213 11.768 11.404 2.326 11.6 1.121.056-.28.084-.589.056-.869-.757-.7-1.485-.532-1.737-.42z" fill="#a72026"/><path d="M27.303 13.826c-1.485-.532-3.614.28-4.259.28-.644 0-2.129-.476-3.53-1.205-.561-.308-1.149-.196-1.625.14 3.586 1.373 7.901 2.046 9.414.785z" fill="#e72529"/><path d="M20.915 14.023c1.121.841 1.85 1.485 3.615.841.364.84 1.849.84 2.493.56.281-.112 1.009-.28 1.738.448 0-.868-.337-1.597-1.457-2.017-1.513 1.261-5.828.588-9.387-.785-.252.196-.448.449-.616.729.812.784 2.045 1.121 3.614.224z" fill="#d1202b"/><path d="M18.338 17.355c.952-.644-2.802-2.326-4.371-.084-1.261 1.765-.841 3.979-.561 5.464.281 1.485.841 3.334 1.766 4.091.924.728.924 0 .728-1.766-.168-1.765-.168-5.94 2.438-7.705zM17.581 22.174c-.196 3.055-.084 7.033 1.569 9.835 1.682 2.774 3.979 3.699 5.66 2.97 1.681-.728 2.41-4.819 2.326-8.349-.084-3.531-.476-7.79-2.97-9.835l-.532-.392c-.533-.057-1.037-.112-1.401-.141-.757-.112-1.513-.112-2.046-.112-.28.169-.504.393-.756.589-1.289 1.177-1.653 2.381-1.85 5.435zM32.964 17.917c-1.485-2.41-2.69-2.494-4.623-1.85-.14.056-.253.084-.393.112-.532.393-.98 1.85-.42 3.026.56 1.205 1.401 6.389.925 9.835-.477 3.419-.645 6.221.28 6.389.672.14 2.718-.869 4.315-5.688 1.037-4.455 1.513-9.499-.084-11.824z" fill="#e72529"/><path d="M10.829 20.045c.28 3.335.728 6.389 1.569 7.509.84 1.121 1.569 3.895 1.849 5.464.28 1.569 2.774 7.509 6.781 8.238 3.054.56 4.819-1.121 5.099-1.849.28-.729.561-.645 1.009-.281.42.337 1.793 1.065 3.53-2.437-1.681 2.017-2.914 1.793-3.25 1.036-.364-.84-.84-.28-2.41 1.121-2.605 2.494-3.698 1.569-5.295.196-1.569-1.401-2.97-4.371-3.25-5.94-.281-1.569-1.009-3.418-2.41-4.903-1.401-1.485-2.326-3.895-2.494-6.024-.196-2.13.364-3.783.925-4.455.42-.477 1.009-1.569 1.345-2.466-1.569.841-3.194 2.466-2.998 4.791zM28.705 35.428c-.924-.196-.728-2.97-.28-6.388.477-3.418-.364-8.63-.924-9.835-.533-1.177-.112-2.634.42-3.026-1.345.336-2.998.336-4.315.224.168.112.364.252.532.392 2.494 2.046 2.886 6.305 2.97 9.835v.28c.869.168.533 2.214.281 3.419-.225 1.093-.673 2.914-1.569 3.614-.281.477-.617.841-1.009 1.009-1.681.728-3.979-.196-5.66-2.97s-1.765-6.781-1.569-9.835c.196-3.054.56-4.259 1.849-5.464.224-.196.476-.392.757-.588-.449 0-.757.028-.757.028-1.401-.28-2.129-1.681-3.811-1.485-.504.056-1.148.252-1.821.616-.336.897-.924 1.962-1.345 2.466-.532.672-1.092 2.326-.896 4.455.196 2.13 1.12 4.539 2.493 6.024 1.401 1.485 2.13 3.335 2.41 4.904.28 1.569 1.681 4.539 3.25 5.94 1.569 1.401 2.69 2.325 5.296-.196 1.569-1.401 2.045-1.934 2.41-1.121.336.756 1.569.981 3.25-1.037.14-.308.308-.644.448-1.009.645-1.569 1.345-3.698 1.905-5.968-1.597 4.876-3.642 5.856-4.315 5.716zm-12.776-10.367c.196 1.765.196 2.494-.729 1.765-.925-.728-1.485-2.605-1.765-4.091-.28-1.485-.701-3.698.56-5.463 1.569-2.214 5.324-.561 4.371.084-2.633 1.765-2.633 5.94-2.437 7.705z" fill="#b9000b"/><path d="M27.135 26.911h-.196c-1.205.084-1.933 2.213-2.409 3.979-.477 1.765-.561 3.614.728 3.334.196-.056.392-.14.56-.28.925-1.513 1.345-4.399 1.317-7.033z" fill="#db353c"/><path d="M27.416 30.328c.252-1.204.616-3.25-.281-3.418.028 2.634-.392 5.492-1.317 7.033.925-.7 1.345-2.494 1.598-3.615zM13.238 26.546c0 .561 1.149 2.102 1.681 2.886.841 1.205 1.934 1.009 1.121-.28-.868-1.317-2.802-3.446-2.802-2.606zM17.666 33.494c.588.393.644 2.13.925 2.886.28.729 1.765 2.69.924 2.41-.841-.28-2.325-2.214-2.606-3.895-.252-1.681.225-1.765.757-1.401z" fill="#c73140"/><path d="M30.106 24.95c.448-.364 1.121 1.849.925 3.698-.197 1.85-.645 3.895-1.569 4.54-.925.644-.841-1.934-.561-3.531.28-1.541.168-3.867 1.205-4.707z" fill="#db353c"/><path d="M13.603 26.545c.785.14 2.046 2.606 1.289 2.326-.728-.28-2.409-2.522-1.289-2.326zM17.133 34.335c.7.252 1.205 2.129 1.765 3.054.56.924-.196.728-1.121-.28-.924-1.009-1.401-3.054-.644-2.774z" fill="#b55563"/><path d="M15.927 16.796c.393.252.084 1.121-.476 1.765-.56.645-.841.476-1.121-.28-.28-.729.645-2.13 1.597-1.485zM22.598 17.552c.728-.365 2.914.14 3.418 2.045 1.401 5.184.28 6.584-.476 7.425-.729.841-.365-3.138-.645-4.819-.252-1.681-.812-4.091-2.297-4.651zM28.9 17.075c.589-.868 2.13 0 2.774.841.645.841.925 4.371.561 5.099-.365.729-.477-2.045-2.214-4.09-1.065-1.205-1.961-.645-1.121-1.85z" fill="#f15e47"/><path d="M22.233 17.917c-.252.392 0 1.008 1.205 1.289 1.205.28.925-1.205.476-1.401-.476-.168-1.317-.449-1.681.112zM30.191 18c.616 0 .364-1.205-.281-1.121-.644.112-1.289 1.121.281 1.121z" fill="#fafae5"/><path d="M27.501 4.382c0-1.289-.196-.364-.365-.084l-.728-.084c-.757-.112-2.045.617-2.606 1.457-.56.841-.84 2.606-.84 1.681 0-.672.476-2.381 1.064-3.586-.196.168-.364.364-.504.616-.729 1.205-1.485 2.13-1.681 3.895-.196 1.765-.477 4.735-.925 5.576-.56.644-.925.364-1.205 1.009-.224.504-.756.56-1.148.868.28.336.672.673 1.148.953.953-.336 2.158-.504 2.942-.252.589.168 1.233.504 1.85.952.616-.056 1.317-.14 2.073-.252l.084-.028c.28-.56-.196-1.009-.56-.728-.168-.309-1.569-1.065-1.569-2.074 0-1.008-.841-2.409-.925-3.81-.084-1.401 0-3.419 1.205-4.624 1.205-1.204 2.129-1.008 2.41-.56 0 .28.56.28.56-.084 0-.196.084-.336.14-.532-.196-.056-.364-.225-.42-.309z" fill="#476b34"/><path d="M18.338 16.067c-.28.644-.645.728-.645 1.205.084.364.197.644.925 0 .252-.225.644-.421 1.121-.589-.477-.28-.869-.616-1.149-.953-.112.085-.196.197-.252.337zM26.015 19.036c.084-.7.168-1.653.56-1.905-.756.14-1.457.224-2.073.252.644.448 1.177 1.037 1.513 1.653z" fill="#40572a"/><path d="M27.5 2.702c-.476.084-.925.476-1.485.476-.448 0-1.289 0-1.989.588-.617 1.177-1.065 2.914-1.065 3.587 0 .925.28-.841.841-1.681.56-.841 1.849-1.569 2.605-1.485l.729.084c.196-.28.364-1.205.364.084.056.084.224.252.42.308.056-.168.141-.42.141-.756 0-.729-.085-1.289-.561-1.205zM22.232 11.695c-.084 1.765.476 2.774.084 3.054-.364.28-.476.645-.476.645s.56-.196 1.121.196c.56.364 1.485.084 1.401-.196-.084-.281-.785-.365-1.121-1.009-.729-1.485-.476-5.38-.561-4.903-.14.644-.448 2.213-.448 2.213z" fill="#7c9e3e"/><path d="M22.961 15.591c.841-.476 1.681 0 1.681.364 0 .392-1.205.673-1.681-.364zM25.93 3.542c.505.28-1.12.925-1.485 1.205-.364.28.28-1.849 1.485-1.205z" fill="#fcfbe7"/></svg>