<svg viewBox="0 0 44 44" xmlns="http://www.w3.org/2000/svg" fill-rule="evenodd" clip-rule="evenodd"><path d="M29.142 10.072c.834 1.289 2.465 1.213 3.375 1.896 1.744-1.441.91-4.968-1.858-4.968-1.707 0-2.655 1.024-2.844 2.2.606-.114.948.227 1.327.872zM31.114 14.281c-.758-.152-1.744-.379-2.882.379-.531.342-.834.759-.986 1.214.455.682.607 1.517 1.251 2.124.949.91 2.428 1.099 3.376 1.706.758-.531 1.062-1.441 1.099-2.465 0-1.403-.606-2.692-1.858-2.958z" fill="#7c9d3e"/><path d="M29.521 8.061c1.138-.038 2.276 1.555 2.01 2.503-.265.948-1.744 1.707-2.806.493-1.062-1.176-.569-2.92.796-2.996zM28.915 16.215c1.289-.303 2.578 1.82 2.313 2.882-.266 1.062-3.337.569-3.641-1.176-.189-1.061.759-1.554 1.328-1.706z" fill="#678a3c"/><path d="M30.734 12.574c.796 0 1.365-.227 1.82-.606-.948-.683-2.578-.607-3.375-1.897-.379-.682-.72-.986-1.365-.872-.303 1.555.721 3.375 2.92 3.375zM27.208 15.875c-.227.531-.227 1.138-.189 1.744.076 1.138.493 2.39 2.692 2.579.948.076 1.631-.151 2.124-.493-.948-.644-2.427-.796-3.375-1.706-.645-.607-.759-1.441-1.252-2.124z" fill="#527536"/><path d="M31.304 8.44c.493-.341.91.456.568.835-.379.341-1.099-.531-.568-.835zM30.964 15.608c.834-.113.872 1.252.189 1.328-.872.038-1.062-1.214-.189-1.328z" fill="#fbf9e6"/><path d="M14.558 8.965c1.29 2.427 1.669 4.892 2.048 6.485s.266 5.081.266 6.788c0 1.707-.455 4.892-.569 5.537-.076.644-.455 1.327-.759 1.972-.265.644-.455 1.972-1.327 3.489-.834 1.516-2.73 5.081-2.086 6.598.076-1.517.759-1.972 1.593-2.162.834-.189 6.219 1.024 8.002-1.706 1.782-2.73 2.465-5.84 2.351-8.646-.076-2.807.227-6.371-.266-8.76-.872-4.324-3.071-9.785-6.446-10.922-1.138-.379-1.972-.076-1.972-.076-.19-1.024-1.138-.455-1.138-.455-.19-.948-.19-1.707.948-2.275l.758-.38c.38-.265 0-.758-.834-.189s-1.782.834-1.403 3.299c-.228.834-.038 1.213.834 1.403z" fill="#476b34"/><path d="M14.635 9.155l.076-.038c.568-.19.682-.455.455-.834-.266-.379-.645.189-.835.455 0 .038-.075.076-.151.114l.379.113c.038.038.076.114.076.19z" fill="#42542a"/><path d="M18.009 18.635c-.304-3.375-1.745-6.523-2.617-8.039l-.152-.266c.797 1.972 1.1 3.792 1.403 5.082.38 1.592.266 5.081.266 6.788 0 1.706-.455 4.892-.569 5.537-.076.644-.455 1.327-.758 1.972v.037c2.465-2.806 2.73-7.774 2.427-11.111zM12.207 39.834c.076-1.517.759-1.972 1.593-2.162.834-.189 6.219 1.024 8.002-1.706 1.782-2.731 2.465-5.84 2.351-8.646v-1.328c-.266 2.882-.91 5.234-1.972 6.599-.304.379-.835 2.313-2.996 3.261-1.972.834-5.878-.607-7.054 3.11-.076.303-.038.607.076.872z" fill="#31582c"/><path d="M16.112 30.695c.835-1.82.873-4.968.948-5.954.038-.796.114-2.351-.151-4.512v2.009c0 1.707-.455 4.892-.569 5.537-.076.645-.455 1.327-.759 1.972-.265.645-.455 1.972-1.327 3.489-.834 1.517-2.73 5.082-2.086 6.599.076-.911.342-1.479.721-1.783.152-.758.303-1.858.796-3.034.683-1.441 1.631-2.503 2.427-4.323zM17.365 7.638c-.948-.303-1.707-.151-1.896-.113 0 .265.379.644 1.289.72 1.441.114 2.769 1.517 3.527 2.389.758.873 1.934 2.807 2.389 4.892.341 1.555 1.176 2.503 1.517 7.13 0-1.517-.038-2.958-.303-4.096-.948-4.323-3.148-9.784-6.523-10.922z" fill="#789a3e"/><path d="M16.379 8.548c-.645.645-.379 3.527 2.2 4.627-.493.568-.683 1.137-.683 2.199 0 1.062.455 2.465 3.072 3.527-1.365.076-1.631.872-1.934 2.01-.304 1.138-.304 3.072 1.706 4.399-1.441-.114-2.124.834-2.579 2.199-.455 1.366.266 3.262 1.897 3.906 1.63.645 2.995-.303 3.375-1.896.379-1.555-.076-3.375-1.441-3.906 1.744-.834 2.578-5.385-.38-6.712 1.366-1.327 1.745-5.347-1.63-6.219.303-1.631-.493-2.996-1.252-3.565-.796-.569-1.744-1.062-2.351-.569z" fill="#587c38"/><path d="M20.74 34.715c-.114.569-.342 1.062-.683 1.403-.758.645-2.617.834-3.754.152 1.441-.266 3.223-.645 4.437-1.555z" fill="#476b34"/><path d="M19.641 31.49c.948.531 1.327 2.01 1.138 3.185-.948 1.062-2.882 1.366-4.437 1.555-.607-.341-1.024-.948-.948-1.858.151-2.541 1.479-4.361 4.247-2.882z" fill="#587c38"/><path d="M17.555 31.831c-.644.834.948 1.896 1.555 1.138.645-.759-.683-2.276-1.555-1.138zM19.943 27.32c-.493 1.138 1.1 1.745 1.555 1.062.834-1.138-1.1-2.086-1.555-1.062zM20.057 20.532c-.152.985 1.441 1.517 1.745.455.341-1.138-1.555-1.669-1.745-.455zM19.376 14.501c.038.797 1.517.835 1.441-.113-.038-.759-1.517-1.138-1.441.113zM16.758 9.798c0 .835 1.365.873 1.327-.113-.076-.531-1.327-.911-1.327.113z" fill="#6d8f3d"/></svg>