<svg viewBox="0 0 44 44" xmlns="http://www.w3.org/2000/svg" fill-rule="evenodd" clip-rule="evenodd"><path d="M21.181 31.687c-.601 0-1.338-.341-1.87-.628-1.133-.628-1.338-1.87-2.28-2.621-.546-.45-1.406-.546-2.048-.696-.942-.219-1.611-.328-2.375-.956-.669-.559-1.311-1.337-1.474-2.238-.232-1.379.163-2.157.232-3.058.15-1.912-1.775-3.249-1.283-5.161.218-.846.532-1.515.846-2.348.218-.6.273-1.201.246-1.72-.028-.491-.232-1.146-.191-1.624.095-1.161.682-1.42 1.651-1.434 1.297-.013 2.417.41 3.358 1.215 1.216 1.052 2.062 2.28 2.799 3.755.328.668.423 1.924.956 2.43.505.477 1.242.081 1.747.627 1.106 1.215.956 3.304.833 4.806-.096 1.105-.273 1.829.682 2.43.546.355 1.079.764 1.365 1.365.478.969.396 1.665.233 2.675-.151.901.04 1.884-.628 2.635-.847.942-2.321.533-2.799.546z" fill="url(#a)"/><path d="M13.263 11.744c-.532.314.546 1.966.887 2.921.137.369.369.915-.273.765-.628-.137-2.32-1.898-2.348-1.106-.013.546 2.062 1.966 2.813 3.085.204.314.941 1.461.423 1.638-.342.11-1.284-.286-1.638-.409-.369-.123-.697-.328-1.065-.464-.246-.082-.505-.246-.56.082-.068.436.765.969 1.038 1.187 1.037.833 1.556 1.215 2.197 1.898.328.341 1.447 1.283.778 1.734-.764.505-1.924-1.024-2.771-.983-.628.027-.341.614-.027.901.696.614 1.392 1.283 2.198 1.761.587.355 1.174.682 1.788.955.355.164.601.369.765.737-.505.41-1.543-.791-2.048-.273-.287.301.423.519.655.642.505.273.901.505 1.352.86.382.3.778.532 1.105.901.314.355.546.778.888 1.106.355.327.819.478 1.215.737.3.191.559.45.928.396-.314-.792-.996-1.379-1.297-2.184-.259-.724.41-1.502-.027-2.198-.369.177-.287.86-.765.669-.423-.164-.996-1.147-1.187-1.584-.232-.519-.273-1.078-.492-1.611-.232-.573-.382-.887-.368-1.515.013-.464-.096-.683-.355-1.092-.328-.533-.478-1.16-.778-1.707-.26-.477-.355-1.105-.505-1.638-.11-.341-.205-.778-.26-1.133-.068-.491.683-3.385.232-3.44-.327.464-.246 1.092-.682 1.42-.178 0-.669-1.352-.792-1.693-.055-.246-.369-1.734-1.024-1.365z" fill="#669555" fill-opacity=".5"/><path d="M22.314 22.036c.123-1.502.273-3.577-.833-4.806-.505-.559-1.242-.15-1.747-.627-.532-.492-.614-1.761-.956-2.43-.723-1.475-1.57-2.69-2.798-3.741-.928-.805-2.061-1.229-3.358-1.215-.97.014-1.557.273-1.652 1.433-.041.465.164 1.134.191 1.625.027.519-.027 1.119-.246 1.72-.3.833-.614 1.502-.846 2.348-.492 1.911 1.433 3.249 1.297 5.147-.069.901-.464 1.679-.232 3.058.15.901.791 1.679 1.474 2.238.764.628 1.433.737 2.375.956.656.15 1.502.246 2.048.696.942.751 1.147 1.993 2.28 2.621.532.287 1.269.628 1.87.628.314 0 1.065.178 1.775.014-.56-.123-1.27-.109-1.761-.314-.601-.246-1.079-.546-1.502-1.024-.737-.819-.956-2.198-1.843-2.867-1.269-.955-3.112-.846-4.478-1.624-.641-.369-1.064-1.051-1.215-1.761-.15-.737.301-1.365.219-2.075-.205-1.693-1.993-3.154-1.802-4.901.082-.833.614-1.488 1.037-2.171.628-1.023.437-2.088.164-3.194-.164-.683-.341-1.816.642-1.993.628-.123 1.624.328 2.157.628 1.993 1.092 3.126 3.249 4 5.269.259.601.436 1.338.887 1.802.464.478 1.174.437 1.611.929.887 1.01.314 2.853.164 3.999-.205 1.939 1.187 2.512 2.006 4.027.601 1.106.751 2.621.615 3.864-.055.45-.219.887-.314 1.201.15-.082.3-.205.423-.341.669-.751.478-1.734.628-2.635.177-1.01.246-1.706-.232-2.676-.287-.6-.819-1.01-1.365-1.365-.956-.614-.765-1.324-.683-2.443z" fill="#86bb74"/><path d="M19.774 28.751c-1.352-.668-2.348-2.225-3.904-2.443-.069-.014-.096.095-.028.123.778.245 1.406.641 2.048 1.16.587.478 1.147.969 1.829 1.283.069.014.123-.095.055-.123zM17.904 25.19c-.955-.259-1.815-.778-2.689-1.228-.409-.219-.805-.451-1.188-.724-.368-.259-.75-.56-1.174-.737-.068-.027-.109.068-.054.109.778.574 1.597 1.106 2.443 1.543.847.437 1.679.914 2.608 1.133.095.054.136-.068.054-.096zM16.54 20.931c-.888-.314-1.748-.724-2.58-1.161-.383-.191-.71-.45-1.051-.709-.314-.233-.628-.506-.983-.656-.069-.027-.11.069-.055.109.341.26.696.492 1.038.738.354.273.723.518 1.119.71.805.409 1.624.805 2.485 1.092.068.054.122-.096.027-.123zM15.515 17.012c-.574-.396-1.229-.655-1.802-1.064-.601-.424-1.079-.997-1.707-1.379-.054-.028-.123.041-.068.082.519.491 1.065.983 1.638 1.406.587.423 1.256.696 1.857 1.065.082.068.15-.055.082-.11z" fill="#95b14a" fill-opacity=".25"/><path d="M15.993 20.534c.696 2.293 1.365 4.751 2.512 6.853 1.338 2.444 2.908 4.628 4.628 6.28 1.46 1.406 3.139 2.662 4.969 3.576 1.174.587 2.771 1.475 4.013.478 1.611-1.283-.573-3.031-1.706-3.508-1.816-.779-3.85-.86-5.597-1.843-1.775-1.011-3.468-2.976-4.642-4.628-1.501-2.102-2.334-4.491-3.18-6.921-.424-1.215-.847-2.362-1.257-3.577-.204-.614-1.037-3.235-1.228-2.949-.205.301.928 4.341 1.488 6.239z" fill="url(#b)"/><path d="M24.593 28.507c.178-1.01.246-1.706-.232-2.675-.286-.601-.819-1.011-1.365-1.365-.956-.615-.764-1.325-.683-2.43.123-1.502.274-3.577-.832-4.806-.505-.559-1.243-.15-1.748-.628-.532-.491-.614-1.761-.955-2.43-.724-1.474-1.57-2.689-2.799-3.74-.177-.15-.368-.3-.56-.423-.9 1.501-1.132 3.058-.655 4.805.232.806.587 1.502.615 2.348.027.983-.055 1.993-.164 2.962-.15 1.366-.096 2.731.478 4.014.532 1.188 1.856 2.102 2.989 2.703 1.748.915 2.485 1.174 3.536 2.798.546.847 1.556 1.707 1.734 1.516.682-.765.477-1.748.641-2.649z" fill="#669555"/><path d="M16.853 9.382c-.423-.696-.737-2.881-.341-3.618.614-1.106 1.624-.764 2.525-.437.492.178 1.133.301 1.638.164.601-.177 1.024-.56 1.68-.478 1.501.191 2.784 2.021 3.672 3.085 1.228 1.488 3.303 1.093 4.641 2.444.847.847.915 1.843 1.16 2.962.178.847.669 1.721 1.188 2.417.642.846.956 1.351.915 2.457-.041 1.338-.369 2.676-.287 4.027.096 1.474 1.174 5.188-.519 6.198-.723.437-1.884-.341-2.443-.806-1.051-.86-1.556-2.252-1.952-3.508-.464-1.474-.915-2.717-1.775-4.013-.696-1.038-1.515-2.226-2.553-2.949-.914-.655-1.911-1.161-2.826-1.843-1.228-.942-2.429-1.515-3.112-2.976-.341-.737-.341-1.666-.71-2.362-.177-.327-.56-.587-.901-.764z" fill="url(#c)"/><path d="M23.597 9.463c.232-.559-.355-1.419-.614-2.02-.123-.3-.219-.601-.396-.887-.109-.191-.491-.492-.519-.696-.109-.71.983.273 1.133.464.56.737 1.161 1.624 1.502 2.484.177.464.45.778.805 1.133.219.205.587.819.819.888.096-.396-.464-1.147-.286-1.352.177-.232.682.191.873.369.328.3.492.696.615 1.119.218.806.423 1.352 1.392 1.434.164-.437-.232-1.379.014-1.734.396-.56 1.078.601 1.187.86.273.669.369 1.529.301 2.239-.041.505-.137.682.095 1.16.096.205.232.669.451.724.054-.342-.137-.888.095-1.188.82.068 1.011 1.679 1.052 2.239.041.641.041 1.256-.069 1.897-.068.396-.396 1.092 0 1.393.574-.601.055-1.638.26-2.335.177-.628.628-.218.751.205.259.915.3 2.157.095 3.072l-.328 1.474c-.109.464.014.887.137 1.351.137.519.778 2.649-.396 2.362-.314-.082-.587-.409-.86-.573-.205-.123-.464-.219-.696-.314-.437-.178-1.024-.328-.492-.806.437-.382 1.024-.204.505-.969-.314-.464-.641-.846-.86-1.392-.286-.737-.355-1.679-.368-2.458-.014-.819.068-1.392-.259-2.17-.26-.601-.792-.901-1.174-1.42-.506-.696-.847-1.433-1.488-2.034-.287-.273-.506-.45-.874-.546-.369-.095-.683-.055-1.01-.273-.628-.409-1.174-1.747-1.215-2.512.027-.341 0-.887-.178-1.188z" fill="#669555" fill-opacity=".5"/><path d="M33.017 15.921c-.518-.696-1.01-1.556-1.187-2.417-.246-1.119-.314-2.115-1.161-2.962-1.338-1.351-3.412-.956-4.641-2.444-.887-1.064-2.184-2.907-3.672-3.085-.656-.082-1.079.301-1.679.478-.505.15-1.147.014-1.639-.164-.914-.327-1.911-.669-2.525.451-.41.737-.096 2.921.341 3.617l.232.123c.041-.669 0-1.351-.082-1.966-.054-.423-.191-.914-.109-1.337.232-1.12 1.502-.574 2.171-.301.491.178.819.314 1.338.178.505-.137.969-.355 1.46-.505 1.516-.464 2.239 1.01 3.072 2.047.519.656 1.242 1.816 2.061 2.089.683.218 1.352.164 2.034.369.71.218 1.406.628 1.666 1.365.232.655.191 1.187.341 1.87.123.546.259 1.038.519 1.529.491.915 1.365 1.515 1.529 2.566.177 1.147.013 2.321-.137 3.468-.164 1.338.546 2.771.601 4.095.041 1.147-.055 3.44-1.775 3.072-.587-.123-1.01-.41-1.515-.683l-.041-.027c.136.164.287.3.45.437.56.464 1.734 1.228 2.444.805 1.693-1.01.614-4.737.519-6.198-.096-1.351.245-2.689.286-4.027.055-1.092-.259-1.597-.901-2.443z" fill="#86bb74"/><g opacity=".5" fill="#95b14a" fill-opacity=".5"><path d="M24.417 10.993c-.041-.942-.205-1.87-.532-2.757-.164-.451-.369-.901-.614-1.311-.219-.368-.465-.778-.806-1.065-.041-.041-.109.028-.082.069.246.382.546.709.765 1.105.232.383.409.806.573 1.215.328.888.491 1.816.573 2.744.014.068.123.068.123 0zM27.338 13.067c-.191-.573-.164-1.174-.273-1.747-.109-.56-.328-1.174-.642-1.652-.041-.055-.123-.014-.095.054.205.601.532 1.12.628 1.775.082.546.082 1.092.273 1.625.027.027.136 0 .109-.055zM29.399 15.019c-.163-.696.082-1.406.123-2.102.041-.587.096-1.406-.232-1.925-.027-.055-.123-.027-.109.041.205.683.246 1.392.164 2.088-.068.629-.246 1.284-.096 1.912.041.095.178.068.15-.014zM32.211 22.351c.15-1.434 1.133-3.004.519-4.437-.028-.055-.123-.027-.11.041.219.778.137 1.515-.068 2.28-.178.696-.423 1.378-.478 2.102 0 .082.123.095.137.014zM30.956 18.528c.055-.628.314-1.201.423-1.815.109-.628.028-1.283-.095-1.898-.014-.068-.123-.054-.11.027.069.669.192 1.325.055 1.994-.123.559-.341 1.105-.382 1.692-.014.069.109.082.109 0zM32.663 25.805c-.505-.3-.86-.751-1.27-1.16-.327-.342-.71-.697-1.187-.792-.069-.014-.082.082-.028.109.533.205.915.56 1.297.969.341.355.669.738 1.119.97.069.041.137-.055.069-.096z"/></g><path d="M31.119 33.844s1.16-4.45 1.01-7.958c-.15-3.509-.969-5.952-2.184-8.314-1.215-2.375-2.58-4.669-3.7-5.884-1.119-1.215-1.897-1.993-1.897-1.993s.832.15 2.648 2.226c1.87 2.129 3.549 4.791 5.242 9.351 1.693 4.546 2.253 7.59 2.102 10.252-.15 2.662-.45 5.351-1.242 5.488-.792.136-2.007-2.403-2.198-2.703-.177-.301.219-.465.219-.465z" fill="url(#d)"/><path d="M25.713 10.801c-1.597-1.665-2.908-4.464-5.597-4.355-1.365.055-2.608 1.12-3.591 2.062.096.368.205.682.328.874.328.163.724.423.901.764.369.696.369 1.625.71 2.362.682 1.46 1.884 2.034 3.126 2.976.915.682 1.898 1.187 2.826 1.843 1.037.737 1.856 1.911 2.553 2.948.86 1.297 1.31 2.539 1.774 4.014.396 1.242.901 2.648 1.953 3.508l.095.082c.492-.669.833-1.556 1.256-2.239.409-.655.792-1.433.587-2.211-.137-.546-.437-1.01-.669-1.516-.737-1.597.232-3.071.246-4.696.013-2.034-1.038-3.249-2.608-4.395-1.215-.874-2.798-.888-3.89-2.021z" fill="#669555"/><path d="M28.758 30.392c-.887.56-2.771.096-3.713-.15-1.256-.328-2.007-.969-2.757-1.952-.847-1.092-1.748-1.529-3.004-2.13-2.061-.983-3.139-2.839-3.413-5.078-.259-2.062.396-4.314-.436-6.239-.888-2.047-.778-4.013.696-5.774.573-.683 1.31-1.338 2.048-1.843 1.174-.806 2.389-.751 3.604-.028 1.692 1.011 2.334 2.676 3.685 3.987.533.518 1.338.682 1.953 1.092.6.396 1.255.696 1.842 1.106 1.038.723 2.294 2.02 2.444 3.344.164 1.502-.764 3.222-.396 4.669.137.505.601.819.765 1.297.191.573-.069 1.174-.287 1.706-.669 1.597-1.502 3.113-2.212 4.682-.232.547-.669 1.229-.819 1.311z" fill="url(#e)"/><path d="M17.373 9.328c-.751.3.505 1.584.655 1.952-.259.369-1.297.137-1.638 0-.232-.095-.614-.382-.819-.041-.178.301.287.86.519 1.038.709.532 1.556-.096 2.293.095.355.082 1.27 1.147.887 1.365-.245.151-.942.11-1.201.041-.587-.15-1.065-.491-1.584-.764-.546-.287-1.255-.355-.696.464.574.833 1.529 1.502 2.526 1.625.737.082 1.433.041 1.815.723.178.314.874 1.611.41 1.748-.3.081-1.201-.478-1.461-.628l-1.269-.779c-.301-.191-1.42-1.296-1.734-.628-.437.956 2.034 2.185 2.553 2.54.396.273 1.201.6 1.679.723.423.109.764.123 1.188.3.395.164.45.506.668.874.192.314.465.696.519 1.079.082.546-.928.136-1.256.027-.628-.205-1.051-.437-1.57-.819-.477-.341-.928-.724-1.447-1.038-.191-.109-.928-.573-1.119-.505-.71.205.491 1.256.628 1.379.641.519 1.297.969 1.952 1.461.505.382 1.065.955 1.652 1.201.464.191 1.01.041 1.488.205.396.136.682.191.805.559.232.628-.969.219-1.228.123-1.57-.532-2.854-1.024-4.246-1.911-.259-.164-1.27-.983-1.584-.764-.75.491 1.625 2.143 1.884 2.307 1.038.669 1.993 1.201 3.14 1.652.601.232 1.147.573 1.802.614.341.027 1.065-.205 1.379.027.56.423-.505.587-.778.601-.519.027-1.625-.328-2.062-.027-.587.395.41 1.105.738 1.269 1.337.669 2.976.232 4.272 1.024.233.136.519.478.806.396.341-.109.369-.683.382-.97.027-.409-.054-.818-.013-1.228.04-.546.354-.983.518-1.488.26-.737.41-1.502.615-2.266.15-.573.423-1.079.628-1.625.204-.532.286-1.105.382-1.665.054-.314.205-.669.027-.956-.109-.177-.382-.314-.56-.232-.245.109-.259.642-.314.847-.109.368-.273.737-.464 1.078-.45.792-.71 1.638-1.215 2.403-.15.245-.232.641-.518.751-.287.122-.615-.069-.697-.369-.095-.396.41-.969.56-1.297l1.092-1.938c.724-1.489.997-3.372.3-4.915-.191-.437-.764-1.256-.791-.246-.028.97.177 1.843-.055 2.813-.246 1.023-1.324 3.535-2.689 2.894-.587-.273-.287-.601-.069-1.12.192-.464.355-.969.492-1.46.177-.628.505-1.27.573-1.925.11-.86.15-1.83-.164-2.649-.15-.382-.409-1.256-.887-1.31-.505.628-.177 1.734-.3 2.471-.123.764-.451 1.46-.669 2.198-.082.259-.096.859-.369 1.01-.396.218-.833-.451-.955-.737-.41-.915-.164-1.584.109-2.471.369-1.147.71-2.376.246-3.563-.205-.519-.601-.778-.778-.096-.205.737-.151 1.57-.342 2.321-.095.368-.15.819-.587.587-.423-.219-.327-.683-.232-1.038.273-.928.546-1.87.027-2.785-.45-.791-.573.355-.764.71-.341-.71.3-1.829-.724-2.293-.709-.314-.464.505-.423.969.041.437.15.942.082 1.393-.437.109-.751-.615-1.078-.833-.205-.205-.587-.451-.942-.478z" fill="#669555" fill-opacity=".5"/><g opacity=".7" fill="#95b14a" fill-opacity=".7"><path d="M19.94 12.221c-.013-.642.273-1.242.314-1.884.041-.601-.109-1.324-.396-1.857-.027-.068-.136-.027-.122.041.15.669.409 1.284.313 1.98-.081.587-.313 1.133-.245 1.734.014.068.136.068.136-.014zM17.237 11.962c.286-.014.573-.082.846-.177.369-.123.737-.205 1.12-.287.082-.014.068-.123-.014-.137-.587-.095-1.174.342-1.747.41-.519.068-1.188-.014-1.611-.355-.055-.041-.123.041-.082.095.382.369.996.465 1.488.451zM18.561 14.569c.806.109 1.72-.15 2.403.396.055.041.137-.027.096-.095-.383-.642-1.557-.451-2.171-.465-1.133-.041-2.061-.75-2.949-1.392-.068-.055-.136.055-.068.109.751.655 1.666 1.311 2.689 1.447zM20.5 13.326c.082-.628.409-1.201.519-1.829.068-.437.15-1.051-.055-1.461-.041-.082-.164-.041-.15.055.109.491.109 1.024 0 1.515-.123.573-.396 1.106-.464 1.706 0 .096.136.11.15.014zM22.152 15.238c.218-.505.396-1.024.56-1.556.15-.464.273-.928.355-1.42.068-.437.109-.969-.055-1.379-.027-.068-.136-.041-.136.028 0 .518.068 1.01-.028 1.529-.109.573-.273 1.133-.464 1.679-.164.477-.355.928-.546 1.406-.136.341-.259.723-.095 1.065.04.081.163.027.122-.069-.163-.409.123-.901.287-1.283zM19.395 17.832c.477.246.996.396 1.529.519.532.123 1.078.246 1.624.3.082.014.109-.123.027-.15-.491-.164-1.037-.205-1.542-.314-.56-.123-1.106-.287-1.625-.546-1.051-.532-2.061-1.174-2.962-1.938-.055-.041-.123.04-.082.095.86.846 1.952 1.502 3.031 2.034zM24.595 22.268c-.669-.068-1.283-.15-1.938-.328-.642-.177-1.27-.396-1.871-.682-1.187-.574-2.252-1.393-3.29-2.198-.068-.055-.15.054-.082.123 1.052.86 2.144 1.72 3.386 2.293.601.287 1.242.505 1.884.683.614.163 1.256.314 1.911.273.109-.028.082-.164 0-.164zM24.772 24.835c-.423-.069-.846-.15-1.269-.246-.778-.191-1.557-.437-2.294-.737-.764-.301-1.46-.683-2.143-1.133-.314-.219-.642-.423-.969-.628-.341-.205-.683-.423-.942-.737-.055-.069-.15.027-.096.095.464.601 1.215.942 1.83 1.365.669.464 1.365.86 2.116 1.174 1.556.642 3.276 1.12 4.955 1.202.068 0 .095-.096.027-.123-.396-.137-.805-.178-1.215-.232zM24.663 26.609c-.764-.068-1.652.027-2.32-.423-.069-.041-.123.054-.069.095.601.424 1.379.424 2.075.465.86.054 1.734.15 2.498.587.055.027.11-.041.055-.082-.614-.505-1.488-.56-2.239-.642zM30.043 18.992c-.219.751-.287 1.529-.587 2.266-.273.683-.656 1.311-.97 1.966-.3.628-.532 1.283-.628 1.979-.054.342-.082.669-.054 1.01l.15 1.284c0 .095.136.095.136.013-.013-.75-.191-1.447-.082-2.198.11-.791.383-1.515.738-2.225.314-.614.655-1.215.901-1.856.259-.683.464-1.475.518-2.198 0-.096-.109-.109-.122-.041zM28.772 17.122c.068-.682.055-1.597-.355-2.171-.054-.068-.164.014-.123.082.41.765.396 1.83.191 2.662-.191.765-.573 1.461-.982 2.13-.765 1.27-1.679 2.566-1.584 4.123 0 .068.109.082.109.013-.041-2.634 2.512-4.313 2.744-6.839zM25.032 16.971c.286-.751.628-1.502.778-2.294.123-.668.068-1.501-.314-2.088-.055-.082-.178-.027-.137.068.833 1.625-.15 3.263-.668 4.805-.246.724-.383 1.488-.437 2.253-.055.723-.055 1.529.273 2.198.041.068.136.013.109-.055-.314-.792-.3-1.665-.191-2.498.095-.833.286-1.611.587-2.389z"/></g><path d="M31.733 30.869c-.287 1.707-.615 2.976-.615 2.976s-.396.15-.204.451c.191.3 1.405 2.839 2.197 2.703.546-.096.847-1.366 1.038-3.004-1.16-.791-1.843-1.924-2.416-3.126z" fill="url(#f)"/><path d="M30.409 34.214c-.696-.3-1.433-.492-2.157-.683.45 1.311.642 2.69.587 4.068 1.051.505 2.28.915 3.276.11 1.611-1.27-.573-3.004-1.706-3.495z" fill="url(#g)"/><path d="M31.707 16.754c-.15-1.324-1.406-2.621-2.444-3.344-.587-.41-1.242-.71-1.843-1.106-.614-.409-1.419-.573-1.952-1.092-1.351-1.311-1.993-2.976-3.686-3.986-1.215-.724-2.43-.778-3.604.027-.723.505-1.474 1.16-2.047 1.843-1.461 1.747-1.584 3.727-.697 5.775.833 1.924.178 4.177.437 6.238.273 2.239 1.352 4.082 3.413 5.078 1.256.601 2.157 1.038 3.003 2.13.765.983 1.502 1.625 2.758 1.952.724.191 2.02.505 2.976.382-.246-.095-.492-.232-.724-.3-.423-.123-.86-.246-1.296-.314-.997-.177-1.966-.573-2.744-1.229-.983-.832-1.584-1.979-2.649-2.702-.559-.383-1.297-.574-1.843-.983-.559-.41-.969-1.065-1.296-1.666-.383-.696-.738-1.447-.915-2.211-.287-1.174.027-2.376-.096-3.563-.109-1.161-.273-2.212-.505-3.345-.082-.423-.259-.71-.423-1.106-.191-.505-.123-1.01-.055-1.529.314-2.088 2.417-4.928 4.806-4.245.983.287 2.047 1.051 2.716 1.815.724.806 1.379 1.652 2.007 2.526.491.669 1.092.997 1.843 1.311 1.42.573 2.758 1.324 3.74 2.539 1.038 1.269.192 3.303.096 4.778-.041.71-.027 1.337.273 1.993.259.6.355 1.037.232 1.706-.369 1.911-1.351 3.686-2.143 5.433l-.382.683-.082.259.163-.082c.151-.068.587-.764.82-1.283.709-1.57 1.542-3.085 2.211-4.682.219-.533.478-1.133.287-1.707-.164-.477-.628-.778-.765-1.297-.368-1.474.574-3.194.41-4.696z" fill="#86bb74"/><path d="M17.646 9.791c-.15-.095-.205-.082.068.164.383.355.956.942 1.393 1.57.519.71 1.078 1.829 1.597 3.304.519 1.474.956 3.576 2.089 5.351 1.133 1.761 3.221 6.075 4.068 8.286.833 2.212 3.085 7.877 3.44 8.423.355.56.969 1.707 2.225 1.188 1.638-.683 1.406-1.693.628-2.99-.778-1.297-2.471-4.505-3.276-5.965-.806-1.447-3.154-5.188-3.809-6.062-.655-.887-2.048-2.907-2.607-4.136-.56-1.228-1.925-3.877-2.471-5.242-.546-1.365-1.147-1.911-1.816-2.621-.532-.546-1.16-1.024-1.529-1.27z" fill="url(#h)"/><defs><linearGradient id="a" x2="1" gradientUnits="userSpaceOnUse" gradientTransform="matrix(24.335 6.819 -6.819 24.335 2.944 16.465)"><stop offset="0" stop-color="#669555"/><stop offset="1" stop-color="#2b5125"/></linearGradient><linearGradient id="b" x2="1" gradientUnits="userSpaceOnUse" gradientTransform="matrix(22.19 28.19 -28.19 22.19 10.865 13.414)"><stop offset="0" stop-color="#86bb74"/><stop offset="1" stop-color="#aea79a"/></linearGradient><linearGradient id="c" x2="1" gradientUnits="userSpaceOnUse" gradientTransform="matrix(-2.126 21.017 -21.017 -2.126 26.636 2.441)"><stop offset="0" stop-color="#669555"/><stop offset="1" stop-color="#2b5125"/></linearGradient><linearGradient id="d" x2="1" gradientUnits="userSpaceOnUse" gradientTransform="matrix(10.321 36.209 -36.209 10.321 25.053 4.606)"><stop offset="0" stop-color="#86bb74"/><stop offset="1" stop-color="#ccbca2"/></linearGradient><linearGradient id="e" x2="1" gradientUnits="userSpaceOnUse" gradientTransform="matrix(18.613 36.237 -36.237 18.613 15.758 3.621)"><stop offset="0" stop-color="#669555"/><stop offset="1" stop-color="#2b5125"/></linearGradient><linearGradient id="f" x2="1" gradientUnits="userSpaceOnUse" gradientTransform="matrix(3.183 -6.364 6.364 3.183 31.055 36.916)"><stop offset="0" stop-color="#f4f1e0"/><stop offset="1" stop-color="#fff"/></linearGradient><linearGradient id="g" x2="1" gradientUnits="userSpaceOnUse" gradientTransform="matrix(-9.532 -1.138 1.138 -9.532 33.816 36.379)"><stop offset="0" stop-color="#f4f1e0"/><stop offset="1" stop-color="#fff"/></linearGradient><linearGradient id="h" x2="1" gradientUnits="userSpaceOnUse" gradientTransform="matrix(13.925 30.315 -30.315 13.925 18.616 7.723)"><stop offset="0" stop-color="#86bb74"/><stop offset="1" stop-color="#cfc0a7"/></linearGradient></defs></svg>