<svg viewBox="0 0 44 44" xmlns="http://www.w3.org/2000/svg" fill-rule="evenodd" clip-rule="evenodd"><path d="M28.517 25.779c-.116-.195-.234-.39-.331-.604-.156-.332-.293-.663-.332-1.034-.058-.351-.039-.702-.019-1.053v-.039l.078-.976c.019-.351 0-.682-.078-1.014-.137-.507-.488-.858-.858-1.209.273.702.39 1.482.39 2.243 0 .136 0 .273-.02.409 0 .176-.019.332-.039.508-.019.331-.019.682.02 1.014.078.468.292.897.546 1.287l.253.371c.176.234.352.468.547.702l.097.098.156.019-.156-.273c-.058-.117-.156-.293-.254-.449z" fill="#964b45"/><path d="M37.801 20.591l-.058-.995-.02-.195c-.039-.273-.058-.565-.136-.839-.078-.253-.195-.507-.313-.741-.117-.234-.253-.448-.331-.702-.098-.254-.156-.507-.234-.741-.078-.254-.156-.507-.273-.741-.117-.234-.254-.449-.429-.644-.293-.351-.644-.663-.956-.995.722.917 1.365 2.048 1.892 3.316.429 1.131.722 2.243.858 3.277z" fill="#f9b04e"/><path d="M37.919 21.139l-.175-1.541.058.995c.234 1.618.098 3.081-.39 4.115.078-.117.137-.234.195-.37.215-.469.332-.956.371-1.463.058-.566 0-1.151-.059-1.736z" fill="#fcb854"/><path d="M31.033 11.873c-.176.02-.332.039-.508.078-.097.02-.273.039-.331.137-.039.058-.02.156-.02.214l-.039.156c-.039.078-.078.156-.156.215l-.488.331c-.214.176-.155.43-.097.664.02.136.039.273.02.409-.02.137-.078.254-.137.371-.078.136-.137.253-.156.409-.02.137 0 .274.039.41l.254.839c.077.312.058.624.039.956-.02.331-.039.663-.02.994.039.644.117 1.307.234 1.951.039.234.078.488.195.722.059.117.137.214.234.292l.312.195c.117.078.176.176.234.312.039.117.078.215.195.273l.332.157c.098.058.156.155.215.273l.234.702c.097.234.214.448.37.644.293.39.703.721 1.171.916.253.098.526.137.76.254.215.117.352.331.508.526.156.215.331.371.585.391.273.019.546-.078.799-.195.508-.234.995-.488 1.268-.995.273-.488.351-1.054.449-1.58.117-.644.273-1.307.312-1.97l.019-.273c-.136-1.034-.429-2.146-.877-3.258-.507-1.268-1.171-2.399-1.892-3.316-.78-.995-1.58-1.716-2.36-2.165-.235-.039-.488-.058-.742-.078-.331 0-.643 0-.955.039zm2.243 2.009v.059c.117.078.214.175.292.273.176.214.351.448.527.682.176.215.351.43.488.664.136.214.234.448.273.721.019.117.039.234.136.312l.273.215c.351.371.41.897.488 1.404.039.273.078.527.215.781.117.234.273.448.351.702.078.273.078.546.136.819.059.273.176.527.254.8.058.273.058.566.039.858-.02.254-.059.527-.137.78-.078.234-.175.468-.37.644-.176.156-.391.273-.605.312-.234.059-.468.059-.702.039-.254-.019-.507-.078-.742-.195-.214-.117-.37-.293-.526-.488l-.215-.253c-.078-.078-.175-.137-.292-.176-.137-.058-.254-.117-.351-.214l-.254-.293c-.156-.215-.293-.429-.429-.644-.507-.897-.839-1.872-1.307-2.789l-.39-.683c-.059-.117-.117-.253-.117-.39-.02-.136.039-.273.097-.409.059-.117.098-.234.078-.371l-.058-.39c-.039-.273-.078-.527-.078-.8-.02-.507.058-1.034.312-1.482.097-.156.293-.429.097-.585-.117-.078-.136-.196-.078-.332.039-.078.117-.156.196-.215.175-.117.39-.136.604-.117.215.02.429.039.644.078.449.156.878.313 1.151.683z" fill="#f9b04e"/><path d="M33.199 25.701l.039.02.234.136.059.039.058.039.059.02.058.039.098.039.273.117.059.019.058.02.059.019.058.02.059.019.058.02.156.039.117.019-.39-.117c-.351-.175-.741-.331-1.112-.507zM28.283 14.682l-.019.214v.02l-.02.215v.019l-.019.215v.448c.058-.331.078-.644.097-.975l-.039-.176v.02zM37.802 20.592l-.019.273c-.039.663-.195 1.326-.312 1.97-.098.546-.176 1.112-.449 1.58-.273.507-.761.78-1.268.994-.253.117-.526.215-.8.196-.273-.02-.448-.176-.585-.391-.136-.195-.273-.409-.507-.526-.234-.117-.526-.156-.761-.254-.468-.195-.858-.526-1.17-.917-.156-.195-.273-.409-.371-.643l-.234-.703c-.058-.097-.117-.195-.214-.273l-.332-.156c-.117-.058-.156-.156-.195-.273-.058-.136-.117-.234-.234-.312l-.312-.195c-.098-.078-.176-.175-.234-.292-.117-.215-.156-.469-.195-.722-.098-.644-.195-1.288-.234-1.951-.02-.331 0-.663.019-.995.02-.312.039-.643-.039-.955-.078-.293-.195-.546-.253-.839-.039-.137-.059-.273-.039-.41.019-.156.097-.273.156-.409.058-.117.117-.234.136-.371.02-.136 0-.273-.019-.41-.039-.234-.098-.487.097-.663l.488-.331.156-.215.039-.156.02-.215c.058-.097.234-.117.331-.136.176-.039.332-.059.507-.078.312-.039.644-.039.956-.02.254.02.488.039.741.078-.546-.312-1.092-.487-1.619-.507h-.117c-.195 0-.39.02-.585.078l-.253.078-.078.039-.059.039h-.02l-.058.039-.059.039h-.019l-.059.039-.058.039-.059.039h-.019l-.059.039-.058.039-.117.098-.117.117-.059.059-.039.039.351-.274.371-.253.41-.215c.097-.039.156.078.078.137l-.39.292-.371.293-.312.273-.078.078-.039.039-.176.195c-.078.117-.058.254-.097.371l-.117.39c-.078.214-.156.429-.176.644l-.019.351v.234l.019.234.02.156-.039.078c-.02.351-.039.702-.117 1.034.097-.039.253.019.253.156l-.019.292c0 .137.019.293.039.429l.097.313.078.175.059.195c.019.098-.117.156-.195.117-.078-.039-.117-.078-.176-.156l-.039-.078v.039l-.039.078.098.273c.214.585.253 1.21.507 1.795.234.546.565 1.014.839 1.541.136.253.234.507.331.76l.078.04.137.155.078.04.117.039c.253.214.468.507.585.838.175.195.351.39.429.644l.117.176c.039.077.098.175.078.273l-.039.078c.351.253.722.487 1.092.682.547.273 1.112.527 1.678.722.273.078.546.137.819.078.117-.019.195-.058.293-.117.097-.078.195-.136.253-.234.059-.098.215-.039.195.078-.019.117-.078.234-.156.332-.058.097-.175.156-.273.214h.02l.039-.019h.019l.039-.02h.02l.058-.019.039-.02c.624-.253 1.093-.761 1.424-1.463.449-.995.585-2.457.351-4.076z" fill="#fcb854"/><path d="M28.848 22.992l-.019-.117c-.039-.254-.098-.488-.156-.722l.468.8c.312-.059.624-.156.917-.332l-.176-.468c-.117-.293-.253-.546-.409-.819l-.176-.312.019.39c-.039.448-.624.546-.994.624l-.39.058-.078.976h.292c.215-.02.468-.039.702-.078zM18.023 19.83c.313.136.625.253.956.371.351.136.702.292 1.034.468l.215.117c.702.351 1.385.721 2.106 1.033l.078-.604-.019-.273.019-.039c-.663-.273-1.307-.566-1.95-.859l-.41-.195-.253-.136c-.703-.39-1.405-.878-1.776-1.561.039.234.079.469.059.703 0 .331-.039.663-.059.975zM28.166 25.703c-.956-.176-1.911-.39-2.867-.605-.878-.215-1.736-.449-2.595-.683-.663-.195-1.345-.37-1.989-.624.039.195.097.39.175.585.508.195 1.034.371 1.541.527 1.151.39 2.322.722 3.511 1.014-.019-.136-.019-.273 0-.39l.078-.039.274.507c.507.117 1.014.234 1.521.332l.975.175-.097-.097c-.176-.215-.351-.449-.527-.702zM20.247 23.595c-.546-.254-1.053-.586-1.522-.956-.546-.254-1.053-.566-1.541-.917-.526-.371-1.014-.78-1.482-1.209-.234-.215-.468-.429-.702-.664-.234-.214-.468-.429-.683-.663-.234-.234-.331-.526-.253-.858.078-.312.312-.527.565-.722.273-.195.566-.351.858-.507l.937-.546c.078-.059.234 0 .253.098.059.331-.039.624-.136.936-.059.156-.098.312-.117.468v.078c.078.527.409.995.858 1.307.176.117.351.234.546.331l-.019-.117c-.02-.195-.02-.39-.02-.585 0-.195-.019-.39-.058-.585-.059-.351-.118-.683-.02-1.034l.039-.097-.019-.332c.019-.702.312-1.307.721-1.814-.76.293-1.541.546-2.36.722-.839.195-1.677.312-2.536.37-.721.039-1.521.039-2.145.468-.098.079-.117.235 0 .293.273.156.37.507.526.761.098.156.215.273.352.37.175.118.351.176.526.274.624.37.936 1.111 1.307 1.697.839 1.306 2.107 2.223 3.472 2.906.702.351 1.424.644 2.146.917l.39.136c.039-.175.078-.331.156-.487l-.039-.039zM35.91 26.208l-.058.02h-.02l-.039.019h-.019l-.059.02c-.136.058-.273.097-.429.097-.195.02-.41-.019-.605-.078l-.117-.019-.156-.039-.058-.02-.059-.019-.058-.02-.059-.019-.058-.02-.059-.019c-.273.117-.565.195-.878.214-.448.039-.897-.039-1.345-.078l-1.327-.175c-.683-.098-1.346-.215-2.028-.332l.292.488.156.273c1.444.234 2.907.39 4.369.273.449-.039.898-.097 1.346-.195.41-.097.839-.195 1.21-.39l.078-.039-.02.058zM24.987 21.763l-.273-.078c-.663-.176-1.326-.41-1.97-.663l.039.214c0 .234-.078.468-.156.683.761.312 1.56.546 2.36.741l.293.059c.39.078.78.136 1.151.195.292.039.585.058.897.078l.039-.508.019-.409c-.585 0-1.189-.078-1.755-.195-.234 0-.449-.059-.644-.117z" fill="#a85a4f"/><path d="M25.26 22.757l-.292-.058c-.8-.176-1.6-.43-2.361-.742l-.058.273c-.02.157-.02.313.039.449l.136.234c.039.059.039.137.039.215 0 .136-.058.292-.078.429-.136-.293-.273-.605-.331-.936-.039-.234-.039-.469-.02-.703v-.078c-.721-.312-1.404-.682-2.106-1.033l-.215-.117c-.331-.176-.683-.332-1.034-.469-.312-.117-.643-.234-.956-.37l-.019.37c-.078-.136-.137-.292-.156-.448-.195-.098-.371-.195-.546-.332-.429-.312-.761-.761-.858-1.307v-.078c.019-.156.058-.312.117-.468.097-.312.195-.605.136-.936-.019-.117-.156-.156-.253-.098l-.937.546c-.292.156-.585.313-.858.508-.254.175-.488.409-.566.721-.097.332.02.624.254.859.215.234.449.429.683.663l.702.663c.468.429.975.839 1.482 1.209.488.351.995.664 1.541.917.468.371.976.702 1.522.956l.097.039c.078-.195.156-.39.254-.585.019.253.058.507.117.741.624.234 1.307.429 1.97.624.858.254 1.736.468 2.594.683.956.234 1.892.429 2.868.604-.098-.117-.176-.253-.254-.37-.273-.39-.468-.819-.546-1.288-.059-.331-.039-.682-.02-1.014-.292-.019-.604-.039-.897-.078-.41-.058-.8-.117-1.19-.195zM33.803 26.033l-.098-.039-.058-.039-.059-.02-.058-.039-.059-.039-.234-.136-.039-.02-.585-.293c-.995-.546-1.912-1.287-2.38-2.34l-.175-.468c-.273.156-.586.273-.917.331l.136.234.664 1.151c.097.176.195.351.312.527.097.156.214.312.37.409.078.059.176.098.215.176l.078.195.058.195c-.39-.117-.721-.37-.936-.722-.137-.214-.273-.448-.468-.643-.176-.156-.41-.293-.527-.507-.175-.254-.156-.586-.136-.878l-.059-.078v-.059c-.253.039-.487.059-.741.059h-.293v.039c-.019.351-.039.702.02 1.053.058.351.176.702.332 1.034.097.214.214.41.331.605.683.117 1.346.234 2.029.331l1.326.176c.449.058.897.117 1.346.078.293-.02.585-.098.878-.215-.078.02-.176-.019-.273-.058z" fill="#a3544b"/><path d="M22.002 14.896l1.443-.897c.469-.273.937-.527 1.444-.722.527-.214 1.073-.39 1.619-.546l.331-.097.059-.195c.097-.274.215-.527.371-.761-1.073.214-2.107.526-2.887.839-.624.253-1.229.526-1.834.819l-.156.429c-.136.371-.292.741-.39 1.131zM27.094 12.556c.331-.079.663-.156.995-.176.292-.019.604 0 .897.059l.175-.137.039-.039.059-.059.117-.117.117-.097.059-.039.058-.039h.02l.058-.039.059-.039.058-.039h.02l.058-.039.059-.039h.019l.059-.039.078-.039.253-.078c.195-.059.39-.078.585-.078h.117c-.877-.117-2.009-.039-3.14.156-.273.214-.566.546-.819.917zM17.77 17.333l.039-.097.039.136c.058.254.136.507.175.781.371.682 1.053 1.189 1.775 1.56l.254.137c.136.078.273.136.409.195.644.292 1.288.585 1.951.858l.117-.507.098.292.117.332c.643.253 1.306.468 1.97.663l.273.078c.214.059.409.098.624.137.566.117 1.17.195 1.755.195 0-.761-.117-1.541-.39-2.243.371.331.722.702.858 1.209.098.332.098.663.079 1.014l.39-.058c.351-.078.955-.176.995-.624.019-.137 0-.254-.02-.391-.254-.429-.488-.858-.644-1.345-.916.195-1.892.136-2.828.019-.546-.058-1.073-.137-1.619-.234-.527-.078-1.053-.195-1.56-.371-.508-.175-.995-.39-1.444-.702l-1.268-.936-.331-.215c-.117-.058-.254-.117-.273-.253-.02-.117.039-.254.078-.371l.136-.351c.117-.215.273-.41.507-.527.234-.117.488-.175.741-.253l.293-.117c-.078-.41.254-.8.371-1.19l.078-.351-1.132.546c-.624.293-1.229.566-1.872.8-.41.507-.702 1.112-.722 1.814l-.019.37z" fill="#af5f54"/><path d="M28.42 18.681c-.078-.312-.195-.605-.312-.917-.117-.312-.137-.644-.098-.975l.215-.956v-.507l.019-.215v-.019l.02-.215v-.019l.019-.215v-.059c-.019-.117-.019-.214 0-.331.02-.156.039-.312.078-.468l.137-.371.097-.293.039-.195c.02-.156.078-.292.195-.409l.156-.156c-.292-.059-.585-.078-.897-.059-.331.02-.663.098-.995.176-.136.195-.234.409-.331.643.292-.038.585-.019.877.02l.098.098c.02.136.039.273.039.409 0 .546-.215 1.073-.449 1.541l-.039.078c-.039.273-.117.546-.175.819-.039.234-.078.488-.078.742 0 .253.078.487.156.721.078.273.117.566-.078.8-.156.195-.41.254-.644.293-.546.058-1.112-.039-1.638-.195-.547-.156-1.054-.332-1.6-.449-.253-.059-.526-.078-.8-.098-.273-.019-.546-.039-.819-.136-.507-.195-.819-.624-1.053-1.092-.078-.137-.156-.293-.059-.449.059-.098.195-.176.293-.234.136-.078.273-.137.429-.195-.078-.156-.156-.312-.195-.468l-.293.117c-.253.078-.507.136-.741.253-.214.117-.39.293-.507.527l-.136.351c-.039.117-.098.254-.078.371.039.136.155.195.273.253.117.059.234.137.331.215.429.292.839.624 1.268.936.449.312.936.527 1.443.702.508.176 1.034.273 1.561.371.527.097 1.073.156 1.619.234.936.117 1.892.175 2.828-.02v-.019c-.039-.293-.097-.624-.175-.936zM22.899 15.422c.176-.078.351-.195.507-.292l.156-.234c.078-.098.176-.157.293-.215.214-.117.449-.176.663-.312.215-.137.41-.312.624-.468l.02-.02v-.019.019c.175-.136.37-.273.585-.351.312-.175.644-.273.995-.332.019-.195.078-.39.136-.585l-.331.098c-.546.156-1.093.331-1.619.546-.507.195-.976.449-1.444.722l-1.443.897c-.078.254-.137.527-.156.8.312-.039.683-.098 1.014-.254z" fill="#b46556"/><path d="M26.684 13.414l.019-.215c-.351.059-.682.156-.994.332-.215.097-.41.214-.586.351l.02.156c.058.331.175.721.078 1.053-.078.293-.293.527-.351.839-.02.175.019.351.078.526.039.157.058.313.058.488 0 .195-.019.39-.078.585-.039-.448-.136-.897-.351-1.287-.117-.234-.37-.527-.312-.819v-.02l.176-.234c.175-.195.39-.331.487-.585l.059-.176.019-.117.02-.078.058-.312-.019.02c-.195.156-.39.331-.624.468-.215.136-.449.195-.663.312-.098.058-.215.117-.293.215l-.156.234c-.156.117-.332.214-.507.292-.332.137-.683.195-1.054.273v.02c-.039.605.156 1.209.039 1.814l-.019.058c-.059-.331-.156-.643-.273-.955-.078-.215-.176-.449-.293-.664l-.078-.136c-.156.058-.292.117-.429.195-.097.058-.234.136-.292.234-.098.156-.02.293.058.449.234.468.546.897 1.053 1.092.254.097.547.117.82.137.273.019.526.039.799.097.546.117 1.073.312 1.6.449.526.136 1.092.253 1.638.195.234-.039.488-.098.644-.293.195-.234.156-.527.078-.8-.078-.234-.156-.468-.156-.721 0-.254.039-.488.078-.742l.176-.819.039-.078c.253-.488.468-.995.448-1.541 0-.136-.019-.273-.039-.409l-.097-.098c-.293-.058-.586-.058-.878-.019l-.02.078c.059.058.039.117.02.156z" fill="#b76b5c"/><path d="M26.84 12.633l.273-.078c.234-.37.527-.702.858-1.014-.234.039-.468.078-.682.137-.157.234-.274.487-.371.76l-.078.195z" fill="#964b45"/><path d="M26.762 13.198c.097-.234.214-.448.331-.643l-.273.078c-.058.195-.097.39-.136.585l.078-.02z" fill="#a3544b"/><path d="M26.684 13.414l.058-.156.02-.078h-.059l-.019.234z" fill="#a85a4f"/><path d="M21.046 15.365c.332-.137.644-.293.937-.469.117-.39.253-.76.39-1.131l.156-.429c-.351.156-.702.332-1.034.507l-.078.351c-.117.371-.429.761-.371 1.171z" fill="#964b45"/><path d="M21.242 15.852l.234-.078.351-.078c.02-.273.078-.546.156-.799-.312.175-.624.331-.936.468.039.175.117.331.195.487z" fill="#a3544b"/><path d="M21.613 16.632c.117.312.195.624.273.955l.019-.058c.118-.605-.078-1.209-.039-1.814v-.02l-.351.078-.234.078.078.137c.078.215.156.429.254.644z" fill="#a85a4f"/><path d="M18.023 19.831l.078-.995c0-.234-.019-.468-.058-.702-.039-.254-.117-.508-.176-.781l-.039-.136-.039.097-.039.098c-.117.332-.039.683.02 1.034.039.195.058.39.058.585 0 .195 0 .39.02.585l.019.117c.02.156.078.312.156.449-.019-.098-.019-.215 0-.351zM22.411 21.235c0 .195-.039.39-.078.605v.078c-.019.234-.019.468.02.702.058.332.195.644.331.937.039-.137.078-.293.078-.43 0-.078 0-.136-.039-.214l-.136-.234c-.059-.137-.059-.293-.039-.449l.058-.273c.078-.234.156-.449.156-.683l-.039-.214-.117-.332-.097-.292-.117.507-.02.039c.039.058.039.156.039.253zM28.849 22.874l.02.117v.059l.058.078c-.019.292-.039.624.137.877.137.196.351.332.527.508.195.175.331.409.468.643.214.351.546.605.936.722l-.059-.195-.077-.195-.215-.176c-.156-.097-.273-.253-.371-.409l-.312-.527-.663-1.151-.136-.234c-.156-.253-.313-.526-.469-.8.059.196.117.43.156.683zM25.143 13.881v.019-.019z" fill="#964b45"/><path d="M25.065 14.291l-.02.117-.058.175c-.098.254-.312.39-.488.585l-.175.234v.02c-.059.292.175.566.312.819.214.39.292.839.351 1.287.058-.195.078-.39.078-.585 0-.156-.02-.331-.059-.487-.039-.176-.097-.351-.078-.527.039-.312.273-.546.351-.839.079-.351-.019-.722-.078-1.053l-.019-.156-.059.312-.058.098z" fill="#a85a4f"/><path d="M26.021 25.488l-.078.039v.39l.352.078c-.098-.156-.196-.331-.274-.507zM20.597 23.029c-.097.195-.175.39-.253.586-.059.155-.117.331-.156.487l.682.254c-.078-.195-.136-.39-.175-.586-.039-.234-.078-.487-.098-.741z" fill="#964b45"/><path d="M30.898 13.316c-.078.059-.156.117-.195.215-.078.136-.039.253.078.332.195.156 0 .429-.098.585-.273.448-.331.975-.312 1.482 0 .273.039.527.078.8l.059.39c0 .137-.04.234-.078.371-.059.136-.118.253-.098.409.02.137.059.273.117.39l.39.683c.468.917.8 1.892 1.307 2.789.137.215.273.449.429.644.078.098.156.215.254.293.097.097.234.156.351.214.097.039.195.098.292.176.078.078.156.156.215.253.156.195.312.371.527.488.234.117.487.176.741.195.234.02.468 0 .702-.039.234-.059.429-.156.605-.312.175-.176.292-.41.37-.644.078-.253.117-.526.137-.78.019-.293.039-.585-.039-.858l-.254-.8c-.058-.273-.058-.546-.136-.819-.078-.254-.234-.468-.351-.702-.117-.235-.176-.508-.215-.781-.078-.487-.136-1.014-.488-1.404l-.273-.215c-.097-.078-.117-.195-.136-.312-.039-.253-.137-.487-.273-.722-.156-.234-.332-.448-.488-.663-.175-.234-.331-.468-.527-.682-.078-.098-.175-.195-.292-.273v-.059c-.273-.371-.702-.527-1.131-.605-.215-.039-.43-.078-.644-.078-.215-.097-.449-.078-.624.039zm.994 1.502l.156-.078c.195-.058.41 0 .547.117l.097.039c.156.078.293.195.41.293.136.117.273.253.39.39.254.273.488.566.683.878.429.663.682 1.385.858 2.145.097.43.175.839.331 1.249.079.195.157.409.215.604.117.137.234.293.332.449.156.273.214.585.175.917-.039.292-.175.605-.351.858-.097.137-.214.234-.371.273-.136.02-.273.039-.409.02-.527-.02-1.053-.254-1.424-.624-.195-.176-.351-.41-.449-.644-.117-.273-.175-.585-.331-.839-.137-.214-.332-.371-.508-.566-.195-.214-.351-.448-.39-.741-.058-.312 0-.605.02-.917 0-.136.019-.292 0-.429-.02-.156-.078-.273-.137-.409-.058-.156-.136-.293-.175-.449-.039-.176-.039-.332-.039-.507v-1.053c0-.293-.039-.644.175-.859.039-.058.117-.097.195-.117z" fill="#fcb854"/><path d="M31.482 15.812v1.053c0 .176 0 .352.039.508.02.156.098.312.176.448.059.137.117.273.137.41.019.136.019.292 0 .429-.02.312-.059.605-.02.917.039.292.195.526.39.741.176.195.371.351.507.566.176.253.215.565.332.838.097.234.273.469.449.644.39.371.897.605 1.423.624.137 0 .274 0 .41-.019.156-.039.273-.137.371-.273.175-.254.312-.566.351-.859.039-.312-.02-.624-.176-.916-.097-.156-.195-.313-.331-.449-.059-.195-.137-.41-.215-.605-.156-.409-.234-.819-.331-1.248-.157-.761-.43-1.482-.859-2.146-.195-.312-.429-.604-.682-.877-.117-.137-.254-.254-.391-.391-.136-.117-.253-.234-.409-.292l-.098-.039c-.136-.137-.37-.176-.546-.117l-.156.078c-.078.019-.176.058-.234.117-.176.214-.117.566-.137.858zm.664.41l.097-.195v-.039c0-.156.117-.312.273-.351.137-.02.293.039.429.097.273.117.527.273.664.527.078.136.117.273.156.429.039.136.097.253.175.37.078.117.176.215.273.293.117.098.215.176.312.293.098.136.117.292.117.448l.02.488c.039.312.078.624.156.936.078.312.176.605.273.897.059.137.117.293.195.43.059.136.137.292.176.448.058.273 0 .624-.293.761-.273.137-.585.039-.8-.137-.234-.175-.448-.429-.643-.663-.215-.234-.39-.487-.547-.78-.136-.273-.253-.546-.448-.78-.195-.254-.39-.488-.468-.78-.078-.293-.078-.605-.02-.898.059-.292.195-.604.117-.917-.058-.292-.312-.546-.214-.877z" fill="#ffbe5f"/><path d="M32.281 18.016c-.058.293-.058.605.02.898.078.312.273.546.468.78.195.234.312.507.449.78.136.273.331.527.546.78.195.234.39.468.643.664.234.175.527.253.8.136.293-.136.351-.468.293-.761-.039-.156-.117-.292-.176-.448l-.195-.429c-.117-.293-.215-.605-.273-.898-.078-.312-.117-.624-.156-.936-.02-.156-.02-.332-.02-.488 0-.156-.039-.312-.117-.448-.078-.117-.195-.195-.312-.293-.097-.078-.195-.195-.273-.292-.078-.117-.136-.234-.175-.371l-.156-.429c-.137-.273-.39-.429-.664-.527-.136-.058-.292-.117-.429-.097-.156.019-.273.175-.273.351v.039l-.097.195c-.078.331.156.585.234.897.058.293-.078.605-.137.897z" fill="#ffc661"/><path d="M28.985 12.438l-.157.156c-.116.117-.175.254-.194.41l-.039.195-.098.293-.137.37c-.039.156-.078.312-.078.468v.332l.039.176c-.019.331-.039.643-.097.975v.058l-.215.956c-.058.332-.019.644.098.975.097.313.234.605.312.917.078.312.136.644.234.956v.019c.137.488.39.917.644 1.346l.175.312c.156.254.293.527.41.82l.175.468.176.468c.468 1.053 1.385 1.795 2.38 2.341l.585.292c.371.176.761.332 1.151.488.117.039.253.097.39.117.195.058.39.078.605.078.136 0 .292-.039.429-.098l.058-.019c.098-.059.215-.137.273-.215.078-.097.117-.214.156-.331.02-.117-.136-.195-.195-.078-.058.117-.156.175-.253.234-.098.058-.195.097-.293.117-.253.058-.546.019-.819-.078-.585-.176-1.151-.449-1.678-.722-.37-.195-.741-.41-1.092-.683l.039-.078c.019-.097-.039-.195-.078-.273l-.117-.175c-.078-.254-.254-.449-.429-.644-.117-.312-.332-.605-.585-.839l-.117-.039-.078-.039-.137-.156-.078-.039c-.097-.253-.195-.507-.332-.76-.273-.508-.604-.995-.838-1.541-.234-.566-.293-1.21-.507-1.795l-.098-.273.039-.078v-.039l.039.078c.039.078.098.117.175.156.079.039.196 0 .196-.117 0-.078-.02-.137-.059-.195l-.078-.176c-.039-.097-.078-.195-.097-.312-.039-.136-.059-.292-.039-.429l.019-.292c.02-.137-.136-.196-.253-.157.078-.351.097-.682.117-1.033l.039-.078-.02-.156-.019-.234v-.235l.019-.351c.039-.214.098-.429.175-.643.059-.137.098-.254.118-.39.019-.117.019-.254.097-.371.039-.059.098-.137.176-.195l.039-.039.078-.078c.097-.098.195-.195.312-.273l.37-.293.391-.292c.078-.059.019-.176-.078-.137-.137.059-.274.137-.41.215l-.371.253-.351.273-.214.156z" fill="#fcb854"/><path d="M21.533 29.388c-.02-.313-.039-.664-.215-.917h-1.6380000000000001c.136.429.234.858.312 1.307.058.39.097.799.097 1.209 0 .332-.019.663-.058.995.312.019.643.019.956.019.214 0 .429 0 .643-.019 0-.429 0-.839-.019-1.268-.02-.468-.039-.897-.078-1.326zM26.546 27.652l-.059.02-.136.039-.059.019-.137.039h-.019l-.059.02-.136.039h-.02l-.058.019h-.02l-.136.02h-.02l-.058.019h-.02l-.058.02h-.02l.078.429c.117.546.371 1.073.507 1.619.118.429.137.878.039 1.307.254-.078.508-.156.761-.293l.02-.234c.039-.839-.039-1.677-.137-2.516-.019-.215-.039-.449-.078-.663l-.175.097z" fill="#a3544b"/><path d="M26.097 29.974c-.136-.546-.39-1.073-.507-1.619-.039-.137-.058-.273-.078-.429-.721.136-1.463.234-2.184.331l-.137.02h-.039l-.078.019h-.507l-.312.039h-.39c-.156.02-.332.02-.488.02.175.273.195.624.215.917.039.429.058.858.078 1.287.019.41.019.839.019 1.268.566-.039 1.131-.098 1.697-.176.741-.097 1.463-.195 2.204-.351.195-.039.39-.078.585-.136.059-.312.02-.761-.078-1.19z" fill="#9e4d47"/><path d="M13.341 28.568l-.098-.02h-.019l-.098-.019-.058-.02-.059-.019-.136-.039-.137-.039h-.039l-.097-.02h-.02l-.117-.039-.058-.019-.059-.02-.254-.078c-.156.43-.273.859-.312 1.307-.039.468-.019.937 0 1.405l.039.682c.352.117.703.215 1.054.312.234.059.468.098.702.137-.059-.468-.098-.917-.137-1.385-.078-.702-.097-1.424-.097-2.126zM19.992 29.738c-.078-.429-.175-.877-.312-1.306h-.8970000000000004l-.059.019-.156.039h-.019l-.156.039c-.02.293-.02.566-.02.858.02.586.098 1.151.176 1.717.039.293.078.585.058.858l.098-.019c.448-.098.897-.098 1.365-.078.039-.332.059-.663.059-.995l-.137-1.132z" fill="#a85a4f"/><path d="M18.509 31.163c-.098-.566-.176-1.151-.176-1.717 0-.292 0-.565.02-.858l-.137.039h-.078l-.058.019h-.02l-.078.02h-.019l-.078.019h-.02l-.097.02h-.02l-.078.019h-.019l-.098.02c-.39.058-.78.078-1.17.078-.195 0-.371 0-.566-.02l-.585-.039-.605-.039-.604-.058-.156-.02h-.039l-.137-.019h-.02l-.156-.02h-.019l-.156-.019c0 .722.019 1.424.078 2.146.039.468.078.916.136 1.384l.449.059c.39.039.8.078 1.19.098.39.019.761.058 1.151.058s.78-.02 1.17-.078c.351-.058.683-.137 1.034-.215.058-.312.019-.585-.039-.877z" fill="#af5f54"/><path d="M24.284 26.988c-.234.117-.468.215-.702.273h.078c.215.02.351-.039.507-.156.156-.117.312-.195.507-.234.176-.039.371-.059.566-.078.371-.039.741-.137 1.073-.332.312-.175.624-.409.8-.741.039-.097.078-.195.078-.293l-.332-.156-.078-.039c-.351.293-.683.566-1.053.839-.468.312-.937.663-1.444.917zM19.621 27.398c.332.079.663.137 1.014.137.332 0 .664-.058.995-.137l-.917.02c-.37.019-.741 0-1.092-.02zM13.047 26.795c-.897-.098-1.814-.196-2.711-.352l.059.098c.312.605.975.936 1.638.858.215-.019.429-.039.644.02.195.058.409.136.604.175.41.098.8.176 1.229.215.819.078 1.658.039 2.458-.156.41-.098.8-.254 1.209-.332l.254-.039-1.541-.136c-1.288-.098-2.575-.215-3.843-.351z" fill="#f9b04e"/><path d="M27.579 25.623c-.117-.078-.234-.137-.351-.176l-.058-.039c0 .098-.02.195-.079.293-.175.312-.487.566-.799.741-.332.195-.683.293-1.073.332-.195.019-.371.039-.566.078-.195.039-.351.136-.507.234-.175.117-.312.175-.507.156h-.078c-.312.097-.644.136-.975.156h-.9760000000000001c-.312.078-.643.136-.975.136-.351 0-.683-.058-1.014-.136l-.8-.059-.39-.039-.254.039-1.209.332c-.8.195-1.639.234-2.458.156-.409-.039-.819-.117-1.229-.215-.214-.058-.409-.136-.604-.175-.215-.059-.41-.039-.644-.02-.663.078-1.326-.253-1.638-.858l-.059-.097c-.254-.039-.488-.078-.741-.137l-.059.117c-.058.156-.097.312-.078.468 0 .156.059.332.176.449l.117.117.039.019.019.02.02.019.019.02.02.019.058.039.039.02.039.019c.137.059.293.098.449.137h.02l.039.019.058.02 1.131.351.352.098.253.078.059.019.058.02.117.039h.02l.097.019h.039l.137.039.136.039.059.02.058.019.098.02h.019l.098.019.156.02h.019l.156.019h.02l.137.02h.039l.155.019.605.059c.195.019.39.039.605.039l.585.039.566.019c.39 0 .78-.019 1.17-.078l.098-.019h.019l.078-.02h.02l.097-.019h.02l.078-.02h.019l.078-.019h.02l.058-.02h.078l.137-.039.156-.039h.019l.156-.039.059-.019h2.536l.487-.02h.391l.312-.039h.507l.078-.019h.039l.136-.02c.722-.097 1.463-.195 2.185-.331h.019l.059-.02h.02l.058-.019h.02l.136-.02h.019l.059-.019h.02l.136-.039.059-.02h.019l.137-.039.058-.02.137-.039.058-.019.137-.059.058-.039.137-.058.058-.039h.02l.058-.039.059-.039h.019l.039-.02.02-.019.058-.039.039-.02.235-.195.078-.078.136-.156.059-.078c.097-.136.136-.292.156-.468.195-.468.039-.702-.176-.858z" fill="#fcb854"/><path d="M13.048 26.794c1.288.136 2.556.253 3.843.37l1.541.137.39.039.8.058c.351.02.721.039 1.092.039l.917-.019h.039c.312 0 .624.019.936 0 .332 0 .663-.059.975-.156.234-.078.468-.156.703-.273.507-.254.955-.585 1.404-.937.351-.273.702-.546 1.053-.838l-.741-.351c-.449-.195-.897-.39-1.365-.507l-.254 2.009-.019.078c-.02.117-.098.214-.195.292l-.215.137-.371.156-.351.097c-.253.059-.507.078-.78.098-.195.019-.39.019-.585.019-.741 0-1.483-.019-2.204-.058-.566-.02-1.132-.059-1.697-.117-.215-.02-.429-.039-.644-.078l-.956-.137c-.468-.039-.917-.097-1.385-.097h-.097c-.351 0-.702.019-1.054 0-.39-.02-.78-.059-1.17-.098-.37-.058-.761-.117-1.131-.195-.39-.078-.781-.136-1.171-.234l-.448-.097-.215-.059-.117.215c.254.058.488.097.741.136.917.176 1.834.273 2.731.371z" fill="#e59a48"/><path d="M24.576 24.219l-.019.019-.059.059-.019.019-.02.02-.019.019-.02.02c-.214.331-.663.409-1.033.487v.351c0 .586.019 1.19-.098 1.775l-.039.156.351-.097c.137-.039.254-.098.371-.156l.214-.137c.098-.078.176-.195.195-.292l.02-.078.273-1.99.058-.371-.078.176-.078.02z" fill="#a85a4f"/><path d="M18.06 25.312v-.137c-.156 0-.292-.019-.448-.058-.215-.059-.41-.156-.605-.234-.195-.078-.41-.137-.605-.176.039.215.078.429.098.644.019.292.019.565-.02.858-.019.234-.078.449-.136.683.312.058.624.097.955.136l.644.078c.039-.292.078-.585.098-.877l.019-.917zM23.346 25.214v-.351l-.078.02c-.253.039-.487.136-.722.214l-.331.098.331 1.112c.059.312.059.624-.097.917.273-.02.527-.039.78-.098l.039-.156c.098-.566.098-1.151.078-1.756z" fill="#a3544b"/><path d="M22.527 26.325l-.331-1.112c-.137.039-.273.058-.41.078-.917.117-1.833-.117-2.75-.117-.312 0-.644.039-.956.019v.137c0 .312-.02.605-.039.917-.02.292-.059.585-.098.877.566.059 1.132.078 1.697.117.742.02 1.483.059 2.205.059.195 0 .39 0 .585-.019.156-.332.175-.644.097-.956z" fill="#9e4d47"/><path d="M9.908 25.156c0-.507.039-1.015.117-1.502l-.097-.02h-.02l-.078-.019-.059-.02-.058-.019-.117-.039-.176-.059-.039-.019-.136-.039-.02-.02-.37-.136c-.195.273-.351.565-.429.877-.078.312-.117.644-.137.976-.019.156-.019.331-.019.487.331.117.682.254 1.014.352.156.058.312.097.468.136l.215.059c-.059-.332-.059-.664-.059-.995zM16.5 25.35c-.02-.214-.059-.429-.098-.643h-.039l-.702-.078c-.234-.039-.449-.098-.663-.176l-.039-.019c-.039.156-.059.312-.078.487-.039.41-.02.82.019 1.229.02.195.02.41-.019.605h.097c.449 0 .897.058 1.346.136.059-.234.117-.448.137-.682.058-.293.058-.566.039-.859z" fill="#a85a4f"/><path d="M14.921 26.149c-.039-.409-.058-.819-.019-1.229.019-.156.039-.331.078-.487l-.312-.098h-.507c-.196 0-.391-.019-.586-.039l-.565-.058c-.195-.02-.371-.059-.566-.098l-.566-.097-.585-.118-.585-.117-.156-.039h-.039l-.137-.039h-.019l-.137-.039h-.019l-.156-.039c-.078.508-.098.995-.117 1.502 0 .332 0 .664.019.976.156.039.293.078.449.097l1.17.234c.371.078.761.137 1.132.195.39.059.78.098 1.17.098.351.019.702 0 1.053 0 .02-.195.02-.39 0-.605z" fill="#af5f54"/><path d="M7.293 21.859c.136.253.37.448.663.604l.059.02c.253.117.526.175.819.195.214.019.429.019.624.098.195.058.39.136.585.214.39.137.78.234 1.19.312.8.156 1.638.234 2.458.215h.078c.156 0 .312-.02.468-.039l.156-.02h.078l.137-.019h.877c.234.039.449.078.683.136.39.117.78.234 1.209.293.254.039.508.039.761.039h1.112c.176 0 .351.019.527.039l.429.078.175.039.156.019h.098l.156-.019.058-.02.059-.019.195-.059.332-.039c.195 0 .37 0 .565.02h.488c.195-.02.41-.039.605-.098.312-.078.663-.214.858-.409.058-.059.097-.117.097-.195l-.331-.156-.78-.371c-.508-.234-1.034-.468-1.6-.605-.585-.136-1.17-.214-1.775-.292-.605-.078-1.209-.137-1.833-.195-.976-.098-1.932-.215-2.907-.352l-.058-.019c-.371-.097-.742-.195-1.112-.254-1.522-.273-3.063-.214-4.565-.136-.624.039-1.287.058-1.833.254l-.02.039c-.078.234-.078.468.059.702zm1.365-.41c.098-.039.234-.039.351-.058l.391-.059.741-.117c.663-.117 1.911-.117 2.75-.078.449.02.761.117.819.117.546.098 1.112.215 1.658.332.566.097 1.112.214 1.678.292.565.098 1.112.176 1.677.254l1.6.214c.253.039.507.098.741.176.234.058.488.156.663.273.156.117.312.273.215.429-.098.156-.41.176-.624.176-.995.078-2.01-.078-3.004-.254-.976-.156-1.97-.39-2.985-.488-.507-.058-1.014-.058-1.521-.039-.507.02-1.034.078-1.541.078-.527.02-1.053 0-1.58-.097-.546-.098-1.073-.254-1.58-.429-.215-.078-.449-.156-.585-.332-.117-.136-.059-.312.136-.39z" fill="#f9b04e"/><path d="M9.205 23.399l.137.039.039.02.175.058.117.039.059.02.058.019.078.02h.02l.097.02.157.039h.019l.137.039h.019l.137.039h.039l.156.039.585.117.585.117c.195.039.371.078.566.097l.565.098c.195.019.391.058.566.058.195.02.39.039.585.039h.507l.312.098.039.019c.215.078.449.137.664.176.234.039.468.058.702.078h.039c.214.039.409.097.605.175.195.078.409.176.604.234.137.039.293.059.449.059.312.019.644-.02.956-.02.916.02 1.833.234 2.75.117.137-.019.273-.039.41-.078.117-.019.234-.058.331-.097.234-.078.468-.176.722-.215l.078-.019c.371-.078.8-.156 1.034-.488l.019-.019.02-.02.019-.019.02-.02.058-.058.02-.02.019-.039.078-.175c.039-.195-.078-.371-.273-.508l-.331-.175-.059-.039c0 .078-.039.136-.097.195-.195.195-.547.332-.859.41-.195.039-.39.078-.604.097h-.488c-.195-.019-.371-.019-.566-.019-.117 0-.234.019-.331.039l-.195.058-.059.02-.058.019-.156.02h-.098l-.156-.02-.175-.039c-.137-.039-.274-.058-.43-.078-.175-.019-.351-.039-.526-.039h-1.112c-.254 0-.507-.019-.761-.039-.409-.059-.8-.175-1.209-.293-.234-.058-.449-.117-.683-.136h-.878l-.136.019h-.078l-.156.02-.468.039h-.078c-.82.019-1.658-.059-2.458-.215-.41-.078-.8-.195-1.19-.312-.195-.058-.39-.136-.585-.214-.215-.078-.41-.078-.624-.098-.293-.019-.566-.078-.82-.195l.098-.039c-.293-.136-.527-.351-.663-.605-.137-.234-.137-.468-.059-.682l.02-.039-.176.078c-.253.117-.468.273-.605.468-.078.078-.136.195-.136.293v.117c.019.097.078.195.175.273l.156.156.059.039.039.019.039.02c.137.058.293.117.429.156h.02l.039.019.058.02c.371.136.722.273 1.093.39l.331.117.371.136.058-.039zM9.107 22.19c.507.175 1.034.331 1.58.429.527.097 1.053.117 1.58.097l1.541-.078c.507-.019 1.014-.019 1.521.039 1.015.098 2.01.332 3.024.508.995.175 2.009.331 3.004.253.214-.019.526-.019.624-.175.078-.156-.059-.312-.215-.43-.175-.117-.448-.214-.663-.273-.253-.078-.487-.117-.741-.175-.527-.098-1.073-.137-1.6-.215-.565-.078-1.131-.156-1.677-.253l-1.678-.293-1.658-.331c-.039 0-.37-.098-.819-.118-.878-.078-2.126-.078-2.789.02l-.741.117-.39.059-.352.058c-.214.078-.253.254-.136.41.117.175.351.273.585.351zm1.034-.293c.117-.253.41-.448.761-.546.351-.098.76-.098 1.15-.078.449.039.878.098 1.327.156.448.059.897.137 1.346.234l.468.098c.253.058.527.097.78.136l.8.098c.644.078 1.307.175 1.95.273l.976.156.487.078c.117.019.215.039.312.097.215.117.157.312-.058.371l-.312.02-.468-.059c-.644-.078-1.307-.195-1.951-.293-.644-.097-1.287-.214-1.931-.273-.624-.058-1.268-.078-1.892-.058-1.229.019-2.477.058-3.687-.273-.058-.039-.078-.098-.058-.137z" fill="#fcb854"/><path d="M10.201 21.996c1.209.331 2.457.292 3.686.273.624 0 1.249 0 1.892.058.644.059 1.288.176 1.931.273.644.117 1.288.215 1.951.293l.468.058c.117 0 .215.02.312-.019.215-.059.254-.254.059-.371-.098-.058-.195-.078-.312-.097l-.488-.078-.975-.156c-.644-.098-1.307-.195-1.951-.274l-.8-.097c-.273-.039-.526-.078-.78-.137l-.468-.097-1.346-.234c-.429-.059-.878-.117-1.326-.156-.39-.02-.8-.02-1.151.078-.351.097-.644.292-.761.546-.019.078 0 .137.059.137z" fill="#ffc661"/><path d="M6.591 23.596l.039-.196c.059-.292.117-.565.215-.838l-.039-.02-.039-.019-.059-.039-.019-.02-.02-.019-.019-.02-.02-.019-.019-.02-.02-.019-.039-.039c-.097-.078-.156-.176-.175-.273v-.11699999999999999l-.156 1.228.156.117c.039.137.136.215.214.313zM6.533 24.24l-.468-.273-.058.409c-.02.137.019.293.175.41.098.078.215.137.351.195 0-.234-.019-.487 0-.741z" fill="#a85a4f"/><path d="M7.392 22.758l-.059-.02-.039-.019h-.019l-.429-.156c-.098.273-.156.565-.215.838l-.039.195.137.176c.234.312.487.605.76.878l.234.214-.819-.409-.351-.195c-.019.253 0 .507.02.76l.507.195c.37.137.721.273 1.092.39l.058.02c.02-.156.02-.332.02-.488.02-.331.059-.663.137-.975.078-.312.234-.605.429-.878l-.332-.117c-.371-.156-.741-.292-1.092-.409z" fill="#a3544b"/><path d="M21.338 30.148c.293.118.566.195.878.274 1.287.312 2.672.214 3.92-.254-.351.059-.721.098-1.072.117-1.249.039-2.478-.137-3.726-.137z" fill="#914440"/><path d="M10.025 27.595l-.039-.02-.039-.019-.078-.02-.02-.019-.019-.02-.02-.019-.019-.02-.039-.019-.02-.02-.039-.039-.058-.058c-.117-.137-.176-.293-.176-.449v1.522c.156.136.312.253.468.37.02-.37.059-.761.098-1.17zM9.459 29v1.365c0 .196.059.41.234.547.117.097.234.156.371.214-.078-.546-.137-1.112-.137-1.677-.175-.137-.331-.293-.468-.449z" fill="#a85a4f"/><path d="M10.103 28.922c.527.371 1.093.722 1.658 1.054l.02-.41c.039-.449.156-.897.312-1.307l-.351-.098-1.131-.351-.059-.019-.039-.02h-.02c-.156-.039-.292-.078-.448-.136-.059.39-.078.8-.098 1.19l.156.097zM11.742 30.189c-.215-.04-.429-.098-.644-.157-.429-.136-.819-.331-1.17-.604 0 .565.058 1.112.136 1.677l.527.176 1.131.351.059.019-.039-.682c.019-.254 0-.507 0-.78z" fill="#a3544b"/><path d="M12.444 30.326l-.273-.137-.429-.234v.234c.234.059.468.098.702.137zM9.927 29.448v-.644c-.156-.117-.331-.234-.468-.37v.585c.137.136.293.292.468.429zM9.928 28.805v.643c.351.274.741.469 1.17.605.215.059.429.117.644.156v-.234c-.566-.312-1.112-.683-1.658-1.053l-.156-.117z" fill="#914440"/><path d="M27.913 27.809v-1.522c-.02.156-.059.332-.157.468l-.058.078-.137.156-.078.078-.234.195-.039.02-.058.039-.02.019-.039.02h-.019l-.059.039-.058.039h-.02l-.058.039-.137.059-.058.039.078.663.019.234.371-.215c.273-.136.507-.292.761-.448zM26.82 28.785c.059.663.117 1.346.078 2.009l-.019.234.351-.215c.117-.097.254-.195.351-.312l.195-.234c.098-.136.137-.292.156-.468v-1.365c-.37.156-.741.273-1.112.351z" fill="#a85a4f"/><path d="M26.215 28.843c.195 0 .41-.019.605-.058l-.02-.273c-.214.097-.41.214-.585.331zM27.913 27.809c-.254.156-.508.312-.761.448l-.371.215.02.273c.39-.059.761-.176 1.112-.351v-.585zM17.106 25.857c-.273-.039-.546-.058-.799-.078l.253.078c.488.176.976.332 1.502.41.722.117 1.463.117 2.185.019-.429-.019-.839-.039-1.268-.097-.624-.098-1.248-.254-1.873-.332zM6.591 23.595c-.078-.097-.175-.175-.273-.253l-.156-.117-.098.741c.157.097.313.195.469.273 0-.215.019-.429.058-.644zM6.884 24.434c.273.137.546.293.82.41l-.235-.214c-.273-.274-.526-.586-.76-.878l-.137-.176c-.039.215-.058.429-.058.644l.37.214z" fill="#914440"/></svg>