<svg viewBox="0 0 44 44" xmlns="http://www.w3.org/2000/svg" fill-rule="evenodd" clip-rule="evenodd"><path d="M14.415 31.568c-4.47 2.242-6.671 1.342-7.324 2.325l.137.173c1.189 1.445 3.426 2.725 7.723.62 8.401-3.918 15.291-13.165 16.941-16.007 1.451-2.516 2.156-4.107 1.229-5.225-4.483 7.802-11.684 14.567-18.706 18.114z" fill="#cdb02c"/><path d="M19.508 23.729c6.764-3.961 12.432-9.079 12.604-10.97-1.709-.574-3.174 2.152-5.954 4.059-5.283 3.613-7.813 3.062-14.546 7.349-6.451 4.14-5.906 7.827-4.593 9.655 1.083-4.905 5.174-5.817 12.489-10.093z" fill="#f9e957"/><path d="M32.112 12.76c-.705 1.821-5.742 6.66-12.526 10.634-7.315 4.276-11.484 5.524-12.567 10.429l.051.083c.327-.722 3.035.207 7.505-2.035 7.022-3.547 14.829-10.862 18.517-18.37-.124-.153-.269-.293-.455-.407-.171-.181-.344-.274-.525-.334z" fill="#f5be17"/><path d="M6.441 32.715c-.113-.505.065-.818.403.093.13.207.226-.054.221-.339-.021-.447.251-.473.429-.325.246.163.179.377.039.753-.12.362-.081.654.245.623.598-.056.763.301.388.391-.376.09-.417.116-.055.466.362.349 1.348.454 1.761.886-.543.052-1.146-.177-1.614-.604-.274-.117-.3.072.269.523-.618-.161-1.942-1.637-2.086-2.467z" fill="#7e9e3e"/><path d="M6.97 33.192c.212-.075.277.259.398.5.096.199.261.326.036.38 0 0-.171.049-.391-.303-.155-.249-.162-.445-.043-.577z" fill="#f9e957"/><path d="M7.13 28.976c.005.285.295-.127.929-.954.635-.827 2.31-2.016 3.055-2.711.746-.696 1.429-.892 1.487-1.215.036-.311-.893-.048-2.327 1.02-1.414 1.054-3.2 2.802-3.144 3.86zM8.037 30.798c.155.249.272-.025.398-.191.127-.165.593-.571 1.049-.855.456-.284.684-.657.554-.864-.129-.207-1.004.281-1.558.915-.575.646-.534.85-.443.995zM10.303 28.666c.033.238.424.081.955-.222.543-.281.719-.506.642-.63-.091-.145-.404-.094-.914.195-.523.269-.748.323-.683.657zM12.627 27.273c.124.153.501-.026.939-.385.438-.359 2.029-1.036 2.412-1.159.391-.158 2.863-1.499 4-2.351 1.136-.853 3.031-1.92 3.595-2.445.552-.546 2.193-1.512 2.68-1.931.499-.398 1.074-1.044.448-.711-.606.321-.785.633-1.51 1.316-.725.682-1.68 1.134-2.542 1.643-.875.489-3.194 1.936-4.1 2.558-.906.623-2.42 1.424-3.505 2.129-1.408.879-2.619 1.059-2.417 1.336zM28.731 16.565c.08.267.629-.19 1.258-.842.477-.527.922-1.151.855-1.166-.168-.039-.233.318-1.025.985-.521.411-1.132.907-1.088 1.023z" fill="#fcfbe6"/><path d="M32.797 12.704c.171.181.559.572.66.365.481-.242.687-1.665 1.039-2.115.316-.37-.323-.748-.359-1.128-.17-.182-.525-.335-.639-.148-.305.478-.813 1.14-1.266 1.566-.507-.028-.596.429-.805.647-.223.196-.371.605-.283.838 0 0 .274-.114.621.073l-.005-.055c.171-.279.846-.211 1.037-.043z" fill="#7e9e3e"/><path d="M34.28 12.729c.016-.297-.012-.02.136-.659.148-.639.306-.939.578-1.425.158-.3-.639-.609-.835-.831.002.372-.151.496-.467.866-.365.429-.763.62-.479 1.076.116.186.878-1.267 1.1-1.003.065.103-.513.838-.746 1.386-.132.341-.073.621-.081.655-.08.194-.523.038-.693-.143-.171-.182-.867-.236-1.025.063.031.096.246.164.303.301.232.142.416-.116.62.073.132.119.334.166.432.507.072.3.321.145.388.622.261.095 1.028-.843.769-1.488z" fill="#566c33"/><path d="M31.818 11.734c-.22-.352.957-.31.84-.036-.103.295-.543.512-.84.036z" fill="#fdfae8"/></svg>