<svg viewBox="0 0 44 44" xmlns="http://www.w3.org/2000/svg" fill-rule="evenodd" clip-rule="evenodd"><path d="M15.632 22.62c1.795 3.105 2.935 7.436 8.775 8.861 2.735.683 4.929.37 6.553-.2 2.593-2.422 3.619-5.812 3.334-8.49-.456-4.701-4.331-8.947-11.425-9.289-.997-.057-1.909-.028-2.764.057 2.336.143 5.328.884 6.183 1.681 1.51 1.425-.485 3.305-1.51 3.305-1.026 0-4.245-.37-4.53-1.709-1.226-.086-2.65-1.14-3.106-2.365-.029-.142-.029-.256.029-.37-4.217 1.339-6.183 4.359-6.753 7.009 1.51-1.311 3.704-1.112 5.214 1.51z" fill="#ec2a29"/><path d="M22.157 34.501c3.96-.028 6.838-1.339 8.832-3.191-1.624.57-3.817.855-6.553.2-5.84-1.425-6.98-5.756-8.775-8.861-1.51-2.65-3.704-2.849-5.214-1.51-.085.399-.142.769-.171 1.139-.285 3.733 2.735 12.309 11.881 12.223z" fill="#b9050b"/><path d="M17.142 14.5c.484 1.225 1.881 2.251 3.106 2.364.285 1.311 3.476 1.71 4.53 1.71 1.026 0 3.02-1.88 1.51-3.305-.855-.798-3.846-1.539-6.183-1.681-1.082.114-2.051.285-2.906.57-.057.085-.086.199-.057.342z" fill="#da252b"/><path d="M27.713 20.026c-2.222 1.083-.854 3.96 1.425 3.02 1.709-.712.769-4.103-1.425-3.02z" fill="#fcfbe6"/><path d="M22.614 13.702c.199-1.795.057-3.875 0-4.246.057-.569.855-.569 1.054-.284.143.797.285 3.817 0 4.815.741-.798 1.083-.513 1.225-1.567.143-1.026.94-1.938 1.653-2.451 1.025.656.712 3.334-1.14 3.818 2.023-.085 4.188.741 4.815-.085.627-.855 1.567-2.878 2.223-3.248.569 2.365-1.511 4.159-3.733 4.33-2.222.2-3.647-.313-4.16-.228.599.456 1.026 1.026 1.026 1.368.142.143-.598.541-1.368.655-.74.086-1.88-.342-2.108-.512-.228-.2.37-.741.655-1.026-1.51.513-4.986.37-6.553-1.51-1.567-1.881-2.592-2.023-3.105-3.077 1.282.057 3.219 1.88 4.046 2.592.854.713 3.618 1.14 4.758.998-1.425-.656-4.531-1.71-4.046-4.616 1.567.741 3.134 3.533 4.758 4.274z" fill="#71923d"/><path d="M23.811 14.727s-.171-.057 0-.228c.171-.142.455-.627.142-.798-.085.086-.199.171-.285.285-.399.599-.883.342-.655-.341.199-.713.313-2.85.114-3.818-.2 0-.456-.057-.485-.342.057.37.2 2.45 0 4.245-1.652-.769-3.219-3.561-4.786-4.302-.485 2.906 2.65 3.96 4.046 4.615-1.14.143-3.904-.284-4.758-.997-.855-.712-2.793-2.536-4.046-2.593.513 1.026 1.937 1.795 3.476 3.676 1.567 1.88 4.672 1.424 6.182.883-.256.257-.74.712-.712.94.427.285 1.339-.655 1.767-1.225z" fill="#456e34"/></svg>