<svg viewBox="0 0 44 44" xmlns="http://www.w3.org/2000/svg" fill-rule="evenodd" clip-rule="evenodd"><path d="M10.943 13.697c.432 1.294 1.654 1.186 1.906 1.007.251-.18.539-.432.071-.935-.467-.539.252-1.078.36-1.078-.108.647.539.826 1.078.611.54-.252.791-1.079.072-1.115.252-.431-.467-1.653-1.186-.934.108-.36 0-1.474-.575-2.265-2.373-.395-4.242 2.157-3.2 4.673.576.396 1.33.36 1.474.036z" fill="#37532e"/><path d="M19.68 26.063c.215-1.187.862-2.049 1.581-2.373 0-1.941.108-4.026.36-4.709-.755 1.438-1.87.97-2.337.611-.467-.36-.719-1.294.072-2.444-.611.647-1.186.179-1.366 0-.18-.18-.359-1.007.467-1.438-.431-.108-.719-1.115-.431-1.978-.108.36-.935 1.295-1.797 1.438.647-.179.934.432.934.719 0 .288-.251 1.115-.934.935-.18.072.359.359.359.899 0 .539-.252 1.33-.935.97-.071.18-.431.791-1.078.36-.18.539-1.977 1.258-2.84-.18.072.611-.18 1.69-1.186 2.516 1.114.863 2.66 1.043 3.091-.359 1.007.216 1.115 3.523 3.344 6.83 1.509 2.265 1.15 4.637 1.33 5.788.179 1.15.97 1.977.79 2.336-.179.36-.539 1.869.54 1.797.719-.071.79-.287 1.114-.575-.18-.359-.395-.755-.647-1.222-1.402-2.516-.791-7.98-.431-9.921zm-2.768-4.817c.072-1.618.072-1.51 1.33-2.229.431 1.689.539 7.153.539 8.555-1.51-3.415-1.977-4.745-1.869-6.326zM35.784 17.327c-.288 1.366-1.474 2.445-2.589 2.265.18.467-.611 1.366-1.258.899 0 0-.108 1.114-.898.647-.791-.468-.54-1.294-.36-1.906-.359.252-1.366.18-1.474-.287-.791.072-1.186-.36-1.366-1.079 0 .432-.287 1.187-.431 1.259.287-.072.934.179.719.934-.36 1.007-2.193.432-1.977-.287-.36-.108-.827-1.115 0-1.618-1.438-.252-1.366-2.265-1.079-3.631-.108.468-.611 1.258-1.114 1.294.935.612.287 1.618-.647 1.295.287.359 0 .826.251.934.252.108.648.539.432.827-.611.899-1.258-.288-1.474-.647-.252-.36-.36-1.438.288-1.438-.252-.072-.791-.647-.468-1.258-1.114.467-2.264-.899-2.157-1.798-.287.252-.647.288-1.006.108 0 0 .072.54.287.935.252.431.072.899.252.935.18.071.827.251.288 1.006.826-.359.719.611.539 1.007-.18.431.108.791.539.467.395-.288.719.18.611.467.18-.215.791-.036 1.007.288 1.078.611.898 1.258.611 2.84-.108.611-.216 1.15-.36 1.725.719-.287 1.438-.359 1.906.072.323-.827.503-1.977.503-2.768 0 0 .719.252.791.36 0 .323-.036.683-.072 1.042 1.078-.611 2.121-.287 2.732 1.043.108-.432.18-.935.251-1.474 1.906 1.905 4.17 1.186 4.53.108.935-.252 2.372-1.259 2.372-3.811.036-.108-.036-.395-.179-.755z" fill="#4a8e4c"/><path d="M26.114 22.36c-.179 1.761-.647 3.882-1.617 4.853-1.151 1.15-1.151.791-1.151.072 0-.719.612-2.157 1.151-2.84.144-.18.251-.432.359-.719-.431-.432-1.186-.36-1.905-.072-.252.97-.719 2.013-1.618 3.451-.072-.611-.107-1.977-.107-3.451-.719.323-1.366 1.186-1.582 2.372-.36 1.978-.971 7.406.431 9.994.252.467.468.863.647 1.222.144-.144.324-.287.683-.431 1.079-.432.971-2.948 1.079-3.739.072 1.977.431 2.481.611 2.409 1.33-.18.719-1.546.719-2.84 0-1.294.539-2.66 1.653-3.703 1.366-1.294 2.553-2.085 3.308-5.536-.576-1.33-1.618-1.653-2.661-1.042z" fill="#61b460"/><path d="M11.735 18.91c.899 1.437 2.66.719 2.84.179.611.432.971-.179 1.078-.359.719.359.935-.432.935-.971 0-.539-.539-.827-.359-.899.719.18.934-.646.934-.934 0-.288-.287-.899-.934-.719.826-.108 1.653-1.078 1.797-1.438-.288.827 0 1.833.431 1.977-.826.431-.647 1.258-.467 1.438.18.18.791.647 1.366 0-.791 1.114-.539 2.085-.072 2.445.467.359 1.546.79 2.337-.612l.036-.071.036-.108c.107-.288-.216-.755-.612-.468-.431.288-.718-.072-.539-.467.18-.431.288-1.366-.539-1.006.539-.791-.108-.935-.288-1.007-.179-.072.18-.575.108-1.078-.072-.648-.647-.827-.647-.827.36.179.719.107 1.007-.108-.108.898 1.006 2.265 2.157 1.797-.288.611.251 1.186.467 1.258-.647 0-.719 1.259-.467 1.618.359.539 1.078 1.366 1.653.467.252-.287-.179-.719-.431-.826-.252-.108.072-.611-.252-.935.935.288 1.618-.719.647-1.294.54-.072 1.007-.827 1.115-1.294-.288 1.366-.36 3.379 1.078 3.63-.827.468-.359 1.474 0 1.618-.252.719 1.618 1.294 1.977.288.252-.791-.431-1.007-.719-.935.108-.072.432-.827.432-1.258.179.719.611 1.114 1.366 1.078.108.468 1.114.54 1.474.288-.18.611-.432 1.438.359 1.905.791.467.899-.647.899-.647.647.467 1.438-.431 1.258-.899 1.114.18 2.301-.898 2.588-2.264-.431-1.151-1.546-2.589-2.66-2.697 0-.718-.827-2.624-2.624-2.372.036-1.941-1.798-2.732-3.092-2.157-.215-1.653-3.019-4.098-5.32-1.402-1.618-2.121-3.451-2.876-4.925-2.588 0 .323.072.575.252.683.539.288.827 1.294.287 1.294-.539 0-1.545.108-1.617.611-.072.468.467 1.798-.252 2.085-.503.216-1.222-.575-1.33-1.977l-.18.719c-.575-.431-1.15-.647-1.689-.719.575.791.683 1.905.575 2.265.719-.719 1.438.539 1.186.934.719.072.468.899-.072 1.115-.539.251-1.186.072-1.078-.611-.108 0-.827.539-.36 1.078.468.539.18.791-.071.935-.252.179-1.474.287-1.906-1.007-.179.324-.899.36-1.51-.036.216.539.576 1.079 1.079 1.582-1.654-.252-2.984 2.48-1.186 3.703-.216.934.395 1.869 1.186 2.48 1.078-.791 1.33-1.869 1.258-2.48z" fill="#336033"/><path d="M15.762 11.325c.718-.288.539-2.157.611-2.625.072-.467.791-.467 1.294-.467.539 0 .251-1.007-.288-1.294-.18-.108-.251-.36-.251-.683-1.187.251-2.157 1.186-2.625 2.696-.503 2.193.755 2.588 1.259 2.373zM23.741 8.952c.467-.18 1.007-.719 0-1.007-1.006-.287-2.66 1.618-2.193 2.984.468 1.366 1.977.647 1.798-.108-.18-.791-.324-1.294.395-1.869zM25.827 10.605c.827.359.108 2.552-.935 2.193-1.078-.324-.395-2.768.935-2.193z" fill="#37532e"/><path d="M16.013 20.672c.719 0 .287 1.186.719 2.372.395 1.079 1.078 2.337.719 2.625-.36.287-1.834-1.546-2.085-3.2-.252-1.689.215-1.797.647-1.797z" fill="#61b460"/><path d="M14.359 17.508c-.252.395-2.373-.18-1.798-1.366.612-1.187 2.157.826 1.798 1.366zM32.117 18.514c-.827.359 0 2.085.791 1.617.755-.467.359-2.085-.791-1.617zM29.17 18.657c-.647.791-2.193-.791-1.546-1.617.647-.827 2.121.898 1.546 1.617zM15.725 15.315c-.432.288-.108 1.186.179 1.366-.467-.072-.719.791-.539 1.294-.647-.072-.934-1.438-.251-1.653-.108-.288 0-1.079.611-1.007z" fill="#4a8e4c"/><path d="M23.921 24.482c-.611 1.079-1.797 4.027-1.653 6.183.108 2.157 0 3.811-.36 4.278-.611-2.624-1.905-6.902 2.013-10.461z" fill="#a9d48e"/><path d="M28.092 24.482c-.252 1.438-1.294 3.919-2.984 4.027-1.797.143 2.013-2.121 2.984-4.027z" fill="#9acf8e"/></svg>