<svg viewBox="0 0 44 44" xmlns="http://www.w3.org/2000/svg" fill-rule="evenodd" clip-rule="evenodd"><path d="M12.407 16.21s-1.481-1.24 1.024-4.243c1.741-2.085 5.373-3.544 10.341-2.678 4.967.865 7.743 2.909 8.913 5.139 1.129 2.136 1.003 3.945.208 5.011-.279.388-1.163.206-1.163.206s-5.707-3.175-11.013-3.48c-5.284-.294-8.31.045-8.31.045z" fill="url(#a)"/><path d="M33.475 16.792c-.089-.725-.334-1.513-.789-2.366-.985-1.861-3.07-3.602-6.637-4.633.143.205.338.414.357.618.055.856-.851.332-1.445.456-1.268.27-.573.658.207.903.976.331 1.019.946 1.75 1.465.577.402 1.451.151 2.087.382.808.289 1.222 1.118 2.141 1.43.386.14.704.16 1.035.419.401.328.698 1.311 1.294 1.326zM27.361 17.105c.19-.329-.846-2.055-1.156-2.303-.69-.564-1.765-.416-2.475-.922-.756-.547-1.28-.163-2.121-.443-.747-.253-1.414-1.12-2.006-1.64-.849-.766-2.053-.775-2.827-1.456-.161-.148-.062-.297-.378-.438-1.261.493-2.265 1.232-2.966 2.064-1.901 2.266-1.509 3.537-1.207 4.014.252-.033.488-.061.66-.072.705-.032 1.21-.097 1.881-.259 2.068-.536 5.027-.474 7.078-.03.463.103 1.624.733 2.766 1.228.677.185 1.337.374 1.952.593.368.006.656-.089.799-.336z" fill="#67432b" fill-opacity=".4"/><path d="M22.576 14.71c2.63.394 5.619 1.023 8.397 2.491 2.313 1.228 2.66 2.266.927 3.078-1.842.858-7.062.548-10.04.09-3.268-.501-6.78-1.913-8.13-2.858-1.37-.957-2.49-2.086-.389-2.63 2.889-.72 7.043-.49 9.235-.171z" fill="#b59d86"/><path d="M20.629 10.163c.122.455-.941 1.105-2.347 1.446-1.402.358-2.644.272-2.745-.171-.122-.455.941-1.105 2.347-1.446 1.398-.374 2.639-.288 2.745.171zM19.457 12.235c.044.163-.258.4-.669.492-.406.109-.787.054-.835-.125-.043-.162.259-.4.67-.492.411-.092.787-.054.834.125z" fill="#a07958"/><path d="M32.082 18.488c-2.161-1.895-5.262-2.615-6.97-3.012-2.547-.607-5.363-.847-7.957-.78-1.211.028-2.897.235-4.061.633-.447.154-.705.363-.8.788.349.586.894.998 1.451 1.389 1.35.945 4.841 2.344 8.13 2.858 2.978.458 8.177.756 10.04-.09.373-.169.744-.408.908-.643-.03-.306-.212-.727-.741-1.143z" fill="#a88c71" fill-opacity=".15"/><path d="M18.354 17.164s1.492-1.13 5.053-.445c3.54.672 4.016 1.607 4.016 1.607s.902 5.783 1.512 10.148c.712 5.137-2.358 8.762-3.513 9.523-3.76 1.632-7.399-.059-8.927-.956-1.832-1.513-3.305-5.263-1.183-10.288 2-4.696 3.042-9.589 3.042-9.589z" fill="#f0dfc8"/><path d="M28.94 28.489c-.614-4.38-1.512-10.147-1.512-10.147s-.472-.919-3.943-1.593c.284 6.924-.514 13.772-1.99 20.626-.091.442-.186.868-.318 1.286 1.308.138 2.767-.008 4.233-.644 1.171-.766 4.242-4.39 3.53-9.528zM19.061 23.713c.679-2.933 1.24-4.806 1.987-7.287-1.709.056-2.693.737-2.693.737s-1.043 4.893-3.027 9.585c-2.121 5.025-.648 8.775 1.184 10.288.329.19.758.424 1.255.657-.574-4.687.22-9.27 1.294-13.98z" fill="#c39769" fill-opacity=".1"/><path d="M28.94 28.489c-.614-4.381-1.512-10.148-1.512-10.148s-.228-.461-1.578-.953c.728 5.847.926 11.732-.11 17.563-.194 1.097-.462 2.178-.804 3.245l.475-.179c1.17-.766 4.241-4.39 3.529-9.528zM16.902 26.711c1.016-3.493 1.846-6.902 3.225-10.144-1.225.171-1.757.592-1.757.592s-1.059 4.897-3.043 9.589c-2.071 4.89-.721 8.569 1.047 10.168-.286-1.264-.47-2.539-.544-3.859-.138-2.21.478-4.203 1.072-6.346z" fill="#c39769" fill-opacity=".15"/><path d="M24.526 20.841c1.143.304 2.407.732 3.503 1.379-.334-2.226-.606-3.895-.606-3.895s-.477-.935-4.017-1.607c-3.561-.685-5.052.445-5.052.445s-.334 1.552-.972 3.725c2.264-.78 4.829-.63 7.144-.047z" fill="url(#b)"/><defs><linearGradient id="a" x2="1" gradientUnits="userSpaceOnUse" gradientTransform="matrix(-2.45 15.962 -15.962 -2.45 24.456 5.104)"><stop offset="0" stop-color="#a07958"/><stop offset="1" stop-color="#67432b"/></linearGradient><linearGradient id="b" x2="1" gradientUnits="userSpaceOnUse" gradientTransform="matrix(-.464 4.753 -4.753 -.464 23.266 15.796)"><stop offset="0" stop-color="#c39769" stop-opacity=".4"/><stop offset="1" stop-color="#fff" stop-opacity=".4"/></linearGradient></defs></svg>